<svg xmlns="http://www.w3.org/2000/svg" width="85" height="26" fill="none"><g clip-path="url(#A)" fill="#000"><path d="M83.341 8.854h-1.844V6.629c0-.118-.052-.227-.144-.298a.36.36 0 0 0-.311-.067l-1.622.4c-.166.041-.282.191-.282.366v1.825h-.925c-.204 0-.37.17-.37.378v1.346c0 .209.166.378.37.378h.925v5.432c.021 2.309 1.496 2.627 3.088 2.627l.474-.009.493-.01.019-.001c.217-.028.351-.18.351-.396v-1.443c0-.209-.166-.378-.37-.378h-.558c-.808 0-1.137-.359-1.137-1.237v-4.584h1.844c.204 0 .37-.17.37-.378V9.232c0-.208-.166-.378-.37-.378zm-9.92-.154c-.966 0-1.723.298-2.254.886v-.354c0-.216-.159-.378-.37-.378h-1.712c-.211 0-.371.162-.371.378v9.367c0 .216.159.378.371.378h1.712c.211 0 .37-.163.37-.378v-5.866c0-1.085.659-1.814 1.639-1.814s1.621.72 1.621 1.834V18.6c0 .216.159.378.37.378h1.712c.211 0 .371-.163.371-.378v-6.31c0-2.181-1.358-3.59-3.459-3.59zm-8.632 4.212h-3.644c.021-.322.063-.546.136-.743l.003-.01c.237-.811.806-1.24 1.645-1.24.903 0 1.543.492 1.758 1.36.046.141.081.367.101.634zM62.93 8.7c-1.988 0-3.495 1.126-4.03 3.008-.175.562-.251 1.263-.23 2.14 0 1.079.144 1.947.438 2.65.651 1.672 2.074 2.614 4.006 2.652h.071c1.608 0 2.988-.666 3.795-1.837.114-.177.085-.355-.084-.5l-1.153-.98a.35.35 0 0 0-.272-.094c-.065.007-.17.047-.262.18-.459.672-1.094 1.013-1.886 1.013-1.08-.017-1.766-.455-2.045-1.316-.082-.186-.118-.457-.15-.755h5.765c.221 0 .369-.151.37-.376.019-.65.017-1.16-.057-1.692-.313-2.716-1.752-4.092-4.277-4.092zm-8.164 5.129c0 1.061-.04 1.334-.126 1.671-.195.805-.784 1.267-1.618 1.267-.824 0-1.464-.484-1.716-1.304-.08-.207-.175-.654-.175-1.614 0-.758.067-1.276.215-1.64.272-.825.877-1.298 1.658-1.298.827 0 1.432.48 1.62 1.292.101.349.142.594.142 1.626zm2.075-4.975h-1.705c-.211 0-.37.162-.37.377v.254c-.566-.528-1.303-.785-2.244-.785-1.666 0-3.026 1.023-3.549 2.666-.27.774-.305 1.733-.305 2.482 0 .983.078 1.732.247 2.361.589 1.97 2.317 2.672 3.737 2.672.885 0 1.595-.25 2.114-.741-.01.823-.225 1.416-.658 1.81-.567.517-1.526.702-2.947.569-.367 0-.407.25-.407.353l-.056 1.576c0 .221.124.368.336.396l1.024.055c1.589 0 2.912-.418 3.791-1.212.902-.815 1.36-2.008 1.36-3.547V9.231c0-.215-.159-.377-.369-.377zm-9.005.039c-.26-.104-.547-.155-.876-.155-.875 0-1.588.356-2.123 1.06v-.567c0-.208-.166-.378-.37-.378h-1.712c-.204 0-.37.17-.37.378v9.366c0 .209.166.378.371.378h1.712c.204 0 .37-.17.37-.378v-5.443c0-1.173.846-1.747 1.697-1.797a1.74 1.74 0 0 1 .651.01c.21.042.409-.088.456-.295l.454-1.671c.046-.213-.065-.432-.258-.509zm-9.631 5.698v.853c0 1.015-1.051 1.622-2.067 1.622-.684 0-1.416-.3-1.416-1.141 0-.847.72-1.333 1.974-1.333h1.509zM36.584 8.7c-1.891 0-3.401.868-3.846 2.211-.038.114-.025.238.036.341a.39.39 0 0 0 .258.184l1.687.424a.38.38 0 0 0 .421-.226c.193-.461.726-.716 1.501-.716 1.024 0 1.565.494 1.565 1.43v.41h-1.937c-2.516 0-4.018 1.241-4.018 3.321 0 2.25 1.73 3.051 3.348 3.051 1.085 0 1.983-.323 2.607-.935v.403c0 .209.166.378.37.378h1.712c.204 0 .371-.17.371-.378v-6.481c0-2.012-1.675-3.417-4.073-3.417zM17.153 1.106h-6.866c-.229 0-.413.191-.418.428-.139 6.664-3.513 12.99-9.32 17.471-.184.142-.226.409-.092.602l4.017 5.741c.137.195.403.239.59.096 3.631-2.783 6.551-6.141 8.654-9.862 2.103 3.722 5.023 7.079 8.654 9.862a.41.41 0 0 0 .59-.096l4.017-5.741c.135-.192.093-.46-.091-.602-5.807-4.481-9.18-10.806-9.319-17.471-.005-.237-.189-.428-.419-.428z"/></g><defs><clipPath id="A"><path fill="#000" transform="translate(.023 .909)" d="M0 0h84v25H0z"/></clipPath></defs></svg>
