<svg xmlns="http://www.w3.org/2000/svg" width="180" height="31" fill="#000"><path d="M167.983 9.377h-3.663l5.912 9.961-6.619 10.796h3.663l4.82-7.969 4.37 7.969H180l-6.105-10.796L180 9.377h-3.534l-4.37 7.133-4.113-7.133zm-18.701 0h13.496v2.892h-10.025v5.977h10.025v3.085h-10.025v5.848h10.025v3.02h-13.496V9.377z"/><path fill-rule="evenodd" d="M139.193 30.198c-4.543 0-8.225-3.683-8.225-8.226s3.682-8.226 8.225-8.226a8.19 8.19 0 0 1 5.141 1.804v-6.11h3.085v12.531 7.84h-3.085v-1.419a8.19 8.19 0 0 1-5.141 1.804zm.193-2.956c2.875 0 5.205-2.33 5.205-5.205s-2.33-5.205-5.205-5.205-5.205 2.331-5.205 5.205 2.33 5.205 5.205 5.205z"/><path d="M123.963 13.747a6.75 6.75 0 0 0-6.748 6.748v9.382h3.021l-.065-9.125c0-2.023 1.64-3.663 3.663-3.663s3.663 1.64 3.663 3.663l-.064 9.125h3.277v-9.382a6.75 6.75 0 0 0-6.747-6.748z"/><path fill-rule="evenodd" d="M108.154 30.327a8.29 8.29 0 0 1 0-16.58 8.29 8.29 0 0 1 8.29 8.29 8.38 8.38 0 0 1-.071 1.093h-13.052c.502 2.35 2.59 4.113 5.09 4.113 1.887 0 3.539-1.004 4.452-2.506h3.132c-1.12 3.253-4.207 5.591-7.841 5.591zm-4.695-9.896c.677-2.089 2.638-3.599 4.952-3.599a5.21 5.21 0 0 1 4.953 3.599h-9.905z"/><path d="M83.799 22.037a8.29 8.29 0 0 0 8.29 8.29c3.728 0 6.882-2.461 7.925-5.848h-3.326c-.875 1.644-2.606 2.763-4.598 2.763-2.875 0-5.205-2.331-5.205-5.205s2.33-5.205 5.205-5.205c1.992 0 3.723 1.119 4.598 2.763h3.326c-1.043-3.386-4.196-5.848-7.925-5.848a8.29 8.29 0 0 0-8.29 8.29zm-6.234-7.905c-3.159 0-5.719 2.014-5.719 4.498 0 1.167.565 2.23 1.492 3.03.595.437 2.441 1.519 5.063 2.353.919.338 1.542.995 1.542 1.75 0 1.1-1.323 1.992-2.956 1.992-1.202 0-3.295-.745-2.918-2.314h-3.247c-.158 3.276 3.369 5.141 6.229 5.141 3.443 0 6.233-2.215 6.233-4.948 0-1.423-.757-2.706-1.968-3.609-.201-.232-1.039-.825-2.787-1.34s-2.441-.985-2.569-1.157c-.399-.3-.644-.708-.644-1.157 0-.923 1.036-1.671 2.313-1.671s2.313.748 2.313 1.671h3.333c-.169-2.365-2.661-4.241-5.71-4.241z"/><path fill-rule="evenodd" d="M60.021 9.698l-8.097 20.564h3.534l2.378-5.848h7.519l2.185 5.848h3.663L63.17 9.698h-3.149zm-1.028 11.44l2.57-6.876 2.571 6.876h-5.141z"/><path d="M44.341 3.465c0-1.633-1.323-2.956-2.956-2.956-.767 0-1.466.292-1.991.771l-11.89 11.953v6.041L40.1 6.806v19.279H20.436l-2.185-3.599-7.776 7.969h30.91c1.633 0 2.956-1.324 2.956-2.956V3.465z"/><path d="M27.505 10.02c0-1.633-1.323-2.956-2.956-2.956-.832 0-1.584.344-2.121.897L0 30.453h10.475l4.241-4.368h-4.241l12.853-12.724v12.724h4.177V10.02z"/></svg>
