<svg xmlns="http://www.w3.org/2000/svg" width="126" height="26" fill="none"><path d="M5.921 13.167L3.099 15.99.25 13.167l2.848-2.848 2.823 2.848zm6.898-6.898l4.86 4.86 2.849-2.847L12.819.599 5.11 8.307l2.849 2.847 4.86-4.885zm9.721 4.05l-2.823 2.848 2.848 2.848 2.847-2.848-2.872-2.848zm-9.721 9.746l-4.86-4.885-2.849 2.848 7.709 7.708 7.709-7.709-2.849-2.847-4.86 4.885zm0-4.074l2.848-2.849-2.848-2.822-2.848 2.847 2.848 2.823v.001zm29.949.293v-.048c0-1.841-.982-2.774-2.578-3.388.981-.539 1.816-1.424 1.816-2.97v-.048c0-2.161-1.743-3.56-4.541-3.56h-6.407v13.772h6.555c3.117.024 5.155-1.253 5.155-3.756v-.001zm-3.781-5.891c0 1.031-.835 1.447-2.185 1.447h-2.798V8.92h2.995c1.277 0 1.988.515 1.988 1.424v.049zm.761 5.499c0 1.031-.81 1.498-2.137 1.498h-3.607V14.37h3.51c1.547 0 2.234.566 2.234 1.498v.025zm9.377 4.173V6.269h-3.044v13.772h3.044v.024zm16.301 0V6.269h-2.996v8.494l-6.456-8.494h-2.799v13.772h2.996v-8.739l6.677 8.764h2.576.001zm16.79 0l-5.915-13.87h-2.798l-5.917 13.87h3.118l1.252-3.093h5.818l1.251 3.093h3.192-.002zm-5.523-5.769h-3.657l1.841-4.467 1.816 4.467zm19.983 5.769V6.269h-2.995v8.494l-6.457-8.494h-2.798v13.772h2.995v-8.739l6.677 8.764h2.577.001zm15.637-2.234l-1.939-1.939c-1.081.981-2.038 1.619-3.634 1.619-2.356 0-4.001-1.964-4.001-4.321v-.073c0-2.357 1.669-4.295 4.001-4.295 1.375 0 2.456.589 3.535 1.546l1.939-2.234c-1.276-1.252-2.823-2.136-5.424-2.136-4.222 0-7.193 3.215-7.193 7.119v.049c0 3.952 3.019 7.094 7.07 7.094 2.651.025 4.222-.908 5.646-2.43zm12.937 2.234v-2.7h-7.488v-2.897h6.506v-2.7h-6.506V8.969h7.39v-2.7h-10.384v13.772h10.482v.024z" fill="#000"/></svg>
