<svg xmlns="http://www.w3.org/2000/svg" width="84" height="19" fill="#000"><path d="M5.744 18.457c-2.723 0-5.389-1.959-5.389-6.383 0-4.438 2.666-6.368 5.389-6.368 1.34 0 2.392.346 3.141.836l-.821 1.801c-.504-.36-1.254-.591-2.003-.591-1.643 0-3.141 1.297-3.141 4.294s1.542 4.323 3.141 4.323c.749 0 1.499-.231 2.003-.591l.821 1.844c-.778.519-1.801.836-3.141.836zm9.38 0c-3.472 0-5.389-2.752-5.389-6.383s1.902-6.368 5.389-6.368c3.473 0 5.389 2.723 5.389 6.368 0 3.631-1.916 6.383-5.389 6.383zm0-10.777c-1.931 0-2.882 1.729-2.882 4.366s.951 4.38 2.882 4.38 2.882-1.743 2.882-4.38-.951-4.366-2.882-4.366zm8.732-3.948c-.821 0-1.484-.634-1.484-1.412S23.035.908 23.856.908s1.484.634 1.484 1.412-.677 1.412-1.484 1.412zm-1.254 2.219h2.507v12.247h-2.507V5.951zm12.334 12.247v-8.169c0-1.426-.865-2.32-2.565-2.32-.908 0-1.743.158-2.248.36v10.143h-2.478V6.571c1.225-.504 2.795-.864 4.712-.864 3.429 0 5.086 1.498 5.086 4.092v8.414h-2.507m9.091.244c-1.585 0-3.156-.389-4.121-.864V.361h2.478v5.907c.591-.274 1.542-.504 2.392-.504 3.156 0 5.303 2.276 5.303 6.023 0 4.625-2.392 6.671-6.052 6.671zm.317-10.748c-.677 0-1.484.158-1.96.403v8.04c.36.159 1.066.317 1.772.317 1.974 0 3.429-1.369 3.429-4.495.014-2.68-1.253-4.265-3.242-4.265zm12.478 10.748c-3.516 0-5.303-1.426-5.303-3.847 0-3.415 3.631-4.02 7.334-4.222V9.61c0-1.542-1.023-2.089-2.594-2.089-1.153 0-2.565.36-3.386.749l-.634-1.7c.98-.432 2.637-.864 4.279-.864 2.925 0 4.712 1.138 4.712 4.164v7.723c-.879.475-2.68.864-4.409.864zm2.046-6.412c-2.507.13-5 .346-5 2.521 0 1.297.994 2.089 2.882 2.089.792 0 1.729-.13 2.118-.317v-4.294zm7.954 6.412c-1.426 0-2.925-.389-3.818-.864l.836-1.902c.634.389 1.974.792 2.911.792 1.34 0 2.233-.663 2.233-1.686 0-1.109-.937-1.542-2.176-2.003-1.643-.62-3.472-1.369-3.472-3.66 0-2.017 1.571-3.429 4.294-3.429 1.484 0 2.709.36 3.573.864L70.424 8.3a5.47 5.47 0 0 0-2.522-.72c-1.297 0-2.017.677-2.017 1.57 0 1.109.908 1.498 2.118 1.959 1.7.634 3.588 1.34 3.588 3.732-.014 2.176-1.7 3.617-4.769 3.617zm16.847-6.44l-8.141 1.138c.245 2.204 1.686 3.314 3.746 3.314 1.225 0 2.55-.303 3.386-.749l.72 1.859c-.951.504-2.594.865-4.279.865-3.862 0-6.023-2.478-6.023-6.383 0-3.746 2.089-6.368 5.519-6.368 3.184 0 5.072 2.089 5.072 5.389.029.303.029.62 0 .937zm-5.086-4.495c-1.902 0-3.156 1.455-3.199 4.006l5.937-.821c-.029-2.132-1.109-3.184-2.738-3.184z"/></svg>
