<svg xmlns="http://www.w3.org/2000/svg" width="1615" height="401" fill="#000"><path d="M658.08 153.172c-4.435-17.289-15.617-29.939-37.482-29.939-32.267 0-45.761 28.455-45.761 57.333s13.494 57.349 45.761 57.349c23.426 0 36.264-17.492 38.357-39.42h25.723c-2.109 36.046-27.613 60.91-64.034 60.91-45.12 0-72.107-35.843-72.107-78.855s26.894-78.917 72.014-78.917c33.937.203 60.706 18.976 63.877 51.445l-26.348.094zm42.167 47.976c0-33.313 20.022-57.334 55.022-57.334s55.022 24.021 55.022 57.334-20.022 57.567-55.022 57.567-55.022-24.036-55.022-57.567zm86.008 0c0-18.742-9.48-38.358-30.986-38.358s-30.986 19.601-30.986 38.358 9.48 38.592 30.986 38.592 30.986-19.617 30.986-38.592zm44.668-95.924h24.036v22.771h-24.036v-22.771zm0 41.544h24.036v108.997h-24.036V146.768zm50.191.002h22.771v16.024l.422.422a39.03 39.03 0 0 1 33.953-19.413c23.614 0 38.576 12.651 38.576 37.092v74.857H952.8v-68.516c-.421-17.07-7.168-24.442-21.287-24.442-16.024 0-26.363 12.635-26.363 28.659v64.315h-24.036V146.77zm255.746 108.996h-16.87l-3.99-17.711c-14.06 16.024-26.99 21.287-45.3 21.287-45.08.032-72.134-35.889-72.134-78.854s27.054-78.855 72.104-78.855c32.8 0 60.51 17.492 64.51 51.445h-25.73c-2.53-19.819-19.8-29.939-38.78-29.939-32.26 0-45.76 28.456-45.76 57.333s13.5 57.349 45.76 57.349c26.98.422 41.73-15.805 42.17-41.325h-40.06V176.49h64.04l.04 79.276zm44.09-48.293c0 17.086 9.27 32.267 29.29 32.267 13.92 0 22.35-6.123 26.55-18.133h22.79c-5.26 23.817-25.5 37.108-49.34 37.108-34.14 0-53.33-23.833-53.33-57.349 0-31.001 20.3-57.552 52.71-57.552 34.36 0 55.44 30.986 51.44 63.659h-80.11zm56.08-15.805c-.84-15.181-11.18-28.878-27.41-28.878-16.66 0-28.03 12.635-28.67 28.878h56.08zm115.97-8.434c-1.9-13.291-11.6-20.444-24.88-20.444-12.49 0-29.93 6.528-29.93 39.623 0 18.132 8.01 37.327 28.87 37.327 13.92 0 23.62-9.278 25.94-24.88h24.04c-4.44 28.253-21.86 43.855-49.98 43.855-34.15 0-52.91-24.254-52.91-56.302 0-32.891 17.93-58.599 53.76-58.599 25.3 0 46.85 12.651 49.13 39.42H1353zm44.33-78.01h24.03v85.602l43.44-44.058h29.52l-41.75 40.044 45.74 68.953h-29.36l-33.31-52.929-14.34 13.916v39.044h-23.97V105.224zm107.48 95.924c0-33.313 20.03-57.334 55.03-57.334s55.03 24.021 55.03 57.334-20.03 57.567-55.03 57.567-55.03-24.036-55.03-57.567zm86.03 0c0-18.742-9.5-38.358-31-38.358-21.51 0-30.99 19.601-30.99 38.358s9.48 38.592 30.99 38.592c21.5 0 31-19.617 31-38.592h0z"/><path d="M365.733 309.436c21.754-32.879 33.27-71.471 33.091-110.895A199.35 199.35 0 0 0 198.603.116c-39.424.176-77.91 12.04-110.592 34.09a199.33 199.33 0 0 0-73.014 89.786 199.33 199.33 0 0 0-10.826 115.22 199.32 199.32 0 0 0 31.381 73.616c35.105 56.228 117.715 99.885 194.023 83.984 1.751-.321 3.51-.67 5.278-1.046l-.017-.043-.039-.095.034-.009a199.36 199.36 0 0 0 41.776-12.362c36.354-15.252 67.37-40.942 89.125-73.821zm-130.901 86.183l.033-.008c-8.356-58.333 42.621-115.463 71.342-144.7 2.707-2.741 6.017-5.912 9.631-9.374l.001-.001h.001l15.623-15.335c37.897-35.052 45.898-77.104-30.889-98.017-14.354-4.154-29.231-10.031-44.295-15.983h0l-.34-.134-.02-.084.033.023-.098-.28c-.258-.978-.679-2.016-1.276-3.115-9.173-19.54-33.852-21.913-54.35-15.534l.184.014-.198.047c-17.773-4.186-35.328-5.669-52.179-1.562-73.655 20.29-85.63 56.19-88.537 99.432l-.478 5.757-.002.019c-3.649 44.071-6.438 77.755-23.466 116.044a199.27 199.27 0 0 0 23.631 28.199A199.33 199.33 0 0 0 161.49 395.12a199.34 199.34 0 0 0 73.342.499zm-31.546-223.855a38.55 38.55 0 0 0 6.488-21.419c0-5.061-.997-10.072-2.934-14.748a38.53 38.53 0 0 0-8.356-12.502 38.55 38.55 0 0 0-12.505-8.351c-4.677-1.935-9.689-2.93-14.75-2.928-7.624 0-15.077 2.261-21.416 6.497s-11.279 10.257-14.196 17.301a38.55 38.55 0 0 0 8.362 42.008c5.393 5.39 12.262 9.06 19.74 10.545a38.54 38.54 0 0 0 22.272-2.2c7.043-2.92 13.061-7.862 17.295-14.203zm-31.956 5.789c15.526 0 28.112-12.587 28.112-28.113s-12.586-28.112-28.112-28.112-28.112 12.587-28.112 28.112 12.586 28.113 28.112 28.113z" fill-rule="evenodd"/><path d="M347.577 207.224c-9.698 8.839-21.24 15.383-32.985 21.162a209.68 209.68 0 0 1-37.014 13.478c-12.744 3.295-26.035 5.779-39.498 4.561s-27.222-5.795-36.14-15.884l.422-.484c10.933 7.091 23.552 9.589 36.109 9.949a169.56 169.56 0 0 0 37.951-3.124c12.62-2.642 24.965-6.459 36.874-11.401 11.916-4.92 23.708-10.62 33.859-18.741l.422.484z"/></svg>
