<svg xmlns="http://www.w3.org/2000/svg" width="127" height="30" fill="none"><g clip-path="url(#A)" fill="#000"><path d="M14.254 18.332l-2.482.47-.313-.995 2.628-.416.167.941z"/><path d="M11.771 18.802l-2.148.634-.459-1.05 2.315-.597.292 1.014z"/><path d="M14.087 17.372l-2.628.416-.271-1.176 2.774-.362.125 1.122z"/><path d="M11.46 17.789l-2.315.597-.417-1.231 2.44-.543.292 1.176zm2.961 1.303l-2.315.525-.334-.814 2.482-.471.167.76z"/><path d="M12.105 19.617l-1.982.67-.501-.851 2.149-.634.334.814zm1.858-3.348l-2.774.362-.229-1.303 2.879-.29.125 1.231z"/><path d="M11.188 16.631l-2.44.543-.355-1.376 2.566-.489.229 1.321zm5.758 1.393l-2.712.308-.146-.941 2.837-.253.021.887zm-2.358 1.629l-2.149.561-.355-.597 2.315-.525.188.561zm-4.965-.217l-1.752.778-.626-1.086 1.919-.76.459 1.068z"/><path d="M12.44 20.214l-1.815.688-.522-.634 1.982-.67.355.615zm4.505-3.077l-2.837.253-.146-1.104 2.983-.181v1.032zm-7.781 1.249l-1.919.76-.563-1.267 2.065-.724.417 1.231zm7.803.344l-2.545.362-.167-.76 2.712-.308v.706z"/><path d="M10.125 20.286l-1.606.814-.667-.869 1.752-.778.521.833zm3.712-5.266l-2.879.29-.188-1.412 2.983-.217.084 1.339z"/><path d="M10.958 15.309l-2.566.489-.292-1.484 2.67-.416.188 1.412zm5.967.778l-2.983.181-.125-1.249 3.087-.091.021 1.158zm-8.178 1.068l-2.065.724-.48-1.412 2.169-.67.375 1.357zm8.239 2.081l-2.399.416-.167-.561 2.545-.362.021.507z"/><path d="M14.754 19.997l-1.961.579-.355-.38 2.149-.561.167.362zm-4.108.905l-1.418.814-.688-.633 1.606-.814.501.633z"/><path d="M12.794 20.594l-1.627.706-.521-.398 1.815-.688.334.38zm4.129-5.665l-3.087.091-.104-1.339 3.191-.018v1.267zm-8.552.869l-2.169.67-.396-1.538 2.274-.615.292 1.484zm8.615 3.764l-2.232.452-.188-.344 2.399-.416.021.308z"/><path d="M13.731 13.68l-2.983.217-.146-1.502 3.066-.127.063 1.412zm6.031 4.181l-2.816.163v-.887l2.941-.09-.125.814z"/><path d="M10.751 13.898l-2.67.416-.229-1.556 2.753-.344.146 1.484zm8.886 4.615l-2.67.217-.021-.706 2.816-.163-.125.651zm.25-1.466l-2.941.09v-1.032h3.045l-.104.941zM7.851 20.214l-1.335.923-.772-1.104 1.481-.905.626 1.086z"/><path d="M7.244 19.146l-1.481.905-.688-1.285 1.627-.869.542 1.249zm3.923 2.154l-1.252.833-.709-.398 1.418-.814.542.38zm-2.649-.217l-1.189.923-.814-.887 1.335-.923.667.887zm6.425-.959l-1.794.597-.355-.127 1.961-.579.188.108z"/><path d="M19.509 18.965l-2.524.271-.021-.525 2.67-.217-.125.471zm.482-2.878h-3.045v-1.158l3.15.072-.104 1.086zm-6.842 4.634l-1.439.724-.521-.145 1.627-.706.334.127zm3.776-7.059l-3.191.018-.063-1.412 3.254.072v1.321zM6.683 17.879l-1.627.869-.605-1.448 1.731-.851.501 1.43zm10.325 1.774l-2.065.471-.188-.127 2.232-.452.021.109zm-7.781 2.081l-1.022.923-.855-.651 1.189-.923.688.652zm-1.148-7.42l-2.274.615-.313-1.611 2.357-.561.229 1.556z"/><path d="M19.384 19.255l-2.399.308-.021-.308 2.524-.271-.104.271zm-5.714-6.986l-3.066.127-.104-1.538 3.108-.054.063 1.466z"/><path d="M20.075 15.002l-3.15-.072v-1.267l3.233.163-.084 1.176zm-9.471-2.607l-2.753.344-.146-1.593 2.816-.289.084 1.538zm1.105 9.05l-1.064.832-.709-.145 1.252-.832.521.145zm-5.506-4.977l-1.731.851-.501-1.575 1.836-.814.396 1.538z"/><path d="M15.109 20.015l-1.627.597-.334.109 1.794-.597.167-.108zm-5.173 2.117l-.855.923-.876-.398 1.022-.923.709.398zm6.989-9.791l-3.254-.072-.042-1.448 3.296.163v1.357zm2.335 6.986l-2.253.344-.021-.109 2.399-.308-.125.072zm3.276-1.484l-2.774.018.125-.814 2.878.054-.229.742z"/><path d="M22.306 18.422l-2.67.09.125-.651 2.774-.018-.229.579zm-8.823 2.19l-1.272.724-.521.109 1.439-.724.355-.109zm6.675-6.787l-3.233-.163v-1.339l3.296.253-.062 1.249zm-3.129 5.719l-1.919.471-.167.109 2.065-.471.021-.109z"/><path d="M22.765 17.101l-2.879-.054.104-.959 2.983.145-.209.869zM7.851 12.758l-2.357.561-.209-1.665 2.399-.507.167 1.611zm14.203 6.081l-2.545.145.125-.471 2.67-.09-.25.416zM6.515 21.137l-.939 1.014-.897-1.104 1.064-1.014.772 1.104z"/><path d="M7.33 22.006l-.793 1.014-.96-.869.939-1.014.813.869zm6.298-11.203l-3.108.054-.042-1.538 3.15.018v1.466zm9.345 5.429l-2.983-.145.104-1.086 3.066.235-.188.995zM5.744 20.033L4.68 21.047l-.813-1.285 1.168-1.014.709 1.285z"/><path d="M5.807 14.929l-1.836.814-.375-1.647 1.898-.778.313 1.611zm4.713-4.072l-2.816.29-.063-1.611 2.837-.217.042 1.538zm11.284 8.217l-2.42.181.125-.271 2.545-.145-.25.235zm-9.594 2.262l-.897.815-.688.127 1.064-.833.521-.109zm-1.586.923l-.709.905-.876-.127.855-.923.73.145zm-2.441.398l-.647.995-1.001-.634.793-1.013.855.652zm10.952-3.456l-2.107.344-.021.109 2.253-.344-.125-.109zm-14.078-.453l-1.168 1.014-.688-1.448 1.272-.995.584 1.43zm11.867-7.782l-3.296-.163-.021-1.448 3.316.235v1.375z"/><path d="M20.221 12.595l-3.296-.253v-1.375l3.337.344-.042 1.285zm2.939 2.642l-3.066-.235.083-1.176 3.15.326-.167 1.086zm-7.884 4.434l-1.46.597-.313.344 1.627-.597.146-.344z"/><path d="M17.048 19.201l-1.773.47-.167.344 1.919-.471.021-.344zm4.506-.091l-2.294.217.125-.072 2.42-.181-.25.036zm-7.738 1.158l-1.105.706-.48.362 1.272-.724.313-.344zm-6.112-9.121l-2.399.507-.083-1.665 2.44-.452.042 1.611zM9.06 23.056l-.521.977-1.022-.38.647-.995.897.398zm-4.589-5.738l-1.272.995-.584-1.593 1.356-.977.501 1.575zm1.021-4l-1.898.778-.25-1.701 1.94-.724.209 1.647zm17.815.833l-3.15-.326.063-1.249 3.191.416-.104 1.158z"/><path d="M13.606 9.355l-3.15-.018.021-1.502 3.129.09v1.43zm5.425 9.501l-1.982.344-.021.326 2.107-.344-.104-.326zm-7.718 3.294l-.542.887-.834.145.709-.905.667-.127zm13.497-3.692l-2.503-.036.229-.579 2.587.108-.313.507z"/><path d="M25.142 17.934l-2.586-.109.229-.742 2.691.181-.334.67zm-4.859-6.624l-3.337-.344V9.59l3.358.434-.021 1.285zm-9.805-1.973l-2.837.199.021-1.556 2.837-.145-.021 1.502zm10.847 9.628l-2.19.217.125.127 2.294-.217-.23-.127z"/><path d="M12.71 20.974l-.751.796-.647.38.897-.815.501-.362zm11.743-2.154l-2.399.018.25-.416 2.503.036-.355.362zm1.004-1.538l-2.691-.181.209-.869 2.753.253-.271.796zM16.945 9.59l-3.337-.235.021-1.43 3.317.326V9.59z"/><path d="M9.938 23.182l-.375.959-1.001-.109.521-.977.855.127zm5.486-4.072l-1.314.561-.292.579 1.46-.597.146-.543zm8.695-.109l-2.315.072.25-.235 2.399-.018-.334.181zm-7.049-.344l-1.627.453-.146.561 1.773-.471v-.543zm8.656-2.171l-2.753-.253.188-.995 2.837.344-.271.905zm-2.294-3.475l-3.191-.416.042-1.285 3.233.507-.083 1.194zM3.971 15.744l-1.356.977-.438-1.683 1.418-.959.375 1.665zm1.607 6.407l-.542 1.086-.98-1.086.647-1.104.876 1.104z"/><path d="M6.538 23.019L6.1 24.087l-1.064-.851.542-1.086.96.869zm7.569-3.33l-.96.67-.438.615 1.106-.706.292-.579zM4.7 21.065l-.647 1.104-.897-1.285.751-1.104.793 1.285zM7.64 9.554l-2.44.452.021-1.629 2.42-.398v1.575z"/><path d="M23.766 19.02l-2.211.09.25-.054 2.315-.072-.355.036zm-2.67-.381l-2.086.217.104.326 2.19-.217-.209-.326zM5.305 11.653l-1.94.724-.104-1.701 1.961-.688.083 1.665zm2.232 11.999l-.334 1.032-1.106-.597.438-1.068 1.001.633z"/><path d="M18.927 18.332l-1.857.326-.021.543 1.982-.344-.104-.525zm7.051-2.751l-2.837-.344.146-1.086 2.879.453-.188.977zm-5.674-5.556l-3.358-.434v-1.34l3.358.525v1.249zm-6.676-2.1l-3.129-.09.063-1.43 3.108.163-.042 1.357z"/><path d="M11.96 21.752l-.396.869-.793.416.542-.887.647-.398zm-8.074-1.991l-.751 1.104-.772-1.448.813-1.104.709 1.448zm6.592-11.926l-2.837.145.104-1.484 2.795-.072-.063 1.412zm6.468.416l-3.317-.326.042-1.357 3.296.398-.021 1.285z"/><path d="M10.772 23.037l-.229.923-.98.163.375-.959.834-.127zm12.744-11.221l-3.233-.507.021-1.285 3.254.597-.042 1.194zm-.063 7.04l-2.128.109.229.145 2.211-.09-.313-.163zm-10.304 1.503l-.605.76-.584.633.751-.796.438-.597zm-4.59 3.673l-.209 1.014-1.126-.344.334-1.032 1.001.362zm-4.964-9.953l-1.418.959-.292-1.737 1.46-.923.25 1.701zm22.591.525l-2.878-.452.125-1.14 2.92.543-.167 1.05zm-9.095 3.312l-1.523.416-.125.778 1.627-.453.021-.742z"/><path d="M15.567 18.332l-1.189.525-.25.814 1.314-.561.125-.778zm5.342-.199l-1.982.199.104.525 2.086-.217-.209-.507zM3.2 18.314l-.814 1.104-.647-1.593.897-1.104.563 1.593zm23.799.271l-2.19-.127.334-.507 2.253.199-.396.434z"/><path d="M26.583 18.893l-2.128-.072.334-.362 2.19.127-.396.308zm.813-.76l-2.253-.199.313-.67 2.315.271-.375.597zm-8.551-.507l-1.752.29-.021.742 1.857-.326-.083-.706zm-4.488 1.249l-.834.633-.396.851.96-.67.271-.814zm8.783-.344l-2.023.109.229.326 2.128-.109-.334-.326zm-2.836-9.755l-3.358-.525.021-1.285 3.337.597v1.213zM9.56 24.141l-.104.977-1.126-.072.209-1.014 1.022.109zM5.2 9.988l-1.961.688.021-1.665 1.961-.633-.021 1.61z"/><path d="M26.165 19.038l-2.044-.036.355-.181 2.128.072-.438.145zM7.663 7.979l-2.42.398.146-1.538 2.399-.326-.125 1.466zm20.107 9.575l-2.315-.271.292-.796 2.378.362-.355.706zm-1.417-4l-2.92-.543.083-1.176 2.962.633-.125 1.086z"/><path d="M23.558 10.622l-3.254-.597V8.776l3.254.688v1.158zm-9.887-4.036l-3.108-.163.125-1.303 3.045.235-.063 1.231zm-1.129 14.533l-.25.832-.73.67.396-.869.584-.633zm13.205-2.081h-1.982l.334-.018 2.044.036-.396-.018z"/><path d="M11.564 22.621l-.104.905-.918.434.229-.923.793-.416zm16.541-5.773l-2.378-.362.25-.905 2.441.452-.313.814zM16.967 6.966l-3.296-.398.063-1.249 3.233.471v1.176zm3.773 10.497l-1.898.163.084.706 1.982-.199-.167-.67zM10.561 6.405l-2.795.072.188-1.375 2.733-.018-.125 1.321zm-7.216 5.972l-1.46.923-.125-1.738 1.481-.887.104 1.701zm-.731 4.344l-.897 1.104-.48-1.683.939-1.104.438 1.683zm10.929 2.787l-.459.724-.521.887.605-.76.375-.851z"/><path d="M22.87 18.042l-1.961.09.188.507 2.023-.109-.25-.489zM6.099 24.087l-.104 1.032-1.106-.832.146-1.05 1.064.851z"/><path d="M5.035 23.236l-.146 1.05-1.022-1.068.188-1.05.98 1.068zm12.076-6.226l-1.418.362-.104.959 1.523-.416v-.905zm8.241 1.846h-1.898l.334.163h1.982l-.417-.163zm-9.679-1.483l-1.085.489-.209 1.014 1.189-.525.104-.977zm12.745-1.34l-2.44-.453.209-.995 2.482.543-.25.905zM7.204 24.702l-.042 1.014-1.147-.597.104-1.032 1.085.615zm3.336-.742v.941l-1.085.199.104-.977.98-.163zm15.915-11.51l-2.962-.633.042-1.194 2.962.724-.042 1.104z"/><path d="M4.034 22.15l-.188 1.05-.939-1.267.209-1.068.918 1.285zm14.745-5.393l-1.669.253-.021.923 1.752-.29-.063-.887zm1.523-9.194l-3.337-.597.021-1.176 3.296.67.021 1.104zm3.255 1.901l-3.254-.688-.021-1.194 3.233.76.042 1.122zm-8.968 8.397l-.73.597-.334 1.05.834-.633.229-1.014zm-6.258 7.167v.995l-1.168-.326.042-1.014 1.126.344zm16.645-6.497H23.14l.313.326h1.898l-.375-.326zM5.222 8.378l-1.961.633.167-1.593 1.94-.579-.146 1.538z"/><path d="M28.667 15.128l-2.482-.543.167-1.05 2.503.633-.188.959zM7.766 6.495l-2.399.326.25-1.43 2.336-.271-.188 1.375zM3.157 20.866l-.209 1.068-.813-1.448.25-1.068.772 1.448zm19.462-3.457l-1.877.054.167.67 1.961-.09-.25-.633z"/><path d="M20.596 16.63l-1.815.127.063.869 1.898-.163-.146-.832zM13.733 5.337l-3.045-.235.188-1.158 2.962.29-.104 1.104zM2.177 15.038l-.939 1.104-.313-1.755.96-1.086.292 1.737zm10.116 6.913l.021.869-.855.706.104-.905.73-.67z"/><path d="M16.965 5.79l-3.233-.452.104-1.104 3.171.525-.042 1.032zm-3.899 14.442l-.146.796-.647.923.25-.833.542-.887zm13.453-8.886l-2.962-.724V9.445l2.962.814v1.086zm1.751 7.71l-1.69-.163.417-.308 1.731.217-.459.253z"/><path d="M28.731 18.802L27 18.585l.396-.453 1.794.271-.459.398zm-25.49-8.126l-1.481.887.042-1.719 1.46-.851-.021 1.683z"/><path d="M27.811 19.164l-1.648-.127.417-.145 1.69.163-.459.109zm1.357-.742l-1.794-.271.375-.579 1.836.344-.417.507zm-18.48-13.32l-2.733.018.271-1.213 2.649.036-.188 1.158zm6.425 10.823l-1.356.308-.083 1.14 1.418-.362.021-1.086zM9.456 25.1l.042.977-1.168-.054v-.995l1.126.072zm2.004-1.574l.104.905-1.022.47v-.941l.918-.434zm13.182-5.466l-1.794-.018.271.489h1.836l-.313-.471zm-10.784.398l-.355.688-.438 1.104.459-.724.334-1.068z"/><path d="M28.855 14.169l-2.503-.633.104-1.086 2.524.724-.125.995zm-10.139 1.575l-1.606.181-.021 1.086 1.669-.253-.042-1.014zM2.365 19.418l-.25 1.068-.667-1.593.271-1.068.647 1.593zm24.968-.29l-1.606-.09.417.018 1.648.127-.459-.054zm-11.556-2.896l-1.001.434-.167 1.195 1.085-.489.084-1.14zm13.808 1.665l-1.835-.344.334-.706 1.856.434-.355.615zm-6.07-9.555l-3.233-.76-.042-1.104 3.191.833.083 1.032zM20.26 6.46l-3.296-.67.021-1.05 3.212.724.063.995z"/><path d="M22.431 16.63l-1.835.018.146.833 1.877-.054-.188-.796zm4.463 2.317l-1.543-.09.396.163 1.606.09-.459-.163zm3.089-1.683l-1.857-.434.292-.814 1.898.507-.334.742zm-9.492-1.593l-1.773.054.042 1.014 1.815-.127-.083-.941zm-5.737.995l-.647.543-.25 1.249.73-.597.167-1.195zm11.765-6.388l-2.962-.814-.042-1.122 2.941.887.063 1.05zm-2.17 7.167l-1.731-.054.229.633 1.794.018-.292-.597zm4.631-4.271l-2.524-.724.063-1.104 2.524.814-.063 1.014zM10.54 24.901l.083.959-1.126.217-.042-.977 1.085-.199zm-8.654-11.6l-.96 1.086-.146-1.774.98-1.068.125 1.756zm3.483-6.48l-1.94.579.313-1.484 1.877-.525-.25 1.43zm8.466-2.588l-2.962-.29.229-.977 2.858.344-.125.923z"/><path d="M7.953 5.12l-2.336.271.355-1.267 2.253-.217-.271 1.213zm9.035-.362l-3.171-.525.125-.941 3.066.561-.021.905zm9.511 13.864l-1.502-.091.375.326 1.544.09-.417-.326zM5.994 25.119l.125.941-1.106-.832-.146-.941 1.126.832z"/><path d="M30.317 16.54l-1.898-.507.25-.905 1.919.597-.271.814zM4.889 24.286l.146.941-1.022-1.068-.146-.941 1.022 1.068zm8.05-3.258l.125.833-.751.959-.021-.869.647-.923zM1.738 17.825l-.271 1.068-.501-1.683.292-1.068.48 1.683z"/><path d="M7.163 25.716l.125.941-1.147-.597-.125-.941 1.147.597zm6.34-6.57l-.042.742-.542 1.14.146-.796.438-1.086zm3.631-4.434l-1.293.235-.063 1.285 1.356-.308v-1.213zm-4.82 8.108l.209.869-.939.742-.104-.905.834-.706z"/><path d="M23.454 7.31l-3.191-.833-.063-.995 3.129.905.125.923zm-4.758 7.293l-1.564.109-.021 1.213 1.606-.181-.021-1.14zM3.261 8.993l-1.46.851.188-1.629L3.428 7.4l-.167 1.593zm.604 14.225l.146.941-.939-1.267-.146-.941.939 1.267z"/><path d="M22.286 15.726l-1.794-.054.104.959h1.836l-.146-.905zM10.854 3.943l-2.649-.036.334-1.032 2.524.09-.209.977zm9.344 1.539l-3.212-.724.021-.887 3.129.778.063.833zm-4.358 9.465l-.959.362-.125 1.339 1.001-.434.083-1.267z"/><path d="M26.122 18.169l-1.481-.109.334.471 1.502.091-.355-.453zm-12.014-.959l-.271.634-.334 1.303.355-.688.25-1.249zm10.013-.489l-1.69-.09.188.778 1.731.054-.229-.742zm6.466-.977l-1.919-.597.188-.959 1.94.688-.209.869zM8.331 26.023l.125.941-1.168-.326-.125-.941 1.168.326zm20.733-13.845l-2.524-.814v-1.086l2.524.905v.995zm-2.585-2.95l-2.941-.887-.083-1.032 2.92.959.104.959zm-6.05 5.393l-1.731-.018.021 1.14 1.773-.054-.062-1.068zM2.927 21.933l.146.941-.813-1.448-.146-.959.814 1.466zm26.493-2.66l-1.147-.235.459-.253 1.168.271-.48.217z"/><path d="M11.585 24.413l.125.941-1.064.507-.084-.959 1.022-.489zm17.333-5.068l-1.126-.199.459-.109 1.147.235-.48.072zm.979-.271l-1.168-.271.438-.38 1.189.326-.459.326zm-1.459.217l-1.105-.163.459.036 1.126.199-.48-.072z"/><path d="M30.378 18.748l-1.189-.326.417-.507 1.21.398-.438.434zm-15.499-3.439l-.584.489-.167 1.412.647-.543.104-1.357zm-13.641.833L.946 17.21.612 15.455l.313-1.068.313 1.755zm24.551 1.448l-1.439-.127.292.615 1.481.108-.334-.597zM17.008 3.853l-3.066-.561.146-.742 2.941.597-.021.706zm13.786 11.022l-1.94-.688.125-.995 1.961.778-.146.905zM1.761 11.563l-.98 1.068.042-1.737.98-1.032-.042 1.701zm7.736 14.515l.125.941-1.168-.054-.125-.941 1.168.054z"/><path d="M13.941 3.292l-2.858-.344.271-.778 2.712.38-.125.742zm9.386 3.077l-3.129-.905-.063-.833 3.045.941.146.796zm4.652 12.723l-1.064-.163.438.181 1.105.163-.48-.181zm-5.798-4.344l-1.752-.127.063 1.068 1.794.054-.104-.995z"/><path d="M30.816 18.295l-1.21-.398.375-.633 1.231.471-.396.561zM5.619 5.391l-1.877.525.438-1.321 1.794-.489-.355 1.285zm2.607-1.484l-2.253.217.459-1.068 2.128-.181-.334 1.032zm15.727 11.981l-1.669-.145.146.905 1.69.09-.167-.851zm-5.256-2.515l-1.543.036-.021 1.321 1.564-.109v-1.249zm-1.566.018l-1.272.163-.042 1.394 1.293-.235.021-1.321zm11.932-2.226l-2.524-.905-.063-1.032 2.524.977.063.959zm-15.601 8.723l.209.796-.626 1.176-.125-.832.542-1.14z"/><path d="M20.137 4.632l-3.129-.778.021-.706 3.025.814.083.67zM2.115 20.485l.146.959-.667-1.575-.146-.959.667 1.575zM26.351 8.269l-2.92-.959-.104-.923 2.858 1.032.167.851zM13.065 21.861l.292.832-.834.995-.209-.869.751-.959zm.772-4.018l.042.706-.417 1.339.042-.742.334-1.303zm13.704.941l-1.043-.163.417.326 1.064.163-.438-.326zm-7.133-5.32l-1.71-.091v1.231l1.731.018-.021-1.158zm10.805 4.271l-1.231-.471.334-.724 1.252.543-.355.652z"/><path d="M11.085 2.967l-2.524-.09.417-.814 2.399.127-.292.778zM3.428 7.4l-1.439.814.355-1.52 1.398-.76L3.428 7.4zm12.431 6.154l-.939.29-.062 1.466.959-.362.042-1.394zm9.68 3.348l-1.418-.181.23.724 1.439.127-.25-.67zm5.403-2.95l-1.961-.778.063-1.014 1.961.869-.063.923zm-16.647 1.846l-.209.579-.229 1.466.271-.633.167-1.412zm-3.65 10.063l.125.941-1.126.217-.125-.941 1.126-.217zm1.877-2.191l.167.923-.98.76-.125-.941.939-.742zm14.624-5.338l-1.022-.181.376.453 1.043.163-.396-.434zm4.42-1.249l-1.251-.543.271-.814 1.272.634-.292.724zm-7.736-2.118l-1.648-.217.083.995 1.669.145-.104-.923zm-1.671-1.284l-1.752-.217.021 1.14 1.752.127-.021-1.05zM17.03 3.165l-2.941-.597.167-.525 2.795.633-.021.489zM6.141 26.06l.209.851-1.085-.832-.229-.851 1.106.832zM28.98 10.206l-2.524-.977-.104-.959 2.482 1.05.146.887zm-5.798-4.633l-3.045-.941-.083-.67 2.962.977.167.633z"/><path d="M5.035 25.227l.229.851-1.022-1.05-.229-.869 1.022 1.068zM.925 14.386l-.313 1.068-.146-1.774.313-1.068.146 1.774zm14.017-.543l-.563.416-.083 1.538.584-.489.063-1.466zM14.088 2.55l-2.712-.38.313-.543 2.566.398-.167.525zM1.445 18.911l.146.959-.501-1.683-.146-.959.501 1.683zm17.251-6.841l-1.544-.054v1.376l1.544-.036V12.07zM7.288 26.639l.188.833-1.147-.579-.209-.851 1.168.597zM26.205 7.401l-2.858-1.032-.146-.796 2.795 1.068.209.76z"/><path d="M17.153 12.016l-1.272.072v1.466l1.272-.163v-1.376zm8.177 4.108l-1.398-.235.188.832 1.418.181-.209-.778zM20.053 3.962l-3.025-.814.021-.507 2.899.833.104.489zm10.972 9.067l-1.961-.869v-.995l1.961.941v.923zM1.8 9.844l-.98 1.032.229-1.665.959-1.013L1.8 9.844zm2.211 14.315l.229.869-.918-1.249-.25-.887.939 1.267zm22.8-6.37l-1.001-.199.313.579 1.022.181-.334-.561zm-6.382-5.52l-1.71-.199-.021 1.285 1.71.091.021-1.176zm11.43 4.09l-1.272-.633.209-.869 1.272.706-.209.796zM8.56 2.876l-2.128.181.542-.851 2.002-.145-.417.814z"/><path d="M5.974 4.124l-1.794.489.563-1.122 1.69-.434-.459 1.068zm23.465 15.475l-.521-.253.501-.072.521.271-.501.054z"/><path d="M29.939 19.562l-.521-.271.48-.199.522.326-.48.145zM8.456 26.965l.188.832-1.168-.326-.188-.832 1.168.326zm20.481-7.457l-.501-.217.48.054.521.253-.501-.09zm-13.055-7.42l-.939.217v1.556l.939-.29v-1.484zM30.44 19.4l-.521-.326.48-.326.542.362-.501.29zm-16.561-.851l.292.742-.48 1.375-.209-.796.396-1.321zm-2.169 6.805l.125.941-1.064.489-.125-.941 1.064-.489zm1.96-4.67l.355.796-.688 1.213-.292-.832.626-1.176z"/><path d="M11.376 2.188l-2.399-.127.459-.579 2.232.145-.292.561zm12.411 11.8l-1.627-.308.042 1.068 1.648.217-.063-.977zm4.672 5.321l-.501-.217.459.199.501.217-.459-.199zM3.074 22.893l.25.887-.793-1.43-.25-.887.793 1.43z"/><path d="M14.064 16.377l.104.652-.292 1.502-.042-.706.229-1.448zm14.79-7.058l-2.482-1.05-.167-.869 2.461 1.104.188.814zm-6.674 3.258l-1.752-.308-.021 1.194 1.752.217.021-1.104zm8.72 6.533l-.542-.362.438-.452.542.434-.438.38zm-4.38-1.954l-1.001-.253.271.688 1.001.199-.271-.634zM22.992 4.939l-2.962-.977-.104-.471 2.858.995.209.452zm-19.249.996l-1.398.76.521-1.357 1.314-.724-.438 1.321zm28.346 9.646l-1.272-.706.146-.905 1.293.796-.167.814z"/><path d="M25.206 15.273l-1.377-.308.104.923 1.398.235-.125-.851zM17.05 2.659l-2.795-.633.167-.29 2.649.633-.021.29zm13.974 9.465l-1.961-.941-.063-.959 1.94 1.014.083.887zM14.38 14.26l-.188.525-.125 1.593.209-.579.104-1.538zm13.641 4.742l-.48-.217.438.326.501.217-.459-.326zM25.998 6.659l-2.795-1.068-.188-.633 2.732 1.104.25.597zM13.359 22.694l.209.905-.855 1.013-.167-.923.814-.995zm5.379-11.927l-1.585-.163v1.412l1.544.054.042-1.303z"/><path d="M31.359 18.73l-.542-.434.396-.561.542.489-.396.507zM9.622 27.019l.167.832-1.147-.054-.188-.832 1.168.054zM19.949 3.491l-2.899-.833.021-.271 2.753.833.125.271zM.946 17.21l.146.959-.334-1.756-.146-.977.334 1.774zm19.524-6.154l-1.731-.29-.042 1.321 1.71.199.063-1.231zm-3.317-.452l-1.314-.018.021 1.502 1.272-.072.021-1.412zm-2.898-8.579l-2.566-.398.334-.29 2.399.398-.167.29zm.688 10.28l-.563.344v1.611l.563-.416v-1.538z"/><path d="M.779 12.631l-.313 1.068.042-1.755.313-1.05-.042 1.737zm26.846 5.936l-.48-.235.396.434.48.217-.396-.416zM2.261 21.445l.25.887-.667-1.556-.25-.905.667 1.575zm24.048-5.013l-.98-.308.209.778 1.001.253-.229-.724zm5.446 1.809l-.542-.489.355-.652.542.561-.355.579zm-7.947-5.266l-1.627-.398-.021 1.104 1.627.308.021-1.014zm8.427 1.773l-1.293-.796.063-.923 1.293.869-.063.851zm-3.587-6.244L26.186 7.4l-.209-.742 2.399 1.158.271.688z"/><path d="M22.243 11.454l-1.773-.398-.062 1.213 1.752.308.083-1.122zm-6.404-.868l-.96.127.063 1.593.939-.217-.042-1.502zm9.303 3.783l-1.377-.38.042.977 1.377.308-.042-.905zm-2.358-9.882l-2.858-.995-.125-.271 2.733.995.25.271zM1.989 8.215l-.96 1.013.396-1.556.918-.977-.355 1.52zm28.952 3.022l-1.94-1.013-.125-.905 1.94 1.086.125.832zM8.977 2.062l-2.002.145.626-.597 1.835-.11-.459.561zM27.291 18.06l-.48-.272.334.543.48.235-.334-.507z"/><path d="M12.691 24.594l.125.959-.98.76-.125-.941.98-.778zM25.726 6.043l-2.733-1.104-.209-.452 2.649 1.122.292.434zM11.668 1.645L9.436 1.5l.501-.308 2.065.163-.334.29zm7.134 7.8l-1.627-.253v1.412l1.585.163.042-1.321zm-1.733-7.058l-2.649-.633.188-.036 2.482.633-.021.036zm-10.636.67l-1.69.434.667-.887 1.564-.398-.542.851zm25.675 14.605l-.542-.561.292-.724.563.633-.313.652zm-21.337 9.14l.167.851-1.126.217-.167-.832 1.126-.235z"/><path d="M19.825 3.22l-2.753-.833.021-.054 2.628.814.104.072zm.749 6.624l-1.794-.398-.063 1.303 1.731.29.125-1.194zm-3.42-.652l-1.377-.109.063 1.502 1.314.018V9.192zm-2.984 7.837l.334.706-.334 1.556-.292-.742.292-1.52z"/><path d="M26.185 15.635l-.98-.362.125.851.98.308-.125-.796zm-12.012 3.656l.417.76-.542 1.412-.355-.796.48-1.375zm.019-4.507l.125.615-.146 1.647-.104-.652.125-1.611zm.228-13.03l-2.399-.398.355-.036 2.232.398-.188.036zM6.348 26.91l.209.706-1.064-.814-.229-.724 1.085.832zm25.97-12.994l-1.293-.869v-.923l1.293.959v.832zM5.242 26.078l.229.724L4.47 25.77l-.25-.742 1.022 1.05zm18.649-14.135l-1.648-.489-.083 1.122 1.627.398.104-1.032z"/><path d="M14.379 12.649l-.188.453v1.683l.188-.525v-1.611zm12.62 4.796l-.48-.308.271.652.48.271-.271-.615zm2.294 2.443l.146-.29.501-.036-.146.326h-.501zm-.898-12.089L25.996 6.64l-.25-.597 2.357 1.176.292.579z"/><path d="M1.593 19.87l.25.905-.501-1.665-.271-.941.521 1.701zm20.798-9.52l-1.794-.507-.104 1.213 1.773.398.125-1.104zm6.424 9.448l.146-.271.501.072-.146.29-.501-.091zM4.18 4.613l-1.314.724.647-1.158 1.231-.688-.563 1.122zM.612 15.454l.146.977-.146-1.774-.146-.977.146 1.774zm6.882 12.035l.188.688-1.126-.579-.209-.706 1.147.597zM22.556 4.215l-2.733-.995-.125-.054 2.607.977.25.072zm7.238 15.655l.146-.326.501-.163-.146.362-.501.127z"/><path d="M14.88 10.713l-.584.271.083 1.665.563-.344-.063-1.593zm-.834 10.75l.229.887-.73 1.231-.209-.905.709-1.213zm11.137-8.018l-1.377-.47-.021 1.014 1.377.38.021-.923zm7.239 3.565l-.563-.633.229-.778.563.706-.229.706zm-1.648-6.605l-1.94-1.086-.209-.814 1.898 1.14.25.76zm-2.44 9.175l.125-.271.48.199-.146.271-.459-.199zM4.243 25.028l.25.742-.897-1.231-.271-.76.918 1.249zM25.434 5.609l-2.649-1.122-.229-.271 2.566 1.122.313.271zm4.841 14.134l.146-.362.48-.271-.167.398-.459.235zM18.863 8.197l-1.71-.362v1.357l1.627.253.083-1.249zm-3.064.887l-1.022.036.125 1.593.96-.127-.063-1.502zm1.292-6.751L14.609 1.7l.188.199 2.315.597-.021-.163z"/><path d="M19.7 3.147l-2.628-.814.021.181 2.461.796.146-.163zm1.021 5.538l-1.856-.489-.083 1.267 1.794.398.146-1.176zm7.174 10.588l.125-.271.438.308-.125.271-.438-.308zM.823 10.893l-.313 1.05.229-1.683.313-1.032-.229 1.665zm7.819 16.922l.167.688-1.147-.326-.188-.688 1.168.326zm8.511-19.98l-1.46-.199.084 1.448 1.377.109V7.835zm13.6 11.673l.167-.398.438-.398-.167.453-.438.344zm-4.629-4.687l-.96-.434.063.905.98.362-.083-.833zm.665 1.954l-.459-.344.209.724.48.308-.229-.688zm5.508-3.71l-1.293-.959-.083-.887 1.272 1.032.104.814zM12.023 1.338l-2.065-.163.542-.036 1.898.163-.375.036zm-.189 24.975l.146.851-1.064.489-.167-.851 1.085-.489zm15.665-7.456l.125-.29.396.416-.125.271-.396-.398zM9.435 1.482l-1.836.109.667-.326 1.669-.09-.501.308zm14.623 9.466l-1.669-.597-.125 1.104 1.648.489.146-.995zm-1.753-6.805l-2.607-.977-.125.163 2.482.959.25-.145z"/><path d="M22.557 9.283L20.7 8.667l-.125 1.158 1.794.507.188-1.05zm10.074 7.004l-.563-.706.146-.832.563.796-.146.742zM3.302 23.761l.271.76-.793-1.394-.271-.796.793 1.43zM14.588 1.7l-2.232-.398.375.217 2.044.38-.188-.199zm13.497 5.538l-2.357-1.176-.292-.452 2.294 1.194.355.434zM13.546 23.58l.125.959-.855.995-.125-.959.855-.995zm5.401-16.578l-1.794-.452v1.285l1.71.362.083-1.194zm12.245 12.18l.167-.452.417-.489-.167.507-.417.434z"/><path d="M25.268 12.522l-1.377-.561-.083 1.014 1.377.471.083-.923zm-.146-7.185l-2.566-1.122-.25-.072 2.461 1.104.355.09zm5.446 4.307l-1.898-1.14-.25-.706 1.877 1.194.271.652zM19.572 3.31l-2.461-.796.021.416 2.315.742.125-.362zM2.343 6.694l-.918.977.563-1.394.855-.941-.501 1.357zm18.544.906l-1.94-.597-.083 1.176 1.856.489.167-1.068zm-3.795-5.086l-2.315-.597.188.452 2.148.561-.021-.416zM6.974 2.206l-1.564.398.772-.633L7.6 1.609l-.626.597zm20.191 16.162l.125-.308.355.525-.125.29-.355-.507zM15.713 7.636L14.587 7.6l.167 1.538 1.022-.036-.063-1.466z"/><path d="M17.153 6.55l-1.564-.29.104 1.375 1.46.199V6.55zM9.811 27.87l.146.688-1.126-.054-.167-.688 1.147.054zm4.963-18.732l-.647.199.188 1.665.584-.271-.125-1.593zm11.87 6.914l-.459-.416.146.778.459.344-.146-.706zM1.093 18.169l.271.941-.334-1.719-.271-.959.334 1.737zM22.055 4.252l-2.482-.959-.125.362 2.357.905.25-.308zm-7.759 6.732l-.229.398.125 1.719.188-.453-.083-1.665zm11.849 2.986l-.959-.525-.021.923.96.434.021-.832z"/><path d="M19.051 5.935l-1.919-.543V6.55l1.794.452.125-1.068zm12.537 12.813l.167-.507.355-.579-.167.561-.355.525zm-17.397-5.647l.126.561v1.719l-.126-.615v-1.665zm8.615-4.796l-1.919-.706-.167 1.086 1.856.615.23-.995z"/><path d="M19.426 3.672l-2.315-.742.021.633 2.169.688.125-.579zM14.317 15.4l.355.67-.167 1.683-.334-.706.146-1.647zm6.757-8.778l-2.023-.688-.104 1.068 1.919.597.209-.977zm11.14 5.629l-1.272-1.032-.146-.833 1.272 1.086.146.778z"/><path d="M32.799 15.545l-.563-.796.083-.851.563.869-.084.778zm-8.534-5.556l-1.71-.688-.188 1.05 1.669.597.229-.959zm-9.76 7.764l.459.724-.375 1.575-.417-.76.334-1.538zm13.224-10.95l-2.294-1.194-.313-.271 2.232 1.194.375.271zm-2.963-1.556l-2.461-1.104-.25.127 2.357 1.068.355-.09zM17.113 2.93l-2.148-.561.188.688 1.982.507-.021-.633z"/><path d="M14.775 1.917l-2.044-.38.375.471 1.856.362-.188-.452zm4.402 3.095l-2.044-.615V5.41l1.919.543.125-.941z"/><path d="M.466 13.681l.146.977.042-1.737-.146-.977-.042 1.738zm18.836-9.43l-2.169-.688.021.833 2.044.615.104-.76zM2.51 22.331l.271.796-.647-1.538-.292-.833.667 1.575zm24.362-4.542l.125-.344.292.597-.125.308-.292-.561z"/><path d="M21.805 4.577l-2.357-.905-.125.579 2.232.851.25-.525zm-4.652.815l-1.69-.38.125 1.249 1.564.29V5.392zm4.152.38l-2.128-.778-.125.923 2.023.688.229-.833zm4.149 5.827l-1.398-.651-.167.995 1.377.561.188-.905z"/><path d="M4.741 3.491l-1.231.688.793-.923 1.106-.652-.667.887zm7.635-2.19l-1.898-.163.563.235 1.71.163-.375-.235zm17.897 7.692l-1.877-1.194-.313-.579 1.836 1.213.355.561zm-8.717-3.909l-2.232-.851-.125.76 2.128.778.229-.688zm-6.969 14.967l.25.869-.563 1.43-.229-.887.542-1.412zm2.545-16.506l-1.982-.507.167.887 1.836.452-.021-.833z"/><path d="M17.132 4.378l-1.836-.452.146 1.086 1.69.38V4.378zm5.946 3.041l-1.982-.796-.208.977 1.919.706.271-.887zM15.61 6.26l-1.231-.127.229 1.448 1.126.036-.125-1.357zm16.333 11.963l.167-.561.292-.652-.188.633-.271.579zM24.411 5.337l-2.357-1.068-.25.326 2.253 1.032.355-.29zm2.172 9.955l-.459-.471.063.832.459.416-.063-.778zm1.436 4.814l.772-.326.48.091-.793.326-.459-.091zM9.937 1.175l-1.669.09.709-.054 1.502-.072-.542.036z"/><path d="M28.5 20.214l.793-.326.501-.018-.814.362-.48-.018zm-15.686 5.339l.146.869-.96.742-.146-.851.96-.76zm14.768-5.665l.772-.308.459.217-.772.326-.459-.235zM24.559 9.102l-1.752-.796-.229.977 1.71.688.271-.869zm1.691 4.017l-.98-.615-.104.923.96.525.125-.832zm1.082-6.587L25.1 5.337l-.334-.09 2.148 1.176.417.109zM14.964 2.351l-1.856-.362.355.724 1.69.308-.188-.67zm8.404 4.308l-2.065-.887-.229.851 1.982.796.313-.76z"/><path d="M1.03 9.21l-.313 1.032.417-1.574.292-1.032L1.03 9.21zm9.886 18.442l.125.706-1.106.217-.146-.688 1.126-.235zm3.67-20.053l-.751.127.271 1.611.647-.199-.167-1.538zm12.08 9.556l.125-.38.209.67-.125.344-.209-.633zm2.315 3.077l.813-.362.48-.127-.814.38-.48.108zm3.879-5.466l-.563-.869v-.832l.563.923v.778zm-8.802-9.157l-2.253-1.032-.25.507 2.169.959.334-.434zm7.99 5.882l-1.272-1.086-.229-.76 1.252 1.14.25.706zm-4.902 8.089l.751-.308.438.308-.772.308-.417-.308zM23.703 6.061l-2.169-.959-.25.688 2.065.887.355-.615zM15.465 5.03l-1.356-.199.271 1.321 1.231.127-.146-1.249zM6.556 27.616l.146.543-1.043-.796-.167-.561 1.064.814zm19.127-16.867l-1.419-.76-.229.959 1.398.652.25-.851zm3.777 9.392l.814-.38.48-.235-.834.416-.459.199zm.458-11.691l-1.836-1.213-.355-.434 1.794 1.231.396.416zM15.151 3.039l-1.69-.308.334.959 1.523.253-.167-.905z"/><path d="M5.473 26.802l.167.561-.98-.995-.209-.597 1.022 1.032zm26.763-9.176l.188-.633.229-.706-.188.688-.229.652zm-5.467 1.556l.73-.326.396.416-.751.308-.376-.398zM15.319 3.944l-1.523-.253.313 1.158 1.356.199-.146-1.104zm-1.213 5.375l-.271.344.229 1.719.23-.398-.188-1.665zm.171 13.03l.125.959-.73 1.231-.125-.959.73-1.231zM7.58 1.609l-1.418.362.834-.362 1.252-.344-.667.344zm5.15-.091l-1.71-.163.563.507 1.523.127-.376-.471zm12.14 6.787l-1.815-.887-.271.887 1.752.796.334-.796zm2.068-1.882L24.79 5.247l-.355.09 2.086 1.158.417-.072zM7.662 28.177l.104.525-1.085-.561-.146-.543 1.126.579zm-5.799-7.402l.292.832-.48-1.629-.292-.869.48 1.665zM.759 16.432l.271.959-.146-1.737-.271-.977.146 1.755zm25.845-1.919l-.459-.543-.021.851.459.471.021-.778zM2.865 5.337l-.855.941.73-1.194.772-.905-.647 1.158zm27.054 14.606l.834-.416.438-.344-.855.47-.417.29z"/><path d="M4.471 25.77l.209.597-.876-1.195-.229-.615.897 1.212zm22.069-9.284l.104-.434.146.724-.125.38-.125-.67zm-12.473-5.104l.104.507.146 1.774-.125-.561-.125-1.719zm12.37 7.312l.73-.344.334.489-.73.326-.334-.471zm0-6.389l-.98-.688-.167.905.98.615.167-.833zm-1.191-4.669l-1.877-.977-.313.76 1.815.887.375-.67zM14.38 6.151l-.855.054.334 1.52.751-.127-.229-1.448zm12.117.326l-2.086-1.158-.355.271 2.002 1.104.438-.217z"/><path d="M32.86 14.006l-.563-.923-.083-.814.542.995.104.742zm-1.041-3.221l-1.251-1.14-.292-.652 1.231 1.176.313.615zm-5.82-.833l-1.439-.851-.271.887 1.418.76.292-.796zm3.524-1.918l-1.794-1.231-.396-.271 1.752 1.231.438.271zm-15.207 5.628l.355.633v1.756l-.355-.67v-1.719zm11.326-6.569l-1.94-1.05-.334.615 1.877.977.396-.543z"/><path d="M26.06 6.713l-2.002-1.104-.355.452 1.94 1.05.417-.398zM8.81 28.503l.083.507-1.106-.308-.104-.525 1.126.326zm1.669-27.365l-1.502.072.73.235 1.314-.072-.542-.235zm21.985 15.854l.188-.688.146-.742-.188.76-.146.67zm-2.128 2.643l.855-.47.396-.434-.855.507-.396.398zM13.106 2.007l-1.523-.127.542.76 1.335.109-.355-.742zm1.565 14.063l.48.706-.188 1.701-.459-.724.167-1.683zm11.492 2.081l.73-.362.271.579-.73.344-.271-.561z"/><path d="M.51 11.943l.146.977.229-1.665-.146-.995-.229 1.683zm4.9-9.339l-1.106.652.897-.67.98-.615-.772.633zm6.571 24.559l.104.706-1.043.471-.125-.706 1.064-.471zM3.574 24.54l.229.615-.751-1.357-.25-.67.772 1.412zM14.109 4.831h-1.001l.417 1.375.855-.054-.271-1.321zm12.599 8.904l-.459-.615-.104.851.459.543.104-.778zm-.232 2.045l.125-.489.063.76-.104.434-.083-.706zM13.463 2.731l-1.335-.109.501.995 1.147.054-.313-.941z"/><path d="M26.352 9.247l-1.481-.941-.334.796 1.439.851.375-.706zM13.858 7.708l-.376.29.355 1.665.271-.344-.25-1.611zm15.247.054l-1.752-1.231-.417-.109 1.71 1.213.459.127zm-2.418 3.765l-1.001-.778-.25.869.98.688.271-.778zm-11.725 6.949l.271.851-.396 1.593-.25-.869.376-1.574zM13.796 3.672l-1.147-.054.459 1.213h1.001l-.313-1.158zm-.125 20.868l.125.869-.855.995-.146-.869.876-.995zm17.833-14.37l-1.231-1.176-.355-.543 1.21 1.213.376.507z"/><path d="M30.732 19.255l.855-.507.355-.525-.876.561-.334.471zm2.045-6.009l-.542-.995-.167-.778.542 1.05.167.724zm-6.821 4.308l.709-.398.209.633-.73.362-.188-.597zM9.936 28.557l.042.507-1.106-.054-.083-.507 1.147.054zm22.673-12.252l.188-.76.063-.778-.188.815-.062.724zM8.268 1.265l-1.252.344.876-.072 1.085-.326-.709.054zm18.398 19.202l1.377-.362.48.109-1.398.38-.459-.127zm.105-11.818l-1.523-1.014-.376.67 1.481.941.417-.597z"/><path d="M26.227 20.25l1.356-.344.459.217-1.377.362-.438-.235zm2.398-12.614l-1.71-1.213-.438.054 1.648 1.194.501-.036zM1.364 19.11l.292.869-.313-1.683-.313-.905.334 1.719zm.082-11.438l-.292 1.032.605-1.412.25-1.014-.563 1.394zm25.679 12.922l1.398-.38.48.018-1.418.398-.459-.036zm-1.315-.669l1.335-.344.417.308-1.356.344-.396-.308zM11.043 1.374l-1.314.072.73.507 1.126-.09-.542-.489zm2.792 8.289l.042.471.292 1.755-.104-.507-.229-1.719z"/><path d="M27.207 8.179l-1.564-1.086-.396.543 1.523 1.013.438-.471zm.96-.507l-1.648-1.194-.438.235 1.606 1.14.48-.181zm-1.67 7.384l.125-.543-.021.778-.125.489.021-.724zm.398-2.063l-.459-.706-.188.814.459.615.188-.724zm.104-2.172l-1.001-.869-.313.796 1.001.778.313-.706zm.583 9.809L29 20.232l.48-.09-1.418.416-.48.072zm3.484-1.846l.876-.561.292-.597-.876.615-.292.543zm-5.611.742l1.314-.362.375.398-1.335.344-.355-.38z"/><path d="M2.782 23.128l.25.67-.626-1.484-.271-.706.647 1.52zM27.687 7.853l-1.606-1.14-.417.38 1.564 1.086.459-.326zm3.464 1.791l-1.21-1.213-.396-.416 1.189 1.213.417.416zM14.837 20.92l.125.977-.563 1.43-.125-.959.563-1.448zM.613 14.658l.271.977.042-1.719-.271-.995-.042 1.737zm12.89-8.452l-.48.235.459 1.575.375-.29-.355-1.52zM25.81 16.92l.709-.434.146.67-.709.398-.146-.633zm6.777-4.38l-.542-1.05-.229-.706.542 1.086.229.67z"/><path d="M3.513 4.179l-.772.905.876-.959.688-.869-.793.923zm24.506 16.379l1.418-.416.459-.199-1.439.452-.438.163zm-2.897-1.484l1.314-.362.334.471-1.314.362-.334-.471zm7.551-3.475l.188-.814v-.778l-.188.887v.706zm-18.502-3.71l.334.597.167 1.81-.355-.633-.146-1.774zM11.583 1.863l-1.126.09.73.778.939-.109-.542-.76zm15.792 8.324l-1.022-.941-.355.706 1.001.869.375-.633zm3.358-.941l-1.189-1.213-.438-.271 1.168 1.213.459.271zM12.962 26.404l.084.724-.96.724-.104-.706.98-.742zm-1.92 1.936l.021.525-1.064.199-.042-.507 1.085-.217zm20.317-10.099l.876-.615.229-.652-.897.67-.209.597zm-2.901 2.136l1.439-.453.438-.29-1.46.489-.417.253zm-1.312-8.072l-.459-.778-.25.778.459.706.25-.706zM13.107 4.831l-.626.181.542 1.43.48-.235-.396-1.375zm13.474 9.519l.125-.615-.104.778-.125.543.104-.706zM6.18 1.971l-.98.615.98-.398.834-.579-.834.362z"/><path d="M6.682 28.141l.042.344-1.001-.76-.083-.38 1.043.796zm18.19-9.61l1.293-.38.271.543-1.314.362-.25-.525zM5.638 27.363l.083.38-.939-.959-.125-.416.98.995zm20.108-11.094l.709-.489.063.706-.709.434-.063-.652zm-11.074-1.973l.48.688v1.792l-.48-.706v-1.774zM12.126 2.622l-.939.109.688 1.032.772-.145-.521-.995zm-3.15-1.411l-1.085.326.918.217.918-.308-.751-.235zm23.384 10.66l-.542-1.086-.313-.615.521 1.122.334.579z"/><path d="M12.626 3.618l-.772.145.626 1.249.626-.181-.48-1.213zM7.788 28.702v.326l-1.043-.543-.042-.344 1.085.561zM27.812 9.663l-1.043-1.014-.417.597 1.022.941.438-.525zM.737 10.26l.146.995.417-1.556-.146-.995-.417 1.556zm29.537-1.285l-1.168-1.213-.459-.127 1.147 1.213.48.127zm2.398 5.9l.188-.887-.083-.76-.188.941.084.706zM13.481 7.998l-.042.434.438 1.701-.042-.471-.355-1.665zM4.68 26.349l.125.416-.834-1.158-.146-.452.855 1.194z"/><path d="M28.876 20.123l1.46-.489.396-.38-1.481.525-.376.344zM2.134 21.608l.271.706-.48-1.575-.271-.76.48 1.629zm12.268 1.719l.125.887-.709 1.213-.125-.869.709-1.231zm10.26-5.357l1.293-.398.209.597-1.293.38-.209-.579zm3.609-8.706l-1.064-1.086-.438.471 1.043 1.013.459-.398zm-13.119 7.511l.271.851-.209 1.719-.271-.851.209-1.719zm14.62-7.927l-1.147-1.213-.48.036 1.126 1.176h.501zM1.03 17.391l.313.905-.146-1.701-.313-.941.146 1.737zm30.536.253l.897-.67.146-.688-.897.724-.146.633zm-4.086-5.972l-.459-.851-.313.706.459.778.313-.633zm1.292-2.679l-1.085-1.14-.459.326 1.064 1.086.48-.271z"/><path d="M29.273 8.848l-1.126-1.176-.48.181 1.085 1.14.521-.145zm-2.505 4.833l.125-.688-.188.742-.125.615.188-.67zM8.893 29.01l-.042.308-1.064-.29v-.326l1.106.308zm15.478-8.38l1.857-.398.438.217-1.877.398-.417-.217z"/><path d="M32.046 11.291l-.521-1.122-.375-.507.521 1.158.375.471zm-6.279 4.308l.709-.525-.021.706-.709.489.021-.67zm-.98 5.266l1.877-.398.459.127-1.898.416-.438-.145zm-.791-.543l1.835-.38.417.308-1.856.398-.396-.326z"/><path d="M25.226 21.01l1.898-.416.459.036-1.919.434-.438-.054zM2.01 6.278l-.25 1.013.772-1.213.229-.995-.751 1.194zm21.629 13.646l1.815-.38.375.398-1.836.38-.355-.398zm5.613-.162l1.481-.525.334-.47-1.502.561-.313.434zM3.804 25.155l.146.452-.73-1.303-.188-.507.772 1.357zm20.734-7.8l1.293-.434.146.633-1.293.398-.146-.597zm8.029-3.168l.188-.941-.167-.706-.188.977.167.67zM9.728 1.446l-.918.308.918.507.751-.308-.751-.507z"/><path d="M27.855 11.111l-.48-.923-.375.615.459.851.396-.543zM12.084 27.869l-.021.543-1.001.453-.021-.525 1.043-.471zm13.58-6.805l1.919-.434.459-.072-1.94.453-.438.054zM13.878 10.133l.292.579.334 1.792-.334-.597-.292-1.774zm9.448 9.321l1.794-.38.313.471-1.815.38-.292-.47zM13.023 6.423l-.146.398.563 1.611.042-.434-.459-1.575zM.656 12.92l.271.995.229-1.647-.271-1.032-.229 1.683zm31.056 4.09l.897-.724.063-.706-.897.76-.063.67z"/><path d="M4.306 3.256l-.688.869 1.001-.706.584-.833-.897.67zm27.364 7.547l-.521-1.158-.417-.398.521 1.158.417.398zm-16.436 8.524l.125.977-.396 1.593-.125-.977.396-1.593zm11.785-6.28l.125-.742-.25.706-.125.688.25-.651zM7.018 1.609l-.834.579 1.043-.09.688-.561-.897.072zm18.854 13.338l.73-.579-.104.706-.709.525.084-.652zM9.978 29.064l-.083.308-1.064-.054.042-.308 1.106.054zm16.124-8.054l1.94-.452.438-.163-1.961.471-.417.145zm-12.306 4.416l.063.742-.834.959-.083-.724.855-.977zm15.768-6.081l1.502-.561.271-.543-1.523.597-.25.507zm-6.487-.416l1.794-.398.271.525-1.794.38-.271-.507zm5.215-8.271l-.48-.995-.438.525.48.923.438-.453zm-3.818 6.063l1.293-.471.063.652-1.293.434-.063-.615zm7.926-3.203l.188-.977-.25-.652-.188 1.014.25.615zm-1.166-3.095l-.521-1.158-.459-.271.501 1.176.48.253zm-20.775-8.47l-.751.308.897.778.563-.326-.709-.76z"/><path d="M1.656 19.979l.271.76-.313-1.647-.292-.814.334 1.701zm12.848-7.475l.459.67.188 1.81-.48-.688-.167-1.792zm-2.023-7.492l-.271.362.667 1.448.146-.398-.542-1.412zM3.032 23.797l.188.507-.605-1.43-.209-.561.626 1.484zm25.72-13.483l-.48-1.05-.459.398.48.995.459-.344zM26.52 20.865l1.961-.471.417-.271-1.982.507-.396.235zm5.255-4.506l.897-.76-.021-.706-.897.814.021.652zm-8.885 2.009l1.773-.398.209.579-1.794.398-.188-.579zm4.443-5.882l.125-.814-.334.633-.125.742.334-.561zm3.442-2.335l-.501-1.176-.48-.145.501 1.158.48.163zm-19.588-7.42l-.563.326.834 1.05.417-.344-.688-1.032z"/><path d="M11.854 3.763l-.417.344.772 1.267.271-.362-.626-1.249zM26.04 14.314l.73-.633-.188.67-.73.579.188-.615zm3.213-4.235l-.48-1.086-.501.271.48 1.05.501-.235zM1.154 8.685l.146.995.605-1.412-.146-1.013-.605 1.43zm28.681 10.153l1.523-.597.209-.597-1.523.633-.209.561zm.44-8.85l-.501-1.158h-.501l.501 1.14.501.018z"/><path d="M29.773 9.97l-.501-1.14-.501.145.48 1.086.521-.091zm-5.297 6.136l1.293-.507-.021.67-1.293.471.021-.633zm-2.316 4.959l2.211-.434.417.235-2.232.453-.396-.253z"/><path d="M21.783 20.739l2.19-.434.396.326-2.211.434-.375-.326zM.884 15.635l.313.941.042-1.683-.313-.977-.042 1.719zm31.266-2.733l.188-1.014-.313-.579-.188 1.05.313.543zM6.746 28.485l-.042.145-.96-.724v-.163l1.001.742zm8.216-6.588l.125.905-.563 1.412-.125-.887.563-1.43zm.189-6.913l.292.833v1.792l-.271-.851-.021-1.774zm7.405 6.334l2.232-.452.438.145-2.253.47-.417-.163zM5.721 27.725v.163l-.897-.923-.042-.217.939.977z"/><path d="M13.439 8.432l.209.543.501 1.737-.292-.579-.417-1.701zm8.013 11.909l2.19-.416.355.398-2.19.434-.355-.416zm5.442.271l1.982-.507.375-.344-2.002.525-.355.326zm-15.832 8.253l-.104.326-1.022.199.083-.308 1.043-.217zm11.704-11.094l1.773-.416.125.615-1.773.398-.125-.597zM7.788 29.028l-.083.109-1.001-.507.042-.145 1.043.543zm19.92-17.03l.146-.869-.375.561-.125.814.355-.507zm-4.735 9.483l2.253-.471.438.054-2.274.489-.417-.072z"/><path d="M7.892 1.537l-.688.561 1.064.199.542-.525-.918-.235zM21.159 19.87l2.169-.416.313.471-2.19.416-.292-.47zm-8.135 7.275l-.042.561-.918.706.021-.543.939-.724zm18.731-11.456l.897-.814-.083-.706-.897.851.084.67zM4.804 26.765l.042.217-.814-1.104-.083-.271.855 1.158zM2.739 5.084l-.229.995.918-.977.188-.977-.876.959zm23.531 8.669l.73-.688-.25.633-.73.633.25-.579zm5.568-1.412l.188-1.05-.355-.489-.188 1.068.355.471z"/><path d="M30.045 18.295l1.523-.634.146-.633-1.523.67-.146.597zM5.203 2.586l-.584.833 1.085-.416.459-.796-.96.38zm18.166 18.949l2.274-.489.438-.054-2.315.507-.396.036zm1.209-6.045l1.293-.543-.104.652-1.293.507.104-.615zm-3.65 3.855l2.148-.398.25.525-2.169.416-.23-.543zm-18.52 2.968l.209.561-.459-1.52-.229-.615.48 1.575zm24.842-2.008l2.002-.525.313-.434-2.002.561-.313.398zM8.851 29.317l-.146.09-1.022-.29.083-.108 1.085.308z"/><path d="M22.702 17.173l1.773-.434.063.633-1.773.416-.062-.615zm5.445-5.592l.146-.923-.438.452-.146.869.438-.398zM.884 11.255l.271 1.032.417-1.538-.271-1.05-.417 1.556zm14.561 6.371l.125.995-.209 1.701-.125-.977.209-1.719zm8.341 3.873l2.315-.507.417-.145-2.336.507-.396.145zm7.698-9.628l.188-1.068-.417-.38-.188 1.086.417.362zm.188 3.167l.897-.851-.167-.67-.897.887.167.633zm-17.501-4.325l.417.652.375 1.81-.459-.67-.334-1.792z"/><path d="M3.951 25.607l.083.272-.709-1.249-.125-.326.751 1.303zm-2.607-7.33l.292.814-.146-1.647-.292-.851.146 1.683zm19.398.489l2.148-.398.188.561-2.148.398-.188-.561zm-6.216 5.448l.042.778-.709 1.176-.062-.742.73-1.213zM12.877 6.821l.125.525.647 1.629-.209-.543-.563-1.611zm15.729 4.471l.146-.977-.48.344-.146.923.48-.29zm-2.023 1.936l.751-.742-.313.561-.73.688.292-.507zM8.811 1.754l-.542.525 1.064.489.396-.525-.918-.489zm21.358 15.944l1.523-.67.063-.652-1.544.706-.042.615zm.876-6.207l.188-1.086-.459-.271-.188 1.086.459.271zm-6.319 3.42l1.293-.579-.167.615-1.293.543.167-.579zm2.837 4.977l2.003-.561.271-.507-2.023.579-.25.489zm-4.861-3.33l1.773-.471-.021.633-1.773.434.021-.597zm-2.835 5.176l2.503-.525-.376-.29-2.503.525.375.29zm-.399-.308l2.503-.525-.355-.362-2.503.507.355.38zm9.637-10.334l.167-1.014-.501.235-.146.977.48-.199z"/><path d="M12.064 28.394l-.146.344-.98.434.104-.326 1.022-.452zm12.117-7.022l2.336-.507.396-.235-2.357.525-.375.217zm-3.919.561l2.482-.525-.396-.199-2.503.525.417.199zM9.916 29.372l-.188.09-1.022-.054.146-.091 1.064.054zm20.672-18.135l.188-1.086-.501-.145-.167 1.068.48.163zm-9.971 6.95l2.148-.398.125.597-2.148.398-.125-.597zm-1.504 2.878l2.503-.507-.313-.434-2.503.507.313.434zM29.607 11.02l.167-1.05-.501.109-.167 1.013.501-.072z"/><path d="M31.506 14.404l.897-.887-.25-.615-.897.923.25.579zm-1.4-3.33l.167-1.068-.501-.018-.167 1.05.501.036zM20.7 22.042l2.482-.525-.417-.109-2.482.525.417.109zm6.257-9.248l.772-.796-.375.489-.751.742.355-.434zM12.209 5.355l.021.525.772 1.466-.125-.525-.667-1.466zm6.593 15.257l2.503-.507-.271-.507-2.524.489.292.525zM1.76 7.274l.146 1.014.772-1.213-.146-1.013-.772 1.213zm13.205 5.9l.271.833.188 1.828-.292-.833-.167-1.828z"/><path d="M9.727 2.279l-.396.525 1.043.778.25-.507-.897-.796zM.926 13.916l.313.977.229-1.611-.313-1.013-.229 1.647zM3.22 24.304l.125.326-.584-1.357-.146-.398.605 1.43zm27.012-7.239l1.544-.706-.021-.67-1.544.742.021.633zm-9.115 4.995l2.482-.525-.417-.018-2.482.525.417.018zM6.161 2.188l-.459.796 1.147-.127.355-.76-1.043.09zm18.795 12.18l1.314-.615-.25.579-1.293.579.23-.543zm2.857 5.049l2.023-.579.209-.561-2.044.615-.188.525zm-3.254 1.738l2.357-.525.355-.326-2.378.543-.334.308zm-10.7 5.013l-.062.579-.813.941.042-.561.834-.959zm1.499-5.864l.125.923-.375 1.556-.125-.905.376-1.575zm7.427-4.325l1.773-.489-.083.615-1.773.471.083-.597zm-20.858 4.76l.229.615-.292-1.575-.229-.688.292 1.647zm4.755 7.891l-.104-.072-.897-.688.063.036.939.724z"/><path d="M20.553 17.572l2.148-.416.063.615-2.148.398-.062-.597zM5.723 27.906l-.063-.036-.834-.869v-.018l.897.923zm12.786-7.801l2.524-.489-.209-.543-2.524.489.209.543zm12.746-6.279l.897-.923-.313-.543-.897.941.313.525zm-19.817-9.72l-.104.507.897 1.267-.021-.525-.772-1.249z"/><path d="M10.604 3.057l-.25.507.98 1.05.104-.507-.834-1.05zm-6.987 1.05l-.188.977 1.043-.724.146-.959-1.001.706zm23.736 8.325l.772-.851-.417.398-.772.796.417-.344zM7.684 29.136l-.167-.09-.939-.489.104.072 1.001.507zm5.987-20.161l.376.652.563 1.737-.417-.652-.522-1.737zm7.842 12.995l2.482-.525-.396.09-2.482.525.396-.09zM4.848 26.983v.018l-.772-1.032-.042-.072.813 1.086zm6.091 2.189l-.23.109-.98.181.188-.09 1.022-.199zm19.27-12.74l1.544-.742-.084-.652-1.543.778.083.615zm-11.908 3.112l2.524-.489-.146-.579-2.524.47.146.597zM30.962 13.3l.897-.941-.375-.47-.876.959.355.452zm-6.071 7.547l2.378-.543.313-.398-2.378.561-.313.38zm.356-6.949l1.335-.67-.313.525-1.314.615.292-.47zm-7.948 8.415l2.566-.579-.396-.29-2.586.561.417.308z"/><path d="M28.002 18.893l2.044-.615.125-.597-2.044.633-.125.579zm-11.118 3.113l2.586-.561-.355-.38-2.607.543.376.398zm10.929-9.828l.793-.887-.459.308-.772.851.438-.271zm-7.239 4.796l2.148-.416-.021.597-2.148.416.021-.597zm2.357-1.556l1.794-.507-.167.579-1.773.489.146-.561zM8.706 29.426l-.209-.108-.96-.271.167.09 1.001.29zm9.01-6.914l2.545-.579-.417-.199-2.566.579.438.199zM1.198 16.576l.292.851.042-1.629-.292-.905-.042 1.683z"/><path d="M16.507 21.608l2.607-.543-.313-.452-2.607.525.313.471zm5.402.199l2.461-.525-.375.181-2.482.525.396-.181zm-6.466-5.973l.126.995v1.792l-.126-.995v-1.792zM1.301 9.699l.271 1.05.584-1.375-.25-1.068L1.301 9.7zm11.68 17.989l-.188.362-.897.688.146-.344.939-.706zm17.606-14.84l.876-.959-.417-.38-.876.977.417.362zm-12.432 9.791l2.545-.597-.417-.109-2.545.579.417.127zm-3.068.163l.042.814-.542 1.376-.042-.778.542-1.412z"/><path d="M2.615 22.874l.146.398-.438-1.448-.167-.471.459 1.52zm25.678-10.859l.814-.923-.501.181-.793.887.48-.145zM4.034 25.879l.042.072-.667-1.176-.083-.145.709 1.249zm12.139-4.742l2.607-.525-.271-.507-2.628.507.292.525zm1.962-2.172l2.524-.471-.083-.597-2.524.47.083.597zM7.204 2.098l-.355.76 1.189.181.229-.724-1.064-.217zm22.925 13.718l1.544-.778-.167-.633-1.523.796.146.615zm.061-3.348l.876-.977-.459-.272-.855.977.438.271zm-4.588 1.014l1.356-.706-.355.434-1.335.67.334-.398zm3.169-1.503l.834-.941-.501.072-.814.923.48-.054zM18.593 22.657l2.524-.597-.417-.018-2.545.597.438.018zm6.572-2.208l2.378-.561.25-.471-2.399.579-.23.453zm4.568-8.253l.855-.977-.48-.163-.834.959.459.181z"/><path d="M29.252 12.033l.834-.959-.501-.036-.834.941.501.054zm-1.126 6.281l2.044-.634.063-.615-2.044.652-.063.597zm-7.489-1.919l2.148-.434-.084.597-2.148.416.083-.579zm2.523-1.484l1.815-.543-.229.543-1.794.507.209-.507zm-.897 6.624l2.461-.525-.355.271-2.461.525.355-.271zm-6.361-.923l2.628-.507-.23-.561-2.649.489.25.579zM13.023 7.346l.292.652.73 1.629-.376-.652-.647-1.629zm1.564 4.018l.271.832.396 1.81-.271-.833-.396-1.81zM9.728 29.48l-.271-.109-.96-.054.209.109 1.022.054zM1.635 19.092l.229.688-.125-1.593-.25-.742.146 1.647zm16.416-.742l2.524-.471-.021-.597-2.545.453.042.615zm.958 4.217l2.503-.579-.417.09-2.524.597.438-.109zM2.509 6.061l.146 1.013.918-.977-.146-1.014-.918.977zm27.451 9.14l1.523-.796-.23-.579-1.523.815.23.561zM6.576 28.557l-.104-.271-.855-.652.042.217.918.706zm5.343.181l-.292.127-.918.416.229-.109.98-.434zm2.878-5.791l2.482-.634-.396-.308-2.524.615.438.326z"/><path d="M14.378 22.621l2.524-.615-.375-.398-2.545.597.396.416zM5.681 27.87l-.042-.217-.793-.814v.163l.834.869zm20.318-14.696l1.356-.742-.417.362-1.356.706.417-.326zM4.618 3.401l-.146.959 1.126-.452.104-.941-1.085.434zm10.636 19.763l2.461-.652-.417-.217-2.482.633.438.235zm-.686 1.828l-.083.615-.688 1.14.063-.579.709-1.176zM1.154 12.269l.313 1.014.417-1.502-.313-1.05-.417 1.538zM3.346 24.63l.083.145-.542-1.285-.104-.217.563 1.357z"/><path d="M15.673 20.033l2.628-.489-.167-.597-2.649.471.188.615zm-1.689 2.172l2.545-.597-.334-.471-2.566.561.355.507zm-6.448 6.841l-.167-.29-.876-.453.104.271.939.471zm17.878-9.049l2.399-.579.188-.525-2.42.597-.167.507z"/><path d="M28.187 17.716l2.044-.652-.021-.633-2.065.67.042.615zM8.266 2.297l-.229.724 1.189.471.104-.706-1.064-.489zm14.311 18.876l2.461-.507-.313.344-2.461.525.313-.362zm-7.029-2.57l.104.959-.209 1.683-.125-.923.229-1.719zm.167 4.688l2.441-.652-.438-.108-2.461.651.459.109zm7.718-8.832l1.815-.561-.292.471-1.815.543.292-.452zm-2.652 1.393l2.169-.434-.146.561-2.149.434.125-.561zM4.827 27.001v-.163l-.709-.977-.063.091.772 1.05z"/><path d="M19.406 22.386l2.503-.579-.375.181-2.503.579.375-.181zm-5.778-.688l2.566-.561-.292-.525-2.587.525.313.561zM29.73 14.64l1.523-.814-.313-.525-1.523.832.313.507zM12.231 5.88l.209.652.876 1.466-.292-.652-.793-1.466zm14.185 7.059l1.377-.778-.459.253-1.356.742.438-.217zm-8.407 4.796l2.545-.452.042-.597-2.545.453-.042.597zM2.156 21.354l.167.471-.292-1.502-.188-.543.313 1.575zm6.34 7.963l-.229-.308-.897-.253.167.29.96.271z"/><path d="M16.173 23.308l2.42-.651-.438-.018-2.44.651.459.018zm-.686-3.89l2.649-.471-.104-.615-2.649.434.104.651zm-4.78 9.863l-.334-.109-.918.181.271.109.98-.181zm2.61-8.144l2.587-.525-.229-.579-2.587.489.229.615zm16.123-7.004l1.523-.832-.355-.452-1.502.851.334.434zM9.332 2.785l-.104.706 1.147.76v-.688l-1.043-.778zm4.464 23.981l-.209.398-.793.905.188-.362.813-.941zm13.078-13.954l1.397-.796-.48.163-1.377.778.459-.145zm1.293 4.289l2.065-.67-.083-.633-2.044.688.063.615zm-24.092 8.85l.063-.09-.626-1.104-.104.018.667 1.176zm21.507-6.461l2.42-.597.125-.579-2.42.597-.125.579zm-13.059 4.144l2.274-.688-.438-.326-2.295.652.459.362z"/><path d="M12.064 23.272l2.315-.67-.396-.416-2.336.633.417.453zM1.237 14.893l.292.905.229-1.556-.292-.959-.229 1.611zm22.529-.814l1.836-.597-.355.398-1.815.561.334-.362zM11.334 4.613l.125.67L12.46 6.55l-.209-.652-.918-1.285zm11.493 16.126l2.461-.507-.271.416-2.461.507.271-.416zm-7.591-6.732l.125.995.188 1.81-.125-.995-.188-1.81zm-2.212 9.863l2.232-.706-.459-.235-2.274.688.501.253zm6.736-1.774l2.482-.579-.355.271-2.503.579.375-.271z"/><path d="M20.991 15.364l2.169-.452-.209.507-2.169.434.209-.489zm-10.638-11.8v.688l1.085 1.032-.125-.67-.959-1.05zm6.258 19.654l2.399-.651-.417.09-2.42.652.438-.091zm-4.985-.398l2.336-.634-.355-.489-2.378.597.396.525zm17.459-9.139l1.502-.851-.417-.362-1.481.851.396.362zM1.906 8.287l.25 1.068.751-1.194-.25-1.086-.751 1.213zm25.446 4.507l1.418-.814-.48.054-1.398.796.459-.036zM14.045 9.626l.25.833.584 1.737-.271-.833-.563-1.737zM2.762 23.272l.104.217-.417-1.375-.125-.308.438 1.466zm3.71 5.014l-.021-.434-.793-.597-.042.38.855.651zm7.031-4.271l2.211-.724-.459-.127-2.232.706.48.145zm4.548-6.878l2.545-.453.104-.561-2.545.452-.104.561z"/><path d="M15.464 21.246l.021.832-.375 1.52-.042-.814.396-1.538zm-9.825 6.406l.042-.38-.73-.76-.104.326.793.814zm9.742-8.868l2.649-.434-.021-.615-2.649.416.021.634zm-2.316 1.738l2.587-.489-.167-.615-2.607.452.188.652zm15.624-7.203l1.481-.851-.459-.271-1.46.851.438.271zm-.877-.453l1.439-.832-.48-.054-1.418.814.459.072z"/><path d="M9.457 29.353l-.292-.308-.897-.036.229.308.96.036zm18.815-16.306l1.46-.851-.48-.163-1.439.832.459.181zm-17.021 9.248l2.378-.597-.313-.561-2.399.543.334.615zm-3.882 6.443l-.083-.471-.814-.416.021.434.876.453zM5.702 2.984l-.104.941 1.21-.145.063-.923-1.168.127zm7.091 25.067l-.334.163-.855.651.292-.127.897-.688zm15.29-11.547l2.044-.688-.167-.597-2.044.706.167.579zm-3.942-2.715l1.857-.615-.396.326-1.836.597.375-.308zM4.847 26.838l.104-.326-.667-.905-.146.253.709.977zm20.86-7.909l2.42-.597.063-.597-2.42.597-.063.597zm-11.703 5.104l2.169-.724-.459-.018-2.211.724.501.018zM1.489 17.445l.25.742.042-1.575-.25-.814-.042 1.647zm15.56 5.574l2.357-.633-.396.181-2.399.652.438-.199zm-6.488 1.34l1.961-.742-.459-.344-2.002.706.501.38zm12.474-4.109l2.461-.507-.209.489-2.461.507.209-.489zm-2.94 1.484l2.482-.561-.313.362-2.482.579.313-.38z"/><path d="M10.061 23.978l2.002-.706-.438-.452-2.044.67.48.489zm-6.652.797l.104-.018-.501-1.212-.125-.054.521 1.285zm17.834-9.846l2.19-.471-.271.453-2.169.452.25-.434zM3.429 5.084l.146 1.014 1.043-.724-.146-1.032-1.043.742z"/><path d="M11.104 24.63l1.919-.76-.48-.253-1.961.742.521.271zm-.187-2.932l2.399-.543-.25-.615-2.42.507.271.652zm-2.649 7.294l-.146-.489-.834-.235.083.471.897.253zm1.333-5.502l2.044-.67-.396-.525-2.065.615.417.579zm3.275-3.62l2.607-.453-.104-.633-2.628.416.125.67zm-1.249 8.995l-.376-.09-.876.398.334.109.918-.416zm3.734-10.714l2.649-.416.042-.597-2.649.398-.042.615zm2.794-1.593l2.545-.453.167-.525-2.545.434-.167.543zm9.762-.651l2.044-.706-.23-.561-2.044.706.23.561zm-16.269 8.868l1.877-.76-.501-.127-1.919.76.542.127zm12.89-11.185l1.877-.652-.438.235-1.856.615.417-.199zm-9.429 10.026l-.104.67-.542 1.339.083-.615.563-1.394z"/><path d="M14.483 23.924l2.128-.706-.438.09-2.169.724.48-.109zm-8.01 3.946l.167-.561-.73-.543-.229.525.793.579zm-2.337-2.009l.146-.253-.584-1.032-.188.181.626 1.104zM1.865 19.78l.188.543-.125-1.52-.188-.615.125 1.593zm3.816 7.474l.229-.525-.688-.706-.271.471.73.76zM1.572 10.731l.313 1.05.584-1.357-.292-1.086-.605 1.394zm7.592 12.18l2.065-.615-.334-.597-2.107.561.375.652zm-.166 2.208l1.564-.76-.501-.38-1.627.724.563.416z"/><path d="M17.426 22.73l2.357-.615-.355.271-2.357.633.355-.29zm-8.993 1.973l1.627-.724-.48-.489-1.669.67.521.543zm7.135-7.873l.105.977v1.756l-.105-.959V16.83zM7.285 28.286l.104-.597-.751-.38-.167.561.814.416zm18.464-9.954l2.42-.597-.021-.615-2.44.615.042.597zM10.374 29.173l-.334-.308-.876.163.292.308.918-.163zm.27-8.145l2.42-.507-.188-.651-2.44.452.209.706zm2.671-13.03l.209.851.751 1.611-.25-.833-.709-1.629z"/><path d="M9.583 25.408l1.523-.778-.521-.271-1.564.76.563.29zm11.971-10.841l2.211-.489-.334.38-2.19.47.313-.362zm-1.19 6.715l2.461-.543-.271.434-2.482.561.292-.452zm2.819-1.575l2.461-.489-.146.543-2.461.507.146-.561zM4.951 26.512l.271-.471-.605-.833-.334.398.667.905zm7.217-1.719l1.836-.778-.501-.018-1.877.76.542.036zm15.52-9.447l2.044-.706-.292-.507-2.023.724.271.489zM7.933 24.159l1.669-.67-.417-.579-1.71.615.459.634zm17.043-10.677l1.898-.67-.459.127-1.877.652.438-.109zM2.323 21.825l.125.308-.271-1.412-.146-.38.292 1.484zm6.842 7.221l-.209-.489-.834-.036.146.489.897.036zm3.608-9.845l2.628-.416-.042-.634-2.628.38.042.67zM6.849 2.858l-.063.923 1.231.163v-.905l-1.168-.181zm-.23 24.432l.438-.67-.667-.507-.48.633.709.543z"/><path d="M7.829 25.878l1.168-.76-.563-.416-1.231.724.626.452zm-1.919.869l.48-.633-.626-.652-.542.561.688.724z"/><path d="M8.81 22.241l2.107-.561-.271-.67-2.128.525.292.706zm-1.585 3.185l1.231-.724-.521-.543-1.272.67.563.597zm2.94.145l1.481-.796-.542-.145-1.523.778.584.163zm-2.043 2.95l.042-.615-.772-.217-.104.597.834.235zm6.736-16.324l.125 1.014.396 1.792-.125-.995-.396-1.81zm.084 11.528l2.107-.706-.417.199-2.128.706.438-.199zm-.459 1.882l-.25.452-.647 1.104.209-.398.688-1.158zm.917-8.072l2.67-.398.104-.579-2.67.362-.104.615z"/><path d="M18.322 16.033l2.545-.434.229-.471-2.545.434-.23.471zM7.058 26.621l.772-.742-.605-.452-.834.688.667.507z"/><path d="M8.476 26.205l1.106-.796-.584-.29-1.168.76.647.326zM7.391 27.67l.375-.706-.688-.362-.438.67.751.398zm-4.526-4.18l.125.054-.375-1.285-.167-.145.417 1.375zm24.551-8.633l2.023-.724-.355-.452-2.002.724.334.452zM6.39 26.114l.834-.688-.563-.579-.876.633.605.633zm19.024-12.632l1.94-.688-.459.018-1.898.67h.417zM7.453 23.526l1.71-.615-.355-.651-1.752.561.396.706z"/><path d="M6.662 24.829l1.272-.67-.459-.633-1.314.615.501.688zm-1.439 1.213l.542-.561-.563-.76-.605.507.626.814zm-1.711-1.286l.188-.181-.48-1.122-.229.091.521 1.213zm4.233 2.227l.709-.76-.626-.326-.772.742.688.344z"/><path d="M25.726 17.717l2.44-.615-.083-.615-2.42.615.063.615zm-21.442 7.89l.334-.398-.521-.941-.375.308.563 1.032zm13.474-3.276l2.336-.597-.313.362-2.357.615.334-.38zm-5.069 2.353l1.794-.76-.48.091-1.836.778.522-.108zM1.468 13.282l.292.959.396-1.448-.271-1.013-.417 1.502zm8.99 7.041l2.441-.453-.104-.67-2.44.398.104.724zm11.451-6.045l2.232-.489-.375.29-2.211.489.355-.29zm5.174.126l2.002-.724-.396-.362-2.003.724.396.362zM5.763 25.463l.876-.633-.501-.706-.939.561.563.778zm20.089-11.891l1.961-.706-.459-.072-1.94.688.438.09zM9.122 26.385l1.043-.814-.584-.163-1.106.796.647.181z"/><path d="M10.751 25.607l1.418-.796-.542-.018-1.481.796.605.018zm2.836 1.556l-.355.199-.751.851.334-.163.772-.887zM2.655 7.075l.25 1.086.897-.959-.25-1.104-.897.977zM23.266 19.11l2.461-.489-.083.579-2.461.489.083-.579zM8.163 27.887l.292-.724-.709-.199-.375.706.793.217zm18.545-13.844l2.003-.724-.438-.271-1.982.706.417.29z"/><path d="M20.574 20.775l2.461-.525-.209.489-2.461.543.209-.507zm5.716-7.022l1.982-.706-.459-.181-1.961.706.438.181zM8.518 21.535l2.128-.507-.209-.706-2.148.434.229.778zm-.062 5.629l.647-.778-.647-.181-.709.76.709.199zM6.14 24.141l1.314-.615-.396-.724-1.356.543.438.796zM12.438 6.55l.188.851.897 1.448-.209-.851-.876-1.448zm.293 11.981l2.628-.38.042-.615-2.628.326-.042.67zM8.956 28.557l-.042-.633-.772-.036-.042.615.855.054z"/><path d="M7.059 22.802l1.752-.561-.292-.724-1.773.489.313.796zm8.614-3.239l.021.869-.188 1.647-.021-.833.188-1.683zM4.617 25.209l.605-.507-.48-.869-.647.416.521.959zm7.865 3.004l-.417-.054-.793.615.375.09.834-.651zM4.472 4.36l.146 1.032 1.126-.434-.146-1.032-1.126.434zM15.34 23.399l2.086-.67-.375.29-2.107.706.396-.326zM8.037 3.021v.905l1.231.452-.042-.887-1.189-.471zm2.004 25.862l-.271-.471-.813.163.209.489.876-.181z"/><path d="M18.571 15.563l2.545-.434.292-.398-2.545.416-.292.416zm-13.37 9.139l.939-.561-.438-.796-.98.489.48.869zm6.049 4.072l-.396-.271-.813.38.334.308.876-.416zm4.257-11.836l2.67-.362.167-.525-2.649.344-.188.543zm10.135.181l2.42-.615-.167-.597-2.42.615.167.597zM1.53 15.816l.25.814.209-1.502-.229-.869-.229 1.556zm8.219 10.606l1.001-.814-.584-.018-1.043.814.626.018zm12.537-12.325l2.253-.507-.417.199-2.232.489.396-.181zm-9.095 10.37l1.752-.742-.459.217-1.794.76.501-.235zm-9.492.109l.375-.308-.438-1.032-.417.235.48 1.104zm7.613.904l1.377-.796-.522.109-1.418.796.563-.109zm-.979-5.881l2.441-.398-.042-.67-2.461.344.063.724zm-1.397 8.325l.229-.724-.709-.036-.292.724.772.036zm9.115-6.063l2.315-.579-.271.453-2.336.597.292-.47z"/><path d="M9.163 27.2l.584-.796-.647-.036-.647.778.709.054zM5.7 23.345l1.356-.543-.334-.796-1.398.452.375.887zm5.759-18.062l.146.851 1.022 1.249-.188-.851-.98-1.249zm11.828 13.212l2.482-.47-.021.597-2.461.489v-.615zM3.012 23.544l.229-.09-.355-1.195h-.25l.375 1.285zM1.74 18.187l.188.615.042-1.484-.188-.688-.042 1.556zM9.227 3.491l.042.887 1.189.742-.083-.869-1.147-.76zm11.494 16.705l2.461-.507-.146.543-2.461.525.146-.561z"/><path d="M8.29 20.757l2.149-.434-.125-.724-2.169.38.146.778zm-1.546 1.267l1.773-.489-.229-.76-1.794.416.25.833zm18.753-5.502l2.42-.615-.23-.561-2.42.615.229.561zM2.47 22.114l.167.145-.25-1.321-.167-.235.25 1.412zm1.603 2.136l.647-.416-.396-.941-.688.326.438 1.032zm-2.021-3.927l.146.38-.125-1.43-.167-.471.146 1.52z"/><path d="M10.375 4.251l.083.869 1.126 1.013-.146-.851-1.064-1.032zM4.722 23.834l.98-.489-.355-.869-1.022.416.396.941zm17.98-9.828l2.274-.525-.438.109-2.253.507.417-.091zm-9.929 3.855l2.628-.344.104-.597-2.628.308-.104.633zm6.069-2.696l2.545-.416.334-.326-2.545.416-.334.326zm-3.127 7.818l2.065-.652-.334.398-2.086.67.355-.416zm-.209-.905l-.104.706-.376 1.484.104-.67.375-1.52zm-5.738 6.316l-.104-.615-.751.145.042.633.813-.163z"/><path d="M10.373 26.295l.939-.796-.563.109-1.001.814.626-.127zm4.988-11.293l.125.995.188 1.792-.104-.977-.209-1.81zm-1.087-4.543l.125 1.014.584 1.737-.125-1.013-.584-1.737zm1.4 5.918l2.649-.344.229-.471-2.649.326-.229.489zM2.156 9.355l.292 1.086.751-1.158-.271-1.104-.772 1.176zm11.471 14.768l1.71-.724-.417.326-1.752.742.459-.344z"/><path d="M25.29 15.961l2.42-.615-.292-.507-2.399.597.271.525zm-13.434 9.284l1.335-.778-.48.235-1.377.796.521-.253zm11.263-11.221l2.294-.543h-.438l-2.274.525.417.018zM9.852 27.073l.521-.778-.626.127-.584.796.688-.145z"/><path d="M9.664 27.779l.167-.724-.688.127-.229.724.751-.127zm.607-8.904l2.461-.344.042-.67-2.461.29-.042.724zm12.952-.996l2.482-.471.042.615-2.482.471-.042-.615zM5.346 22.476l1.398-.452-.25-.832-1.418.38.271.905zm12.935-1.158l2.315-.543-.209.507-2.315.579.209-.543zm-7.427 7.185l-.334-.453-.751.344.271.47.813-.362zm-7.612-5.049l.417-.235-.334-1.104-.438.145.355 1.194zm17.561-3.874l2.461-.471-.083.579-2.461.507.083-.615z"/><path d="M15.027 24.286l-.271.489-.521 1.285.25-.452.542-1.321zm9.99-8.832l2.399-.597-.334-.434-2.378.597.313.434zM8.142 19.979l2.169-.38-.042-.724-2.169.308.042.796zm15.394-5.846l2.315-.561-.438-.091-2.294.543.417.109z"/><path d="M6.494 21.173l1.794-.416-.146-.796-1.815.344.167.869zm12.683-6.334l2.545-.416.376-.235-2.545.416-.375.235zM5.598 3.908l.146 1.032 1.189-.145-.146-1.032-1.189.145zm6.446 24.269l-.459-.235-.751.579.396.271.813-.615zm-7.717-5.285l1.022-.416-.271-.923-1.043.326.292 1.014z"/><path d="M3.638 23.218l.688-.326-.292-1.013-.709.235.313 1.104zm21.066-8.216l2.378-.597-.376-.362-2.357.579.355.38zm-11.827 2.226l2.628-.308.167-.543-2.628.271-.167.579zm11.077-2.896l2.336-.579-.438-.199-2.315.561.417.217z"/><path d="M14.234 26.06l-.396.253-.626 1.05.355-.199.668-1.104zm10.094-11.438l2.357-.579-.417-.29-2.336.579.396.29z"/><path d="M16.005 22.476l2.044-.615-.292.47-2.065.652.313-.507zm-2.794 4.887h-.459l-.709.814.417.054.751-.869zM3.574 6.097l.25 1.104 1.022-.706-.229-1.104-1.043.706zm7.385 19.926l.897-.778-.542.253-.939.796.584-.271zm4.943-10.135l2.649-.326.292-.398-2.649.308-.292.416zM1.864 11.78l.271 1.014.563-1.303-.271-1.05-.563 1.339zm.749 10.479h.25l-.229-1.231-.271-.09.25 1.321zm20.485-4.977l2.482-.452.125.597-2.482.471-.125-.615z"/><path d="M10.52 28.051l-.146-.597-.709.326.104.615.751-.344zm3.505-4.398l1.69-.688-.355.416-1.71.724.375-.453zm-1.691 1.212l1.293-.742-.438.344-1.335.778.48-.38zm7.218-10.261l2.545-.416.396-.145-2.524.416-.417.145zm-9.241 3.547l2.461-.29.104-.633-2.461.235-.104.688zm8.114 2.552l2.294-.507-.146.579-2.315.543.167-.615zm-7.946 6.063l.48-.76-.584.271-.522.778.626-.29zm-5.404-5.213l1.418-.38-.146-.869-1.439.29.167.959z"/><path d="M15.674 17.807l.021.923v1.719l-.021-.869v-1.774zm5.149 1.14l2.461-.452-.021.615-2.461.471.021-.634zm-10.448 8.524l.125-.688-.647.29-.167.724.688-.326zm-8.178-6.768l.167.235-.104-1.339-.188-.326.125 1.43zM13.525 8.849l.125 1.032.751 1.611-.125-1.014-.751-1.629zM1.76 14.242l.229.869.375-1.394-.229-.941-.375 1.466zm6.34 4.94l2.169-.308.042-.724-2.19.253-.021.778zm-1.772 1.123l1.815-.344-.063-.796-1.836.271.083.869zm16.581-3.62l2.482-.452.188.579-2.482.453-.188-.579zM2.885 22.259l.438-.145-.209-1.14-.459.036.229 1.249zm10.181-5.61l2.628-.271.229-.489-2.607.235-.25.525zm3.128-1.177l2.649-.308.334-.326-2.628.308-.355.326zm-14.266 3.33l.167.471.042-1.412-.146-.561-.063 1.502zm-.146-2.19l.188.688.209-1.43-.167-.76-.229 1.502zm2.251 5.267l1.043-.326-.167-.959-1.064.235.188 1.05zm15.915-7.42l2.524-.416.417-.036-2.524.416-.417.036z"/><path d="M11.606 27.924l-.375-.416-.688.543.334.453.73-.579zm4.65-6.045l2.023-.561-.23.543-2.044.615.25-.597zm-12.933.253l.709-.235-.188-1.05-.73.145.209 1.14zm8.179 3.475l.855-.742-.48.38-.897.778.521-.416zM6.786 3.763l.146 1.032 1.231.163-.146-1.032-1.231-.163zm8.197 9.447l.125 1.032.375 1.774-.125-.995-.376-1.81zm7.677 2.932l2.482-.434.25.543-2.482.452-.25-.561zm-1.897 2.171l2.461-.434.063.615-2.461.453-.063-.633z"/><path d="M14.358 23.11l1.669-.634-.313.507-1.69.688.334-.561zm-1.585 1.248l1.252-.706-.396.452-1.293.742.438-.489zm5.735-4.307l2.294-.471-.083.615-2.294.507.083-.651zm1.857-5.628l2.524-.416.417.054-2.524.416-.417-.054z"/><path d="M10.417 17.481l2.461-.235.188-.579-2.461.181-.188.633zm5.278 2.95l-.125.76-.188 1.593.104-.706.209-1.647zM2.908 8.16l.271 1.104.876-.941-.271-1.122-.876.959zm1.98 12.452l1.439-.29-.063-.869-1.439.217.063.941zm6.173 5.701l.417-.706-.542.416-.48.76.605-.471zm1.69 1.05l-.501-.181-.647.76.459.235.688-.814zm9.616-11.71l2.503-.434.292.489-2.482.434-.313-.489zm-5.82-.525l2.628-.308.375-.235-2.628.29-.375.253zm-5.338 12.398L11 26.983l-.647.489.146.597.709-.543zm1.418-20.144l.125 1.032.897 1.448-.125-1.032-.897-1.448zM2.363 20.938l.271.091-.104-1.249-.292-.181.125 1.339zm18.44-6.461l2.524-.416.417.163-2.524.416-.417-.163zm-7.51 1.647l2.607-.235.292-.416-2.586.217-.313.434zm-5.171 2.28l2.169-.235.104-.688-2.169.181-.104.742z"/><path d="M11 26.964l.063-.652-.584.452-.125.688.647-.489zm-4.734-7.528l1.836-.271.042-.778-1.836.181-.042.869zm15.748-4.199l2.503-.434.334.416-2.503.434-.334-.416zm-.794-.597l2.524-.416.396.253-2.503.416-.417-.253z"/><path d="M4.619 5.373l.229 1.104 1.126-.434-.229-1.122-1.126.452zm17.018 9.52l2.503-.416.375.344-2.503.434-.375-.362zm-6.256 7.909l-.271.561-.355 1.43.271-.489.355-1.502zm5.236-5.122l2.482-.398.125.615-2.461.434-.146-.651zm-4.215 3.547l2.023-.525-.146.597-2.023.561.146-.633zm-2.566 5.086l-.501.054-.584.995h.459l.626-1.05zM8.037 3.926l.146 1.032 1.231.452-.125-1.032-1.252-.452zM3.825 20.847l1.064-.235-.063-.959-1.064.145.063 1.05z"/><path d="M14.754 24.775l-.417.308-.48 1.213.396-.253.501-1.267zm-2.795.289l.813-.688-.438.507-.855.742.48-.561zm6.551-5.682l2.294-.434v.633l-2.294.471v-.67zM2.635 21.029l.459-.036-.083-1.14-.48-.054.104 1.231zm14.29-6.136l2.628-.29.396-.145-2.607.29-.417.145zm-5.342-8.76l.125 1.032 1.022 1.249-.125-1.032-1.022-1.249zM3.116 20.992l.73-.145-.083-1.05-.73.054.083 1.14zm-1.044-1.719l.188.326.042-1.321-.188-.416-.042 1.412zm12.538 3.185l1.648-.579-.23.597-1.669.633.25-.651zm-4.007-5.61l2.441-.199.25-.525-2.42.145-.271.579z"/><path d="M2.448 10.423l.271 1.05.73-1.122-.25-1.086-.751 1.158zm10.68 13.32l1.231-.633-.334.561-1.251.706.355-.633zM9.27 4.378l.125 1.032 1.189.742-.125-1.032-1.189-.742zm4.337 11.311l2.586-.217.334-.344-2.566.199-.355.362z"/><path d="M20.429 17.065l2.482-.38.188.579-2.482.416-.188-.615zm-8.178 10.099l-.438-.362-.605.706.375.416.667-.76zM10.456 5.12l.125 1.032 1.126 1.013-.125-1.032-1.126-1.013zm5.029 10.895l.021.959.188 1.756-.021-.923-.188-1.792zM4.826 19.653l1.439-.217.042-.851-1.439.127-.042.941zm12.515-4.905l2.607-.29.417-.036-2.587.289-.438.036zm-9.094 2.914l2.169-.181.188-.633-2.148.109-.209.706zm3.337 8.054l.376-.67-.459.543-.417.706.501-.579z"/><path d="M14.399 11.491l.125 1.05.563 1.701-.125-1.032-.563-1.719zM1.946 17.318l.146.561.188-1.339-.146-.633-.188 1.412zm4.362 1.267l1.836-.181.125-.742-1.815.109-.146.814zm-4.152-5.791l.229.941.542-1.249-.209-.995-.563 1.303zm14.329 7.728l2.003-.47-.084.651-2.023.525.104-.706zm1.962-1.829l2.315-.398.063.651-2.294.434-.083-.688zM1.989 15.11l.167.76.375-1.321-.167-.832-.375 1.394zm18.169 1.394l2.503-.362.25.543-2.482.38-.271-.561zm-8.325 10.298l-.25-.489-.563.652.209.543.605-.706zm-.269-.489l.021-.597-.521.597-.063.652.563-.652zm6.216-11.619l2.586-.29.417.054-2.587.289-.417-.054zM2.26 19.598l.292.181.042-1.212-.292-.271-.042 1.303zm8.614-3.311l2.42-.145.313-.452-2.399.108-.334.489zm3.089-.959l2.566-.199.376-.253-2.545.181-.396.272zm-10.2 4.47l1.064-.145.042-.941-1.064.054-.042 1.032zm8.593 4.597l.772-.633-.355.615-.813.688.396-.67z"/><path d="M13.337 26.367l-.542-.127-.542.923.501.181.584-.977zm1.438-4.615l1.627-.525-.167.652-1.648.579.188-.706zm5.07-5.755l2.524-.344.292.489-2.503.362-.313-.507zM5.744 4.939l.229 1.122 1.189-.145-.209-1.122-1.21.145zM3.825 7.201l.271 1.122 1.001-.688-.25-1.14-1.022.706zm14.394 7.565l2.586-.29.417.163-2.566.29-.438-.163zm-4.821 8.29l1.21-.579-.25.634-1.231.651.271-.706zm2.296-4.344l-.126.814v1.665l.126-.76v-1.719z"/><path d="M19.491 15.544l2.524-.326.355.416-2.524.344-.355-.434zm-.837-.614l2.566-.29.417.253-2.545.308-.438-.271zM2.551 19.78l.48.054.042-1.122-.459-.163-.063 1.231z"/><path d="M3.012 19.834l.73-.054.042-1.032-.73-.036-.042 1.122zm15.288-1.81l2.315-.344.125.633-2.315.398-.125-.688zm.793-2.823l2.545-.308.376.344-2.524.326-.396-.362zM8.454 16.957l2.169-.127.271-.561-2.169.072-.271.615zm8.054 2.841l2.023-.416v.67l-2.002.471-.021-.724zM4.846 18.712l1.439-.127.125-.814-1.439.036-.125.905zm9.492 6.37l-.542.127-.459 1.158.501-.054.501-1.231zm.042-10.026l2.545-.181.417-.145-2.524.163-.438.163z"/><path d="M6.433 17.771l1.815-.109.209-.688-1.815.054-.209.742zm5.588 7.221l.334-.597-.396.67-.376.67.438-.742zm3.548-3.801l-.292.615-.188 1.538.271-.561.209-1.593zm-13.455-3.33l.188.416.188-1.267-.167-.507-.209 1.357zM13.65 9.862l.146 1.068.73 1.593-.125-1.05-.751-1.611zm-2.442 5.936l2.399-.109.355-.362-2.378.09-.375.38zm1.586 10.443l-.48-.29-.501.869.438.362.542-.941zm2.315-2.896l-.438.38-.334 1.357.417-.308.355-1.43z"/><path d="M18.092 17.372l2.336-.308.209.615-2.315.344-.23-.652zm-3.212 3.62l1.627-.452-.083.706-1.627.525.083-.778zm.21-6.75l.042.995.376 1.737-.021-.959-.396-1.774zM3.2 9.265l.25 1.086.855-.905-.209-1.122-.897.941z"/><path d="M12.041 25.517l-.021-.525-.438.724-.021.597.48-.796zm2.775-10.606l2.524-.163.438-.036-2.503.163-.459.036z"/><path d="M12.334 25.951l-.292-.434-.459.796.25.489.501-.851zm.335-2.334l.751-.561-.271.706-.772.633.292-.778zm-8.888-4.851l1.064-.054.146-.905-1.064-.036-.146.995zM6.932 4.794l.209 1.122 1.21.163-.188-1.122-1.231-.163zm9.491 14.262l2.023-.362.063.688-2.023.416-.063-.742zm-2.835 3.203l1.189-.525-.167.706-1.21.579.188-.76zM2.156 15.888l.146.633.355-1.249-.125-.706-.375 1.321zm15.643.887l2.357-.271.25.561-2.336.308-.271-.597z"/><path d="M8.728 16.341l2.148-.072.334-.489-2.107.018-.375.543zm-6.426 1.936l.292.271.167-1.176-.271-.362-.188 1.267zm9.281-2.859l2.378-.09.396-.253-2.357.072-.417.271zm3.692-.561l2.503-.163.438.054-2.482.163-.459-.054zM2.719 11.473l.209.995.688-1.086-.167-1.032-.73 1.122zm2.274 6.334l1.439-.036.229-.76-1.418-.036-.25.832z"/><path d="M3.054 18.712l.73.036.146-.977-.73-.127-.146 1.068zm-.691-4.995l.167.833.521-1.194-.125-.887-.563 1.249zm4.277 3.294l1.815-.054.292-.615-1.773-.018-.334.688zm6.111-8.597l.146 1.086.897 1.43-.146-1.068-.897-1.448z"/><path d="M17.467 16.232l2.378-.253.313.507-2.357.29-.334-.543zm-3.672 8.977l-.563-.054-.417 1.068.542.127.438-1.14zM4.846 6.496l.25 1.14 1.106-.416-.229-1.158-1.126.434zM2.573 18.567l.459.163.167-1.068-.459-.253-.167 1.158zm13.161-3.638l2.482-.163.438.163-2.461.181-.459-.181zm-.854 5.267l1.627-.398v.724l-1.627.453v-.778zm1.376-1.864l2.044-.308.146.67-2.023.362-.167-.724zm-3.922 5.809l.313-.525-.313.778-.334.597.334-.851z"/><path d="M17.089 15.762l2.399-.217.355.434-2.378.253-.376-.47zm-.874-.652l2.461-.181.417.271-2.44.181-.438-.271z"/><path d="M8.164 4.957l.188 1.122 1.21.452-.188-1.122-1.21-.452zm8.49 10.425l2.42-.199.396.362-2.399.217-.417-.38zm-1.15 1.574l-.104.869.188 1.701.125-.814-.209-1.756zm-3.483-1.828l2.357-.072.438-.163-2.315.072-.48.163zm-2.94.688l2.107-.018.396-.38-2.086-.018-.417.416zm4.61 5.61l1.189-.434-.083.76-1.189.525.083-.851zm-.834 1.34l.73-.489-.188.778-.751.561.209-.851zM11.73 7.165l.167 1.104L12.919 9.5l-.146-1.086-1.043-1.249zm1.502 17.99l-.501-.217-.396.995.48.29.417-1.068zm1.441-1.43l-.542.199-.313 1.285.542-.127.313-1.357zm-2.276.869l-.063-.452-.334.851.021.525.376-.923zm-8.469-6.823l1.064.036.229-.832-1.043-.127-.25.923zM9.394 5.41l.188 1.122 1.189.742-.167-1.104-1.21-.76zM2.302 16.522l.167.507.334-1.176-.146-.579-.355 1.249zm13.725 1.104l2.065-.253.209.652-2.044.308-.229-.706zm-1.501-5.104l.042 1.032.563 1.665-.042-.995-.563-1.701z"/><path d="M10.603 6.151l.167 1.104 1.126.995-.167-1.104-1.126-.995zm2.128 18.787l-.334-.344-.355.923.292.434.396-1.014zm2.836-5.412l-.292.688v1.611l.292-.615v-1.683zm-8.614-3.185l1.773.018.355-.525-1.752-.072-.375.579z"/><path d="M14.777 19.381l1.627-.326.083.742-1.627.398-.083-.814zm.499 2.444l-.459.452-.167 1.466.438-.38.188-1.538zm-2.774-6.859l2.315-.054.459-.036-2.294.054-.48.036zm-7.281 2.008l1.418.036.313-.67-1.398-.09-.334.724zm-1.147-8.65l.209 1.122.98-.67-.188-1.14-1.001.688zm-.874 9.32l.73.127.25-.905-.709-.217-.271.995zm12.534-.67l2.086-.199.271.597-2.065.253-.292-.652zM9.498 15.4l2.086.018.438-.29-2.044-.036-.48.308zM2.47 17.028l.271.362.292-1.086-.25-.453-.313 1.176zM5.952 6.061l.229 1.158 1.168-.127-.188-1.158-1.21.127zM12.565 23.2l.292-.453-.209.851-.313.525.229-.923zM2.531 14.549l.125.706.501-1.122-.104-.778-.521 1.194z"/><path d="M12.983 14.911l2.294-.054.48.072-2.253.054-.521-.072zm.71 5.647l1.189-.362v.796l-1.189.434v-.869zM2.741 17.391l.459.253.271-.995-.438-.326-.292 1.068zm12.62-.996l2.107-.163.334.543-2.086.199-.355-.579z"/><path d="M12.96 21.843l.73-.416-.104.832-.73.489.104-.905zM3.429 10.35l.167 1.032.834-.869-.146-1.068-.855.905zm10.679 13.592l-.584.036-.292 1.194.563.054.313-1.285zm.501-5.357l1.648-.253.167.724-1.627.326-.188-.796z"/><path d="M13.503 14.984l2.253-.054.459.181-2.211.072-.501-.199zM2.908 12.468l.125.887.667-1.032-.104-.941-.688 1.086zm12.035 3.42l2.148-.127.375.471-2.107.163-.417-.507zm-7.593-.126l1.752.072.417-.416-1.71-.109-.459.452z"/><path d="M14.003 15.183l2.211-.072.459.29-2.169.09-.501-.308zM4.18 16.866l1.043.127.334-.742-1.001-.199-.375.814z"/><path d="M14.484 15.472l2.169-.09.417.38-2.148.127-.438-.416zm-4.506-.38l2.044.036.48-.163-2.002-.054-.521.181z"/><path d="M13.796 10.93l.063 1.068.73 1.556-.042-1.032-.751-1.593zm1.334 4.307l-.104.923.376 1.683.104-.869-.375-1.737zm-2.482 8.343l-.083-.362-.229.941.063.452.25-1.032zm-7.092-7.348l1.398.091.396-.579-1.356-.163-.438.651zm7.968 7.728l-.521-.127-.271 1.104.501.217.292-1.194z"/><path d="M13.004 23.834l-.355-.271-.25 1.032.334.344.271-1.104zm1.355-6.009l1.669-.199.23.706-1.648.253-.25-.76zm-.773 1.846l1.189-.29.083.814-1.189.362-.084-.887zM2.655 15.273l.146.579.459-1.05-.125-.652-.48 1.122zm12.184 7.004l-.563.29-.167 1.375.542-.199.188-1.466zM7.141 5.916l.188 1.158 1.189.163-.167-1.158-1.21-.163zm3.359 8.995l2.002.054.501-.054-1.961-.054-.542.054zm-7.007 1.738l.709.217.355-.814-.667-.29-.396.887zm9.196 5.538l.292-.362-.104.923-.292.452.104-1.014zM5.075 7.636l.188 1.14 1.064-.398L6.16 7.22l-1.085.416z"/><path d="M15.4 17.825l-.292.76.167 1.629.292-.688-.167-1.701zm-2.439 3.058l.73-.326v.869l-.73.416v-.959zm-5.174-5.592l1.71.109.48-.308-1.669-.145-.521.344zm7.509 4.923l-.459.525v1.52l.459-.453v-1.593zm-1.271-3.095l1.71-.127.313.651-1.669.199-.355-.724zM2.802 15.852l.25.452.438-.977-.209-.525-.48 1.05z"/><path d="M12.898 9.5l.083 1.086.876 1.412-.063-1.068-.897-1.43zm-9.844 6.805l.438.326.396-.887-.396-.416-.438.977zm7.966-1.448l1.961.054.501.072-1.919-.054-.542-.072zm-6.465 1.194l1.001.199.417-.633-.98-.253-.438.688zm1.439-.452l1.356.163.459-.471-1.314-.199-.501.507zm-2.94-2.244l.104.778.626-.959-.063-.851-.667 1.032zM13.4 18.802l1.21-.217.167.796-1.189.29-.188-.869zM8.371 6.079l.167 1.158 1.189.452-.146-1.158-1.21-.452z"/><path d="M13.629 16.468l1.752-.072.355.579-1.71.127-.396-.633zm-.857 6.008l-.083-.271-.104 1.014.083.362.104-1.104zm1.504.073l-.605.109-.146 1.285.584-.036.167-1.357zM4.304 9.445l.146 1.068.939-.633-.104-1.104-.98.67zm7.279 5.484l1.919.054.501.199-1.877-.036-.542-.217zm3.005-1.375l-.083.977.542 1.611.104-.923-.563-1.665zm-2.712-5.285l.104 1.122 1.001 1.213-.083-1.086-1.022-1.249zm-3.568 6.678l1.669.145.521-.181-1.627-.163-.563.199z"/><path d="M13.169 15.925l1.773-.036.417.507-1.752.072-.438-.543zm-9.552-4.543l.104.941.793-.833-.063-.995-.834.887zm8.511 3.764l1.877.036.48.308H12.67l-.542-.344z"/><path d="M12.67 15.472h1.815l.459.416-1.773.036-.501-.452zm-3.089-8.94l.146 1.158 1.168.724-.125-1.14-1.189-.742z"/><path d="M12.856 19.906l.73-.235.104.887-.73.326-.104-.977zM10.771 7.274l.125 1.14 1.085.977-.104-1.122-1.105-.995z"/><path d="M13.128 22.639l-.355-.163-.125 1.104.355.271.125-1.213zm-.458-1.502l.292-.253v.959l-.292.362v-1.068z"/><path d="M13.669 22.675l-.542-.036-.125 1.195.521.127.146-1.285zm-.561-4.705l1.231-.127.25.76-1.21.217-.271-.851zm-9.22-2.226l.667.308.459-.706-.626-.362-.501.76zm2.295-8.525l.167 1.158 1.126-.127-.125-1.158-1.168.127zm-3.047 6.932l.125.652.584-.905-.083-.724-.626.977zm3.336.941l1.314.199.521-.344-1.272-.235-.563.38zm8.365 5.647l-.563.38v1.448l.563-.29v-1.538zm-5.966-5.991l1.627.163.542-.054-1.564-.163-.605.054z"/><path d="M5.014 15.345l.98.253.501-.507-.918-.308-.563.561zm10.012.815l-.271.814.355 1.611.292-.76-.376-1.665zm-11.555-.814l.396.416.501-.76-.355-.47-.542.814zm-.21-.543l.209.525.542-.833-.167-.597-.584.905z"/><path d="M15.11 18.585l-.438.615.167 1.556.459-.525-.188-1.647zm-2.359-1.411l1.272-.072.334.706-1.231.127-.375-.76zm-.103 1.773l.751-.145.188.869-.73.235-.209-.959zm.106 2.371l-.084-.181v1.05l.084.271v-1.14z"/><path d="M13.858 11.997l-.062 1.013.709 1.52.083-.977-.73-1.556zm-4.403 2.697l1.564.163.542.072-1.523-.145-.584-.09zM3.72 12.341l.063.851.751-.778-.021-.887-.793.814zm8.843 7.728l.292-.163.104.977-.292.253-.104-1.068zm-7.3-11.293l.104 1.104L6.39 9.5l-.063-1.122-1.064.398zm7.051 7.71h1.314l.396.633-1.272.072-.438-.706zm-5.279-1.774l1.272.235.563-.199-1.21-.253-.626.217zm7.241 6.407l-.605.217v1.339l.605-.109v-1.448z"/><path d="M7.35 7.075l.125 1.158 1.168.163-.083-1.158-1.21-.163zm2.711 7.709l1.523.145.542.217-1.46-.127-.605-.235zm-5.674.199l.626.362.542-.561-.584-.416-.584.615zm8.74 6.407l-.375-.072v1.14l.355.163.021-1.231z"/><path d="M4.43 10.513l.063.995.897-.597-.021-1.032-.939.633zm7.363 5.358l1.356.054.459.543h-1.314l-.501-.597zm-1.127-.851l1.46.127.542.326-1.418-.09-.584-.362zm3.003 6.316l-.542.054v1.249l.542.036v-1.339z"/><path d="M5.556 14.784l.918.308.563-.38-.876-.344-.605.416zm5.696.598l1.418.09.501.453-1.356-.054-.563-.489zm1.083 2.642l.793-.072.292.833-.751.145-.334-.905zm.648-7.42l-.042 1.068.855 1.357.063-1.014-.876-1.412zm-9.22 2.57l.083.724.688-.724-.021-.778-.751.778zm10.722 1.357l-.25.887.521 1.556.271-.814-.542-1.629zm-6.822-.036l1.21.253.584-.054-1.147-.271-.647.072zm-3.65.018l.355.47.605-.615-.313-.525-.647.67z"/><path d="M14.672 19.201l-.563.452.167 1.466.563-.38-.167-1.538zM8.539 7.238l.083 1.158 1.168.434-.063-1.158-1.189-.434zm4.086 12.922l-.062-.072.125 1.068.083.181-.146-1.176zm-.311-1.14l.313-.072.209.959-.292.163-.229-1.05zm-8.469-5.122l.167.597.647-.67-.125-.652-.688.724zm10.909 3.076l-.438.688.334 1.538.438-.615-.334-1.611zm-2.836.2l.814.018.375.778-.793.072-.396-.869zm.063-7.783l-.021 1.104.96 1.176.042-1.068-.98-1.213zM6.347 8.378L6.41 9.5l1.085-.127-.021-1.122-1.126.127zm3.382-.688l.063 1.158 1.126.706-.021-1.122-1.168-.742zm-1.421 6.751l1.147.271.605.091-1.085-.253-.667-.109zm-2.125-.073l.876.344.605-.217-.813-.362-.667.235z"/><path d="M4.972 14.368l.584.416.626-.416-.521-.453-.688.453zm5.923-5.954l.021 1.122 1.064.959.021-1.104-1.106-.977zm-6.404 3.095l.021.887.834-.561.042-.923-.897.597zm8.49 8.614l-.355.036.125 1.158.375.072-.146-1.267z"/><path d="M14.109 19.653l-.584.308.146 1.375.605-.217-.167-1.466zm-2.672-3.258l.876.091.438.706-.813-.018-.501-.778zM5.368 9.88l.021 1.032.98-.362.042-1.05-1.043.38zm3.609 4.651l1.085.253.605.235-1.022-.235-.667-.253z"/><path d="M13.523 19.961l-.521.163.146 1.267.542-.054-.167-1.375zm-1.541-1.955l.355.018.313.923-.313.072-.355-1.014zm1.813-4.977l-.229.941.667 1.448.25-.887-.688-1.502zm-2.921 2.697l.918.145.501.615-.876-.091-.542-.67z"/><path d="M9.645 14.784l1.022.235.584.362-.98-.199-.626-.398zm2.732 4.217l-.042.018.229 1.05.063.072-.25-1.14z"/><path d="M10.271 15.183l.98.199.542.489-.918-.145-.605-.543zm-5.613-1.34l.313.525.667-.453-.25-.579-.73.507zm2.192.29l.814.362.647-.072-.751-.38-.709.09zm-2.337-1.737l.021.778.793-.525.021-.814-.834.561z"/><path d="M7.474 8.251l.021 1.122 1.106.145.021-1.122-1.147-.145zm6.864 9.411l-.542.543.313 1.448.563-.452-.334-1.538zm-9.783-4.488l.125.652.73-.489-.063-.688-.793.525zm1.105.742l.521.452.667-.235-.459-.471-.73.253z"/><path d="M14.231 15.418l-.396.76.501 1.484.438-.688-.542-1.556zm-2.709 1.647l.396.109.396.869-.355-.018-.438-.959zm1.189 1.81l-.334.127.25 1.158.355-.036-.271-1.249zm.228-7.221l-.188.995.813 1.303.229-.941-.855-1.357z"/><path d="M7.558 14.061l.751.38.667.091-.688-.362-.73-.109zm-2.17-3.149l-.042.923.918-.344.083-.959-.96.38zM6.411 9.5l-.042 1.05 1.043-.109.083-1.05L6.41 9.5zm5.592 8.398l-.021.109.355 1.014.042-.018-.376-1.104zm1.793.307l-.584.398.292 1.357.584-.308-.292-1.448zM8.621 8.396L8.6 9.518l1.106.416.063-1.104-1.147-.434z"/><path d="M11.001 16.214l.438.181.48.778-.396-.109-.522-.851zm2.209 2.389l-.501.253.271 1.249.521-.163-.292-1.339zm-7.822-5.248l.25.579.73-.271-.188-.597-.793.29zm2.901.814l.688.362.667.253-.626-.344-.73-.271z"/><path d="M6.391 13.644l.459.47.709-.072-.396-.489-.772.091zm5.591-3.149l-.146 1.05.939 1.122.188-.995-.98-1.176zm-1.587 4.977l.501.253.563.67-.438-.181-.626-.742zM9.791 8.83l-.063 1.104 1.085.67.104-1.086-1.126-.688zm-.771 5.611l.626.344.647.398-.563-.308-.709-.434zm-3.653-2.607l-.021.814.855-.326.083-.832-.918.344z"/><path d="M13.566 13.97l-.376.832.647 1.376.396-.76-.668-1.448zm-3.837.905l.563.308.605.543-.501-.253-.667-.597z"/><path d="M10.917 9.536l-.104 1.086 1.022.905.146-1.05-1.064-.941zm2.919 6.642l-.521.633.48 1.394.542-.543-.501-1.484zm-8.512-3.529l.063.688.793-.289v-.724l-.855.326zm6.177 4.217l.021.199.438.941.021-.109-.48-1.032zm.792.796l-.292.235.375 1.104.334-.127-.417-1.213zM7.497 9.373l-.083 1.05 1.064.145.146-1.05-1.126-.145zm-.334 4.199l.396.489.73.109-.334-.471-.793-.127zm-.793-3.023l-.083.959.98-.109.146-.959-1.043.109z"/><path d="M13.315 16.812l-.542.489.438 1.303.584-.398-.48-1.393zm-7.113-3.765l.188.597.772-.072-.125-.597-.834.072z"/><path d="M12.772 17.3l-.48.362.417 1.213.501-.253-.438-1.321zm-1.855-1.375l.083.29.542.851-.021-.199-.605-.941zm1.835-3.276l-.334.905.772 1.249.375-.832-.813-1.321zm-4.797 1.032l.334.47.73.271-.25-.452-.813-.29z"/><path d="M6.286 11.491l-.083.832.918-.09.146-.851-.98.109zm5.487 5.049l-.25.326.48 1.032.292-.235-.521-1.122zm-5.571-4.199v.724l.834-.091.063-.724-.897.091zm6.987 2.461l-.48.706.605 1.303.521-.633-.647-1.375zM8.6 9.518l-.146 1.05 1.064.398.188-1.032L8.6 9.518zm1.65 5.61l.125.362.605.742-.083-.29-.647-.814zm-1.504-1.14l.25.452.709.434-.188-.416-.772-.471z"/><path d="M9.519 14.477l.188.416.667.597-.125-.362-.73-.651zm2.296-2.95l-.292.959.876 1.068.334-.905-.918-1.122zm-4.78 1.448l.125.597.793.109-.042-.597-.876-.108zm.378-2.552l-.146.959 1.001.145.209-.959-1.064-.145zm2.294-.489l-.188 1.032 1.022.652.25-.995-1.085-.688zm2.503 6.154l-.438.452.522 1.122.48-.362-.563-1.213z"/><path d="M10.792 10.622l-.25.995.98.869.292-.959-1.022-.905zm1.918 4.886l-.501.579.563 1.213.542-.489-.605-1.303z"/><path d="M11.125 15.527l-.209.398.584.923.25-.326-.626-.995zm1.295-1.973l-.438.778.73 1.176.48-.706-.772-1.249zm-5.322-1.321l-.063.724.876.127.125-.724-.939-.127z"/><path d="M7.912 13.083l.042.597.793.308.021-.579-.855-.326zm-.667-1.701l-.146.851.939.127.209-.833-1.001-.145z"/><path d="M10.417 14.658l-.146.471.668.796.209-.398-.73-.869zm-1.962-4.09l-.209.959 1.001.38.271-.923-1.064-.416z"/><path d="M8.767 13.409l-.021.579.772.489.083-.525-.834-.543zm2.755 1.593l-.396.525.626 1.013.438-.453-.667-1.086z"/><path d="M9.624 13.934l-.083.525.73.652.146-.471-.793-.706zm2.357.416l-.459.652.688 1.086.501-.579-.73-1.158z"/><path d="M11.52 12.486l-.376.851.834 1.013.438-.778-.897-1.086zm-3.483-.108l-.125.724.855.326.209-.688-.939-.362zm1.482-1.412l-.271.923.98.615.334-.887-1.043-.652zm-1.274.561l-.209.833.939.362.271-.815-1.001-.38z"/><path d="M10.562 11.617l-.334.887.918.814.376-.851-.96-.851zm.167 2.444l-.334.597.73.869.396-.525-.793-.941z"/><path d="M11.145 13.337l-.396.724.772.941.459-.652-.834-1.014zm-2.17-.616l-.209.688.834.525.271-.652-.897-.561z"/><path d="M9.873 13.282l-.271.652.793.706.334-.597-.855-.76zm-.625-1.375l-.271.814.918.561.355-.778-1.001-.597z"/><path d="M10.227 12.504l-.355.778.855.76.396-.724-.897-.814zm39.696 9.773c-1.064-.887-1.585-2.099-1.585-3.656v-7.837c0-1.556.521-2.769 1.585-3.656s2.503-1.321 4.318-1.321c1.794 0 3.212.452 4.276 1.339s1.585 2.117 1.585 3.638h-2.461c0-.977-.292-1.737-.897-2.28-.584-.543-1.418-.814-2.503-.814s-1.919.271-2.524.814-.918 1.285-.918 2.262v7.855c0 .977.292 1.737.897 2.28s1.46.814 2.545.814 1.919-.271 2.503-.814.897-1.303.897-2.28h2.461c0 1.538-.521 2.751-1.585 3.638s-2.482 1.339-4.276 1.339c-1.815.018-3.254-.434-4.318-1.321zm16.458-.018c-1.043-.905-1.564-2.117-1.564-3.638v-8.307h2.461v8.307c0 .977.292 1.737.855 2.298.584.543 1.377.814 2.399.814 1.043 0 1.857-.271 2.441-.814s.876-1.303.876-2.298v-8.307h2.461v8.307c0 1.52-.521 2.733-1.564 3.638s-2.44 1.357-4.193 1.357-3.129-.452-4.172-1.357zm25.594-10.895c.939.869 1.418 2.027 1.418 3.493v.778h-2.482v-.597c0-1.014-.292-1.792-.855-2.353-.584-.561-1.398-.833-2.44-.833s-1.856.29-2.44.851-.897 1.339-.897 2.335v8.307h-2.461V10.278h2.399v2.335c.501-1.701 1.815-2.57 3.963-2.57 1.585.036 2.858.471 3.796 1.321zm9.762 12.017l-4.902-13.067h2.524l3.191 8.778.897 2.642.897-2.642 3.129-8.778h2.482l-4.902 13.067h-3.316zm23.883-6.009h-9.199v1.267c0 1.05.292 1.828.856 2.371.584.543 1.418.814 2.524.814 1.919 0 3.003-.579 3.274-1.756h2.462c-.167 1.086-.772 1.955-1.815 2.606s-2.357.959-3.942.959c-1.773 0-3.171-.452-4.235-1.357-1.043-.905-1.564-2.117-1.564-3.638v-3.565c0-1.52.521-2.733 1.564-3.638s2.462-1.357 4.235-1.357 3.17.452 4.234 1.357c1.043.905 1.565 2.117 1.565 3.638v2.298h.041zm-9.199-1.629h6.78v-.688c0-1.05-.292-1.846-.856-2.389-.584-.543-1.418-.814-2.524-.814s-1.96.271-2.523.814c-.585.543-.856 1.339-.856 2.389v.688h-.021z"/></g><defs><clipPath id="A"><path fill="#000" transform="translate(.023 .909)" d="M0 0h126v29H0z"/></clipPath></defs></svg>
