<svg xmlns="http://www.w3.org/2000/svg" width="180" height="40" fill="#000"><path d="M33.251 0l-1.039 2.13L21.166 22.6l-5.258 9.819a1.68 1.68 0 0 1-.894.821L.468 39.662a.77.77 0 0 1-.468.135l1.486-2.774 8.926-16.625 7.128-13.29a.81.81 0 0 1 .395-.374L33.147 0h.104zm5.538 14.817l-.166.312-8.146 15.399-4.769 9.061c-.177.333-.26.364-.54.093l-7.273-7.045a.45.45 0 0 1-.181-.302c-.008-.059-.005-.121.01-.18a.46.46 0 0 1 .078-.162l7.367-13.685 5.57-10.391c.436-.644.436-.644.956-.145l6.848 6.775.249.27zm87.064 5.736a5.79 5.79 0 0 0-.55 1.226l-4.157 10.391c-.037.165-.137.309-.278.402a.65.65 0 0 1-.48.096 12.81 12.81 0 0 0-1.548 0c-.16.031-.325-.002-.461-.091s-.232-.228-.267-.387l-4.156-10.39-.53-1.288c-.062.086-.105.184-.126.288a.77.77 0 0 0 .001.314v11.139c0 .447-.135.551-.561.53h-2.868c-.301 0-.446-.052-.436-.405V14.474c0-.343.104-.426.426-.426h4.094a.48.48 0 0 1 .519.353l4.791 11.575c0 .083.062.187.104.26s.062.353.27.353.197-.208.249-.343l3.595-8.728 1.289-3.117c.027-.112.093-.21.187-.277s.208-.098.322-.087h4.094c.364 0 .447.125.447.457v17.862c0 .364-.115.457-.457.447h-2.92c-.395 0-.499-.104-.499-.499v-11.18a.78.78 0 0 0-.094-.572zM55.258 23.4v-8.843c0-.395.062-.54.509-.53h6.629c1.945-.034 3.847.572 5.414 1.725a8.12 8.12 0 0 1 2.15 2.518 8.14 8.14 0 0 1 .967 3.166 11.76 11.76 0 0 1-.717 6.411c-.53 1.249-1.374 2.34-2.45 3.167s-2.348 1.361-3.691 1.551a22.85 22.85 0 0 1-4.219.187h-4.156c-.364 0-.468-.094-.468-.468l.031-8.884zm3.948 0v5.549c0 .353.104.457.457.447h2.868a4.37 4.37 0 0 0 2.731-.96 4.36 4.36 0 0 0 1.529-2.458 10.39 10.39 0 0 0 .083-4.936 4.28 4.28 0 0 0-3.772-3.543c-1.14-.105-2.285-.144-3.429-.114-.374 0-.478.104-.478.478l.031 5.538h-.021zm44.889.031c.139 2.273-.523 4.523-1.87 6.359a8.76 8.76 0 0 1-15.586-4.613 11.75 11.75 0 0 1 .883-6.619 8.51 8.51 0 0 1 8.562-4.749c4.852.426 7.658 4.073 7.959 8.396.073.405.052.821.052 1.226zm-13.508 0a11.01 11.01 0 0 0 .177 1.901 9.34 9.34 0 0 0 .301 1.091 4.39 4.39 0 0 0 1.631 2.285 4.4 4.4 0 0 0 2.681.832 4.3 4.3 0 0 0 4.271-3.055c.753-2.035.753-4.272 0-6.307a4.22 4.22 0 0 0-4.052-2.889 4.29 4.29 0 0 0-4.312 2.504c-.511 1.154-.756 2.407-.717 3.668l.021-.031zm-4.925 9.362h-1.694c-.057.009-.114.007-.17-.007a.45.45 0 0 1-.155-.072.43.43 0 0 1-.115-.125c-.03-.049-.05-.103-.059-.16l-1.143-3.574a.45.45 0 0 0-.176-.282c-.092-.068-.208-.097-.322-.082h-5.975a.46.46 0 0 0-.509.364l-1.122 3.533a.48.48 0 0 1-.064.181c-.033.056-.078.104-.13.142a.47.47 0 0 1-.175.079.48.48 0 0 1-.192.003h-3.335c-.384 0-.488-.062-.353-.468l6.234-17.872a.52.52 0 0 1 .592-.426h4.281a.48.48 0 0 1 .53.384l6.162 17.883c.166.488.166.488-.385.499h-1.725zm-6.816-7.367h2.078c.249 0 .333 0 .249-.322L78.97 18.6c0-.093 0-.249-.187-.229s-.104.145-.125.229l-2.141 6.505c-.094.26 0 .332.229.322h2.099zm79.261-6.722l-2.712 3.117-2.297 2.67a.35.35 0 0 0-.088.117c-.021.045-.031.094-.031.143a.35.35 0 0 0 .119.26l5.04 7.274c.072.093.208.197.156.312s-.25.083-.385.083h-3.668a.66.66 0 0 1-.644-.343l-3.336-4.946c-.207-.301-.29-.322-.571 0a2.3 2.3 0 0 0-.652.94c-.135.363-.174.755-.117 1.138.062.966 0 1.943 0 2.92 0 .301-.093.405-.405.405h-3.117c-.343 0-.416-.135-.416-.447V14.443c0-.322.093-.436.426-.436h3.055c.374 0 .447.135.447.468v8.884.322c0 .104-.052.281.114.322s.218-.093.291-.187l3.003-3.554a9.64 9.64 0 0 0 .841-1.039 1.26 1.26 0 0 1 .547-.479 1.25 1.25 0 0 1 .721-.093l3.679.052zM39.215 28.575l-5.59.197c-.312 0-.436 0-.239-.353l6.723-12.531c.017-.054.046-.104.085-.145s.087-.073.14-.093.11-.028.166-.023a.37.37 0 0 1 .16.053l9.269 3.377c.301.104.333.208.177.488l-4.614 8.51a.59.59 0 0 1-.237.262c-.104.061-.224.089-.345.08l-5.694.177zm100.573 2.327a7.27 7.27 0 0 1-1.528 1.465 5.56 5.56 0 0 1-6.338-.655 3.12 3.12 0 0 1-.894-1.579c-.519-2.754.426-4.468 3.117-5.195a36.8 36.8 0 0 1 3.668-.561c.219 0 .437-.062.655-.114.436-.094.914-.177 1.039-.675a1.55 1.55 0 0 0 .024-.84c-.07-.277-.215-.529-.419-.729-.311-.267-.684-.454-1.084-.542a2.51 2.51 0 0 0-1.212.033 2.07 2.07 0 0 0-1.735 1.227c-.027.088-.086.162-.165.208a.36.36 0 0 1-.261.041l-3.003-.239c-.374 0-.239-.249-.187-.426a4.58 4.58 0 0 1 .944-1.805 4.59 4.59 0 0 1 1.633-1.219c1.149-.556 2.416-.828 3.693-.792a7.95 7.95 0 0 1 3.642 1 3.69 3.69 0 0 1 2.079 3.356v9.58c0 .27-.104.353-.364.353h-2.961c-.323 0-.406-.114-.395-.416.072-.488.052-.987.052-1.476zm-.208-3.533v-.707c0-.239-.052-.332-.322-.229a8.23 8.23 0 0 1-1.039.239 13.1 13.1 0 0 0-2.608.561 1.55 1.55 0 0 0-.803.629c-.188.294-.272.644-.237.992a1.6 1.6 0 0 0 .406.924 1.58 1.58 0 0 0 .883.489c1.849.426 3.948-.603 3.72-2.899zm26.133-.613h-4.323c-.395 0-.468.125-.436.488a3.18 3.18 0 0 0 .536 1.55 3.2 3.2 0 0 0 1.235 1.079c.498.246 1.054.357 1.609.322a3.19 3.19 0 0 0 1.555-.519 1.99 1.99 0 0 0 .78-.852c.041-.101.117-.185.214-.236s.208-.067.315-.044l2.858.187c.301 0 .374.104.291.405a4.97 4.97 0 0 1-1.127 2.031 4.95 4.95 0 0 1-1.928 1.294c-1.818.748-3.841.832-5.715.239a5.77 5.77 0 0 1-3.969-3.699c-.429-1.091-.63-2.259-.593-3.431a8.65 8.65 0 0 1 .811-3.386 6.07 6.07 0 0 1 5.476-3.606 6.45 6.45 0 0 1 2.984.33c.956.343 1.816.907 2.513 1.645.907 1.028 1.471 2.314 1.61 3.678a17.81 17.81 0 0 1 .104 2.078c0 .343-.114.426-.436.416l-4.364.031zm-1.85-2.442h2.494c.447 0 .488-.156.426-.519-.104-.681-.455-1.299-.986-1.738a2.8 2.8 0 0 0-1.892-.641 2.93 2.93 0 0 0-1.954.703c-.544.465-.899 1.113-.997 1.822-.052.301 0 .374.322.374h2.587zm11.523-3.179l.188-.457a3.49 3.49 0 0 1 4.156-2.078c.239 0 .27.208.27.416v2.67c0 .374-.145.426-.457.353-.63-.135-1.282-.135-1.912 0-.664.127-1.258.492-1.673 1.025a2.78 2.78 0 0 0-.582 1.874v7.377c0 .416-.104.53-.53.52h-2.961c-.312 0-.437-.083-.437-.426v-13.29c0-.322.125-.395.416-.395h3.013c.281 0 .374.093.374.374v2.078l.135-.042z"/></svg>
