<svg xmlns="http://www.w3.org/2000/svg" width="90" height="59" fill="#000"><path d="M16.623 0C7.442 0 0 7.442 0 16.623v41.676h8.786V33.602h21.016v-8.668H8.786V16.86c0-4.459 3.615-8.074 8.074-8.074h6.649V0h-6.887zM90 16.623C90 7.442 82.558 0 73.377 0H59.486c2.85 2.85 4.749 7.045 5.343 8.786h8.667c4.262 0 7.718 3.574 7.718 7.836H90zM73.377 58.179c9.18 0 16.623-7.442 16.623-16.623V24.934H64.591v8.549h16.623v8.43a7.72 7.72 0 0 1-7.718 7.718h-8.667c-.594 1.544-2.493 5.414-5.343 8.549h13.892zm-30.87 0c9.18 0 16.623-7.442 16.623-16.623a16.58 16.58 0 0 0-5.627-12.467 16.58 16.58 0 0 0 5.627-12.467C59.129 7.442 51.687 0 42.507 0H32.058v8.786h10.211c4.459 0 8.074 3.615 8.074 8.074s-3.615 8.074-8.074 8.074h-3.918v8.549h3.918c4.459 0 8.074 3.615 8.074 8.074s-3.615 8.074-8.074 8.074H17.335v8.549h25.172z"/></svg>
