<svg xmlns="http://www.w3.org/2000/svg" width="220" height="38" fill="#000"><path d="M126.021 20.43v7.181c-1.956 1.493-4.857 2.542-7.506 2.542-5.708 0-10.155-4.321-10.155-9.881s4.51-9.818 10.376-9.818c2.775 0 5.519 1.049 7.442 2.733l-1.86 2.415c-1.483-1.398-3.564-2.224-5.582-2.224-3.942 0-7.033 3.018-7.033 6.895 0 3.908 3.122 6.926 7.064 6.926 1.451 0 3.059-.508 4.447-1.334V20.43h2.807zm19.426 9.564l-10.312-13.98v13.98h-3.249V10.517h3.217l10.376 14.012V10.517h3.216v19.477h-3.248zm28.446-9.755c0 5.56-4.478 9.881-10.249 9.881s-10.25-4.321-10.25-9.881c0-5.592 4.479-9.818 10.25-9.818 5.803 0 10.249 4.258 10.249 9.818zm-17.187 0c0 3.876 3.185 6.927 6.969 6.927s6.875-3.05 6.875-6.927-3.09-6.863-6.875-6.863c-3.816 0-6.969 3.018-6.969 6.863zm35.069-7.879l-1.356 2.891c-2.113-1.271-4.195-1.811-5.677-1.811-1.892 0-3.154.731-3.154 2.033 0 4.258 10.439 1.97 10.407 8.992 0 3.495-3.027 5.624-7.285 5.624a11.93 11.93 0 0 1-7.915-3.082l1.419-2.828c1.987 1.843 4.478 2.828 6.559 2.828 2.271 0 3.627-.858 3.627-2.351 0-4.353-10.438-1.906-10.438-8.865 0-3.336 2.838-5.433 7.032-5.433 2.523 0 4.983.826 6.781 2.002zm5.298 17.634V10.517h3.248v19.477h-3.248zm22.706-17.634l-1.356 2.891c-2.113-1.271-4.194-1.811-5.677-1.811-1.892 0-3.153.731-3.153 2.033 0 4.258 10.438 1.97 10.407 8.992 0 3.495-3.028 5.624-7.285 5.624-3.028 0-5.897-1.239-7.916-3.082l1.419-2.828c1.987 1.843 4.479 2.828 6.56 2.828 2.271 0 3.627-.858 3.627-2.351 0-4.353-10.439-1.906-10.439-8.865 0-3.336 2.838-5.433 7.033-5.433a12.73 12.73 0 0 1 6.78 2.002zM63.294 9.5l-1.388 1.398c1.104 1.748 1.451 3.94.694 6.037-1.261 3.559-5.172 5.433-8.736 4.162-.505-.191-.978-.413-1.388-.699l-4.447 4.48-3.879-3.94c-1.798 1.207-4.1 1.557-6.276.794-3.658-1.335-5.55-5.37-4.226-9.024.189-.572.473-1.08.788-1.557l-1.672-1.684-.315.54a18.45 18.45 0 0 0-2.681 9.564C29.739 29.708 37.939 38 47.999 38h.032c10.06 0 18.228-8.229 18.26-18.365 0-3.368-.915-6.672-2.649-9.564l-.347-.572zm-26.806 3.718c-.473.635-.757 1.43-.757 2.288 0 2.065 1.672 3.749 3.721 3.749.852 0 1.64-.286 2.271-.794l-5.235-5.242zm18.26 4.924c.599.413 1.293.636 2.081.636 2.05 0 3.721-1.684 3.721-3.749 0-.763-.221-1.493-.631-2.097l-5.172 5.211zm-6.654 3.94L33.019 6.831l.599-.635A19.39 19.39 0 0 1 47.873 0h.032c5.519 0 10.817 2.383 14.507 6.513l.568.635-14.885 14.933zM35.479 6.831l12.615 12.741L60.55 7.085c-3.343-3.368-7.884-5.306-12.615-5.306h-.032c-4.699 0-9.083 1.779-12.425 5.052zm-4.005 25.07l-1.766-.127c-7.506-.477-17.85-2.351-24.536-8.42C1.041 19.637.252 16.11.221 15.951L0 14.871h27.311l-.158 1.017a20.86 20.86 0 0 0-.189 2.796c0 4.194 1.198 8.261 3.501 11.724l1.009 1.493zm33.05-.001l.978-1.493c2.302-3.463 3.501-7.498 3.501-11.661a21.43 21.43 0 0 0-.189-2.859l-.126-1.017h27.311l-.221 1.08c-.032.159-.82 3.686-4.92 7.403-6.686 6.069-17.061 7.943-24.567 8.42l-1.766.127z"/></svg>
