<svg xmlns="http://www.w3.org/2000/svg" width="120" height="56" fill="none"><path d="M95.775 8.953v18.812h1.818V10.798h9.386v16.968h1.817V10.798h9.386v16.968H120V8.953H95.775h0zm-57.802-.704c-2.644 0-5.156 1.04-7.039 2.951s-2.908 4.426-2.908 7.143a10.12 10.12 0 0 0 2.908 7.142 9.77 9.77 0 0 0 7.039 2.951c2.644 0 5.156-1.04 7.039-2.951s2.908-4.426 2.908-7.142a10.12 10.12 0 0 0-2.908-7.143c-1.917-1.878-4.395-2.951-7.039-2.951h0zm5.751 15.962c-1.52 1.576-3.569 2.414-5.751 2.414a8.04 8.04 0 0 1-5.751-2.414c-1.52-1.576-2.379-3.622-2.379-5.835a8.28 8.28 0 0 1 2.379-5.835c1.52-1.576 3.569-2.414 5.751-2.414a8.04 8.04 0 0 1 5.751 2.414c1.52 1.576 2.38 3.622 2.38 5.835 0 2.18-.859 4.259-2.379 5.835zm41.013-12.977a9.77 9.77 0 0 0-7.039-2.951c-2.644 0-5.156 1.04-7.039 2.951s-2.908 4.426-2.908 7.143a10.12 10.12 0 0 0 2.908 7.143 9.77 9.77 0 0 0 7.039 2.951 9.77 9.77 0 0 0 7.039-2.951l-1.289-1.308c-1.52 1.576-3.569 2.414-5.751 2.414a8.04 8.04 0 0 1-5.75-2.414c-1.52-1.576-2.38-3.622-2.38-5.835h18.078c0-2.716-1.025-5.265-2.908-7.143h0zM71.98 12.508c1.52-1.576 3.569-2.414 5.75-2.414a8.04 8.04 0 0 1 5.751 2.414c1.091 1.107 1.851 2.515 2.181 3.99H69.799c.33-1.475 1.057-2.85 2.181-3.99zm-49.904-7.78l-5.784 5.868c-1.785-1.509-3.999-2.347-6.345-2.347-2.644 0-5.156 1.04-7.039 2.951A10.12 10.12 0 0 0 0 18.343a10.12 10.12 0 0 0 2.908 7.142c1.652 1.677 3.801 2.716 6.114 2.917v7.444a9.6 9.6 0 0 0-6.114 2.917A10.12 10.12 0 0 0 0 45.907a10.12 10.12 0 0 0 2.908 7.143A9.77 9.77 0 0 0 9.948 56c2.644 0 5.156-1.039 7.039-2.951s2.908-4.426 2.908-7.143-1.024-5.231-2.908-7.142c-1.653-1.677-3.801-2.716-6.114-2.917v-7.444a9.6 9.6 0 0 0 6.114-2.917c1.884-1.911 2.908-4.426 2.908-7.142 0-2.381-.826-4.661-2.313-6.472l5.784-5.868-1.289-1.274h0zm-6.378 35.344c1.52 1.576 2.38 3.621 2.38 5.835a8.28 8.28 0 0 1-2.379 5.835c-1.52 1.576-3.569 2.414-5.751 2.414a8.04 8.04 0 0 1-5.75-2.414c-1.52-1.576-2.38-3.622-2.38-5.835a8.28 8.28 0 0 1 2.38-5.835c1.52-1.576 3.569-2.414 5.75-2.414s4.23.838 5.751 2.414zm2.38-21.696a8.28 8.28 0 0 1-2.379 5.835c-1.52 1.576-3.569 2.414-5.751 2.414a8.04 8.04 0 0 1-5.75-2.414c-1.52-1.576-2.38-3.622-2.38-5.835a8.28 8.28 0 0 1 2.38-5.835c1.52-1.576 3.569-2.414 5.75-2.414a8.04 8.04 0 0 1 5.751 2.414c1.553 1.543 2.38 3.622 2.38 5.835h0zm38.865 9.154h1.818V0h-1.818v27.531z" fill="#000"/></svg>
