<svg xmlns="http://www.w3.org/2000/svg" width="167" height="67" fill="none"><path d="M55.441 26.109c.726 9.829-5.593 14.475-11.257 14.971-5.266.46-10.223-2.775-10.658-7.747-.359-4.107 2.18-5.856 4.174-6.03 2.051-.18 3.775 1.235 3.925 2.948.144 1.647-.883 2.396-1.598 2.459-.565.05-1.276-.294-1.34-1.03-.055-.633.185-.719.127-1.392-.105-1.197-1.149-1.337-1.72-1.287-.692.061-1.947.868-1.771 2.879.177 2.028 2.122 3.631 4.672 3.408 2.751-.24 4.667-2.383 4.811-5.387a1.09 1.09 0 0 1 .098-.461l.001-.004c.03-.063.064-.123.104-.181.059-.088.134-.185.231-.292a4.72 4.72 0 0 1 .255-.261c1.202-1.134 5.53-3.808 9.624-2.962a.41.41 0 0 1 .323.37z" fill="url(#A)"/><path d="M65.98 30.321h-1.872c-.036 0-.065.029-.065.065v9.346c0 .036.029.065.065.065h1.872c.036 0 .065-.029.065-.065v-9.346c0-.036-.029-.065-.065-.065zm26.643-3.346v1.473c-.001.017-.008.033-.02.044s-.028.018-.045.018h-3.794c-.017 0-.033.006-.045.018s-.019.028-.02.045v11.165c0 .008-.002.017-.006.025s-.008.015-.014.02-.013.01-.021.013-.016.004-.025.004h-1.956c-.017 0-.033-.006-.045-.017s-.019-.027-.02-.044V28.573c-.001-.017-.008-.033-.02-.045s-.029-.018-.045-.018H82.41c-.017 0-.033-.007-.045-.018s-.019-.027-.02-.044v-1.473c.001-.017.008-.033.02-.044s.028-.018.045-.018h10.142c.018-.001.037.005.05.017.007.006.012.013.015.021s.006.017.006.025zm-9.691 6.78l.02.004v5.98c-.001.017-.007.033-.019.044s-.028.018-.045.018h-1.827c-.008 0-.017-.001-.025-.004s-.015-.008-.021-.013-.011-.013-.014-.02-.005-.016-.006-.025v-4.586l.004-.582-.004-.291a6.34 6.34 0 0 0-.055-.833c-.138-.996-.544-1.719-1.989-1.7a2.7 2.7 0 0 0-1.195.323c-.428.249-.904.596-1.171 1.08a7.45 7.45 0 0 1 .065.962v.01l.004.156v5.593c-.001.017-.008.033-.02.045s-.028.018-.045.018h-1.782c-.017 0-.033-.006-.045-.018s-.019-.028-.02-.045v-4.723c0-1.041.055-2.126-.46-2.797-.312-.403-.755-.592-1.62-.592-.353 0-.814.125-1.167.294-.242.113-.468.255-.671.424-.291.257-.503.588-.503.965v6.301c-.001.017-.007.032-.019.044s-.028.018-.045.018h-1.819c-.017 0-.033-.007-.045-.018s-.019-.027-.019-.044v-9.295c.001-.017.007-.032.019-.044s.028-.018.045-.018h.766c.31 0 .582.195.67.479l.116.376c0 .026.017.048.04.057s.052.004.071-.013c.81-.764 1.97-1.128 3.094-1.128 1.167 0 1.922.351 2.413.9l-.051-.066a3.15 3.15 0 0 1 .391.551c.005.01.013.018.022.024s.019.01.03.011.022 0 .032-.005.019-.011.026-.019c.739-.886 2.196-1.395 3.37-1.395 2.673 0 3.514 1.818 3.514 3.596l-.007.004h.001zm29.882 6.062h-1.985c-.01 0-.02-.002-.029-.007s-.017-.011-.023-.019l-1.551-2.255-.045-.055c-.408-.506-1.248-1.572-2.4-1.773-.01-.002-.021-.001-.03.002s-.019.009-.027.016l-.848.875c-.006.006-.011.012-.014.02s-.005.015-.005.023v3.094c0 .017-.008.032-.02.044s-.028.018-.045.017h-1.848c-.016 0-.032-.006-.044-.018s-.019-.027-.02-.044V26.763c.001-.017.008-.033.02-.044s.028-.018.044-.018h1.848c.037 0 .065.027.065.062v7.471c.001.025.017.046.041.055s.05.005.069-.011l4.065-4.074c.012-.012.028-.018.046-.018h2.179c.026.001.048.016.058.038a.06.06 0 0 1 .004.035c-.002.012-.008.023-.016.031l-4.151 4.138c-.007.007-.012.016-.015.025s-.004.02-.002.029c.004.018.017.036.035.044 1.197.55 2.027 1.578 2.413 2.056l.043.054c.33.407 1.431 2.006 2.245 3.087.006.009.009.02.009.031s-.003.021-.009.031-.014.017-.023.023-.021.008-.032.009h-.002zM65.042 28.811c.668 0 1.21-.518 1.21-1.156s-.542-1.156-1.21-1.156-1.21.518-1.21 1.156.542 1.156 1.21 1.156zm32.099 1.103c-2.887 0-4.778 1.838-4.778 4.973 0 3.147 1.899 4.973 4.778 4.973s4.776-1.828 4.776-4.972c0-3.13-1.905-4.973-4.776-4.973zm0 8.388c-1.951 0-2.886-1.278-2.886-3.509 0-2.218.936-3.323 2.886-3.323s2.88 1.196 2.88 3.415-.936 3.417-2.88 3.417zm21.404.124c-1.044.14-2.082-.294-2.683-1.121-.321-.413-.49-.892-.605-1.52-.001-.008-.001-.016.001-.024s.006-.015.011-.022c.01-.013.025-.022.042-.025l5.273-.711c1.446-.204 2.051-1.452 1.505-2.657a4.44 4.44 0 0 0-2.407-2.181c-1.432-.554-3.357-.23-4.384.587-1.37 1.092-1.837 2.405-1.91 3.8l-.013.468a5.46 5.46 0 0 0 .085.963c.361 2.092 1.898 4.013 4.472 4.022 2.914.009 4.29-1.683 4.526-2.95.001-.01 0-.019-.003-.028s-.009-.017-.016-.024-.015-.012-.025-.015-.02-.004-.03-.003l-1.816.269c-.01.002-.018.005-.026.011s-.015.012-.02.02c-.499.693-1.08 1.009-1.977 1.141zm-2.725-5.93a2.9 2.9 0 0 1 2.063-1.058c.821-.066 1.486.045 2.069.596a2.86 2.86 0 0 1 .527.668c.211.363-.013.892-.491.957l-4.804.644c-.009.002-.019.001-.029-.002s-.018-.008-.026-.014-.012-.014-.015-.023-.004-.018-.003-.027a3.21 3.21 0 0 1 .709-1.739zm16.828 1.433v5.806c-.001.017-.008.033-.02.044s-.028.018-.045.018h-1.811c-.008 0-.016-.001-.024-.004s-.015-.008-.022-.013-.011-.013-.014-.02-.005-.016-.006-.025v-4.827s.023-.815-.045-1.574c-.05-.534-.235-1.051-.661-1.388-.606-.481-1.462-.374-1.462-.374-1.064.11-1.98.748-2.553 1.391l-.033.038.033-.014v6.747c0 .017-.007.033-.019.044a.07.07 0 0 1-.046.018h-1.816c-.009 0-.017-.001-.025-.004s-.015-.008-.021-.013-.011-.013-.015-.02-.005-.016-.005-.024v-9.474c0-.017.007-.033.019-.045s.029-.018.046-.018h1.491c.036 0 .066.027.066.062v.928c0 .025.016.046.041.055s.05.005.069-.013c.769-.799 1.932-1.28 3.15-1.28 1.009.002 3.727.042 3.727 3.979h.001z" fill="#000"/><defs><linearGradient id="A" x1="54.883" y1="26.011" x2="40.639" y2="46.172" gradientUnits="userSpaceOnUse"><stop stop-color="#000"/></linearGradient></defs></svg>
