<svg xmlns="http://www.w3.org/2000/svg" width="200" height="54" fill="none"><g clip-path="url(#E)"><g fill-rule="evenodd"><path d="M36.601 42.68c8.576 0 15.545-6.88 15.684-15.42l.002-.259c0 14.433-11.705 26.133-26.143 26.133S0 41.433 0 27h20.915c0 8.66 7.023 15.68 15.686 15.68z" fill="url(#A)"/><path d="M15.687 42.68C7.11 42.68.141 35.799.003 27.259L.001 27c0 14.433 11.705 26.133 26.143 26.133S52.288 41.433 52.288 27H31.373c0 8.66-7.023 15.68-15.686 15.68z" fill="url(#B)"/><path d="M15.687 11.32C7.11 11.32.141 18.201.003 26.741L.001 27C.001 12.567 11.706.867 26.144.867S52.288 12.567 52.288 27H31.373c0-8.66-7.023-15.68-15.686-15.68z" fill="url(#C)"/><path d="M36.601 11.32c8.576 0 15.545 6.88 15.684 15.42l.002.259C52.287 12.567 40.582.867 26.144.867S0 12.567 0 27h20.915c0-8.66 7.023-15.68 15.686-15.68z" fill="url(#D)"/></g><g fill="#000"><path d="M65.355 37.777l.133-18.22c0-.06.015-.11.045-.149.03-.05.064-.075.104-.075.099 0 .163.05.193.149l4.509 16.232c.178.628.509 1.126.994 1.495s1.053.553 1.706.553h.119c.643 0 1.211-.184 1.706-.553.494-.379.826-.882.994-1.51l4.435-16.217c.03-.1.099-.149.208-.149.04 0 .074.025.104.075.03.04.044.09.044.149v18.22h2.744V19.258c0-.578-.104-1.096-.311-1.554-.207-.469-.499-.832-.875-1.091-.366-.269-.776-.404-1.231-.404h-.326c-.643 0-1.206.184-1.691.553-.475.359-.801.847-.979 1.465l-4.72 16.306c-.03.1-.094.149-.193.149-.109 0-.178-.05-.208-.149l-4.553-16.262c-.178-.638-.514-1.141-1.008-1.509a2.71 2.71 0 0 0-1.691-.553 2.71 2.71 0 0 0-1.439.389c-.425.259-.761.618-1.009 1.076-.247.448-.371.962-.371 1.54l-.178 18.564h2.744zm31.9-9.148c0-1.016-.346-1.948-1.038-2.795-.692-.837-1.686-1.256-2.981-1.256-1.285 0-2.299.453-3.04 1.36-.732.907-1.098 1.803-1.098 2.69v.149h8.157v-.149zm3.011 1.405l-.015.523v.508H89.097v.164c0 1.156.376 2.152 1.127 2.989s1.745 1.255 2.981 1.255c1.869 0 3.159-.712 3.871-2.137h2.863c-.376 1.495-1.177 2.66-2.403 3.498s-2.67 1.25-4.331 1.24c-2.136 0-3.841-.737-5.117-2.212s-1.913-3.428-1.913-5.859.618-4.374 1.854-5.829c1.246-1.455 2.976-2.182 5.191-2.182s3.945.727 5.191 2.182c1.236 1.475 1.854 3.428 1.854 5.859zm1.994 7.742h2.789v-8.893c0-1.086.381-2.053 1.142-2.9.742-.847 1.819-1.271 3.233-1.271h.46l.46.075v-2.735l-.623-.075-.267-.015c-1.098 0-2.077.374-2.937 1.121-.85.747-1.384 1.38-1.602 1.898h-.252l.252-2.66h-2.655v15.455zm12.415 0h-2.744V22.291h2.744v15.485zm-3.174-19.774a1.72 1.72 0 0 1 .519-1.256 1.74 1.74 0 0 1 1.261-.523 1.69 1.69 0 0 1 1.246.523 1.72 1.72 0 0 1 .519 1.256c0 .488-.173.912-.519 1.27a1.69 1.69 0 0 1-1.246.523 1.74 1.74 0 0 1-1.261-.523c-.346-.359-.519-.782-.519-1.27zm10.233-.149h-2.67v2.078 2.362h-3.085v2.287h2.848v8.834c0 1.395.371 2.476 1.112 3.243.742.747 1.75 1.121 3.026 1.121.494 0 .92-.045 1.276-.134l.711-.15v-2.556c-.098.04-.276.075-.534.105l-.608.03c-.761 0-1.3-.169-1.616-.508-.307-.349-.46-.882-.46-1.599v-8.385h3.218v-2.287h-3.218v-4.439zm27.232 13.182c0 1.226-.629 2.67-1.884 4.334-.623.767-1.498 1.41-2.624 1.928s-2.404.777-3.828.777c-3.085 0-5.379-.996-6.881-2.989s-2.255-4.663-2.255-8.011c0-3.368.811-6.068 2.433-8.101 1.631-2.033 3.865-3.049 6.703-3.049 1.464 0 2.774.274 3.931.822 1.167.548 2.042 1.215 2.625 2.003 1.206 1.724 1.8 3.129 1.78 4.215h-2.893c-.949-2.86-2.763-4.339-5.443-4.439-2.006 0-3.549.747-4.627 2.242-1.068 1.495-1.607 3.572-1.617 6.233 0 2.67.54 4.753 1.617 6.248 1.087 1.495 2.63 2.237 4.627 2.227 1.543 0 2.754-.463 3.634-1.39.89-.937 1.493-1.953 1.809-3.049h2.893zm4.678 6.741h-2.743V22.291h2.743v15.485zm-3.173-19.774c0-.488.172-.907.519-1.256a1.74 1.74 0 0 1 1.26-.523c.485 0 .9.174 1.245.523s.521.767.521 1.256-.174.912-.521 1.27c-.345.349-.76.523-1.245.523s-.905-.174-1.26-.523c-.347-.359-.519-.782-.519-1.27zm5.768 19.774h2.788v-8.893c0-1.086.381-2.053 1.142-2.9.742-.847 1.819-1.271 3.234-1.271h.46l.459.075v-2.735l-.623-.075-.266-.015c-1.098 0-2.077.374-2.938 1.121-.849.747-1.384 1.38-1.601 1.898h-.252l.252-2.66h-2.655v15.455zm19.311-10.253c-.652-1.853-1.983-2.835-3.989-2.945-1.345-.01-2.413.493-3.204 1.51s-1.187 2.332-1.187 3.946.396 2.924 1.187 3.931 1.859 1.51 3.204 1.51c2.006-.1 3.337-1.076 3.989-2.93h2.892c-.405 1.714-1.201 3.064-2.387 4.05s-2.685 1.48-4.494 1.48c-2.245 0-4-.732-5.266-2.197-1.256-1.465-1.883-3.418-1.883-5.859s.627-4.389 1.883-5.844c1.266-1.455 3.021-2.187 5.266-2.197 1.829 0 3.337.498 4.523 1.495s1.972 2.347 2.358 4.051h-2.892zm7.662 10.253h-2.744V16.223h2.744v21.553zm13.218-9.147c0-1.016-.346-1.948-1.038-2.795-.693-.837-1.686-1.256-2.982-1.256-1.284 0-2.299.453-3.04 1.36-.732.907-1.097 1.803-1.097 2.69v.149h8.157v-.149zm3.011 1.405l-.015.523v.508h-11.153v.164a4.32 4.32 0 0 0 1.127 2.989c.752.837 1.745 1.255 2.98 1.255 1.87 0 3.16-.712 3.872-2.137h2.863c-.376 1.495-1.176 2.66-2.403 3.498s-2.67 1.25-4.332 1.24c-2.134 0-3.84-.737-5.116-2.212s-1.914-3.428-1.914-5.859.619-4.374 1.855-5.829c1.246-1.455 2.975-2.182 5.191-2.182s3.945.727 5.191 2.182c1.237 1.475 1.854 3.428 1.854 5.859z"/></g></g><defs><linearGradient id="A" x1="11.438" y1="27" x2="12.254" y2="53.133" gradientUnits="userSpaceOnUse"><stop/></linearGradient><linearGradient id="B" x1="26.144" y1="27" x2="26.144" y2="53.133" gradientUnits="userSpaceOnUse"><stop/><stop offset="1" stop-color="#777"/></linearGradient><linearGradient id="C" x1="38.377" y1="27" x2="38.377" y2="-.242" gradientUnits="userSpaceOnUse"><stop/></linearGradient><linearGradient id="D" x1="10.621" y1="27" x2="10.621" y2=".867" gradientUnits="userSpaceOnUse"><stop/><stop offset="1" stop-color="#777"/></linearGradient><clipPath id="E"><path fill="#fff" transform="translate(0 .867)" d="M0 0h200v52.266H0z"/></clipPath></defs></svg>
