<svg xmlns="http://www.w3.org/2000/svg" width="180" height="27" fill="#000"><path d="M26.343.902c-1.126.11-2.081.792-2.626 1.879-.29.585-.317.761-.352 2.433a1123.04 1123.04 0 0 0 0 16.827c.031 2.085.04 2.142.37 2.816.431.876 1.276 1.61 2.094 1.83.123.031.801.057 1.892.07l1.698.022.537-.268c.295-.145.634-.334.752-.422.475-.347.999-1.073 1.117-1.54.163-.638.172-1.038.18-10.206l-.132-11.02c-.132-.519-.396-.946-.858-1.408-.598-.598-1.1-.871-1.782-.968a25.18 25.18 0 0 0-2.89-.044zm2.011 2.684a1.98 1.98 0 0 1 .405.295l.233.211.026 9.621.031 9.621-.123.189c-.176.273-.325.427-.528.532-.15.084-.251.097-.686.097-.497 0-.519-.004-.809-.154-.374-.194-.436-.303-.515-.924-.084-.669-.084-17.848 0-18.499.075-.576.145-.713.444-.875.317-.167.431-.194.928-.198.33 0 .457.018.594.084zM47.412.972c-.387.092-.981.418-1.32.726a3.57 3.57 0 0 0-.84 1.144c-.299.629-.295.572-.343 3.625-.053 3.273-.013 16.638.048 17.294.07.739.374 1.381.919 1.962.563.598 1.144.915 1.813.999.202.026 1.029.048 1.834.048h1.465l.541-.268c.611-.304.871-.484 1.139-.783.224-.246.585-.774.656-.955.246-.634.277-2.486.233-12.908l-.04-8.513-.224-.462c-.392-.814-.818-1.223-1.742-1.694l-.559-.286-1.663.004c-1.271 0-1.725.018-1.918.066zm2.415 2.591a1.14 1.14 0 0 1 .4.229c.229.216.277.427.321 1.465.057 1.285.022 17.47-.04 17.896-.066.493-.136.638-.361.783-.651.409-1.87.251-2.09-.268-.167-.4-.172-.73-.172-9.832 0-9.239.004-9.48.189-9.854.079-.167.303-.312.625-.414a2.55 2.55 0 0 1 1.126-.004zM0 13.831V26.55h1.452 1.452l.004-3.519.018-3.564a166.63 166.63 0 0 0 .022-2.059l.009-2.011.106.462.458 1.98c.554 2.411.765 3.097 1.1 3.594a1.86 1.86 0 0 0 .968.691c.299.079 1.029.136 1.293.097l.194-.031.092-.405.532-2.34.656-2.877.224-.968c0-.013.022 0 .053.031.04.04.057 1.307.07 5.486l.018 5.433h1.447 1.447V13.831 1.113l-1.043.018c-.849.018-1.091.04-1.28.101-.312.106-.559.356-.647.656-.145.48-.488 2.147-1.276 6.163l-1.553 7.435c-.084-.29-1.39-6.542-2.252-10.778l-.471-2.151c-.189-.783-.211-.845-.37-1.012a1.5 1.5 0 0 0-.378-.29c-.202-.106-.246-.11-1.276-.123L0 1.113v12.718zm66.518.005V26.55h1.452 1.452l.004-5.842.035-6.124.026-.286.145.638.977 4.355 1.474 6.278c.132.295.427.607.686.743.308.154.876.238 1.628.238h.656V13.836 1.122h-1.452-1.452V3.99l-.031 6.282-.026 3.41-.669-3.322-1.65-7.994c-.097-.365-.224-.59-.471-.809-.383-.348-.801-.436-2.068-.436h-.717v12.714zM86.931 1.161c-.15.026-.154.031-.141.224.026.418 1.993 13.282 3.198 20.897.475 2.996.453 2.89.625 3.242.185.383.523.748.827.893.207.101.277.11 1.131.123l.911.018.022-.101a277.19 277.19 0 0 0 .466-2.987l3.418-22.217.026-.141-1.456.018c-.893.009-1.474.031-1.5.057s-.101.471-.18.99l-2.05 13.55c-.066.422-.132.787-.15.805-.044.048-.132-.431-.418-2.34l-.928-6.053c-1.034-6.722-.959-6.339-1.337-6.793l-.189-.224-1.06.004c-.585.004-1.131.018-1.214.035zm24.416-.008c-.084.009-.167.031-.185.048s-.132.704-.255 1.527l-1.39 9.195-1.668 11.034-.506 3.467v.136l1.54-.018 1.579-.057s.137-.757.247-1.628l.616-4.729.484-3.673.18-1.386.612-4.351c.013-.009.022 0 .022.022s.061.466.132.986l1.297 9.744.709 4.993c.092.097 3.141.128 3.141.031a3.44 3.44 0 0 0-.044-.299c-.057-.295-1.8-11.623-2.31-15.019l-1.394-8.904c-.124-.51-.454-.933-.814-1.056-.168-.057-1.676-.106-1.993-.062zm18.649.013c-.326.04-.493.11-.656.286l-.11.119-.031 1.808-.031 11.275-.004 9.463.132.326c.304.73.612 1.17 1.056 1.513.33.255.889.532 1.24.616.458.11 2.007.176 2.71.119.761-.066 1.012-.132 1.624-.427 1.069-.519 1.663-1.39 1.777-2.596.026-.255.053-5.02.07-11.495l.022-11.051h-1.5-1.5l-.004 10.215-.123 12.142c-.075.198-.344.457-.59.568-.189.088-.304.106-.647.106s-.457-.018-.646-.106c-.247-.11-.515-.365-.59-.568-.101-.255-.123-2.38-.127-12.186V1.122l-.889.004c-.493.004-1.025.022-1.183.04zm21.605 12.67v12.718l2.872-.009 4.378-.172c.422-.185.686-.585 1.262-1.94.207-.48.277-.682.242-.717s-.937-.053-2.895-.062l-2.855-.026c-.008-.004-.017-4.184-.022-9.291l-.035-10.906c-.026-1.606-.026-1.632-.132-1.817-.132-.238-.383-.4-.695-.453-.136-.022-.673-.04-1.183-.04h-.937v12.714zm17.276-12.415l-.295.299v1.153 1.153h1.804 1.803v8.983l.031 11.078.027 2.09.118.114c.194.194.379.224 1.597.246l1.131.022.004-10.088.119-12.257a.31.31 0 0 1 .128-.123c.044-.018.602-.048 1.245-.07 1.711-.053 2.023-.141 2.358-.66.189-.29.998-1.901 1.047-2.09.026-.092.013-.092-.968-.119l-5.424-.031h-4.431l-.294.299z"/></svg>
