<svg xmlns="http://www.w3.org/2000/svg" width="180" height="41" fill="#000"><path d="M17.061 0l1.729.375a12.51 12.51 0 0 1 9.646 12.421v17.415c0 .876 0 .876-.83.523l-6.29-2.719a.9.9 0 0 1-.66-.978V12.74a4.88 4.88 0 0 0-9.612-1.137 5.89 5.89 0 0 0-.148 1.479v9.68c0 .626-.091.785-.728.5l-6.154-2.673c-.211-.054-.394-.183-.516-.364s-.173-.399-.144-.615v-7.064A12.51 12.51 0 0 1 14.274.136c.14-.035.277-.081.409-.136h2.377zm123.097 15.811v7.746 7.223c0 .603-.182.762-.763.739h-3.503c-.626 0-.796-.159-.796-.774V11.079 9.441c0-.353.125-.489.478-.478h5.971c.467 0 .558.364.728.637l8.645 14.082.5.773a1.59 1.59 0 0 0 .091-.842V9.68c0-.591.171-.751.751-.728h3.504c.648 0 .773.205.773.796v17.733 3.196c0 .728-.239.865-.887.842h-4.937a1.14 1.14 0 0 1-.667-.135c-.203-.112-.367-.283-.47-.491l-8.918-14.526-.398-.603-.102.046zm-52.392-.125v6.825 7.883c0 .478-.125.66-.626.637h-3.583c-.455 0-.648-.091-.648-.603V9.794c0-.455.148-.58.603-.58h5.369a.99.99 0 0 1 .99.591l8.406 13.707.421.626a1.41 1.41 0 0 0 .102-.842V9.964c0-.58.136-.785.739-.751h3.504c.455 0 .66.091.66.603V30.45c0 .466-.16.591-.603.58h-5.085c-.215.026-.432-.016-.622-.12s-.342-.265-.436-.46l-8.622-14.025c-.117-.295-.314-.551-.569-.739zm31.667-7.28c3.226-.127 6.377.998 8.793 3.139 1.32 1.284 2.318 2.862 2.911 4.606a11.65 11.65 0 0 1 .501 5.426c-.58 6.825-6.017 10.681-12.433 10.499-3.087.05-6.078-1.072-8.371-3.139a11.57 11.57 0 0 1-2.795-4.259 11.58 11.58 0 0 1-.697-5.046c.014-2.92 1.166-5.719 3.211-7.803s4.823-3.288 7.742-3.356l1.138-.068zm-6.825 11.682a7.02 7.02 0 0 0 1.043 4.191 7.01 7.01 0 0 0 3.299 2.787c1.366.559 2.871.674 4.305.328a7.02 7.02 0 0 0 3.683-2.255c2.446-2.798 2.173-7.962-.591-10.374-1.046-.944-2.353-1.55-3.75-1.739s-2.817.049-4.076.681c-2.775 1.228-3.81 3.663-3.913 6.381zM58.101 31.064l1.922-4.47 7.223-16.675c.056-.216.188-.406.372-.533s.407-.184.629-.161c.921.057 1.843 0 2.764 0a.68.68 0 0 1 .762.512l9.032 20.622c.227.523.205.739-.455.728h-4.186c-.192.031-.389-.011-.552-.119a.77.77 0 0 1-.324-.461l-1.365-3.412c-.049-.188-.165-.351-.327-.458s-.357-.151-.549-.122h-7.098a.86.86 0 0 0-.615.146.87.87 0 0 0-.352.526l-1.308 3.412c-.091.227-.114.535-.444.535l-5.13-.068zm13.934-8.747l-2.65-6.563-2.571 6.563h5.221zm97.105-4.948l2.127-3.538 2.651-4.402a.79.79 0 0 1 .301-.356c.134-.086.291-.128.449-.122h5.29c.136.296-.091.444-.205.614l-7.735 11.75a2.38 2.38 0 0 0-.398 1.388v8.031c0 .637-.193.796-.808.773-1.137 0-2.274-.057-3.412 0-.694 0-.808-.216-.808-.842v-8.11a2.02 2.02 0 0 0-.375-1.24l-7.61-11.614c-.125-.193-.409-.398-.284-.626s.444-.102.683-.114h4.697c.205-.026.412.015.591.118a.94.94 0 0 1 .399.451l4.447 7.837zM50.821 22.636h-3.583c-.432 0-.66-.08-.58-.569l.455-3.151c0-.319.262-.284.489-.307 2.036-.205 4.072-.057 6.108-.091a2.65 2.65 0 0 0 2.025-.694 2.39 2.39 0 0 0 .614-2.65c-.137-.469-.421-.881-.81-1.176s-.863-.457-1.351-.462l-5.448-.057c-.648 0-.739-.205-.626-.785.182-.887.296-1.797.409-2.707 0-.512.227-.773.83-.739 1.956.102 3.924-.136 5.881.136a6.69 6.69 0 0 1-1.524 13.263c-1.001-.057-1.945-.011-2.889-.011zm-9.714-2.446V9.953c0-.569.171-.717.717-.705h3.412c.444 0 .603.114.603.58v20.611c0 .489-.148.637-.637.626H41.79c-.58 0-.762-.136-.762-.739.091-3.333.08-6.734.08-10.135zM4.026 23.091a3.15 3.15 0 0 1 1.536.364l19.94 9.748.205.091c.5.273 1.137.5.944 1.228s-.899.682-1.501.682c-.569-.042-1.119-.222-1.604-.523L6.551 26.367l-2.753-1.342a5.93 5.93 0 0 1-.58-.33.8.8 0 0 1-.353-.353c-.077-.152-.102-.326-.073-.494s.112-.323.236-.441.282-.192.452-.213l.546-.102zM1.557 26.89a2.85 2.85 0 0 1 1.365.341l14.787 7.212.193.114c.489.25 1.137.5.921 1.137s-.887.717-1.479.728a3.07 3.07 0 0 1-1.354-.41L1.136 28.767c-.5-.25-1.058-.523-.876-1.206s.751-.648 1.297-.671zm12.945 13.206c-.422.002-.839-.095-1.217-.284l-9.566-4.698a2.9 2.9 0 0 1-.455-.262.87.87 0 0 1-.378-.35.86.86 0 0 1-.111-.503c.035-.172.12-.329.246-.451s.286-.203.459-.231a2.47 2.47 0 0 1 1.82.148l9.907 4.834c.455.216.933.523.728 1.138s-.853.648-1.433.66zM1.136 36.945c.461-.042.924.041 1.342.239l3.344 1.627c.432.216.853.5.751 1.069s-.626.648-1.137.728a2.36 2.36 0 0 1-1.445-.25l-3.128-1.57c-.478-.239-1.001-.5-.83-1.137s.785-.671 1.103-.705z"/></svg>
