<svg xmlns="http://www.w3.org/2000/svg" width="180" height="24" fill="#000"><path d="M53.82 0c-2.667 0-4.728.971-6.303 2.547-2.303 2.303-2.305 5.211-2.305 9.333 0 4-.119 6.912 2.305 9.336 1.697 1.697 3.637 2.543 6.303 2.543.727 0 1.332-.12 1.938-.241h7.877l-2.302-4.002c1.091-2.061 1.091-4.485 1.091-7.636 0-4-.002-6.908-2.305-9.333C58.544.85 56.487 0 53.82 0zm47.758 0c-2.666 0-4.727.85-6.303 2.547-2.424 2.424-2.305 5.333-2.305 9.333 0 4.121.002 7.033 2.305 9.336 1.576 1.576 3.637 2.543 6.303 2.543s4.724-.846 6.3-2.543c2.303-2.424 2.305-5.336 2.305-9.336 0-4.121-.002-7.03-2.305-9.333C106.181.971 104.245 0 101.578 0zM8.969.122C3.878.122.85 3.032.85 7.153c0 1.939.606 3.516 1.697 4.607.97.97 2.545 1.695 4.484 1.938l2.788.364c1.091.242 1.576.365 2.06.85s.728 1.089.728 1.938c0 1.939-1.454 2.91-4.121 2.91-2.061 0-4.121-.487-5.576-1.942L0 20.729c2.303 2.303 4.971 3.029 8.486 3.029 4.849 0 8.728-2.546 8.728-7.031 0-2.061-.607-3.755-1.819-4.967-.97-.97-2.303-1.577-4.484-1.819l-2.788-.364c-.97-.242-1.698-.484-2.183-.969s-.728-1.09-.728-1.697c0-1.576 1.214-2.91 3.638-2.91 1.455 0 3.271.119 4.726 1.574l2.91-2.788C14.547.848 12.12.122 8.969.122zm14.79.122v23.272h15.395v-4.002H28.365v-5.695h9.21V9.7h-9.21V4.243h10.788V.245H23.758zm45.453 0v15.272c0 4.97 3.881 8.241 8.609 8.241s8.483-3.272 8.483-8.241V.245H81.82v15.15c0 2.667-1.574 4.243-3.998 4.243s-4.002-1.576-4.002-4.243V.245h-4.607zm47.64 0v23.272h4.484V.245h-4.484zm18.665 0l-8.486 23.272h4.729l1.455-4.121h8.242l1.332 4.121h4.73L139.031.245h-3.515zm-81.819 3.88c1.212 0 2.304.483 2.91 1.21.848.97 1.088 2.06 1.088 6.545s-.239 5.579-1.088 6.548c-.606.727-1.698 1.21-2.91 1.21s-2.304-.483-2.91-1.21c-.849-.97-1.091-2.063-1.091-6.548s.243-5.575 1.091-6.545c.606-.727 1.698-1.21 2.91-1.21zm47.88 0c1.213 0 2.301.483 2.907 1.21.849.97 1.092 2.06 1.092 6.545s-.243 5.579-1.092 6.548c-.606.727-1.694 1.21-2.907 1.21s-2.304-.483-2.91-1.21c-.849-.97-1.091-2.063-1.091-6.548s.243-5.575 1.091-6.545c.606-.727 1.698-1.21 2.91-1.21zm35.757 2.907l2.91 8.486h-5.82l2.91-8.486zM156.728.245v21.212l2.91-2.91V.245h-2.91zm5.821 0V15.64l2.906-2.91V.245h-2.906zm5.817 0v9.574l2.91-2.907V.245h-2.91zm5.817 0v5.817H180V.245h-5.817zm-.847 8.728l-2.91 2.907H180V8.973h-6.664zm-5.82 5.817l-2.907 2.91H180v-2.91h-12.484zm-5.818 5.817l-2.91 2.91H180v-2.91h-18.302z"/></svg>
