<svg xmlns="http://www.w3.org/2000/svg" width="140" height="52" fill="#000"><path d="M7.677 1.869l4.549.065 9.045-.242c-.052-.505.388-.53.345-1.034-1.962-1.013-6.032-.524-9.545-.524-2.457 0-5.666-.727-6.257 1.213.077.719 1.123.471 1.863.523zM1.475 5.677c.607-1.526 1.94-2.334 1.911-4.509C2.878.984 2.49.681 1.645.823.334 1.632-.072 4.75 1.475 5.677zm.691 41.541v.236.007c.271 4.07.093-4.373 0-.244z"/><path d="M1.642 36.883c-.811-.507-1.005.901-1.561 1.218-.077 1.858-.043 3.618.522 4.849-.573 4.205-.522-2.864-.522 1.839 0 2.158-.389 4.635 1.215 5.369 1.003-.43.875-1.69.87-2.706-.219-3.328.556-7.773-.524-10.569zM24.4 14.005c1.561.041 1.147-2.142 1.215-3.296.093-1.554.761-4.212.693-6.59-.077-2.954-.946-5.629-2.6-3.118.667 4.475-.371 9.396.693 13.004zm1.132 36.083c.238.192.406-.244 0 0h0zm-21.111.071c-.444.134-.592.555-.515 1.212 1.351.312 3.235.177 5.032.177 1.731 0 3.766.421 4.696-.523-.77-.826-2.408-.792-3.826-.867-1.74-.084-3.707.066-5.387 0z"/><path d="M2.423 6.959c-.296.427-.411.783-.336 1.071s.422.411 1.036.368c.555-.042 1.804.181 3.747.671.426.108.657.055.69-.16s-.179-.493-.651-.83l-.577-.384-.74-.443-.752-.431-.625-.335a1.48 1.48 0 0 0-.913-.193c-.286.04-.579.263-.879.668zm18.548.209a1.01 1.01 0 0 0-.642-.016c-.516.109-1.042.163-1.569.159l-2.418.016-2.498-.093-1.776-.176a1.81 1.81 0 0 0-1.089.064c-.278.127-.589.456-.934.988-.192.295-.278.544-.256.738a.65.65 0 0 0 .223.443.73.73 0 0 0 .484.158.86.86 0 0 0 .512-.16 3.76 3.76 0 0 1 .978-.384l1.552-.295c.78-.113 1.567-.171 2.355-.174.797-.015 1.594.022 2.386.111.556.064.934.204 1.138.415s.326.555.368 1.024a3.15 3.15 0 0 1-.08 1.071 18.81 18.81 0 0 1-.592 2.068l-.496 1.294-.481 1.034a7.63 7.63 0 0 1-.514.886l-.592.814-1.298-1.329-1.234-1.303-1.008-1.12-.626-.75c-.554-.682-1.142-.821-1.761-.416-.405.235-.614.476-.624.719s.148.421.465.529a7.43 7.43 0 0 1 1.036.495 8.4 8.4 0 0 1 .848.591l1.649 1.518 1.843 1.902c-.648.713-1.349 1.376-2.097 1.982a12.91 12.91 0 0 1-2.164 1.408 13.11 13.11 0 0 1-2.332.922 22.42 22.42 0 0 1-2.562.576.89.89 0 0 0-.329.109.88.88 0 0 0-.263.226.71.71 0 0 0-.143.265c-.028.097-.034.2-.019.3a.74.74 0 0 0 .385.495c.223.139.551.198.977.177a10.65 10.65 0 0 0 3.268-.721 10.4 10.4 0 0 0 2.852-1.647l1.859-1.614 1.48-1.518 1.026 1.181.897 1.086 1.282 1.625.944 1.136a9.51 9.51 0 0 0 .69.738 4.84 4.84 0 0 0 .512.433c.296.233.755.313 1.376.239a4.08 4.08 0 0 0 1.191-.356l.653.238.056-.62.022-.013c.428-.276.645-.458.657-.543s-.166-.213-.528-.383l-.049-.022c.309-2.858.672-6.851-1.897-7.089-.444 1.76-.496 3.988-.364 6.008l-.429-.241-.784-.511a25.6 25.6 0 0 1-2.211-1.645l-2.306-2.094a14.55 14.55 0 0 0 1.104-1.564c.309-.513.582-1.047.817-1.598l.416-1.034.416-1.167.337-1.072a5.19 5.19 0 0 0 .176-.783c.057-.299.132-.595.223-.886l.352-1.103a1.25 1.25 0 0 0 .033-.738 1.66 1.66 0 0 0-.321-.623c-.145-.174-.336-.304-.55-.377zm5.838 27.121a1.09 1.09 0 0 0-.432-.176c-.192-.031-.391-.092-.592-.137a4.81 4.81 0 0 1 .348-.738c-.075-1.424.178-3.186-.177-4.332-2.861-2.342-2.454 2.165-1.883 4.488-.044-.021-.093-.033-.136-.053l-3.043-1.647-3.108-2.068-1.505-1.12-.96-.799a5.43 5.43 0 0 1-.61-.64c-.149-.196-.275-.409-.374-.634-.197-.361-.433-.521-.706-.479s-.572.404-.897 1.085c-.255.513-.731 1.099-1.425 1.759a17.46 17.46 0 0 1-2.516 1.95 23.58 23.58 0 0 1-3.266 1.759 19.11 19.11 0 0 1-3.345 1.121l-.015-4.726c.118-.75 1.055-.682 1.036-1.56-.135-.614-.696-1.266-1.002-1.944-.08-.064-.173-.11-.272-.136-.044.009-.07-.415-.081-1.062.016.019.03.044.046.061.225.224.551.156.978-.207l.977-.799 1.036-.799 1.216-.928 1.505-1.181a.91.91 0 0 0 .272-.352.56.56 0 0 0 .047-.335.28.28 0 0 0-.055-.123.3.3 0 0 0-.105-.085c-.052-.02-.108-.028-.164-.023a.35.35 0 0 0-.157.054l-1.808.886-1.394.623a7.98 7.98 0 0 1-.768.295 10.51 10.51 0 0 1-1.058.223 1.28 1.28 0 0 0-.577.295l.084-5.202.047-1.241 1.583.024 2.322.112c.444.043.69-.053.721-.295s-.148-.443-.559-.639l-1.443-.575-1.628-.576c-.291-.112-.607-.141-.913-.084l.178-4.527c-.139-.709-.488-1.204-1.282-1.224C.562 8.763.883 10.632.772 12.09c-.075.557-.657.616-.691 1.214v17.512c0 1.416-.361 3.298.444 4.338v.013a.72.72 0 0 0 .2.278.73.73 0 0 0 .305.156c.036.019.058.05.095.068.019-.009.028-.03.046-.041.444.077 1.071-.019 1.924-.295A18.61 18.61 0 0 0 5 34.645a16.89 16.89 0 0 0 2.051-1.056 30.31 30.31 0 0 0 2.448-1.65l3.139-2.493.656-.529a1.28 1.28 0 0 1 .514-.254 1.15 1.15 0 0 1 .528.031 4.4 4.4 0 0 1 .74.304c.107.063.403.265.888.607l1.671 1.26 2.018 1.598 1.924 1.582 1.296 1.071a4.29 4.29 0 0 0 .858.524c.201 5.15-.426 2.049.266 7.478l-.756-.058-2.723-.207-2.242-.128-1.939-.064a40.52 40.52 0 0 0-1.841.016v-1.644l.033-1.902a21.51 21.51 0 0 1 2.355 0 15.12 15.12 0 0 1 1.712.192c.491.106.845.111 1.058.016a1.35 1.35 0 0 0 .576-.591c.364-.617.266-.895-.287-.831l-.69.065c-.229.021-.459.021-.688 0-.258 0-.556 0-.897-.016l-1.073-.016-1.105.016-.96.016.016-1.727.047-1.502 2.258.064c.426.032.849.096 1.265.192.748.192 1.228.093 1.441-.295.197-.342.261-.588.192-.739s-.296-.276-.706-.384l-.784-.111c-.309-.031-.731-.049-1.265-.049l-2.001.032-3.028.127-.833.032h-.545c-.148 0-.284 0-.401-.016a1.63 1.63 0 0 1-.368-.08c-.29-.064-.591-.064-.881 0a3.77 3.77 0 0 0-.929.304 2.38 2.38 0 0 0-.704.495.55.55 0 0 0-.173.262.56.56 0 0 0-.003.314c.107.342.298.539.576.591s.706 0 1.282-.174l.866-.224.864-.16.96-.096 1.184-.065.049 1.567.047 1.726-2.418.047a6.43 6.43 0 0 1-1.073-.08 1.49 1.49 0 0 0-1.026.049 2.81 2.81 0 0 0-1.089.846 1.6 1.6 0 0 0-.336.527c-.03.06-.039.128-.028.194s.044.127.093.173c.095.086.283.128.559.128a4.61 4.61 0 0 0 1.184-.224c.43-.1.981-.2 1.652-.298l2.516-.239.032 1.967v1.582l-2.676.207-3.38.337-1.216.111-.704.049-.721.08c-.163.026-.32.08-.465.16a1.35 1.35 0 0 0-.352.304 4.19 4.19 0 0 0-.352.511.8.8 0 0 0-.112.688.77.77 0 0 0 .175.269.76.76 0 0 0 .269.174 1.82 1.82 0 0 0 .833.112 2.57 2.57 0 0 0 1.036-.319 9.3 9.3 0 0 1 1.48-.513l2.242-.542 2.482-.431 2.195-.21c.717-.019 1.434.013 2.146.097l2.178.335 1.955.48c.508.146 1.002.333 1.48.558.619.321 1.131.454 1.538.4a1.6 1.6 0 0 0 .694-.319c.089.424.354.672.482 1.063-.74 1.044-.148 3.429-1.563 3.809-1.208-.06-2.702.16-3.648-.17.118-.639.321-1.182-.169-1.558h-1.216c-.185 1.314-1.24 1.762-1.393 3.118 2.609-.109 5.666.227 7.991-.177.678-.797 1.083-1.148 1.31-1.283-.207-.167-.465-.811-.444-2.806.018-.902.431-1.71.524-2.596.352-3.237-.505-6.498-.2-9.13a6.43 6.43 0 0 0 .978-.516 1.42 1.42 0 0 0 .463-.443.22.22 0 0 0-.052-.301zM55.401 4.211l.234 9.6h-.873c-.41-2.406-1.422-4.342-3.034-5.807S48.373 5.806 46.5 5.805c-1.447 0-2.593.386-3.438 1.158s-1.267 1.661-1.267 2.667a3.24 3.24 0 0 0 .444 1.7c.411.667 1.071 1.325 1.98 1.976.667.468 2.207 1.296 4.62 2.486 3.378 1.658 5.657 3.224 6.836 4.697a7.94 7.94 0 0 1 1.749 5.061c0 2.41-.941 4.482-2.822 6.217s-4.27 2.602-7.164 2.604a11.64 11.64 0 0 1-2.576-.276 19.58 19.58 0 0 1-3.046-1.034c-.681-.284-1.241-.425-1.681-.425a2.09 2.09 0 0 0-1.172.425 2.97 2.97 0 0 0-1 1.295h-.789V23.463h.789c.627 3.065 1.829 5.399 3.605 7.002s3.7 2.407 5.772 2.413c1.589 0 2.856-.432 3.8-1.297s1.416-1.87 1.416-3.017a3.95 3.95 0 0 0-.55-1.981 6.31 6.31 0 0 0-1.65-1.817c-.739-.573-2.045-1.32-3.919-2.241-2.625-1.29-4.513-2.388-5.663-3.295a10.09 10.09 0 0 1-2.651-3.04 7.52 7.52 0 0 1-.926-3.692c0-2.295.845-4.25 2.534-5.865s3.819-2.422 6.389-2.422c.919-.003 1.834.111 2.724.34.842.236 1.658.553 2.439.945.958.461 1.628.691 2.011.691a1.13 1.13 0 0 0 .474-.076c.151-.059.287-.149.4-.265.213-.226.41-.771.592-1.635l.644-.001zm19.738 28.688v.786H60.044v-.786h.959c.838 0 1.512-.148 2.023-.443.395-.229.697-.591.851-1.02.157-.34.235-1.232.235-2.678V9.799c0-1.477-.079-2.398-.235-2.763s-.473-.688-.947-.967-1.116-.413-1.924-.414h-.959v-.783h15.095v.783h-.959c-.838 0-1.511.148-2.022.443a2.04 2.04 0 0 0-.873 1.021c-.157.34-.235 1.232-.235 2.678v18.958c0 1.477.082 2.398.246 2.763s.483.687.957.966 1.118.415 1.924.415h.959zm11.86-28.027l14.247 17.871V10.352c0-1.728-.247-2.897-.74-3.506-.686-.823-1.831-1.22-3.435-1.19v-.783h9.54v.783c-1.221.157-2.04.358-2.458.606-.451.285-.796.711-.98 1.211-.235.559-.352 1.519-.352 2.88v23.991h-.727L82.57 10.352v18.314c0 1.658.38 2.778 1.139 3.358a4.17 4.17 0 0 0 2.609.871h.681v.786H76.758v-.786c1.589-.015 2.696-.341 3.321-.978s.937-1.72.938-3.249V8.333l-.619-.765c-.612-.765-1.151-1.27-1.619-1.514s-1.141-.377-2.022-.399v-.783h10.241zm37.477-.407c4.599-.169 8.337 1.169 11.212 4.016S140 14.89 140 19.171c0 3.656-1.072 6.872-3.216 9.649-2.838 3.684-6.848 5.525-12.03 5.524s-9.199-1.758-12.052-5.27c-2.244-2.777-3.365-6.071-3.364-9.882 0-4.277 1.459-7.843 4.376-10.699s6.505-4.198 10.762-4.028zm.26 1.36c-2.64 0-4.648 1.346-6.026 4.038-1.121 2.21-1.682 5.383-1.682 9.52 0 4.917.865 8.551 2.597 10.901 1.206 1.643 2.896 2.465 5.068 2.465 1.463 0 2.684-.354 3.663-1.062 1.248-.907 2.221-2.356 2.917-4.347s1.044-4.587 1.043-7.788c0-3.811-.355-6.661-1.065-8.553s-1.617-3.227-2.719-4.005a6.41 6.41 0 0 0-3.796-1.17zM44.284 39.97l.21 2.563h-.21c-.212-.638-.485-1.121-.821-1.444a2.58 2.58 0 0 0-1.866-.7c-1.036 0-1.825.409-2.368 1.227a4.41 4.41 0 0 0-.678 2.468c-.011.731.14 1.454.444 2.119.246.575.658 1.064 1.184 1.404.447.285.966.438 1.496.443a3.27 3.27 0 0 0 .87-.114c.284-.077.556-.189.811-.335v-2.348c0-.406-.031-.672-.093-.799a.62.62 0 0 0-.289-.287 1.65 1.65 0 0 0-.687-.099v-.227h3.151v.227h-.148c-.311 0-.525.103-.641.31-.081.148-.12.443-.12.874v2.486a6.13 6.13 0 0 1-1.363.546 6.02 6.02 0 0 1-1.495.173c-1.572 0-2.765-.503-3.581-1.509-.606-.735-.931-1.66-.919-2.611a4.57 4.57 0 0 1 .6-2.208c.384-.673.933-1.239 1.596-1.642a4.54 4.54 0 0 1 2.92-.443c.35.081.694.187 1.029.318a1.72 1.72 0 0 0 .444.126.24.24 0 0 0 .195-.105.79.79 0 0 0 .099-.411l.229-.002zm8.382 6.063l.197.041-.695 2.204h-6.309v-.222h.305c.345 0 .592-.112.74-.335.084-.127.126-.422.126-.886v-5.24c0-.506-.056-.824-.167-.953-.09-.092-.199-.163-.32-.208a.89.89 0 0 0-.377-.055h-.306v-.222h3.683v.222c-.432 0-.74.035-.909.12a.73.73 0 0 0-.357.318c-.063.127-.095.432-.096.916v5.103c-.016.232.017.464.096.682.05.086.128.152.222.186.099.039.41.059.935.059h.592c.624 0 1.062-.046 1.314-.137.267-.103.504-.27.69-.487a4.03 4.03 0 0 0 .636-1.105zm4.951-6.063a3.68 3.68 0 0 1 1.499.31 3.69 3.69 0 0 1 1.244.891c.774.801 1.162 1.801 1.162 2.998 0 1.234-.39 2.258-1.171 3.072-.363.383-.801.689-1.286.899a3.92 3.92 0 0 1-4.37-.869c-.762-.796-1.142-1.824-1.142-3.084 0-1.291.44-2.343 1.32-3.156a3.9 3.9 0 0 1 2.744-1.06zm-.114.443a2.15 2.15 0 0 0-1.752.808c-.548.671-.821 1.655-.821 2.954 0 1.324.284 2.344.851 3.06a2.11 2.11 0 0 0 1.729.814 2.38 2.38 0 0 0 1.05-.222 2.36 2.36 0 0 0 .843-.664c.499-.591.748-1.529.747-2.815 0-1.39-.274-2.424-.821-3.102-.447-.567-1.048-.837-1.825-.837v.004zm10.172 3.72c.563.119.985.311 1.265.576a1.78 1.78 0 0 1 .583 1.347 2.01 2.01 0 0 1-.385 1.159 2.19 2.19 0 0 1-1.054.808c-.445.169-1.126.254-2.042.254h-3.84v-.222h.306c.339 0 .583-.108.731-.323.093-.139.139-.443.139-.886v-5.252c0-.504-.058-.82-.175-.953a.88.88 0 0 0-.696-.263h-.306v-.221h3.516a7.03 7.03 0 0 1 1.578.148 2.54 2.54 0 0 1 1.375.764 1.88 1.88 0 0 1 .474 1.261c.004.396-.127.781-.371 1.093-.285.343-.668.591-1.098.71zm-3.145-.322a5.11 5.11 0 0 0 .508.062l.627.021c.583 0 1.023-.063 1.316-.188a1.42 1.42 0 0 0 .676-.582 1.62 1.62 0 0 0 .234-.849 1.54 1.54 0 0 0-.152-.674c-.101-.21-.248-.396-.431-.541-.388-.337-.953-.505-1.697-.505a4.05 4.05 0 0 0-1.08.133v3.124zm0 3.88a6.06 6.06 0 0 0 1.375.161c.724 0 1.276-.163 1.656-.487a1.53 1.53 0 0 0 .57-1.207 1.77 1.77 0 0 0-.257-.91c-.199-.314-.494-.556-.841-.69a3.65 3.65 0 0 0-1.44-.251l-.636.012a3.56 3.56 0 0 0-.426.041v3.331zm11.287-2.131h-3.151l-.552 1.282c-.114.223-.185.466-.21.715a.41.41 0 0 0 .05.184c.031.057.075.105.128.142.118.093.373.153.765.182v.222h-2.556v-.222c.338-.059.558-.137.66-.233.203-.192.429-.581.678-1.168l2.862-6.683h.21l2.827 6.748c.228.544.435.895.622 1.058.221.175.495.27.777.272v.221h-3.211v-.221c.324-.015.543-.069.657-.161a.42.42 0 0 0 .172-.337 2.49 2.49 0 0 0-.24-.832l-.487-1.168zm-.167-.443l-1.378-3.282-1.416 3.283 2.794-.001z"/><path d="M86.111 46.033l.198.041-.695 2.204h-6.298v-.222h.306c.343 0 .592-.112.74-.335.083-.127.126-.422.126-.886v-5.24c0-.506-.056-.824-.169-.953a.88.88 0 0 0-.695-.263h-.306v-.222h3.686v.222c-.432 0-.735.04-.909.12a.73.73 0 0 0-.358.318c-.063.127-.095.432-.096.916v5.103a1.65 1.65 0 0 0 .096.682c.051.086.129.151.222.186.099.039.411.059.937.059h.592c.625 0 1.063-.046 1.314-.137a1.72 1.72 0 0 0 .691-.487 4.05 4.05 0 0 0 .619-1.105zm10.481-6.063l.185 2.762h-.185c-.249-.827-.603-1.422-1.063-1.786a2.59 2.59 0 0 0-1.656-.545 2.58 2.58 0 0 0-1.528.453 2.56 2.56 0 0 0-.966 1.266 5.81 5.81 0 0 0-.374 2.233 4.75 4.75 0 0 0 .354 1.911 2.66 2.66 0 0 0 1.066 1.239 3.06 3.06 0 0 0 1.628.431c.488.01.97-.106 1.398-.338.403-.226.847-.675 1.332-1.346l.186.121c-.409.722-.885 1.25-1.428 1.586a3.62 3.62 0 0 1-1.939.504c-1.347 0-2.391-.499-3.131-1.498-.557-.76-.848-1.682-.827-2.623a4.66 4.66 0 0 1 .545-2.233c.343-.657.864-1.203 1.504-1.577.633-.373 1.356-.567 2.091-.561a3.86 3.86 0 0 1 1.74.431c.11.068.232.112.36.131.052.001.104-.009.153-.028a.39.39 0 0 0 .13-.085.94.94 0 0 0 .222-.443l.204-.006zm6.421 5.587h-3.151l-.552 1.282a2.01 2.01 0 0 0-.204.707c.002.065.019.128.05.184s.075.105.128.142c.117.093.373.148.763.182v.222h-2.561v-.222c.34-.059.559-.137.66-.233.204-.192.43-.581.678-1.168l2.863-6.683h.21l2.832 6.755c.228.544.435.895.622 1.057.221.175.495.27.777.272v.222h-3.212v-.222c.326-.015.545-.069.659-.161a.41.41 0 0 0 .125-.148c.03-.059.045-.123.045-.188-.031-.289-.112-.571-.24-.832l-.491-1.168zm-.169-.443l-1.38-3.283-1.417 3.283h2.797zm5.941-.639v2.363c0 .511.056.829.168.953a.87.87 0 0 0 .315.209c.12.045.248.064.375.054h.312v.221h-3.486v-.221h.306c.343 0 .592-.112.74-.335.081-.124.121-.416.121-.886v-5.237c0-.511-.054-.829-.163-.953a.88.88 0 0 0-.695-.263h-.307v-.221h2.982c.583-.021 1.165.055 1.723.224a2.38 2.38 0 0 1 1.063.758 1.95 1.95 0 0 1 .432 1.263 2.12 2.12 0 0 1-.156.88c-.115.279-.287.53-.506.738-.437.416-1.056.624-1.857.623a5.51 5.51 0 0 1-.635-.041l-.732-.127zm0-.341l.563.09a3.41 3.41 0 0 0 .421.029 1.43 1.43 0 0 0 1.077-.481 1.75 1.75 0 0 0 .453-1.248 2.24 2.24 0 0 0-.216-.979 1.48 1.48 0 0 0-.613-.676 1.77 1.77 0 0 0-.9-.226c-.265.009-.529.047-.785.114v3.378zm8.108 3.922v.222h-3.488v-.222h.296c.335 0 .582-.098.74-.295.099-.127.148-.434.148-.922v-5.245c.016-.274-.01-.549-.079-.815-.05-.111-.137-.201-.245-.256a1.12 1.12 0 0 0-.552-.148h-.296v-.221h3.476v.221h-.296a.87.87 0 0 0-.727.296c-.1.127-.148.443-.148.922v5.246a2.7 2.7 0 0 0 .079.815.54.54 0 0 0 .253.257 1.1 1.1 0 0 0 .546.148l.293-.003zm7.41-7.898l.09 1.904h-.229c-.02-.248-.08-.49-.179-.718a1.21 1.21 0 0 0-.495-.512 1.74 1.74 0 0 0-.814-.165h-1.145v6.203c0 .498.054.809.161.933.093.09.203.158.324.202a.89.89 0 0 0 .379.049h.281v.222h-3.451v-.222h.296c.344 0 .588-.104.733-.312.088-.127.131-.418.131-.873v-6.203h-.978a2.65 2.65 0 0 0-.809.086 1.11 1.11 0 0 0-.534.436 1.77 1.77 0 0 0-.264.874h-.228l.095-1.904h6.636zm5.034 5.399h-3.15l-.552 1.282c-.111.221-.18.461-.205.707a.42.42 0 0 0 .05.184c.03.056.075.105.128.142.117.093.373.148.764.182v.222h-2.562v-.222c.34-.059.56-.137.66-.233.204-.192.43-.581.678-1.168l2.862-6.683h.21l2.832 6.755c.228.544.436.895.622 1.057.221.175.495.27.777.272v.222h-3.21v-.222c.324-.015.543-.069.657-.161a.43.43 0 0 0 .124-.15c.029-.059.043-.124.042-.189a2.5 2.5 0 0 0-.24-.832l-.487-1.165zm-.168-.443l-1.381-3.283-1.416 3.283h2.797zm10.465.919l.197.046-.697 2.203h-6.298v-.221h.305c.345 0 .592-.112.74-.335.084-.127.127-.422.127-.886v-5.245c0-.507-.058-.824-.169-.953-.09-.092-.199-.163-.319-.208a.9.9 0 0 0-.378-.055h-.305v-.222h3.684v.222c-.43 0-.733.04-.909.12a.74.74 0 0 0-.357.318c-.064.127-.096.432-.096.916v5.103a1.67 1.67 0 0 0 .096.682c.05.086.129.152.222.186.099.039.411.059.936.059h.592c.623 0 1.062-.046 1.314-.137a1.71 1.71 0 0 0 .689-.487 3.97 3.97 0 0 0 .626-1.105z"/></svg>
