<svg xmlns="http://www.w3.org/2000/svg" width="1688" height="666" fill="none"><path d="M234.466 426.949l.518-.002.131.002h44.103l.012 5.584-.009 134.671c.003 3.168-.995 4.972-3.886 6.354-15.142 7.292-26.569 26.107-23.451 46.23 3.616 23.378 27.657 41.032 50.858 36.499 20.438-3.987 33.865-17.928 36.74-39.374 1.946-14.545-5.057-33.746-23.78-43.361-2.541-1.296-3.943-2.714-3.934-5.832V436.913v-9.964h54.554a31.61 31.61 0 0 0 5.013-.4c12.429-1.269 23.954-5.504 33.819-11.969l77.451 44.821c2.552 1.723 4.516 2.975 5.894 3.757 3.85 2.177 5.336 4.583 5.222 9.086-.687 26.093 22.086 47.407 48.637 44.579 26.067-2.768 44.536-27.833 38.489-53.178-7.248-30.375-40.181-44.081-66.783-27.663-2.804 1.726-4.83 2.198-7.822.448l-67.731-39.073c-.787-.447-4.252-2.645-10.394-6.594 6.54-10.878 10.29-23.557 10.29-37.1 0-26.879-14.72-50.209-36.562-62.961l.282-.162a12.48 12.48 0 0 1 1.305-.848l28.73-16.467 63.618-36.676 10.549-6.109c2.758-1.592 4.63-1.619 7.338.197 9.651 6.471 20.471 8.519 31.824 6.533 22.097-3.87 38.112-23.846 36.143-47.427-2.144-25.582-27.26-44.704-52.347-39.156-22.014 4.87-35.844 22.058-35.59 44.653.036 3.849-1.034 6.044-4.471 8.009l-26.592 15.235.006.011-81.09 46.921c-14.289-25.006-39.79-42.999-69.715-47.7l-.123-114.04c-.03-5.704 1.303-9.009 6.653-12.079 19.181-11.01 26.471-34.71 17.695-54.92-8.85-20.386-31.459-31.276-52.663-24.823-19.3 5.874-30.058 19.493-31.95 39.314-1.455 15.295 5.787 32.285 23.261 41.826 2.684 1.463 4.555 2.75 4.543 6.429l-.079 33.566.645 84.858c-26.529 4.396-49.913 19.299-64.737 40.899a88.9 88.9 0 0 0-11.095 3.205l-100.126-57.386c-5.018-2.843-7.439-5.892-6.602-11.667.335-2.302-.377-4.769-.753-7.14-3.428-21.586-24.561-39.642-50.069-35.456-25.024 4.115-40.913 26.737-36.783 50.951 5.267 30.924 40.591 46.577 67.241 29.661 3.007-1.909 5.087-2.058 8.169-.263 6.328 3.687 15.953 8.991 28.874 15.912l59.349 34.274c-16.287 15.423-26.441 36.978-26.441 60.962 0 18.538 6.064 35.619 16.334 49.54L94.036 431.2l-10.114 5.439c-1.501.851-4.415.675-5.939-.245-7.171-4.324-14.808-7.197-23.165-7.42-27.804-.711-44.713 21.977-45.663 41.688-1.1 23.088 16.386 46.738 44.665 46.526 24.8-.186 43.672-20.052 43.427-44.839-.039-4.428 1.264-6.934 5.153-9.14l85.548-49.241c13.51 8.234 29.474 12.981 46.517 12.981zm330.288-186.811c-3.229 1.928-4.349 3.892-4.34 7.568l.015 170.753c-.006 3.419.866 5.482 4.005 7.287 20.237 11.686 30.478 33.241 26.843 55.9-3.485 21.713-20.855 39.549-43.355 43.82-13.045 2.486-25.681.507-37.114-6.503-3.485-2.131-5.94-1.755-9.207.126l-147.074 84.774c-3.356 1.931-4.614 4.05-4.605 7.965.051 27.386-21.102 51.218-47.527 53.874-28.145 2.838-53.029-14.835-59.109-42.125-.932-4.196-1.246-8.583-1.341-12.877-.072-2.909-.878-4.691-3.467-6.189L89.307 518.53c-2.691-1.566-4.805-1.578-7.52.063-32.472 19.532-73.859.809-80.746-35.679-4.345-23.05 5.044-44.602 25.69-56.741 3.261-1.925 4.737-3.862 4.731-7.846l-.036-170.758c.003-3.42-.887-5.443-4.02-7.261C6.68 228.279-3.071 207.378.91 183.91c3.954-23.312 21.996-40.415 45.476-43.757 12.585-1.788 24.722.504 35.611 7.451 2.53 1.618 4.408 1.567 6.983.084l148.764-85.727c3.001-1.725 4.172-3.703 4.181-7.237.081-31.349 24.872-55.348 56.284-54.712 24.483.489 47.393 20.683 50.866 44.826.317 2.22.815 3.587.815 6.643 0 6.694 2.467 9.532 7.682 12.51l144.161 83.074c3.298 1.916 5.693 1.994 9.127.048 32.595-18.577 72.116-.773 80.051 35.986.746 3.42.675 7.019.934 10.144-.534 20.865-9.598 36.416-27.09 46.896zM526 472.435c0-7.212 5.181-12.45 12.277-12.435 6.832.036 12.654 5.674 12.722 12.349.075 6.425-6.146 12.639-12.621 12.651-6.933 0-12.375-5.52-12.378-12.565zM283 54.396c.027-6.993 5.475-12.389 12.515-12.395 7.052-.006 12.458 5.379 12.485 12.398.018 6.731-5.855 12.684-12.461 12.601-6.717-.065-12.56-5.946-12.539-12.604zM66 472.485c-.027 7.04-5.52 12.571-12.421 12.515-6.521-.063-12.549-6.14-12.579-12.702C40.968 465.742 46.933 460 53.778 460c7.091.006 12.249 5.27 12.222 12.485zM295.653 600c7.035.049 12.38 5.513 12.347 12.624-.045 7.085-5.469 12.421-12.599 12.376-7.071-.037-12.477-5.54-12.4-12.63.08-7.051 5.591-12.424 12.652-12.37zM53.918 205.999c-7.129.064-12.701-5.243-12.912-12.28-.211-6.858 5.427-12.614 12.455-12.717 7.337-.112 12.434 4.882 12.538 12.271.11 7.425-4.865 12.66-12.08 12.726zm484.215.001c-7.209-.052-12.204-5.294-12.132-12.716.071-7.369 5.185-12.38 12.524-12.283 7.037.1 12.638 5.803 12.471 12.695-.166 6.983-5.779 12.355-12.863 12.304zM235.011 396C203.525 396 178 371.43 178 341.122c0-30.186 25.319-54.679 56.629-54.877C244.651 262.628 268.615 246 296.584 246c36.669 0 66.454 28.581 66.959 64.025.038-.001.076-.001.115-.001 24.489 0 44.342 19.247 44.342 42.988 0 22.653-18.073 41.213-41.003 42.868-.155.077-.33.12-.515.12H235.659c-.027 0-.053 0-.08-.003l-.568.003zM1639.24 274.097h-69.85v-47.549h69.85 47.95v139.169c0 51.657-30.35 76.573-75.27 76.573-33.08 0-54.93-14.585-69.5-31.905l29.44-32.817c12.14 13.37 23.98 21.27 38.85 21.27 17.6 0 28.53-10.635 28.53-35.248v-89.493zM851.194 376.413c0 42.198-32.182 65.877-78.025 65.877-32.182 0-64.667-11.232-90.169-34.001l27.627-33.091c19.127 15.787 39.165 25.805 63.453 25.805 19.126 0 30.663-7.59 30.663-20.037v-.607c0-11.84-7.286-17.911-42.807-27.019-42.808-10.929-70.435-22.769-70.435-64.967v-.607c0-38.555 30.967-64.056 74.381-64.056 30.967 0 57.381 9.714 78.936 27.019l-24.288 35.215c-18.823-13.054-37.342-20.947-55.255-20.947s-27.324 8.197-27.324 18.519v.607c0 13.965 9.108 18.519 45.844 27.93 43.111 11.232 67.399 26.715 67.399 63.752v.608zM1049.9 269.737h-64.631v169.715h-46.731V269.737h-64.635v-43.189H1049.9v43.189zM1295.45 333c0 60.47-47.77 110-113.5 110-65.72 0-112.89-48.923-112.89-109.392V333c0-60.47 47.78-110 113.5-110 65.73 0 112.89 48.923 112.89 109.392V333zm-48.97.606V333c0-36.387-26.78-66.71-64.53-66.71-37.74 0-63.92 29.716-63.92 66.104V333c0 36.387 26.79 66.71 64.53 66.71 37.75 0 63.92-29.716 63.92-66.104zM1519 439.452h-54.69l-45.57-68.129h-36.76v68.129h-46.79V226.548h97.22c50.13 0 80.21 26.461 80.21 70.258v.609c0 34.368-18.53 55.963-45.57 66l51.95 76.037zm-53.94-139.351v-.608c0-20.04-13.94-30.364-36.66-30.364h-46.37v61.032h47.28c22.72 0 35.75-12.145 35.75-30.06z" fill="#000"/></svg>
