<svg xmlns="http://www.w3.org/2000/svg" width="180" height="41" fill="#000"><path d="M60.372 9.095h1.485v5.855c0 .793-.059 1.391-.174 1.794s-.258.74-.428 1.008a3.21 3.21 0 0 1-.624.72c-.817.704-1.885 1.056-3.205 1.056-1.343 0-2.422-.35-3.234-1.049a3.36 3.36 0 0 1-.623-.727 3.76 3.76 0 0 1-.421-.986c-.111-.389-.166-.999-.166-1.831v-5.84h1.484v5.855c0 .97.111 1.645.332 2.024s.559.683 1.012.912.987.343 1.602.343c.876 0 1.59-.229 2.142-.687a2.12 2.12 0 0 0 .627-.871c.129-.334.192-.908.192-1.721V9.095zm19.287 0h1.403V19.41h-1.27l-6.897-7.944v7.944h-1.388V9.095h1.196l6.956 8.012V9.095zm17.006 0h1.846l-4.475 4.896 5.575 5.42h-2.016l-5.272-5.096v5.096h-1.476V9.095h1.476v4.718l4.343-4.718zm19.84 0h1.403V19.41h-1.27l-6.896-7.944v7.944h-1.388V9.095h1.195l6.956 8.012V9.095zm16.293 1.255c-1.18 0-2.15.369-2.91 1.107s-1.14 1.681-1.14 2.828c0 1.113.381 2.038 1.143 2.777s1.717 1.107 2.863 1.107 2.111-.377 2.88-1.13 1.155-1.691 1.155-2.813c0-1.093-.385-2.012-1.155-2.758s-1.715-1.119-2.836-1.119zm-.059-1.403c1.594 0 2.921.505 3.981 1.514s1.59 2.274 1.59 3.796-.535 2.78-1.605 3.777-2.418 1.495-4.047 1.495c-1.554 0-2.85-.499-3.885-1.495s-1.554-2.246-1.554-3.748c0-1.541.521-2.816 1.565-3.825s2.362-1.514 3.955-1.514zm27.484.148h1.472l-4.17 10.36h-.324l-3.373-8.388-3.408 8.388h-.317l-4.158-10.36h1.488l2.843 7.111 2.862-7.111h1.396l2.875 7.111 2.814-7.111zm18.374 0H180V19.41h-1.27l-6.896-7.944v7.944h-1.388V9.095h1.195l6.956 8.012V9.095zM74.113 26.063l-2.902 6.521h-1.282l-2.846-6.521h2.02l1.472 3.716 1.514-3.716h2.025zm5.735 6.437h-4.854v-6.437h4.775v1.291h-2.833v1.18h2.703v1.296h-2.703v1.375h2.912V32.5zm8.29 0h-1.727l-3.339-3.585V32.5H81.15v-6.437h1.723l3.33 3.567v-3.567h1.936V32.5zm7.788-4.872h-2.359V32.5h-1.936v-4.872h-2.359v-1.566h6.654v1.566zm7.839 1.988c0 .551-.102 1.021-.308 1.41a2.47 2.47 0 0 1-.818.922 3.5 3.5 0 0 1-1.096.488 4.76 4.76 0 0 1-1.172.149c-.545 0-1.075-.093-1.59-.279a2.83 2.83 0 0 1-1.294-.947c-.347-.446-.52-1.026-.52-1.741v-3.553h1.936v3.051c0 .424.062.775.183 1.053a1.26 1.26 0 0 0 .511.608c.218.128.477.193.774.193a1.48 1.48 0 0 0 .756-.191c.219-.127.392-.329.514-.604s.183-.626.183-1.05v-3.061h1.941v3.553zm5.119-1.519c0-.297-.098-.505-.293-.623s-.513-.176-.952-.176h-.409v1.551h.418c.474 0 .799-.051.974-.155s.262-.303.262-.597zm2.638 4.403h-2.086l-.505-1.143c-.187-.418-.354-.723-.502-.916s-.294-.318-.435-.372-.323-.082-.546-.082h-.218V32.5h-1.941v-6.437h3.302c.533 0 .969.109 1.31.325s.585.48.736.79.225.604.225.882c0 .325-.063.6-.188.824s-.258.388-.398.491-.295.2-.469.292a1.85 1.85 0 0 1 .514.429c.135.165.318.501.55 1.006l.651 1.398zm5.735 0h-4.853v-6.437h4.774v1.291h-2.833v1.18h2.703v1.296h-2.703v1.375h2.912V32.5zm9.888-.483a4.55 4.55 0 0 1-.818.334c-.278.083-.56.143-.843.179a6.98 6.98 0 0 1-.88.053c-.56 0-1.063-.078-1.507-.232a3.25 3.25 0 0 1-1.156-.685 2.89 2.89 0 0 1-.734-1.059c-.163-.404-.244-.847-.244-1.33 0-.554.096-1.04.288-1.457s.46-.762.805-1.038.739-.479 1.18-.61a4.88 4.88 0 0 1 1.396-.197c.731 0 1.559.163 2.484.487v1.709c-.318-.198-.633-.363-.944-.495s-.678-.197-1.099-.197a2.49 2.49 0 0 0-1.05.223 1.93 1.93 0 0 0-.784.637c-.198.275-.297.597-.297.965a1.62 1.62 0 0 0 .26.894 1.84 1.84 0 0 0 .721.646 2.23 2.23 0 0 0 1.043.239c.313 0 .609-.037.887-.113a4.06 4.06 0 0 0 .704-.253c.19-.093.386-.202.588-.329v1.63zm5.415-1.941l-.943-2.35-.952 2.35h1.895zm2.958 2.424h-1.987l-.526-1.305h-2.795l-.535 1.305h-1.987l2.846-6.437h2.146l2.838 6.437zm4.449-4.403c0-.306-.09-.516-.272-.629s-.505-.169-.972-.169h-.409v1.551h.418c.322 0 .569-.02.743-.06s.299-.115.376-.223.116-.264.116-.469zm1.978-.009c0 .238-.04.471-.123.699s-.214.44-.397.637-.429.356-.741.478-.677.183-1.098.183h-1.272V32.5h-1.941v-6.437h3.213c.421 0 .787.063 1.098.187s.559.284.741.483a1.87 1.87 0 0 1 .397.645c.081.232.123.469.123.711zM11.917 40.977H0V.117h11.917v40.859zm30.256 0H30.256V.117h11.917v40.859zm-15.128-.123H15.128V28.938h11.917v11.917z"/></svg>
