<svg xmlns="http://www.w3.org/2000/svg" viewBox="0 0 2000 742.9" fill="currentColor"><path d="M754.72 439.82a5.17 5.17 0 0 0-3.72-1.51 5.58 5.58 0 0 0-3.83 1.75 128.08 128.08 0 0 1-12.7 10.3 69.44 69.44 0 0 1-13.5 7.4 78.72 78.72 0 0 1-16.16 4.61 117.63 117.63 0 0 1-20.36 1.6 85.74 85.74 0 0 1-32.92-6.28 74.48 74.48 0 0 1-26.14-18.1 85.13 85.13 0 0 1-17.31-29 113.26 113.26 0 0 1-6.33-39.09 110.77 110.77 0 0 1 6.49-38.68 84.93 84.93 0 0 1 17.67-29.08 76.45 76.45 0 0 1 26.7-18.32 90.54 90.54 0 0 1 34.61-6.49 98.6 98.6 0 0 1 18.31 1.51 87.31 87.31 0 0 1 14.12 3.79 59.23 59.23 0 0 1 10.28 4.77l7.33 4.91 4.83 3.81a9.23 9.23 0 0 0 5.51 2.64 5.61 5.61 0 0 0 4.33-2.17l.72-1.12-.72-5.17a139.29 139.29 0 0 0-13.78-10.28 78.63 78.63 0 0 0-14.69-7.53 83.84 83.84 0 0 0-16.61-4.45 123.07 123.07 0 0 0-19.65-1.43 101.8 101.8 0 0 0-39.35 7.44A88.91 88.91 0 0 0 617 296.86a96.56 96.56 0 0 0-19.84 32.78 121.54 121.54 0 0 0-7 41.91 124.66 124.66 0 0 0 7 42.79A95.16 95.16 0 0 0 616.85 447a85.77 85.77 0 0 0 30 20.73 97.39 97.39 0 0 0 37.62 7.18 116.84 116.84 0 0 0 22.85-2.16 99 99 0 0 0 19.1-5.78 88.16 88.16 0 0 0 16-8.89A108.15 108.15 0 0 0 756 446.77l-.13-5.91zm246.22-169.46l-4.04 4.02v90H868.52v-90l-4.05-4.02h-3.33l-4.04 4.02v194.17l4.04 4.05h3.33l4.05-4.05v-93.02H996.9v93.02l4.04 4.05h3.33l4.05-4.05V274.38l-4.05-4.02h-3.33zm178.66.71h-2.79l-3.72 2.49-81 194.17 3.72 5.6h2.19a5.83 5.83 0 0 0 5.74-4l74.42-178.76 74.51 178.74a5.64 5.64 0 0 0 5.45 4h2.49l3.74-5.6-81-194.15zm178.07-.71l-4.04 4.02v194.17l4.04 4.05h3.33l4.05-4.05V274.38l-4.05-4.02h-3.33zm274.07 0H1629l-4 4V450.1l-130-176.9a6.2 6.2 0 0 0-5.33-2.84h-1.1l-4 4v194.19l4 4.05h2.79l4-4.05V292.17l130.67 177.77a5.81 5.81 0 0 0 4.82 2.66h.82l4-4.05V274.38zm-1142.62 23.5a64 64 0 0 0-23.45-19.48 66.34 66.34 0 0 0-56.75 0 64.14 64.14 0 0 0-23.48 19.48 98.8 98.8 0 0 0-15.51 32.27 162.86 162.86 0 0 0-5.64 45.44 162.25 162.25 0 0 0 5.64 45.3 97.89 97.89 0 0 0 15.54 32.23 63.67 63.67 0 0 0 23.47 19.35 67.08 67.08 0 0 0 56.7 0 64.06 64.06 0 0 0 23.48-19.35 98.56 98.56 0 0 0 15.53-32.23 162.25 162.25 0 0 0 5.65-45.3 162.5 162.5 0 0 0-5.65-45.44 98.85 98.85 0 0 0-15.53-32.27zm-51.93 169.35a53.6 53.6 0 0 1-23.34-5.21 52.36 52.36 0 0 1-17.74-14.25l87.55-136.54a96.33 96.33 0 0 1 9.34 22.36 154.53 154.53 0 0 1 5 41.89 154.32 154.32 0 0 1-5 41.86 86.74 86.74 0 0 1-13.29 28.49A52.34 52.34 0 0 1 460.54 458a52.91 52.91 0 0 1-23.26 5.26zm-55.9-49.89a153.94 153.94 0 0 1-5-41.86 154.16 154.16 0 0 1 5-41.89A87 87 0 0 1 394.7 301a52.94 52.94 0 0 1 65.82-16.29 51.38 51.38 0 0 1 16.44 13L389.62 434a97.51 97.51 0 0 1-8.33-20.68z"/></svg>
