<svg xmlns="http://www.w3.org/2000/svg" width="127.38" height="50" viewBox="0 0 204 80" fill="none"><g clip-path="url(#A)" fill="currentColor"><path d="M89.524 22.095h7.619v30.476h7.619V14.476h-7.619c-4.19 0-7.619 3.429-7.619 7.619zm22.857 30.476H120V37.333c0-4.19-3.429-7.619-7.619-7.619v22.857zm15.238-22.857v22.857h7.619V37.333h7.619v7.619c0 4.191 3.429 7.619 7.619 7.619V37.333c0-4.19-3.428-7.619-7.619-7.619h-15.238zm68.571 0h-7.619v-7.619c0-4.19-3.428-7.619-7.619-7.619v30.476h-15.238v-7.619h7.619v-7.619h-7.619c-4.19 0-7.619 3.429-7.619 7.619v7.619c0 4.191 3.429 7.619 7.619 7.619h22.857V37.333h7.619v7.619c0 4.191 3.429 7.619 7.62 7.619V37.333c0-4.19-3.429-7.619-7.62-7.619zm-83.809-7.619H120c0-4.19-3.429-7.619-7.619-7.619v7.619z"/><path d="M101.402 60.19v4.986h-.698l-2.742-3.455v3.455h-.819V60.19h.698l2.742 3.469V60.19h.819zm15.499 4.987h-2.956V60.19h2.885v.819h-2.009v1.239h1.795v.819h-1.795v1.289h2.08v.819zm14.159-4.167h-1.617v-.819h4.11v.819h-1.617v4.167h-.876V61.01zm21.14-.82h.841l-1.425 4.986h-.819l-1.204-3.604-1.182 3.604h-.827l-1.489-4.986h.984l1.004 3.555 1.111-3.555h.869l1.14 3.562.997-3.562zm13.383 2.572c0-.726.242-1.337.726-1.831.494-.494 1.116-.741 1.867-.741s1.37.238 1.859.712.74 1.099.74 1.859c0 .745-.246 1.361-.74 1.845s-1.114.726-1.859.726c-.751 0-1.37-.237-1.86-.712s-.733-1.095-.733-1.859zm.926 0c0 .503.159.921.477 1.254a1.58 1.58 0 0 0 1.19.498c.512 0 .918-.166 1.218-.498s.456-.75.456-1.254-.162-.928-.485-1.261-.719-.491-1.189-.491a1.6 1.6 0 0 0-1.197.491c-.318.327-.47.748-.47 1.261zm17.685.563v1.866h-.876v-4.986l.805-.007.712-.007c1.206 0 1.809.513 1.809 1.539 0 .38-.097.693-.292.94-.194.237-.418.399-.669.484l1.56 2.037h-1.062l-1.374-1.866h-.613zm.598-2.315c-.023 0-.061.002-.114.007l-.22.007h-.264v1.482h.57c.28 0 .508-.069.684-.207a.67.67 0 0 0 .27-.563c0-.484-.308-.726-.926-.726zm15.869 4.167h-.876V60.19h.876v2.365l1.966-2.365h1.055l-2.051 2.322 2.179 2.664h-1.111l-2.038-2.571v2.571z" fill-opacity=".7"/><path fill-rule="evenodd" d="M62.838 14.01c-2.339-1.518-4.005-2.175-4.005-2.175l2.66.157 1.979.163 1.736.18-3.082-2.206c-6.169-3.989-11.965-5.232-16.793-5.232-4.261 0-7.766.964-10.111 1.862-1.889.724-3.025 1.406-3.194 1.508l-.007.004 2.438-3.875.182-1.896c.658.063 1.236.463 1.527 1.056.124.251.188.522.195.794 2.368-.734 5.425-1.358 8.971-1.358 6.038 0 13.393 1.823 21.052 7.845.67.527.908 1.435.584 2.223a1.9 1.9 0 0 1-.841.943c1.379 1.056 2.86 2.349 4.315 3.906 5.276 5.643 10.158 14.683 8.848 28.173-.075.769-.606 1.417-1.346 1.64a1.9 1.9 0 0 1-1.018.023C76.5 53.51 73.986 63.043 63.164 71.17c-.649.487-1.535.51-2.208.057a1.9 1.9 0 0 1-.63-.708l-.333.306c-3.077 2.785-7.76 5.829-14.086 6.709-.087.012-.175.018-.262.018h-.062c-.787 0-1.492-.483-1.776-1.217a1.9 1.9 0 0 1-.102-.369c-1.561.31-3.397.523-5.497.523-3.534 0-7.809-.601-12.818-2.357-.957-.336-1.483-1.362-1.197-2.336s1.286-1.551 2.272-1.314c1.418.34 2.831.51 4.306.51 9.586 0 17.095-7.155 17.095-15.72 0-4.222-1.791-8.094-4.806-10.952l-.025.032-2.105 2.737c-.95 1.334-1.284 2.071-1.209 2.739.324 2.173-.345 4.31-1.58 5.874a1.86 1.86 0 0 1-.049.059c-.489.57-1.418 1.38-2.245 2.102l-.113.098c-.833.727-1.649 1.44-2.241 2.032-.015.015-.031.031-.047.046-1.476 1.377-3.402 1.575-4.55 1.575-.318 0-.604-.024-.797-.04l-.011-.001c-.198-.017-.27-.021-.317-.021h-.188a1.65 1.65 0 0 0-.073.001c-.036.022-.099.066-.201.146-.14.11-.316.26-.561.475-.469.44-1.03.633-1.405.727a5.51 5.51 0 0 1-1.321.151c-1.112 0-2.387-.249-3.435-.509-1.078-.267-2.059-.583-2.636-.787l-.06-.023c-.549-.215-.96-.578-1.241-.877-.295-.315-.55-.674-.769-1.024-.437-.701-.826-1.534-1.148-2.329-.621-1.533-1.14-3.293-1.23-4.157-.06-.573.079-1.116.183-1.456.12-.391.286-.799.459-1.185.341-.76.789-1.607 1.175-2.337l.016-.031.698-1.351c.092-.188.16-.339.207-.453.033-.08.046-.12.049-.129.105-.494.43-2.915.763-5.521l.701-5.645c.052-.439.044-.652 0-.855-.048-.22-.172-.565-.548-1.182l-.011-.018c-.837-1.422-.879-2.814-.528-4.516C12.414 25.712 1.608 17.731.939 17.184c-.409-.341-.811-.829-.933-1.501a2.13 2.13 0 0 1 .033-.92c.035-.133.08-.251.127-.352.024-.051.048-.097.073-.14.012-.021.024-.042.036-.062l.018-.029.013-.021.002-.003c.001-.002.002-.003 1.587 1.053 0 0-.125.188.25.5a7.33 7.33 0 0 0 .162.127l.039.03.904.68 2.073 1.538 13.51 9.75c-.625 2.25-.625 3.313 0 4.375.875 1.438.938 2.187.812 3.25l-1.5 11.375c-.101.454-.589 1.377-1.126 2.394-.794 1.502-1.698 3.211-1.623 3.919.125 1.187 1.75 6.25 3.188 6.813 1.062.375 3.688 1.187 5.438 1.187.625 0 1.187-.125 1.438-.375 1.063-.937 1.375-1.125 2.125-1.125h.188c.143 0 .299.013.468.027h0c.201.017.419.035.656.035 1 0 2.312-.187 3.25-1.062.648-.648 1.519-1.407 2.336-2.121.917-.8 1.768-1.542 2.164-2.004.938-1.188 1.438-2.812 1.188-4.437-.188-1.5.625-2.813 1.562-4.125l3.375-4.375c.152.115.303.232.451.351.349.28.686.571 1.011.873 3.45 3.203 5.538 7.615 5.538 12.464 0 8.441-6.37 15.476-14.894 17.214a20.55 20.55 0 0 1-4.106.411 20.15 20.15 0 0 1-4.75-.562 43.28 43.28 0 0 0 4.75 1.376c1.483.336 2.877.562 4.182.699a31.02 31.02 0 0 0 3.256.175c2.697 0 4.912-.374 6.618-.836 2.762-.748 4.194-1.727 4.194-1.727s-.37.476-1.036 1.213c-.546.604-1.291 1.384-2.193 2.22l-.146.134-.062.057h.062c1.187-.165 2.312-.413 3.375-.724 5.427-1.59 9.252-4.848 11.517-7.321 1.661-1.814 2.483-3.205 2.483-3.205s-.145 1.035-.375 2.318c-.102.568-.22 1.184-.35 1.781-.087.399-.179.79-.275 1.152a40.72 40.72 0 0 0 2.376-1.926c9.155-8.019 10.635-16.943 10.7-21.624l.001-.617v-.008c-.018-1.397-.154-2.309-.193-2.572l-.005-.034-.004-.032a.51.51 0 0 0 .021.029c.007.009.014.02.023.031.108.141.374.468.705.87l.616.749h0 0 0l.002.003.737.895.396.484a44.3 44.3 0 0 0 .17-2.447l.012-.333c.561-16.689-9.069-25.428-14.74-29.108zm-42.653-3.452l.14.463c.277.905.606 1.903.946 2.751.318-.954.69-1.812 1.103-2.583 2.678-4.996 7.09-6.356 9.778-6.703 1.381-.178 2.307-.089 2.307-.089l.18-1.896h-.002L34.63 2.5l-.013-.001-.038-.003-.117-.008a9.81 9.81 0 0 0-.391-.015 14.05 14.05 0 0 0-1.333.04 15.84 15.84 0 0 0-4.241.917c-2.329.857-4.873 2.45-6.851 5.304l-.082-.301-.1-.377-.026-.099-.006-.024-.002-.006c-.164-.642-.649-1.153-1.281-1.349s-1.322-.05-1.82.387l1.256 1.432-1.257-1.431-.002.001-.004.003-.009.008-.023.021-.067.062a7.66 7.66 0 0 0-.209.204 11.07 11.07 0 0 0-.655.73c-.515.625-1.165 1.54-1.729 2.723-.806 1.69-1.425 3.91-1.24 6.556L8.25 15.079l-3.597-1.265-1.115-.383-.349-.115c-.059-.019-.218-.071-.358-.098-.035-.007-.069-.013-.104-.018-.516-.074-1.033-.023-1.503.191a2.26 2.26 0 0 0-.573.372 2.11 2.11 0 0 0-.199.203c-.028.033-.054.066-.078.097a1.92 1.92 0 0 0-.034.046l-.016.023-.008.011-.004.005-.002.003c-.001.001-.002.003 1.583 1.059 0 0 .125-.187.562-.125a2.17 2.17 0 0 1 .16.048c.218.07.612.204 1.147.389l2.461.861 8.479 3.03 2.191.797c-.248-.771-.415-1.51-.515-2.215a11.19 11.19 0 0 1 1.719-7.793c.767-1.176 1.484-1.804 1.484-1.804s.241.946.602 2.161zM1.961 16.923z"/><path d="M34.895 52.96c-.193.241-.867.852-1.51 1.435l-.553.503-.794.714h0l-1.393 1.286c-.25.25-.75.375-1.5.375H27.27c.376-.501 1.043-1.263 1.768-2.037l1.169-1.025c.641-.53 1.282-.889 1.843-1.203 1.025-.573 1.783-.997 1.783-2.048.039-2.13-1.39-2.542-2.45-2.557.316-.073.672-.131 1.012-.131-1.188-.312-2.688 0-3.375.688-.5.458-.611 1.695-.722 2.931l-.215 1.757c-.28 1.455-1.161 2.259-2.509 3.488l-.002.002-.004.004-.485.444-.116.106-4.134-.919s2.75-1.438 3.187-3.062c.392-1.399-.62-5.707-.881-6.815l-.057-.247.025.023c.189.173 1.323 1.21 1.85 2.852 1-2.75 2.312-5.375 2.688-5.625.322-.215 4.105-2.229 5.164-2.792l-1.226 3.417c-1.125.313-2.25.938-3.062 2.187.438-.312 1.813-.5 2.813-.625.875-.062 3.562 1.375 4.25 4.063v.125c.125 1-.187 1.938-.687 2.688zm-2.122-8.565c1.282-.117 2.345.141 2.622.252 2.438-4.625 4.375-7.125 4.875-7.125.053-.007.167-.003.333.003 1.388.048 6.35.218 8.417-4.753 2.216-5.417-.904-10.047-1.117-10.363l-.008-.011c2.625 8.625-3.188 13.437-7.125 13.5-2.187 0-5.125 1.438-5.125 1.438l-2.872 7.061z" fill-opacity=".7"/><path d="M47.895 22.398c.28.136 4.949 2.401 6.295 9.43 3.106 3.625 5.053 8.151 5.58 12.944 0 .313.438.75.875 1.125.563.562 1.125 1.125 1.125 1.688 0 1.5-.125 3-.375 4.438-.111.443-.613.738-1.161 1.06l-.053.031-.064.038-.098.058a14.18 14.18 0 0 1-.276.177h0c-.328.208-.676.427-.724.572-1.273 4.512-3.937 8.541-7.497 11.594 5.878-3.308 10.309-8.868 12.139-15.48a20.36 20.36 0 0 0 .233-8.114c-2.25-12.75-15.25-19.25-16-19.562zm-15.02.628c1.154.058 3.623-.06 5.957-1.753l.699 1.656c-2.871.77-5.446.373-6.656.098zm8.619-.806c1.555-.716 3.127-1.836 4.558-3.55-1.383-.396-2.814-.678-4.282-.836-.437.688-.875 1.313-1.312 1.813l1.037 2.573zm12.464 19.552c.625-3.187.688-5.937.5-8.187 2.438 3.25 3.938 7.188 4.375 11.25.063.5.563 1 1.063 1.5.438.375.938.875.938 1.188a25.13 25.13 0 0 1-.375 4.313c-.059.178-.568.468-.993.71l-.069.04c-.625.313-1.188.625-1.313 1.125-1.375 4.813-4.313 9.063-8.25 12.063 5.812-6.062 8.625-16.062 4.125-24z" fill-opacity=".7"/><path fill-rule="evenodd" d="M26.27 18.022s-1.125-8.062 4.5-11.437l-.113.043c-1.15.432-9.518 3.578-4.387 11.394zm12.125-7.375c4.312-1.625 10.312-2.5 19.625-.75-4.125-2.062-8.437-3.125-12.75-3.188-1.625 0-3.125.125-4.5.375-4.875.875-8.875 4.375-10.25 9.062 0 0 1-1.563 3.375-3.188l.099-.134c.877-1.191 2.199-2.986 3.463-4.49.375.813.812 1.812.938 2.312zM60.02 21.022c8.812 5.812 12.812 12.25 15.625 19.812-.125-8-2.812-14.875-8-20.375l-.125-.125c-4.562-4.812-11.25-7.062-17.875-6.125-2.5.313-5 .813-6.937 1.438-.312.063-.625.125-.937.25h.125c.5-.062 9.625-.5 18.125 5.125zm8.125 39.75c-.937 1.25-2 2.563-3.25 3.813 8.063-15.5.375-29.687.063-30.25.563.563 1.125 1.187 1.625 1.75 6.187 6.875 6.938 17.187 1.562 24.687zM18.817 12.707c-.237.906-2.344 8.947 4.765 9.19-4.25-2.562-4.75-9.188-4.75-9.25l-.003.014-.004.016-.008.03zm12.39 16.753l-3.25 5.563s3-1.375 4.187-3.125c.938-1.5-.937-2.437-.937-2.437zm-2.169 25.775a27.47 27.47 0 0 1 1.169-1.025c.641-.53 1.282-.889 1.843-1.202 1.025-.573 1.782-.997 1.782-2.047.039-2.13-1.39-2.542-2.45-2.557l.049-.011c-.579.13-1.037.318-1.037.318s1.813-.313 2.5 1 .125 2.063-1 2.812c-.562.374-1.774 1.557-2.857 2.713zm5.92-19.275c-.288.247-1.255 2.719-2.149 5.146l-5.164 2.792c-.375.25-1.687 2.875-2.687 5.625-.528-1.642-1.661-2.679-1.851-2.852l-.025-.023c.006.032.027.118.057.247.26 1.108 1.272 5.416.881 6.815-.438 1.625-3.188 3.063-3.188 3.063l4.134.919c-.815.728-1.406.956-1.884.956-1.062-.187-2.312-.5-3.188-.812-.625-.813-1.562-3.5-1.812-4.625.135-.45.561-1.255.929-1.951h0 0 0v-.001l.383-.735.104-.2c.687-1.314 1.089-2.086 1.208-2.8.25-1.062 1.063-7.625 1.375-10.375.812 1.063 1.938 2.813 1.688 3.938 1.813-2.562.5-5.062-.125-6.062-.562-1-1.313-3-.687-5.125s2.875-8 2.875-8 .75 1.313 1.813 1.062S37.27 9.835 37.27 9.835s2.313 5.062-.125 8.75c-2.5 3.688-4.937 4.375-4.937 4.375s.246.045.668.066c1.211.276 3.785.673 6.656-.098 1.027 2.469 1.875 4.673 1.926 5.032l-.271.643v.002h0 0v.001l-2.665 6.166c-.125.125-1 .375-1.625.5-1.063.312-1.688.5-1.937.687zm1.687-22.375s.563 2.5-.875 4.188c-1.812 2.062-3.375 2-3.312 2l4.187-6.187zm-14.437 35.5l-.5 2.5s1-.125 1 1c0 .875-1 2.062-1.812 2.125s-1.125-.937-.937-1.5c.187-.5 2.25-4.125 2.25-4.125zM31.77 28.21c2.188.438 2.813 3 1.625 4.375-1.188 1.313-4.188 3.188-5.938 3.625-.375 1.438-3.562.813-2.375-3.75 0 0 .563 2.188 1.125 2s6.938-10.187 6.938-10.187-.812 2.625-1.375 3.937zm-2.218 23.268c-.034.605-.09 1.593-.532 2.232a35.39 35.39 0 0 0 .353-.371h0l1.084-1.129a4.53 4.53 0 0 1 .622-.447c.462-.293.878-.556.878-1.116 0-.875-1.188-1.062-1.688-.937s-.625.937-.687 1.375c-.013.093-.021.229-.03.393zm29.03 2.42c-1.375 4.938-4.5 9.313-8.562 12.438.511-.244 1.012-.505 1.503-.781 3.56-3.053 6.225-7.082 7.497-11.594.048-.145.395-.365.724-.572h0l.276-.177.057-.034.04-.024.064-.038.053-.031c.547-.322 1.05-.618 1.16-1.06.25-1.437.375-2.937.375-4.437 0-.562-.562-1.125-1.125-1.687-.437-.375-.875-.813-.875-1.125-.527-4.793-2.474-9.32-5.579-12.944l.079.444c2.813 3.563 4.625 7.875 5.125 12.438 0 .233.28.537.551.832.092.1.183.198.261.293.563.563 1.125 1.125 1.125 1.687 0 1.5-.125 3-.375 4.438-.125.5-.75.875-1.375 1.188-.085.056-.179.116-.274.176l-.002.001h0c-.328.208-.675.427-.724.572zm-10.687-31.5h0c.755.315 13.75 6.815 15.999 19.562a20.35 20.35 0 0 1-.233 8.113c.6-2.168.92-4.449.92-6.801 0-11.677-7.84-21.541-18.531-24.602-1.431 1.713-3.002 2.834-4.557 3.55 1.061 2.649 2.338 5.888 2.338 6.115 0 .375-1.187 3.438-1.312 3.563-.125.062-1.562.187-2.125.187-.625 1.5-1.25 2.938-1.375 3.125-.188.25-.75.437-1.937.75l-.41.12c-.562.164-1.178.343-1.277.442-.312.375-2 4.813-3.125 7.938.17-.028.339-.05.503-.065l2.872-7.061s2.938-1.437 5.125-1.437c3.938-.063 9.75-4.875 7.125-13.5zm-26.063 3.438c.437-.813.063-1.375-.312-1.688l-.125-.125c-.75-.375-5.437-2.125-10.062-3.75 4.063 2.687 8.563 5.312 9.312 5.687.563.25.938.313 1.188-.125z"/></g><defs><clipPath id="A"><path fill="currentColor" d="M0 0h203.81v80H0z"/></clipPath></defs></svg>
