<svg xmlns="http://www.w3.org/2000/svg" width="167" height="68" fill="currentColor"><path d="M93.224 44.237l-8.071-19.585a1.72 1.72 0 0 1-.1-.556c-.016-.4.125-.791.393-1.088a1.39 1.39 0 0 1 1.073-.417 1.45 1.45 0 0 1 .833.278c.252.189.45.442.571.733l7.678 19.16 7.679-19.16a1.76 1.76 0 0 1 .578-.733 1.45 1.45 0 0 1 .834-.278 1.39 1.39 0 0 1 1.065.417 1.54 1.54 0 0 1 .401 1.088 1.75 1.75 0 0 1-.1.556l-8.072 19.585a2.17 2.17 0 0 1-2.022 1.505h-.718a2.17 2.17 0 0 1-2.022-1.505zm16.369.903a1.44 1.44 0 0 1-.316-.482 1.43 1.43 0 0 1-.101-.567V24.259a1.52 1.52 0 0 1 .417-1.08c.134-.142.297-.254.478-.329a1.38 1.38 0 0 1 .571-.103h13.119a1.29 1.29 0 0 1 .987.416 1.34 1.34 0 0 1 .312.45c.072.17.108.353.105.538a1.26 1.26 0 0 1-.417.972 1.38 1.38 0 0 1-.457.301 1.39 1.39 0 0 1-.538.101h-11.598v7.223h10.433a1.29 1.29 0 0 1 .987.417 1.37 1.37 0 0 1 .417.988 1.26 1.26 0 0 1-.417.972 1.39 1.39 0 0 1-.987.401h-10.433v7.254h11.598a1.3 1.3 0 0 1 .995.417 1.34 1.34 0 0 1 .314.454c.072.171.107.356.103.542a1.26 1.26 0 0 1-.417.972 1.38 1.38 0 0 1-.458.297 1.37 1.37 0 0 1-.537.097h-13.111a1.3 1.3 0 0 1-.572-.088 1.28 1.28 0 0 1-.477-.329zm-22.611-1.459l-8.079-19.585a2.17 2.17 0 0 0-2.014-1.505h-.71a2.17 2.17 0 0 0-2.022 1.505l-3.511 8.535h-2.662a1.46 1.46 0 0 0-1.443 1.451v.015a1.46 1.46 0 0 0 1.443 1.451h1.427l-3.349 8.133a1.72 1.72 0 0 0-.1.556 1.53 1.53 0 0 0 .394 1.088 1.39 1.39 0 0 0 1.073.417 1.45 1.45 0 0 0 .833-.278 1.77 1.77 0 0 0 .571-.733l3.696-9.183h2.539a1.46 1.46 0 0 0 1.443-1.451v-.038a1.46 1.46 0 0 0-1.443-1.451h-1.374l2.84-7.038 7.678 19.16c.121.291.319.544.571.733a1.45 1.45 0 0 0 .833.278 1.39 1.39 0 0 0 1.08-.417c.265-.299.404-.689.386-1.088a1.31 1.31 0 0 0-.093-.556h-.008zm-24.121.001L54.79 24.097a2.17 2.17 0 0 0-2.029-1.505h-.71a2.17 2.17 0 0 0-2.022 1.505l-3.511 8.535h-2.662a1.46 1.46 0 0 0-1.443 1.451v.015a1.46 1.46 0 0 0 1.443 1.451h1.428l-3.349 8.133a1.72 1.72 0 0 0-.1.556c-.016.4.126.791.394 1.088a1.39 1.39 0 0 0 1.072.417 1.45 1.45 0 0 0 .833-.278c.252-.189.449-.442.571-.733l3.696-9.183h2.554a1.46 1.46 0 0 0 1.451-1.451v-.039a1.46 1.46 0 0 0-1.451-1.451h-1.366l2.816-7.037 7.678 19.16c.122.291.319.544.571.733a1.45 1.45 0 0 0 .833.278 1.39 1.39 0 0 0 1.08-.417c.265-.299.404-.689.386-1.088.01-.19-.022-.379-.093-.556z"/></svg>
