<svg xmlns="http://www.w3.org/2000/svg" viewBox="0 0 2000 742.9" fill="currentColor"><path d="M559.85 448.18L516.18 501V395.47zm192.89-52.71V501l-43.69-52.85zM561 328.45v115.31l-44.79-53.94 1.2-2.45h0zm48.07 60.2l-44.44 53.79v-114.3zm21.74-43.8L611 385.1l-43.39-59zm121.93 44.97L708 443.76V328.45l43.59 58.92zm-48.44-61.68v114.3l-44.46-53.79zm4.7-4.37l.33.44-1-1.57 2.35-3.16h0l4.8-6.62 27.47 56.65zm-149.95 1.15l.85-1.15-33.85 45.74 27.46-56.65 4.81 6.62h-.05l2.32 3.16zm142.23 1.15l-43.41 59L638 344.88zm1.56-4.27L638 341.09l31.13-59.18L684 299.52l4.83 5.7zm10.51-12.31l-7.29 10.09-.07.1-2.58-2.83.89 1L682.4 292l-.33-.41-1.33-1.59-9.45-11.17-.34-.41-2.39-2.84.22.24h0l-13.55-16.2zM663 274.66l-28.49-5.88h-.16l-28.59 6.08 25.63-30.36 3.07-2.61 3 2.58h0zm2.49 4.44l-30.16 59.11-.28.59-.56 1.45-.66-1.53-30.41-59.64 30.79-6.57zm-34.7 61.97l-64.73-19.27 18.83-22.28 15.39-18.17zm-30.87-65.01l.17-.2-1.63 1.94-2.4 2.86h.08l-1 1.25-30.46 36 .37-.43-2.08 2.22-.08-.1-7.25-10.09 57.9-49.65zm461.86 211.47h-45.35l-12.69-38.1h-84.36l-12.7 38.1h-45l74.08-211.64h51.7zM961.71 324l-29 86.47h58.05zm120.63-48.07h84.05q43.53 0 72.56 30.53 29.33 30.24 29.33 75.29 0 45.05-29.28 75.25-29 30.54-72.56 30.54h-84.05zm41.72 171.73h42.33q27.51 0 44.75-18.14 17.23-18.75 17.23-47.77 0-29.32-17.23-47.47-17.23-18.44-44.75-18.44h-42.33zm173.82-171.73h84q43.53 0 72.56 30.53 29.33 30.24 29.33 75.29 0 45.05-29.28 75.25-29 30.54-72.56 30.54h-84zm41.72 171.73h42.33q27.51 0 44.75-18.14 17.23-18.75 17.23-47.77 0-29.32-17.23-47.47-17.23-18.44-44.75-18.44h-42.33z"/></svg>
