<svg xmlns="http://www.w3.org/2000/svg" width="2000" height="743" fill="currentColor"><path d="M926.049 331.142h11.552v85.584h-11.552v-85.584zm5.857-18.712c-2.386 0-4.393-.813-6.02-2.44s-2.441-3.58-2.441-5.858c0-2.169.814-4.067 2.441-5.694s3.634-2.441 6.02-2.441 4.393.814 6.02 2.441c1.627 1.518 2.441 3.362 2.441 5.532 0 2.386-.814 4.393-2.441 6.02s-3.634 2.44-6.02 2.44zm177.524 18.061c10.74 0 19.25 3.146 25.54 9.437 6.4 6.183 9.6 15.24 9.6 27.172v49.626h-11.55v-48.487c0-8.894-2.22-15.674-6.67-20.338s-10.79-6.997-19.04-6.997c-9.22 0-16.54 2.766-21.96 8.299-5.32 5.423-7.97 12.962-7.97 22.616v44.907h-11.56v-85.584h11.07v15.783c3.14-5.207 7.48-9.22 13.01-12.041 5.65-2.928 12.15-4.393 19.53-4.393zm-313.692 55.808h-63.456l-13.668 30.427h-12.528l52.066-113.895h11.878l52.066 113.895h-12.691l-13.667-30.427zm-4.394-9.762l-27.334-61.178-27.335 61.178h54.669zm47.176-80.54h11.552v120.729H838.52V295.997zm43.765 0h11.552v120.729h-11.552V295.997zm117.486 34.494c11.169 0 19.739 2.82 25.709 8.461 5.96 5.532 8.95 13.776 8.95 24.731v53.043h-11.07v-13.342c-2.6 4.447-6.45 7.918-11.55 10.413-4.99 2.495-10.95 3.743-17.897 3.743-9.545 0-17.138-2.278-22.779-6.834s-8.461-10.576-8.461-18.061c0-7.267 2.604-13.125 7.81-17.572 5.315-4.447 13.722-6.671 25.22-6.671h27.167v-5.207c0-7.376-2.06-12.962-6.18-16.758-4.12-3.905-10.14-5.858-18.058-5.858-5.424 0-10.631.922-15.62 2.766-4.99 1.736-9.275 4.176-12.854 7.322l-5.207-8.624c4.339-3.688 9.546-6.508 15.62-8.46 6.075-2.061 12.474-3.092 19.2-3.092zm-4.068 77.937c6.507 0 12.097-1.464 16.757-4.393 4.67-3.037 8.14-7.376 10.41-13.017v-13.993h-26.842c-14.643 0-21.965 5.099-21.965 15.295 0 4.99 1.898 8.949 5.695 11.878 3.796 2.82 9.111 4.23 15.945 4.23zm216.077 9.112c-8.46 0-16.06-1.844-22.78-5.533-6.62-3.688-11.83-8.84-15.62-15.457-3.8-6.725-5.7-14.264-5.7-22.616s1.9-15.837 5.7-22.454c3.79-6.616 9-11.769 15.62-15.457 6.72-3.688 14.32-5.532 22.78-5.532 7.37 0 13.94 1.465 19.68 4.393 5.86 2.821 10.47 6.997 13.83 12.529l-8.62 5.857c-2.82-4.23-6.4-7.376-10.74-9.437-4.34-2.169-9.05-3.254-14.15-3.254-6.19 0-11.77 1.41-16.76 4.23-4.88 2.712-8.73 6.617-11.55 11.715-2.72 5.099-4.07 10.902-4.07 17.41 0 6.617 1.35 12.474 4.07 17.572 2.82 4.99 6.67 8.895 11.55 11.715 4.99 2.712 10.57 4.068 16.76 4.068 5.1 0 9.81-1.031 14.15-3.091s7.92-5.207 10.74-9.437l8.62 5.857c-3.36 5.532-7.97 9.762-13.83 12.691-5.85 2.82-12.42 4.231-19.68 4.231zm129.18-40.026h-71.59c.65 8.894 4.07 16.108 10.25 21.64 6.18 5.423 13.99 8.135 23.43 8.135 5.31 0 10.2-.922 14.64-2.766 4.45-1.953 8.3-4.773 11.55-8.461l6.51 7.485c-3.79 4.556-8.57 8.027-14.32 10.413-5.64 2.386-11.87 3.58-18.71 3.58-8.78 0-16.59-1.844-23.43-5.533-6.72-3.796-11.98-9.003-15.78-15.619s-5.69-14.102-5.69-22.454 1.79-15.837 5.37-22.454c3.68-6.616 8.67-11.769 14.96-15.457 6.4-3.688 13.56-5.532 21.48-5.532s15.03 1.844 21.32 5.532 11.22 8.841 14.8 15.457c3.58 6.509 5.37 13.993 5.37 22.454l-.16 3.58zm-41.33-37.098c-8.24 0-15.18 2.658-20.82 7.973-5.54 5.207-8.68 12.04-9.44 20.501h60.69c-.76-8.461-3.96-15.294-9.6-20.501-5.53-5.315-12.48-7.973-20.83-7.973zm139.28 17.572c7.49 1.627 13.24 4.881 17.25 9.763 4.12 4.772 6.18 10.955 6.18 18.548 0 9.763-3.63 17.302-10.9 22.617-7.16 5.206-17.79 7.81-31.89 7.81h-52.39V302.831h49.14c12.69 0 22.51 2.549 29.45 7.647 7.05 5.098 10.57 12.311 10.57 21.64 0 6.291-1.57 11.661-4.72 16.108-3.03 4.339-7.26 7.593-12.69 9.762zm-59.71-45.232v41.327h36.28c9.22 0 16.33-1.735 21.32-5.206 4.99-3.58 7.48-8.732 7.48-15.457s-2.49-11.824-7.48-15.295c-4.99-3.58-12.1-5.369-21.32-5.369h-36.28zm40.19 94.044c10.19 0 17.9-1.735 23.1-5.206 5.21-3.471 7.81-8.895 7.81-16.271 0-14.21-10.3-21.315-30.91-21.315h-40.19V406.8h40.19zm68.01-110.803h11.55v120.729h-11.55V295.997zm78.75 121.543c-8.24 0-15.67-1.844-22.29-5.533-6.61-3.796-11.82-9.003-15.62-15.619-3.79-6.617-5.69-14.102-5.69-22.454s1.9-15.837 5.69-22.454c3.8-6.616 9.01-11.769 15.62-15.457 6.62-3.688 14.05-5.532 22.29-5.532 8.25 0 15.68 1.844 22.29 5.532 6.62 3.688 11.77 8.841 15.46 15.457 3.8 6.617 5.7 14.102 5.7 22.454s-1.9 15.837-5.7 22.454c-3.69 6.616-8.84 11.823-15.46 15.619-6.61 3.689-14.04 5.533-22.29 5.533zm0-10.251c6.08 0 11.5-1.356 16.27-4.068 4.89-2.82 8.68-6.779 11.39-11.877 2.72-5.098 4.07-10.902 4.07-17.41s-1.35-12.311-4.07-17.41c-2.71-5.098-6.5-9.003-11.39-11.715-4.77-2.82-10.19-4.23-16.27-4.23-6.07 0-11.55 1.41-16.43 4.23-4.77 2.712-8.57 6.617-11.39 11.715-2.71 5.099-4.07 10.902-4.07 17.41s1.36 12.312 4.07 17.41c2.82 5.098 6.62 9.057 11.39 11.877 4.88 2.712 10.36 4.068 16.43 4.068zm102.5 10.251c-8.46 0-16.06-1.844-22.78-5.533-6.62-3.688-11.82-8.84-15.62-15.457-3.8-6.725-5.7-14.264-5.7-22.616s1.9-15.837 5.7-22.454 9-11.769 15.62-15.457c6.72-3.688 14.32-5.532 22.78-5.532 7.37 0 13.94 1.465 19.69 4.393 5.85 2.821 10.46 6.997 13.83 12.529l-8.63 5.857c-2.82-4.23-6.4-7.376-10.74-9.437-4.34-2.169-9.05-3.254-14.15-3.254-6.18 0-11.77 1.41-16.76 4.23-4.88 2.712-8.73 6.617-11.55 11.715-2.71 5.099-4.07 10.902-4.07 17.41 0 6.617 1.36 12.474 4.07 17.572 2.82 4.99 6.67 8.895 11.55 11.715 4.99 2.712 10.58 4.068 16.76 4.068 5.1 0 9.81-1.031 14.15-3.091s7.92-5.207 10.74-9.437l8.63 5.857c-3.37 5.532-7.98 9.762-13.83 12.691-5.86 2.82-12.42 4.231-19.69 4.231zm86.56-43.769l-20.18 18.549v24.406h-11.55V295.997h11.55v81.842l51.09-46.697h14.32l-36.61 34.982 40.03 50.602h-14.16l-34.49-42.955z"/><path fill-rule="evenodd" d="M411.8 168.7l-72.1 131c-1.7-.8-3.5-1.2-5.5-1.3h-.9c-4.5.2-8.5 2.4-11.4 5.7l-69.3-39.8 159.2-95.6zm35.9.1l158.9 95.5-69.4 39.9c-2.9-3.7-7.1-6.2-11.7-6.3h-.9c-1.2.1-2.4.3-3.5.6l-73.4-129.7zm-27.8 4.9v186.7l-69.7-40c.9-4.9-.4-10.1-3.2-14.3l72.9-132.4zm19.5-.2l73.7 130.3c-3.9 4.5-5.7 10.9-4.1 16.7l-69.5 40v-187h-.1zm0 198.1l74.8-43c1.9 1.6 4.1 2.7 6.4 3.4v78.7c-2.4.8-4.6 2.1-6.4 3.9l-74.8-43zm-19.5 0L344.5 415c-1.7-1.6-3.6-2.9-5.7-3.7v-78.5c2.6-.6 4.9-1.9 6.9-3.8l74.2 42.6zm-90.6 39.5v-72.9L260.6 463l56.6-32.5c-.9-8.2 4.3-16.8 12.1-19.4zm212.3 19.2l57.3 32.9-69-128.8v76.3c7.3 2.8 12.4 11.5 11.7 19.6zm69.5-157.4v192.8L537.3 328c4-4.2 5.1-9.8 4-15l69.8-40.1zm-362.9 0l69.4 39.9c-.6 2.6-.6 5.3.1 7.9 1 3.7 3 6.6 5.7 8.7L248.2 466V272.9zm171.7 109.9V562L347 439.5c3.9-4.8 4.3-10.9 2.6-16.3l70.3-40.4zm19.5 0l69.7 40c-.8 2.8-1 5.8-.4 8.7.7 3.1 2.1 5.6 4.1 7.7L439.4 567V382.8zm164.8 94.7l-156.4 94L521 444c5.6 1.5 11.8.5 15.9-3.7.3-.3.6-.6.9-1l66.4 38.2zm-349.1 0l66.2-38c4.4 4.9 11.5 6.8 17.6 5.2L416 574.3l-160.9-96.8z"/></svg>
