<svg xmlns="http://www.w3.org/2000/svg" width="160" height="28" fill="none"><path d="M125.835 11.403v4.65h-14.583v6.116h15.092v5.001h-20.155l.032-15.767h19.614zM17.321.064c.287 0 .446.064.573.35l11.781 26.342.127.35h-2.006c-1.019 0-2.006-.032-3.025 0-.382 0-.573-.096-.732-.478l-6.973-15.99-2.133-4.905c-.095.223-.159.35-.255.51L5.763 26.597c-.159.35-.318.478-.732.478l-3.352-.026L0 27.011l.287-.478L11.94.541c.159-.35.318-.478.732-.478a113.09 113.09 0 0 0 4.649 0zm23.626.096a.64.64 0 0 1 .637.35l7.833 10.766c.096.127.191.287.35.446l.318-.414L57.918.541c.223-.287.414-.382.764-.382h4.808H64v26.947h-5.031V7.74l-.096-.064-.287.382-8.119 10.798c-.478.637-1.178.637-1.624-.032L40.979 8.059c-.096-.127-.191-.287-.318-.414-.032.032-.064.032-.096.064v19.398h-5.063V.191c.127 0 .287-.032.414-.032h5.031zM149.079 0c1.56 0 3.056.319 4.457.987 3.216 1.497 5.159 4.746 4.967 8.345-.063 1.147-.222 2.262-.636 3.313-1.019 2.548-2.962 4.013-5.541 4.714-.191.032-.35.095-.605.159l.669.765 7.228 8.154c.127.159.223.382.382.637h-5.795c-.223 0-.478-.128-.637-.287l-7.228-8.313a1.2 1.2 0 0 0-.987-.446h-4.266v9.014l-5.127-.032V13.378h.573l11.972.032c.701 0 1.433-.064 2.102-.255 1.942-.573 3.025-2.421 2.802-4.682-.191-1.911-1.688-3.44-3.662-3.663-.414-.064-.859-.064-1.273-.064h-12.482V.032c.096 0 .223-.032.318-.032h12.769zM86.862 0c1.624 0 3.216.287 4.712.956 2.579 1.179 3.916 3.217 4.171 6.02.255 2.771-.796 4.81-3.375 6.052.064.064.127.096.159.127 2.802.987 4.235 4.173 4.076 6.434-.191 3.122-1.56 5.383-4.521 6.53-.86.319-1.783.573-2.675.701-.987.159-2.006.223-2.993.223H73.711V11.021h.573l12.864-.191c.605-.032 1.242-.159 1.815-.382 1.624-.605 2.229-2.198 1.465-3.759-.573-1.179-1.624-1.752-2.866-1.975a8.57 8.57 0 0 0-1.274-.096l-12.004-.064h-.573V.032c.127 0 .223-.032.35-.032h12.8zm-.35 15.353h-7.355c-.159 0-.287.032-.446.032v6.88h8.533c.955 0 1.847-.255 2.706-.701.732-.382 1.274-.924 1.497-1.72.35-1.21-.096-2.389-1.21-3.249a6.03 6.03 0 0 0-3.725-1.242zM126.376.159v4.873h-20.155V.159h20.155z" fill="currentColor"/></svg>
