<svg xmlns="http://www.w3.org/2000/svg" viewBox="0 0 2000 742.9"><path d="M1471 457.76a1.32 1.32 0 0 0 1.28-1.45v-1.13a1.18 1.18 0 0 0-1.28-1.28h-3.38v3.86zm-3.38 1.76v4.34h-2.25V452h5.47a3.89 3.89 0 0 1 1.28 7.55l2.57 4.51h-2.57l-2.41-4.34a8.68 8.68 0 0 0-2.07-.2zm1.29 8.52a10.22 10.22 0 0 0 11.09-9.16V457a10.14 10.14 0 0 0-9.32-9.16 10.24 10.24 0 0 0-11.1 9.16v1.93a10.29 10.29 0 0 0 9.33 9.16zM996 394.9l-1.93.64a75.57 75.57 0 0 1-43.88-.16l-1.93-.64 22.18-72.5a1.84 1.84 0 0 1 3.54 0l22 72.66zm-50.8-104.81L883.61 470.3h41.48l13.5-43.89 1.93.64a109.8 109.8 0 0 0 63.18.16l1.93-.64 13.18 43.73h41.47L999 290.09a28 28 0 0 0-26.53-19h-.64a28.12 28.12 0 0 0-26.65 19zM1372 321h-44l-43 57.66V271.12h-37.13v199.34H1285v-71.7l50.32 71.7h41.47l-55-77.49a7.73 7.73 0 0 1 .17-9zm-194.84 0h-59.64a33.34 33.34 0 0 0-33.27 33.28h0v116.18h37.13V362.75a8.58 8.58 0 0 1 8.52-8.52h38.74a8.57 8.57 0 0 1 8.52 8.52h0v107.71h37.14V354.23A33.34 33.34 0 0 0 1181 321zm305.12 0h-50.48a33.34 33.34 0 0 0-33.27 33.28h0v116.18h37.13V362.75a8.58 8.58 0 0 1 8.52-8.52h38.1zM688.13 217.1l104.33 53.54a45.25 45.25 0 0 1 24.6 40.36v24.43h-38.42V311a6.85 6.85 0 0 0-3.7-6.11l-104.33-53.55a7.19 7.19 0 0 0-6.27 0L560 304.88a6.85 6.85 0 0 0-3.7 6.11v24.43h-38.57V311a45.23 45.23 0 0 1 24.6-40.35l104.33-53.55a46 46 0 0 1 41.47 0zm12.22 152.72a33 33 0 1 0-33 33 33 33 0 0 0 33-33zM774.94 438a6.85 6.85 0 0 0 3.7-6.11v-24.45h38.42V432a44.81 44.81 0 0 1-24.6 40.18l-104.33 53.58a45.66 45.66 0 0 1-41.47 0l-104.33-53.54a45.17 45.17 0 0 1-24.6-40.22v-24.4h38.42V432a6.84 6.84 0 0 0 3.7 6.1l88.25 45.18v-44.81a71.46 71.46 0 1 1 38.42 0v44.85L774.94 438z" fill="currentColor"/></svg>
