<svg xmlns="http://www.w3.org/2000/svg" viewBox="0 0 2000 742.9" fill="currentColor"><g fill-rule="evenodd"><path d="M552.28 467.68c23.5 28 64.38 32.39 91.31 9.79s29.73-63.63 6.23-91.63L557 275.22c-23.49-28-64.38-32.39-91.31-9.79s-29.72 63.63-6.22 91.63zm68.11-17.87c-12.24 10.27-30.83 8.28-41.51-4.45l-92.82-110.62c-10.68-12.73-9.42-31.38 2.82-41.65s30.83-8.28 41.51 4.45l92.83 110.62c10.68 12.73 9.41 31.38-2.83 41.65z"/><path d="M458.76 467.68c-23.5 28-64.38 32.39-91.31 9.79s-29.72-63.63-6.23-91.63l92.83-110.62c23.5-28 64.38-32.39 91.31-9.79s29.72 63.63 6.22 91.63zm-68.11-17.87c12.24 10.27 30.83 8.28 41.51-4.45L525 334.74c10.69-12.73 9.42-31.38-2.82-41.65s-30.83-8.28-41.51 4.45l-92.85 110.62c-10.68 12.73-9.41 31.38 2.83 41.65z"/></g><path d="M806.31 444.81a60.09 60.09 0 0 0 26-5.71 66.59 66.59 0 0 0 21.49-16.45v17.91h40.74V304.67h-40.73v16.59A54.2 54.2 0 0 0 833.24 306a65.15 65.15 0 0 0-26.93-5.57q-19.65 0-34.91 9.55a66 66 0 0 0-23.75 25.75Q739 351.92 739 372.35q0 21 9 37.42a69 69 0 0 0 24.15 25.75 64.34 64.34 0 0 0 34.16 9.29zm12.07-34.64q-15.79 0-26.14-10.61-10.35-10.61-10.35-26.94 0-16.32 10.35-26.94 10.35-10.62 26.14-10.62 15.79 0 26 10.62 10.21 10.62 10.35 26.94 0 16.45-10.22 27.07-10.22 10.62-26.13 10.48zm107.76 30.39h40.74v-75.9a24.67 24.67 0 0 1 4.38-14.07 35.4 35.4 0 0 1 11.55-10.75 29.93 29.93 0 0 1 15.13-4.11 39.29 39.29 0 0 1 21.76 6.63l17-34.37a49.23 49.23 0 0 0-13-5.44 54.17 54.17 0 0 0-14.73-2.12 47.24 47.24 0 0 0-23.62 6.23 53.51 53.51 0 0 0-18.45 17.52v-19.51h-40.76zm178.86 4.25a80.82 80.82 0 0 0 25.22-3.85 65.84 65.84 0 0 0 19.5-9.42l-13.93-27.47q-9.42 7.29-24.42 7.3a41.11 41.11 0 0 1-20.83-5.18 36.55 36.55 0 0 1-13.8-13.93 39.9 39.9 0 0 1-4.91-19.64 40.74 40.74 0 0 1 4.51-18.71 37.57 37.57 0 0 1 13.4-14.47q8.76-5.56 21.37-5.57 15 0 24.68 7.3l13.93-27.47q-7.42-5.85-19.64-9.56a85.44 85.44 0 0 0-25.21-3.71 76 76 0 0 0-54.14 21.76 73.84 73.84 0 0 0-15.93 23.09 69.48 69.48 0 0 0 .27 55.74 72.34 72.34 0 0 0 16.45 22.82 77.56 77.56 0 0 0 53.48 21zm116.77 0a60 60 0 0 0 26-5.71 66.63 66.63 0 0 0 21.5-16.45v17.91H1310V304.67h-40.74v16.59a54.36 54.36 0 0 0-20.55-15.26 65.23 65.23 0 0 0-26.94-5.57q-19.65 0-34.9 9.55a66 66 0 0 0-23.76 25.75q-8.62 16.18-8.62 36.62 0 21 9 37.42a69.07 69.07 0 0 0 24.15 25.75 64.37 64.37 0 0 0 34.13 9.29zm12.07-34.64q-15.78 0-26.14-10.61-10.36-10.61-10.35-26.94 0-16.32 10.35-26.94 10.35-10.62 26.14-10.62 15.79 0 26 10.62 10.37 10.49 10.36 26.94-.01 16.45-10.2 27.07-10.22 10.49-26.16 10.48zm107.77 30.39h40.74v-80.42a27.09 27.09 0 0 1 7.83-19.77q7.83-8.1 21.36-8.09 13.28 0 20.84 8.22 7.56 8.22 7.69 22.7v77.36h40.74v-86q0-16.19-6.77-28.27a48.15 48.15 0 0 0-18.71-19q-11.8-6.9-27.47-6.9a61 61 0 0 0-25.87 5.44 58.42 58.42 0 0 0-19.64 13.93v-15.09h-40.74zm224.87 4.25a60 60 0 0 0 26-5.71 66.63 66.63 0 0 0 21.5-16.45v17.91h40.74V304.67H1614v16.59a54.36 54.36 0 0 0-20.58-15.26 65.23 65.23 0 0 0-26.94-5.57q-19.63 0-34.9 9.55a66 66 0 0 0-23.76 25.75q-8.62 16.18-8.62 36.62 0 21 9 37.42a69.07 69.07 0 0 0 24.15 25.75 64.37 64.37 0 0 0 34.13 9.29zm12.07-34.64q-15.78 0-26.14-10.61-10.36-10.61-10.35-26.94 0-16.32 10.35-26.94 10.35-10.62 26.14-10.62 15.79 0 26 10.62 10.37 10.49 10.36 26.94-.01 16.45-10.22 27.07-10.2 10.49-26.14 10.48z"/></svg>
