<svg xmlns="http://www.w3.org/2000/svg" viewBox="0 0 2000 742.9" fill="currentColor"><path d="M664.24 355.32l59.56-59.56-54.13-54.13a22.81 22.81 0 0 0-32.26 0l-54.24 54.24 59.45 59.45a22.81 22.81 0 0 1 0 32.26L583.17 447l54.24 54.24a22.81 22.81 0 0 0 32.26 0l54.13-54.13-59.56-59.56a22.83 22.83 0 0 1 0-32.23z"/><path d="M923.89 355.32l-113.7-113.69a22.8 22.8 0 0 0-32.25 0l-54.14 54.13 59.57 59.56a22.83 22.83 0 0 1 0 32.26l-59.57 59.56 54.14 54.13a22.8 22.8 0 0 0 32.25 0l113.7-113.69a22.81 22.81 0 0 0 0-32.26zm-400.17 0l59.45-59.45-54.25-54.24a22.8 22.8 0 0 0-32.25 0L383 355.32a22.83 22.83 0 0 0 0 32.26l113.7 113.69a22.8 22.8 0 0 0 32.25 0L583.17 447l-59.45-59.45a22.81 22.81 0 0 1 0-32.23zm472.53 110.33h-34.62a6.79 6.79 0 0 1-6.33-9.24l67.7-174.82a6.78 6.78 0 0 1 6.33-4.34h35.13a6.79 6.79 0 0 1 6.32 4.31l68.68 174.82a6.79 6.79 0 0 1-6.32 9.27h-35.45a6.78 6.78 0 0 1-6.33-4.34l-11.24-29h-66.75l-10.73 28.94a6.79 6.79 0 0 1-6.39 4.4zm50.75-137.8l-23.42 66.21h45.76zm153.71 6.04v20.4c3-16.1 15.29-27.1 25-30.32a43.34 43.34 0 0 1 13.68-2.42h.1a9.37 9.37 0 0 1 9.3 9.39v25.52a9.4 9.4 0 0 1-10.13 9.35c-2.31-.18-4.76-.25-7.31-.25-18 0-29 11.26-29 28.44v60.11a9.38 9.38 0 0 1-9.38 9.38h-27.39a9.38 9.38 0 0 1-9.38-9.38V333.89a9.38 9.38 0 0 1 9.38-9.38h25.78a9.38 9.38 0 0 1 9.35 9.38zm90.11-35.5c20-19.68 45.83-29.52 78.16-29.52 22.1 0 43.11 6.58 62.83 19.55a8.9 8.9 0 0 1 2.2 12.8l-15.36 20.32a8.88 8.88 0 0 1-11.86 2.16 65.53 65.53 0 0 0-36.12-10.7c-19.4 0-34.3 5.62-44.43 16.87-10.12 11.53-15.18 25-15.18 41.05 0 16.59 5.34 30.08 16 40.77 10.4 10.68 24.18 16 40.77 16a86.12 86.12 0 0 0 24.88-3.36 8.89 8.89 0 0 0 6.32-8.52v-19.3h-37.49a8.9 8.9 0 0 1-8.9-8.9v-19.87a8.9 8.9 0 0 1 8.9-8.9h75.55a8.9 8.9 0 0 1 8.9 8.9v69.38a9 9 0 0 1-3.24 6.87c-22.49 18.66-47.3 27.87-74.92 27.87-30.93 0-56.52-9.84-76.48-29.8Q1261 412.54 1261 370.37c0-28.37 9.86-52.3 29.82-71.98zM1623.71 396c0 21.09-7.88 38.8-23.9 53.7s-35.43 22.21-58.2 22.21-41.89-7.31-57.92-22.21-24.18-32.7-24.18-53.7 8.15-38.8 24.18-53.7 35.14-22.3 57.92-22.3 42.17 7.31 58.2 22.21 23.9 32.65 23.9 53.79zm-117.53 0c0 10.4 3.38 19.12 10.12 25.87q9.71 10.13 25.31 10.12c10.4 0 18.84-3.37 25.58-10.12 6.47-6.75 9.84-15.47 9.84-25.87s-3.37-19.12-9.84-26.15c-6.74-6.74-15.18-10.12-25.58-10.12s-18.84 3.38-25.31 10.12q-10.11 10.5-10.12 26.15z"/></svg>
