<svg xmlns="http://www.w3.org/2000/svg" xmlns:xlink="http://www.w3.org/1999/xlink" width="160" height="63" fill="none"><g fill="currentColor"><path fill-rule="evenodd" d="M6.144 28.842C2.751 28.842 0 26.091 0 22.698c0-2.274 1.236-4.26 3.072-5.322 2.185-1.186 6.258-1.554 8.021-1.59 0-1.109-.597-2.987-3.157-3.072-2.048-.068-4.267 1.166-5.12 1.792L.939 10.836c1.308-.939 4.949-2.782 9.045-2.645 3.723 0 6.741 3.209 6.741 7.168v12.8h-4.757v-2.218c-.875 1.109-3.117 2.901-5.824 2.901zm4.949-9.812v3.669c-.483.569-1.843 1.707-3.413 1.707-1.963 0-2.133-1.365-2.133-1.963s.512-2.987 5.547-3.413z"/><ellipse cx="55.552" cy="3.157" rx="3.499" ry="3.157"/><path d="M26.368 8.789h-4.693v19.456h5.717V16.81c1.98-4.301 5.035-3.897 6.315-3.157l1.024-4.864c-4.232-1.707-7.054 1.564-7.936 3.413l-.427-3.413zm15.531 0h-4.693v19.456h5.717V16.81c1.98-4.301 5.035-3.897 6.315-3.157l1.024-4.864c-4.233-1.707-7.054 1.564-7.936 3.413l-.427-3.413zm16.384 0h-5.547V28.16h5.547V8.789zm10.069.085h-4.693v19.2h5.547V15.018c3.413-3.618 5.973-1.536 5.973 0v13.056h5.803V14.335c0-4.864-3.328-6.144-6.144-6.144-2.253 0-5.035 2.162-6.144 3.243l-.341-2.56z"/><path fill-rule="evenodd" d="M93.013 22.015c4.477 0 7.936-2.062 7.936-5.973 0-1.047-.241-2.097-.682-3.072h2.986V8.811h-7.168c-.912-.395-1.918-.619-2.987-.619-4.477 0-7.936 3.086-7.936 6.997 0 2.172 1.04 4.036 2.731 5.265-.796.549-2.372 2.108-2.304 3.951s1.394 2.93 2.048 3.243c-.995.398-2.987 1.758-2.987 4.011 0 3.535 3.584 4.693 9.301 4.693 5.278 0 9.813-3.036 9.813-6.571 0-1.113-.424-2.16-1.171-3.072-1.551-2.116-6.237-2.247-8.386-2.048-1.394.057-4.181-.154-4.181-1.451-.028-.325.068-1.073.683-1.469a9.6 9.6 0 0 0 2.304.274zm.683 10.923c2.545 0 4.523-1.117 4.523-2.389 0-.607-.449-1.185-1.195-1.536-1.855.065-4.261-.106-5.657-.205l-.743-.051c-.967.422-1.195 1.146-1.195 1.877 0 1.272 1.722 2.304 4.267 2.304zm-.427-14.167c1.555 0 2.816-1.49 2.816-3.328s-1.261-3.328-2.816-3.328-2.816 1.49-2.816 3.328 1.261 3.328 2.816 3.328z"/><path d="M113.152 3.669h-4.693l-1.024 5.205h-2.731v4.437h2.731v9.557c0 5.803 6.826 6.741 10.922 5.12l-.938-4.011c-3.345 1.297-4.239-.541-4.267-1.621v-9.045h4.608V8.874h-4.608V3.669z"/><path fill-rule="evenodd" d="M129.28 29.014c5.325 0 9.643-4.699 9.643-10.496s-4.318-10.496-9.643-10.496-9.643 4.699-9.643 10.496 4.317 10.496 9.643 10.496zm-.085-4.608c2.073 0 3.754-2.598 3.754-5.803s-1.681-5.803-3.754-5.803-3.755 2.598-3.755 5.803 1.681 5.803 3.755 5.803z"/><path d="M147.371 8.874h-4.694v19.2h5.547V15.018c3.413-3.618 5.973-1.536 5.973 0v13.056H160V14.335c0-4.864-3.328-6.144-6.144-6.144-2.253 0-5.035 2.162-6.144 3.243l-.341-2.56zM79.194 58.159c-1.044 0-2.004-.194-2.88-.581s-1.642-.943-2.299-1.667c-.64-.741-1.145-1.642-1.516-2.703-.354-1.078-.53-2.29-.53-3.637 0-1.33.185-2.526.556-3.587s.884-1.962 1.541-2.703a6.56 6.56 0 0 1 2.324-1.692c.892-.404 1.869-.606 2.93-.606 1.01 0 1.894.21 2.652.631.775.404 1.406.876 1.894 1.415l-1.137 1.364a5.43 5.43 0 0 0-1.49-1.137c-.555-.287-1.187-.429-1.894-.429-.791 0-1.507.16-2.147.48-.64.303-1.187.749-1.642 1.339-.455.572-.808 1.271-1.061 2.096-.236.825-.354 1.751-.354 2.778 0 1.044.118 1.987.354 2.829.253.825.598 1.532 1.036 2.122a4.56 4.56 0 0 0 1.591 1.364c.64.32 1.356.48 2.147.48.808 0 1.516-.16 2.122-.48.606-.337 1.179-.8 1.718-1.389l1.162 1.313c-.657.758-1.398 1.347-2.223 1.768s-1.777.631-2.854.631zm11.146-9.573l-.783 2.526h4.976l-.783-2.526-.859-2.753-.808-2.829h-.101l-.783 2.829-.859 2.753zm-5.052 9.27l5.607-16.57h2.374l5.608 16.57h-2.248l-1.566-5.052h-6.037l-1.591 5.052h-2.147zm16.063 0v-16.57h4.724c.926 0 1.768.084 2.525.253.775.168 1.432.446 1.971.834.539.37.959.867 1.263 1.49s.454 1.389.454 2.299c0 .876-.151 1.633-.454 2.273-.287.64-.699 1.17-1.238 1.591s-1.187.741-1.945.96c-.741.202-1.566.303-2.475.303h-2.728v6.567h-2.097zm2.097-8.285h2.475c1.448 0 2.518-.269 3.208-.808.707-.556 1.061-1.423 1.061-2.602 0-1.196-.371-2.021-1.112-2.475-.724-.472-1.81-.707-3.258-.707h-2.374v6.592zm12.336 8.285v-16.57h2.097v16.57h-2.097zm10.197 0V43.055h-5.001v-1.768h12.124v1.768h-5.001v14.802h-2.122zm12.076-9.27l-.783 2.526h4.976l-.783-2.526-.859-2.753-.808-2.829h-.101l-.783 2.829-.859 2.753zm-5.052 9.27l5.608-16.57h2.374l5.607 16.57h-2.248l-1.566-5.052h-6.036l-1.592 5.052h-2.147zm16.063 0v-16.57h2.097v14.776h7.249v1.793h-9.346zM.379 57.858l4.824-8.563-4.496-8.007h2.324l2.248 4.243.606 1.137.682 1.263h.101l.606-1.263.581-1.137 2.198-4.243h2.223l-4.521 8.108 4.824 8.462h-2.324l-2.425-4.47-.682-1.238-.732-1.414h-.101l-.682 1.414-.631 1.238-2.4 4.471H.379zm14.971 0v-16.57h5.178c.842 0 1.617.084 2.324.253.724.151 1.339.412 1.844.783.522.37.926.85 1.212 1.44s.429 1.313.429 2.172c0 1.297-.337 2.332-1.01 3.107s-1.583 1.305-2.728 1.591l4.218 7.224h-2.374l-3.991-6.997h-3.006v6.997H15.35zm2.096-8.714h2.778c1.297 0 2.29-.261 2.98-.783.69-.539 1.036-1.347 1.036-2.425 0-1.094-.345-1.861-1.036-2.298s-1.684-.657-2.98-.657h-2.778v6.163zm12.41 8.714v-16.57h4.723a11.63 11.63 0 0 1 2.526.253c.775.168 1.431.446 1.97.833a3.77 3.77 0 0 1 1.263 1.49c.303.623.455 1.389.455 2.298 0 .876-.151 1.633-.455 2.273a4.12 4.12 0 0 1-1.238 1.591c-.539.421-1.187.741-1.945.96-.741.202-1.566.303-2.475.303h-2.728v6.567h-2.096zm2.096-8.285h2.475c1.448 0 2.517-.27 3.208-.808.707-.556 1.061-1.423 1.061-2.602 0-1.195-.37-2.021-1.111-2.475-.724-.471-1.81-.707-3.258-.707h-2.374v6.593zm13.014 12.548c1.132-.905 2.722-1.105 4.096-1.105 1.617 0 2.021.566 3.261.566.992 0 1.491-.27 1.617-.404-.539-.458-1.455-.559-1.994-.835-.841-.431-1.931-.62-2.425-.674-3.53-.162-5.012 1.374-4.554 2.452z"/><use xlink:href="#B"/><path d="M45.64 59.265c1.132-.905 3.305-1.078 4.069-1.024-.099-.198-.275-.738-.189-1.32-3.261-.135-4.339 1.267-3.88 2.344zm15.926-2.507c1.428-.081 5.255.35 4.392 2.425-1.156-.924-3.049-1.091-4.492-.943a4.13 4.13 0 0 0 .1-1.482z"/><use xlink:href="#B"/><path d="M55.557 52.412c-3.378 0-5.821 2.004-5.821 3.27-.727-.054-2.452.065-3.53.97-.223-.705.205-2.106 3.68-2.102.548-1.961 2.578-3.18 5.671-3.18 3.036 0 5.047 1.174 5.639 3.072 1.178 0 4.655.135 4.212 2.156-1.1-.924-2.656-1.064-4.03-.916 0-1.267-2.442-3.27-5.821-3.27zm.012-2.228c-3.172 0-5.464 1.851-5.464 3.092-.683-.053-2.321.009-3.333.896-.209-.691.211-2.009 3.474-2.005.299-1.929 2.42-3.115 5.324-3.115 2.85 0 5 1.213 5.294 3.009 1.106 0 4.37.132 3.954 2.112-1.032-.905-2.493-1.042-3.783-.898 0-1.241-2.293-3.092-5.464-3.092zm.013-2.125c-3.002 0-5.172 1.922-5.172 3.137-.646-.052-2.179.062-3.136.931-.198-.676.182-2.02 3.27-2.016.487-1.881 2.291-3.05 5.039-3.05 2.697 0 4.485 1.126 5.01 2.947 1.047 0 4.136.129 3.742 2.068-.977-.886-2.36-1.021-3.581-.879 0-1.215-2.17-3.137-5.172-3.137zm-.017-1.845c-2.86 0-4.886 1.754-4.886 2.891-.616-.048-1.913.027-2.695.755 0-.593-.166-1.728 2.776-1.725.464-1.761 2.187-2.856 4.805-2.856 2.57 0 4.273 1.054 4.774 2.758.931-.091 3.598.125 3.221 1.742-.808-.629-1.882-.86-3.045-.728 0-1.137-2.09-2.837-4.95-2.837zm.121-1.69c-2.671 0-4.657 1.65-4.657 2.696-.575-.044-1.573-.102-2.425.647-.176-.583.539-1.455 2.598-1.576.434-1.621 2.039-2.628 4.484-2.628 2.4 0 3.991.97 4.459 2.539.931 0 3.118.452 2.822 1.611-.889-.586-1.735-.796-2.822-.674 0-1.047-1.788-2.615-4.459-2.615zm-.062-1.615c-2.709 0-4.272 1.54-4.272 2.587-.54-.044-1.32-.108-2.102.566-.054-.647.331-1.2 2.264-1.32.135-1.617 1.815-2.641 4.11-2.641 2.252 0 4.001.97 4.109 2.614.874 0 2.668.162 2.614 1.294-.834-.586-1.455-.593-2.479-.593 0-1.047-1.737-2.506-4.244-2.506zm.017-1.311c-2.473 0-3.992 1.489-3.992 2.443-.493-.041-1.119-.048-1.832.566-.049-.59.23-1.13 1.994-1.239.123-1.474 1.735-2.506 3.83-2.506 2.057 0 3.654.884 3.752 2.383.798 0 2.523.231 2.334 1.282-.762-.534-1.221-.566-2.156-.566 0-.954-1.642-2.362-3.931-2.362z"/><path d="M55.655 40.4c-2.251 0-3.575 1.398-3.575 2.266-.449-.037-.97-.054-1.617.377-.081-.404.172-1.023 1.777-1.123.112-1.342 1.508-2.192 3.415-2.192 1.872 0 3.325.805 3.414 2.169.726 0 2.281.202 2.065 1.145-.693-.486-1.089-.458-1.94-.458 0-.869-1.456-2.186-3.539-2.186z"/><path d="M51.003 41.804c.539-.35 1.002-.434 1.401-.404l.027-.566c-1.051.108-1.467.548-1.428.97zm9.593-.054c-.618-.391-.967-.377-1.725-.377 0-.147.054-.35-.027-.593.556 0 1.797.116 1.752.97zm-4.925-2.506c1.228 0 2.324.414 3.092 1.374a1.45 1.45 0 0 0-.09-.35c.489-.086 1.054.144 1.275.27-.216-.625-.952-.745-1.293-.728l-.056.296c-.423-.806-1.572-1.401-2.929-1.401-1.011 0-2.402.281-2.883 1.24-.272-.054-.88-.005-1.138.62.163-.126.593-.356 1.012-.27a1.75 1.75 0 0 0-.041.27c.335-.633 1.409-1.32 3.05-1.32z"/><path d="M55.684 38.283c-.882 0-2.229.314-2.768 1.176 0 0-.27-.054-.728.215.108-.269.377-.566.808-.566.242-.62 1.158-1.321 2.687-1.321 1.501 0 2.541.943 2.621 1.267.582 0 1.105.35 1.105.593-.296-.216-.701-.216-1.024-.216 0-.189-1.032-1.149-2.702-1.149z"/><path d="M55.694 37.594c-1.649 0-2.158.546-2.428.923 0 0-.216.081-.431.323 0 0 .108-.377.431-.458.27-.62 1.031-1.24 2.428-1.24a3.2 3.2 0 0 1 2.232.916l.083-.108a.4.4 0 0 1 .162.162c-.03-.009-.111-.022-.193 0 .095.104.161.198.193.27 0 0 .566.081.593.377 0 0-.216-.108-.593-.135-.135-.35-.951-1.031-2.477-1.031z"/><path d="M55.718 36.845c-1.186 0-1.823.467-1.994.701.117-.305.679-.916 1.994-.916s1.877.647 1.994.97c-.171-.252-.808-.755-1.994-.755z"/><path d="M55.718 36.458c-.977 0-1.503.389-1.644.584.096-.255.56-.764 1.644-.764s1.547.539 1.644.808c-.141-.21-.666-.629-1.644-.629zm0-.34c-.721 0-1.109.234-1.213.35.071-.153.413-.458 1.213-.458s1.142.323 1.213.485c-.104-.126-.492-.377-1.213-.377z"/></g><defs ><path id="B" d="M66.632 62.068c-.889-1.132-3.665-1.213-4.743-1.132-1.132 0-1.617.593-2.856.593-.992 0-1.464-.269-1.59-.404.394-.394 1.589-.626 2.102-.889.841-.431 2.039-.566 2.533-.62 3.53-.162 5.012 1.374 4.554 2.452z"/></defs></svg>
