<svg xmlns="http://www.w3.org/2000/svg" viewBox="0 0 1440 534" fill="currentColor"><path d="M948.8 227.2L932 274.8h.1l16.8-47.3zm-297.6 0l-16.8 47.6h.1l16.8-47.4z"/><path d="M655.4 239.1l12.5 35.7h-25.2l-6.3 18.1h38l10.7 30.5h24.1l-43.9-112.5zm-21 35.7l16.8-47.6.1.2 7-20.1h-18.5l-45.2 116.1h22.7l17.2-48.6zm147.9-11.2c-6.9-3.9-14.2-7-21.8-9.2-4.2-1.3-8.2-2.9-12.2-4.8-2.5-1.1-4.5-2.8-6.1-5-1.2-2-1.8-4.3-1.7-6.6-.1-2.1.3-4 1.2-5.9.9-1.8 2.2-3.4 3.9-4.5 4.3-2.7 9.1-4 14.2-3.7 5.3 0 10.5.8 15.6 2.3a54.35 54.35 0 0 1 14.4 6.3l3.1-18.8a55.55 55.55 0 0 0-15.6-6.3c-6-1.5-12.1-2.3-18.3-2.3-7.5-.2-14.6 1.1-21.5 4.1-5.8 2.5-10.5 6.5-14.1 11.8-3.5 5.5-5.2 11.5-5 18-.1 5.4 1 10.5 3.4 15.3 2.7 4.8 6.3 8.5 11 11.2 6.3 3.7 13 6.5 20.1 8.5 4.8 1.4 9.4 3.1 13.9 5.2 2.8 1.2 5 3 6.9 5.4 1.4 2.2 2 4.5 1.9 7.1.1 2.3-.4 4.4-1.4 6.4s-2.5 3.6-4.3 4.8c-4.9 3-10.2 4.4-15.9 4.1-6.3-.1-12.5-1-18.5-2.8-5.9-1.7-11.5-4.1-16.8-7.3l-2.1 19.4a42.48 42.48 0 0 0 10.5 5.1c9.1 3 18.4 4.5 28 4.6 13.5 0 24-3.1 31.6-9.4s11.5-15 11.6-26c.1-5.5-1.1-10.6-3.7-15.3-3.4-5.1-7.4-8.9-12.3-11.7zm23.1-56.3h96.2v18.9h-96.2zm36.7 26.9H865v89.2h-22.9zm89.9 40.6l16.8-47.6.1.3 7.1-20.2h-18.6l-45.2 116.1H915l10.7-30.5h.1l6.3-18.1zm21-35.6l12.5 35.6h-25.1l-6.4 18.1h38l10.8 30.5h24L963 211zm127.9 37.2c5.5-3.2 9.9-7.4 13.4-12.8 3.6-5.7 5.4-11.9 5.2-18.7.2-7.2-1.5-13.8-5.1-20-3.6-5.8-8.4-10.1-14.5-13-7.1-3.3-14.6-4.8-22.5-4.6h-7.9v17.5h4.9c15.2 0 22.7 6.6 22.7 19.9 0 13.2-7.8 19.9-23.3 19.8h-4.2v17.7h11.7l23.9 41.2h25.6l-29.9-47zm-60.8-69.1h21.7v116.1h-21.7zm-633 65.3c-1.5.7-2.6.2-3.7-.8-2.1-1.8-4-3.7-3.3-6.4-.9 2.8 1.1 4.8 3.3 6.6 1.2 1 2.2 1.4 3.7.8 1-.4 2.4-1.5 3.3-.4.5.7.6 1.6.3 2.5.3-.9.3-1.9-.3-2.7-.9-1.1-2.3 0-3.3.4zm-5.9-9.6c-4.3.3-5.1 4.1-8.1 5.9v.2c2.9-1.7 3.8-5.5 8-5.9 0-.1 0-.1.1-.2z"/><path d="M559.1 251.4c-7.3-55.4-52.3-94.1-102.8-99.4-3.8-.4-7.6-.6-11.5-.6-19.9 0-38.7 5-55 13.9-1.2.6-2.3 1.3-3.4 1.9-.4.2-.7.4-1.1.7l-3.1 1.9c-15.9 10.3-29.2 24.4-38.4 41.1-2.9 5.4-5.6 11.4-7.7 17.5-.3.5-.5 1.1-.8 1.6-1.8 5.4-3.3 11-4.3 16.7l-.6 4.1c-.7 5.3-1.1 10.7-1.1 16.2 0 4.7.3 9.3.8 13.9.8 3.3 1.1 6.7 1.6 10 9.6 45.9 46.5 81.7 92.9 89.9 2.8.3 5.6.5 8.3 1.2 3.9.4 7.9.6 11.9.6 2.6 0 5.2-.1 7.8-.3.6-.3 1.3-.2 1.9-.1.8-.1 1.7-.1 2.5-.2 5.9-.8 11.7-1.7 17.3-3.2.3-.1.5-.1.8-.2 3.6-1 7.1-2.2 10.5-3.7 3.7-1.3 7.2-2.7 10.6-4.3 7.9-3.9 15.2-8.7 22-14.2l.3-.3a1.38 1.38 0 0 1 .4-.3c4.4-3.7 8.5-7.8 12.3-12.3 7.1-8 12.8-16.5 17.3-25.3 5-10.1 8.6-21.1 10.4-32.7 1.7-10.9 1.7-22.3.2-34.1zm-196.7 43.7c-8.3-11.1-8.4-23.7-7.5-36.6.3-3.8 1.1-7.6 1.6-11.4 5.6-21.3 16.8-39.1 34.5-52.4 6.6-5 13.8-8.8 22.8-12.3l-4.7 7.6c-8 13.6-11.7 28.4-12.3 44-.1 3-1.3 4.2-3.7 5.5-9.3 4.9-18.3 10.9-25.2 19.2-2.9 3.4-4.3 7.5-5.4 11.7-2.5 10.1 2.6 20.4 11.6 24 8.7 3.4 17.6.7 23-6.8l1.1-1.7c3.2-5.5 3.6-11.4 1.1-17.3-.5-1.2-1.1-2.4.6-3 1.5-.5 1.7.8 2 1.8 4.3 13.5 11.2 25.6 20.1 36.5.3.3.2.9.3 1.3-1.3.6-2.6 1.2-3.9 1.7l-1.4.5c-9.9 3.6-20.5 4.9-30.6 3.1-9.4-1.7-17.9-7.2-24-15.4zm80.5 28.1c7.6 4.5 15.1 9.4 23.7 12.1 7.9 2.6 15.8 3.6 23.9.6 7.5-2.8 13.2-10.3 13.3-18.3.1-8.2-4.8-15.8-12.1-18.6-7.9-3-16.6-.8-22.2 5.7-.4.5-.8 1-1.1 1.5-.8 1.2-1.8 1.1-2.7.2-1.1-1.1.1-1.7.6-2.2 3.7-4.1 7.1-8.5 10.2-13.1 4.5-6.8 8.1-13.9 10.9-21.4.5-1.4.8-3.1 3-1.3 13.1 11.1 23.1 23.8 22.6 42.1-.3 11.3-4.9 21-13.8 28.1-10.1 8.1-21.9 13.6-34.6 16.4-28.6 6.1-54.2 0-78.1-18.9 18.1 1.3 34.6-1.9 49.8-9.3l.8-.4c.2-.1-.3.1 0 0h0c1.9-1 3.9-2 5.8-3.2M428 254.5c5.5-.7 11-1.6 17.2-1.6 5.1.1 10.9.8 16.7 2.1 2.2.6 2.8 1.3 2.1 3.4-3.8 11-9.4 21-17.5 29.5-1.5 1.5-2.4 1.8-4 0-7.8-8.7-13.3-18.6-16.7-29.8-.8-2.4-.2-3.3 2.2-3.6zm105.5 28.7c-6.3-13-13.8-23.3-23.9-31.9-4.1-3.5-8.3-6.9-13-9.6-2.1-1.2-2.6-2.5-2.6-5.1-.1-11.9.5-24-5.5-35-5.1-9.3-13.1-14.1-22.5-13.2-9.8 1-16.9 8.6-17.2 18.5s6.3 18.1 15.9 19.7c.5.1.9.1 1.4.2 1.4.1 2.6.5 2.2 2.2-.3 1.8-1.6.8-2.5.6-9.4-1.8-18.9-2.8-28.5-2.1-4 .3-8.1.6-12 1.2-2.1.3-2.4-.3-2.2-2.1 2.5-18.8 13-38.6 34-43.9 13.7-3.5 25.7 1.3 36.8 8.9 22.3 15.4 36.3 36.2 40 63.2 1.2 8.9 1 18.1-.4 28.4z"/><path d="M380.5 264.5c-.1.1-.1.1-.1.2"/></svg>
