<svg xmlns="http://www.w3.org/2000/svg" viewBox="0 0 2000 742.9"><g fill="currentColor"><path d="M998.6 312.7c31.6 5.5 56.5 35.3 51.2 66.9-4.6 27.3-27.7 45.5-52 48.4-23.4 2.8-44.5-2.7-60.3-21.5-26.2-31.2-13.4-76 25.8-90.5 4.2-1.6 16.1-3 24.9-3.4m-.8 95.5c22.5 0 39.7-16.3 39.8-37.7.1-21.7-17.7-38.9-40.3-38.6-23.3.2-39.6 16.8-39.8 38.4-.2 21.3 17.6 37.9 40.3 37.9h0zm-386.6 11.6l-44.7-105.9h-24.3l-46.1 111.1h19.7c3.1.1 4.8-1 5.9-3.9 2.1-5.2 4.6-10.3 6.6-15.5 1.1-2.7 2.6-3.6 5.5-3.6l42.1.1c2.3-.3 4.4 1.2 5 3.4 2 5.2 4.4 10.4 6.3 15.6 1.1 2.9 2.6 4.1 5.8 4 4.9-.3 9.8-.3 14.6 0 4.8.4 5.6-.7 3.6-5.3zm-44.2-38.5l-25.2-.1c-2 0-3.4-.2-2.2-2.8l15.1-35 14.6 34.2c1.2 2.7.8 3.7-2.3 3.7zm1383.9-23.7c-.4.3-1.1.6-1.2 1-6.4 16.3-19.5 21.7-35.7 22.2-12.7.4-12.7.4-12.7 13.2v29.7c0 3.4-.9 4.7-4.5 4.5-4.9-.3-9.8-.3-14.6 0-3.6.2-4.4-1.4-4.3-4.6V320.8c0-2.7.2-4.7 3.8-4.6 13.8.4 27.7-.6 41.5 1.5 12.8 2 21.8 8.4 26.2 20.8.3.9.5 1.8 1.6 2.1l-.1 16.9zm-49.4-8.5c0 2.6.1 5.2 0 7.8-.1 2.3.4 3.6 3 3.5 4.9-.1 9.7.2 14.5-.8 5.4-1.1 8.5-4.4 9-9.9.4-5.4-2.6-9.5-8.2-11.1-1.8-.5-3.6-.8-5.5-.9-12.8-1.2-12.8-1.2-12.8 11.4zm-471.6 81.5c-.6-1.8-2.3-1.7-3.7-2-11.7-2.8-19.7-10.1-26-20-1.4-2.3-1.6-3.6 1.1-4.7 1.9-.8 3.6-2 5.4-3 3.4-1.9 6.8-5.1 10.4-5.3 3.5-.2 4.7 5.1 7.4 7.6 7 6.6 15.7 8.2 22.6 3.9 5.8-3.6 6.9-8.7 3.1-14.3-2.8-4.3-7-7.2-11-10.3-8.3-6.4-16.8-12.5-24.2-20.1-8.4-8.5-13.8-18.2-8.8-30.3s15.1-17.8 27.6-19.2c15.3-1.7 27.2 5.2 37.4 15.8 1.8 1.9 1.4 3.1-.4 4.5-4.1 3.2-8.2 6.5-12.2 9.9-2 1.7-3.2 1-4.7-.6-2.9-3.3-6-6.2-10.1-7.9-2.9-1.4-6.2-1.7-9.3-.9-7.5 2.1-9.2 7.7-3.6 13.3 7.3 7.3 15.9 13.1 23.9 19.6 4.2 3.1 8.1 6.6 11.8 10.4 17 18.8 8.4 45.8-16.4 51.4-1.9.4-4 .7-5.4 2.3l-14.9-.1zm226.8-77.1c-4 20.6-9.8 40.7-14.7 61.1-3.1 12.9-3.2 13-16.4 12.8-11.5-.1-8.7 1.6-12-8.9l-17.6-56.8c-.4-1.3-.3-3.1-2.5-4.2l-3.8 12.1-16.3 53.1c-1 3.5-2.6 4.9-6.3 4.6-5.6-.5-12.4 2.1-16.5-1-4.1-3-3.5-10.2-4.9-15.6l-21.9-88.8c-1.3-5.2-.3-6.8 5-6.3 3.7.4 7.5.4 11.3 0 4.4-.5 5.8 1.6 6.7 5.4l14 57.8c.4 1.7.3 3.7 2.3 5.6.7-1.9 1.4-3.5 1.9-5.1l18-58.5c1.1-3.8 2.7-5.4 6.9-5.3 14 .2 14.1 0 18.2 13.5l15.6 51c.4 1.4.4 3 2.5 4.5L1628 338l18.3 15.4zm-847.1 16.1v-51.1c0-2.3-.5-4.7 3.1-4.6 15 .4 30-1 44.9 2 13.5 2.7 22.7 12.8 24.2 26.1 1.6 14.8-4.4 26.3-17.6 31.8-4.5 1.9-4.9 3.4-2.5 7.4l23.2 39.8c2.4 4 1.4 4.3-2.9 5-14.8 2.5-24.1-2.8-29.8-16.9-3.9-9.6-10.2-18.3-15.5-27.3-.7-1.2-1.1-3.3-3-2.9s-1.1 2.5-1.1 3.9v38.2c.1 3.8-1.3 5-4.9 4.8a92.56 92.56 0 0 0-12.9 0c-4.4.3-5.8-1-5.8-5.6l.6-50.6h0zm23-23.4v8.4c0 1.6.3 3.1 2.3 3.1 6.1 0 12.4.6 18.3-1.6 3.9-1.5 5.9-4.4 6.2-8.5.7-7.5-3.8-11.7-13.5-12.8-13.2-1.6-13.2-1.6-13.3 11.4h0zm286.6 24.5V319c0-2.6.5-4.2 3.7-4.1 13.7.4 27.3-.6 41 1.2 28.6 3.8 32.7 34.5 21.8 49-3.4 4.5-8.1 7.9-13.4 9.8-3.9 1.5-3.7 3.1-1.9 6.1l23.1 39.8c3 5.2 2.9 5.2-3 5.2-.9-.1-1.9-.1-2.8 0-12.6 2.5-19.8-3-24.9-14.5-4.5-10.2-11-19.6-16.6-29.3-.8-1.3-1.1-3.7-3.4-3-1.8.6-1 2.6-1 4v37.6c.1 3.9-1.1 5.3-5.1 5.1a101.36 101.36 0 0 0-13.5 0c-3.9.3-4.7-1.3-4.7-4.9l.1-50.5h.6zm31.9-35.6c-10.7 0-9.2-.9-9.3 8.7v1.1c0 15.4 1.2 16.4 16.7 13.2l1.6-.3c6-1.5 8.8-4.8 8.8-10.6 0-5.4-3.1-9.5-8.6-11-2.9-.9-6-1.2-9.2-1.1zm147.2 68.4c-6.4 0-12.8.2-19.1-.1-3.9-.2-6.3.9-7.7 4.8-1.8 4.9-4.2 9.6-6.1 14.5-1 2.6-2.5 3.8-5.5 3.6-4.9-.2-9.8-.3-14.6 0-4.9.3-4.9-1.5-3.3-5.3l28.8-67.7 14-33.7c1.4-3.5 3.2-5 7.1-4.7 6 .4 13-1.5 17.6 1s5.4 10.2 7.7 15.8l37.4 89.6c1.7 4 2.1 6.1-3.5 5.6-5.9-.6-13 2.1-17.6-1.1s-5.4-10.4-7.4-16c-1.7-4.7-4.1-6.9-9.4-6.4-6.1.6-12.3.2-18.4.1h0zm.1-20h0 12.4c3 .1 4.2-1 2.9-4l-13.1-30.9c-.4-.9-.7-2.3-2.2-2.1-1.1.2-1.1 1.3-1.5 2.1l-13.3 30.8c-1.2 2.8-.8 4.1 2.6 4l12.2.1h0zm417.5 27.9l24.6-59 13.3-31.5c1.4-3.4 3.2-5.1 7-4.7 5.9.5 12.9-1.9 17.6 1s5.4 10.3 7.7 15.8l37.1 89c2.6 6.1 2.5 6.3-3.8 6.1-5.8-.1-12.5 2.1-17-1s-5.4-10-7.2-15.4c-1.8-5.2-4.4-7.1-10.1-6.9-12.5.5-25.1.3-37.6 0-3.8-.1-5.7 1.2-7.1 4.7-2.3 5.7-5 11.3-7.6 16.8-1.7-1.5-3.3-3-5-4.4-4-3.5-6.8-8.4-11.9-10.5zm51.7-65.3l-15.1 34.9c-1.3 2.9-.3 3.6 2.5 3.6h25.2c2.3 0 3.7-.4 2.6-3.2l-15.2-35.3h0zm-1103.1 9.4l-.1-36.5c-.1-4 .8-6 5.2-5.4 5.9.7 13.5-2.5 17.3 1.4 3.5 3.6 1 11.1 1 16.9l-.3 52.2c0 2.3 0 4.5.2 6.8 1.3 13.6 11 19.9 24.1 15.8 7.3-2.3 11-7 11.2-15.6l.4-42.7V318c0-3.2 1-4.3 4.2-4.2a192.61 192.61 0 0 0 15.2 0c3.3-.1 4.2 1.1 4.1 4.3l-.4 73.6c-.1 22.1-17.1 34.6-34.4 36.3-7.1.8-14.3.2-21.2-1.7-16.1-4.9-25.1-15.8-26.3-32.5-.5-6.3-.4-12.7-.5-19.1l.3-19.3h0z"/><path d="M1646.3 353.4l-18.3-15.2 4.3-19c.5-2.5 1.8-3.3 4.3-3.3 5.4.1 10.8 0 16.2 0 2.1 0 3.2.5 2.5 2.9-3.3 11.5-5.1 23.3-9 34.6zm59.2 57.9c5.2 2.1 7.9 7.1 12 10.5 1.7 1.4 3.4 2.9 5 4.4-.7 2.3-2.6 1.7-4.2 1.7-3.4.1-6.8 0-10.1 0-10.2 0-10.3 0-6.1-9.6 1-2.5 1.4-5.1 3.4-7zM200.9 217.2c.6 0 1.2 0 1.9-.1.4 0 .8 0 .7-.6h22.2c-.1.7.5.6.9.6 3.2 0 6.3.5 9.5.9 4.3.5 8.6 1.4 12.8 2.3 8.3 1.9 16.4 4.5 24.3 7.7 6.6 2.7 12.9 5.8 19 9.4 5.7 3.4 11.3 7 16.5 11.1 3.5 2.7 6.8 5.5 10.1 8.4 2.5 2.3 5 4.6 7.3 7.1 5.3 5.6 10.2 11.5 14.7 17.8 5.2 7.3 9.7 14.8 13.5 22.9 1 2.2 2.2 4.3 2.8 6.7l-4-1.2c-6.3-1.9-12.7-3.2-19.1-4.6-1.4-.3-2.8-.8-4.3-.8-.4-.1-.7-.2-1.1-.3-.1-.1-.2-.3-.4-.4-5.6-4.1-11.2-8.1-17-11.9-10-6.6-20.3-12.6-31-17.9-.8-.4-1.5-.9-2.3-1.4-.3-.7-1.1-.9-1.7-1.2l-13.9-9.1c-5.5-3.3-11.1-6.4-16.8-9.4-7.3-3.9-14.6-7.7-21.6-12.2-4.1-2.6-8.1-5.2-11.6-8.5-2.2-2-4.2-4.2-5.9-6.6-2-2.9-4-5.7-5.5-8.7zM59.5 363.6c.7.1.6-.5.6-.9.2-6.5 1-12.9 2.3-19.3.2-1.1.2-2.2.7-3.2h.5c0 .4.2.6.4.9l8 11.2c8.1 11.8 15.3 24.1 21.5 37.1 2.9 6 5.5 12.1 8 18.3 5.3 13.1 10.1 26.3 14.4 39.8 3.9 12.3 8 24.6 13.1 36.4 2.7 6.2 5.6 12.2 8.8 18.1.9 1.7 2.2 3.3 2.7 5.3-2.7-1.1-5.1-2.8-7.5-4.3-5-3-9.7-6.4-14.3-10-3.3-2.6-6.5-5.3-9.5-8.2-2.4-2.4-4.9-4.7-7.2-7.2-4.9-5.2-9.4-10.7-13.6-16.5-4.8-6.7-9-13.7-12.6-21.1-5.2-10.6-9.2-21.7-11.9-33.2-1.2-5.5-2.3-11-2.9-16.6-.3-3.3-.8-6.5-.8-9.8 0-.4.2-.9-.6-.9l-.1-15.9z"/><path d="M323.8 480.5c.4.6-.2.8-.5 1.1-3.9 4-8.2 7.6-12.5 11.1-5.5 4.5-11.3 8.5-17.4 12.1-6.3 3.7-12.8 7-19.5 9.7-3.9 1.6-7.8 2.9-11.8 4.4-.3.1-.5.1-.8.1-1-2.2-1.9-4.4-3-6.5l-11-21.3c-3.2-6.2-6.5-12.3-9.9-18.4l-15.6-27.1-15.8-25.9c-3.6-5.8-7.4-11.4-11.1-17.1l-8.1-12.3-17.9-25.6c.6-.1 1.1.3 1.6.5l13.7 7.6c10.5 5.9 20.7 12.1 30.8 18.6 10.8 7 21.4 14.2 31.7 21.9 9.3 6.9 18.4 14 27.2 21.4 5.8 4.8 11.4 9.7 17.1 14.6 4.7 4.2 9.4 8.4 13.9 12.8l12.4 12.1 2.6 2.6c.3.3.6.8 1.2.7.5.4.6 1.1.9 1.6.5.7.9 1.4 1.8 1.3z" opacity=".4"/><path d="M168.9 364.8l17.9 25.6c2.8 4 5.4 8.2 8.1 12.3l11.1 17.1 15.8 25.9 15.6 27.1 9.9 18.4 11 21.3c1.1 2.1 2 4.3 3 6.5-3.2 1.4-6.7 2-10.1 2.9-4.7 1.3-9.4 2-14.2 2.8-3 .5-6 .6-9 .9-2.8.3-5.6.7-8.5.5 0-.2 0-.5-.1-.7-2.4-7.6-5.2-15.1-8-22.6l-5.6-14.3c-4.6-11.5-9.8-22.8-15.1-33.9-3-6.3-6.2-12.4-9.5-18.5-4-7.6-8.2-15.1-12.6-22.5-8.8-14.9-18.3-29.4-28.5-43.4-3.8-5.2-7.5-10.4-11.5-15.4L116.8 340c.5 0 .9.1 1.4.3 6.5 2.9 13.1 5.6 19.5 8.7 8.4 3.9 16.7 7.8 24.9 12.2 1.7.9 3.3 1.9 5.2 2.5l1.1 1.1z" opacity=".6"/><path d="M116.8 340l11.7 14.8c4 5 7.7 10.2 11.5 15.4 10.2 14 19.6 28.5 28.5 43.4 4.4 7.4 8.6 14.9 12.6 22.5 3.3 6.1 6.5 12.3 9.5 18.5 5.4 11.2 10.6 22.4 15.1 33.9 1.9 4.7 3.9 9.5 5.6 14.3 2.8 7.5 5.6 15 8 22.6.1.2.1.5.1.7h-3.5l-3.6-6.7c-3.5-6.4-7.3-12.6-11.1-18.8l-14-22.2c-7.4-11.6-15.2-23.1-23.5-34.1-4.1-5.4-8.2-10.7-12.5-15.9l-8.1-9.6c-2.2-2.5-4.2-5.2-6.5-7.6-1.2-1.3-2-3-3.8-3.8h0c0-.2-.1-.5-.3-.6-1-1.8-2.6-3.1-4-4.6-4.2-4.6-8.4-9.3-12.8-13.7l-21-20.9-16.3-15.1-12.5-11c-.7-.6-1.2-1.8-2.4-1.5H63v-.5l.1-.1c0-.1-.1-.1-.1-.2 1.6-7 3.5-13.9 6-20.7.6-1.8 1.2-3.6 2.1-5.2.1 0 .3 0 .4.1 4 3 8.3 5.6 12.5 8.3 9.6 6.2 19.5 11.9 29.9 16.7.7.3 1.5.7 2.3.7.2.6.4.7.6.9z" opacity=".7"/><path d="M328.7 304.3l1.1.3c.1.3.3.5.5.6 3 2.1 5.9 4.3 8.7 6.8 5.4 4.8 10.7 9.6 15.9 14.6 3 2.9 5.7 5.9 8.3 9.1.7.9 1.4 2 2.6 2.5.1.1.1.2.2.3.5 2.9 1.2 5.8 1.6 8.7.3 2.5.8 5 1.1 7.5.7 6.8 1.1 13.7.8 20.5-.2 4.7-.5 9.4-1.1 14.2-.6 4.9-1.4 9.7-2.4 14.5l-.3 1.4c-.1-.1-.3-.2-.3-.3-3.3-4.7-7-9.1-10.7-13.5l-13.9-16.4c-4.9-5.5-9.8-11-15-16.3-7.6-7.8-15.3-15.6-23.6-22.8-3.1-2.7-6.1-5.7-9.3-8.3l-15.6-13.1c-5.3-4.3-10.6-8.4-16-12.6-4.8-3.7-9.7-7.1-14.6-10.6 2.1-.1 4.1.3 6.1.6 5.8.7 11.5 1.2 17.3 2.1l24.3 3.8c7.9 1.3 15.7 3 23.6 4.4 3.7.9 7.1 1.7 10.7 2z" opacity=".8"/><path d="M323.8 480.5c-1 .1-1.3-.6-1.7-1.3-.3-.5-.4-1.2-.9-1.6l-5.4-9.8-11.1-19.7-8.5-15.1-9.6-17-7.3-13.2-9.9-17.6-8.5-15-6.5-11.8c.5 0 .9.3 1.3.6l8.6 4.9 16.4 9.4 18.5 10.6 17.6 10 20.1 11.4 15.7 9 9.3 5.1c-.9 3.6-2.3 7-3.7 10.4a128.72 128.72 0 0 1-6.6 14.1c-3.9 7.3-8.3 14.3-13.4 20.9-3.7 4.8-7.5 9.4-11.8 13.8-.7.8-1.6 1.5-2.6 1.9z" opacity=".4"/><path d="M63.5 340.3c1.3-.2 1.7.9 2.4 1.5l12.5 11c5.6 4.9 10.9 10 16.3 15.1 7.2 6.8 14.1 13.9 21 20.9 4.4 4.4 8.6 9.1 12.8 13.7 1.4 1.5 2.9 2.9 4 4.6 0 .2.1.5.3.6.3 1.2 1 2.3 1.6 3.4 4.5 8.7 9.1 17.3 12.7 26.4 3.7 9.3 6.4 19 9.1 28.7.9 3.2 1.4 6.4 2.6 9.5l.3.3.3 1.4c-.3.2-.3.4 0 .6v.6l3.7 15.9c1.6 6.9 3.1 13.8 4.4 20.7.2 1-.1 2.2 1 2.9v.6c-.3.2-.3.5-.3.8-8.6-2.8-17-6.2-25-10.3-1-.5-1.9-1.1-2.9-1.7-.5-2-1.8-3.6-2.7-5.3-3.2-5.9-6.1-11.9-8.8-18.1-5.1-11.9-9.1-24.1-13.1-36.4-4.3-13.4-9-26.7-14.4-39.8-2.5-6.1-5.2-12.2-8-18.3-6.1-12.9-13.3-25.3-21.5-37.1-2.6-3.8-5.3-7.4-8-11.2 0-.4-.3-.6-.3-1z" opacity=".9"/><path d="M246.9 291.7c4.9 3.5 9.8 6.9 14.6 10.6 5.4 4.1 10.7 8.3 16 12.6s10.4 8.7 15.6 13.1c3.2 2.7 6.2 5.6 9.3 8.3 8.2 7.2 16 14.9 23.6 22.8 5.1 5.3 10 10.8 15 16.3 4.8 5.3 9.3 10.9 13.9 16.4 3.7 4.4 7.4 8.8 10.7 13.5l.3.3c-.7 2.9-1.2 5.9-2.3 8.6-.5 0-.9-.4-1.2-.7l-25.4-19-23.9-18.2-12.9-10-17.2-13.5-12.2-9.9-11.8-10c-4.4-3.7-8.7-7.5-12.8-11.5-6.5-6.2-12.7-12.8-18.8-19.4-2.2-2.3-4.2-4.8-6.4-7.2l-5.2-5.7c-.2-.1-.3-.3-.3-.6l5.1.3c3.9.3 7.8.7 11.7 1.1 2.6.3 5.3.7 7.9.8 1.7 0 3.4.9 5.2.1.5.1.9.7 1.5.9z" opacity=".6"/><path d="M159.4 478.5v-.6c.3-.2.3-.4 0-.6l-.3-1.4-.3-.3c-1.1-3.1-1.7-6.3-2.6-9.5-2.6-9.7-5.4-19.3-9.1-28.7-3.6-9.1-8.2-17.7-12.7-26.4-.6-1.1-1.3-2.2-1.6-3.4 1.8.7 2.6 2.5 3.8 3.8 2.3 2.4 4.4 5 6.5 7.6l8.1 9.6c4.3 5.2 8.4 10.5 12.5 15.9 8.3 11 16.1 22.4 23.5 34.1l14 22.2c3.8 6.2 7.5 12.4 11.1 18.8l3.6 6.7a99.57 99.57 0 0 1-13.4-.3c-8.8-.7-17.5-2.2-26.1-4.3-2.6-.7-5.2-1.2-7.6-2.3 0-.3 0-.6-.3-.8v-.6l-1.4-8.1c-1.9-10.2-4.3-20.3-7-30.3 0-.4 0-1-.7-1.1z" opacity=".8"/><path d="M215.5 289.1l5.2 5.7 6.4 7.2c6.2 6.6 12.3 13.2 18.8 19.4 4.2 3.9 8.4 7.8 12.8 11.5l11.8 10 12.2 9.9 17.2 13.5 12.9 10 23.9 18.2 25.4 19c.4.3.7.7 1.2.7-.3 1.9-.9 3.7-1.6 5.5l-9.3-5.1-15.7-9-20.1-11.4-17.6-10-18.5-10.6-16.4-9.4-8.6-4.9c-.4-.2-.8-.5-1.3-.6-.4-.4-.6-.9-1.1-1.2 0-.8-.4-1.4-.7-2-1.9-3.5-3.9-6.9-5.9-10.3l-9.9-17.8-11.2-19.8-7.3-13c-.8-1.9-2.1-3.5-2.6-5.5z" opacity=".5"/><path d="M365.8 338.3c-1.2-.5-1.9-1.6-2.6-2.5-2.6-3.2-5.3-6.3-8.3-9.1-5.2-5-10.5-9.8-15.9-14.6-2.8-2.4-5.7-4.7-8.7-6.8-.2-.2-.5-.3-.5-.6 1.5 0 2.9.5 4.3.8 6.4 1.4 12.8 2.7 19.1 4.6l4 1.2c1.4 2.5 2.2 5.2 3.2 7.8 2.2 6 3.9 12.1 5.4 18.3v.9z" opacity=".9"/></g><path d="M168.6 518.5c.3.2.3.5.3.8h-.6c0-.3 0-.6.3-.8z" fill="currentColor"/><path d="M366.1 338.6c-.1-.1-.1-.2-.2-.3.1 0 .2.1.2.3z" fill="currentColor"/><g fill="currentColor"><path d="M253.3 357.3c.6.2.7.8 1.1 1.2l6.5 11.8 8.5 15 9.9 17.6 7.3 13.2 9.6 17 8.5 15.1 11.1 19.7 5.4 9.8c-.6 0-.8-.4-1.2-.7l-2.6-2.6-12.4-12.1-13.9-12.8-17.1-14.6c-8.9-7.4-18-14.5-27.2-21.4-10.3-7.7-20.9-14.9-31.7-21.9-10.1-6.5-20.3-12.8-30.8-18.6l-13.7-7.6c-.5-.3-1-.6-1.6-.5l-1.2-1.2c0-.6-.5-1-.8-1.5l-6.1-8.3-12.2-16.1-12.7-16-8.4-10.3-10.2-12c-4-4.8-8.1-9.4-12.3-14-1.6-1.7-3-3.5-4.6-5.1-2.1-2-3.8-4.4-6.1-6.3 1-1.8 2.5-3.2 3.8-4.7 3.4-3.9 7.1-7.6 10.9-11.1.5.2.6.6.8 1 4.7 8 10.1 15.4 17.3 21.4 5.8 4.9 11.8 9.5 18.1 13.9 6 4.1 12.2 8.1 18.4 11.9l21.2 12.6c5.8 3.5 11.8 6.7 17.7 10l20.8 11.6 14.2 7.9 15.7 8.7z" opacity=".3"/><path d="M253.3 357.3l-15.8-8.8-14.2-7.9-20.8-11.6c-5.9-3.3-11.9-6.5-17.7-10l-21.2-12.6c-6.3-3.8-12.4-7.8-18.4-11.9-6.3-4.3-12.2-9-18.1-13.9-7.2-6-12.6-13.4-17.3-21.4-.2-.4-.3-.8-.8-1 3.1-2.9 6.3-5.8 9.8-8.3 1 1.2 2 2.4 3.1 3.5 3.5 3.6 7 7.2 10.9 10.4 4 3.2 8.1 6.5 12.8 8.7 6.7 3.2 13.8 5.6 21 7.5l13.9 3.5c5.2 1.2 10.4 1.8 15.6 2.7 3.1.5 6.3.8 9.5 1.3 3.2.4 6.4.9 9.7 1 0 .2.1.4.3.6.5 2 1.8 3.6 2.7 5.3l7.3 13 11.2 19.8 9.9 17.8c1.9 3.5 3.9 6.9 5.9 10.3.3.6.7 1.2.7 2z" opacity=".4"/><path d="M215.2 288.5c-3.2-.1-6.4-.6-9.7-1l-9.5-1.3c-5.2-.9-10.5-1.5-15.6-2.7l-13.9-3.5c-7.2-1.9-14.3-4.3-21-7.5-4.7-2.2-8.7-5.5-12.8-8.7-4-3.1-7.4-6.8-10.9-10.4-1.1-1.1-2.1-2.3-3.1-3.5 4.4-3.7 9.2-7 14.1-10 5-3.1 10.1-5.9 15.5-8.4 1.2-.6 2.4-1.1 3.6-1.6.4.2.8.5 1.2.7 5.2 2.5 10.6 4.6 15.9 6.7 3.7 1.5 7.3 3.1 11 4.3.5.2.9.4 1.4.6 0 .3.3.5.5.7l11.8 9.3 20.3 15.5 25 18.6c2 1.5 4.2 2.7 6 4.6-1.7.8-3.4-.1-5.2-.1-2.6 0-5.3-.5-7.9-.8l-11.7-1.1c-1.5-.2-3.2-.3-5-.4z" opacity=".6"/><path d="M94.3 274.1c2.3 1.8 4 4.2 6.1 6.3 1.6 1.6 3 3.4 4.6 5.1 4.2 4.6 8.3 9.2 12.3 14l10.2 12 8.4 10.3c4.4 5.2 8.5 10.6 12.7 16l12.2 16.1c2.1 2.7 4.1 5.5 6.1 8.3.3.5.8.9.8 1.5-1.8-.6-3.5-1.6-5.2-2.5-8.1-4.4-16.5-8.3-24.9-12.2-6.4-3-13-5.8-19.5-8.7-.5-.2-.9-.3-1.4-.3l-.6-.6c-1.7-1.8-3.3-3.7-5-5.5-4.8-4.9-9.3-10.2-13.5-15.6-6.2-8-11.7-16.4-16.5-25.3 3.6-6.2 7.6-12.1 12.2-17.7.3-.4.5-.9 1-1.2z" opacity=".5"/><path d="M181.6 242.2l-1.4-.6-4.4-6.5c-2.2-3.9-4.5-7.7-6-11.9 10.2-3.1 20.5-5.1 31.1-6 1.5 3 3.5 5.8 5.6 8.5 1.8 2.4 3.8 4.6 5.9 6.6 3.5 3.3 7.6 5.9 11.6 8.5 7 4.5 14.3 8.3 21.6 12.2 5.7 3 11.3 6.1 16.8 9.4 4.8 2.8 9.3 6 13.9 9.1.6.4 1.4.5 1.7 1.2-.4-.1-.8-.1-1.1-.3l-7-3.2c-6.8-3.1-13.8-5.9-20.9-8.3-8-2.7-16-5.2-24-7.7-11.8-3.6-23.7-6.8-35.7-9.4-2.6-.6-5.1-1.3-7.7-1.6z" opacity=".9"/><path d="M81.1 293.1c4.9 8.9 10.3 17.3 16.5 25.3 4.2 5.4 8.7 10.7 13.5 15.6 1.7 1.8 3.4 3.7 5 5.5-.8 0-1.6-.4-2.3-.7-10.4-4.9-20.3-10.6-29.9-16.7-4.2-2.7-8.5-5.3-12.5-8.3-.1-.1-.3-.1-.4-.1.6-2.1 1.5-4.1 2.5-6.1 2.4-5 4.7-9.9 7.6-14.5z" opacity=".8"/><path d="M169.8 223.2c1.5 4.2 3.8 8 6 11.9 1.3 2.3 3 4.3 4.4 6.5-3.8-1.2-7.4-2.8-11-4.3-5.4-2.1-10.7-4.3-15.9-6.7-.4-.2-.8-.5-1.2-.7 5.6-2.6 11.6-4.9 17.7-6.7z" opacity=".7"/></g><path d="M63 339.5c0 .1.1.1.1.2l-.1.1v-.3z" fill="#29809a"/><path d="M181.6 242.2c2.6.3 5.1 1 7.7 1.5 12 2.7 23.9 5.8 35.7 9.4 8 2.5 16.1 4.9 24 7.7 7.1 2.5 14.1 5.2 20.9 8.3l7 3.2c.3.2.7.2 1.1.3.8.5 1.5 1 2.3 1.4 10.7 5.3 21 11.3 31 17.9 5.8 3.8 11.4 7.8 17 11.9.1.1.2.3.4.4-3.6-.3-7-1.2-10.5-1.8l-23.6-4.4-24.3-3.8c-5.7-.9-11.5-1.4-17.3-2.1-2-.3-4.1-.6-6.1-.6-.6-.2-1-.8-1.7-.9-1.8-1.8-4-3.1-6-4.6l-25-18.6-20.3-15.5-11.8-9.3c-.3.1-.5-.1-.5-.4z" opacity=".7" fill="currentColor"/><path d="M132.9 407.7c-.2-.1-.3-.3-.3-.6.3.1.3.3.3.6z" fill="#35a9b1"/><path d="M159.4 478.5c.7.1.7.7.8 1.1 2.7 10 5.1 20.1 7 30.3l1.4 8.1c-1.1-.7-.9-1.9-1-2.9-1.3-6.9-2.8-13.8-4.4-20.7l-3.8-15.9zm0-1.2c.3.2.3.4 0 .6-.3-.2-.3-.3 0-.6z" opacity=".8" fill="currentColor"/><path d="M158.8 475.6l.3.3-.3-.3z" fill="#2e9f9a"/></svg>
