<svg xmlns="http://www.w3.org/2000/svg" viewBox="0 0 1440 534" fill="currentColor"><path d="M716.4 213.4a1.54 1.54 0 0 1 1.5 1.5v63c0 29.9-18.7 44.6-43.4 44.6s-43.4-14.7-43.4-44.6v-63a1.54 1.54 0 0 1 1.5-1.5h14.6a1.54 1.54 0 0 1 1.5 1.5v61.9c0 20.8 10.9 29.1 25.7 29.1s25.6-8.3 25.6-29.1v-61.9a1.54 1.54 0 0 1 1.5-1.5h14.9zM973.1 267c-.2 31.6-24.2 55.5-55.6 55.5s-55.6-23.9-55.6-55.5 24.2-55.5 55.6-55.5 55.4 23.9 55.6 55.5zm-93.8 0c0 22.4 16.4 38.9 38.1 38.9s38-16.5 38-38.9-16.4-38.9-38-38.9-38.1 16.5-38.1 38.9h0zm246 53.6h-15.2c-.8 0-1.5-.7-1.5-1.6 0-.2 0-.3.1-.5l40.1-103.6c.3-.9 1.2-1.4 2.1-1.4h19c.9 0 1.8.6 2.1 1.4l40.1 103.7c.3.8-.1 1.7-.9 1.9-.2.1-.3.1-.5.1h-15.2c-.6 0-1.2-.4-1.4-1l-32.4-85.3c-.3-.8-1.2-1.1-2-.8-.3.2-.6.4-.8.8l-32.4 85.3c-.1.6-.7 1-1.2 1zm-607.3 0h-15.2c-.8 0-1.5-.7-1.5-1.6 0-.2 0-.3.1-.5L541.5 215c.3-.9 1.2-1.4 2.1-1.4h19c.9 0 1.7.6 2.1 1.4l40.1 103.7c.3.8-.1 1.7-.9 1.9-.2.1-.3.1-.5.1h-15.2c-.6 0-1.2-.4-1.4-1l-32.3-85.4c-.3-.8-1.2-1.1-2-.8-.3.2-.6.4-.8.8l-32.4 85.3c-.2.6-.7 1-1.3 1zm562.7-2.4l-30.1-38.4c17-3.2 26.9-14.7 26.9-32.3 0-20.2-13.2-34-36.5-34h-41.9a2.22 2.22 0 0 0-2.2 2.2h0a14.3 14.3 0 0 0 14.3 14.3h28.1c14.1 0 20.8 7.2 20.8 17.6s-6.6 17.7-20.8 17.7h-40.1a2.22 2.22 0 0 0-2.2 2.2V319a1.54 1.54 0 0 0 1.5 1.5h14.3a1.54 1.54 0 0 0 1.5-1.5v-38.5h16.5l26.1 34.1c2.8 3.7 7.2 5.8 11.8 5.8h10.9c.8-.1 1.5-.8 1.4-1.6-.1-.1-.2-.4-.3-.6zm-243 0l-30.1-38.4c17-3.2 26.9-14.7 26.9-32.3 0-20.2-13.2-34-36.5-34h-41.9a2.22 2.22 0 0 0-2.2 2.2h0 0a14.3 14.3 0 0 0 14.3 14.3h28.1c14.1 0 20.8 7.2 20.8 17.6s-6.6 17.7-20.8 17.7h-40.1a2.22 2.22 0 0 0-2.2 2.2h0V319a1.54 1.54 0 0 0 1.5 1.5h14.3a1.54 1.54 0 0 0 1.5-1.5v-38.5h16.5l26.1 34.1c2.8 3.7 7.2 5.8 11.8 5.8h10.9c.8-.1 1.5-.8 1.4-1.6 0-.1-.1-.4-.3-.6zM337.2 174.3c9.2 0 17.6 5.2 21.7 13.4l68.4 136.7c6 12 1.1 26.6-10.9 32.6-3.4 1.7-7.1 2.6-10.9 2.6H268.8c-13.4 0-24.3-10.9-24.3-24.3 0-3.8.9-7.5 2.6-10.9l68.4-136.7c4.1-8.2 12.5-13.4 21.7-13.4m0-16.7c-15.5 0-29.7 8.8-36.7 22.7L232.2 317c-10.1 20.3-1.9 44.9 18.3 55 5.7 2.9 12 4.3 18.4 4.3h136.7c22.7 0 41-18.4 41-41 0-6.4-1.5-12.7-4.3-18.4l-68.4-136.7c-7-13.8-21.2-22.6-36.7-22.6z"/></svg>
