<svg xmlns="http://www.w3.org/2000/svg" width="2000" height="743" fill="currentColor"><path d="M653.181 318.013h16.405l45.904 105.984h-21.672l-9.934-24.251h-46.205l-9.633 24.251h-21.222l46.357-105.984zm24.081 65.566l-16.405-43.112-16.707 43.112h33.112zm58.566-65.566h21.824l29.047 80.086 29.95-80.086h20.472l-43.047 105.984H777.67l-41.842-105.984zm169.069 0h16.409l45.901 105.984h-21.673l-9.931-24.251h-46.208l-9.633 24.251h-21.219l46.354-105.984zm24.082 65.566l-16.404-43.112-16.707 43.112h33.111zm80.171-65.566h18.97v88.918h45.3v17.066h-64.27V318.013zm142.61 0h16.41l45.9 105.984h-21.67l-9.93-24.251h-46.21l-9.63 24.251h-21.22l46.35-105.984zm24.09 65.566l-16.41-43.112-16.7 43.112h33.11zm80.17-65.566h25.13l51.63 78.739h.3v-78.739h18.96v105.984h-24.08l-52.68-81.285h-.3v81.285h-18.96V318.013zm223.03 24.85c-3.91-4.191-7.72-6.985-11.44-8.383-3.61-1.397-7.27-2.095-10.98-2.095-5.52 0-10.54.997-15.05 2.993a33.05 33.05 0 0 0-11.44 8.084c-3.22 3.393-5.72 7.385-7.53 11.976-1.7 4.59-2.56 9.53-2.56 14.819 0 5.688.86 10.928 2.56 15.718 1.81 4.79 4.31 8.932 7.53 12.425 3.21 3.493 7.02 6.237 11.44 8.233 4.51 1.996 9.53 2.994 15.05 2.994 4.31 0 8.48-.998 12.49-2.994 4.11-2.096 7.92-5.389 11.44-9.88l15.65 11.078c-4.82 6.586-10.68 11.376-17.61 14.37-6.92 2.994-14.3 4.491-22.12 4.491-8.23 0-15.81-1.297-22.73-3.892-6.83-2.695-12.75-6.437-17.76-11.227-4.92-4.89-8.78-10.728-11.59-17.514s-4.21-14.321-4.21-22.604c0-8.483 1.4-16.167 4.21-23.053 2.81-6.986 6.67-12.924 11.59-17.814 5.01-4.89 10.93-8.632 17.76-11.227 6.92-2.694 14.5-4.042 22.73-4.042 7.22 0 13.89 1.298 20.01 3.892 6.22 2.495 11.99 6.786 17.31 12.874l-14.75 10.778zm60-24.85h18.96v42.213h49.81v-42.213h18.97v105.984h-18.97v-46.705h-49.81v46.705h-18.96V318.013zm141.65 0h70.59v17.065h-51.63v26.047h48.92v17.065h-48.92v28.741H1754v17.066h-73.3V318.013z"/><path fill-rule="evenodd" d="M550.689 371.02c0 83.958-68.431 152.02-152.844 152.02S245 454.978 245 371.02 313.431 219 397.845 219s152.844 68.062 152.844 152.02zm-196.156 60.493H324.87c-6.232 0-9.312 0-11.189-1.195-2.027-1.307-3.267-3.473-3.417-5.863-.112-2.204 1.427-4.893 4.506-10.27l73.241-128.402c3.117-5.452 4.694-8.178 6.684-9.186 2.14-1.083 4.693-1.083 6.834 0 1.99 1.008 3.567 3.734 6.683 9.186l15.057 26.142.077.134c3.366 5.849 5.073 8.815 5.818 11.929a22.06 22.06 0 0 1 0 10.382c-.751 3.137-2.441 6.125-5.858 12.063l-38.471 67.64-.1.173c-3.389 5.898-5.106 8.886-7.485 11.143a22.41 22.41 0 0 1-9.124 5.265c-3.117.859-6.609.859-13.593.859zm74.909.003h42.504c6.271 0 9.425 0 11.302-1.232 2.028-1.307 3.304-3.511 3.417-5.901.109-2.13-1.397-4.715-4.349-9.78l-.307-.527-21.29-36.225-.242-.407c-2.992-5.033-4.503-7.574-6.441-8.556-2.141-1.083-4.656-1.083-6.796 0-1.953 1.008-3.53 3.66-6.647 9l-21.214 36.225-.073.125c-3.105 5.332-4.657 7.996-4.545 10.183.15 2.39 1.389 4.593 3.417 5.9 1.839 1.195 4.993 1.195 11.264 1.195z"/></svg>
