<svg xmlns="http://www.w3.org/2000/svg" width="126" height="21" fill="none"><path d="M7.039 12.886c1.691.426 3.688.672 5.826.672s4.135-.246 5.826-.672c3.892.697 6.539 2.071 6.539 3.652 0 2.286-5.536 4.139-12.365 4.139S.5 18.824.5 16.538c0-1.581 2.647-2.955 6.539-3.652zm1.49-6.703c1.27.313 2.753.492 4.336.492s3.066-.18 4.336-.492c3.305.534 5.583 1.659 5.583 2.96 0 1.817-4.441 3.29-9.919 3.29s-9.919-1.473-9.919-3.29c0-1.301 2.278-2.426 5.583-2.96z" fill-rule="evenodd" fill="currentColor"/><path d="M12.911 5.639c4.103 0 7.428-1.115 7.428-2.491S17.013.657 12.911.657 5.482 1.772 5.482 3.148s3.326 2.491 7.428 2.491zm19.298 13.268V1.627h5.511c1.061 0 1.976.105 2.743.314s1.399.506 1.893.892a3.52 3.52 0 0 1 1.097 1.417c.237.559.356 1.188.356 1.887a3.83 3.83 0 0 1-.199 1.23 3.59 3.59 0 0 1-.603 1.097c-.269.337-.607.639-1.013.904s-.882.482-1.429.651c1.262.249 2.215.703 2.858 1.363s.965 1.527.965 2.605c0 .732-.135 1.399-.404 2.002s-.663 1.121-1.182 1.555-1.154.77-1.905 1.007-1.61.356-2.575.356h-6.114zm2.339-7.874v6.017h3.738c.667 0 1.24-.076 1.718-.229s.872-.368 1.182-.645a2.5 2.5 0 0 0 .681-.989 3.53 3.53 0 0 0 .217-1.26c0-.892-.316-1.598-.947-2.116s-1.586-.778-2.864-.778h-3.726zm0-1.664h3.087c.659 0 1.23-.072 1.712-.217s.882-.346 1.2-.603.553-.569.705-.935a3.1 3.1 0 0 0 .229-1.2c0-1.013-.306-1.757-.916-2.231s-1.56-.711-2.846-.711h-3.172v5.897zm22.278 9.538h-.953c-.209 0-.378-.032-.506-.096s-.213-.201-.253-.41l-.241-1.134-.941.778c-.305.229-.627.422-.965.579a5.02 5.02 0 0 1-1.079.356 6.19 6.19 0 0 1-1.272.121 4.33 4.33 0 0 1-1.332-.199c-.414-.133-.774-.332-1.079-.597s-.549-.601-.73-1.007-.271-.886-.271-1.441c0-.482.133-.947.398-1.393s.693-.842 1.284-1.188 1.365-.629 2.321-.85 2.126-.348 3.509-.38v-.953c0-.949-.203-1.666-.609-2.152s-1.007-.73-1.803-.73c-.523 0-.963.066-1.32.199a5 5 0 0 0-.928.446l-.675.446c-.189.133-.376.199-.561.199a.64.64 0 0 1-.38-.115.87.87 0 0 1-.259-.283l-.386-.687c.675-.651 1.403-1.138 2.183-1.459s1.644-.482 2.593-.482c.683 0 1.29.113 1.821.338a3.72 3.72 0 0 1 1.338.941c.361.402.635.888.82 1.459s.277 1.198.277 1.881v7.814zm-5.571-1.314a4.38 4.38 0 0 0 1.037-.114 4.04 4.04 0 0 0 .886-.326 4.7 4.7 0 0 0 .796-.512c.253-.201.5-.43.742-.687V13.41c-.989.032-1.829.111-2.52.235s-1.254.287-1.688.488-.75.438-.947.712a1.53 1.53 0 0 0-.295.916c0 .322.052.599.157.832a1.58 1.58 0 0 0 .422.573c.177.149.386.257.627.326s.502.102.784.102zM62.85 1.145v17.762h-2.146V1.145h2.146zm13.138 17.762h-.953c-.209 0-.378-.032-.506-.096s-.213-.201-.253-.41l-.241-1.134-.941.778a5.38 5.38 0 0 1-.965.579 5 5 0 0 1-1.079.356 6.19 6.19 0 0 1-1.272.121 4.33 4.33 0 0 1-1.332-.199c-.414-.133-.774-.332-1.079-.597a2.84 2.84 0 0 1-.73-1.007c-.181-.406-.271-.886-.271-1.441 0-.482.133-.947.398-1.393s.693-.842 1.284-1.188 1.365-.629 2.321-.85 2.126-.348 3.509-.38v-.953c0-.949-.203-1.666-.609-2.152s-1.007-.73-1.803-.73c-.523 0-.963.066-1.32.199a5 5 0 0 0-.928.446l-.675.446c-.189.133-.376.199-.561.199a.64.64 0 0 1-.38-.115c-.109-.077-.195-.171-.259-.283l-.386-.687c.675-.651 1.403-1.138 2.183-1.459s1.644-.482 2.593-.482c.683 0 1.29.113 1.821.338a3.72 3.72 0 0 1 1.338.941c.361.402.635.888.82 1.459s.277 1.198.277 1.881v7.814zm-5.571-1.314a4.38 4.38 0 0 0 1.037-.114 4.06 4.06 0 0 0 .886-.326 4.72 4.72 0 0 0 .796-.512 6.89 6.89 0 0 0 .742-.687V13.41c-.989.032-1.829.111-2.52.235s-1.254.287-1.688.488-.75.438-.947.712a1.53 1.53 0 0 0-.295.916c0 .322.052.599.157.832s.245.424.422.573.386.257.627.326.502.102.784.102zm9.207 1.314V6.692h1.278c.305 0 .498.149.579.446l.169 1.326a6.88 6.88 0 0 1 1.779-1.423c.655-.362 1.413-.543 2.273-.543.667 0 1.256.111 1.767.332s.936.535 1.278.941.601.894.778 1.465.265 1.202.265 1.893v7.778h-2.147V11.13c0-.924-.211-1.642-.633-2.152s-1.067-.766-1.935-.766a3.61 3.61 0 0 0-1.779.458 5.86 5.86 0 0 0-1.525 1.242v8.996h-2.146zm22.122-10.045a.99.99 0 0 1-.193.205c-.064.048-.157.072-.278.072s-.251-.05-.392-.151-.319-.211-.536-.332-.481-.231-.79-.332-.689-.151-1.14-.151c-.595 0-1.121.107-1.58.32a3.07 3.07 0 0 0-1.152.922c-.31.401-.543.888-.699 1.459s-.235 1.21-.235 1.917c0 .74.084 1.397.253 1.972s.406 1.057.711 1.447a3.03 3.03 0 0 0 1.115.892c.438.205.93.307 1.477.307.522 0 .953-.062 1.29-.187a3.95 3.95 0 0 0 .844-.416l.555-.416c.145-.125.289-.187.434-.187.185 0 .322.068.41.205l.603.784a4.64 4.64 0 0 1-1.99 1.429c-.796.301-1.636.452-2.52.452-.764 0-1.473-.141-2.128-.422a4.84 4.84 0 0 1-1.706-1.224c-.482-.535-.862-1.192-1.14-1.972s-.416-1.668-.416-2.665c0-.908.127-1.748.38-2.52a5.71 5.71 0 0 1 1.109-1.996 5.01 5.01 0 0 1 1.803-1.308c.716-.313 1.535-.47 2.46-.47.852 0 1.608.139 2.267.416a5.42 5.42 0 0 1 1.748 1.176l-.566.772zm8.145-2.363c.732 0 1.407.123 2.026.368s1.153.599 1.604 1.061.802 1.033 1.055 1.712.38 1.453.38 2.321c0 .338-.037.563-.109.675s-.209.169-.41.169h-8.127c.016.772.12 1.443.313 2.014s.458 1.047.796 1.429.74.667 1.206.856a4.14 4.14 0 0 0 1.567.283c.539 0 1.003-.062 1.393-.187s.726-.259 1.007-.404l.706-.404c.188-.125.351-.187.488-.187a.47.47 0 0 1 .41.205l.603.784a4.07 4.07 0 0 1-.953.838c-.37.237-.765.432-1.188.585a7.54 7.54 0 0 1-1.308.344 7.98 7.98 0 0 1-1.338.114c-.844 0-1.622-.143-2.334-.428a5.13 5.13 0 0 1-1.845-1.254c-.518-.551-.922-1.232-1.212-2.044s-.434-1.744-.434-2.797c0-.852.131-1.648.392-2.388s.637-1.381 1.128-1.923 1.089-.969 1.796-1.278 1.504-.464 2.388-.464zm.048 1.58c-1.037 0-1.853.299-2.448.898s-.964 1.429-1.109 2.49h6.644a4.34 4.34 0 0 0-.205-1.369 3.03 3.03 0 0 0-.603-1.073 2.7 2.7 0 0 0-.97-.699c-.382-.165-.818-.247-1.309-.247zm8.134 10.829V6.692h1.23c.233 0 .394.044.482.133s.149.241.181.458l.145 1.905c.418-.852.934-1.517 1.549-1.996s1.337-.717 2.165-.717c.337 0 .643.038.916.115a3.2 3.2 0 0 1 .76.32l-.278 1.604c-.056.201-.18.301-.373.301-.113 0-.286-.038-.519-.115s-.559-.115-.977-.115c-.747 0-1.372.217-1.875.651s-.922 1.065-1.26 1.893v7.778h-2.146z" fill="currentColor"/></svg>
