<svg xmlns="http://www.w3.org/2000/svg" width="180" height="72" fill="currentColor"><path fill-rule="evenodd" d="M46.49 35.642L23.245 58.887 0 35.642l23.245-23.245 6.199 6.199 6.199-6.199 2.944 2.944-20.301 20.301L29.444 46.8l3.254-3.254-7.903-7.903L48.04 12.397l23.245 23.245L48.04 58.887l-6.199-6.199-6.199 6.199-2.944-2.944 20.301-20.3-11.158-11.158-3.254 3.254 7.903 7.903zm-15.807.001l4.959-4.959 4.959 4.959-4.959 4.959-4.959-4.959zm-24.795 0l17.356 17.356 3.254-3.254-14.102-14.102 14.102-14.102-3.254-3.254L5.889 35.643zM48.04 18.287l17.356 17.356L48.04 52.999l-3.254-3.254 14.102-14.102-14.102-14.102 3.254-3.254z"/><path d="M88.722 51.422c6.75 0 10.607-2.98 10.607-8.503 0-3.638-2.192-6.312-5.567-7.276 3.068-1.052 4.865-3.726 4.865-7.057 0-4.821-3.068-8.284-10.213-8.284H76.887v31.12h11.834zm-.175-28.139c4.515 0 6.881 1.841 6.881 5.435 0 4.032-2.761 5.435-6.881 5.435h-8.459v-10.87h8.459zm.307 13.851c4.383 0 7.276 1.797 7.276 5.654 0 3.989-2.893 5.654-7.32 5.654h-8.722V37.133h8.766zm15.42-1.272c0 9.248 6.005 16.218 15.385 16.218 7.627 0 13.237-4.602 14.683-11.615h-3.375c-1.227 5.304-5.654 8.591-11.308 8.591-7.276 0-12.054-5.347-12.054-13.193s4.778-13.193 12.054-13.193c5.654 0 10.081 3.287 11.308 8.591h3.375c-1.446-7.013-7.056-11.615-14.683-11.615-9.38 0-15.385 6.969-15.385 16.218zm53.81-11.308h.088l8.284 26.912h3.551L180 20.302h-3.463l-8.152 26.912h-.088l-8.328-26.912h-3.638l-8.328 26.869h-.087l-8.109-26.868h-3.594l9.993 31.12h3.507l8.371-26.868z"/></svg>
