<svg xmlns="http://www.w3.org/2000/svg" width="200" height="20" fill="currentColor"><path d="M0 19.308V.466h6.913c1.286 0 2.412.129 3.312.354.9.257 1.672.579 2.251 1.029s.997.965 1.254 1.608.386 1.318.386 2.122c0 .418-.064.836-.193 1.222a3.58 3.58 0 0 1-.579 1.093 4.67 4.67 0 0 1-.997.932c-.418.289-.9.514-1.447.74 1.254.289 2.154.804 2.765 1.479.579.675.9 1.543.9 2.605a5.86 5.86 0 0 1-.45 2.251 5.66 5.66 0 0 1-1.351 1.801c-.611.514-1.351.9-2.219 1.19s-1.897.418-3.022.418H0zM4.373 8.376h2.283c.482 0 .932-.032 1.318-.096a3.04 3.04 0 0 0 .997-.354 1.64 1.64 0 0 0 .611-.707c.129-.289.225-.675.225-1.125s-.064-.836-.161-1.125-.289-.547-.514-.707c-.225-.193-.514-.322-.9-.386a6.95 6.95 0 0 0-1.286-.129H4.373v4.63h0zm0 2.926v4.695H7.46c.579 0 1.061-.064 1.415-.225s.643-.322.868-.579c.193-.225.354-.482.418-.804.064-.289.129-.579.129-.9 0-.354-.032-.643-.129-.932a1.79 1.79 0 0 0-.45-.707c-.225-.193-.514-.322-.868-.45-.354-.097-.804-.161-1.383-.161H4.373v.064zM29.421.466V3.81h-7.717v4.405h5.916v3.215h-5.916v4.47h7.717v3.344H17.299V.466h12.122zm16.238 0v3.473h-5.305v15.37h-4.373V3.938h-5.306V.466h14.984zm15.724 15.016c.129 0 .257.064.354.161l.997 1.061c-.772.868-1.672 1.575-2.765 2.058s-2.379.74-3.923.74c-1.318 0-2.54-.225-3.633-.707-1.093-.45-2.026-1.093-2.765-1.929-.772-.836-1.35-1.833-1.768-2.99s-.643-2.444-.643-3.826.225-2.669.643-3.826c.45-1.158 1.061-2.154 1.865-2.99s1.736-1.479 2.862-1.929a9.84 9.84 0 0 1 3.698-.707c1.318 0 2.476.225 3.505.643.997.418 1.897.997 2.669 1.704L61.64 4.1c-.064.096-.129.161-.193.225-.097.064-.193.096-.322.096-.161 0-.354-.096-.579-.257a8.35 8.35 0 0 0-.868-.547 6.92 6.92 0 0 0-1.35-.547c-.546-.161-1.222-.257-1.994-.257-.965 0-1.833.161-2.637.482s-1.479.804-2.058 1.447-1.029 1.383-1.35 2.315c-.322.9-.482 1.929-.482 3.055 0 1.158.161 2.187.482 3.087s.772 1.672 1.35 2.283a5.92 5.92 0 0 0 2.026 1.415c.772.322 1.608.482 2.54.482a10.07 10.07 0 0 0 1.479-.096c.45-.064.868-.161 1.222-.289.386-.129.739-.322 1.061-.514.322-.225.643-.45.965-.772.161-.161.322-.225.45-.225zm21.029-5.434c0 1.383-.225 2.669-.643 3.826-.45 1.158-1.061 2.154-1.865 2.99s-1.769 1.479-2.894 1.929-2.379.707-3.73.707-2.605-.225-3.73-.707c-1.125-.45-2.09-1.093-2.894-1.929s-1.415-1.833-1.865-2.99-.643-2.444-.643-3.826.225-2.669.643-3.826c.45-1.158 1.061-2.154 1.865-2.99s1.768-1.479 2.894-1.961a9.88 9.88 0 0 1 3.73-.707c1.351 0 2.605.225 3.73.707 1.125.45 2.09 1.125 2.894 1.961s1.415 1.833 1.865 2.99c.418 1.158.643 2.444.643 3.826zm-2.572 0c0-1.125-.161-2.154-.45-3.055-.322-.9-.739-1.672-1.318-2.283a6.27 6.27 0 0 0-2.058-1.447c-.804-.322-1.704-.514-2.701-.514s-1.897.161-2.701.514a5.56 5.56 0 0 0-2.09 1.447c-.579.611-1.029 1.383-1.318 2.283-.322.9-.45 1.929-.45 3.055s.161 2.154.45 3.055c.322.9.74 1.672 1.318 2.283a6.08 6.08 0 0 0 2.09 1.447c.804.322 1.704.482 2.701.482s1.897-.161 2.701-.482 1.511-.804 2.058-1.447c.579-.611.997-1.383 1.318-2.283.289-.9.45-1.929.45-3.055zM87.556.787c.064 0 .161.032.193.064.064.032.129.064.193.129s.129.129.193.225L98.842 15.16c-.032-.225-.032-.45-.032-.643 0-.225-.032-.418-.032-.611V.787h2.187v18.521h-1.254c-.193 0-.354-.032-.482-.096s-.257-.193-.386-.354L88.135 4.903c.032.225.032.418.032.643v.579 13.183h-2.186V.787h1.286.289zm27.653 2.894a.76.76 0 0 1-.257.289c-.097.064-.193.096-.322.096-.161 0-.321-.064-.514-.225s-.45-.322-.74-.482-.643-.354-1.061-.482c-.418-.161-.932-.225-1.511-.225-.547 0-1.061.064-1.479.225s-.772.354-1.061.611-.515.547-.643.9c-.161.354-.225.74-.225 1.125 0 .514.128.932.385 1.286a2.92 2.92 0 0 0 .997.868c.418.257.9.45 1.415.611l1.64.547 1.64.643a5.9 5.9 0 0 1 1.414.9c.418.353.74.804.997 1.318s.386 1.158.386 1.929c0 .804-.129 1.576-.418 2.283a5.51 5.51 0 0 1-1.222 1.865c-.514.514-1.189.932-1.961 1.254-.772.289-1.64.45-2.637.45-1.222 0-2.315-.225-3.28-.643-.996-.45-1.832-1.029-2.508-1.768l.74-1.19c.064-.097.161-.161.257-.225s.193-.096.322-.096c.096 0 .225.032.386.129l.482.354.611.45c.225.161.482.322.804.45a6.37 6.37 0 0 0 1.029.354c.385.096.803.129 1.286.129.579 0 1.125-.096 1.575-.257s.869-.386 1.19-.707.579-.643.74-1.061.257-.868.257-1.383c0-.547-.129-1.029-.386-1.383s-.579-.643-.997-.9c-.418-.225-.9-.45-1.415-.611l-1.639-.514c-.547-.161-1.094-.386-1.64-.611s-.997-.547-1.415-.9c-.418-.386-.74-.836-.997-1.383s-.386-1.254-.386-2.058c0-.643.129-1.286.386-1.897a4.68 4.68 0 0 1 1.125-1.64c.483-.482 1.094-.868 1.801-1.125.708-.289 1.511-.418 2.444-.418 1.029 0 1.961.161 2.829.482a6.84 6.84 0 0 1 2.251 1.415l-.675 1.222zM132.283.787v2.122h-5.981v16.399h-2.508V2.909h-6.013V.787h14.502zm5.209 10.772v7.717h-2.508V.787h5.241c1.158 0 2.187.129 3.023.354a5.69 5.69 0 0 1 2.122 1.029c.546.45.964.997 1.222 1.608.257.643.385 1.35.385 2.122 0 .643-.096 1.254-.321 1.833-.193.579-.515 1.093-.9 1.543a5.23 5.23 0 0 1-1.447 1.158c-.579.322-1.19.547-1.93.707.322.193.611.482.836.804l5.402 7.363h-2.218c-.45 0-.804-.161-.997-.514l-4.823-6.624c-.161-.193-.29-.354-.483-.45-.16-.096-.418-.129-.771-.129h-1.833v-.032zm0-1.801h2.637a7 7 0 0 0 1.929-.257c.546-.161 1.029-.418 1.382-.74.386-.322.644-.707.836-1.158s.29-.932.29-1.479c0-1.093-.354-1.929-1.093-2.508-.74-.547-1.801-.836-3.248-.836h-2.733v6.977zm20.868 7.556c.772 0 1.447-.129 2.058-.386s1.125-.611 1.543-1.093c.418-.45.74-1.029.965-1.672s.322-1.351.322-2.122V.787h2.508v11.254c0 1.061-.161 2.058-.515 2.958s-.836 1.704-1.447 2.379c-.643.675-1.415 1.19-2.315 1.576s-1.929.579-3.087.579c-1.125 0-2.154-.193-3.086-.579-.901-.386-1.705-.9-2.316-1.576a6.93 6.93 0 0 1-1.479-2.379c-.353-.9-.514-1.897-.514-2.958V.787h2.508v11.254c0 .772.096 1.479.321 2.122a5.06 5.06 0 0 0 .965 1.672 4.49 4.49 0 0 0 1.543 1.093c.547.257 1.254.386 2.026.386zm24.855-1.832c.129 0 .258.064.354.161l.997 1.061c-.772.868-1.672 1.575-2.765 2.058s-2.38.74-3.923.74c-1.319 0-2.54-.225-3.634-.707-1.093-.45-2.025-1.093-2.765-1.929-.772-.836-1.35-1.833-1.768-2.99s-.643-2.444-.643-3.826.225-2.669.643-3.826c.45-1.158 1.061-2.154 1.865-2.99a8.03 8.03 0 0 1 2.861-1.929 9.84 9.84 0 0 1 3.698-.707c1.318 0 2.476.225 3.505.643.997.418 1.897.997 2.669 1.704l-.836 1.158a1.45 1.45 0 0 1-.193.225c-.097.064-.193.096-.322.096-.161 0-.354-.096-.579-.257a8.38 8.38 0 0 0-.868-.547c-.353-.193-.804-.386-1.35-.547s-1.222-.257-1.994-.257c-.964 0-1.833.161-2.636.482a5.44 5.44 0 0 0-2.058 1.447c-.579.643-1.029 1.383-1.351 2.315-.321.9-.482 1.929-.482 3.055 0 1.158.161 2.187.482 3.087s.772 1.672 1.351 2.283a5.93 5.93 0 0 0 2.025 1.415c.771.322 1.608.482 2.541.482.546 0 1.061-.032 1.479-.096.45-.064.868-.161 1.222-.289.385-.129.739-.322 1.061-.514.321-.225.643-.45.964-.772.161-.161.29-.225.45-.225zM200 .787v2.122h-5.981v16.399h-2.508V2.909h-6.013V.787H200z"/></svg>
