<svg xmlns="http://www.w3.org/2000/svg" viewBox="0 0 2000 742.9" fill="currentColor"><path d="M765.29 437.57c0-6 5.37-10.74 14.57-10.74 8.18 0 16.23 3.2 24.29 9.21l8.43-11.89c-9.07-7.29-19.43-11.25-32.46-11.25-17.77 0-30.55 10.48-30.55 26.07 0 16.62 10.74 22.24 29.78 26.84 16.62 3.84 20.19 7.29 20.19 13.81 0 6.9-6.13 11.37-15.84 11.37-11.12 0-19.69-4.22-28.25-11.63L746 490.61a55.15 55.15 0 0 0 37.32 14.31c18.79 0 32-10 32-26.84 0-14.95-9.84-21.73-28.75-26.32-17.19-4.09-21.28-7.16-21.28-14.19zM906 439.49v64.15h15.72v-89.46h-16.78l-27.22 42.3-27.23-42.3h-16.74v89.46h15.47v-63.9l28 41.92h.51zm85-25.95h-14.6l-39.4 90.1h16.1l9.2-21.59h42.31l9.07 21.59h16.62zm7.93 54.57H968.1l15.33-35.78zm122.67 35.53l-24.16-33.86c12.53-3.45 21.34-12.4 21.34-27.23 0-17.51-12.65-28.37-33.23-28.37h-39.87v89.46h15.72v-31.18h19.68l22 31.18zm-18.79-60.19c0 9.2-7.16 15.08-18.41 15.08h-23v-30h22.88c11.63-.04 18.53 5.08 18.53 14.92zm72.69-14.7h28.37v-14.57h-72.6v14.57h28.38v74.89h15.85zm161.19 60.58l-10.1-10.22c-7.67 7.15-14.7 11.63-25.69 11.63-17.12 0-29.52-14.32-29.52-32s12.4-31.69 29.52-31.69c10.23 0 17.9 4.47 25 11.12l10.1-11.63c-8.56-8.18-18.53-13.93-35-13.93-27.09 0-46.14 20.83-46.14 46.39 0 25.82 19.43 46.14 45.5 46.14 16.77.04 27-6.14 36.33-15.81zm74.93-23.39v37.7h15.72v-89.46h-15.72v37.19h-42.69v-37.19h-15.72v89.46h15.72v-37.7zm84.96-52.4H1482l-39.36 90.1h16.1l9.2-21.59h42.31l9.07 21.59h16.61zm7.92 54.57h-30.8l15.3-35.78zm47.68-53.93v89.46h15.72v-89.46zM1654.35 476l-47.93-61.86h-14.57v89.46h15.46V440l49.34 63.64h13.16v-89.46h-15.46zM407.51 371.45l-38.92 38.91-38.91-38.91 38.91-38.91zM502 276.94l66.72 66.71 38.91-38.91L502 199.12 396.39 304.74l38.91 38.91zm133.43 55.6l-38.92 38.91 38.92 38.91 38.91-38.91zM502 466l-66.7-66.75-38.91 38.91L502 543.78l105.64-105.62-38.91-38.91zm0-55.6l38.92-38.91L502 332.54l-38.9 38.91zm364.13-74.53v-.38c0-18-9.6-27.06-25.15-33 9.6-5.38 17.66-13.82 17.66-29v-.39c0-21.11-16.89-34.74-44.34-34.74h-62.36v134.32h63.91c30.33 0 50.29-12.28 50.29-36.85zm-36.86-57.38c0 10-8.25 14.2-21.3 14.2h-27.24v-28.45h29.17c12.48 0 19.38 5 19.38 13.82zm7.49 53.74c0 10-7.87 14.58-20.92 14.58h-35.11v-29.59h34.16c15.16 0 21.88 5.56 21.88 14.58zm91.35 40.49V238.33h-29.55v134.35zm158.88 0V238.33h-29.17v82.73l-62.95-82.73h-27.25v134.35h29.18v-85.41l65.06 85.41zm163.73 0l-57.58-135.31h-27.24l-57.58 135.31h30.13l12.29-30.13h56.81l12.28 30.13zM1197 316.45h-35.7l17.85-43.57zm194.63 56.23V238.33h-29.18v82.73l-63-82.73h-27.25v134.35h29.17v-85.41l65.07 85.41zM1544.21 351l-18.81-19c-10.55 9.6-20 15.74-35.31 15.74-23 0-39-19.19-39-42.22v-.39c0-23 16.31-41.84 39-41.84 13.43 0 24 5.76 34.36 15.17l18.8-21.69c-12.47-12.29-27.64-20.73-53-20.73-41.27 0-70 31.28-70 69.48v.38c0 38.58 29.36 69.1 68.9 69.1 25.85 0 41.24-9.22 55.06-24zm126.11 21.68v-26.29h-72.93v-28.21h63.34v-26.3h-63.34v-27.25h72v-26.3H1568v134.35z"/></svg>
