<svg xmlns="http://www.w3.org/2000/svg" width="200" height="34" fill="currentColor"><path d="M20.66.882H7.348c-1.454 0-1.999.5-2.272 1.954L.079 31.276c-.273 1.408.136 1.908 1.59 1.908h13.63c6.406 0 11.494-2.771 12.539-8.632.681-3.953-.454-6.905-3.135-8.178l.045-.182c2.59-1.59 3.862-3.316 4.452-6.36.954-5.406-2.226-8.95-8.541-8.95zm-.818 9.859c-.318 1.772-1.408 2.453-3.226 2.453H3.256l.878-4.997h13.345c1.863 0 2.681.772 2.363 2.544zm-1.181 12.403c-.318 1.908-1.454 2.68-3.362 2.68h-5.27l.954-5.315h5.225c1.954 0 2.817.818 2.453 2.635z"/><path fill-rule="evenodd" d="M37.151.882H50.1c6.86 0 10.631 4.271 9.359 11.312-.738 3.226-2.908 5.009-5.957 6.997l-.176.09a15.73 15.73 0 0 1 .863 1.954l2.362 9.722c.409 1.227-.091 2.226-1.59 2.226h-4.907c-2.408 0-3.362-.591-3.816-2.181l-1.454-8.178c-.5-1.545-.818-2.317-2.817-2.317h-1.181l-1.908 10.767c-.273 1.408-.818 1.908-2.272 1.908h-5.134c-1.454 0-1.863-.5-1.59-1.908L34.88 2.79c.273-1.408.818-1.908 2.272-1.908zm12.528 9.881c-.317 1.772-1.404 2.453-3.216 2.453H33.048l.878-4.998h13.399c1.857 0 2.673.772 2.355 2.544z"/><path d="M81.399.881h-5.751c-.634 0-.86.205-.982.839l-2.272 12.853c-.102.635.061.839.696.839h5.853c2.763 0 5.035-1.269 5.506-3.889.307-1.801-.184-3.131-1.351-3.664l.021-.082c1.126-.696 1.678-1.494 1.944-2.886.43-2.333-.942-4.012-3.664-4.012zm.205 4.339c-.164.962-.757 1.392-1.719 1.392h-2.763l.491-2.784h2.763c.962 0 1.392.45 1.228 1.392zm-.573 5.772c-.184 1.003-.778 1.474-1.801 1.474h-3.131l.532-2.968h3.131c1.003 0 1.433.512 1.269 1.494zm6.514-5.096l-.737 4.155c-.573 3.398 1.248 5.669 5.117 5.669 3.889 0 6.304-1.862 6.897-5.26l.737-4.155c.573-3.398-1.228-5.731-5.117-5.731-3.868 0-6.304 1.924-6.897 5.321zm8.76.123l-.757 4.257c-.287 1.596-1.412 2.395-3.152 2.395-1.719 0-2.579-.798-2.292-2.395l.757-4.257c.266-1.596 1.412-2.395 3.131-2.395 1.74 0 2.579.798 2.313 2.395zm5.665-.123l-.736 4.155c-.574 3.398 1.248 5.669 5.116 5.669 3.889 0 6.304-1.862 6.898-5.26l.736-4.155c.573-3.398-1.228-5.731-5.116-5.731-3.868 0-6.304 1.924-6.898 5.321zm8.76.123l-.757 4.257c-.287 1.596-1.412 2.395-3.152 2.395-1.719 0-2.579-.798-2.292-2.395l.757-4.257c.266-1.596 1.412-2.395 3.132-2.395 1.739 0 2.578.798 2.312 2.395zm16.063 8.513l-1.74-4.994c-.348-1.003-.757-1.617-1.555-2.067l5.341-5.772c.369-.43.287-.819-.286-.819h-1.801c-.983 0-1.208.102-1.74.696L120.53 6.55h-.553l.86-4.83c.123-.634-.062-.839-.676-.839h-1.657c-.635 0-.86.205-.983.839l-2.272 12.853c-.102.635.062.839.696.839h1.658c.614 0 .86-.205.962-.839l.901-5.035h.532c1.166 0 1.494.287 1.801 1.228l1.228 3.889c.204.634.491.757 1.535.757h1.637c.614 0 .778-.389.594-.88zM144.796.881h-1.474c-.655 0-.839.102-1.207.634l-4.994 6.918-2.538-6.938c-.184-.491-.368-.614-1.064-.614h-1.29c-.614 0-.859.205-.982.819l-2.272 12.894c-.102.614.061.819.696.819h1.555c.635 0 .88-.205.983-.819l.818-4.626c.246-1.371.307-2.538.185-4.626h.163c.185 1.494.43 2.702.86 3.807l1.023 2.599c.164.471.328.594.819.594h.839c.512 0 .737-.164 1.044-.594l1.883-2.599c.819-1.105 1.637-2.415 2.313-3.807h.164c-.86 2.006-1.269 3.357-1.474 4.605l-.819 4.646c-.123.614.062.819.676.819h1.535c.614 0 .88-.205.982-.819L145.492 1.7c.123-.614-.062-.819-.696-.819zm13.883 13.713L156.1 1.536c-.102-.532-.348-.655-.921-.655h-1.576c-.573 0-.839.123-1.125.696l-7.205 13.017c-.307.553-.205.819.409.819h1.515c1.023 0 1.31-.164 1.617-.757l.982-1.924h5.076l.287 1.924c.082.593.348.757 1.391.757h1.433c.594 0 .798-.266.696-.819zm-4.707-7.737l.511 3.172h-3.315l1.637-3.193c.737-1.453 1.003-2.906 1.003-2.906h.164s-.205 1.453 0 2.927zm18.275 7.675l-1.74-4.994c-.348-1.003-.757-1.617-1.555-2.067l5.342-5.772c.368-.43.286-.819-.287-.819h-1.801c-.982 0-1.207.102-1.74.696l-4.482 4.973h-.552l.859-4.83c.123-.634-.061-.839-.675-.839h-1.658c-.635 0-.86.205-.982.839l-2.272 12.853c-.103.635.061.839.696.839h1.657c.614 0 .86-.205.962-.839l.901-5.035h.532c1.167 0 1.494.287 1.801 1.228l1.228 3.889c.205.634.491.757 1.535.757h1.638c.614 0 .777-.389.593-.88zM185.911.881h-8.227c-.635 0-.86.205-.983.839l-2.272 12.853c-.102.635.062.839.696.839h8.433c.614 0 .859-.205.962-.839l.245-1.371c.123-.614-.061-.839-.675-.839h-5.956l.491-2.784h4.728c.614 0 .88-.205.982-.839l.246-1.371c.102-.614-.061-.819-.675-.819h-4.728l.45-2.64h5.751c.635 0 .88-.205.983-.819l.245-1.371c.123-.634-.061-.839-.696-.839zm10.008 0h-5.669c-.634 0-.86.205-.982.839l-2.272 12.853c-.102.635.061.839.696.839h1.658c.614 0 .859-.205.962-.839l.777-4.319h.983c1.207 0 1.391.266 1.678 1.208l.941 3.152c.205.634.533.798 1.576.798h1.638c.634 0 .778-.389.614-.88l-1.412-4.032a4.52 4.52 0 0 0-.307-.716c1.637-.696 2.742-1.985 3.09-4.012.552-2.988-1.003-4.892-3.971-4.892zm.533 4.707c-.185 1.064-.901 1.678-1.986 1.678h-2.845l.573-3.357h2.866c1.085 0 1.596.614 1.392 1.678zM78.193 18.587h-5.669c-.634 0-.86.205-.982.839L69.27 32.279c-.102.634.061.839.696.839h1.658c.614 0 .86-.205.962-.839l.778-4.319h.982c1.208 0 1.392.266 1.678 1.208l.941 3.152c.205.634.532.798 1.576.798h1.637c.634 0 .778-.389.614-.88l-1.412-4.032a4.41 4.41 0 0 0-.307-.716c1.637-.696 2.743-1.985 3.091-4.011.553-2.988-1.003-4.892-3.971-4.892zm.532 4.708c-.184 1.064-.901 1.678-1.985 1.678h-2.845l.573-3.357h2.865c1.085 0 1.597.614 1.392 1.678zM95.616 32.3l-2.579-13.058c-.102-.532-.348-.655-.921-.655H90.54c-.573 0-.839.123-1.126.696L82.21 32.3c-.307.553-.205.819.409.819h1.514c1.023 0 1.31-.164 1.617-.757l.982-1.924h5.076l.287 1.924c.082.594.348.757 1.392.757h1.433c.594 0 .798-.266.696-.819zm-4.707-7.736l.512 3.172h-3.316l1.637-3.193c.737-1.453 1.003-2.906 1.003-2.906h.164s-.205 1.453 0 2.927zm17.045-5.977h-9.742c-.614 0-.86.205-.982.839l-.225 1.371c-.123.614.061.819.675.819h3.213L99.01 32.279c-.102.634.061.839.675.839h1.657c.635 0 .88-.205.983-.839l1.883-10.663h3.213c.614 0 .86-.205.982-.819l.225-1.371c.123-.635-.061-.839-.675-.839zm2.826.819L108.508 32.3c-.102.614.061.819.675.819h1.678c.615 0 .86-.205.962-.819l2.272-12.894c.123-.614-.061-.819-.675-.819h-1.678c-.614 0-.84.205-.962.819zm17.583-.819h-1.576c-.614 0-.859.205-.962.839l-.88 4.891c-.389 2.19-.225 3.889-.143 4.523h-.143c-.082-.409-.287-2.108-1.044-3.664l-2.988-6.202c-.144-.266-.348-.389-.798-.389h-1.576c-.635 0-.86.205-.983.839l-2.272 12.853c-.102.634.062.839.696.839h1.576c.614 0 .86-.205.983-.839l.859-4.892a19.78 19.78 0 0 0 .225-4.585h.164c.061.553.307 2.333 1.023 3.827l2.927 6.099c.143.287.307.389.717.389h1.637c.634 0 .88-.205.982-.839l2.272-12.853c.123-.635-.061-.839-.696-.839zm13.737 6.324h-4.953c-.614 0-.86.205-.982.839l-.225 1.269c-.103.634.061.839.695.839h2.497l-.122.737c-.185 1.023-1.351 1.781-3.07 1.781-1.781 0-2.579-.819-2.293-2.436l.757-4.175c.267-1.617 1.351-2.435 3.132-2.435 1.371 0 2.108.491 2.313 1.474.123.593.348.716.982.512l1.535-.491c.635-.205.757-.471.635-1.064-.41-2.067-1.904-3.48-4.933-3.48-3.868 0-6.365 1.801-6.959 5.26l-.737 4.134c-.573 3.398 1.188 5.751 5.056 5.751s6.345-1.801 6.836-4.646l.532-3.029c.102-.634-.061-.839-.696-.839zm3.296-2.415c-.655 3.766 2.353 4.544 4.768 4.83 1.495.164 2.682.45 2.497 1.474-.204 1.167-1.248 1.617-2.988 1.617-1.31 0-2.149-.532-2.394-1.412-.164-.614-.389-.716-.983-.491l-1.596.532c-.614.205-.819.471-.717 1.064.41 2.088 2.149 3.316 5.342 3.316 3.93 0 6.161-1.453 6.673-4.278.634-3.561-2.108-4.626-4.442-4.912-1.658-.184-3.008-.409-2.824-1.515.164-.982.982-1.412 2.681-1.412 1.269 0 1.883.491 2.17 1.351.204.553.409.655.982.409l1.576-.634c.614-.246.778-.471.593-1.023-.593-1.842-1.883-3.131-4.871-3.131-3.827 0-5.997 1.556-6.467 4.216z"/></svg>
