<svg xmlns="http://www.w3.org/2000/svg" width="200" height="52" fill="currentColor"><path d="M75.265 24.203c1.578.909 2.367 2.281 2.367 4.116a4.84 4.84 0 0 1-.394 2.058 4.83 4.83 0 0 1-1.227 1.698c-1.092.982-2.519 1.507-3.987 1.466h-7.64V15.534h7.1c1.434-.04 2.829.471 3.897 1.428a4.68 4.68 0 0 1 1.195 1.644c.273.629.405 1.31.386 1.995.021.692-.122 1.378-.417 2.004a4.39 4.39 0 0 1-1.281 1.597h0zm-3.781-5.35h-3.55v3.961h3.55a1.86 1.86 0 0 0 .748-.138 1.84 1.84 0 0 0 .629-.428c.178-.185.325-.408.421-.651s.14-.503.133-.763a1.97 1.97 0 0 0-.541-1.415 1.83 1.83 0 0 0-.634-.431c-.239-.097-.496-.143-.755-.135h0zm.54 11.37a2 2 0 0 0 1.492-.605 2.1 2.1 0 0 0 .592-1.53 2.07 2.07 0 0 0-.143-.813 2.06 2.06 0 0 0-.449-.692c-.195-.198-.426-.355-.683-.459a2 2 0 0 0-.809-.146h-4.09v4.245h4.09zm17.801 3.318l-3.627-6.251h-2.701v6.251h-3.55V15.534h7.203a5.98 5.98 0 0 1 2.291.448c.727.298 1.388.738 1.944 1.292s.999 1.213 1.3 1.939.458 1.503.458 2.289a5.48 5.48 0 0 1-.952 3.099 5.97 5.97 0 0 1-2.521 2.148l3.987 6.791h-3.833zm-6.328-14.688v5.325h3.653a2.26 2.26 0 0 0 1.723-.785c.477-.513.735-1.191.721-1.89a2.65 2.65 0 0 0-.721-1.878 2.28 2.28 0 0 0-1.723-.772h-3.653zm27.216 15.048c-2.71 0-4.949-.9-6.714-2.701s-2.65-4.022-2.65-6.662c0-2.658.883-4.884 2.65-6.676s4.004-2.688 6.714-2.688a9.18 9.18 0 0 1 4.514 1.144c1.337.722 2.453 1.793 3.228 3.1l-3.06 1.775c-.441-.8-1.101-1.456-1.904-1.891a5.66 5.66 0 0 0-2.778-.682c-1.75 0-3.161.549-4.232 1.647s-1.608 2.521-1.608 4.27c0 1.732.536 3.146 1.608 4.244s2.483 1.646 4.232 1.646a5.72 5.72 0 0 0 2.79-.681 4.61 4.61 0 0 0 1.892-1.865l3.06 1.775a8.4 8.4 0 0 1-3.215 3.099c-1.385.767-2.945 1.161-4.527 1.145m21.428-.359L131.06 30.3h-7.176l-1.081 3.241h-3.833l6.302-18.007h4.399L136 33.541h-3.859zm-7.125-6.56h4.938l-2.47-7.357-2.468 7.357zm19.446-11.447a5.99 5.99 0 0 1 2.366.427 5.98 5.98 0 0 1 2.007 1.323c1.137 1.141 1.776 2.685 1.776 4.296s-.639 3.155-1.776 4.296a5.98 5.98 0 0 1-4.373 1.75h-3.163v5.916h-3.551V15.534h6.714zm0 8.772c.351.009.7-.056 1.024-.191a2.49 2.49 0 0 0 .855-.594 2.92 2.92 0 0 0 0-3.897 2.5 2.5 0 0 0-.858-.584 2.51 2.51 0 0 0-1.021-.187h-3.163v5.453h3.163zm12.014-8.772h-3.55v18.007h3.55V15.534zm15.253 0v3.396h-4.861v14.611h-3.55V18.93h-4.836v-3.396h13.247zm12.245 18.007l-1.081-3.241h-7.176l-1.08 3.241h-3.834l6.303-18.007h4.399l6.328 18.007h-3.859zm-7.125-6.56h4.938l-2.469-7.357-2.469 7.357zm16.283 3.164H200v3.396h-10.418V15.534h3.55v14.611z"/><path fill-rule="evenodd" d="M27.27 4.544c-1.38-.337-2.548-1.212-3.27-2.391L9.807 7.09a5.31 5.31 0 0 1 .16 1.086l13.784 4.073c.683-1.406 1.968-2.466 3.519-2.845v-4.86zm6.051 7.706c-.683-1.407-1.968-2.468-3.52-2.847v-4.86c1.389-.339 2.564-1.224 3.285-2.415L48.29 7.417l-.063.43-14.905 4.404zm-.115 4.86c.387-.709.617-1.517.643-2.376l14.726-4.351c.301.752.769 1.42 1.358 1.956l-4.96 8.479a5.3 5.3 0 0 0-5.934 1.213l-5.834-4.922zm-3.404 2.623a5.29 5.29 0 0 0 1.698-.75l6.263 5.284a5.32 5.32 0 0 0-.197 1.441c0 1.719.816 3.248 2.082 4.219l-9.152 15.645c-.224-.089-.455-.163-.693-.221V19.732zm-4.423-.887c.557.412 1.198.717 1.891.887V45.35a5.28 5.28 0 0 0-.594.183l-9.195-15.719c1.185-.975 1.941-2.453 1.941-4.108 0-.566-.088-1.112-.252-1.623l6.209-5.238zm-2.156-4.114a5.29 5.29 0 0 0 .535 2.169l-5.933 5.006a5.3 5.3 0 0 0-3.718-1.516c-.68 0-1.33.128-1.928.36L7.563 12.86a5.34 5.34 0 0 0 1.906-2.191l13.753 4.063zM5.124 13.704l-.468.02a5.39 5.39 0 0 1-.338-.011v16.78c.698.288 1.322.721 1.834 1.26l3.583-3.022a5.29 5.29 0 0 1-.944-3.025c0-1.338.494-2.56 1.31-3.495l-4.977-8.508zm6.53 16.72l-4.235 3.573a5.32 5.32 0 0 1 .19 1.414c0 .686-.13 1.342-.367 1.944l17.269 9.49-9.321-15.933a5.34 5.34 0 0 1-1.084.111c-.885 0-1.719-.216-2.453-.598zm21.045 16.391l17.077-9.385a5.3 5.3 0 0 1-.397-2.02 5.33 5.33 0 0 1 .142-1.225l-4.357-3.676c-.691.329-1.465.513-2.282.513-.306 0-.607-.026-.899-.076l-9.283 15.869zm14.452-17.942l3.567 3.009c.572-.644 1.298-1.149 2.121-1.455V13.682c-.231-.029-.458-.074-.679-.132l-5.151 8.805c.744.915 1.189 2.081 1.189 3.351a5.29 5.29 0 0 1-1.046 3.168z"/></svg>
