<svg xmlns="http://www.w3.org/2000/svg" viewBox="0 0 2000 742.9" fill="currentColor"><path d="M1270.71 488.62l27.68-8.69V250.74l-27.68 8.69zM951.39 349.56a56 56 0 0 1 43.78 20.6l11.27-26.07c-14.81-14.16-34.44-20.92-55.05-20.92-47.64 0-80.47 37.66-80.15 79.18.33 45.07 35.73 81.76 80.15 81.76 22.54 0 39.6-6.76 52.47-16.09v-31.87c-13.52 13.52-33.15 21.57-50.21 21.57-25.75 0-54.72-20.93-54.72-55.37 0-31.87 25.07-52.79 52.46-52.79zm184.13-26.39c-47.64 0-75.33 37.66-75.33 79.18 0 45.07 35.73 81.76 80.15 81.76 22.54 0 39.6-6.76 52.47-16.09v-31.87c-13.52 13.52-33.15 21.57-50.21 21.57-22.86 0-48-14.17-53.11-44.1h121.35V403c0-44.43-29.29-79.83-75.32-79.83zm299 0a80.47 80.47 0 1 0 80.48 80.47 80.5 80.5 0 0 0-80.45-80.47zm-298.71 26.39c21.56 0 44.42 13.52 46.35 39.59h-92.7c1.96-26.07 24.81-39.59 46.38-39.59zm298.71 108.16a54 54 0 1 1 .18 0zm-828.83 34.44a88.52 88.52 0 1 0-88.52-88.52 88.52 88.52 0 0 0 88.52 88.52zm0 32.19a120.71 120.71 0 1 1 120.7-120.71 120.71 120.71 0 0 1-120.7 120.71z"/><path d="M670.06 427.78a88.52 88.52 0 1 0-88.52-88.52 88.52 88.52 0 0 0 88.52 88.52zm0 32.19a120.71 120.71 0 1 1 120.71-120.71A120.72 120.72 0 0 1 670.06 460z"/><path d="M674 459.91a88.26 88.26 0 0 0 17.55-34.77 88.26 88.26 0 0 0 34.77-17.55 120.51 120.51 0 0 1-9.32 42.93 120.4 120.4 0 0 1-43 9.39zm-89.82-142.16a88.16 88.16 0 0 0-34.76 17.55 120.13 120.13 0 0 1 9.38-42.93 120.51 120.51 0 0 1 42.93-9.37 88.22 88.22 0 0 0-17.55 34.75z"/></svg>
