<svg xmlns="http://www.w3.org/2000/svg" width="200" height="62" fill="currentColor"><path d="M68.66 30.605a10.83 10.83 0 0 1 10.474-11.264h.444c5.524 0 8.784 3.249 9.748 7.051l-3.433 1.148c-.309-1.417-1.116-2.675-2.275-3.546s-2.593-1.296-4.039-1.198c-3.574 0-7.16 2.61-7.16 7.874s3.499 7.777 7.203 7.777a6.5 6.5 0 0 0 6.445-4.777l3.368 1.083c-.581 2.139-1.875 4.017-3.667 5.322a9.75 9.75 0 0 1-6.19 1.859 10.73 10.73 0 0 1-7.644-3.002c-2.049-1.975-3.231-4.681-3.285-7.526-.011-.26 0-.531.011-.802zm27.457 10.831h-3.553V19.275h3.553v8.665a5.24 5.24 0 0 1 1.896-1.42c.732-.322 1.528-.474 2.328-.443 3.672 0 5.416 2.632 5.416 5.914v9.445h-3.423V32.62a2.89 2.89 0 0 0-2.426-3.249 3.13 3.13 0 0 0-.639 0c-.822 0-1.609.326-2.19.907s-.907 1.369-.907 2.19a2.45 2.45 0 0 0 0 .271l-.054 8.697zm17.612-8.534l3.812-.596c.867-.108 1.083-.552 1.083-1.083 0-1.256-.844-2.264-2.816-2.264-.744-.06-1.482.175-2.054.656a2.84 2.84 0 0 0-1 1.911v.163l-3.25-.726c.271-2.578 2.611-4.874 6.272-4.874 4.592 0 6.336 2.6 6.336 5.632v7.398a14.76 14.76 0 0 0 .184 2.394h-3.249a8.7 8.7 0 0 1-.141-1.906c-.493.759-1.177 1.376-1.983 1.788a5.18 5.18 0 0 1-2.609.562 4.68 4.68 0 0 1-5.048-4.267v-.217c-.054-2.74 1.906-4.213 4.463-4.571zm4.917 2.394v-.682l-3.888.585a2.05 2.05 0 0 0-1.399.614c-.369.377-.578.883-.583 1.411a1.97 1.97 0 0 0 .165.76 1.98 1.98 0 0 0 .446.637 1.97 1.97 0 0 0 1.425.543h.162a3.38 3.38 0 0 0 1.319-.123c.427-.127.825-.338 1.17-.62s.632-.629.842-1.022a3.38 3.38 0 0 0 .384-1.267 3.43 3.43 0 0 0-.054-.834h.011zm9.51-16.323a2.32 2.32 0 0 1 .892.165c.284.113.542.281.76.495s.393.468.513.749a2.3 2.3 0 0 1 .185.888 2.32 2.32 0 0 1-1.423 2.138 2.32 2.32 0 0 1-1.335.137c-.449-.087-.862-.304-1.187-.625a2.32 2.32 0 0 1-.642-1.178c-.093-.448-.052-.913.119-1.337s.462-.788.839-1.047a2.32 2.32 0 0 1 1.279-.406v.022zm-1.733 22.529V26.533h3.553v14.904l-3.553.065zm11.644-.065h-3.542V26.533h3.455v1.982c.45-.761 1.097-1.387 1.873-1.812a4.93 4.93 0 0 1 2.535-.603c3.64 0 5.416 2.632 5.416 5.914v9.423h-3.542V32.62c0-1.83-.834-3.314-3.065-3.314a3.14 3.14 0 0 0-2.215.935 3.13 3.13 0 0 0-.674 1.024 3.16 3.16 0 0 0-.231 1.204v.358l-.01 8.611zm14.026-.001V19.275h3.553v22.161h-3.553zm9.889-22.464a2.31 2.31 0 0 1 2.14 1.419c.176.422.223.887.134 1.335s-.308.861-.632 1.184-.735.543-1.184.632-.913.042-1.335-.134a2.31 2.31 0 0 1-1.035-.854c-.253-.381-.386-.828-.384-1.286a2.31 2.31 0 0 1 .679-1.617 2.32 2.32 0 0 1 1.617-.679h0zm-1.744 22.529V26.532h3.52v14.904l-3.52.065zm11.666-.065h-3.553V26.533h3.455v1.982a4.94 4.94 0 0 1 4.408-2.415c3.64 0 5.416 2.632 5.416 5.914v9.423h-3.553V32.62a2.89 2.89 0 0 0-2.426-3.249 3.24 3.24 0 0 0-.65 0 3.14 3.14 0 0 0-3.108 3.141 2.18 2.18 0 0 0 0 .379l.011 8.546zm21.846-8.611L200 41.49h-4.333l-4.332-6.141-1.831 1.928v4.159h-3.52V19.275h3.52v13.279l5.719-6.022h4.712l-6.185 6.293zM26.602 13.275l15.359 8.817v17.72l-15.316 8.871-15.348-8.795v-17.71l15.305-8.903zm0-12.998L20.97 3.526 5.632 12.43 0 15.68v30.728l5.632 3.249 15.359 8.817 5.632 3.249 5.632-3.249 15.305-8.882 5.632-3.249V15.571l-5.632-3.249-15.348-8.795L26.58.277h.022z"/></svg>
