<svg xmlns="http://www.w3.org/2000/svg" xmlns:xlink="http://www.w3.org/1999/xlink" viewBox="0 0 2000 742.9"><g fill="currentColor"><path d="M623 429.4H496.5c-10.1 0-18.7-3.6-25.9-10.7-7.2-7.2-10.7-15.8-10.7-25.9V350c0-10.1 3.6-18.7 10.7-25.9 7.2-7.2 15.8-10.7 25.9-10.7H623v30.3H490.2v55.5H623v30.2zm43.8 0h-30.3v-116h30.3v116zm132.8 0h-30.3v-42.8h-92.5v-30.3h92.5v-42.9h30.3v116z"/><path d="M929.6 325.9c-7.4-10-16.2-14.9-26.3-14.9-10.2 0-19.1 5-26.5 14.9l-77.3 103.6H838l65.1-89.5 9.2 12.7.9 1.3 55.2 75.6h38.5l-77.3-103.7zm107.6 103.5H1007v-116h30.3v116z"/><use xlink:href="#B"/><path d="M1391.6 392.9c0 10.1-3.6 18.7-10.7 25.9-7.2 7.2-15.8 10.7-25.9 10.7h-89.9c-10.1 0-18.7-3.6-25.9-10.7-7.2-7.2-10.7-15.8-10.7-25.9v-42.8c0-10.1 3.6-18.7 10.7-25.9 7.2-7.2 15.8-10.7 25.9-10.7h126.5v30.3h-132.8v55.5h102.6v-12.6h-19.1l25.3-30.3h24v36.5h0zm130-67c-7.4-10-16.2-14.9-26.3-14.9-10.2 0-19 5-26.5 14.9l-77.3 103.6h38.5l65.1-89.5 13.2 18.1 3.7 5.1 48.5 66.3h38.5l-77.4-103.6zm107.6 103.5H1599v-116h30.3v116z"/><use xlink:href="#B" x="592"/><path d="M968.5 429.4l-56.1-76.8m648.1 76.8l-52.2-71.4m-1221-17.2c-7.9 11.4-17.8 21.2-29.1 29.2-.4.2-.7.5-1.1.8-.4.2-.7.5-1.1.8-18.1 12-39.7 19.1-62.9 19.4h-.1v-38.7c3.2-.1 6.4-.3 9.5-.7 1.5-.2 3-.4 4.4-.8 30.7-6.1 55-30.5 61-61.3 2.5 18.7 9.3 36.2 19.4 51.3zm20.9 126.5h0-38.7l-.7-9.5-.8-4.4c-6.1-30.7-30.3-54.9-61-61 18.8-2.4 36.2-9.2 51.2-19.4 11.4 7.9 21.2 17.8 29.2 29.2h0c.2.3.5.7.8 1.1.2.4.5.7.8 1.1a115.53 115.53 0 0 1 19.2 62.9z"/><path d="M370.7 350.6c-18.8 2.4-36.2 9.2-51.2 19.3h0c-11.4-7.9-21.2-17.8-29.2-29.2-.2-.3-.5-.7-.8-1.1-.2-.4-.5-.7-.7-1.1-12-18.1-19.1-39.7-19.3-62.9h38.7c0 3.1.3 6.1.7 9.2h0c.2 1.5.4 3.1.8 4.6 6 30.8 30.3 55.1 61 61.2zm14 1.5v38.7l-9.5.7h0l-4.4.8c-30.7 6.1-54.9 30.3-61 61-2.4-18.8-9.2-36.2-19.3-51.2 7.9-11.4 17.8-21.2 29.1-29.1h0c.3-.2.7-.5 1.1-.8.4-.2.7-.5 1.1-.8 18-11.9 39.6-19 62.9-19.3z"/></g><defs ><path id="B" d="M1215 313.5v88.2c0 8.4-2.9 15.6-8.8 21.5s-13 8.8-21.5 8.8c-8.3 0-15.4-2.9-21.5-8.8l-82.4-81.9v88.2h-30.3v-88.2c0-8.4 3-15.6 8.9-21.5 6-5.9 13-8.8 21.3-8.8 8.4 0 15.6 3 21.5 9l82.4 81.7v-88.3h30.4z"/></defs></svg>
