<svg xmlns="http://www.w3.org/2000/svg" viewBox="0 0 2000 742.9" fill="currentColor"><path d="M499.82 333.54c-17 0-28.29 6.79-35.08 17V335.8h-26v117.69h27.16V389c0-18.11 11.32-30.55 27.16-30.55s24.9 11.31 24.9 27.16v67.89h27.16v-70.17c-1.14-29.42-15.85-49.79-45.27-49.79zm-126.74 26h17v92.79h27.16V335.8h-43c-1.16 0-1.16 23.77-1.16 23.77zm-67.9-26c-33.95 0-60 26-60 61.11s26 61.11 60 61.11 60-26 60-61.11-24.92-61.11-60-61.11zm0 96.19c-19.24 0-32.82-14.71-32.82-36.21 0-20.37 13.58-36.22 32.82-36.22S338 373.15 338 393.52s-13.58 36.21-32.82 36.21zm-126.74-71.29c13.58 0 24.89 9.05 29.42 21.5h28.29c-5.66-27.16-28.29-46.4-57.71-46.4-33.95 0-60 26-60 61.11s26 61.11 60 61.11c29.42 0 52.05-19.24 56.58-47.53h-27.16c-4.53 13.58-14.71 22.63-29.42 22.63-19.24 0-32.82-14.71-32.82-36.21 0-20.37 13.58-36.21 32.82-36.21zm224.06-71.3c-10.18 0-17 6.79-17 17s6.79 17 17 17 17-6.79 17-17-6.79-17-17-17zM794 375.41c0-26-14.71-43-47.52-43-30.48 0-47.48 15.84-50.89 39.59h26c1.13-9.06 7.92-17 23.76-17 13.58 0 20.37 5.66 20.37 13.58 0 10.19-12.44 12.45-27.16 13.58-20.37 2.26-45.26 9.05-45.26 37.34 0 21.51 15.84 35.08 39.61 35.08 19.23 0 31.68-7.92 37.34-21.5 1.13 11.32 9.05 19.24 21.5 19.24h15.84v-24.85H794zM768 406c0 15.85-13.58 27.16-29.43 27.16-10.18 0-18.1-4.52-18.1-13.58 0-11.31 13.58-14.71 26-15.84s19.23-3.39 21.5-9.05V406zm-141.44-72.46c-14.71 0-27.16 6.79-36.21 17V286h-27.16v167.49h26v-15.84c9 11.32 21.5 18.11 36.21 18.11 31.69 0 56.58-26 56.58-61.11 1.16-35.08-23.73-61.11-55.42-61.11zM622 429.73c-19.24 0-32.82-14.71-32.82-36.21S603.93 357.3 622 357.3c19.23 0 32.81 14.72 32.81 36.22C656 415 641.27 429.73 622 429.73zm364.38-96.19c-33.95 0-58.84 26-58.84 61.11 0 36.21 27.15 61.11 60 61.11 28.29 0 49.79-17 55.45-40.74h-28.29c-4.53 10.18-13.58 15.84-27.16 15.84-17 0-30.55-11.32-32.82-30.55H1043v-9.06c0-33.95-23.76-57.71-56.58-57.71zm-30.55 47.53c4.52-15.84 15.84-24.9 30.55-24.9s27.16 9.06 29.42 24.9zm-75.82 2.26l-19.24-3.39c-9-1.13-15.84-4.53-15.84-12.45S854 355 865.34 355c12.44 0 21.5 5.66 22.63 14.71h26c-3.4-22.63-21.5-36.21-48.66-36.21-28.29 0-46.4 14.71-46.4 36.21 0 20.37 12.45 31.69 37.34 35.08l19.24 3.4c9.05 1.13 14.71 5.66 14.71 12.45 0 9.05-9.05 13.58-22.63 13.58-15.84 0-24.9-6.79-26-17h-26c2.27 22.63 20.37 39.61 52.06 39.61 29.42 0 48.66-13.58 48.66-37.35-.03-21.48-14.74-32.75-36.24-36.15zm725.41-49.79c-35.08 0-53.19 28.29-53.19 61.11 0 34 18.11 61.11 53.19 61.11s53.19-27.16 53.19-61.11c-1.14-33.95-19.24-61.11-53.19-61.11zM1640.5 398c0 27.16-15.84 41.87-35.08 41.87s-35.08-14.71-35.08-41.87v-7.92c0-27.16 15.84-41.87 35.08-41.87s35.08 14.71 35.08 41.87zm222.93-62.24l-30.55 54.32h0l-30.56-54.32h-19.23l40.73 71.3v46.39h17V407.1l40.74-71.3zm-139.19 0h-41.87v117.73h41.87c35.08 0 53.19-26 53.19-58.84-1.13-32.82-19.24-58.85-53.19-58.85zm35.08 62.24c0 24.9-15.84 39.61-35.08 39.61h-23.76v-87.1h23.76c19.24 0 35.08 14.72 35.08 39.61zm-307.8-47.53H1490v101.89h17V350.51h38.47V335.8h-93.92zM1404 386.73l-15.84-2.27c-12.45-2.26-20.37-6.79-20.37-18.1 0-10.19 9-19.24 26-19.24s26 7.92 26 19.24h17c-1.13-18.11-14.71-33.95-43-33.95s-43 15.84-43 35.08c0 20.37 13.58 30.55 34 32.82l15.85 2.26c13.58 2.26 21.5 6.79 21.5 18.11 0 12.44-10.19 20.37-27.16 20.37s-28.29-7.93-29.42-21.51h-17c0 21.51 18.11 36.22 46.4 36.22 27.16 0 45.26-14.71 45.26-36.22-1.15-20.37-15.86-29.42-36.22-32.81zm-237.64 53.18c-19.24 0-35.08-14.71-35.08-41.87v-7.92c0-27.16 15.84-41.87 35.08-41.87 15.84 0 24.89 9.05 28.29 21.5h18.11c-4.53-21.5-21.51-36.21-46.4-36.21-35.08 0-53.19 28.29-53.19 61.11 0 34 18.11 61.11 53.19 61.11 24.89 0 41.87-14.71 46.4-37.35h-18.11c-2.27 11.32-11.33 21.5-28.3 21.5zm141.45-28.29c0 18.11-10.18 28.29-27.16 28.29-18.1 0-28.29-11.31-28.29-28.29V335.8h-17v76.95c0 24.9 15.84 44.14 45.26 44.14 28.29 0 45.27-18.11 45.27-44.14V335.8h-17l-1.13 75.82z"/></svg>
