<svg xmlns="http://www.w3.org/2000/svg" xmlns:xlink="http://www.w3.org/1999/xlink" viewBox="0 0 2000 742.9"><g fill="currentColor"><path d="M1472.6 449.1h0v-48 48zm-117.9-28.9h0 0z"/><use xlink:href="#B"/><use xlink:href="#C"/><use xlink:href="#D"/><path d="M856.4 341.2h14.1V449h-14.1z"/><use xlink:href="#E"/><use xlink:href="#F"/><use xlink:href="#G"/><use xlink:href="#H"/><use xlink:href="#I"/><use xlink:href="#J"/><use xlink:href="#K"/><path d="M1558.1 341.2h14.1V449h-14.1z"/><use xlink:href="#D" x="701.7"/><use xlink:href="#L"/><use xlink:href="#M"/><use xlink:href="#N"/><use xlink:href="#O"/><use xlink:href="#P"/><path d="M1472.6 449.1h0v-48 48zm-117.9-28.9h0 0z"/><use xlink:href="#B"/><use xlink:href="#C"/><use xlink:href="#D"/><path d="M856.4 341.2h14.1V449h-14.1z"/><use xlink:href="#E"/><use xlink:href="#F"/><use xlink:href="#G"/><use xlink:href="#H"/><use xlink:href="#I"/><use xlink:href="#J"/><use xlink:href="#K"/><path d="M1558.1 341.2h14.1V449h-14.1z"/><use xlink:href="#D" x="701.7"/><use xlink:href="#L"/><use xlink:href="#M"/><use xlink:href="#N"/><use xlink:href="#O"/><use xlink:href="#P"/></g><defs ><path id="B" d="M712 291.6c-54.7 0-87.4 29.4-87.4 78.7 0 49.4 32.8 78.9 87.6 78.9 2.4 0 5.1 0 7.8-.2l2.4-.2v-13.7l-2.8.2c-2.7.2-5.7.2-8.3.2-45.5 0-71.6-23.8-71.6-65.3 0-41.3 25.8-65 70.9-65 2.9 0 6 0 9 .2l2.8.2v-13.7l-2.4-.2c-2.7-.1-5.4-.1-8-.1z"/><path id="C" d="M785.9 339.3c-14.5 0-28.2 5.8-38.4 16.2h0c-10.6 11-16.2 24.7-16.2 39.6s5.6 28.6 16.2 39.7c10.2 10.5 23.9 16.2 38.4 16.2s28.2-5.8 38.4-16.2c10.5-10.7 16-24.4 16-39.7s-5.5-29-16-39.7c-10.2-10.4-23.8-16.1-38.4-16.1zm0 98.1c-22.5 0-40-18.6-40-42.4s17.6-42.4 40-42.4c22.3 0 39.8 18.6 39.8 42.4.1 23.7-17.4 42.4-39.8 42.4z"/><path id="D" d="M863.4 306c-5 0-8.9 3.9-8.9 8.9 0 4.9 4.1 9.1 8.9 9.1 5 0 9.1-4.1 9.1-9.1s-4-8.9-9.1-8.9z"/><path id="E" d="M936.5 339.3c-26.9 0-44.4 19.3-44.4 49.1v60.7H906v-63.5c0-19.8 12.2-33.1 30.5-33.1 18.2 0 30.5 13.3 30.5 33.1v63.5h13.9v-60.7c-.1-29.8-17.5-49.1-44.4-49.1z"/><path id="F" d="M1039.5 433.1c-.6 1.8-1.1 2.6-1.4 2.9-.2-.3-.7-1.1-1.3-2.9l-33.9-91.7h-15.1l36.5 97.9c2.3 6.3 5.6 12.2 14 12.2 8.2 0 11.6-6.1 13.7-12.1l36.5-97.9h-15.1l-33.9 91.6z"/><path id="G" d="M1184.2 396.3c-1.6 24.6-17.6 41.1-39.8 41.1-22.5 0-40-18.6-40-42.4 0-23.9 17.8-42.6 40.5-42.6 11.2 0 20.8 4.5 28 13.1l-63.2 42.2 6.8 11.4 75.9-50.7-1.3-2.1c-10.6-17.6-26.5-26.9-45.9-26.9-15.2 0-28.7 5.6-39 16.2-10.4 10.7-16.2 24.7-16.2 39.7 0 14.9 5.7 29 16.2 39.7 10.2 10.5 23.9 16.2 38.4 16.2 29.7 0 52.6-22.9 54.4-54.4l.2-2.7h-14.5l-.5 2.2z"/><path id="H" d="M1261.4 340.8c-13.5 0-24.8 5.2-33.3 15v-14.6h-13.9V449h13.9v-57c0-22 13.1-37.4 32-37.4 1.6 0 3.9.2 6.3.4l3.7.3v-13.8l-2.3-.2c-2.1-.3-4.3-.5-6.4-.5z"/><path id="I" d="M1325.4 389.6l-20.7-5.9c-16.8-4.7-19-10.8-19-15.6 0-9 5.9-13.5 17.6-13.5h43.7v-13.4h-40.4c-22.2 0-35 9.7-35 26.5 0 14.2 9 23.6 27.6 28.8l19.8 5.4c15.1 4.1 21.6 9.7 21.6 18.8 0 9.3-8 14.6-22 14.6h-47.2V449h40.7c28.7 0 42.6-9.5 42.6-28.9h0c0-10.2-5.1-23.8-29.3-30.5z"/><path id="J" d="M1465 366c-10.4-17-27.5-26.7-46.8-26.7-31.4 0-54.1 23.5-54.1 55.9 0 15.1 5.3 28.7 15.3 39.4 10.1 10.8 23.7 16.5 39.3 16.5 14.1 0 26.6-4.9 37.2-14.6l.8-.8V416l-4.5 5.1c-9.7 11-20.7 16.3-33.5 16.3-23.2 0-40-17.9-40-42.4 0-24.2 17.2-42.4 40-42.4 24.6 0 39.8 18.3 39.8 47.9v48.7h14.1V401c0-15.5-2.3-26.3-7.6-35z"/><path id="K" d="M1507 312.1h-14.1v98.5c0 25.5 14.6 38.5 43.3 38.5h7.2v-13.4h-8.7c-19.6 0-27.6-7.5-27.6-25.9V355h36.3v-13.7H1507v-29.2z"/><path id="L" d="M1642.7 339.3c-14.5 0-28.2 5.8-38.4 16.2h0c-10.6 11-16.2 24.7-16.2 39.6s5.6 28.6 16.2 39.7c10.2 10.5 23.9 16.2 38.4 16.2s28.2-5.8 38.4-16.2c10.4-10.7 16-24.4 16-39.7s-5.5-29-16-39.7c-10.2-10.4-23.9-16.1-38.4-16.1zm0 98.1c-22.5 0-40-18.6-40-42.4s17.6-42.4 40-42.4c22.3 0 39.8 18.6 39.8 42.4 0 23.7-17.5 42.4-39.8 42.4z"/><path id="M" d="M1756 339.3c-26.9 0-44.4 19.3-44.4 49.1v60.7h13.9v-63.5c0-19.8 12.2-33.1 30.5-33.1 18.2 0 30.5 13.3 30.5 33.1v63.5h13.9v-60.7c0-29.8-17.4-49.1-44.4-49.1z"/><path id="N" d="M221.5 371.5c0-88.4 71.9-160.3 160.3-160.3 34.6 0 67.5 10.8 95.2 31.3 4.9 3.6 11.7 2.6 15.3-2.3s2.6-11.7-2.3-15.3c-31.5-23.3-68.9-35.6-108.2-35.6-100.5 0-182.2 81.7-182.2 182.2 0 39.3 12.3 76.7 35.6 108.2 2.1 2.9 5.5 4.4 8.8 4.4 2.3 0 4.5-.7 6.5-2.1 4.9-3.6 5.9-10.5 2.3-15.3-20.4-27.8-31.3-60.7-31.3-95.2z"/><path id="O" d="M528.4 263.3c-3.6-4.9-10.5-5.9-15.3-2.3-4.9 3.6-5.9 10.5-2.3 15.3 20.5 27.7 31.3 60.6 31.3 95.2 0 88.4-71.9 160.3-160.3 160.3-34.6 0-67.5-10.8-95.2-31.3-4.9-3.6-11.7-2.6-15.3 2.3s-2.6 11.7 2.3 15.3c31.5 23.3 68.9 35.6 108.2 35.6C482.3 553.7 564 472 564 371.5c0-39.3-12.3-76.7-35.6-108.2z"/><path id="P" d="M308.3 419.1c16.1 0 32-4.4 47.5-13.2 5.3-3 7.1-9.7 4.1-14.9-3-5.3-9.7-7.1-14.9-4.1-14.8 8.4-29.9 11.7-44.9 9.8-12.4-1.5-23.5-7.4-30-15.8-5.1-6.7-7.1-14.7-5.9-23.7 3.2-22.9 25.5-32.3 45.9-29.8 24.8 3.1 45.6 19.7 61.9 49.4 19.6 35.7 46.7 56.7 78.5 60.6 3.1.4 6.2.6 9.2.6 12.5 0 24.6-3.2 34.8-9.2 14.6-8.7 23.9-22.8 26.3-39.8 2.1-14.9-1.4-28.7-10.2-40.1-10.1-13.1-26.3-21.9-44.7-24.2-19.7-2.4-39.4 1.8-58.4 12.5-5.3 3-7.1 9.7-4.1 14.9 3 5.3 9.7 7.1 14.9 4.1 14.8-8.4 29.9-11.7 44.9-9.8 12.4 1.5 23.5 7.4 30 15.8 5.1 6.7 7.1 14.7 5.9 23.7-3.2 22.9-25.5 32.3-45.9 29.8-24.8-3.1-45.6-19.7-61.9-49.4-19.6-35.7-46.7-56.7-78.5-60.6-15.8-2-31.4 1.1-44 8.7-14.6 8.7-23.9 22.8-26.3 39.8-2.1 14.9 1.4 28.7 10.2 40.1 10.1 13.1 26.3 21.9 44.7 24.2 3.7.3 7.3.6 10.9.6z"/></defs></svg>
