<svg xmlns="http://www.w3.org/2000/svg" viewBox="0 0 2000 742.9"><path d="M432.77 397.24c-4.83 2.95-10.45 3.48-14.74 1.07-5.36-3.22-8.58-10.45-8.58-20.37v-30.28c0-14.48-5.63-24.93-15.27-27.61-16.35-4.82-28.68 15.28-33.24 22.78L332 389.2v-57.09c-.27-13.13-4.56-20.9-12.6-23.31-5.36-1.61-13.4-.81-21.17 11l-64.59 103.43a114.25 114.25 0 0 1-13.13-53.06c0-62.45 50.12-113.1 111.49-113.1s111.49 50.65 111.49 113.1v.54c.53 12.06-3.22 21.7-10.72 26.53zm35.37-27.07h0v-.54c-.26-75.84-61.37-137.75-136.14-137.75-75 0-136.15 61.91-136.15 138.29 0 76.11 61.11 138.29 136.15 138.29a133.78 133.78 0 0 0 92.46-37A12.52 12.52 0 0 0 407.58 453l-.27.27A110.12 110.12 0 0 1 248.65 446l58.16-93.26v43.16c0 20.63 8 27.33 14.74 29.21s16.88.54 27.87-16.88l31.89-51.73a30 30 0 0 1 2.95-4.29v26.27c0 19.29 7.77 34.84 21.17 42.34 12.06 7 27.34 6.17 39.93-1.61 15.55-10.21 23.86-27.87 22.78-49.04zM657.89 323c3.22 1.88 6.17 6.43 6.17 10.45a11.85 11.85 0 0 1-11.53 11.79 20.19 20.19 0 0 1-4.29-.8 44 44 0 0 0-26-8.84c-22.78 0-38.33 18.49-38.33 41.54s15.82 41.27 38.33 41.27a41.64 41.64 0 0 0 28.94-11.79 11.75 11.75 0 0 1 6.7-2.15 10.87 10.87 0 0 1 11 11 11.4 11.4 0 0 1-5.36 9.38c-11 9.38-25.73 15.55-41 15.55-34.85 0-63.25-28.68-63.25-64.06s28.4-64.05 63.25-64.05A60.53 60.53 0 0 1 657.89 323zm63.79 26.8c23.85 0 43.68 20.1 43.68 45 0 24.65-20.1 45.82-43.68 45.82-24.93 0-45.56-20.9-45.56-45.82s20.63-45 45.56-45zm-.27 68.61c10.45 0 19.3-9.92 19.3-23.32s-8.85-22-19.3-22c-11.26 0-20.64 8.31-20.64 22 0 13.14 9.38 23.32 20.64 23.32zm59 8.31v-63.25a12.36 12.36 0 0 1 12.33-12.6 12.53 12.53 0 0 1 12.26 12.6v63.25a12.52 12.52 0 0 1-12.33 12.59 12.7 12.7 0 0 1-12.3-12.59zM778.49 327a14.42 14.42 0 0 1 14.21-14.74A14.64 14.64 0 0 1 807.17 327a14.34 14.34 0 1 1-28.68 0zm73.71 65.39v34.31a12.33 12.33 0 1 1-24.66 0v-66.2a9.52 9.52 0 1 1 19 0c9.91-9.38 18.76-10.72 27.07-10.72 24.65 0 35.64 18.49 35.64 39.67v37.25a12.33 12.33 0 1 1-24.66 0v-34.29c0-10.72-1.34-19.83-16.88-19.83-11 0-15.54 9.11-15.54 19.83zm136.95 13.14a8 8 0 0 1-6.44-3.22L954 371.24v55.48a12.33 12.33 0 1 1-24.66 0V316.84a5.21 5.21 0 0 1 4.56-3.22c2.14 0 4 1.88 5.36 3.22l45.83 51.45a6 6 0 0 0 4 2.42 6.61 6.61 0 0 0 4-2.42l45.91-51.45c1.34-1.34 3-3.22 5.36-3.22a4.67 4.67 0 0 1 4.56 3.22v109.88a12.35 12.35 0 0 1-12.33 12.59 12.52 12.52 0 0 1-12.33-12.59v-55.48l-28.67 31.09c-2.15 1.88-4 3.22-6.43 3.22zm118.45 12.86c11 0 20.37-9.92 20.37-23.32s-9.65-22.24-20.37-22.24-19.6 9.17-19.6 22.26c0 12.91 8.62 23.32 19.6 23.32zm26.27 11.26l-.54-2.95c-4.82 9.38-20.1 13.67-29.75 13.67-23 0-40.2-20.91-40.2-45.83 0-24.66 17.42-45 41.54-45a38.59 38.59 0 0 1 28.68 13.67l.54-2.95a9.38 9.38 0 0 1 9.38-9.64 9.77 9.77 0 0 1 9.64 9.64v69.14a9.6 9.6 0 0 1-9.64 9.65 9.23 9.23 0 0 1-9.65-9.38zm87.1-57.09h-2.68c-15.54.81-18.49 9.65-18.49 19.83v34.31a12.33 12.33 0 1 1-24.66 0v-66.2a9.52 9.52 0 1 1 19 0c9.11-8.57 16.62-10.45 24.12-10.72h2.41a11.56 11.56 0 0 1 11.33 11.55c.27 5.89-5.09 11.25-11 11.25zm95.14 48.24a11.81 11.81 0 0 1 1.88 5.9 12.85 12.85 0 0 1-12.33 12.33c-4.29 0-8-3.22-11-7l-28.41-33v27.34a12.33 12.33 0 1 1-24.65 0V326a12.33 12.33 0 1 1 24.65 0v62.71l28.41-31.35c2.95-3.22 6.43-6.7 10.72-6.7 6.17 0 11.79 5.62 11.79 12.06a10.52 10.52 0 0 1-1.6 5.62L1293.06 393l23 27.87zm48.24-48c-6.7 0-17.69 3.48-17.69 13.94h35.65c-.27-10.46-11.53-13.94-18-13.94zm32.16 29.75h-49.85c0 14.74 14.21 17.15 20.37 17.15 4.56 0 11-.8 16.08-3.22a12.15 12.15 0 0 1 6.43-1.87 10.12 10.12 0 0 1 9.92 10.18c0 3.75-2.41 7-5.36 8.85-7.5 5.62-17.42 7-26.8 7-24.92 0-45.56-13.4-45.56-44.75 0-24.66 12.6-46.1 42.08-46.1 23.85 0 41.81 15.55 42.34 43.15a9.79 9.79 0 0 1-9.65 9.65zm68.61 37.79h-6.7c-18.76 0-29.75-8.31-29.75-37.52v-30.24h-6.43c-5.89 0-11-5.36-11-11.25 0-6.44 5.36-11.53 11-11.53h6.43v-23.32a12.36 12.36 0 0 1 12.33-12.59 12.53 12.53 0 0 1 12.33 12.59v23.32h10.18a11.33 11.33 0 0 1 11 11.53c0 5.89-5.36 11.25-11 11.25h-10.18V398c0 16.89.8 20.37 8.31 20.37h3.48a11 11 0 0 1 11 11 11.22 11.22 0 0 1-11 11zM1584.38 323c3.22 1.88 6.17 6.43 6.17 10.45a11.85 11.85 0 0 1-11.55 11.79 20.21 20.21 0 0 1-4.28-.8 44.06 44.06 0 0 0-26-8.84c-22.78 0-38.33 18.49-38.33 41.54s15.82 41.27 38.33 41.27a41.62 41.62 0 0 0 28.94-11.79 11.75 11.75 0 0 1 6.7-2.15 10.87 10.87 0 0 1 11 11 11.4 11.4 0 0 1-5.36 9.38c-11 9.38-25.73 15.55-41 15.55-34.84 0-63.25-28.68-63.25-64.06s28.41-64.05 63.25-64.05a59.94 59.94 0 0 1 35.38 10.71zm62.45 95.41c11 0 20.37-9.92 20.37-23.32s-9.65-22.24-20.37-22.24c-11 0-19.57 9.11-19.57 22.24 0 12.87 8.85 23.32 19.57 23.32zm26.26 11.26l-.53-2.95c-4.83 9.38-20.1 13.67-29.75 13.67-23 0-40.2-20.91-40.2-45.83 0-24.66 17.42-45 41.54-45a38.59 38.59 0 0 1 28.68 13.67l.53-2.95a9.38 9.38 0 0 1 9.38-9.64 9.78 9.78 0 0 1 9.65 9.64v69.12a9.61 9.61 0 0 1-9.65 9.65 9.23 9.23 0 0 1-9.65-9.38zm86.57-11.26c11 0 19.56-10.45 19.56-23.32 0-13.4-8.84-22.24-19.56-22.24-11 0-20.37 8.84-20.37 22.24s9.38 23.32 20.37 23.32zm-20.37 14.74v31.36a12.33 12.33 0 1 1-24.66 0v-104a9.61 9.61 0 0 1 9.65-9.65c5.36 0 9.38 4.56 9.38 10.72 9.11-9.38 20.37-11.79 28.95-11.79 23.85 0 41.54 20.1 41.54 45 0 24.65-16.89 45.82-40.2 45.82-7.24-.26-18-2.41-24.66-7.5z" fill="currentColor"/></svg>
