<svg xmlns="http://www.w3.org/2000/svg" viewBox="0 0 2000 742.9" fill="currentColor"><path d="M871.74 329.48c-4-15.69-14.17-27.18-34-27.18-29.29 0-41.53 25.83-41.53 52s12.24 52.05 41.53 52.05c21.26 0 32.92-15.87 34.82-35.77h23.34c-1.91 32.71-25.06 55.28-58.12 55.28-41 0-65.44-32.53-65.44-71.57s24.41-71.63 65.36-71.63c30.8.18 55.1 17.22 58 46.69zM910 373c0-30.24 18.18-52 49.94-52s49.94 21.8 49.94 52-18.16 52.28-49.88 52.28-50-21.82-50-52.28zm78.07 0c0-17-8.61-34.82-28.13-34.82S931.83 356 931.83 373s8.6 35 28.12 35 28.13-17.75 28.13-35zm40.58-87h21.81v20.67h-21.81zm0 37.71h21.81v98.89h-21.81zm45.54-.04h20.67v14.54l.38.38a35.46 35.46 0 0 1 30.82-17.59c21.43 0 35 11.49 35 33.67v67.94h-21.81V360.4c-.39-15.5-6.51-22.19-19.32-22.19-14.55 0-23.93 11.47-23.93 26v58.39h-21.82zm232.12 98.93H1291l-3.63-16.08c-12.75 14.55-24.49 19.32-41.1 19.32-40.93 0-65.48-32.57-65.48-71.57s24.55-71.57 65.45-71.57c29.77 0 54.91 15.88 58.54 46.69h-23.35c-2.29-18-18-27.17-35.19-27.17-29.29 0-41.54 25.83-41.54 52s12.25 52.05 41.54 52.05c24.48.38 37.87-14.35 38.27-37.51h-36.36v-18.12h58.12zm40-43.83c0 15.5 8.43 29.28 26.6 29.28 12.63 0 20.28-5.55 24.1-16.46h20.68c-4.78 21.62-23.15 33.69-44.78 33.69-31 0-48.41-21.64-48.41-52.06 0-28.13 18.43-52.23 47.84-52.23 31.19 0 50.32 28.12 46.69 57.78zm50.91-14.35c-.77-13.78-10.15-26.21-24.88-26.21-15.12 0-25.44 11.47-26 26.21zm105.25-7.65c-1.73-12.07-10.53-18.56-22.58-18.56-11.34 0-27.18 5.93-27.18 36 0 16.46 7.28 33.88 26.21 33.88 12.63 0 21.44-8.42 23.55-22.58h21.82c-4 25.64-19.85 39.81-45.37 39.81-31 0-48-22-48-51.11 0-29.85 16.27-53.18 48.79-53.18 23 0 42.53 11.48 44.6 35.78zm40.24-70.77h21.82v77.7l39.42-40h26.79l-37.89 36.3 41.52 62.59h-26.65l-30.23-48-13 12.63v35.43h-21.76zm97.54 87c0-30.24 18.18-52 49.94-52s50 21.8 50 52-18.19 52.25-50 52.25-49.94-21.79-49.94-52.25zm78.08 0c0-17-8.62-34.82-28.14-34.82S1662.07 356 1662.07 373s8.6 35 28.12 35 28.14-17.75 28.14-35zM454.62 175.83h0c-108 .48-195.23 88.45-194.75 196.48s88.43 195.23 196.47 194.76 195.23-88.45 194.75-196.48-88.44-195.23-196.47-194.76zm1.7 376.57a180.922 180.922 0 1 1-1.64-361.84h0a180.922 180.922 0 0 1 1.63 361.84zm-.17-277.47c9.12.65 42.07 11.34 50.58 17.18-7.09-20.55-31-23.29-50.58-17.18zm-1.7 52.3a24.61 24.61 0 1 1-24.61-24.61h0a24.61 24.61 0 0 1 24.61 24.61z"/><path d="M591,377.24c-.47.32-.64,1-1.11,1.3-1,.72-1.52,1.95-2.37,2.65-9.31,7.71-9.13,13.94-24.86,19.48-13.09,4.61-33.49,12.91-53.26,15.13-13,1.45-25.82-2.33-35.78-2.33-13.45,0-10.1-9-16.74-13-3.93-2.31-6.83-3.87-12.09.25-7.3,5.75-33,18.62-53.46,17.64s-53.54-13-62.77-56.55c-3.66,43.6-5.53,75.72-21.9,112.53,32.6,52.21,110.34,92.48,180.9,75.13-7.58-52.94,38.69-104.8,64.75-131.33,9.93-10.05,28.78-26.45,38.69-41Z"/><path d="M547.24 306.8c-13.13-3.8-26.73-9.19-40.51-14.63-.8-3.46-3.86-7.77-10.05-13-9-7.81-25.91-7.61-40.53-4.15-16.13-3.8-32.06-5.15-47.36-1.42-125.1 34.4-54.16 118.51-100.09 203.02 6.53 13.86 77 94.75 178.89 73 0 0-34.86-83.76 43.8-124 63.81-32.62 109.9-93.21 15.85-118.82zm7.83 47.47a7.59 7.59 0 1 1-7.55 7.63 7.6 7.6 0 0 1 7.55-7.63zm-125.21 7.64a35 35 0 0 1 0-70h0a35 35 0 0 1 35 35h0a35 35 0 0 1-35 35zM560 397.75A190.06 190.06 0 0 1 526.39 410c-11.57 3-23.63 5.25-35.85 4.14s-24.71-5.26-32.8-14.42l.38-.44c9.92 6.44 21.38 8.71 32.77 9a154.3 154.3 0 0 0 34.45-2.83 187.58 187.58 0 0 0 33.47-10.35c10.81-4.46 21.52-9.64 30.73-17l.38.44c-8.8 8.02-19.28 13.96-29.92 19.21z"/></svg>
