<svg xmlns="http://www.w3.org/2000/svg" viewBox="0 0 2000 742.9" fill="currentColor"><path d="M1606 399.91l-67.86 67.85-37.75-37.76 67.86-67.85-30.18-30.15-98.37 98.36 98.1 98.08 98.36-98.36zm60.56-61.34L1538.4 210.41l-128.52 128.52.41 60.07 127.56-127.56 128.5 128.5zm-714.8 191.49V274.41h41.16v219.21h68.72v36.44zm369.64 0l-30.14-91.48-30.13 91.48h-45.2l51.81-131.86L1220 275.63h45.2l26.09 85.05 26.09-85.05h45.21l-48.91 122.57 52.92 131.86zm-731.6-56.25A23.18 23.18 0 0 1 566.62 497h-16.18a23.18 23.18 0 0 1-23.18-23.18v-142.7a23.18 23.18 0 0 1 23.18-23.18h16.18a23.18 23.18 0 0 1 23.18 23.18zM576 272.44h-35a52 52 0 0 0-52 52v156a52 52 0 0 0 52 52h35a52 52 0 0 0 52-52v-156a52 52 0 0 0-52-52zm592.27 2.32v199.05a23.18 23.18 0 0 1-23.18 23.19h-13.33a23.18 23.18 0 0 1-23.19-23.18v-199h-38.23v205.66a52 52 0 0 0 52 52h32.13a52 52 0 0 0 52-52V274.76zM693.35 529.88V331.52a23.18 23.18 0 0 1 23.18-23.18h13.33A23.18 23.18 0 0 1 753 331.52v198.36h38.23v-205a52 52 0 0 0-52-52h-32.1a52 52 0 0 0-52 52v205zM469.86 324a52 52 0 0 0-52-52h-32.4a52 52 0 0 0-52 52v156.48a52 52 0 0 0 52 52h32.4a52 52 0 0 0 52-52V457.9h-36.67a143.75 143.75 0 0 1-1.67 18.1 23.18 23.18 0 0 1-23.07 21h-13.6a23.18 23.18 0 0 1-23.18-23.18V330.69a23.18 23.18 0 0 1 23.18-23.18h13.6a23.18 23.18 0 0 1 21.08 13.57c1.77 2.39 3.2 12.3 3.68 25.21h36.65zM930 274.41h-81.34a28.61 28.61 0 0 0-28.56 27v228.67h41.16V419h59.16v-36.49h-59.16v-53.46l.15.17c0-14.07 3.76-18.36 18.36-18.36H930z"/></svg>
