<svg xmlns="http://www.w3.org/2000/svg" viewBox="0 0 2000 742.9" fill="currentColor"><path d="M471.14 325.76a1.64 1.64 0 0 0 2.79 1.06 35.39 35.39 0 0 1 12.24-7.82 56.11 56.11 0 0 1 20-3.79 1.44 1.44 0 0 1 1.46 1.44v31.12a1.47 1.47 0 0 1-1.62 1.45 68.53 68.53 0 0 0-7-.43q-12.22 0-19.24 6.6-6.83 6.6-6.82 20.2v48.34a1.45 1.45 0 0 1-1.45 1.45h-35.19a1.45 1.45 0 0 1-1.45-1.45V318.41a1.45 1.45 0 0 1 1.45-1.45h33.37a1.45 1.45 0 0 1 1.46 1.45zM634.52 317a1.45 1.45 0 0 1 1.45 1.45v87.13q0 30.19-16.24 45.2-16 15.19-46.3 15.19a117.88 117.88 0 0 1-29.66-3.59 70.08 70.08 0 0 1-22.24-9.88 1.42 1.42 0 0 1-.44-1.83l12.42-23.88a1.5 1.5 0 0 1 2.25-.47 47.17 47.17 0 0 0 14.62 7.26 62.6 62.6 0 0 0 19.44 3.2q14.43 0 21.25-6.6 6.82-6.6 6.82-19.6a1.09 1.09 0 0 0-1.79-.79q-11.76 10-28.68 10-21 0-33.68-12.4-12.42-12.39-12.42-37.24v-51.74a1.45 1.45 0 0 1 1.45-1.45H558a1.45 1.45 0 0 1 1.45 1.45V364q0 12.41 4.61 18 4.61 5.59 13.43 5.6a18.56 18.56 0 0 0 14.63-6.4q5.82-6.4 5.82-19.2v-43.59a1.45 1.45 0 0 1 1.45-1.45zm92.32-1.84a52.38 52.38 0 0 1 26.86 7 48.53 48.53 0 0 1 19.24 19.59q7.21 12.6 7.22 29.4.01 16.8-7.22 29.6a50.27 50.27 0 0 1-19.24 19.59 53.55 53.55 0 0 1-26.86 6.8q-16.9 0-27.66-9a1.58 1.58 0 0 0-2.6 1.14v43.4a1.45 1.45 0 0 1-1.45 1.45H660a1.45 1.45 0 0 1-1.46-1.45V318.41A1.45 1.45 0 0 1 660 317h33.37a1.45 1.45 0 0 1 1.45 1.45v5.37a1.64 1.64 0 0 0 2.75 1.1q10.43-9.76 29.27-9.76zm-8 81.79a21.59 21.59 0 0 0 16.43-6.8q6.42-7 6.42-19 0-12-6.42-18.8a22.79 22.79 0 0 0-32.87 0q-6.42 6.81-6.41 18.8.01 11.99 6.41 19a21.62 21.62 0 0 0 16.43 6.85zm146.58 22.9a1.4 1.4 0 0 1-.61 1.69 39.9 39.9 0 0 1-10.83 4 63.69 63.69 0 0 1-14.63 1.6q-21.24 0-32.67-10.4-11.22-10.39-11.22-31v-91.53a1.45 1.45 0 0 1 1.45-1.45h35.18a1.45 1.45 0 0 1 1.45 1.45v25.3A1.45 1.45 0 0 0 835 321h21.75a1.45 1.45 0 0 1 1.45 1.45v25.45a1.44 1.44 0 0 1-1.45 1.45H835a1.45 1.45 0 0 0-1.45 1.45v34.55q0 6 3 9.2a10.72 10.72 0 0 0 8.21 3.2 20.63 20.63 0 0 0 10-2.42 1.56 1.56 0 0 1 2.24.79zm64.38 7.29a67.89 67.89 0 0 1-31.47-7.2 55.19 55.19 0 0 1-22.05-20 54.38 54.38 0 0 1 21.85-77.59q14-7.2 31.67-7.2 17.67 0 31.67 7.2a52.41 52.41 0 0 1 21.85 19.79 53.5 53.5 0 0 1 7.81 28.8 54.55 54.55 0 0 1-7.81 29 53.8 53.8 0 0 1-21.85 20q-14.04 7.2-31.67 7.2zm0-30.19a21.62 21.62 0 0 0 16.44-6.8q6.4-7 6.41-19.2 0-12-6.41-18.8a23.27 23.27 0 0 0-32.88 0Q907 359 907 371q0 12.19 6.41 19.2a21.62 21.62 0 0 0 16.39 6.8zm119.26 30.19q-20 0-31.27-10.2-11-10.4-11-29.59V278.41a1.44 1.44 0 0 1 1.45-1.44h35.18a1.44 1.44 0 0 1 1.45 1.44v106.94q0 6 3 9.2 3.21 3.19 8.82 3.2a19.3 19.3 0 0 0 6.59-1.13 1.59 1.59 0 0 1 2.15 1.33l1.42 25.28a1.42 1.42 0 0 1-1 1.45 57.6 57.6 0 0 1-16.79 2.46zm82.06 0a68 68 0 0 1-31.47-7.2 55.1 55.1 0 0 1-22-20 54.39 54.39 0 0 1 21.84-77.59q14-7.2 31.67-7.2 17.67 0 31.67 7.2a52.35 52.35 0 0 1 21.85 19.79 53.5 53.5 0 0 1 7.81 28.8 54.55 54.55 0 0 1-7.81 29 53.74 53.74 0 0 1-21.85 20q-14.06 7.2-31.71 7.2zm0-30.19a21.62 21.62 0 0 0 16.44-6.8q6.4-7 6.41-19.2 0-12-6.41-18.8a23.26 23.26 0 0 0-32.87 0q-6.42 6.81-6.42 18.8 0 12.19 6.42 19.2a21.59 21.59 0 0 0 16.43 6.85zm132.49 30.19q-18 0-32.27-7.2a52.86 52.86 0 0 1-30.07-49 52.28 52.28 0 0 1 30.07-48.59q14.23-7.2 32.27-7.2 18.45 0 31.88 8a43.22 43.22 0 0 1 18.51 20.58 1.42 1.42 0 0 1-.67 1.83l-27 13.73a1.49 1.49 0 0 1-2-.62q-7.38-13.32-21-13.32a23.14 23.14 0 0 0-17 6.8q-6.62 6.81-6.61 18.8 0 12.19 6.61 19.2a23.14 23.14 0 0 0 17 6.8q13.59 0 21-13.32a1.49 1.49 0 0 1 2-.62l27 13.73a1.42 1.42 0 0 1 .67 1.83 44.17 44.17 0 0 1-18.52 20.77q-13.43 7.8-31.87 7.8zM1439.08 317a1.44 1.44 0 0 1 1.45 1.45v105.44a1.44 1.44 0 0 1-1.45 1.45h-33.37a1.46 1.46 0 0 1-1.46-1.45v-5.37a1.64 1.64 0 0 0-2.74-1.1q-10.48 9.72-29.32 9.72a54.65 54.65 0 0 1-27.06-6.8 51.82 51.82 0 0 1-19.25-19.79q-7-12.81-7-29.6 0-16.79 7-29.39a50.34 50.34 0 0 1 19.25-19.6 54.76 54.76 0 0 1 27.06-6.8q17.05 0 27.66 8.8a1.59 1.59 0 0 0 2.61-1.15v-4.4a1.44 1.44 0 0 1 1.45-1.45zm-58.87 80a21.59 21.59 0 0 0 16.43-6.8q6.42-7 6.42-19.2 0-12-6.42-18.8a23.26 23.26 0 0 0-32.87 0q-6.4 6.81-6.41 18.8 0 12.19 6.41 19.2a21.61 21.61 0 0 0 16.44 6.8zm125.13 30.14q-20 0-31.27-10.2-11-10.4-11-29.59V278.41a1.44 1.44 0 0 1 1.45-1.44h35.18a1.44 1.44 0 0 1 1.45 1.44v106.94q0 6 3 9.2c2.13 2.13 5.08 3.2 8.82 3.2a19.34 19.34 0 0 0 6.59-1.13 1.59 1.59 0 0 1 2.15 1.33l1.42 25.28a1.43 1.43 0 0 1-1 1.45 57.49 57.49 0 0 1-16.79 2.46zm71.79 0q-20 0-31.27-10.2-11-10.4-11-29.59V278.41a1.44 1.44 0 0 1 1.45-1.44h35.18a1.44 1.44 0 0 1 1.45 1.44v106.94q0 6 3 9.2c2.13 2.13 5.08 3.2 8.81 3.2a19.35 19.35 0 0 0 6.6-1.13 1.59 1.59 0 0 1 2.15 1.33l1.42 25.28a1.42 1.42 0 0 1-1 1.45 57.54 57.54 0 0 1-16.79 2.46zM1719.43 317a1.46 1.46 0 0 1 1.45 1.45v87.13q0 30.19-16.23 45.2-16 15.19-46.31 15.19a117.83 117.83 0 0 1-29.66-3.59 70.08 70.08 0 0 1-22.24-9.88 1.42 1.42 0 0 1-.44-1.83l12.42-23.88a1.51 1.51 0 0 1 2.25-.47 47.28 47.28 0 0 0 14.62 7.26 62.56 62.56 0 0 0 19.44 3.2q14.43 0 21.25-6.6 6.82-6.6 6.81-19.6a1.08 1.08 0 0 0-1.78-.79q-11.76 10-28.68 10-21 0-33.67-12.4-12.44-12.39-12.43-37.19v-51.79a1.45 1.45 0 0 1 1.45-1.45h35.18a1.45 1.45 0 0 1 1.45 1.45V364q0 12.41 4.61 18 4.61 5.59 13.43 5.6a18.54 18.54 0 0 0 14.63-6.4q5.8-6.4 5.81-19.2v-43.59a1.46 1.46 0 0 1 1.45-1.45zM351.67 387.38a32.55 32.55 0 0 0 31.1-22.89 1.65 1.65 0 0 1 2-1.13l35.52 9.64a1.58 1.58 0 0 1 1.11 2A72.62 72.62 0 0 1 311 414.85a3 3 0 0 0-1.51-.17l-25.67 12.65c-1.31.52-3.82-2.7-3.29-4l10.81-27a1.61 1.61 0 0 0-.16-1.49 72.52 72.52 0 1 1 130-61 1.56 1.56 0 0 1-1.1 2l-35.54 9.66a1.67 1.67 0 0 1-2-1.09 32.53 32.53 0 1 0-30.79 43z"/></svg>
