<svg xmlns="http://www.w3.org/2000/svg" viewBox="0 0 2000 742.9" fill="currentColor" fill-rule="evenodd"><path d="M720,217.12a16.39,16.39,0,0,0-16.39,16.4v75.19a128.64,128.64,0,0,0-27.41-13c-11.69-3.9-26.39-5.59-35.39-5.59-65.06,0-118,53-118,118a118.23,118.23,0,0,0,118,118c65.05,0,115.68-53,115.68-118V233.52a16.39,16.39,0,0,0-16.39-16.4ZM641.26,342.74c36.21,0,62.11,29.18,62.11,65.38,0,16.9-5.65,32.27-15.35,43.86a60,60,0,0,1-46.76,21.52,65.38,65.38,0,1,1,0-130.76Z"/><path d="M640.81 290.08c-65.06 0-118 53-118 118a118.23 118.23 0 0 0 118 118c65.05 0 115.68-53 115.68-118h-52.88v-99.37a62.65 62.65 0 0 0-5.4-3.32c-17.01-9.39-36.34-15.31-57.4-15.31zm.45 52.66c36.21 0 62.11 29.18 62.11 65.38 0 16.9-5.65 32.27-15.35 43.86a60 60 0 0 1-46.76 21.52 65.38 65.38 0 1 1 0-130.76zm217.82-75.28h99.52q35.68 0 63.07 13.61 27.39 13.61 42.56 38.34 15.18 24.72 15.18 57.59 0 32.87-15.18 57.58-15.18 24.74-42.56 38.34-27.38 13.6-63.07 13.61h-99.52zm97 177.45q32.86 0 52.42-18.31 19.56-18.31 19.56-49.6 0-31.31-19.56-49.61-19.56-18.3-52.4-18.31h-46.32v135.83zm319.58-126.75v168.37H1229v-19.4Q1210.88 489 1176.45 489q-23.78 0-43-10.64a76.25 76.25 0 0 1-30.2-30.36q-11-19.73-11-45.69 0-25.96 11-45.7a76.17 76.17 0 0 1 30.2-30.35q19.24-10.65 43-10.64 32.23 0 50.39 20.34v-17.8zM1184.9 449q18.46 0 30.67-12.68 12.21-12.68 12.21-33.95 0-21.28-12.21-34-12.21-12.72-30.67-12.67-18.78 0-31 12.67-12.22 12.67-12.21 34 0 21.27 12.21 33.95 12.21 12.68 31 12.68zm161.89-127.08h108.8l-2.24 37.55H1348v127.06h-48.82V314.4q0-28.78 17.06-45.69 17.06-16.91 48-16.9a89.31 89.31 0 0 1 20.81 2.35 50.5 50.5 0 0 1 16.43 6.73l-12.83 35.36a33.44 33.44 0 0 0-19.72-5.94q-22.21 0-22.22 24.41z"/><path d="M1422.47 321.93h48.83v164.61h-48.83zm24.41-27.24q-13.45 0-21.9-7.82a26.51 26.51 0 0 1 0-38.81q8.44-7.83 21.9-7.83 13.46 0 21.91 7.52a24 24 0 0 1 8.45 18.77q0 12.21-8.45 20.19-8.45 7.98-21.91 7.98z"/></svg>
