<svg xmlns="http://www.w3.org/2000/svg" viewBox="0 0 2000 742.9"><text transform="translate(1164.89 537.96)" font-size="74.56" font-family="Avenir-HeavyOblique,Avenir" font-weight="800" font-style="oblique" fill="currentColor">NEXT</text><path d="M774 247.7h-93.12l-7.74 43.17 84.1.13c41.46 0 53.66 15.09 53.27 40-.14 12.73-5.78 34.38-8.14 41.33-6.43 18.63-19.42 40-68.61 39.88H652l-7.61 43.17h92.91c32.8 0 46.7-3.81 61.53-10.63 32.67-15.09 52.22-47.36 60-89.61 11.63-62.7-2.93-107.44-84.83-107.44zm288.14 207.82l6.56-37.52h79.51c6.3 0 10.62-3.81 11.54-10 1.32-6.3-1.83-10-8.13-10h-38c-30 0-44.34-17.45-39.1-47.5s26-47.49 56-47.49H1217l-6.83 37.52h-76.22c-6.3 0-10.63 3.81-11.55 10-1.31 6.3 1.84 10 8.14 10h38c30 0 44.35 17.45 39.1 47.5s-25.58 47.49-55.63 47.49zm-121.22 0c-49.47 0-71.64-26.9-62.85-76.36 8.4-49.46 40.28-76.22 89.74-76.22h87.51l-26.9 152.58zm56.94-115.06h-22.57c-26.9 0-42.77 11.94-47.49 38.7-5 26.9 5 38.84 31.88 38.84h24.66zm327.6 115.06l15.61-88.82c2.75-17.45-4.33-25.06-21.78-25.06h-24.93l-20.07 113.75h-50.64l36.6-207.69h50.64l-9.71 55.24h37.92c44.34 0 60.35 19.41 52.48 63.76L1376 455.52zM640.74 329.83c-24.41 0-28 15.88-30.18 25.46L606.49 373h95.38c24.41 0 28-15.88 30.18-25.46l4.07-17.71z" fill="currentColor"/></svg>
