<svg xmlns="http://www.w3.org/2000/svg" viewBox="0 0 2000 742.9" fill="currentColor"><path d="M1446.3 375.1v119l35.7 17.2V375.1h-35.7zm-804.1 3.4V245.7l37-14.1v146.9h-37zm168-10.6c-1.2-16.8-15-27.6-33.1-27.6-16.6 0-30.6 8.3-34.9 27.6h68zm39.5 26H742.2c4.3 16.8 17.7 26.6 36.8 26.6 14.4-.1 28.1-6.2 37.7-16.9l23.3 23.6c-13.5 18.1-38.3 28.8-63.4 28.8-44.1 0-76.3-31-76.3-75 0-46.3 35.2-75.4 76-75.4 40.7 0 74.5 29.1 74.5 72.9-.1 4.1-.4 9-1.1 15.4h0zm125.7-133.8c0-13.5 11.6-23.9 25.4-23.9 14.4 0 25.4 10.4 25.4 23.9s-11.1 24.2-25.4 24.2c-13.8 0-25.4-10.7-25.4-24.2zm45.6 49.3v143.1h-40.2V340.6h-58.2v111.8h-40.1V340.6h-27v-31.2h27V299c0-42.9 22.1-67.4 62.8-67.4h9.5l-5.9 37.4c-20 0-26.3 10.7-26.3 25.7v14.7h98.4zm20.5 71.1c0-45.3 36.8-74.7 78.4-74.7 23.9-.4 46.5 11.1 60.3 30.6l-30.3 21.1c-7.2-9.1-18.1-14.4-29.7-14.4-22.7 0-38 16.5-38 37.4 0 20.8 15.3 38.3 38 38.3 11.6 0 22.6-5.3 29.7-14.4l30.3 21.2c-13.8 19.5-36.4 31-60.3 30.6-41.6-.1-78.4-30.4-78.4-75.7zm156.6-148.9h40.1v220.9h-40.1V231.6zm69.5 220.9V309.4h40.1v143.1h-40.1 0zm-5.5-192.4c0-13.5 11.6-23.9 25.4-23.9 14.1 0 25.4 10.4 25.4 23.9a24.41 24.41 0 0 1-7.7 17.4c-4.8 4.5-11.2 7-17.8 6.8-13.7 0-25.3-10.7-25.3-24.2h0z"/><path d="M1441.3 381.1c0-22.4-16.3-38-36.2-38s-36.1 15.5-36.1 38 16.2 37.7 36.1 37.7c20 0 36.2-15.7 36.2-37.7zm-113.1 0c0-45.3 36.2-75.4 76.9-75.4s76.9 30 76.9 75.4-36.2 75-76.9 75-76.8-30-76.9-75h0 0zm-689.7 0c0-22.4-16.3-38-36.2-38s-36.1 15.5-36.1 38 16.2 37.7 36.1 37.7 36.2-15.7 36.2-37.7h0zm-113 0c0-45.3 36.2-75.4 76.9-75.4s76.9 30.1 76.9 75.4-36.2 75-76.9 75c-40.8 0-76.9-30-76.9-75z"/><path d="M543.7 431.1c61.7 45.8 65.8-77.6 134.6-36.9-6.9 42.1-44.8 56-44.8 56s-50 21.9-89.8-19.1h0z"/></svg>
