<svg xmlns="http://www.w3.org/2000/svg" viewBox="0 0 2000 742.9" fill="currentColor"><path d="M880.8 253.8h58.1c39 0 63.1 10.5 78.2 25.6 14.9 14.9 21.6 34.4 21.6 58.5.1 29.6-11.7 58-32.7 78.8-24.1 24.1-58.5 36.7-104.8 36.7H827l53.8-199.6zm25.6 160.3c24.6.9 48.7-7.8 66.7-24.4 13.1-13.3 20.4-31.4 20.1-50.1.6-11.8-3.7-23.3-11.7-31.9-9-9-23.5-14.5-46.1-14.5H914l-32.5 120.6h24.7v.4h.2zm170.1-76.3h-18.3l9.9-37.1h18l1.9-8.4c9-34 30-49.1 61.8-49.1 10-.2 20.1 1.3 29.6 4.4l-9.3 35.9c-6-2.2-12.4-3.5-18.9-3.7-10.4-.7-19.6 6.5-21.4 16.7l-1.3 4.4h36.7l-9.9 37.1h-35.9l-31.5 116H1045l31.5-116.2zm60.8 151.8l23.1-31.5c4.8 3.5 10.6 5.7 16.7 5.9 6.8.1 13.2-3.4 16.7-9.3l-18.9-154.2h44.2l7.1 103.9 57.5-103.9h46.6l-94.7 156.7c-20.1 31.2-37.1 43-63.1 43-12.5.6-25.1-3.1-35.2-10.6zm213-188.8h43.2l-2.8 9.9c10.9-9.6 22.9-12.6 40.2-12.6 27.5 0 45.1 16.7 45.1 44.5-.5 9.9-2.2 19.6-5.3 29.1l-22 82.2h-43.2l22.6-84.1c1.2-4.5 1.8-9 1.9-13.6 0-12.4-7.7-18.9-21-18.9-17 0-28.1 12.4-33.1 30.6l-23.1 86h-43.2l40.7-153.1zM620.1 419.4l5.3-20.7c0-.6-.4-1.3-.9-1.3H525c-.6 0-.9-.6-.9-1.3l51.3-190.7c0-.4.6-.6.9-.6h55.4c37.4 0 60.9 10.2 75.5 24.7 14.4 15.1 22.1 35.4 21 56.2 0 11.6-1.9 23-5.6 34-3.1 9.4-7.6 18.3-13.3 26.2-.4.6 0 1.5.6 1.5h73.6c.5 0 .9.2.9.8 0 .4-.1.6-.4.8L591.4 537.8a.85.85 0 0 1-1.3 0c-.2-.2-.4-.6-.2-.8l30.2-117.6z"/></svg>
