<svg xmlns="http://www.w3.org/2000/svg" viewBox="0 0 2000 742.9" fill="currentColor"><path d="M497.5 340.6c-29.5 0-53.4 24.8-53.4 55.4h69.4v176.3c29.5 0 53.4-24.8 53.4-55.4V396H646c29.5 0 53.4-24.8 53.4-55.4H497.5z"/><path d="M633.1 210.6h-78.7c-29.5 0-53.4 23.9-53.4 53.3h132.1c64 0 116.1 52 116.1 115.9 0 49.2-31 91.4-74.5 108.2-24.9 9.6-41.7 32.9-41.7 59.5v1.5c93.7 0 169.6-75.8 169.6-169.2.1-93.5-75.8-169.2-169.5-169.2z" enable-background="new"/><path d="M444.2 396c16.4-25.6 39.5-27.7 79-27.7h129.4c29.5 0 46.9 2.9 46.9-27.7h-202c-29.4 0-53.3 24.8-53.3 55.4z"/><path d="M501.1 266c16.4-25.6 39.5-27.7 79-27.7l38.7.7c18.6.3 48.5 3.9 65.9 10.4l47.1 22-1.6-30.3c-4.4-5-51.5-31.6-97.1-30.5h-78.7c-29.4-.1-53.3 24.8-53.3 55.4z" opacity=".4" enable-background="new"/><path d="M923.1 473.3H901V366h71.4v20.2h-49.3v22.5h47V429h-47v44.3zm83.7-93.1c-2.4 2.4-5.6 3.6-9.4 3.6s-7-1.2-9.4-3.6-3.6-5.5-3.6-9.2 1.2-6.8 3.6-9.2c2.4-2.5 5.6-3.8 9.4-3.8s7 1.3 9.4 3.8c2.4 2.4 3.6 5.5 3.6 9.2.1 3.7-1.1 6.8-3.6 9.2zm-20.1 93.1v-79.1h21.5v79.1h-21.5zm64.3-70.9v70.8h-21.5V366h22.3l47 70.8V366h21.5v107.2H1098l-47-70.8zm103.6 70.9h-23.2l40.5-107.2h23.4l40.5 107.2H1212l-6.5-18.4h-44.3l-6.6 18.4zm28.8-80.1h-.3l-14.9 41.8h30l-14.8-41.8zm84.9 9.2v70.8h-21.5V366h22.3l47 70.8V366h21.5v107.2h-22.3l-47-70.8zm102.3 57.4c-10.2-10.3-15.3-23.7-15.3-40.3s5.1-30.1 15.3-40.3c10.2-10.3 23.2-15.4 38.8-15.4 13.6 0 25.2 3.8 34.7 11.3 9.6 7.6 15.4 17.8 17.4 30.7H1438c-1.6-6.6-5-11.8-10-15.4-5.1-3.7-11.2-5.6-18.5-5.6-9.7 0-17.3 3.1-22.7 9.4-5.4 6.2-8 14.7-8 25.4s2.7 19.1 8 25.4c5.5 6.2 13 9.4 22.7 9.4 7.3 0 13.4-1.8 18.5-5.4 5.1-3.7 8.4-8.9 10-15.6h23.7c-2 12.9-7.8 23.1-17.4 30.7-9.5 7.6-21.1 11.3-34.7 11.3-15.8-.2-28.7-5.3-39-15.6zm185.2-6.8v20.2h-77.5V366h77.5v20.2h-55.3v22.5h53.1V429h-53.1v24h55.3zM941.2 347.4h-38.7V240.2h38.7c17.9 0 31.8 4.9 41.7 14.8 10 9.9 15 22.8 15 38.8s-5 29-15 38.8c-9.9 9.9-23.8 14.8-41.7 14.8zm24.9-29c5.7-5.9 8.5-14.1 8.5-24.6s-2.8-18.6-8.5-24.5c-5.6-5.9-14.1-8.9-25.5-8.9h-15.9v66.8h15.9c11.4 0 19.9-3 25.5-8.8zm140.7-64.7c10.5 10.6 15.8 23.9 15.8 40s-5.3 29.5-15.8 40c-10.5 10.6-23.9 15.9-40.2 15.9s-29.7-5.3-40.2-15.9-15.8-23.9-15.8-40 5.3-29.5 15.8-40c10.5-10.6 23.9-15.9 40.2-15.9 16.3.1 29.7 5.4 40.2 15.9zm-16.7 65.5c6.1-6.4 9.1-14.9 9.1-25.4s-3-18.9-9.1-25.2c-6.1-6.4-13.9-9.7-23.5-9.7s-17.4 3.2-23.5 9.7c-6.1 6.3-9.1 14.8-9.1 25.2 0 10.5 3 18.9 9.1 25.4 6.1 6.3 13.9 9.5 23.5 9.5s17.5-3.2 23.5-9.5zm115.9-79v20.7h-29.6v86.5h-22.1v-86.5h-29.6v-20.7h81.3zm29.7 104.5c-2.7 2.6-6.2 3.9-10.5 3.9-4.2 0-7.7-1.3-10.5-3.9-2.7-2.7-4.1-6.2-4.1-10.4 0-4.1 1.4-7.6 4.1-10.3 2.7-2.8 6.2-4.2 10.5-4.2 4.1 0 7.6 1.4 10.3 4.2 2.8 2.7 4.2 6.1 4.2 10.3.1 4.2-1.3 7.7-4 10.4z"/></svg>
