<svg xmlns="http://www.w3.org/2000/svg" viewBox="0 0 2000 742.9" fill="currentColor"><path d="M318.94 238.5l-.5.29-33.19 19.15-33.15 19.14-.51.29a11.82 11.82 0 0 0-5.66 10.08v168a11.8 11.8 0 0 0 5.66 10.08l.51.29L285.25 485l33.17 19.15a5.39 5.39 0 0 0 .52.3 11.78 11.78 0 0 0 11.25 0l.52-.3 145-83.69c.18-.09.35-.2.52-.3a11.79 11.79 0 0 0 5.61-10.16v-77.14a11.78 11.78 0 0 0-5.59-10l-.59-.34-145-83.69-.52-.3a11.78 11.78 0 0 0-11.25 0zM291 261.29h0L475.85 368h0a3.94 3.94 0 0 1 0 6.92h0L291.07 481.59h0a3.94 3.94 0 0 1-5.79-3.47V264.75a3.93 3.93 0 0 1 3.93-3.93 3.86 3.86 0 0 1 1.79.47zm33.57 85.19v49.94A11.78 11.78 0 0 0 342 406.79l.54-.3 42.71-24.67.5-.29a11.8 11.8 0 0 0 0-20.16l-.53-.3-42.7-24.65-.55-.31a11.78 11.78 0 0 0-17.41 10.37zm1009.77-16.71l-22.25-22.25a8.06 8.06 0 0 0-5.73-2.37h-74.28a8 8 0 0 0-5.72 2.37l-22.26 22.25a8.08 8.08 0 0 0-2.37 5.72v74.29a8.08 8.08 0 0 0 2.37 5.72l22.26 22.26a8.06 8.06 0 0 0 5.72 2.37h74.28a8.1 8.1 0 0 0 5.73-2.37l22.25-22.26a8.08 8.08 0 0 0 2.37-5.72v-74.29a8.08 8.08 0 0 0-2.37-5.72zm-24.63 42.87v36.44a4 4 0 0 1-4 4.05h-72.88a4 4 0 0 1-4-4.05v-72.89a4.05 4.05 0 0 1 4-4.05h72.88a4.05 4.05 0 0 1 4 4.05v36.45zm-305.95 44.54v18.9a4.05 4.05 0 0 1-4 4.05h-46.64a8.08 8.08 0 0 1-5.72-2.37l-22.26-22.26a8.08 8.08 0 0 1-2.37-5.72V268.7a4.06 4.06 0 0 1 4.05-4.05h18.9a4.06 4.06 0 0 1 4 4.05v32.4a4.05 4.05 0 0 0 4.05 4h19.59a8 8 0 0 1 5.72 2.37l20 20a2.66 2.66 0 0 1 .79 1.9 2.7 2.7 0 0 1-2.7 2.7h-43.35a4.05 4.05 0 0 0-4.05 4.05v72.89a4 4 0 0 0 4.05 4.05h45.89a4 4 0 0 1 4.05 4.12zm-101.35-87.41l-22.26-22.25a8 8 0 0 0-5.72-2.37h-74.29a8 8 0 0 0-5.72 2.37l-22.26 22.25a8.08 8.08 0 0 0-2.37 5.72v74.29a8.08 8.08 0 0 0 2.37 5.72l22.26 22.26a8.08 8.08 0 0 0 5.72 2.37h74.29a8.08 8.08 0 0 0 5.72-2.37l22.26-22.26a8.08 8.08 0 0 0 2.37-5.72v-74.29a8.08 8.08 0 0 0-2.37-5.72zm-24.63 42.87v36.44a4 4 0 0 1-4 4.05h-72.94a4 4 0 0 1-4.05-4.05v-72.89a4.05 4.05 0 0 1 4.05-4.05h72.89a4.05 4.05 0 0 1 4 4.05v36.45zM747.75 264.65h-18.9a4.06 4.06 0 0 0-4.05 4.05v32.4a4.05 4.05 0 0 1-4 4h-46.64a8 8 0 0 0-5.72 2.37l-49.25 49.25a8 8 0 0 0-2.37 5.72v47.29a8 8 0 0 0 2.37 5.72l22.25 22.26a8.1 8.1 0 0 0 5.73 2.37h74.28a8.08 8.08 0 0 0 5.72-2.37l22.26-22.26a8.08 8.08 0 0 0 2.37-5.72V268.7a4.06 4.06 0 0 0-4.05-4.05zm-23 144.43a4 4 0 0 1-4 4.05h-72.89a4.05 4.05 0 0 1-4.05-4.05v-72.89a4.06 4.06 0 0 1 4.05-4.05h72.89a4.05 4.05 0 0 1 4 4.05zm456.61-79.31l-22.25-22.25a8.06 8.06 0 0 0-5.73-2.37h-33.09a4.05 4.05 0 0 0-4 4.05v16.42a2.7 2.7 0 0 1-4.6 1.92l-20-20a8.06 8.06 0 0 0-5.73-2.37h-60.08a4 4 0 0 0-4 4.05v126.86a4.05 4.05 0 0 0 4 4.05h18.89a4.05 4.05 0 0 0 4-4.05v-99.89a4.06 4.06 0 0 1 4-4.05h32.4a4.06 4.06 0 0 1 4 4.05v99.89a4.05 4.05 0 0 0 4 4.05h18.89a4.05 4.05 0 0 0 4-4.05v-99.89a4.06 4.06 0 0 1 4-4.05h32.4a4.06 4.06 0 0 1 4 4.05v99.89a4.05 4.05 0 0 0 4 4.05h18.89a4.05 4.05 0 0 0 4-4.05V335.49a8 8 0 0 0-1.99-5.72zm499.37 2.37H1750a4 4 0 0 0 4-4.05V309.2a4 4 0 0 0-4-4.05h-46.59a8 8 0 0 0-5.72 2.37l-41.14 41.14a5.39 5.39 0 0 0 .32 7.94l.26.2 64 51.57a2.7 2.7 0 0 1-1.75 4.76h-69.28a4.05 4.05 0 0 0-4.06 4.05v18.9a4.06 4.06 0 0 0 4.06 4.05h73.58a8.06 8.06 0 0 0 5.72-2.37l22.26-22.26a8.08 8.08 0 0 0 2.37-5.72v-8.52a8.11 8.11 0 0 0-2.93-6.24h-.06l-71.89-57.92-.17-.14a2.69 2.69 0 0 1 1.71-4.78zm-42.11-27h-18.9a4.06 4.06 0 0 0-4 4.05v62.41a8.12 8.12 0 0 1-2.23 5.59l-.28.27-33.78 33.78a5.94 5.94 0 0 1-8.4 0l-33.79-33.78-.27-.27a8.13 8.13 0 0 1-2.24-5.59v-62.41a4.05 4.05 0 0 0-4-4.05h-18.89a4.05 4.05 0 0 0-4 4.05v73.59a8 8 0 0 0 2.37 5.72l49.25 49.25a8 8 0 0 0 5.72 2.37h20.29a8 8 0 0 0 5.72-2.37l49.26-49.25a8.06 8.06 0 0 0 2.37-5.72v-73.59a4.06 4.06 0 0 0-4.2-4.05zm-151.3 24.63l-22.26-22.25a8 8 0 0 0-5.72-2.37h-74.28a8.06 8.06 0 0 0-5.73 2.37l-22.25 22.25a8.08 8.08 0 0 0-2.37 5.72v74.29a8.08 8.08 0 0 0 2.37 5.72l22.25 22.26a8.1 8.1 0 0 0 5.73 2.37h74.28a8.06 8.06 0 0 0 5.72-2.37l22.26-22.26a8.08 8.08 0 0 0 2.37-5.72v-74.29a8.08 8.08 0 0 0-2.37-5.72zm-24.63 42.87v36.44a4 4 0 0 1-4 4.05h-72.89a4.05 4.05 0 0 1-4-4.05v-72.89a4.06 4.06 0 0 1 4-4.05h72.89a4.05 4.05 0 0 1 4 4.05v36.45z"/></svg>
