<svg xmlns="http://www.w3.org/2000/svg" viewBox="0 0 1440 534" fill="currentColor"><path d="M224.42 251.45c12.5 15.25 33.79 25.3 58 25.3a85.05 85.05 0 0 0 13.29-1 9.08 9.08 0 0 0 7.49-6.79 9.21 9.21 0 0 0-3.12-9.67A53 53 0 0 1 280.42 218c0-29.24 23.5-52.95 52.47-52.95 23.16 0 42.79 20.2 49.76 39.18l18.61-8a6.68 6.68 0 0 1 6.56.63 6.8 6.8 0 0 1 3.07 5.89 26.31 26.31 0 0 1-7.76 18.38 6.78 6.78 0 0 1 3.84 1.94 6.89 6.89 0 0 1 1.81 6.59c-1.64 6.7-11.49 11.86-23.41 11.86a38.31 38.31 0 0 1-6.05-.48 53.55 53.55 0 0 1-5.63 6.69 4.57 4.57 0 0 0-1.17 4.31 4.52 4.52 0 0 0 3 3.32C425.34 273 443.84 369 320.86 369c-47.38 0-111.09-21.61-111.09-79.28a57 57 0 0 1 14.65-38.27zm134.68-50.91c3.86 5.41 9 8.32 11.56 6.48s1.43-7.7-2.43-13.11-9-8.32-11.55-6.49-1.44 7.7 2.42 13.12zm134.14 12.9l31.11.17q24.38 0 42.88 17.57 18.5 17.57 18.49 43.22a60.4 60.4 0 0 1-18.07 44 59.23 59.23 0 0 1-43.81 18.33h-30.77q-10.24 0-12.78-4.2-2-3.54-2-10.76v-93.53a48.14 48.14 0 0 1 .25-5.88 13.58 13.58 0 0 1 1.6-4.38c1.55-2.98 5.93-4.54 13.1-4.54zm53 84.5a29.48 29.48 0 0 0 9.76-22.62 30.38 30.38 0 0 0-9.5-22.78 31.07 31.07 0 0 0-22.28-9.17H508v63.56h16.31q12.14 0 21.9-8.99zm90.6 38.59a35.76 35.76 0 0 1-28.17-12.86q-11.17-12.87-11.18-31.37v-29.42a48.44 48.44 0 0 1 .25-5.89 16 16 0 0 1 1.43-4.37q2.36-4.55 13.12-4.54 11.76 0 13.79 6.39 1 2.68 1 8.58v29.42q0 6.9 4 10.76 4 3.86 10.59 3.87a14.7 14.7 0 0 0 10.76-4 14.13 14.13 0 0 0 4.12-10.59v-29.8a48.52 48.52 0 0 1 .25-5.8 13.53 13.53 0 0 1 1.6-4.46q2.19-4.37 12.95-4.37 10.59 0 12.94 4.54a15.48 15.48 0 0 1 1.43 4.46 48.52 48.52 0 0 1 .25 5.8v59.52a46.72 46.72 0 0 1-.25 5.64 11.91 11.91 0 0 1-1.6 4.28q-2.51 4.38-12.94 4.38-10.26 0-12.61-4a13.28 13.28 0 0 1-1.69-6.89 16.94 16.94 0 0 1-3 3.36 41.83 41.83 0 0 1-4.54 3.7 22.51 22.51 0 0 1-12.5 3.66zM728 292.56q0 7.14 4.71 11.09a15.3 15.3 0 0 0 10 4 17.47 17.47 0 0 0 9.92-3.11q4.64-3.12 7.48-3.12 5.05 0 12.28 8.91 3.87 4.89 3.87 8.75 0 6.39-9.25 11.94-9.59 6.72-23.54 6.72-15.65 0-30.1-11.26a40.09 40.09 0 0 1-11.27-14.38 44.82 44.82 0 0 1-4.37-19.84 43.82 43.82 0 0 1 4.37-19.68 40.38 40.38 0 0 1 11.27-14.2q13.95-11.1 29.76-11.1a44.41 44.41 0 0 1 12.41 1.72 41.88 41.88 0 0 1 8.92 3.45l2.69 1.68q3 2 4.7 3.2 4.38 3.36 4.38 7.65 0 4.29-3.54 9.67-6 9.24-11.6 9.25-3.2 0-9.08-3.71c-2-1.9-4.9-2.85-8.66-2.85a16.18 16.18 0 0 0-10.51 4c-3.24 2.73-4.84 6.45-4.84 11.22zm112.13-.09L862.49 311a26.37 26.37 0 0 1 5.3 5.38 7 7 0 0 1 1.09 3.53q0 4-5.21 10.93-5.73 7.06-10.09 7.06-3.71 0-10.26-4.87l-1.68-1.18q-3.87-3.19-11.94-11.18-8.07-7.99-12.27-11.35v12.94a47.83 47.83 0 0 1-.26 5.8 13.33 13.33 0 0 1-1.59 4.46q-2.19 4.38-13 4.37-10.59 0-13-4.54a15.74 15.74 0 0 1-1.43-4.45 48.6 48.6 0 0 1-.25-5.81V221.35a48.52 48.52 0 0 1 .25-5.8 15.8 15.8 0 0 1 1.43-4.46q2.36-4.54 13.12-4.54 8.07 0 11.43 2.86 2.87 2.35 3 7.4c.11 1 .17 2.58.17 4.71v53.3q3-2.52 9.16-8.58 6.16-6.06 9.17-8.57l2-1.35q5.88-4.55 10.09-4.54 4.21.01 9.67 6.81 5.61 6.81 5.61 10.68 0 3.87-6.23 9.08zm53.8-79.03l31.11.17q24.38 0 42.88 17.57 18.5 17.57 18.49 43.22a60.36 60.36 0 0 1-18.07 44 59.2 59.2 0 0 1-43.8 18.33h-30.77q-10.26 0-12.78-4.2-2-3.54-2-10.76v-93.53a48.14 48.14 0 0 1 .25-5.88 13.58 13.58 0 0 1 1.6-4.38q2.34-4.54 13.09-4.54zm53 84.5a29.48 29.48 0 0 0 9.75-22.62 30.34 30.34 0 0 0-9.5-22.78 31.06 31.06 0 0 0-22.28-9.17h-16.17v63.56H925q12.15 0 21.9-8.99zm113.97-75.58l45.4 93.82q2.87 5.71 2.86 8.58 0 6-9.75 10.93c-3.81 1.9-6.81 2.86-9 2.86A9 9 0 0 1 1085 337a10.12 10.12 0 0 1-3-3.19q-.91-1.68-2.6-5l-8.74-18.16h-46.58l-8.75 18.16-2.6 4.88a12 12 0 0 1-3 3.11 8.64 8.64 0 0 1-5.38 1.6c-2.19 0-5.19-1-9-2.86q-9.75-4.71-9.75-10.76 0-2.86 2.86-8.58l45.4-94a14.66 14.66 0 0 1 5.63-6.22 14.87 14.87 0 0 1 8-2.36q9.04-.01 13.41 8.74zm-13.62 40.35l-11.1 23h22.37zm121.41-50.61q24.88 0 43.21 18 18.33 18 18.33 44.64 0 26.65-17.49 45.4-17.49 18.75-43 18.75-25.55 0-43.46-18.5-17.91-18.5-17.91-44.05a67.58 67.58 0 0 1 5-26.15 60.54 60.54 0 0 1 13.45-20.43 63 63 0 0 1 19.34-12.95 56.5 56.5 0 0 1 22.53-4.71zm-30.61 63.39q0 15 9.67 24.29 9.67 9.29 21.61 9.34 11.94 0 21.52-9.08 9.58-9.08 9.59-24.38 0-15.3-9.67-24.55-9.67-9.25-21.61-9.25-11.94 0-21.52 9.33-9.58 9.33-9.59 24.3z"/></svg>
