<svg xmlns="http://www.w3.org/2000/svg" viewBox="0 0 2000 742.9"><style><![CDATA[.K{stroke:currentColor}.L{stroke-miterlimit:10}]]></style><defs><clipPath id="A"><path d="M289.95 310.34h263.9v138h-263.9z" fill="none"/></clipPath><clipPath id="B"><path d="M289.95 151.44h132v296.9h-132z" fill="none"/></clipPath><clipPath id="C"><path d="M421.95 151.44h132v296.9h-132z" fill="none"/></clipPath><clipPath id="D"><path d="M289.95 395.44h132v185.9h-132z" fill="none"/></clipPath><clipPath id="E"><path d="M421.95 395.44h132v185.9h-132z" fill="none"/></clipPath></defs><path d="M789.85,404.44a4.1,4.1,0,0,1-4.1,4h-79c2,19.5,16.7,37.3,37.3,37.3,14.1,0,24.6-5.4,32.5-16.7a3.92,3.92,0,0,1,5-1.6,3.69,3.69,0,0,1,2.2,2.9,4.22,4.22,0,0,1-.5,2.7c-7.9,13.9-23.8,20.6-39.3,20.6-26.6,0-45.5-23.8-45.5-49.2s18.9-49.2,45.5-49.2,45.8,23.8,45.9,49.2m-8.5-3.8c-1.7-19.5-16.7-37.3-37.3-37.3s-35.3,17.8-37.3,37.3Zm104.3-43.3a4,4,0,0,1,3.9,3.9,3.78,3.78,0,0,1-3.9,3.9h-21.2v83.1a3.9,3.9,0,1,1-7.8,0v-83.1h-20.3a3.78,3.78,0,0,1-3.9-3.9,4,4,0,0,1,3.9-3.9h20.3v-30.4a4,4,0,0,1,3.2-4,3.92,3.92,0,0,1,4.7,3.9v30.5Zm129.1,40.2v50.3a4,4,0,0,1-3.9,3.9,3.78,3.78,0,0,1-3.9-3.9v-50.3c0-17-9.6-33.9-28.5-33.9-24.3,0-34.8,21.2-33.4,43,0,.6.3,3.1.3,3.4v37.8a4,4,0,0,1-3.2,4,3.92,3.92,0,0,1-4.7-3.9V282.44a3.9,3.9,0,1,1,7.8,0v93.5c6.8-12.1,18.9-20.3,33-20.3,23.2,0,36.5,20.4,36.5,41.9m141.6,6.9a4.1,4.1,0,0,1-4.1,4h-79c2,19.5,16.7,37.3,37.3,37.3,14.1,0,24.6-5.4,32.5-16.7a3.92,3.92,0,0,1,5-1.6,3.69,3.69,0,0,1,2.2,2.9,4.22,4.22,0,0,1-.5,2.7c-7.9,13.9-23.8,20.6-39.3,20.6-26.6,0-45.5-23.8-45.5-49.2s18.9-49.2,45.5-49.2,45.8,23.8,45.9,49.2m-8.6-3.8c-1.7-19.5-16.7-37.3-37.3-37.3s-35.3,17.8-37.3,37.3Zm105.5-39.6a4,4,0,0,1-3.7,4.3c-23.2,3.4-33.6,22.3-33.6,44.4v37.8a4,4,0,0,1-3.2,4,3.92,3.92,0,0,1-4.7-3.9v-86.1a4,4,0,0,1,3.2-4,3.92,3.92,0,0,1,4.7,3.9v17.5c6.5-11,19.5-21.5,33-21.5,2-.1,4.3,1.4,4.3,3.6m129.6,43.4a4.1,4.1,0,0,1-4.1,4h-79c2,19.5,16.7,37.3,37.3,37.3,14.1,0,24.6-5.4,32.5-16.7a3.92,3.92,0,0,1,5-1.6,3.69,3.69,0,0,1,2.2,2.9,4.22,4.22,0,0,1-.5,2.7c-7.9,13.9-23.8,20.6-39.3,20.6-26.6,0-45.5-23.8-45.5-49.2s18.9-49.2,45.5-49.2,45.9,23.8,45.9,49.2m-8.4-3.8c-1.7-19.5-16.7-37.3-37.3-37.3s-35.3,17.8-37.3,37.3Zm135.9-38.6v86.3a4,4,0,0,1-3.9,3.9,3.78,3.78,0,0,1-3.9-3.9v-16.4c-6.5,13-18.1,22.3-32.8,22.3-23.4,0-36.5-20.3-36.5-41.8v-50.6a3.9,3.9,0,1,1,7.8,0v50.6c0,17,9.6,33.9,28.5,33.9,26.6,0,32.8-24.8,32.8-52.3v-32.2a4,4,0,0,1,5.1-3.8,4.08,4.08,0,0,1,2.9,4m199.7,35.1v50.6a4,4,0,0,1-3.9,3.9,3.78,3.78,0,0,1-3.9-3.9v-50.6c0-17-9.6-33.6-28.5-33.6-23.8,0-32.8,25.4-32.8,45.2v39a4,4,0,0,1-3.9,3.9,3.78,3.78,0,0,1-3.9-3.9v-50.6c0-17-9.6-33.6-28.5-33.6-24,0-33.9,18.9-33,44.1,0,.6.3,1.7,0,2v38a4,4,0,0,1-3.2,4,3.92,3.92,0,0,1-4.7-3.9v-86.3a4,4,0,0,1,3.2-4,3.92,3.92,0,0,1,4.7,3.9v14.4c6.8-12.1,18.9-20.1,33-20.1,16.1,0,28.5,10.2,33.6,25.2,6.5-14.7,19.2-25.2,35.6-25.2,22.9,0,36.2,20.1,36.2,41.5" fill="currentColor" stroke-width="10" class="K L"/><g clip-path="url(#A)" opacity=".6"><path d="M422,310.34l-132,60,132,78,131.9-78Z" fill="currentColor"/></g><g clip-path="url(#B)" class="K L"><path d="M290,370.34l132,78V151.44Z" fill="currentColor"/></g><g clip-path="url(#C)" class="K L"><path d="M422,151.44v296.9l131.9-78Z" fill="currentColor"/></g><g clip-path="url(#D)" class="K L"><path d="M290,395.44l132,185.9v-108Z" fill="currentColor"/></g><g clip-path="url(#E)" class="K L"><path d="M422,473.34v108l132-185.9Z" fill="currentColor"/></g></svg>
