<svg xmlns="http://www.w3.org/2000/svg" viewBox="0 0 1440 534" fill="currentColor"><path d="M317.6 141.7c6.2-3.3 15.7-3.3 21.9 0l63.4 33.3c3.7 2 5.8 4.9 6.2 7.9h.1v167.4c-.1 3.3-2.2 6.6-6.2 8.7l-63.4 33.3c-6.2 3.3-15.7 3.3-21.9 0L254.2 359c-4.1-2.1-6-5.4-6.1-8.7v-.8V184v-.5-.5h0c.3-3.1 2.2-5.9 6.1-7.9l63.4-33.4zm81.5 134.6l-59.6 31.3c-6.2 3.3-15.7 3.3-21.9 0l-59.5-31.3V350l59.5 31.1c3.4 1.8 6.8 3.5 10.3 3.8h.7c3.6 0 7-1.8 10.5-3.5l60.1-31.7v-73.4zm-161.3 70.4c0 6.4.7 10.6 2.2 13.6 1.2 2.5 3.1 4.3 6.5 6.6l.2.1c.7.5 1.6 1 2.6 1.6l1.2.7 3.6 2.2-5.2 8.5-4-2.4-.7-.4c-1.2-.7-2.1-1.3-3-1.9-9.6-6.5-13.2-13.5-13.3-28.1v-.4h9.9zm85.7-115.3c-.5.2-.9.3-1.3.5l-63.4 33.3c-.1 0-.1.1-.2.1h-.1l.1.1.1.1 63.4 33.3c.4.2.8.4 1.3.5v-67.9zm10 0v68c.5-.2.9-.3 1.3-.5l63.4-33.3c.1 0 .1-.1.2-.1h.1l-.1-.1-.1-.1-63.5-33.3c-.4-.2-.8-.4-1.3-.6zm65.6-36.6l-56.9 29.9 56.9 29.9v-59.8zm-141 0v59.6l56.7-29.8-56.7-29.8zm76.7-44.4c-3.3-1.7-9.3-1.7-12.6 0l-63.4 33.3c-.1 0-.1.1-.2.1h-.1l.1.1.1.1 63.4 33.3c3.3 1.7 9.3 1.7 12.6 0l63.4-33.3c.1 0 .1-.1.2-.1h.1l-.1-.1-.1-.1-63.4-33.3zm73.7 3.7l4 2.4.7.4c1.2.7 2.1 1.3 3 1.9 9.6 6.5 13.2 13.5 13.3 28.1v.4h-10c0-6.4-.7-10.6-2.2-13.6-1.2-2.5-3.1-4.3-6.5-6.6l-.2-.1c-.7-.5-1.6-1-2.6-1.6l-1.2-.7-3.6-2.2 5.3-8.4zm122.3 189.2V250h25.9v-17.1h-25.9v-12.3c0-13.9 6.1-20.8 18.2-20.8 3.5 0 7.2.6 11.2 1.8v-18.2c-4.8-1.5-10.2-2.2-16-2.2-11.3 0-20 3.2-26.2 9.6s-9.3 15.8-9.3 28.1v14h-21.3V250h21.3v93.4h22.1zm90 1.6c8.5 0 15.9-1.8 22.3-5.3s11.2-8.5 14.4-15.1v18.8h21.9V232.9h-21.9v18c-3.4-6.6-8.2-11.7-14.5-15.2-6.3-3.6-13.7-5.4-22.2-5.4-9.5 0-18 2.4-25.5 7.2s-13.3 11.6-17.4 20.4c-4.2 8.8-6.3 18.8-6.3 30.2s2 21.4 6.1 29.9 9.8 15.2 17.2 19.8c7.5 4.7 16.1 7.1 25.9 7.1zm5.3-17.6c-10.1 0-18-3.4-23.6-10.3s-8.4-16.5-8.4-28.9c0-12.6 2.8-22.4 8.4-29.5s13.4-10.6 23.4-10.6c10.1 0 17.9 3.4 23.4 10.3s8.2 16.7 8.2 29.4c0 12.6-2.7 22.3-8.2 29.3-5.6 6.9-13.3 10.3-23.2 10.3zm107.7 16v-62.9c0-9.8 2.8-17.6 8.4-23.5 5.6-5.8 13.1-8.8 22.5-8.8 8.2 0 14.2 2.2 17.9 6.6s5.6 11.4 5.6 21v67.5h22.2v-68.8c0-29.5-13.2-44.3-39.7-44.3-8.5 0-16.1 1.9-22.7 5.6-6.7 3.7-11.7 9.1-15.2 16.1l-2-19.1h-20.6c1.2 9.2 1.8 19.6 1.8 31.1v79.3h21.8zm150.8 1.6c6.1 0 11.6-.8 16.5-2.4v-18c-4 1.2-7.8 1.8-11.6 1.8-5.9 0-10.4-1.6-13.7-4.7s-4.9-8.5-4.9-16.1V250h30.5v-17.1h-30.5v-35.3l-22.2 7.7v27.6h-21.5V250h21.5v57.2c0 12.3 3.1 21.6 9.4 28.1 6.2 6.4 15 9.6 26.5 9.6zm84.7 0c10.7 0 20.1-2.3 28.3-7s14.5-11.3 19-19.9 6.7-18.7 6.7-30.2-2.2-21.7-6.7-30.4-10.8-15.4-19-20.1-17.6-7-28.3-7c-10.8 0-20.3 2.3-28.5 7s-14.5 11.4-19 20.1-6.7 18.8-6.7 30.4 2.2 21.6 6.7 30.2 10.8 15.3 19 19.9c8.1 4.6 17.6 7 28.5 7zm-.3-17.6c-10.1 0-17.9-3.4-23.4-10.1s-8.2-16.6-8.2-29.6c0-12.7 2.8-22.5 8.3-29.4 5.6-6.9 13.4-10.3 23.5-10.3 9.9 0 17.7 3.4 23.1 10.3 5.5 6.9 8.2 16.7 8.2 29.4 0 13-2.7 22.9-8.1 29.6-5.3 6.8-13.1 10.1-23.4 10.1zm102.1 16v-62.5c0-10.1 2.5-18 7.5-23.9 5-5.8 11.7-8.8 20.2-8.8 7.3 0 12.6 2.2 15.9 6.6s4.9 11.3 4.9 20.8v67.7h22.2v-62.5c0-10.1 2.4-18 7.4-23.9 4.9-5.8 11.6-8.8 20.1-8.8 7.3 0 12.6 2.2 15.9 6.6s4.9 11.3 4.9 20.8v67.7h22.2v-68.8c0-29.5-12.3-44.3-36.9-44.3-8.2 0-15.5 1.9-22.1 5.7-6.5 3.8-11.4 9-14.8 15.6-5.3-14.2-16.5-21.3-33.6-21.3-8 0-15.1 1.8-21.1 5.5s-10.6 8.8-13.8 15.6l-2-18.4h-20.6c1.2 9.2 1.8 19.6 1.8 31.1v79.3h21.9z"/></svg>
