<svg xmlns="http://www.w3.org/2000/svg" viewBox="0 0 2000 742.9" fill="currentColor"><path d="M430.2 260.2l94.5-47.1 13.9-6.8c.6-.3 1.4-.5 1.5-1.3-.1-.1-.1-.2-.1-.3s-.1-.2-.2-.2l-.2-.2c-.2-.1-.5-.3-.7-.4l-47.6-23.8h-.3-.4l-63.9 31.7-64.2 32-63.9 31.8v189.6c0 .5 0 .9.1 1.4 0 .1.1.2.1.3s.1.2.1.2c3.6 2.1 23.1 11.8 25.1 12.4l24.8-12.4V300.8c1.1-.6 2.1-1.1 3-1.5l78.4-39.1zm191.7-15.1l-45-22.4c-.3-.2-.7-.3-1-.5-1-.5-1.9-.6-2.9 0-.3.2-.7.3-1 .5l-33.6 16.7-92 45.9-62.3 31-2.1 1.2v49.4c0 .1 0 .2.1.2 0 .1.1.1.4.2l241.9-120.6c-1.1-.8-1.8-1.2-2.5-1.6zm61.1 30.5c-.3-.2-.6-.4-.9-.5l-21.4-10.6c-1-.5-2-.8-2.9-1.2L633 275.8v3.4V439v1.9c0 .8-.3 1.4-1 1.7a22.56 22.56 0 0 0-2.2 1.1l-138.7 69.1-48.1 24c-.7.3-1.6.4-1.9 1.4.5.3 1 .5 1.4.7l47.4 23.5c.4.2.8.3 1.2.5L683 467.2c.3-2.4.3-189 0-191.6zm-85.6 151c2.3-1.2 2.1-.9 2.1-3.5v-13.6-30.8c0-.9.3-1.8-.3-2.6-1.1-.2-1.9.5-2.8.9l-133.6 66.5-96.1 48-9 4.5c.4 1 1.3 1.1 2 1.4l26.2 13.1 19.4 9.7c1.3.7 2.4.7 3.8 0l10.2-5 159.6-79.5 18.5-9.1zm-105.6-30.5l83.8-41.8 22.4-11.1c1.1-.5 1.6-1.1 1.6-2.5v-46.5a4.3 4.3 0 0 0-.2-1.2c-.2 0-.3-.1-.4-.1h-.3l-145.6 72.3-70.4 35.1c-.1 0-.1.1-.2.2s-.1.1-.2.3v49.8l2.4-1.1 107.1-53.4zm292.6-148.2h67.3c1.4 0 2.5.3 3.2.9s1 1.6 1 3.1v13.6c0 1.4-.3 2.5-.9 3.1s-1.7.9-3.2.9h-45.9c-.8 0-1.3.2-1.7.5-.3.3-.5.9-.5 1.7v24.4c0 .8.2 1.3.5 1.7.3.3.9.5 1.7.5H846c1.5 0 2.6.3 3.2.9s.9 1.7.9 3.2v13.5c0 1.4-.3 2.5-1 3.1s-1.7.9-3.2.9h-40.2c-.8 0-1.3.2-1.7.5-.3.3-.5.9-.5 1.7v38.2c0 1.4-.3 2.5-1 3.1s-1.7.9-3.2.9h-15.1c-1.4 0-2.5-.3-3.1-.9s-.9-1.6-.9-3.1V251.8c0-1.4.3-2.5.9-3.1.8-.5 1.8-.8 3.3-.8zm147.6 0h66.6c1.4 0 2.5.3 3.2.9s1 1.6 1 3.1v13.6c0 1.4-.3 2.5-1 3.1s-1.7.9-3.2.9h-45.2c-.8 0-1.3.2-1.7.5-.3.3-.5.9-.5 1.7v21.1c0 .8.2 1.3.5 1.7.3.3.9.5 1.7.5H993c1.4 0 2.5.3 3.2 1s1 1.7 1 3.2v13.5c0 1.4-.3 2.5-1 3.1s-1.7.9-3.2.9h-39.6c-.8 0-1.3.1-1.7.4-.3.3-.5.9-.5 1.7v21.8c0 .8.2 1.3.5 1.7.3.3.9.5 1.7.5h45.4c1.4 0 2.5.3 3.2.9s1 1.6 1 3.1v13.6c0 1.4-.3 2.5-1 3.1s-1.7.9-3.2.9H932c-1.4 0-2.5-.3-3.1-.9s-.9-1.6-.9-3.1V251.8c0-1.4.3-2.5.9-3.1.6-.5 1.6-.8 3.1-.8zm149.7 0h37.1c16 0 27.9 3.1 35.9 9.4s12 15.5 12 27.7c0 8.2-1.9 15-5.6 20.5-3.8 5.5-9 9.7-15.6 12.5l27.1 41.1c.8 1.1 1.2 2.1 1.2 3 0 1.4-1.2 2.2-3.7 2.2h-16.6c-2.1 0-3.7-.3-4.9-1s-2.4-1.9-3.6-3.7l-21.3-33.6c-.6-.9-1.1-1.5-1.7-1.8s-1.5-.5-2.6-.5h-16.1c-.9 0-1.5.2-1.7.5-.3.3-.4.9-.4 1.8v34.2c0 1.4-.3 2.5-1 3.1s-1.7.9-3.2.9h-15.1c-1.4 0-2.5-.3-3.1-.9s-.9-1.6-.9-3.1V251.8c0-1.4.3-2.5.9-3.1.4-.5 1.4-.8 2.9-.8zm60.8 38.2c0-5.9-2.1-10.1-6.2-12.7-4.2-2.6-10.3-3.9-18.5-3.9h-14.6c-.8 0-1.3.2-1.7.5-.3.3-.5.9-.5 1.7v29.1c0 .9.1 1.5.4 1.8s.9.5 1.7.5h15.1c8.2 0 14.3-1.4 18.3-4.2s6-7.1 6-12.8zm102.7-38.2h37.1c16 0 27.9 3.1 35.9 9.4s12 15.5 12 27.7c0 8.2-1.9 15-5.6 20.5-3.8 5.5-9 9.7-15.6 12.5l27 41c.8 1.1 1.2 2.1 1.2 3 0 1.4-1.2 2.2-3.7 2.2h-16.6c-2.1 0-3.7-.3-4.9-1s-2.4-1.9-3.6-3.7l-21.3-33.6c-.6-.9-1.1-1.5-1.7-1.8s-1.5-.5-2.6-.5h-16.1c-.9 0-1.5.2-1.7.5-.3.3-.4.9-.4 1.8v34.2c0 1.4-.3 2.5-1 3.1s-1.7.9-3.2.9h-15.1c-1.4 0-2.5-.3-3.1-.9s-.9-1.6-.9-3.1V251.8c0-1.4.3-2.5.9-3.1.6-.5 1.6-.8 3-.8zm60.8 38.2c0-5.9-2.1-10.1-6.2-12.7-4.2-2.6-10.3-3.9-18.5-3.9h-14.6c-.8 0-1.3.2-1.7.5-.3.3-.5.9-.5 1.7v29.1c0 .9.1 1.5.4 1.8s.9.5 1.7.5h15.1c8.2 0 14.3-1.4 18.3-4.2s6-7.1 6-12.8zm101.9-38.2h15.1c1.4 0 2.5.3 3.2.9s1 1.6 1 3.1V313c0 10.1 2.3 17.9 6.9 23.3 4.6 5.5 11.3 8.2 20.2 8.2 8.8 0 15.5-2.7 20.2-8.2s7.1-13.2 7.1-23.2v-61.3c0-1.4.3-2.5.9-3.1s1.6-.9 3.1-.9h15.1c1.4 0 2.5.3 3.2.9s1 1.6 1 3.1v62.5c0 11.3-2.2 20.8-6.6 28.6s-10.4 13.6-18.1 17.5-16.6 5.8-26.7 5.8c-9.9 0-18.5-1.9-25.9-5.6-7.4-3.8-13.2-9.5-17.4-17.1s-6.2-17.2-6.2-28.8v-62.8c0-1.4.3-2.5.9-3.1.5-.6 1.6-.9 3-.9zm179.8-1.7c1 0 2 .4 3 1.1s2.3 2 3.8 3.9l47.2 53.5 46.7-53.5 4-3.9c.9-.7 1.8-1.1 2.8-1.1 1.3 0 2.3.5 2.8 1.5.6 1 .8 2.5.8 4.5v108c0 1.4-.3 2.5-.9 3.1s-1.6.9-3.1.9h-15.1c-1.4 0-2.5-.3-3.2-.9s-1-1.6-1-3.1v-62.7l-28.1 33.4c-1.6 1.8-2.7 3-3.6 3.6-.8.6-1.7.9-2.6.9-.8 0-1.6-.3-2.5-.9s-2.1-1.8-3.5-3.6l-28.1-33.4v62.7c0 1.4-.3 2.5-1 3.1s-1.7.9-3.2.9h-15.1c-1.4 0-2.5-.3-3.1-.9s-.9-1.6-.9-3.1v-108c.3-4 1.5-6 3.9-6zM781 399.1c.8 0 1.7.3 2.6.9s2.2 1.7 3.8 3.4l51.2 54.1v-53.6c0-1.2.2-2 .7-2.5s1.3-.7 2.5-.7H854c1.2 0 2 .2 2.6.7.5.5.8 1.3.8 2.5v87.5c0 1.6-.2 2.8-.7 3.6s-1.3 1.2-2.3 1.2c-.8 0-1.7-.3-2.6-.9s-2.1-1.7-3.8-3.4l-51.2-54.1v53.6c0 1.2-.3 2-.8 2.5s-1.4.7-2.6.7h-12.2c-1.2 0-2-.2-2.5-.7s-.7-1.3-.7-2.5v-87.5c0-3.2 1-4.8 3-4.8zm144.3 1.6h53.8c1.2 0 2 .2 2.6.7.5.5.8 1.3.8 2.5v11c0 1.2-.3 2-.8 2.5s-1.4.7-2.6.7h-36.5c-.6 0-1.1.1-1.3.4-.3.3-.4.7-.4 1.3V437c0 .6.1 1.1.4 1.3.3.3.7.4 1.3.4h32c1.2 0 2 .3 2.6.8s.8 1.4.8 2.6V453c0 1.2-.3 2-.8 2.5s-1.4.7-2.6.7h-32c-.6 0-1.1.1-1.3.3-.3.2-.4.7-.4 1.4v17.6c0 .6.1 1.1.4 1.3.3.3.7.4 1.3.4h36.7c1.2 0 2 .2 2.6.7.5.5.8 1.3.8 2.5v11c0 1.2-.3 2-.8 2.5s-1.4.7-2.6.7h-54c-1.2 0-2-.2-2.5-.7s-.7-1.3-.7-2.5v-87.5c0-1.2.2-2 .7-2.5s1.4-.7 2.5-.7zm135.2 17.5h-23.1c-1.2 0-2-.2-2.5-.7s-.7-1.3-.7-2.5v-11c0-1.2.2-2 .7-2.5s1.3-.7 2.5-.7h68.6c1.2 0 2 .2 2.5.7s.7 1.3.7 2.5v11c0 1.2-.2 2-.7 2.5s-1.3.7-2.5.7h-23c-.6 0-1.1.1-1.3.4-.3.3-.4.7-.4 1.3v71.6c0 1.2-.3 2-.8 2.5s-1.4.7-2.6.7h-12.2c-1.2 0-2-.2-2.5-.7s-.7-1.3-.7-2.5v-71.6c0-.6-.2-1.1-.5-1.3-.4-.3-.8-.4-1.5-.4zm94.3-15.5c0-1.3 1-2 3.1-2h12.6c1.5 0 2.6.2 3.2.7s1.3 1.6 2 3.3l19.6 51.8 19.2-48.3c1-2.3 1.8-3.9 2.5-4.7s1.5-1.2 2.5-1.2 1.8.4 2.5 1.2 1.5 2.4 2.3 4.7l19.2 47.9 19.5-51.4c.6-1.7 1.3-2.8 1.9-3.3.7-.5 1.8-.7 3.4-.7h12.4c2.1 0 3.1.7 3.1 2 0 .7-.2 1.4-.5 2.1l-33.6 84.7c-1.1 2.9-2 4.8-2.7 5.7s-1.6 1.4-2.6 1.4c-.9 0-1.7-.4-2.3-1.3-.7-.9-1.5-2.7-2.6-5.4l-20.1-49.7-20.1 49.7c-1 2.6-1.8 4.4-2.6 5.3-.7.9-1.5 1.4-2.4 1.4-1 0-1.8-.5-2.6-1.4-.7-.9-1.7-2.8-2.8-5.7l-33.6-84.7c-.3-.7-.5-1.4-.5-2.1zm227.3-3.6c9.4 0 17.9 2.1 25.4 6.2 7.5 4.2 13.4 9.9 17.7 17.3s6.4 15.7 6.4 24.9c0 9.3-2.1 17.7-6.4 25.1s-10.2 13.2-17.8 17.4-16.1 6.2-25.6 6.2c-9.3 0-17.7-2.1-25.2-6.2s-13.3-9.8-17.6-17.2c-4.3-7.3-6.4-15.6-6.4-24.8 0-9.3 2.1-17.7 6.4-25.2s10.2-13.3 17.7-17.5c7.6-4.1 16-6.2 25.4-6.2zm30 48.7c0-6.1-1.3-11.5-4-16.3a27.73 27.73 0 0 0-10.9-11.1c-4.6-2.6-9.7-3.9-15.2-3.9-5.6 0-10.7 1.3-15.2 4-4.5 2.6-8.1 6.3-10.7 11.1-2.6 4.7-4 10.2-4 16.2s1.3 11.3 3.9 16 6.2 8.4 10.7 11 9.6 4 15.2 4c5.5 0 10.6-1.3 15.2-4a27.73 27.73 0 0 0 10.9-11.1c2.7-4.6 4.1-10 4.1-15.9zm82-47.1h29.9c12.9 0 22.6 2.5 29 7.6s9.7 12.5 9.7 22.4c0 6.6-1.5 12.2-4.6 16.6-3 4.4-7.3 7.8-12.6 10.1l21.9 33.2c.6.9.9 1.7.9 2.4 0 1.2-1 1.7-3 1.7H1552c-1.7 0-3-.3-4-.8-.9-.5-1.9-1.5-2.9-3l-17.2-27.1c-.4-.7-.9-1.2-1.4-1.5s-1.2-.4-2.1-.4h-13c-.7 0-1.2.1-1.4.4s-.3.8-.3 1.5v27.7c0 1.2-.3 2-.8 2.5s-1.4.7-2.6.7h-12.2c-1.2 0-2-.2-2.5-.7s-.7-1.3-.7-2.5V404c0-1.2.2-2 .7-2.5.5-.6 1.3-.8 2.5-.8zm49.1 30.9c0-4.7-1.7-8.2-5-10.3-3.4-2.1-8.3-3.2-15-3.2h-11.8c-.6 0-1.1.1-1.3.4-.3.3-.4.7-.4 1.3v23.5c0 .7.1 1.2.3 1.5s.7.4 1.4.4h12.2c6.6 0 11.5-1.1 14.8-3.4 3.2-2.1 4.8-5.6 4.8-10.2zm83-30.9h12.2c1.2 0 2 .2 2.6.7.5.5.8 1.3.8 2.5v87.5c0 1.2-.3 2-.8 2.5s-1.4.7-2.6.7h-12.2c-1.2 0-2-.2-2.5-.7s-.7-1.3-.7-2.5v-87.5c0-1.2.2-2 .7-2.5s1.3-.7 2.5-.7zm18.4 46.6c0-.8.4-1.8 1.3-3l30.9-40.1c1-1.4 1.9-2.4 2.7-2.8s2-.7 3.6-.7h14.2c1.8 0 2.7.5 2.7 1.6 0 .6-.3 1.3-.9 2l-33.6 42.3 34.8 44.3c.6.9.9 1.6.9 2.1 0 1.1-.9 1.6-2.8 1.6h-14.8c-1.6 0-2.8-.2-3.7-.7-.9-.4-1.8-1.3-2.8-2.7l-31.4-41.2c-.7-1-1.1-1.9-1.1-2.7z"/></svg>
