<svg xmlns="http://www.w3.org/2000/svg" viewBox="0 0 2000 742.9" fill="currentColor"><path d="M1383.26 465.15a12.6 12.6 0 0 1 12.36-12.85h.49a12.85 12.85 0 0 1 0 25.7 12.61 12.61 0 0 1-12.85-12.36zm283.53-187.43a12.85 12.85 0 1 1 12.85 12.85 12.85 12.85 0 0 1-12.85-12.85zM625.54 319.79v7.33h44v14.66h-44v132.94h-15.1V341.87H585v-14.65h25.41v-7.33c0-36.45 20.42-57.41 59.12-54.43v14.36c-30.12-2.59-43.99 11.29-43.99 39.97zm218.11 81.74l-.3 7.09H709.62c3.52 33.37 28.93 55.21 62.59 55.21 24.43 0 42.51-11.24 51.06-26.88l13 7.68C824.15 464.71 801.14 478 771.92 478c-45.49 0-77.69-32.49-77.69-77.06 0-43.43 31.32-77.15 76.52-77.15s72.9 37.29 72.9 77.74zm-134-7.38h118.66c-3.23-36.06-28.64-56.15-57.56-56.15a59.53 59.53 0 0 0-61.13 56.15zm217.5-52.28v97.28c0 26 13.88 26.58 44 23.9v13.29c-38.69 5.91-59.07-3.52-59.07-37.19v-97.28h-32.47v-14.65h32.44v-46.86l15.1-15.2v62h44v14.66zm82.28 59.07a75.59 75.59 0 0 1 74-77.16h3.66c28.92 0 53.74 14.66 64.4 37.82l-12.12 7.09c-8.6-18.62-28.68-30.74-52.28-30.74a61.77 61.77 0 0 0-62.6 60.92v2a61.76 61.76 0 0 0 60.62 62.87h2a59 59 0 0 0 53.16-30.73l12.56 7.42a72.58 72.58 0 0 1-65.61 37.57 75.59 75.59 0 0 1-77.77-73.34c-.04-1.24-.04-2.48-.02-3.72zm322.33-18.02v91.8h-15v-91.8c0-27.17-15.68-44.91-43.44-44.91-28.92 0-51.64 18.91-51.64 58.64v78.17H1207V280.36l14.66-15.2v90c11.19-21.59 30.1-31.37 52.87-31.37 35.1 0 57.23 23.41 57.23 59.13zm273.24-55.8v147.6h-15V441.4a71 71 0 0 1-63.52 36.6 76.22 76.22 0 0 1-76.48-76v-1.08a76.28 76.28 0 0 1 75.39-77.14h1.13a70.93 70.93 0 0 1 63.48 36.66v-33.32zm-15 73.82a62.45 62.45 0 0 0-124.89-.05v.05A62.45 62.45 0 1 0 1590 401zm82.27-73.82h14.76v147.66h-14.76zM307.51 265.16h25.41v25.41h-25.41zm63.51 0h25.41v25.41h-25.41zm63.52 0h25.41v25.41h-25.41zm-127.03 63.52h25.41v25.41h-25.41zm63.51 0h25.41v25.41h-25.41zm-63.51 63.52h25.41v25.41h-25.41z"/><circle cx="510.72" cy="277.87" r="6.35"/><circle cx="510.72" cy="341.38" r="6.35"/><circle cx="510.72" cy="404.9" r="6.35"/><circle cx="510.72" cy="468.37" r="6.35"/><circle cx="447.25" cy="341.38" r="6.35"/><circle cx="447.25" cy="404.9" r="6.35"/><circle cx="447.25" cy="468.37" r="6.35"/><circle cx="383.73" cy="404.9" r="6.35"/><circle cx="383.73" cy="468.37" r="6.35"/><circle cx="320.21" cy="468.37" r="6.35"/></svg>
