<svg xmlns="http://www.w3.org/2000/svg" width="168" height="67" fill="currentColor"><path d="M48.815 19.89c-2.418.636-3.659 2.546-3.659 5.632 0 1.146-.032 1.209-1.082 1.209-1.464 0-1.846.573-1.718 2.609l.095 1.687 1.273.159 1.273.159.159 7.955.159 7.955h2.386 2.387l.159-7.955.159-7.955 1.591-.159 1.591-.159.095-1.75c.127-2.037-.318-2.546-2.259-2.546h-1.273l.191-1.177c.255-1.464.541-1.718 2.037-1.973 1.177-.191 1.209-.223 1.305-1.718.064-.859-.064-1.75-.286-2.005-.445-.541-2.45-.541-4.582.032zm7.224-.096c-.541.541-.541 26.698 0 27.239.509.509 4.137.509 4.646 0s.541-26.062.064-27.016c-.286-.509-.7-.605-2.323-.605-1.145 0-2.164.159-2.387.382zm14.925 7.096c-2.164.605-3.469 1.4-4.964 3.055-1.877 2.1-2.482 3.819-2.514 7.128-.032 2.641.064 3.055 1.018 4.996 1.177 2.387 2.291 3.5 4.837 4.678 1.464.668 2.196.827 4.455.795 4.137 0 7.128-1.559 8.91-4.678 1.177-2.1.923-2.45-1.75-2.45-1.814 0-2.132.096-3.341 1.114-.732.605-1.718 1.209-2.196 1.305-.446.095-.986.223-1.177.286-.732.223-3.182-.541-3.882-1.209-.859-.796-1.655-2.196-1.655-2.928 0-.414.923-.477 7.446-.477 8.783 0 8.465.127 7.924-3.023-.477-2.737-1.527-4.741-3.341-6.364-2.546-2.259-6.428-3.15-9.769-2.227zm5.251 4.805c1.082.541 2.355 2.196 2.355 3.119 0 .445-.573.509-4.932.509-5.473 0-5.505-.032-4.2-1.941 1.368-2.037 4.423-2.8 6.778-1.686zm35.764-4.837c-3.086.827-5.537 3.118-6.714 6.205-.955 2.546-.764 6.842.414 9.101 1.082 2.036 2.864 3.755 4.868 4.678 3.055 1.4 7.319.764 9.228-1.337l.637-.7.159 1.209.159 1.241 2.005.095c1.209.064 2.195-.064 2.482-.286.35-.286.445-2.1.445-10.024 0-10.978.191-10.31-2.768-10.31-1.782 0-2.323.382-2.323 1.687v.923l-1.114-.986c-1.145-.986-3.755-1.973-5.218-1.909-.446 0-1.464.191-2.26.414zm5.283 4.932c1.877.859 3.054 2.546 3.245 4.646.191 2.227-.35 3.691-1.845 5.06-2.101 1.877-4.837 1.909-6.906.096-1.4-1.209-2.004-2.609-2.004-4.487 0-2.578 1.05-4.264 3.341-5.314 1.623-.732 2.514-.732 4.169 0zm-32.87-4.836c-.827.318-.35 1.114 2.959 5.25l3.532 4.614c.096.223-1.496 2.482-3.5 5.028-2.259 2.864-3.628 4.837-3.5 5.123.127.382.7.445 2.609.382l2.418-.095 2.546-3.246c1.4-1.782 2.641-3.214 2.769-3.182.095.032 1.209 1.337 2.482 2.927l2.769 3.278c.795.573 5.155.509 5.377-.095.128-.286-1.177-2.164-3.532-5.123-2.036-2.546-3.627-4.805-3.564-4.996.096-.223 1.687-2.291 3.532-4.646l3.373-4.646c0-.573-.763-.796-2.863-.796-2.069 0-2.196.127-5.537 4.36-.859 1.114-1.655 2.005-1.814 2.005-.127 0-1.177-1.177-2.355-2.641-3.023-3.691-3.087-3.723-5.378-3.691-1.05 0-2.132.095-2.323.191z"/></svg>
