<svg xmlns="http://www.w3.org/2000/svg" width="144" height="42" fill="none"><g clip-path="url(#A)" fill="currentColor"><path d="M4.758 18.592H0V12.78h4.758V9.016c0-5.257 3.544-8.189 7.803-8.189 4.207 0 6.198 1.718 6.862 2.381l-2.88 4.593c-.386-.33-1.162-.941-2.602-.941-1.661 0-2.546.998-2.546 2.932v2.988h7.027v5.812h-7.026v21.804H4.758V18.592h0zM23.131 1.66h6.64v38.741h-6.64V1.66zm70.673 24.901c0-4.871-3.322-8.41-7.746-8.41-4.485 0-7.695 3.544-7.695 8.41 0 4.927 3.21 8.467 7.695 8.467 4.428.004 7.746-3.539 7.746-8.466zm-22.082 0c0-8.137 6.085-14.556 14.335-14.556 8.302 0 14.387 6.419 14.387 14.556 0 8.189-6.089 14.613-14.387 14.613-8.358 0-14.335-6.419-14.335-14.613zm65.638-13.78l-5.427 19.757-5.586-19.757h-6.198l-5.591 19.869-5.478-19.869h-6.64l8.574 27.616h6.81l5.422-19.149 5.426 19.149h6.749L144 12.781h-6.64zM36.043 8.14h6.571v32.261h-6.571V8.14zm12.184 16.126h6.567v16.131h-6.567V24.266zm12.361-9.802h6.571v25.933h-6.571V14.464z"/></g><defs><clipPath id="A"><path fill="currentColor" transform="translate(0 .181)" d="M0 0h144v41.639H0z"/></clipPath></defs></svg>
