<svg xmlns="http://www.w3.org/2000/svg" width="180" height="31" fill="none"><path fill-rule="evenodd" d="M69.273 15.609V.109h-3.26V24.21l8.252-9.879 8.142 9.879h4.401L76.685 12.486 85.816.109h-3.977l-12.566 15.5zm98.838-12.166c2.508 0 4.767 1.075 6.356 2.795l2.501-2.159C174.771 1.576 171.569 0 168.005 0c-6.625 0-11.995 5.444-11.995 12.159s5.37 12.159 11.995 12.159S180 18.875 180 12.159c0-.399-.019-.794-.056-1.184h-.369-8.823v3.228h5.853c-.871 3.941-4.343 6.887-8.494 6.887-4.807 0-8.704-3.95-8.704-8.823s3.897-8.824 8.704-8.824zM29.816 0c2.007 0 3.902.474 5.577 1.314l-1.83 2.784a9.2 9.2 0 0 0-3.857-.841c-5.043 0-9.132 4.034-9.132 9.011a8.94 8.94 0 0 0 3.148 6.806l-1.664 2.532c-2.785-2.229-4.564-5.633-4.564-9.447C17.493 5.444 23.01 0 29.816 0zm-.11 21.279c-1.103 0-2.161-.193-3.14-.547l-1.689 2.57a12.42 12.42 0 0 0 4.939 1.016c6.805 0 12.322-5.444 12.322-12.159 0-3.564-1.554-6.769-4.029-8.993l-1.855 2.822a8.92 8.92 0 0 1 2.583 6.28c0 4.977-4.088 9.011-9.132 9.011zM0 .109h16.723v3.148H3.301v7.057h10.452v3.366H3.301V24.21H0V.109zm46.099 0h3.741v21.17h12.542v2.931H46.099V.109zm44.558 0h-3.851L98.139 24.21 110.241.109h-4.071l-8.031 16.827L90.657.109zm28.495 0L107.05 24.21h3.961l8.141-17.479 7.812 17.479h3.631L119.152.109zm14.193 24.101V.109l15.623 15.742V.109h3.081V24.21L136.866 8.143V24.21h-3.521zm3.421 4.605l.005.475-.895-.916v1.824h-.369v-2.203-.499-.833l1.259 1.318 1.018-1.323.003.546-1.004 1.247-.907-.904v.335l.89.931zm-117.79.397v1.209h-.37v-3.535h.37v1.194l1.073-1.191h.394l-1.467 1.628v.259l1.753-1.897h.394l-2.147 2.333zm25.734-.735l-1.016 1.252-.894-.916v1.824h-.37v-2.203-.499-.833l1.259 1.318 1.019-1.323.003.546-1.004 1.247-.906-.904v.335l.889.931 1.019-1.323.003.546zm21.672 1.941v-2.65l.835.868h.46l-1.665-1.753v3.535h.37zm22.938-1.824v1.817h-.37v-3.526h.37v1.203l1.498 1.316.005 1.007-.379.005-.002-.847-1.121-.974zm23.161 1.824v-2.78l1.336.974.002 1.801.379-.005-.005-1.96-2.082-1.565v3.535h.37zm48.431-3.53l-.65.623-.655-.628h-.522l.909.885-.924.885.921.878-.906.883h.515l.658-.628.661.63h.515l-.909-.886.924-.881-.92-.882.905-.879h-.522zm-1.29 1.761l.638-.621.638.621-.639.622-.637-.622z" fill="currentColor"/></svg>
