<svg xmlns="http://www.w3.org/2000/svg" viewBox="0 0 2000 742.9" fill="currentColor"><path d="M626.78 348.13h53.77a9.45 9.45 0 0 1 2.48.34 14 14 0 0 1 4.33 1.95 13.56 13.56 0 0 1 5.2 7c.23.71.34 1.46.51 2.19a2.35 2.35 0 0 1 0 .53v102.32a9.45 9.45 0 0 1-.21 2 16.21 16.21 0 0 1-.49 1.78 14.38 14.38 0 0 1-2.47 4.36l-1.19 1.42-4 4.58q-1.74 1.91-3.66 3.63l-6.72 5.81-7.33 5.9-6.49 4.82q-5.07 3.6-10.4 6.84-3 1.82-6.07 3.53l-7.54 3.86-6.81 2.95c-3.71 1.5-7.5 2.86-11.3 4.11-2 .66-4 1.25-5.94 1.86s-4.39 1.32-6.59 1.88c-1.57.42-3.15.85-4.75 1.19l-3.21.74c-.53.08-1 .29-1.55.32a7.72 7.72 0 0 0-1.43.29 11.37 11.37 0 0 1-1.32.23c-.67.23-1.39.21-2.08.42a2.17 2.17 0 0 1-.51 0 3.45 3.45 0 0 0-.79.15 3.34 3.34 0 0 1-.77.12 5.44 5.44 0 0 0-.9.14 2.38 2.38 0 0 1-.53.11 5.83 5.83 0 0 0-1.44.21 2.26 2.26 0 0 1-.52 0 7.23 7.23 0 0 0-1.32.18 3 3 0 0 1-.66.08 7 7 0 0 0-.92.09 9.52 9.52 0 0 1-1.84.21 2.26 2.26 0 0 0-.52 0 7.71 7.71 0 0 1-1.85.2 8.94 8.94 0 0 0-1 .12 6.49 6.49 0 0 1-1.32.13 11.25 11.25 0 0 0-2.24.2 5.21 5.21 0 0 1-.79 0h-1.86a10.86 10.86 0 0 0-1.74.08 5.26 5.26 0 0 1-1.19.08h-13.72a11.78 11.78 0 0 1-1.45-.1 9.51 9.51 0 0 0-1.31-.11h-2a8.27 8.27 0 0 1-1.72-.15 8.88 8.88 0 0 0-1.71-.11 8.37 8.37 0 0 1-1.58-.15 5.9 5.9 0 0 0-1.32-.12 6.43 6.43 0 0 1-1.45-.14 5 5 0 0 0-.76-.11h-.55a13.66 13.66 0 0 1-1.56-.24 7.48 7.48 0 0 1-1.57-.17 4.29 4.29 0 0 0-.79-.11 5.25 5.25 0 0 1-1.18-.17 3.5 3.5 0 0 0-.66-.09 5.18 5.18 0 0 1-1.17-.18 3.74 3.74 0 0 0-.66-.09 6.91 6.91 0 0 1-.91-.15 3.5 3.5 0 0 0-.66-.12 5.73 5.73 0 0 1-.91-.14 6.35 6.35 0 0 0-.76-.13H530c-.67-.23-1.4-.21-2.07-.44a8.58 8.58 0 0 0-2-.35c-1.41-.35-2.85-.61-4.26-1l-4.11-1c-1.79-.45-3.57-1-5.35-1.5a135.21 135.21 0 0 1-10-3.4q-4.57-1.74-9.05-3.77l-8.2-4q-3.33-1.76-6.59-3.7-6.09-3.64-11.86-7.8c-2.79-2-5.51-4.14-8.17-6.32s-5.49-4.72-8.14-7.2c-1.94-1.81-3.82-3.69-5.66-5.6q-4.14-4.26-8-8.84-3.86-4.58-7.33-9.41-2.42-3.33-4.62-6.78-2.71-4.25-5.14-8.66c-1-1.79-1.91-3.58-2.82-5.41-1.32-2.57-2.44-5.19-3.56-7.83-.73-1.71-1.43-3.43-2.07-5.16-.83-2.19-1.58-4.4-2.29-6.59-1.15-3.5-2.1-7-2.95-10.54-.33-1.32-.6-2.77-1-4.14-.17-1.15-.49-2.24-.62-3.37-.21-.73-.24-1.49-.41-2.22a5.66 5.66 0 0 0-.13-.92c-.23-.9-.24-1.83-.45-2.74a2.62 2.62 0 0 0-.08-.79c-.12-.83-.25-1.66-.31-2.49a2.41 2.41 0 0 0 0-.38v-.27a16.44 16.44 0 0 0-.15-1.71c-.06-.57-.18-1-.2-1.57a6.07 6.07 0 0 0-.09-1.2 13.54 13.54 0 0 1-.17-2.11 18.6 18.6 0 0 0-.17-2.24 7.84 7.84 0 0 1-.08-1.19c0-1.06 0-2.12-.08-3.18 0-.62-.08-1.23-.12-1.85v-7.39c.17-1.72.17-3.43.22-5.16a10.14 10.14 0 0 1 .14-2 18.82 18.82 0 0 0 .13-2.24 10.16 10.16 0 0 1 .13-1.46 9.28 9.28 0 0 0 .14-1.58 4.7 4.7 0 0 1 .12-1.05 3.08 3.08 0 0 0 .08-.53 16.25 16.25 0 0 1 .29-2.49c.08-.61.1-1.23.23-1.84a3.64 3.64 0 0 0 0-.66 4.81 4.81 0 0 1 .12-.76 1.36 1.36 0 0 0 .08-.39 21.34 21.34 0 0 1 .36-2.49c.1-.82.21-1.31.32-1.95l.77-3.95c.33-1.59.67-3.2 1.07-4.78l1.46-5.5c.71-2.5 1.49-5 2.33-7.45.94-2.77 2-5.48 3.1-8.17a129.11 129.11 0 0 1 2.63-5.93l1.65-3.47c2.08-4.09 4.32-8.11 6.77-12A152.87 152.87 0 0 1 432.8 281q3.56-4.54 7.4-8.83 5.28-5.81 11-11.14 4.81-4.49 9.95-8.56 5.14-4.07 10.63-7.72 5.17-3.43 10.62-6.49c3.25-1.8 6.59-3.46 9.92-5 3-1.38 6-2.63 9-3.82 3.54-1.31 7.14-2.63 10.76-3.71 2.07-.64 4.15-1.2 6.25-1.75 1-.27 2-.52 2.95-.74l2.83-.65 3.11-.67a9.71 9.71 0 0 0 1.69-.33c.57-.09 1.15-.15 1.7-.29.76-.18 1.57-.23 2.34-.4a5.22 5.22 0 0 0 1-.16c.85-.21 1.75-.18 2.63-.42h.53l1.05-.13a3.1 3.1 0 0 1 .53-.1c.93 0 1.83-.29 2.75-.3.67 0 1.32-.2 2-.23s1.23-.06 1.84-.13a14.63 14.63 0 0 1 1.86-.18 14.22 14.22 0 0 0 1.72-.13 16.08 16.08 0 0 1 1.84-.11c1.11 0 2.21-.08 3.31-.19.44 0 .88-.06 1.31-.06 4.38-.07 8.75-.08 13.18 0a11.75 11.75 0 0 1 1.45.08c1 .09 2 .14 3 .17a9.88 9.88 0 0 1 1.72.12 14.28 14.28 0 0 0 1.86.14 7.17 7.17 0 0 1 1.31.12h.26a16.59 16.59 0 0 1 1.72.13c.58.07 1.15.18 1.7.23a9.75 9.75 0 0 1 1.71.21 2.5 2.5 0 0 1 .67.06 5.42 5.42 0 0 1 .9.13 3.82 3.82 0 0 0 1.06.15l.79.11c.17 0 .34.09.51.1a10.73 10.73 0 0 1 1.7.26c.57.09 1.06.14 1.57.27.71 0 1.38.29 2.08.34a10.4 10.4 0 0 1 1.57.32l1.94.41c.62.12 1.38.3 2.07.46s1.31.26 1.93.44l5.76 1.52q5.79 1.65 11.45 3.68 5.66 2.03 11.18 4.52a108.13 108.13 0 0 1 14.39 7.91c5.07 3.3 10 6.74 14.89 10.41q5.38 4.06 10.54 8.51a123 123 0 0 1 7 6.58 66.21 66.21 0 0 1 5.82 6.7q1.83 2.43 3.7 4.83a14.82 14.82 0 0 1 1.78 3 16.24 16.24 0 0 1 .88 2.63 16.64 16.64 0 0 1 .3 3.15 5.93 5.93 0 0 1-.12 1.19 5 5 0 0 0-.1.66 13.18 13.18 0 0 1-3.38 6.92c-.51.55-1 1.08-1.57 1.61l-30.74 30.74-4 4-1.23 1.2a14 14 0 0 1-1.53 1.24 12.76 12.76 0 0 1-4.07 1.87 6.6 6.6 0 0 1-1.32.28 2.8 2.8 0 0 0-.64.13 4.88 4.88 0 0 1-.93.09h-1a4.49 4.49 0 0 1-1.32-.14l-.53-.1a11.32 11.32 0 0 1-2.79-.76 13.5 13.5 0 0 1-5.81-4.45l-2.43-3.32a29.26 29.26 0 0 0-2.63-3.15c-1.49-1.57-3.05-3.09-4.58-4.58-1.2-1.18-2.44-2.29-3.7-3.42-1.7-1.47-3.48-2.86-5.27-4.17-1.22-.89-2.47-1.72-3.73-2.54a54.78 54.78 0 0 0-7-3.76 91.37 91.37 0 0 0-8.61-3.44c-1.78-.63-3.58-1.23-5.4-1.75-1.45-.42-2.77-.81-4.87-1.32a18.16 18.16 0 0 0-1.81-.38 18.56 18.56 0 0 0-2.21-.38 1.78 1.78 0 0 1-.39-.07 5.18 5.18 0 0 0-1.18-.18 3.51 3.51 0 0 1-.65-.09 6.45 6.45 0 0 0-1.32-.17 7 7 0 0 1-.79-.07 8.73 8.73 0 0 0-2-.2 10.41 10.41 0 0 1-1.85-.14 6.74 6.74 0 0 0-1.19-.08q-3.18-.09-6.36 0a9.77 9.77 0 0 0-1.32.1 10.41 10.41 0 0 1-1.58.12h-1a3.64 3.64 0 0 0-.66 0 10.71 10.71 0 0 1-2.11.21 12.16 12.16 0 0 0-1.32.23 11.74 11.74 0 0 0-1.18.1c-.48.11-1 .15-1.44.23l-1.83.32a5.69 5.69 0 0 1-1.15.22 9.18 9.18 0 0 1-1 .23 14.24 14.24 0 0 0-1.41.31c-1.53.41-3.08.79-4.58 1.26a69.79 69.79 0 0 0-11.38 4.63 71.32 71.32 0 0 0-12.79 8.48 81.55 81.55 0 0 0-6.87 6.41 76.2 76.2 0 0 0-8.27 10.34A68.89 68.89 0 0 0 489.9 350c-.55 1.95-1 3.95-1.45 5.9-.06.71-.32 1.38-.36 2.1a13.28 13.28 0 0 1-.38 2.34 2.41 2.41 0 0 0 0 .38c0 .85-.26 1.67-.29 2.49a16.32 16.32 0 0 1-.18 1.85 14.12 14.12 0 0 0-.09 1.59 16.19 16.19 0 0 1-.14 2 4.16 4.16 0 0 1-.06.93v6.59.79a21 21 0 0 1 .17 2.63v.13c0 .71.17 1.4.23 2.11a13 13 0 0 0 .2 2 4.91 4.91 0 0 1 .08.67 8.24 8.24 0 0 0 .17 1.31 5 5 0 0 1 .1.66v.53c.2.95.33 1.91.53 2.86.26 1.32.55 2.63.88 3.87a68.3 68.3 0 0 0 2.05 6.71c.61 1.7 1.31 3.39 2.05 5l.27.61a67.24 67.24 0 0 0 6.71 11.4 77 77 0 0 0 9.71 11 73.25 73.25 0 0 0 10.16 8.08 66.18 66.18 0 0 0 9.13 5.08 68.35 68.35 0 0 0 10.19 3.75c1.62.44 3.49.92 5.14 1.31.6.12 1.21.24 1.81.33a14.39 14.39 0 0 0 1.84.3c.89.24 1.84.21 2.74.42a3.07 3.07 0 0 0 .53.07 12.11 12.11 0 0 1 1.58.17c.43 0 .88.08 1.31.09s1.15.08 1.73.14a21.66 21.66 0 0 0 1.84.11h8.49a14.94 14.94 0 0 0 2.11-.13c.52-.06 1.07-.09 1.59-.12a7.33 7.33 0 0 0 1.32-.09 12.4 12.4 0 0 1 1.71-.18 7.32 7.32 0 0 0 .8-.11c.25 0 .5-.09.76-.12a7 7 0 0 0 1.43-.21h.14c1.11-.11 2.19-.34 3.27-.54 2.12-.38 4.63-1 6.59-1.55q4.19-1.23 8.24-2.87a79.8 79.8 0 0 0 7.37-3.32 39.4 39.4 0 0 0 2.54-1.43 22.78 22.78 0 0 0 3.69-2.79 2.44 2.44 0 0 0 .27-.29.78.78 0 0 0 .21-.48v-15.81a1.09 1.09 0 0 0-.08-.39.52.52 0 0 0-.38-.34h-34.79a4.93 4.93 0 0 1-1.32-.13 2.18 2.18 0 0 0-.51-.09 12.77 12.77 0 0 1-6.36-2.77 13.14 13.14 0 0 1-4.72-7.61 6.41 6.41 0 0 0-.16-.76 5.29 5.29 0 0 1-.09-.8v-44.13a12.38 12.38 0 0 1 .95-4.77 13.38 13.38 0 0 1 8.38-7.74c.64-.19 1.28-.35 1.93-.48a3.53 3.53 0 0 1 .65 0h54.6m-27.42 15.81a8.37 8.37 0 0 0-2.64.23h-.13a13.07 13.07 0 0 0-1.67.38 15.68 15.68 0 0 0-6.07 3.44 15.38 15.38 0 0 0-4.5 7.35 10.36 10.36 0 0 0-.42 2.34 2.93 2.93 0 0 1-.11.93 6.12 6.12 0 0 0 0 1.71q.11.66.15 1.32a2.26 2.26 0 0 0 0 .52 17.76 17.76 0 0 0 .48 1.91A15.37 15.37 0 0 0 590 392a15.06 15.06 0 0 0 6.87 2.9h.38a18.76 18.76 0 0 0 3.18 0 13.79 13.79 0 0 0 2.47-.38 16 16 0 0 0 4-1.58l.9-.53a.54.54 0 0 1 .62.09l.94.93L626 410.14l5.15 5.16a1.75 1.75 0 0 1 .34.38.44.44 0 0 1 0 .39.87.87 0 0 1-.17.35 13.68 13.68 0 0 0-1.53 4.35 15.19 15.19 0 0 0-.09 3.69 21.06 21.06 0 0 0 .48 2.2 12.84 12.84 0 0 0 4.87 6.75c.42.31.9.57 1.32.85a4 4 0 0 1 .43.29.57.57 0 0 1 .24.46 6.54 6.54 0 0 1-.11 1.71 10 10 0 0 0-.18 1.32 3.74 3.74 0 0 1-.09.66 9.94 9.94 0 0 0-.18 1.44 13.73 13.73 0 0 1-.23 1.43 12 12 0 0 1-.18 1.32 6.83 6.83 0 0 1-.11.79 4.93 4.93 0 0 1-.07.66 8.62 8.62 0 0 0-.21 1.44 2.26 2.26 0 0 1 0 .52 7.67 7.67 0 0 0-.19 1.44 3.47 3.47 0 0 1-.28 1.14.56.56 0 0 1-.38.35l-1 .29a7.76 7.76 0 0 0-4.05 3.05 7.3 7.3 0 0 0-1 2 8.39 8.39 0 0 0-.41 2.33 8.09 8.09 0 0 0 5.57 7.59 10.42 10.42 0 0 0 2.22.38 8.42 8.42 0 0 0 2.63-.43 6.84 6.84 0 0 0 1.67-.77 7.95 7.95 0 0 0 3.71-6 7.1 7.1 0 0 0-.33-3 7.78 7.78 0 0 0-2.85-4.14l-.73-.56a.53.53 0 0 1-.2-.47.29.29 0 0 1 0-.13 8.2 8.2 0 0 0 .24-1.7 4.77 4.77 0 0 1 .1-.66 4.9 4.9 0 0 0 .11-.65 13.94 13.94 0 0 1 .21-1.58c.12-.74.18-1.49.33-2.22v-.53a4.6 4.6 0 0 1 .06-.52 7.79 7.79 0 0 0 .2-1.45q0-.33.09-.66a6.75 6.75 0 0 0 .14-.76 23.52 23.52 0 0 1 .34-2.36.61.61 0 0 1 .44-.45l.66-.08a18.67 18.67 0 0 0 2.88-.41 13.15 13.15 0 0 0 3.06-1.2 12.81 12.81 0 0 0 5.46-5.77 12.14 12.14 0 0 0 .9-2.49 9.36 9.36 0 0 0 .34-2.74v-.93a9.86 9.86 0 0 0-.23-2.1 14.23 14.23 0 0 0-1.08-3.12 13 13 0 0 0-1.31-2.09l-.57-.73a.66.66 0 0 1-.11-.24.28.28 0 0 1 0-.25 3.43 3.43 0 0 1 .35-.55l3.22-4.2 11.85-15.46 1.53-2 .35-.38a.7.7 0 0 1 .6-.21c.22 0 .43.07.65.12a5.64 5.64 0 0 0 .92.11 8.07 8.07 0 0 0 7.91-5.73 8.67 8.67 0 0 0 .33-2.48 7.55 7.55 0 0 0-.21-1.32 7.86 7.86 0 0 0-4.63-5.61 9.92 9.92 0 0 0-2.63-.64 2.9 2.9 0 0 0-.93 0 12.77 12.77 0 0 0-1.93.42 7.89 7.89 0 0 0-5.27 6 6.71 6.71 0 0 0 0 2.89 9.28 9.28 0 0 0 .68 2.13 2.92 2.92 0 0 1 .19.49.5.5 0 0 1 0 .38 3.4 3.4 0 0 1-.28.45l-1.53 1.91q-3.94 5.16-7.91 10.31-3.71 4.82-7.41 9.67l-.42.51a.48.48 0 0 1-.49.14 2.45 2.45 0 0 1-.65-.15 9.06 9.06 0 0 0-2.31-.49 3.74 3.74 0 0 1-.67-.1 5.17 5.17 0 0 0-1.84 0 9.41 9.41 0 0 1-1 .13 1.51 1.51 0 0 0-.52 0c-.59.18-1.21.28-1.79.49a15 15 0 0 0-1.69.76l-.59.3a.59.59 0 0 1-.74-.08l-.94-.92-21.18-21.17-.76-.77c-.33-.38-.35-.58-.13-.94s.31-.53.46-.81a15.56 15.56 0 0 0 1.32-2.91 11.18 11.18 0 0 0 .47-2.06 8.57 8.57 0 0 0 .24-2.37v-1.34a3.64 3.64 0 0 0 0-.66c-.15-.77-.26-1.57-.47-2.34a15.59 15.59 0 0 0-6.27-8.76 14.15 14.15 0 0 0-2.79-1.5 12.35 12.35 0 0 0-3.31-.92 1.64 1.64 0 0 1-.38-.1 4.73 4.73 0 0 0-1.06-.13h-1.18m-223.43-6.36H360.4c-.16 0-.39-.2-.36-.33a11.36 11.36 0 0 1 .18-1.84 5.57 5.57 0 0 1 .15-.91 1.57 1.57 0 0 0 0-.53l.24-1.43c.06-.48.18-.95.26-1.44l.29-1.55.67-3.25.67-3 2.55-9.31 2.72-8a4.78 4.78 0 0 1 .28-.61.78.78 0 0 1 .71-.5l31.5-10a.38.38 0 0 1 .36.4v.06a4.71 4.71 0 0 1-.19.64l-3 8.78-2 7-.91 3.73-.72 3.36-.73 3.64a18.56 18.56 0 0 1-.38 2.21l-.27 1.83a1.9 1.9 0 0 1-.11.39c-.16.48-.29.67-.83.68l-15.49 10"/><path d="M388.07 306.4l-15.82 10a.33.33 0 0 1-.25-.4.32.32 0 0 1 .08-.25l.36-.71 2.42-4.86c2.32-4.46 4.87-18.75 7.64-22.94a130.19 130.19 0 0 1 8.59-11.77c.42-.52.85-1 1.31-1.53a.78.78 0 0 1 .58-.27h29.3a8.78 8.78 0 0 1 1.45 0 .28.28 0 0 1 .2.33v.08c-.23.32-.45.66-.69 1q-3.78 4.88-7.14 10a166.55 166.55 0 0 0-5.19 8.46q-2.17 3.83-4.11 7.72l-1.91 3.95a8 8 0 0 1-.43.82.61.61 0 0 1-.44.27h-15.95m-12.9 59.44l15.62-9.95a.51.51 0 0 1 .35.35.57.57 0 0 1 0 .26 4.7 4.7 0 0 1 0 1.06 12 12 0 0 0-.19 2.24 9.79 9.79 0 0 1-.11 1.32 10.85 10.85 0 0 0-.13 1.71v1.73a12.08 12.08 0 0 1-.1 1.58c0 .48-.08 1-.09 1.45a246.19 246.19 0 0 0 0 10.87 8.16 8.16 0 0 0 .08 1.31 16.43 16.43 0 0 1 .11 2v1.86a11.66 11.66 0 0 0 .13 1.45 23.6 23.6 0 0 1 .12 2.91v.11a.65.65 0 0 1-.46.42l-30.19 10-.38-.08a.48.48 0 0 1-.27-.27 5.13 5.13 0 0 1-.3-1.55 12.47 12.47 0 0 0-.21-2.11 7.06 7.06 0 0 1 0-.92 14.89 14.89 0 0 0-.18-2.11c0-.35-.07-.7-.08-1.05v-2.13a4.7 4.7 0 0 0-.09-1.18 14.59 14.59 0 0 1-.1-2 360.39 360.39 0 0 1 0-11.39 13.63 13.63 0 0 1 .11-2.12l.15-2.91a13.91 13.91 0 0 1 .21-2.23v-.26a.7.7 0 0 1 .47-.42h15.53m1.34 31.15h14.58a3.12 3.12 0 0 1 .52.08.59.59 0 0 1 .39.32 1.82 1.82 0 0 1 .23.76 10.89 10.89 0 0 0 .25 1.7l.27 1.57a20.73 20.73 0 0 0 .35 2.21c0 .53.25 1 .28 1.57a9.73 9.73 0 0 0 .34 1.69l.38 1.8.35 1.69 1.43 5.77c.9 3.34 1.87 6.59 3 9.88.32.93.65 1.84 1 2.75a4.28 4.28 0 0 1 .15.51.36.36 0 0 1-.22.46h-.08l-28.75 10a.56.56 0 0 1-.42-.27 4.07 4.07 0 0 1-.49-.95l-1.32-3.05c-1.32-3.49-2.63-7-3.73-10.62q-1.05-3.4-1.91-6.88c-.49-1.9-1-3.84-1.31-5.79-.23-1.12-.5-2.23-.67-3.37a5 5 0 0 0-.14-.65 3.64 3.64 0 0 1 0-.66.53.53 0 0 1 .33-.38l.38-.08 14.86-10m12.6 41.03h13.77a1.29 1.29 0 0 1 .38.08.56.56 0 0 1 .31.23 4.63 4.63 0 0 1 .36.7l3.48 7.29q2.85 5.61 6.16 11 3.88 6.26 8.28 12.16a4.61 4.61 0 0 1 .66 1 .27.27 0 0 1-.17.32h-24.63a1 1 0 0 1-.69-.33l-1.94-2.17-4.65-5.62-5.77-7.74a133.1 133.1 0 0 1-7.29-11.53c-.79-1.38-1.57 7.19-2.29 5.76a6.65 6.65 0 0 1-.27-.61.35.35 0 0 1 .15-.48.2.2 0 0 1 .11 0 1.21 1.21 0 0 1 .38 0l13.65-10m91.63 81.95l-.24-.11a9.07 9.07 0 0 1-1.14-.29l-7.3-1.84-7.91-2.44q-5.9-2-11.6-4.48c-3.82-1.64-7.55-3.44-11.22-5.4A151.51 151.51 0 0 1 426 496q-5.26-3.71-10.36-7.9c-2.92-2.42-5.78-4.92-8.53-7.54a13.71 13.71 0 0 1-1.32-1.32.23.23 0 0 1 0-.25.24.24 0 0 1 .21-.14h23.17a1.15 1.15 0 0 1 .82.38l.18.18 1.6 1.78c3 3.48 6.31 6.8 9.66 10s6.94 6.41 10.54 9.4a169.12 169.12 0 0 0 17.78 12.9c3.18 2 6.42 3.88 9.75 5.63.23.12.47.24.69.38a1.78 1.78 0 0 1 .52.42zm-34.91-280.66H432a.07.07 0 0 1-.08-.08.09.09 0 0 1 0-.1 2.59 2.59 0 0 1 .42-.32q3.54-2.21 7.19-4.2l7.91-4.05c3.62-1.75 7.32-3.33 11.07-4.74a139.01 139.01 0 0 1 8.88-3.08c2.99-.92 6.09-1.81 9.22-2.57 1.91-.48 3.86-.91 5.8-1.32 1.32-.28 2.63-.55 3.95-.76.76-.21 1.57-.24 2.35-.45a11.49 11.49 0 0 1 2.34-.34c.35 0 .7-.18 1-.2.94 0 1.83-.33 2.77-.35a1.21 1.21 0 0 0 .38 0h.26c.57-.14 1.15-.09 1.72-.18a12.15 12.15 0 0 1 1.7-.21 6.24 6.24 0 0 0 1.05-.11 16.42 16.42 0 0 1 1.72-.17 9.52 9.52 0 0 0 1.31-.12 12.33 12.33 0 0 1 1.72-.13 14.06 14.06 0 0 1 1.59 0v.09a.45.45 0 0 1-.31.21l-3.14 1c-2.83 1-5.64 2-8.42 3.16q-6.8 2.77-13.33 6.14-6 3.13-11.73 6.7-4.32 2.72-8.47 5.67c-1.05.74-.82.66-2.07.66h-13"/><path d="M415.73 265.33h-15.1a.22.22 0 0 1-.18-.15.3.3 0 0 1 0-.26 1.37 1.37 0 0 1 .15-.21l3-3 2.86-2.75c3.18-3.06 6.59-6 9.95-8.78l.72-.57a1.64 1.64 0 0 1 1-.32h27.67a4.19 4.19 0 0 1 1.17.07.2.2 0 0 1 .1.08.2.2 0 0 1 0 .25l-.09.09-.18.19c-1.81 1.55-3.56 3.18-5.27 4.83-2.51 2.43-5 4.89-7.36 7.45l-2.17 2.19-.45.49a1.32 1.32 0 0 1-.93.42h-14.89zm65.04 254.6a.23.23 0 0 0 .2 0h-.19M957.7 332.66a53.53 53.53 0 0 0-20.7-23.34 59.56 59.56 0 0 0-31.63-8.26 64 64 0 0 0-32.47 8.26A58.55 58.55 0 0 0 850.19 333a80.82 80.82 0 0 0 0 71.27 58.76 58.76 0 0 0 22.75 23.59 64.19 64.19 0 0 0 32.47 8.26 58.66 58.66 0 0 0 41.5-15.08 62.37 62.37 0 0 0 19-40.76h-68.67V362h92.63v17.3a85.42 85.42 0 0 1-13.34 38.85 82.4 82.4 0 0 1-29.89 27.93 83.62 83.62 0 0 1-41.31 10.33 86.73 86.73 0 0 1-43.69-11.26 82.58 82.58 0 0 1-31.26-31.25 94.89 94.89 0 0 1 0-90.52A82.36 82.36 0 0 1 861.64 292a86.82 86.82 0 0 1 43.69-11.24 87.72 87.72 0 0 1 48.55 13.6 77.6 77.6 0 0 1 30.75 38.27zm68.51 23.34a57.15 57.15 0 0 1 21.69-22.86 59.55 59.55 0 0 1 30.76-8.12 56.45 56.45 0 0 1 28.92 7.18 48.11 48.11 0 0 1 18.35 18.1v-25.25h21.36v131.36h-21.38l.14-25.84a49.63 49.63 0 0 1-18.69 18.43 55.72 55.72 0 0 1-28.93 7.31 57.74 57.74 0 0 1-30.63-8.26 58.46 58.46 0 0 1-21.59-23.44 72.93 72.93 0 0 1-7.89-34.36 71.38 71.38 0 0 1 7.89-34.22m88.81 9.49a41.2 41.2 0 0 0-15.68-16.36 44.44 44.44 0 0 0-43.28-.1 40.4 40.4 0 0 0-15.56 16.24 51.81 51.81 0 0 0-5.81 25.08 53 53 0 0 0 5.81 25.41 40.88 40.88 0 0 0 15.56 16.53 43.93 43.93 0 0 0 43.28 0A40.81 40.81 0 0 0 1115 415.8a52.44 52.44 0 0 0 5.8-25.18 51.82 51.82 0 0 0-5.8-25.08m107.6-18.9v75a18 18 0 0 0 3.94 13.12 19.23 19.23 0 0 0 13.7 3.81h15.56v17.87h-19a37.8 37.8 0 0 1-26.46-8.11c-5.81-5.39-8.82-14.32-8.82-26.7v-75H1185v-21.57h16.53l.37-44.3h20.66v44.3h33.19v21.58zm156.09-13.57a43.59 43.59 0 0 1 18.22 18.45 62.36 62.36 0 0 1 6.58 29.93v75h-20.88v-71.97a41 41 0 0 0-9.51-29.13 34 34 0 0 0-26-10.1 34.74 34.74 0 0 0-26.56 10.45 42.79 42.79 0 0 0-9.88 30.41v70.2h-21.07V280.75h21.11v66.55a41.7 41.7 0 0 1 17.29-15.1 56.16 56.16 0 0 1 24.79-5.33 54.56 54.56 0 0 1 26 6.2m172.32 65.57h-101.66a40 40 0 0 0 40 39.94h1.28a39.19 39.19 0 0 0 22.87-6.38 33.9 33.9 0 0 0 12.87-17.07h22.74a54.71 54.71 0 0 1-20.33 29.87 61.65 61.65 0 0 1-38.07 11.49 64.28 64.28 0 0 1-32.37-8.12 57.47 57.47 0 0 1-22.52-23.2 71.69 71.69 0 0 1-8.12-34.72 72.82 72.82 0 0 1 7.89-34.58 55.58 55.58 0 0 1 22.15-22.87 66.14 66.14 0 0 1 32.85-8 63.59 63.59 0 0 1 32 7.89 54.75 54.75 0 0 1 21.49 21.69 64.24 64.24 0 0 1 7.54 31.23 123.72 123.72 0 0 1-.7 12.77m-26.3-37.95a34.61 34.61 0 0 0-14.46-13.24 45.43 45.43 0 0 0-20.3-4.53 39.32 39.32 0 0 0-27.28 10.18 41.82 41.82 0 0 0-12.88 28.32h80.32a39 39 0 0 0-5.39-20.76m91.44-27.6a49.16 49.16 0 0 1 25.18-6v21.82h-5.57q-35.51 0-35.51 38.52v69.16h-21.13V326.91h21.13v23a40.44 40.44 0 0 1 15.89-16.91"/></svg>
