<svg xmlns="http://www.w3.org/2000/svg" width="140" height="68" fill="currentColor"><path d="M98.547 25.075c-.271-.255-.572-.465-.932-.63a2.94 2.94 0 0 0-1.143-.24H86.019c-.406 0-.782.075-1.143.24-.361.15-.662.36-.933.63a2.69 2.69 0 0 0-.632.931 2.92 2.92 0 0 0-.226 1.141v13.719a2.97 2.97 0 0 0 .226 1.141 2.69 2.69 0 0 0 .632.931 3.01 3.01 0 0 0 .933.63 2.93 2.93 0 0 0 1.143.225h10.453a2.93 2.93 0 0 0 1.143-.225c.361-.15.677-.36.932-.63a3 3 0 0 0 .632-.931 2.92 2.92 0 0 0 .226-1.141V33.27h-8.333v3.107h5.219v4.308H86.214V27.326h10.077v2.477h3.113v-2.657a2.96 2.96 0 0 0-.226-1.141c-.15-.345-.361-.661-.632-.931zm20.26 9.847a3.56 3.56 0 0 0-.887-.946 4.6 4.6 0 0 0-.752-.42c.572-.345 1.023-.81 1.324-1.411.361-.706.541-1.621.541-2.732v-.345c0-3.227-1.639-4.863-4.858-4.863h-10.168v19.573h10.709c3.219 0 4.858-1.636 4.858-4.848v-.961c0-.646-.06-1.231-.195-1.726s-.331-.946-.572-1.321zm-11.761-2.537v-5.103h7.024c.676 0 1.158.15 1.443.45s.437.811.437 1.486v1.261c0 .645-.136 1.126-.391 1.426s-.692.45-1.294.48h-7.219zm9.46 4.938v1.486c0 .675-.15 1.171-.436 1.471s-.767.45-1.444.45h-7.58v-5.329h7.58c.677 0 1.158.15 1.444.435.286.315.436.811.436 1.486zm20.17-13.103l-5.881 15.475-5.866-15.475h-3.339l7.566 19.573h3.278L140 24.22h-3.324zM67.142 38.869v-.105a.82.82 0 0 0-.406-.706l-15.973-9.291v-3.948-14.38-.12a.82.82 0 0 0-.406-.705L33.992.113a.79.79 0 0 0-.812 0L16.786 9.509a.82.82 0 0 0-.406.705v.12 18.327L.406 37.833a.82.82 0 0 0-.406.706v.105 18.913a.82.82 0 0 0 .406.706l16.379 9.516c.015.015.03.015.045.03s.045.015.06.03h.015c.045.015.09.03.135.03a.51.51 0 0 0 .15.015h.015.015c.03 0 .06 0 .09-.015.045 0 .075-.015.105-.015.045-.015.075-.015.09-.03h.015c.03-.015.06-.03.075-.045l15.958-9.156 15.973 9.276c.015.015.045.03.075.03 0 0 .015 0 .015.015 0 0 .015 0 .015.015h.03c.015 0 .03.015.045.015h.03c.015 0 .045.015.06.015h.06.075c.135 0 .286-.03.406-.105l16.394-9.396a.82.82 0 0 0 .406-.706V38.869zm-18.004-13.57v3.603l-14.755 8.466V20.316l14.74-8.466.015 13.449zM32.759 37.353l-14.755-8.571V11.745l14.755 8.571v17.036zm-.812 1.411L17.192 47.23 2.437 38.659l14.755-8.466 14.755 8.571zm3.264 0l14.755-8.466 14.755 8.571-14.755 8.466-14.755-8.571zm-1.639-19.858l-14.755-8.571 14.755-8.466 14.755 8.571-14.755 8.466zM1.624 40.054l14.755 8.571v16.931L1.639 57l-.015-16.946zm16.379 25.502V48.64l14.755-8.481v16.916l-14.755 8.481zm16.38-8.466V40.174l14.755 8.571v16.916L34.383 57.09zm31.134.105l-14.755 8.481V48.745l14.755-8.466v16.916z"/></svg>
