<svg xmlns="http://www.w3.org/2000/svg" viewBox="0 0 2000 742.9" fill="currentColor"><circle cx="363.17" cy="352.59" r="38.27"/><path d="M406.86 246.72a172.42 172.42 0 0 0-243.78 6h0A172.41 172.41 0 0 0 144 276.73l-.41.61c-2 3-3.79 6-5.55 9.08l-.34.67c-1.69 3.05-3.32 6-4.81 9.15l-.34.74c-1.42 3-2.77 6-4.06 9.15a2.4 2.4 0 0 1-.34.74c-1.22 3.05-2.3 6-3.39 9.08-.06.27-.2.54-.27.81-1 3.05-1.89 6-2.71 9.08l-.2.88c-.75 3-1.56 6-2.17 9l-.2 1c-.61 3.05-1.15 6-1.63 9.08a5.91 5.91 0 0 0-.13 1.08l-1.09 9.08c0 .34-.06.75-.06 1.15-.27 3.12-.41 6.1-.55 9.21a8.73 8.73 0 0 1-.06 1.22c-.07 3.25-.07 6.51.06 9.76a9.67 9.67 0 0 0 .07 1.35c.14 3.12.34 6.1.61 9.15l.14 1.42c.34 3.32.74 6.57 1.35 10l.21 1.55c.54 3.53 1.28 7 2.09 10.43l.41 1.7c.88 3.72 2 7.38 3.12 11.11l.61 1.89c1.35 4 2.77 8 4.4 11.92.27.68.61 1.43.88 2.1 1.9 4.41 4 8.81 6.23 13a19.71 19.71 0 0 0 1.36 2.37 152.3 152.3 0 0 0 8.67 13.89c.54.81 1.22 1.69 1.76 2.5a156.43 156.43 0 0 0 11.11 13.89l2.3 2.57c2.57 2.78 5.28 5.56 8.06 8.2 2.17 2.1 4.4 4.06 6.71 6 1.15 1 2.23 1.89 3.38 2.77A163.75 163.75 0 0 0 198.91 519l5.08 2.91a167.76 167.76 0 0 0 27.17 12.19l7.38 2.38A172.64 172.64 0 0 0 380 517.19l6-3.93c1.29-.81 2.44-1.76 3.66-2.57 1.55-1.15 3.18-2.3 4.67-3.59.54-.41 1.15-.88 1.69-1.36l1.09-.81.68-.54 1.35-1.15.68-.54h0l.67-.61.48-.41.74-.68c.34-.27.68-.61 1.09-.88l.74-.68h.07l.14-.06.61-.61.88-.82c.27-.27.61-.54.88-.81l.2-.2c.47-.48 1.08-1 1.56-1.49l.34-.34.2-.2.68-.68h0l.13-.14.48-.47.13-.14.07-.06.27-.28h0l.07-.06.07-.07.4-.41.14-.13.07-.07.54-.54.07-.07.13-.14.14-.13h0l.74-.75.2-.2a13.51 13.51 0 0 0 .89-1c64.89-69.44 61.77-177.69-6.78-242.85zm-261 31.09c49.92 11 70.58 54.26 92.25 99.51 8.13 17.07 16.46 34.41 26.56 50.39-9.13-13.71-16.92-28.51-24.67-43.08-18.42-34.81-35.83-67.8-67.94-86a103.06 103.06 0 0 0-31.84-11.72 154.82 154.82 0 0 1 5.59-9.1zM395.21 504h-.13l.27-.07zm-4.4-1c.81-.2 1.69-.4 2.5-.67l.82.13-2.44.75zm-4.2-.94l2.44-.55.81.14-2.37.61zm-4.34-1.06l2.37-.47.75.13-2.3.48zm-4.27-1l2.3-.34.68.13c-.68.14-1.49.27-2.17.41zm-4.41-1.16l2.17-.2.61.14-2.1.27zm-4.4-1.21l2.1-.14.47.14-2 .2zm-4.33-1.16h2l.34.07-1.83.07zm-4.54-1.35h0zm-4.41-1.36zm41.8 5.63l-2.1.61-.41-.07 2.24-.54zm-6.23 1.83l-.68-.14 2.5-.61.55.07zm-4.95-.95l2.44-.48.47.07-2.3.54zm-4.2-.95l2.37-.41.41.07-2.24.41zm-4.27-.95l2.24-.27.27.07-2 .34zm-4.4-1l2.1-.13h.07l-1.9.2zm-4.33-1h0zm24 2.5l-2 .48-.34-.07c.68-.13 1.42-.27 2.1-.47zm-6.5-.27l2-.33h.07l-1.83.33zm-4.13-.81l.4-.07-.4.07zm-47.35-10.5l1.69.68-.67-.14-3.59-.81zm60.15 11zm-66.38-13.21c.54.07 1.15.21 1.69.28l1.15.47a69.78 69.78 0 0 1-7.65-1.36c-1.83-.6-3.66-1.28-5.42-1.89a97.92 97.92 0 0 0 10.28 2.5zm-5.69.28l3.12 1c3.18.88 6.29 1.76 9.61 2.44 1.56.34 3.12.61 4.54.88l-.81-.14a125.69 125.69 0 0 1-20-5.14c1.22.4 2.3.67 3.52.95zm72.21 16.73L395 502l2.57-.74.61.06zm4-3.26h-.13l1.83-.47h0zm3.73-6.43l-8.06.61-8.13.27c-3.05 0-6-.07-9.08-.14-6.16-.33-12.33-.88-18.22-1.55-5-1-9.89-2.1-14.63-3.32a447.76 447.76 0 0 0 14.36 1c14.5 1.43 29.94 2.31 45.79 2.92zM139.78 287.5a103.4 103.4 0 0 1 31.9 11.72c31.91 18.15 49.25 50.94 67.67 85.68 10.23 19.31 20.65 39.1 33.94 56.22-12.13-15.12-22.22-32.31-32.11-49.12-18.56-31.7-37.8-64.49-70.31-82.57A118.38 118.38 0 0 0 135 296.51l4.78-9.01zm-5.08 9.82a114.64 114.64 0 0 1 35.83 12.8c32.31 18 51.48 50.67 70 82.23 12.2 20.87 24.73 42.07 41.12 59.61-15.11-15.58-27.3-34.27-39.22-52.63-19.51-30.07-39.69-61.1-72.61-79a129.46 129.46 0 0 0-39.15-13.82c1.22-3.11 2.57-6.16 4.06-9.21zm-6 14.09c.48-1.42 1.09-2.78 1.63-4.13A133.53 133.53 0 0 1 169.38 321c32.72 17.68 52.83 48.7 72.27 78.71 15.72 24.25 31.91 49.11 54.8 66.65-21-15.58-36.71-37.39-53-60-20.46-28.32-41.59-57.65-74.85-75.19a152.36 152.36 0 0 0-41.73-14.83c.61-1.63 1.15-3.32 1.83-4.95zm-2.17 5.83A146.4 146.4 0 0 1 168.09 332c33 17.48 54.12 46.67 74.45 74.92 23.16 32.1 45.11 62.45 82.9 76.2.41.14.88.27 1.36.47a91.2 91.2 0 0 1-27.64-10.77l-.81-.47-1-.61c-.81-.54-1.76-1.08-2.57-1.63h-.07c-.61-.4-1.29-.81-1.89-1.28-20-13.68-35.5-34.14-51.55-55.27-20.46-27-41.59-54.8-73.9-71.53a170 170 0 0 0-43.62-15.72c.88-3.05 1.83-6.09 2.77-9.07zm-3 9.95a173.28 173.28 0 0 1 43.42 15.65c32.11 16.59 53.17 44.3 73.56 71.26 11 14.49 21.68 28.58 33.74 40.44-5.49-4.81-10.91-9.76-16.26-15-5.49-6.1-10.91-12.6-16.33-19-21.2-25.26-43.14-51.41-75.45-67.67a198.31 198.31 0 0 0-44.91-16.66l2.22-9.02zM312.51 481c-16.46-6-30.08-16.46-42.81-29 13.07 11.58 26.82 21.88 42.81 29zM121.15 337.22a198.68 198.68 0 0 1 44.64 16.53c32.11 16.18 54 42.19 75.19 67.46l7.72 9.14-3.79-3.79c-22.83-22.83-46.4-46.4-79.8-62.79a234.36 234.36 0 0 0-45.51-17.41c.4-3.05.88-6.09 1.55-9.14zm-1.76 10.23a239.47 239.47 0 0 1 45.25 17.27c33.26 16.39 56.76 39.89 79.52 62.59l13.62 13.48a225.19 225.19 0 0 0 20.93 20.86c-11.72-8.74-22.9-18.7-34.28-28.86-23.3-20.79-47.43-42.33-80.54-58.25a300.65 300.65 0 0 0-45.51-18.09c.2-2.98.54-6.02 1.01-9zm-1.15 10.22a298.42 298.42 0 0 1 45.18 17.89c32.85 15.78 57 37.32 80.2 58.05 25.13 22.48 49.11 43.82 80.81 53.44a121.7 121.7 0 0 0 15.31 3.59c2.71.47 5.48.81 8.26 1.22h.07l-4.61-.48c-40.1-4.87-68-27-100.32-52.63-23.57-18.76-48-38.13-80.46-53.3-11.86-5.56-27-12.74-44.91-18.56a164.57 164.57 0 0 1 .47-9.22zm-.47 18.09a137.19 137.19 0 0 1 0-7.59c17.68 5.83 32.71 12.83 44.57 18.43 32.24 15.1 56.62 34.41 80.2 53.17 26.21 20.79 49.51 39.35 78.91 48.29a128.15 128.15 0 0 0 22 4.61l9.55 1 .34.06c-2.1-.06-4.2-.2-6.23-.33-41.32-3.12-71.39-24.32-106.21-48.84-23.57-16.6-48-33.8-79.25-48-11.72-5.35-26.55-11.85-43.76-18.28-.06-.96-.12-1.78-.12-2.52zm.13 3.59c16.94 6.3 31.63 12.8 43.22 18.08 31.09 14.3 55.47 31.43 79 47.89 26.29 18.56 49.86 35.16 77.7 43.63a137.35 137.35 0 0 0 29.06 5.48c3.59.27 7.18.41 10.83.54l.55.14c-2.58 0-5.22-.07-7.73-.14-42.94-1.35-75.72-21.81-113.72-45.51-22-13.69-46.88-29.2-76.34-42.34l-11.79-5.42c-9.21-4.2-19.17-8.87-30.07-13.21-.37-2.98-.61-6.09-.71-9.14zm.75 10.63c10.63 4.27 20.39 8.81 29.39 12.94l11.79 5.42c29.4 13.14 53.17 28 76.2 42.27C262.45 467.07 286.36 482 313 490a143.47 143.47 0 0 0 37.46 6.23c3.93.14 7.92.14 11.92.14l.68.2-9.08.27c-45.25.47-81.55-19.58-123.62-42.81-20.72-11.45-44.23-24.45-71.12-36.1-5.76-2.51-11.92-5.42-18.42-8.4l-20.8-9.55-1.37-9.98zm1.69 11.72l19.91 9.15q9.76 4.66 18.5 8.53c26.75 11.65 49.24 24.05 71.05 36 26.55 14.63 50.8 28 76.54 35.83a154.38 154.38 0 0 0 47.76 7.11c4.33-.07 8.67-.2 13.07-.41l.74.21-10.29.67c-48.57 2.58-87.85-16.59-137.44-40.91-19.3-9.48-39.22-19.23-62-28.85-7.73-3.32-16.26-7.45-25.2-11.79l-10.23-4.94c-1.05-3.62-1.75-7.14-2.41-10.6zm2.71 12.3l9.21 4.4c9 4.34 17.48 8.54 25.27 11.79 22.76 9.62 42.74 19.37 62 28.86 27.77 13.61 52.29 25.67 77 33.12 19.64 6 39.42 9.14 61.1 7.92 4.67-.27 9.35-.61 14-1.08l.81.2-11.45 1.36c-53.44 5.08-99.36-15.11-157.48-40.71l-46.67-20.12c-9.28-3.86-19.64-9.08-30.55-14.63-1.14-3.63-2.29-7.35-3.24-11.11zm3.95 13.1c10.5 5.35 20.39 10.23 29.4 14l46.6 20.07c28.65 12.67 54.39 24 79.52 31.57 26 7.86 51.34 11.85 78.71 9.28 5-.48 10-1.09 15-1.76l1 .27-12.53 2c-61 8.27-114.67-13.48-189-43.69l-19.78-8.06c-7.45-3.05-15.51-7-24-11.38a118.8 118.8 0 0 1-4.92-12.3zm5.69 14.36c7.92 4.07 15.51 7.79 22.55 10.64l19.78 8c32.52 13.21 61.1 24.86 88.13 33 34.81 10.63 67.12 15.44 101.67 10.77 5.35-.68 10.63-1.56 15.78-2.51l1 .27c-4.47 1-9 1.9-13.55 2.64-67.13 11.86-130.8-10.16-213.5-42.74-5-2-10-4.26-15.31-7-2.37-4.26-4.54-8.6-6.57-13.07zm7.9 15.54c4.61 2.24 9.08 4.27 13.41 6 30.08 11.79 57.72 22.29 83.79 30.21 45.93 14 87.52 20.26 130.53 12.6 5.62-1 11.18-2.1 16.73-3.38l1.08.27c-4.8 1.28-9.55 2.37-14.49 3.45-68.89 15-137.1-2.64-218.24-33.73-1.29-.47-2.51-1-3.8-1.56a155.23 155.23 0 0 1-9.01-13.86zm10.77 16.26a13.42 13.42 0 0 0 1.49.54c20.87 8 40.85 15.11 60.22 20.93 56.29 17.07 107.29 24 158.91 12.8 5.89-1.28 11.72-2.7 17.47-4.19l1.09.2c-5.08 1.56-10.16 3-15.31 4.27-61.64 15.78-127.41 9.41-212.15-20.8a127.85 127.85 0 0 1-11.72-13.75zm19.24 21.68l-5.22-5.15c9.35 3.32 18.43 6.23 27.3 9 70.79 21.47 128.43 24.72 182.82 10.77 6.1-1.56 12.19-3.32 18.22-5.22l.75.14-.41.34c-5.08 1.76-10.23 3.38-15.44 4.94-61.1 18.09-124.57 16.39-197.66-5.69a174.43 174.43 0 0 1-10.36-9.16zm183.4 33.7a171.7 171.7 0 0 1-104.86 8.8 342.75 342.75 0 0 0 16.6.41 342.86 342.86 0 0 0 100.32-15.71c1.49-.48 2.91-.88 4.33-1.43-5.32 2.85-10.74 5.56-16.39 7.93zm-113.32 6.57a175.45 175.45 0 0 1-29.47-11.58c59.61 11.58 116 8.12 171.24-10.23-1.63 1.15-3.32 2.17-5 3.25-40.37 14-85.88 22.35-136.75 18.56zm147-25.47l-5.55 1.9c-56.7 19-114.88 22.08-176.39 9.14A175.94 175.94 0 0 1 184.69 507c71.66 21 134.18 22.35 194.47 4.47 3.66-1.08 7.31-2.23 10.9-3.45a13.76 13.76 0 0 0-2.37 1.69zm21.47-18.42c-9.21-.27-18.28-.68-27-1.22 9.21.2 18.56.2 28.11.13zm2.25-2.32l-.2.21c-18.29.13-36.11-.07-52.77-1.09-8.33-.81-16.39-1.89-24.05-3.18-1.42-.48-2.77-.88-4.13-1.42-3.93-1.56-7.65-3.12-11.24-4.88-1.29-.61-2.51-1.29-3.73-1.9a103 103 0 0 1-14.42-9.21c-29.54-22.49-46.06-57-62.12-90.63-21.81-45.38-42.4-88.67-92.52-99.84a166.16 166.16 0 0 1 18.35-23c64.49-68.41 172.32-71.67 240.73-7.11s71.7 172.3 7.12 240.71a9.75 9.75 0 0 1-1 1.35zm184.31-65.42c-6.3 0-11.25-1.35-15.11-4.13a22.31 22.31 0 0 1-8.26-11.79 71.86 71.86 0 0 1-2.44-18.35v-33.74a75.8 75.8 0 0 1 2.17-19 21.68 21.68 0 0 1 8.26-11.79c3.86-2.78 9.35-4.13 16.46-4.13 6.3 0 11.25 1.08 15.11 3.32a19.48 19.48 0 0 1 8.53 9.62q2.45 6.6 2.44 16.46V354h-13.14v-3.1a57.51 57.51 0 0 0-.81-10.7c-.54-2.78-1.63-4.95-3.59-6.3-1.63-1.36-4.68-1.9-8.54-1.9-4.13 0-7.11.81-9.07 2.78a13.49 13.49 0 0 0-3.59 7.65 68.16 68.16 0 0 0-.55 11v37.18a51.52 51.52 0 0 0 1.09 12.06c.81 3.25 1.89 5.76 4.13 7.11 1.9 1.63 4.67 2.44 8.53 2.44 3.59 0 6.57-.81 8.54-2.44s3.32-4.4 4.13-7.65a55.7 55.7 0 0 0 1.08-12.6v-6.84h-12.87v-9.89h25.54v49.38H615l-1.36-11.52a18.4 18.4 0 0 1-6.3 9.08c-2.55 2.42-6.42 3.84-11.63 3.84zm83.72-1.42V321.71h39v10.43h-25v33.19h20.27v9.89h-20.32V412h25.27v10.16zm91.92 0V321.71H781l28.51 66.65v-66.65h11.79v100.45h-9.08l-28.82-68.62v68.62zm106.75 0V321.71h38.95v10.43h-25v33.19h20.32v9.89h-20.32V412h25.27v10.16zm115.28 1.08a26.44 26.44 0 0 1-14.56-3.86A23.36 23.36 0 0 1 970 409a51.09 51.09 0 0 1-3.59-15.38l12.32-3.32a69.85 69.85 0 0 0 1.63 10.44 16.94 16.94 0 0 0 4.4 8.26c1.9 2.17 4.68 3.32 8.27 3.32a11.17 11.17 0 0 0 8.26-3c1.9-1.9 2.78-4.94 2.78-8.81 0-4.67-1.09-8.26-3.05-11a103.59 103.59 0 0 0-7.66-8.53l-17-14.84a27.19 27.19 0 0 1-9.82-22.21c0-7.39 2.17-13.15 6.3-17 4.13-4.13 9.89-6 17.27-6a31.29 31.29 0 0 1 10.43 1.62 23.53 23.53 0 0 1 7.66 4.67 29.48 29.48 0 0 1 4.94 8.27 60.48 60.48 0 0 1 2.44 11.51l-11.78 3.32a82.71 82.71 0 0 0-1.36-9.07 12.53 12.53 0 0 0-3.86-6.57 12 12 0 0 0-7.93-2.44c-3.25 0-6.29.81-8.26 2.77a11.32 11.32 0 0 0-3 8.27 16.5 16.5 0 0 0 1.63 7.65 20.27 20.27 0 0 0 4.94 6l17 14.83a54 54 0 0 1 10.17 11.79 29.12 29.12 0 0 1 4.4 16.19 26.44 26.44 0 0 1-3 12.87 22.17 22.17 0 0 1-8.53 8.26c-3.61 1.83-8 2.37-12.62 2.37zm77.09-1.08V321.71h13.75v100.45zm94.96 1.08a26.42 26.42 0 0 1-14.56-3.86 23.44 23.44 0 0 1-8.81-10.43 51.7 51.7 0 0 1-3.59-15.38l12.33-3.32a68.59 68.59 0 0 0 1.63 10.44 16.86 16.86 0 0 0 4.4 8.26c1.9 2.17 4.67 3.32 8.26 3.32a11.19 11.19 0 0 0 8.27-3c1.89-1.9 2.77-4.94 2.77-8.81 0-4.67-1.08-8.26-3-11a103.59 103.59 0 0 0-7.66-8.53l-17-14.84a27.19 27.19 0 0 1-9.82-22.21c0-7.39 2.17-13.15 6.3-17 4.13-4.13 9.89-6 17.27-6a31.33 31.33 0 0 1 10.43 1.62 23.53 23.53 0 0 1 7.66 4.67 29.48 29.48 0 0 1 4.94 8.27 60.48 60.48 0 0 1 2.44 11.51l-11.79 3.32a80.47 80.47 0 0 0-1.35-9.07 12.53 12.53 0 0 0-3.86-6.57 12 12 0 0 0-7.93-2.44c-3.25 0-6.3.81-8.26 2.77a11.32 11.32 0 0 0-3 8.27 16.5 16.5 0 0 0 1.63 7.65 20.12 20.12 0 0 0 4.94 6l17 14.83a54 54 0 0 1 10.16 11.79 29 29 0 0 1 4.41 16.19 26.44 26.44 0 0 1-3 12.87 22.2 22.2 0 0 1-8.54 8.26c-3.66 1.88-7.99 2.42-12.67 2.42zm169.57 0a26.42 26.42 0 0 1-14.56-3.86 23.44 23.44 0 0 1-8.81-10.43 51.7 51.7 0 0 1-3.59-15.38l12.33-3.32a68.59 68.59 0 0 0 1.63 10.44 16.86 16.86 0 0 0 4.4 8.26c1.9 2.17 4.67 3.32 8.26 3.32a11.19 11.19 0 0 0 8.27-3c2-2 2.77-4.94 2.77-8.81 0-4.67-1.08-8.26-3-11a103.59 103.59 0 0 0-7.66-8.53l-17-14.84a27.19 27.19 0 0 1-9.82-22.21c0-7.39 2.17-13.15 6.3-17 4.13-4.13 9.89-6 17.27-6a31.33 31.33 0 0 1 10.43 1.62 23.53 23.53 0 0 1 7.66 4.67 29.48 29.48 0 0 1 4.94 8.27c1.36 3.32 1.9 7.11 2.44 11.51l-11.79 3.32a80.47 80.47 0 0 0-1.35-9.07 12.53 12.53 0 0 0-3.86-6.57 12 12 0 0 0-7.93-2.44c-3.32 0-6.3.81-8.26 2.77a11.32 11.32 0 0 0-3 8.27 16.5 16.5 0 0 0 1.63 7.65 20.12 20.12 0 0 0 4.94 6l17 14.83a54 54 0 0 1 10.16 11.79 29 29 0 0 1 4.41 16.19 26.44 26.44 0 0 1-3.05 12.87 22.2 22.2 0 0 1-8.54 8.26c-3.57 1.88-7.97 2.42-12.62 2.42zm76-1.08V321.71h14v43.35h25.81v-43.35h14v100.45h-14v-46.94H1425v46.94zm105.37 0l21.4-100.45h13.48l21.41 100.45h-13.14l-4.68-25.27h-20.59l-4.94 25.27zm20.05-35.36h16.73l-8.53-45.25zm87.85 35.36V321.71h20.32c6.57 0 12.33.81 16.73 2.77a18.87 18.87 0 0 1 9.89 8.54c2.17 3.86 3.32 9.07 3.32 15.37a44.71 44.71 0 0 1-1.35 10.71 20.17 20.17 0 0 1-3.86 7.92 14.35 14.35 0 0 1-7.11 4.68l13.79 50.46h-13.48L1649.34 375h-11v47.21zm14-57h5.21a31.69 31.69 0 0 0 9.62-1.35 10.34 10.34 0 0 0 5.49-5.22c1.08-2.43 1.62-5.75 1.62-10.16 0-5.75-1.08-10.16-3.32-12.59-2.16-2.78-6.3-3.87-12.87-3.87h-6.3v33.19zm91.6 57V321.71h22c7.38 0 13.48 1.08 17.54 3.32a19.73 19.73 0 0 1 9.35 10.16c1.9 4.67 2.78 10.16 2.78 17v37.05c0 7.11-.82 13.14-2.78 18.08a21.23 21.23 0 0 1-9.08 11c-4.13 2.44-9.89 3.86-16.73 3.86zm14-10.16h7.93c5.21 0 8.8-1.09 11-3.05s3.59-4.95 3.86-8.81a104.08 104.08 0 0 0 .55-13.75v-32.64a54.08 54.08 0 0 0-1.09-12.6 10.45 10.45 0 0 0-4.4-7.12c-2.17-1.35-5.76-2.16-10.43-2.16h-7.66V412zm116.39 11.24a26.44 26.44 0 0 1-14.56-3.86 23.36 23.36 0 0 1-8.8-10.43 49.07 49.07 0 0 1-3.59-15.38l12.32-3.32a69.85 69.85 0 0 0 1.63 10.44 16.94 16.94 0 0 0 4.4 8.26c1.9 2.17 4.68 3.32 8.27 3.32a11.17 11.17 0 0 0 8.26-3c2-2 2.78-4.94 2.78-8.81 0-4.67-1.09-8.26-3-11a103.59 103.59 0 0 0-7.66-8.53l-17-14.84a27.19 27.19 0 0 1-9.82-22.21c0-7.39 2.17-13.15 6.3-17 4.13-4.13 9.89-6 17.27-6a31.29 31.29 0 0 1 10.43 1.62 23.53 23.53 0 0 1 7.66 4.67 29.48 29.48 0 0 1 4.94 8.27c1.36 3.32 1.9 7.11 2.44 11.51l-11.78 3.32a82.71 82.71 0 0 0-1.36-9.07 12.53 12.53 0 0 0-3.86-6.57 12.14 12.14 0 0 0-7.93-2.44c-3.25 0-6.29.81-8.26 2.77a11.32 11.32 0 0 0-3 8.27 16.5 16.5 0 0 0 1.63 7.65 20.27 20.27 0 0 0 4.94 6l17 14.83a54 54 0 0 1 10.09 11.77 29.12 29.12 0 0 1 4.4 16.19 26.44 26.44 0 0 1-3.05 12.87 22.13 22.13 0 0 1-8.54 8.26c-3.54 1.9-7.87 2.44-12.55 2.44z"/></svg>
