<svg xmlns="http://www.w3.org/2000/svg" width="1001" height="276" fill="currentColor"><path d="M95.5 121.8a6.49 6.49 0 0 1-6.5-6.5V64.2a6.49 6.49 0 1 1 13 0v51.1c-.1 3.6-3 6.5-6.5 6.5z"/><path d="M105.9 121.8H85.8c-3.6-.1-6.4-3-6.4-6.6a6.58 6.58 0 0 1 6.4-6.4h20.1c3.6.1 6.4 3 6.4 6.6-.1 3.6-3 6.4-6.4 6.4zM99 275.9c-54.6 0-99-44.4-99-99s44.4-99 99-99c26.4 0 51.3 10.3 70 29l6.4 6.4-28 26.3-12.1-12.9 14.3-13.5c-14.3-11.5-32-17.7-50.7-17.7-44.8 0-81.3 36.5-81.3 81.3s36.5 81.3 81.3 81.3"/><path d="M148.7 225L136 212.7a51.12 51.12 0 0 0 14.5-35.8c0-14-5.5-27.2-15.6-36.9l-6.6-6.5 7.1-6.7 6.1 6.4 5.8-6c13.5 13.1 21 30.8 21 49.6-.1 18.1-7 35.2-19.6 48.2z"/><path d="M99 165.4c-6.3 0-11.5 5.2-11.5 11.5s5.2 11.5 11.5 11.5 11.5-5.2 11.5-11.5c0-6.4-5.1-11.5-11.5-11.5zm0 40.7c-16.1 0-29.2-13.1-29.2-29.2s13.1-29.2 29.2-29.2 29.2 13.1 29.2 29.2-13.1 29.2-29.2 29.2zm63.8-93l-51.5 47.6z"/><path d="M156.8 106.6l12 13-51.5 47.6-12-13 51.5-47.6zm17.6 169.3h-77v-17.7h59.3v-16.1l-53.4-40.2 10.6-14.1 60.5 45.5v42.6zm6.3-206.8l7.1-7.1 7.1 7.1-7.1 7.1-7.1-7.1zm-30.5-34.2l3.4-3.4 3.4 3.4-3.4 3.4-3.4-3.4zm42-29.8c0-2.8-2.3-5.1-5.1-5.1S182 2.3 182 5.1s2.3 5.1 5.1 5.1 5.1-2.2 5.1-5.1z"/><path d="M64.7 139.7a6.49 6.49 0 0 1-6.5-6.5v-69c.1-3.6 3-6.4 6.6-6.4a6.58 6.58 0 0 1 6.4 6.4v69a6.49 6.49 0 0 1-6.5 6.5zm189.9 74.6h43.7v3.5c0 8-.9 15-2.8 21.1-1.8 5.7-4.9 11-9.3 15.9-9.8 11.1-22.3 16.6-37.5 16.6-14.8 0-27.5-5.3-38-16-10.6-10.7-15.8-23.6-15.8-38.7 0-15.4 5.4-28.4 16.1-39.1s23.8-16.1 39.2-16.1c8.3 0 16 1.7 23.2 5.1 6.9 3.4 13.6 8.8 20.2 16.4l-11.4 10.9c-8.7-11.6-19.3-17.3-31.7-17.3-11.2 0-20.6 3.9-28.2 11.6-7.6 7.6-11.4 17.1-11.4 28.5 0 11.8 4.2 21.5 12.7 29.1 7.9 7.1 16.5 10.6 25.7 10.6 7.9 0 14.9-2.6 21.2-7.9s9.8-11.7 10.5-19.1h-26.4v-15.1h0zm100.3-50.7h16v105.9h-16V163.6zm107.2 15v90.8h-16v-90.8h-24.3v-15h64.6v15h-24.3zm149.5-9.3v18.9c-9.2-7.7-18.8-11.6-28.7-11.6-10.9 0-20 3.9-27.5 11.7s-11.2 17.3-11.2 28.5c0 11.1 3.7 20.5 11.2 28.1s16.7 11.4 27.6 11.4c5.6 0 10.4-.9 14.3-2.7 2.2-.9 4.5-2.1 6.8-3.7 2.4-1.6 4.8-3.4 7.4-5.6v19.3c-9.1 5.2-18.7 7.8-28.8 7.8-15.1 0-28-5.3-38.7-15.8-10.6-10.6-16-23.5-16-38.5 0-13.5 4.5-25.5 13.4-36.1 11-12.9 25.2-19.4 42.6-19.4 9.5 0 18.7 2.5 27.6 7.7zm76.3 30.1c0 11.7 3.9 21.3 11.8 28.8 7.8 7.5 16.8 11.3 27.1 11.3 11.1 0 20.5-3.8 28.1-11.5 7.6-7.8 11.5-17.2 11.5-28.4 0-11.3-3.8-20.7-11.3-28.4s-16.8-11.5-27.8-11.5-20.3 3.8-27.9 11.5c-7.7 7.7-11.5 17-11.5 28.2zm-16.1-.2c0-14.9 5.5-27.7 16.4-38.4s23.9-16 39.2-16c15.1 0 28 5.4 38.8 16.2s16.2 23.7 16.2 38.9-5.4 28.1-16.3 38.7c-10.9 10.7-24.1 16-39.6 16-13.7 0-25.9-4.7-36.8-14.2-11.9-10.5-17.9-24.2-17.9-41.2zm157.7-35.6h16v105.9h-16V163.6zm77.9 105.9V156.4l77.2 80.8v-73.6h16v112.3l-77.2-80.5v74.1h-16z"/></svg>
