<svg xmlns="http://www.w3.org/2000/svg" width="160" height="26" fill="currentColor"><path d="M141.603.475h-6.133l8.92 15.031v10.021h6.133V15.506L160 .475h-6.132l-6.133 10.021L141.603.475zm-7.805 0h-18.955v25.052h18.955v-5.01h-13.38v-5.01h11.707v-5.01h-11.707v-5.01h13.38V.475zm-21.185 0h-7.805l-7.805 7.794 3.903 3.897L112.613.475zm0 25.051l-11.707-11.134-3.903 3.34 7.805 7.794h7.805zM74.146.475h5.575v9.464h10.035V.475h5.575v25.052h-5.575V15.506H79.721v10.021h-5.575V.475zm-6.689 6.68l2.787-3.897C67.457.475 59.875-1.195 56.307 1.032c-4.46 2.784-4.502 6.124-4.062 8.764.467 2.8 2.947 4.04 4.619 4.597.632.21 4.343 1.313 6.132 1.67 2.787.557 3.189 3.529 1.556 4.534-3.184 1.96-8.505-1.027-10.55-2.512l-2.714 3.545s5.038 5.674 13.937 3.897c3.219-.643 5.575-3.229 5.575-7.237s-2.167-6.416-6.69-7.237c-6.132-1.113-7.247-2.783-6.69-4.454.74-2.217 5.575-2.783 10.035.557z"/><path fill-rule="evenodd" d="M23.972 25.526L34.564.475h5.017l11.15 25.052h-6.132l-2.23-5.567H31.777l-2.23 5.567h-5.575zm10.035-10.577l3.345-7.794 3.345 7.794h-6.69z"/><path d="M0 .475h5.575v9.464H15.61V.475h5.575v25.052H15.61V15.506H5.575v10.021H0V.475z"/></svg>
