<svg xmlns="http://www.w3.org/2000/svg" viewBox="0 0 2000 742.9" fill="currentColor"><path d="M990.71 258.51v36.54L965.93 292c-31.59-4.34-58.84 6.81-73.7 31.59-36.55 60.08-9.3 137.5 47.69 135.64 12.39-.62 35.92-1.23 52.65-1.23l29.11-1.24V222h-15.49c-14.86 0-15.48 1.82-15.48 36.51zm-11.77 56.37c10.53 5.57 11.77 13.62 11.77 61.32 0 60.08-1.86 62.55-37.78 62.55-28.5 0-48.94-24.15-48.94-57 .62-31.59 11.15-53.27 31.59-64.42 17.97-9.89 27.88-10.51 43.36-2.45zm-496.13 27.87v114.59h15.48c15.49 0 15.49-.62 15.49-55.75v-55.74h105.29v55.74c0 55.13 0 55.75 15.49 55.75H650V228.16h-15.44c-14.87 0-15.49 1.24-15.49 46.45v46.46H513.78v-46.46c0-45.21-.62-46.45-15.49-46.45h-15.48zm965.01-91.05q-11.14 1.86-11.15 20.44c0 13.62-3.09 18-12.38 18-16.11 0-16.11 16.1 0 20.44 10.52 2.48 12.38 9.29 13.62 66.27 1.86 60.71 2.48 64.42 18.58 76.19 20.44 15.49 60.7 10.53 60.7-7.43 0-8.67-3.71-10.53-18.58-8.05-31.59 4.33-37.16-5.58-37.16-70.62v-58.26h24.77c18 0 24.78-2.48 24.78-9.29s-6.81-9.29-24.16-9.29c-23.53 0-24.77-1.24-26.63-20.44-1.21-15.49-4.34-19.82-12.39-17.96zm-274.39 38.4c-2.48 3.72-13 4.95-25.39 2.48-52.65-9.91-84.86 12.39-84.86 60.08 0 18.58 4.33 29.11 18 43.36 13 13.62 14.87 18 6.81 18-14.24 0-23.53 19.2-16.1 32.83 5 8.05 14.87 10.53 47.69 10.53 41.5 0 57 6.19 57 23.53 0 4.34-9.91 12.39-22.3 17.35-19.82 8-25.4 8-49.55 0-21.68-7.44-27.88-7.44-33.45-1.24-11.77 14.86 11.15 25.39 56.37 25.39 35.92 0 44-2.47 57.6-14.86 21.68-20.44 21.06-45.22-.62-62.56-14.87-11.77-22.92-13-52.65-10.53-20.44 1.86-37.78.62-39.64-3.1-5.57-8.67-1.86-10.53 35.31-17.34 48.93-9.29 63.79-27.87 59.46-75-1.86-22.92-.62-36.54 3.71-38.4 7.44-2.48.62-16.72-8-16.72-3.2.01-7.53 3.1-9.39 6.2zm-19.2 32.21c20.44 29.11 3.72 73.09-27.25 73.09s-49.56-50.79-26.64-75.57c14.25-15.48 42.12-14.25 53.89 2.48zm-424.29-21.68c-25.39 15.48-36.54 39.64-36.54 78.66 0 29.11 2.48 37.17 18.58 55.75 21.68 24.15 48.31 31.59 86.72 22.92 30.35-6.82 32.21-8.06 27.25-21.06-2.48-8.06-6.19-8.68-14.87-4.34-6.19 3.72-21.67 6.19-34.06 6.19-26 0-58.84-27.25-58.84-48.93 0-12.39 3.09-13 65.65-13h66.28l-3.72-26.63c-4.95-37.78-31.59-60.08-71.23-60.08-16.1-.01-36.54 4.94-45.22 10.52zm64.42 14.86c16.72 8.68 22.92 17.35 22.92 31.59 0 9.91-6.2 11.15-45.84 11.15-25.39 0-47.69-2.47-49.55-5-4.95-8 14.25-32.21 29.73-38.4 17.97-7.39 27.26-7.39 42.74.66zm466.41-12.38c-22.92 18-34.69 43.35-34.69 74.94 0 54.51 42.12 90.44 95.39 82.38 33.44-4.95 42.11-10.53 37.16-23.53-2.48-8.06-6.19-8.68-14.87-4.34-15.48 8.05-47.07 8.05-63.17-.62-9.91-5.57-29.74-39.64-29.74-52 0-1.86 29.12-3.1 65-3.1h65v-18.61c0-42.12-29.11-68.13-76.19-68.13-18.5 0-32.75 4.34-43.89 13.01zm70.61 14.89c10.53 5.58 18.58 12.39 18.58 14.87 0 3.09 1.86 9.91 3.71 15.48 3.1 8.67-3.09 9.91-46.45 9.91-44.6 0-50.17-1.24-50.17-11.15 0-17.34 24.77-36.54 48.31-37.78 4.34-.65 16.11 3.67 26.02 8.67z"/></svg>
