<svg xmlns="http://www.w3.org/2000/svg" width="200" height="31" fill="currentColor"><path d="M54.935 27.28V4.445h5.483v9.026h9.917V4.447h5.483V27.28h-5.483v-9.35h-9.921v9.353l-5.478-.002zm38.855-5.289c-.831 3.66-3.681 5.723-7.866 5.723-5.086 0-8.694-3.117-8.692-8.227 0-5.074 3.679-8.735 8.585-8.735 5.305 0 8.07 3.66 8.07 8.046v1.595H82.354c.145 2.146 1.73 3.369 3.752 3.369 1.802 0 2.922-.687 3.499-2.172l4.185.401zm-4.906-4.388c-.107-1.595-1.118-3.045-3.102-3.045-2.091 0-3.067 1.34-3.356 3.043l6.458.002zm15.584 1.236l6.385 8.446h-5.808l-3.534-4.784-3.572 4.781h-5.412l6.352-8.227-5.844-7.869h5.808l2.993 4.204 3.067-4.204h5.411l-5.846 7.652zm21.644 8.446V8.983h-7.896v-4.53h21.361v4.531h-8.006v18.304l-5.459-.002zm26.413-10.979a5.12 5.12 0 0 0-2.744-.653c-2.162 0-3.605 1.233-3.608 4.023v7.612h-5.195V11.193h5.195v2.938c.613-1.812 2.272-3.372 4.436-3.372.976 0 1.804.291 2.239.653l-.323 4.893zm12.553-5.11h5.222v16.091h-5.222v-2.499c-.866 1.812-2.67 2.935-5.086 2.935-4.329 0-5.697-2.974-5.697-6.417v-10.11h5.194v8.845c0 2.282.757 3.551 2.67 3.551s2.922-1.629 2.922-4.204l-.003-8.191zm11.256 10.731c.216 1.557 1.443 2.428 3.391 2.428 1.408 0 2.345-.508 2.345-1.376 0-.799-.505-1.233-1.803-1.45l-2.452-.401c-3.682-.579-5.656-1.855-5.656-5.039 0-3.117 2.708-5.327 6.999-5.327 4.545 0 7.251 2.032 7.576 5.485l-4.293.143c-.252-1.412-1.37-2.211-3.354-2.211-1.298 0-2.094.544-2.094 1.414 0 .651.506 1.052 1.299 1.159l3.102.544c3.501.546 5.521 2.103 5.521 5.184 0 3.372-2.848 5.246-7.216 5.246s-7.612-1.777-7.901-5.692l4.536-.107zm14.072-7.069h-2.238V11.67l1.156-.181c1.585-.291 2.055-1.123 2.452-2.609l.541-2.146h3.211v4.464h4.258v3.663h-4.258v6.703c0 1.378.648 1.958 1.875 1.958a6.37 6.37 0 0 0 2.597-.651v3.443c-1.187.906-2.561 1.412-4.654 1.412-2.597 0-4.942-1.123-4.942-4.748l.002-8.12zM43.659 5.976v1.345l-13.522 3.734h-.002l-8.12-2.242h-.368l-8.12 2.242h-.005L0 7.321V5.976L21.647 0h.368l21.644 5.976z"/><path d="M43.659 14.787v1.347l-13.531 3.734-8.113-2.242h-.368l-8.115 2.242L0 16.134v-1.347l13.522-3.732h.005l8.12 2.242h.368l8.12-2.242h.002l13.522 3.732z"/><path d="M43.659 23.603v1.345l-21.644 5.976h-.368L0 24.948v-1.345l13.531-3.734 8.115 2.239h.368l8.113-2.239 13.531 3.734z"/></svg>
