<svg xmlns="http://www.w3.org/2000/svg" viewBox="0 0 2000 742.9" fill="currentColor"><path d="M400.38 283.29h32.74v176.32h-32.74v-73.39h-67.89v73.39h-32.73V283.29h32.73V356h67.89zm524 113.16l47.13 63.16h-37.72L890.9 402H876v57.57h-32.74V283.29h53.53c23.85 0 37.48 9.79 44.73 18 9.49 10.47 14.53 24.82 14.53 41.48 0 16.27-5.17 30.93-14.56 41.28a50.59 50.59 0 0 1-17.14 12.4zm-5.26-75c-4.7-5.3-12.19-8-22.3-8H876V372h20.78c10 0 17.47-2.74 22.24-8.14 4.54-4.85 6.81-11.94 6.81-21.13.01-9.3-2.26-16.46-6.74-21.26zm124.44 138.14h32.75v-176.3h-32.75zm128-176.32V316h66L1156 459.61h139.9v-32.74h-81.47l81.47-143.58zm202.1 176.32h108.21V429.4h-75.47v-46.63h62.15v-30.21h-62.15v-39.28h75.46v-30h-108.21zm293.63-65.85l-82.89-110.47h-24v176.34h32.74V348.9l83.31 110.71h23.8V283.29h-33zm55.71-87.11h4.2v-20.25h7.25v-3.7h-18.7v3.7h7.25zm35.7 0h4.2v-23.95h-5.92l-6.54 16.12-6.5-16.12H1738v23.95h4.2v-18.14l7.32 18.14h1.8l7.36-18.14zM702.15 383A64.29 64.29 0 0 1 586 407.25a135.57 135.57 0 0 1 46.91-23.19c19.01-4.93 41.48-6.38 69.24-1.06zm-137.38 92a127.63 127.63 0 0 0 178-178l-21 32.88a92.64 92.64 0 0 1-124.1 124.19zm-13.23-73a92.65 92.65 0 0 1 129-113.64l33-20.78a127.63 127.63 0 0 0-177 179.78c18.29-33.54 46.26-54.44 71.08-65.76 49.95-22.77 95.62-10.32 95.62-10.32a64.18 64.18 0 0 0-128.36 0 64.73 64.73 0 0 0 .59 8.75S561.92 390 551.54 402z"/></svg>
