<svg xmlns="http://www.w3.org/2000/svg" width="85" height="26" fill="currentColor"><path d="M31.778 6.729v7.056h-7.01V7.641c0-.505-.41-.915-.915-.915H21.48v16.891c0 .505.41.915.915.915h2.373v-7.879h7.014v6.961c-.007.505.395.922.901.929h.014 2.373V7.641c0-.505-.41-.915-.915-.915h-2.377v.004zm13.921 4.414v8.465a2.17 2.17 0 0 1-1.059 1.882c-1.858 1.074-3.782-.272-3.782-2.038v-7.395c0-.505-.41-.915-.915-.915H37.57v8.613a5.05 5.05 0 0 0 5.029 5.036h1.349c2.779-.007 5.032-2.26 5.039-5.039v-7.695c0-.505-.41-.915-.915-.915h-2.373zm35.906 13.4h2.373V12.55c0-.505-.41-.915-.915-.915H80.69v11.986c-.004.505.403.918.908.922h.007zm2.423-15.306c.387-.935-.057-2.007-.992-2.395s-2.008.057-2.395.992.057 2.007.992 2.395 2.007-.057 2.395-.992zm-26.558 1.9c-3.443 0-6.261 2.461-6.261 5.905v1.861c0 3.443 2.818 5.891 6.261 5.891s6.261-2.447 6.261-5.891v-1.861c.004-3.443-2.815-5.905-6.261-5.905h0zm2.959 7.988c0 1.628-1.331 2.712-2.963 2.712s-2.96-1.084-2.96-2.712v-2.324c0-1.628 1.331-2.712 2.96-2.712s2.963 1.084 2.963 2.712v2.324zm11.785-7.988a6.74 6.74 0 0 0-2.977.675V7.658c0-.505-.41-.915-.915-.915h-2.373v12.159c0 3.443 2.818 5.89 6.261 5.89s6.261-2.447 6.261-5.89v-1.861c.004-3.443-2.808-5.905-6.258-5.905h0zm2.963 7.988c0 1.628-1.332 2.712-2.963 2.712s-2.959-1.084-2.959-2.712v-2.324c0-1.628 1.331-2.712 2.959-2.712s2.963 1.084 2.963 2.712v2.324zM11.543 8.189c0-3.588-1.748-6.678-3.08-7.681 0 0-.102-.057-.092.088-.109 6.932-3.652 8.811-5.597 11.34-4.492 5.841-.318 12.244 3.941 13.427 2.373.664-.551-1.172-.929-5.047-.463-4.676 5.756-8.25 5.756-12.127h0zm2.041 2.362c-.028-.018-.067-.032-.092.014-.074.872-.964 2.737-2.094 4.453-3.832 5.813-1.649 8.617-.42 10.125.713.872 0 0 1.78-.893a8.04 8.04 0 0 0 3.839-6.208c.35-4.132-2.129-6.735-3.012-7.49h0z"/></svg>
