<svg xmlns="http://www.w3.org/2000/svg" viewBox="0 0 2000 742.9" fill="currentColor"><path d="M663.06 451.15V321a24.2 24.2 0 0 1 24.21-24.2h1.78v154.35zm63.65 0V296.79h27.34l62.59 112v-112h.64A24.2 24.2 0 0 1 841.49 321v130.15h-27.34l-62.59-112v112zm196.67 3.75q-24.18 0-37.74-14.78-13.56-14.78-13.56-39.25h26q0 14.34 6.32 22.94 6.55 8.37 19 8.37 12.45 0 19-8.37 6.78-8.61 6.78-22.72V321a24.2 24.2 0 0 1 24.21-24.2h1.78v104.3q0 24.48-13.79 39.25-13.6 14.56-38 14.55zm87.03-158.11h91.28A22.71 22.71 0 0 1 1079 319.5h-42.59v43.66h65.3v22.72h-65.3v42.56h65.3v22.71h-91.28V296.79zm659.53 0h91.28a22.71 22.71 0 0 1-22.71 22.71h-42.58v43.66h65.29v22.72h-65.29v42.56h65.29v22.71h-91.28V296.79zm-462.02 158.1q-33.81 0-53.53-22.49-19.72-22.49-19.73-58.4 0-35.94 19.73-58.44 19.73-22.5 53.53-22.56 28.38 0 46.69 15.88 18.32 15.66 21.53 40.8h-5.81c-11.4 0-20.5-8.62-27.26-17.81a39.29 39.29 0 0 0-6.77-7.11q-10.87-9-28.18-9-23.14 0-36.22 15.87Q1159 347.28 1159 374q0 26.72 12.89 42.56 13.08 15.66 36.22 15.66 17.31 0 28.18-9a39.34 39.34 0 0 0 6.77-7.12c6.76-9.18 15.86-17.8 27.26-17.8h5.81q-3.21 25.14-21.53 41-18.3 15.59-46.68 15.59zm135.31-3.74V320.6h-45.86a23.81 23.81 0 0 1 23.81-23.81h94.13v23.81h-46.09v130.55zm105.06 0V321a24.2 24.2 0 0 1 24.21-24.2h1.77v154.35zm111.37 0l-52.42-154.36h10.57a24.19 24.19 0 0 1 23 16.83l31.22 97.62 31.22-97.62a24.21 24.21 0 0 1 23.06-16.83h10.57l-52.42 154.36zM277 268.24l6.11-7.21c.09-.11.3-.14.39-.25s.49-.38.68-.61l.19-.24a47.65 47.65 0 0 1 4.76-4.06 71.16 71.16 0 0 1 19.67-10.78c22.05-7.74 46.59-3 65.84 15.2 26.87 25.19 24.46 65.77 3 92.74-27.11 40.21-73.69 96.3-9.19 146.55 11.6 9 20.2 16.49 56.73 27-23.89 4.41-46 3-70.7-3.26-17.44-9.85-44.87-30.92-54.2-59.39-14.06-43.14 24.87-107.68 43.72-132.53 25.83-34.41-16-71.65-46.73-30.07-16.09 21.67-44.22 83-34.44 128.46 5.71 25.79 13.33 44.59 43.55 70.41A143.79 143.79 0 0 1 290 489c-70.19-65.45-62-166.56-13-220.76zm239 206.42l-6.11 7.21c-.09.11-.31.14-.4.25s-.49.38-.67.61l-.19.24a50 50 0 0 1-4.76 4.06 70.91 70.91 0 0 1-19.67 10.77c-22.05 7.75-46.58 3-65.83-15.19-26.87-25.19-24.47-65.77-3-92.74 27.1-40.21 73.68-96.3 9.19-146.55-11.6-9-20.2-16.49-56.74-27 23.9-4.4 46.05-3 70.71 3.27 17.44 9.85 44.86 30.92 54.19 59.39 14.1 43.18-24.82 107.72-43.64 132.57-25.82 34.41 16 71.64 46.74 30.07 16.08-21.67 44.22-83 34.44-128.46-5.72-25.79-13.34-44.59-43.55-70.41A144.69 144.69 0 0 1 503 254c70.22 65.35 62.08 166.46 13 220.66z"/></svg>
