<svg xmlns="http://www.w3.org/2000/svg" xmlns:xlink="http://www.w3.org/1999/xlink" width="180" height="34" fill="none"><g fill="currentColor"><use xlink:href="#B"/><path d="M30.487 30.518c.397-.397.397-1.041 0-1.439a1.02 1.02 0 0 0-1.439 0c-.397.397-.397 1.041 0 1.439a1.02 1.02 0 0 0 1.439 0z"/><use xlink:href="#C"/><use xlink:href="#D"/><use xlink:href="#E"/><use xlink:href="#F"/><use xlink:href="#G"/><use xlink:href="#C" x="-7.477" y="-7.478"/><path d="M2.542 2.539c.467-.467.467-1.225 0-1.692S1.317.379.85.847.382 2.072.85 2.539s1.225.467 1.692 0zm2.142 2.156a1.02 1.02 0 0 0 0-1.439c-.397-.398-1.041-.397-1.439 0s-.397 1.041 0 1.439 1.041.397 1.439 0z"/><use xlink:href="#C" x="-21.723" y="-21.711"/><use xlink:href="#D" x="-18.101" y="-18.102"/><use xlink:href="#E" x="-14.958" y="-14.966"/><use xlink:href="#F" x="-12.293" y="-12.303"/><use xlink:href="#G" x="-10.109" y="-10.123"/><use xlink:href="#C" x="-14.224" y="-14.207"/><use xlink:href="#B" x="-30.365" y="-0.004"/><path d="M4.674 30.486c.397-.397.397-1.041 0-1.439a1.02 1.02 0 0 0-1.439 0c-.397.397-.397 1.041 0 1.439s1.041.397 1.439 0z"/><use xlink:href="#C" x="-21.717" y="0.007"/><use xlink:href="#D" x="-18.102" y="-0.001"/><use xlink:href="#E" x="-14.961" y="-0.005"/><use xlink:href="#F" x="-12.299" y="-0.005"/><use xlink:href="#G" x="-10.095" y="0.015"/><use xlink:href="#C" x="-14.236" y="-7.469"/><use xlink:href="#B" x="0.003" y="-30.366"/><path d="M30.475 4.706c.397-.397.397-1.041 0-1.439s-1.041-.397-1.439 0a1.02 1.02 0 0 0 0 1.439c.397.397 1.041.397 1.439 0z"/><use xlink:href="#C" x="-0.006" y="-21.716"/><use xlink:href="#D" y="-18.102"/><use xlink:href="#E" x="0.004" y="-14.962"/><use xlink:href="#F" x="0.006" y="-12.298"/><use xlink:href="#G" x="0.008" y="-10.114"/><use xlink:href="#C" x="-7.486" y="-14.238"/><use xlink:href="#H"/><use xlink:href="#H" x="6.761"/><use xlink:href="#I"/><path d="M5.692 17.582c.397-.397.397-1.041 0-1.439s-1.041-.397-1.439 0-.397 1.041 0 1.439 1.041.397 1.439 0z"/><use xlink:href="#C" x="-19.805" y="-10.851"/><use xlink:href="#D" x="-15.388" y="-9.061"/><use xlink:href="#I" x="30.366"/><path d="M29.479 17.587c.397-.397.397-1.041 0-1.438s-1.041-.397-1.438 0-.397 1.041 0 1.438 1.041.397 1.438 0z"/><use xlink:href="#C" x="-1.917" y="-10.855"/><use xlink:href="#D" x="-2.732" y="-9.063"/><use xlink:href="#H" x="3.38" y="3.382"/><use xlink:href="#H" x="3.38" y="-3.381"/><use xlink:href="#I" x="15.168" y="15.2"/><path d="M17.583 29.5c.397-.397.397-1.041 0-1.439s-1.041-.397-1.438 0-.397 1.041 0 1.439 1.041.397 1.438 0z"/><use xlink:href="#C" x="-10.859" y="-1.911"/><use xlink:href="#D" x="-9.06" y="-2.712"/><path d="M16.861 2.898c.661 0 1.197-.536 1.197-1.197S17.522.505 16.861.505s-1.197.536-1.197 1.197.536 1.197 1.197 1.197zm.727 2.813c.397-.397.397-1.041 0-1.438a1.02 1.02 0 0 0-1.439 0c-.398.397-.397 1.041 0 1.438a1.02 1.02 0 0 0 1.439 0z"/><use xlink:href="#C" x="-10.863" y="-19.797"/><use xlink:href="#D" x="-9.061" y="-15.366"/><path d="M9.806 2.779c.591-.296.83-1.015.534-1.606S9.325.342 8.734.638s-.83 1.015-.534 1.606 1.015.83 1.606.534zm1.96 2.094a1.02 1.02 0 0 0-.639-1.289 1.02 1.02 0 0 0-1.289.639 1.02 1.02 0 0 0 .639 1.289 1.02 1.02 0 0 0 1.289-.639zm.981 2.398a.84.84 0 0 0-.53-1.059.84.84 0 0 0-1.059.531.84.84 0 0 0 .531 1.059.84.84 0 0 0 1.059-.531z"/><use xlink:href="#J"/><use xlink:href="#K"/><use xlink:href="#L"/><path d="M23.374 5.482a1.02 1.02 0 0 0 .644-1.286 1.02 1.02 0 0 0-1.286-.644 1.02 1.02 0 0 0-.644 1.286 1.02 1.02 0 0 0 1.286.644zm-1.193 2.196a.84.84 0 0 0 .526-1.061.84.84 0 0 0-1.061-.526.84.84 0 0 0-.526 1.061.84.84 0 0 0 1.061.526z"/><use xlink:href="#M"/><use xlink:href="#N"/><use xlink:href="#L" x="-15.196" y="30.372"/><path d="M10.988 30.228c.533-.177.822-.753.644-1.286s-.753-.822-1.286-.644a1.02 1.02 0 0 0-.644 1.286c.177.533.753.821 1.286.644zm1.229-2.692a.84.84 0 0 0 .531-1.059.84.84 0 0 0-1.059-.53.84.84 0 0 0-.53 1.059.84.84 0 0 0 1.059.531z"/><use xlink:href="#M" x="-7.634" y="15.284"/><use xlink:href="#N" x="-5.721" y="11.456"/><use xlink:href="#O"/><use xlink:href="#P"/><use xlink:href="#Q"/><use xlink:href="#J" x="7.634" y="15.307"/><use xlink:href="#K" x="5.744" y="11.469"/><use xlink:href="#O" x="-22.776" y="-7.603"/><path d="M5.595 23.525c.179-.532-.107-1.109-.639-1.289s-1.109.107-1.289.639a1.02 1.02 0 0 0 .639 1.289c.532.179 1.109-.107 1.289-.639z"/><use xlink:href="#Q" x="-14.789" y="-4.938"/><use xlink:href="#J" x="-3.836" y="11.468"/><use xlink:href="#K" x="-2.849" y="8.58"/><use xlink:href="#L" x="-22.793" y="7.569"/><path d="M4.826 11.671c.533-.177.821-.753.644-1.286s-.753-.822-1.286-.644a1.02 1.02 0 0 0-.644 1.286c.177.533.753.822 1.286.644zm2.456 1.087a.84.84 0 0 0 .531-1.059.84.84 0 0 0-1.059-.53.84.84 0 0 0-.531 1.059.84.84 0 0 0 1.059.531z"/><use xlink:href="#M" x="-11.458" y="3.825"/><use xlink:href="#N" x="-8.596" y="2.841"/><use xlink:href="#L" x="7.583" y="22.762"/><path d="M29.564 24.029c.533-.177.822-.753.644-1.286s-.753-.822-1.286-.644-.822.753-.644 1.286.753.822 1.286.644zm-2.569-1.425a.84.84 0 0 0 .531-1.059.84.84 0 0 0-1.059-.531.84.84 0 0 0-.53 1.059.84.84 0 0 0 1.059.531z"/><use xlink:href="#M" x="3.826" y="11.458"/><use xlink:href="#N" x="2.866" y="8.589"/><use xlink:href="#O" x="7.588" y="-22.801"/><use xlink:href="#P" x="6.163" y="-18.57"/><use xlink:href="#Q" x="4.912" y="-14.799"/><use xlink:href="#J" x="11.469" y="3.839"/><use xlink:href="#K" x="8.607" y="2.861"/><path d="M51.147 17.049l-4.907 4.996v8.826h-3.321V3.407h3.321v14.151L60.062 3.407h4.368L53.48 14.596l11.069 16.275H60.54l-9.394-13.822zm33.148 4.639H68.588c.179 2.124.897 3.74 2.094 4.907 1.227 1.167 2.782 1.735 4.697 1.735 1.526 0 2.782-.269 3.8-.778.957-.479 1.705-1.286 2.064-2.304l2.782 1.466a8.79 8.79 0 0 1-3.321 3.381c-1.376.778-3.171 1.167-5.325 1.167-3.141 0-5.595-.957-7.39-2.872s-2.663-4.577-2.693-7.958c0-3.381.868-6.043 2.573-7.958s4.129-2.872 7.27-2.872a9.28 9.28 0 0 1 5.026 1.286c1.376.838 2.513 2.034 3.201 3.5a10.93 10.93 0 0 1 1.077 4.966c0 .808-.03 1.586-.15 2.334zm-13.612-7.509c-1.137 1.077-1.795 2.603-2.064 4.577h12.625c-.209-1.945-.868-3.47-1.915-4.548s-2.453-1.645-4.188-1.645c-1.825-.03-3.321.509-4.458 1.615zm34.793-2.515c1.526 1.346 2.304 3.321 2.304 5.864v13.313h-3.321V18.694c0-2.154-.449-3.74-1.376-4.727s-2.184-1.466-3.74-1.436c-1.077 0-2.154.239-3.111.718-1.017.539-1.855 1.346-2.393 2.364-.628 1.107-.927 2.483-.927 4.129v11.069H89.59V9.988h2.902l.209 3.261a6.46 6.46 0 0 1 2.872-2.782c1.287-.598 2.693-.927 4.129-.897 2.304.06 4.248.748 5.774 2.094zm26.268 10.024h-15.707c.179 2.124.898 3.74 2.094 4.907 1.227 1.167 2.782 1.735 4.697 1.735 1.526 0 2.783-.269 3.8-.778.957-.479 1.705-1.286 2.064-2.304l2.782 1.466a8.79 8.79 0 0 1-3.321 3.381c-1.376.778-3.171 1.167-5.325 1.167-3.141 0-5.594-.957-7.389-2.872-1.765-1.915-2.663-4.577-2.693-7.958 0-3.381.868-6.043 2.573-7.958s4.129-2.872 7.27-2.872a9.28 9.28 0 0 1 5.026 1.286c1.376.838 2.513 2.034 3.201 3.5a10.93 10.93 0 0 1 1.077 4.966 11.98 11.98 0 0 1-.149 2.334zm-13.583-7.509c-1.137 1.077-1.825 2.603-2.064 4.577h12.625c-.21-1.945-.868-3.47-1.915-4.548s-2.453-1.645-4.188-1.645c-1.855-.03-3.321.509-4.458 1.615zm30.964 15.227c-1.376 1.257-3.171 1.885-5.385 1.885-1.705 0-3.081-.449-4.128-1.376-1.077-.927-1.616-2.334-1.646-4.188V12.951h-4.158v-2.872h4.158V5.083l3.321-.927v5.924h7.689v2.872h-7.689v12.206c0 .987.269 1.765.838 2.274.628.538 1.436.808 2.273.778a4.78 4.78 0 0 0 3.531-1.556l1.196 2.752zm3.291-24.054c-.478-.479-.718-1.137-.688-1.825 0-1.376 1.107-2.483 2.483-2.483a2.48 2.48 0 0 1 2.484 2.483c-.03 1.406-1.197 2.543-2.633 2.513-.569 0-1.167-.239-1.646-.688zm3.471 25.519h-3.321V10.049h3.321v20.822zm20.553-19.806c1.496 1.017 2.633 2.453 3.351 4.099l-3.172 1.496c-.897-2.752-2.722-4.129-5.534-4.129-2.095 0-3.71.688-4.877 2.094s-1.765 3.351-1.765 5.804c0 2.483.598 4.398 1.765 5.804s2.812 2.094 4.877 2.094c1.615 0 2.902-.359 3.889-1.107 1.017-.778 1.705-1.915 1.944-3.201L180 25.097a9.62 9.62 0 0 1-3.321 4.518c-1.496 1.077-3.321 1.616-5.505 1.616-3.141 0-5.594-.957-7.389-2.872-1.765-1.915-2.663-4.577-2.693-7.958 0-3.381.898-6.043 2.693-7.958s4.248-2.872 7.389-2.872c2.095.06 3.83.538 5.266 1.496z"/></g><defs ><path id="B" d="M32.904 32.907c.467-.467.467-1.225 0-1.692s-1.225-.467-1.692 0-.467 1.225 0 1.692 1.225.467 1.692 0z"/><path id="C" d="M28.309 28.322a.84.84 0 0 0 0-1.185.84.84 0 0 0-1.185 0 .84.84 0 0 0 0 1.185.84.84 0 0 0 1.185 0z"/><path id="D" d="M26.414 26.414a.69.69 0 0 0 0-.973.69.69 0 0 0-.973 0 .69.69 0 0 0 0 .973.69.69 0 0 0 .973 0z"/><path id="E" d="M24.694 24.719a.51.51 0 0 0 0-.719.51.51 0 0 0-.719 0 .51.51 0 0 0 0 .719.51.51 0 0 0 .719 0z"/><path id="F" d="M23.256 23.26a.33.33 0 0 0 0-.465.33.33 0 0 0-.465 0 .33.33 0 0 0 0 .465.33.33 0 0 0 .465 0z"/><path id="G" d="M22.037 22.064a.18.18 0 0 0 0-.254.18.18 0 0 0-.254 0 .18.18 0 0 0 0 .254.18.18 0 0 0 .254 0z"/><path id="H" d="M13.481 17.707a.84.84 0 0 0 .838-.838.84.84 0 0 0-.838-.838.84.84 0 0 0-.838.838.84.84 0 0 0 .838.838z"/><path id="I" d="M1.693 18.066c.661 0 1.197-.536 1.197-1.197s-.536-1.197-1.197-1.197-1.197.536-1.197 1.197.536 1.197 1.197 1.197z"/><path id="J" d="M13.717 9.432a.69.69 0 0 0-.436-.87.69.69 0 0 0-.87.436.69.69 0 0 0 .436.87.69.69 0 0 0 .87-.436z"/><path id="K" d="M14.471 11.305a.51.51 0 0 0-.322-.643.51.51 0 0 0-.643.322.51.51 0 0 0 .322.643.51.51 0 0 0 .643-.322z"/><path id="L" d="M25.546 2.241c.296-.591.057-1.31-.534-1.606s-1.31-.057-1.606.534-.057 1.31.534 1.606 1.31.057 1.606-.534z"/><path id="M" d="M20.908 9.897a.69.69 0 0 0 .436-.87.69.69 0 0 0-.87-.436.69.69 0 0 0-.436.87.69.69 0 0 0 .87.436z"/><path id="N" d="M19.895 11.64a.51.51 0 0 0 .322-.643.51.51 0 0 0-.643-.322.51.51 0 0 0-.322.643.51.51 0 0 0 .643.322z"/><path id="O" d="M25.007 33.143c.591-.296.83-1.015.534-1.606s-1.015-.83-1.606-.534-.83 1.015-.534 1.606 1.015.83 1.606.534z"/><path id="P" d="M24.032 29.567c.177-.533-.111-1.109-.644-1.286s-1.109.111-1.286.644.111 1.109.644 1.286 1.109-.111 1.286-.644z"/><path id="Q" d="M22.601 26.998a.84.84 0 0 0-.53-1.059.84.84 0 0 0-1.059.531.84.84 0 0 0 .531 1.059.84.84 0 0 0 1.059-.53z"/></defs></svg>
