<svg xmlns="http://www.w3.org/2000/svg" viewBox="0 0 2000 742.9" fill="currentColor"><path d="M583.92 444.75V306.82h29.49v62.47l46-62.47h34.1l-49.36 62.84 51.15 75.09h-35.54l-46.35-72.17v72.17zm125.02 0V306.82h30.62l61.05 80.27a62.36 62.36 0 0 1 5.8 9.56q3.15 6.18 6.55 14.56-1-6.12-1.51-12.15-.51-6.03-.45-15.06v-77.18h28.17v137.93h-28.95L747.48 363a59.9 59.9 0 0 1-5.75-9.56q-3.12-6.17-6.59-14.74c.69 3.95 1.18 7.95 1.5 12s.48 9.15.48 15.31v78.76zm161.48 0V306.82h29.49v137.93zm112.5-112.87v112.87h-29.59V331.88h-33.72v-25.06h97v25.06zm112.3 112.87V306.82h81.21v24.87h-51.72v28.36h51.72v25.06h-51.72v59.64zm100.34-130.39a15.74 15.74 0 0 1 15.64-15.64 15.37 15.37 0 0 1 11.16 4.57 14.9 14.9 0 0 1 4.66 11.07 15 15 0 0 1-4.66 11.11 15.3 15.3 0 0 1-11.16 4.62 14.9 14.9 0 0 1-11-4.71 15.24 15.24 0 0 1-4.64-11.02zm2.35 130.39v-92.43h26.76v92.43zm53.98 0v-92.43h26.29v14.52a49 49 0 0 1 15.59-13.34 39.86 39.86 0 0 1 18.51-4.28q10.76 0 18 3.62a26.87 26.87 0 0 1 11.54 11.07 29.89 29.89 0 0 1 3 8.72 93.32 93.32 0 0 1 .89 15.21v56.91h-26.85v-45.69q0-17.06-4-22.52-4-5.46-13.56-5.47a22.79 22.79 0 0 0-10.23 2.31 21.49 21.49 0 0 0-11.29 14.09c-.73 2.82-1.1 7.13-1.1 12.9v44.38zm211.89 0h-26l.38-13.29a35.2 35.2 0 0 1-13.16 12.86q-7.69 4.11-18.7 4.1-18.37 0-29.63-13.66-11.26-13.66-11.26-36.08 0-23.37 11.06-36.42 11.06-13.05 30.77-13a34.73 34.73 0 0 1 18 4.61 37.15 37.15 0 0 1 13 13.76v-15.31h25.43zm-24.49-46.36q0-12.43-6.27-19.69-6.27-7.26-16.91-7.25-10.92 0-17.19 7.21-6.27 7.21-6.27 19.73 0 12.54 6.18 19.51 6.18 6.97 17.1 7 11.11 0 17.24-7 6.13-7 6.12-19.51zm49.71 46.36v-92.43h26.28v14.52a49.08 49.08 0 0 1 15.6-13.34 39.8 39.8 0 0 1 18.51-4.28q10.72 0 18 3.62a26.92 26.92 0 0 1 11.61 11.07 29.89 29.89 0 0 1 3 8.72 92.18 92.18 0 0 1 .89 15.21v56.91H1556v-45.69q0-17.06-4-22.52-4-5.46-13.58-5.47a22.65 22.65 0 0 0-10.21 2.31 21.52 21.52 0 0 0-11.21 14.09c-.72 2.82-1.08 7.13-1.08 12.9v44.38zm187.42-2.75a42.85 42.85 0 0 1-11.49 4.85 52.54 52.54 0 0 1-13.18 1.55q-21.87 0-35.62-13.89-13.75-13.89-13.76-36.14 0-21.75 13.86-35.47 13.86-13.72 35.89-13.7a56.4 56.4 0 0 1 13.19 1.41 42.24 42.24 0 0 1 11.11 4.43l-.18 26.94a29.89 29.89 0 0 0-21.57-9q-11.31 0-18.09 6.92-6.78 6.92-6.79 18.33 0 11.69 6.93 18.61 6.93 6.92 18.7 6.92a27 27 0 0 0 11.54-2.36 27.45 27.45 0 0 0 9.28-7.34zm110.51-36.82h-69.43q1.61 10 7.26 14.93 5.65 4.93 15.36 4.95a26.63 26.63 0 0 0 12.67-2.83 23.5 23.5 0 0 0 8.9-8.57l21.67 10.83q-7.54 12.17-18.28 18-10.74 5.83-25.53 5.89-22.42 0-35.52-13.37-13.1-13.37-13.1-36 0-21.78 13.72-35.81 13.72-14.03 35.08-14 22.07 0 34.87 13.14 12.8 13.14 12.81 35.85c0 .81 0 1.71-.09 2.68l-.39 4.31zM1760.37 389q-1.12-8.76-6.36-13.24-5.24-4.48-14.28-4.48-9 0-14.46 4.48-5.46 4.48-6.92 13.24zm-1359.42 0l-48.61 78.45h-63.42l-57.56-96.67 5.93-10.67-7.76-15.66-16.94 27.04 66.97 113.13h81.93l48.09-77.54-8.63-18.08zm-52.2 55.97l8.32-15.92h-44.4l-56.61-99.67 30.49-53.93h10.76l10.2-17.17h-30.48l-39.74 70.49 65.88 116.2h45.58zm59.19-186.69h-81.93l-48.09 79.96 8.63 16.87 48.61-79.66h63.43l57.56 99.09-5.94 11.88 7.77 15.04 16.93-27.63-66.97-115.55zm-69.19 39.65l-8.32 15.92h44.4l56.61 99.67-30.49 53.93H390.2l-10.21 17.17h30.49l39.73-70.49-65.87-116.2h-45.59z"/></svg>
