<svg xmlns="http://www.w3.org/2000/svg" width="160" height="81" fill="currentColor"><path d="M0 31.943V48.9h1.97V35.883l4.644 9.78h1.618l4.714-9.78V48.9h1.97V31.943h-1.97L7.388 43.13 1.97 31.943H0zm23.149 0L17.027 48.9h2.252l4.855-14.213L29.129 48.9h2.04l-6.192-16.957h-1.829zm9.991 0V48.9h1.9V35.461L44.046 48.9h2.04V31.943h-2.04v13.298L35.04 31.943h-1.9zm26.596 0h-11.68v1.548h4.925V48.9h1.97V33.491h4.784v-1.548z"/><path fill-rule="evenodd" d="M61.847 31.943V48.9h1.9v-7.318h4.081l3.799 7.318h2.252l-3.87-7.318c1.149-.281 3.448-1.689 3.448-5.066s-2.299-4.456-3.448-4.573h-8.162zm1.759 1.689h6.087c.692.07 2.075.774 2.075 3.025s-1.383 3.143-2.075 3.307h-6.087v-6.332z"/><path d="M81.267 31.943L75.145 48.9h2.252l4.855-14.213L87.247 48.9h2.04l-6.192-16.957h-1.829z"/><path fill-rule="evenodd" d="M96.746 31.943V48.9h7.81c2.392 0 4.151-3.237 4.151-5.629v-6.192c0-3.602-2.814-5.136-4.151-5.136h-7.81zm1.618 1.689v13.58h5.513c1.805 0 2.93-1.9 2.93-3.166v-7.106c0-2.392-1.759-3.307-2.93-3.307h-5.513z"/><path d="M116.447 31.943L110.325 48.9h2.252l4.855-14.213 4.995 14.213h2.041l-6.192-16.957h-1.829z"/><path fill-rule="evenodd" d="M126.086 37.502c0-3.303 2.678-5.981 5.981-5.981a5.98 5.98 0 0 1 5.98 5.981v6.051a5.98 5.98 0 0 1-5.98 5.981c-3.303 0-5.981-2.678-5.981-5.981v-6.051zm1.83.013c0-2.3 1.858-4.164 4.151-4.164s4.151 1.864 4.151 4.164v6.025c0 2.3-1.858 4.164-4.151 4.164s-4.151-1.864-4.151-4.164v-6.025z"/><path d="M119.543 80.915c22.344 0 40.457-18.113 40.457-40.457S141.887 0 119.543 0c-14.431 0-27.098 7.556-34.259 18.927 3.398-5.113 13.657-15.761 27.504-17.449-6.379.829-21.136 6.567-29.129 22.88C98.294.502 120.668 1.456 130.026 4.916c15.38 4.573 26.597 18.818 26.597 35.682 0 20.556-16.665 38.065-37.221 38.065-13.268 0-26.094-6.413-32.999-16.722 1.407 3.002 3.448 5.691 4.292 6.661-2.298-2.51-7.303-8.359-8.936-11.68 6.178 14.439 18.575 23.993 37.784 23.993z"/></svg>
