<svg xmlns="http://www.w3.org/2000/svg" width="180" height="34" fill="currentColor"><path fill-rule="evenodd" d="M180 16.588c0 9.162-7.427 16.588-16.588 16.588h-16.588V16.588A16.59 16.59 0 0 1 163.412 0H180v16.588zm-6.529-11.294c.682 0 1.235.553 1.235 1.235v6c0 .682-.553 1.235-1.235 1.235h-19.059c-.682 0-1.236-.553-1.236-1.235.387-4.452 6.313-7.235 10.236-7.235h10.059zm-20.118 22.588c-.682 0-1.235-.553-1.235-1.235v-6c0-.682.553-1.235 1.235-1.235h19.059c.682 0 1.235.553 1.235 1.235-.727 4.458-6.065 7.235-10.235 7.235h-10.059z"/><path d="M44.824 4.765V1.059H24.353v20.824h20.471v-3.529H28.059v-5.118h10.412V9.882H28.059V4.765h16.765zm48.705-.177V1.059h-20.47v3.529h8.471v17.294h3.706V4.588h8.294zm24.353-3.529v20.824h-3.529v-8.647h-13.412v8.647h-3.353V1.059h3.353v8.824h13.412V1.059h3.529z"/><path fill-rule="evenodd" d="M121.765 11.471c0-5.75 4.661-10.412 10.411-10.412s10.412 4.662 10.412 10.412v10.412h-3.529v-6.529h-13.765v6.529h-3.529V11.471zm3.529 0c0-3.801 3.081-6.882 6.882-6.882s6.883 3.081 6.883 6.882h-13.765z"/><path d="M69.529 11.471c0-5.75-4.661-10.412-10.412-10.412H48.706v20.824h3.529V4.588h6.882c3.801 0 6.882 3.081 6.882 6.882v10.412h3.529V11.471zm-48.705 0c0-5.75-4.661-10.412-10.412-10.412H0v20.824h3.529V4.588H8.47v17.294h3.706V4.816c2.946.779 5.118 3.463 5.118 6.654v10.412h3.529V11.471z"/><path d="M74.118 25.987h4.46c1.65 0 2.688 1.222 2.688 2.395 0 1.609-1.405 2.554-2.688 2.554h-3.177v2.261h-1.283v-7.21zm1.222 3.911v-2.872h3.422c.6 0 1.466.535 1.466 1.405s-.855 1.467-1.466 1.467H75.34zm7.576-.306c0-1.991 1.614-3.605 3.605-3.605s3.605 1.614 3.605 3.605v3.605h-1.222v-2.261h-4.766v2.261h-1.222v-3.605zm1.222 0c0-1.316 1.067-2.383 2.383-2.383s2.383 1.067 2.383 2.383h-4.766zm7.577-3.605h5.744a2.19 2.19 0 0 1 1.466 2.016c0 1.173-.978 1.731-1.466 1.955l1.466 3.238h-1.466l-1.283-2.994h-3.177v2.994h-1.283v-7.21zm1.283 2.994v-1.894h3.972a.95.95 0 0 1 .855.917c0 .586-.489.978-.855.978h-3.972z" fill-rule="evenodd"/><path d="M107.647 27.313v-1.196h-7.059v1.196h2.921v5.862h1.278v-5.862h2.86zm8.824 2.333a3.53 3.53 0 0 0-3.53-3.529h-3.529v7.059h1.196v-5.862h2.333c1.289 0 2.333 1.045 2.333 2.333v3.529h1.197v-3.529zm8.823-2.273v-1.256h-7.412v7.059h7.412v-1.197h-6.07v-1.735h3.77v-1.137h-3.77v-1.735h6.07z"/><path fill-rule="evenodd" d="M126.665 25.987h5.744a2.19 2.19 0 0 1 1.466 2.016c0 1.173-.977 1.731-1.466 1.955l1.466 3.238h-1.466l-1.283-2.994h-3.178v2.994h-1.283v-7.21zm1.283 2.994v-1.894h3.972a.95.95 0 0 1 .856.917c0 .586-.489.978-.856.978h-3.972z"/><path d="M142.941 27.373v-1.256h-5.16c-.712 0-1.899.538-1.899 2.094 0 1.436 1.187 1.974 1.899 1.914h3.321c.617 0 .831.538.831.897 0 .658-.554.917-.831.957h-5.22v1.197h5.22c.594 0 1.839-.622 1.839-2.154s-1.127-2.034-1.839-2.034h-3.321c-.277 0-.89-.155-.89-.778s.613-.877.89-.837h5.16z"/></svg>
