<svg xmlns="http://www.w3.org/2000/svg" viewBox="0 0 2000 742.9" fill="currentColor"><rect x="311.84" y="202.03" width="24.52" height="338.84" rx="2.66"/><rect x="357.7" y="237.93" width="24.52" height="264.38" rx="2.66"/><rect x="403.59" y="262.95" width="24.52" height="261.97" rx="2.66"/><rect x="449.45" y="302.83" width="24.52" height="212.76" rx="2.66"/><rect x="495.34" y="338.73" width="24.52" height="200.79" rx="2.66"/><rect x="678.84" y="202.03" width="24.52" height="338.84" rx="2.66"/><rect x="632.95" y="237.93" width="24.52" height="264.38" rx="2.66"/><rect x="587.09" y="262.95" width="24.52" height="261.97" rx="2.66"/><rect x="541.2" y="302.86" width="24.52" height="212.76" rx="2.66"/><path d="M950.5 446l-.28-103.36-51.29 86.2h-9.3l-51.22-85.6V446h-19.52V304h16.61l59.17 99.74L953 304h16.61l.2 142zm155.84-47.23h-87.16a33.68 33.68 0 0 0 12.47 22.82 40.62 40.62 0 0 0 26.52 8.62 39.93 39.93 0 0 0 31-13l10.75 12.55a47 47 0 0 1-18.18 13.08 68.46 68.46 0 0 1-54.41-2.53 49.79 49.79 0 0 1-20.28-19.58 55.59 55.59 0 0 1-7.28-28.59 56.78 56.78 0 0 1 7-28.2 49.92 49.92 0 0 1 19.23-19.5 54.66 54.66 0 0 1 27.66-7 53.86 53.86 0 0 1 27.46 7A48.91 48.91 0 0 1 1100 364a59.81 59.81 0 0 1 6.8 28.78 57.59 57.59 0 0 1-.46 5.99zm-76.06-36.28a34.33 34.33 0 0 0-11 22.31h68.91a34.55 34.55 0 0 0-11.06-22.21 33.29 33.29 0 0 0-23.4-8.6 33.8 33.8 0 0 0-23.53 8.5zm163.83 77.22a29.34 29.34 0 0 1-10.54 5.58 44.47 44.47 0 0 1-13 1.93q-16.2 0-25.12-8.72-8.92-8.72-8.93-24.93v-59h-18.25v-16h18.23v-23.49h19.54v23.5h30.83v16h-30.83v58.16a18.82 18.82 0 0 0 4.37 13.36 16.2 16.2 0 0 0 12.47 4.67 23.47 23.47 0 0 0 15.21-5.07zm81.26 0a29.47 29.47 0 0 1-10.55 5.58 44.4 44.4 0 0 1-13 1.93q-16.23 0-25.15-8.72-8.92-8.72-8.93-24.93v-59h-18.23v-16h18.23v-23.49h19.42v23.5H1268v16h-30.81v58.16a18.86 18.86 0 0 0 4.36 13.36 16.18 16.18 0 0 0 12.45 4.67 23.46 23.46 0 0 0 15.21-5.07zm96.77-91.19q11.86 10.91 11.86 32.63V446h-18.43v-14.2a30.67 30.67 0 0 1-13.84 11.46 52.85 52.85 0 0 1-21.4 4q-18 0-28.88-8.69a27.91 27.91 0 0 1-10.9-23 28.21 28.21 0 0 1 10.34-22.82q10.35-8.64 32.84-8.62h30.8v-3.85q0-12.56-7.3-19.25c-4.84-4.46-12-6.69-21.47-6.67a56.91 56.91 0 0 0-18.61 3.15 48.21 48.21 0 0 0-15.42 8.42l-8.09-14.63a58.62 58.62 0 0 1 19.86-10.14 82.37 82.37 0 0 1 24.51-3.55q22.27-.02 34.13 10.91zm-19.37 78.74a28.48 28.48 0 0 0 11.77-14.09v-15h-30q-24.72 0-24.74 16.63a15 15 0 0 0 6.29 12.68 28.91 28.91 0 0 0 17.46 4.64 36.24 36.24 0 0 0 19.22-4.86zm67.29-131.63h19.47V446h-19.4zm153.21 103.14h-87.14a33.68 33.68 0 0 0 12.47 22.82 40.63 40.63 0 0 0 26.44 8.62 39.86 39.86 0 0 0 31.11-13l10.73 12.68a47 47 0 0 1-18.13 13 68.46 68.46 0 0 1-54.41-2.53 49.48 49.48 0 0 1-20.28-19.58 55.86 55.86 0 0 1-7.38-28.59 57.21 57.21 0 0 1 7-28.2 50.13 50.13 0 0 1 19.27-19.54 54.68 54.68 0 0 1 27.74-6.9 54 54 0 0 1 27.46 7 49 49 0 0 1 18.85 19.54 59.4 59.4 0 0 1 6.82 28.77 55.63 55.63 0 0 1-.55 5.91zm-76.06-36.28a34.46 34.46 0 0 0-11.06 22.31h68.91a34.5 34.5 0 0 0-11.06-22.21 36.27 36.27 0 0 0-46.8 0zm168.9 83.51l-31-41.15-31.45 41.15H1582l42.32-54.94-40.32-52.48h21.65l29.56 38.71 29.41-38.71H1686l-40.57 52.48 42.73 54.94z"/></svg>
