<svg xmlns="http://www.w3.org/2000/svg" viewBox="0 0 2000 742.9"><path d="M1708.3 408.9c-7.8-5.3-10.2 2.2-13.8 6.7-9.3 11.4-18 23.8-33.1 28.5-12.8 4-19.9-2.4-15.9-15 2.9-9.3 8-17.9 11.6-27 7.1-17.9 3-35.4-10-44.3-14.5-9.9-35.2-8.9-49 2.8-3.2 2.7-5.3 6.7-8.7 11.1-9.7-15.3-21.3-21.9-37.3-20.4-15.4 1.5-25.2 11.8-35.3 23.8-1.5-4-2.1-6.5-3.3-8.7-3.4-6.4-8.5-10.1-16.1-8.8-7.2 1.3-9.2 6.9-10.2 13.2-.6 3.8-2 7.5-1.9 11.3.6 22.1-10.7 38.3-25.9 52.7-5.2 4.9-10.4 11.3-18.4 7.6-7.2-3.3-8.8-11-8.8-18.2-.2-15.8.3-31.7.2-47.5-.1-15.3-8.5-22-23.4-18.1-4.8 1.2-8.7 2.6-14 .6-47.8-18.4-77.2.5-81.9 52.3-.4 4.4.1 8.9-4.2 11.8-17.4 11.6-34.9 23.2-56.9 23.8-7.7.2-15.5.3-21.2-9 16.1-8.2 32.9-15.3 45.7-28.2 10.4-10.4 16.5-21.8 10-36.7-6.7-15.3-18.3-22.2-35.1-22-33.8.4-59.8 24-63 59.2-.8 9-1.6 14.7-12.5 14-12.6-.8-7.2-9.6-7.6-15.8-.3-4.9.2-9.8.1-14.7-.9-32.3-30.1-51.2-60.1-38.5-7.8 3.3-14.7 8.8-23.8 14.4l16.5-93.3c2.2-11.6-1.1-20-13.1-22.2-12.2-2.3-17.9 4.4-19.4 16.3-5 37.9-13.9 75.6-14.7 113.5-.6 30.7-15.4 45.7-39.7 57-3.8 1.8-7.9 5.8-12.1 2.5-4.9-3.8-1.9-8.9-.6-13.6 3.5-12.6 7.7-25.1 9.9-38 5.2-30.7-14.6-47.2-44.4-38.1-12.3 3.8-21.9 11.6-32 19.3-3.9-8-6.5-16.6-17.2-15.7-9.9.8-10.8 9.1-13.7 16.2-5.4 13.3-13.4 25-24.8 34.1-4.3 3.4-8.9 6.4-15.1 4.1-6.9-2.6-5.7-8.4-6.1-13.7-1.8-23.1-13-37.1-35.3-44.1-27.2-8.6-54.6 1.1-67.3 23.7-15.4 27.4-12 64.7 7.5 82.3 26.7 24.2 70.3 16.1 89-16.2 2-3.4 1.3-12.1 9-8.3 12 6 22.2 2.6 33.6-5.8l-1.9 24.9c-.6 10.2 4.4 17.1 14.4 18.9 10.2 1.8 12.9-6 14.8-13.8.9-3.7 1-7.6 2-11.3 6.2-22.7 11.9-45.6 30.7-62 6-5.3 13.7-8.9 21.2-4.4 7.8 4.7 3.8 12.6 2.3 19.4-3.2 14.9-9.4 29.2-8.3 44.9 1.5 21.7 14.7 31.5 35.7 25.9 15.1-4 28.8-10.9 40.6-21 5.8-4.9 8.6-5.6 13.7 1.7 17.3 24.9 51.2 33.9 73 14.5 17.6-15.7 34.5-18.7 55.6-18.8 7.8 0 12.4.1 17.9 6.4 13.1 14.9 29.7 21.1 50.2 18.5 17.4-2.2 33.2-8.5 47.2-18 9.4-6.4 13.9-8.3 22.7 2.3 19.7 23.8 46.3 21.6 65.7-2.6 4.2-5.3 5.1-13.1 12.2-17 4 17.7 10.7 32.8 30.1 35.5 18.4 2.6 29-12.4 43-23-.5 13.6 4.3 23.7 16.7 23.4 13.3-.3 11.8-13.4 13.7-22.6.4-2.1 0-4.4.5-6.5 5.7-21.6 10-44 28.6-59.3 5.8-4.7 12.9-7.7 19.8-3.2 7.1 4.6 3.5 11.5 1.6 17.8-4.9 16.1-13.3 31.2-14.6 48.5-.9 12.8 1.3 24.9 16.1 25.4 13.3.4 13-12.5 14.1-22 1.9-17.6 7.6-34 15.5-49.7 4-8 9.8-14.6 17.6-19 5.4-3.1 11.6-4.7 16.9-.1 4.9 4.2 3.5 10.1 1.5 15.3-2.9 7.6-6.7 15-9.5 22.7-6.8 18.5-3.6 35.3 8 45.2 11.8 10 32 10.9 48.1 1.7 17.2-9.7 29.4-24.5 40.3-40.4 5.2-7.7 2.7-14.5-3.9-19.1zm-906.4 36.9c-13.3.1-24-15-23.9-33.9 0-18.4 10.8-31.3 26.4-31.5 14.5-.1 24.1 13.2 23.9 33.1-.1 17.5-12.2 32.2-26.4 32.3zm302.3.1c-13.2-.6-22-11.8-21.8-27.8.3-20.2 18-39.5 36.7-39.8 12-.2 21.1 11.8 21.3 28.3.3 20.8-17.5 40.1-36.2 39.3zm130-65.5c6.6-6.5 16.2-10.9 23.5-3.6 8.4 8.4-.9 14.3-7 19.6-8.6 7.4-16.8 15.3-29.8 21.7 2.3-15.7 3.9-28.4 13.3-37.7zm156.2 30.3c-3.8 10.2-8.4 20.2-16 28.2-4.6 4.9-9.8 8.5-17.4 5-11-5.1-17.8-22.5-14.6-38.4 2.9-14.5 11.3-23.1 24.3-24.5 21.7 0 30.4 11.8 23.7 29.7zm-866.1 7.2l-10.6-138.8c-.9-10.8-.8-22-5.3-32.1-5-11.3-12.4-12.9-19.7-3.6-5 6.3-8.7 13.8-12.1 21.2-17 36.9-28.9 75.9-45.2 118.3l-6.1-34.3c-5.6-34.5-14.1-68.4-24.5-101.7-2-6.5-5.1-12.8-13.1-12.8-8.6 0-12.1 6.4-14 13.7-.7 2.6-.9 5.4-1.6 8-13.6 54.5-26.7 109.3-50.4 160.6-6.4 13.9-13.4 27.6-27.6 35.8-5.9 3.4-11.7 7.9-8.2 15.6s10.9 8.3 18.4 6.7c15.5-3.1 26.6-12.2 35.1-25.1 15-22.6 24.5-47.5 33-72.9C378 360 382.9 343.3 389 324l23 106.7c1.4 6.6 2 13.3 10 15.2 7.7 1.8 12.4-3.1 16.8-8.1 7.1-7.9 11.3-17.3 14.6-27.3l33.8-100.1 11 143.5c.9 11.2 3.7 21 18.5 19.2 14.6-1.8 15.4-11.8 13.6-23-1.9-10.8-5.1-21.4-6-32.2z" fill="currentColor"/><g fill="currentColor"><path d="M598.1 392.6c6.1-22.3 24.7-39 47.8-42.7 4.2-.7 13.1-.7 17.8 0 18.9 2.8 35.5 15.1 43.8 32.3 3.8 7.8 5.4 14.1 5.8 22.1.2 5.1.2 5.2-.6 5.8s-5.4.6-58 .6c-50.5 0-58 .3-58.8-1.7-.2-.7.2-1.5.2-2.8 0-3.6.8-9.2 2-13.6z" fill-rule="evenodd"/><path d="M573.5 421.5c-1.8.7-2.8 2.6-2.2 4.4.5 1.5 1.6 2.3 3.3 2.3 3.2 0 4.7-3.8 2.3-5.9-.7-.7-2.5-1.1-3.4-.8zm12.8 0c-1 .4-2.2 1.7-2.4 2.7-.3 1.2.6 3.1 1.6 3.6.5.3 23 .4 69.4.4h68.7l1.1-1.1c1.7-1.7 1.2-4.5-.9-5.4-.7-.3-17-.4-69-.4l-68.5.2zm-40.4 16.2c-1.1.5-2.3 2.2-2.3 3.3 0 .6.4 1.5 1 2.1 2.2 2.3 5.9 1.1 5.9-2 0-1.7-.5-2.6-1.8-3.3-1.2-.5-1.7-.6-2.8-.1zm12.3.1c-2 1.1-2.4 3.6-.8 5.4l1.1 1.2 49.7.1 51.2-.3c2.6-.7 3.5-3.9 1.6-5.8l-1-1-50.5-.1-51.3.5zm15.2 15.9c-3.4 1.5-2.6 6.6 1 6.7 2.3.1 4.3-2 3.8-4-.6-2-3.1-3.4-4.8-2.7zm12.7 0c-1.1.4-2 1.6-2.2 2.8-.3 1.3.9 3.3 2.2 3.8.6.2 22.7.4 60.6.4 57.4 0 61.7.1 62.5-1.5.1-.3.2-.5.3-.9.5-1.2.5-1.4-.1-2.7-.4-.7-1.1-1.5-1.6-1.8-.7-.4-13.8-.4-61-.4l-60.7.3zM552 470.4c-2.6 2.1-.6 6.7 2.7 6.1 1.3-.2 2.4-1.1 2.8-2.3.4-1.1-.2-3.1-1.3-3.9-1-.7-3.2-.6-4.2.1zm12.7.1c-2 1.5-1.5 4.4.8 5.6 1.2.6 3.1.6 24.9.6 25.2 0 25.6 0 26.5-1.8.7-1.3.5-3.3-.5-4.3l-.9-.9h-25c-24.4.1-24.9.1-25.8.8zm61 .2c-1.3 1.3-1.2 3.5.1 4.8l1 1 50 .1c47.9.1 51.9.2 52.8-1.4.1-.3.2-.5.3-.9.5-1.1.5-1.5 0-2.5-.3-.7-.9-1.4-1.3-1.6-.5-.3-15.8-.4-51.5-.4h-50.7l-.7.9zm7 16.2c-2.4 2.4-.1 6.4 3.3 5.7 1.5-.3 2.6-1.8 2.6-3.5-.1-3-3.7-4.4-5.9-2.2zm12.8 0c-1.6 1.6-1.3 4 .8 5.3.9.6 3.8.6 32.1.6h31l1.2-.8c.7-.5 1.3-1.3 1.5-1.9.3-1.3-.4-3.3-1.5-3.8-.5-.3-10.4-.4-32.4-.4h-31.6l-1.1 1zm-49.4 15.4c-.4.2-.9 1-1.2 1.7-1.5 3.5 2.7 6.5 5.4 3.8 2.2-2.2.8-5.9-2.2-5.9-.8 0-1.7.2-2 .4zm12.4.3a3.43 3.43 0 0 0 .5 5.6c1 .6 3.6.6 32.3.6h31.2l1-.8c1.4-1.1 1.8-2.3 1.3-3.8-.1-.4-.2-.8-.4-1-.8-1.4-4.2-1.3-33.3-1.3-31.2 0-31.7 0-32.6.7z"/></g></svg>
