<svg xmlns="http://www.w3.org/2000/svg" viewBox="0 0 2000 742.9"><path d="M1104.3 375.5c3.4-11.1-.8-14.9-12-14.3-16 1-23.8 6.5-26.2 31.7-2.7 27.8-19.9 40.8-41.3 52-3.9 2-8 5.8-12.5 1.5-3.9-3.7-.7-7.8.3-11.4 4.6-16.2 10.6-32.1 9.9-49.4-1.1-24-16.2-35.1-39.5-28.7-13.2 3.6-24.3 10.7-34.1 20.5-1.2-2.4-2.2-4.2-2.9-6.1-2.8-7-7.6-11-15.4-9.6-7.4 1.3-9.3 7.3-10.6 13.5-2.8 14.3-2.1 30-18.2 38.3-11.9 6.1-18.4 3-19-10.2-.9-22-12.3-36.3-32.3-44.1-44.9-17.7-84.9 11.5-84.8 61.6.1 27.8 12.5 46.6 36.2 54.7 23.5 8.1 54.9.5 68-19.7 8.3-12.8 15.6-17.8 30.8-13.9 6.6 1.7 8.3 2.3 7.4 8.8-1.6 11.9-.9 24.7 13.7 26.5 16.3 2 13.7-13.6 15.9-23 4.6-20.1 10.2-39.7 22.8-56.3 6.6-8.8 15.8-17.8 27.1-11.8 10.6 5.6 2.7 16.5 1.1 25-2.9 15.9-10 31.4-4.7 48.1 4.9 15.5 14.7 20.9 30.5 17.2 17.3-4 31.8-13.6 46.2-24.3 3 12.3 3.8 25.5 19.8 26 16.2.4 17.5-13.1 21-24 5.2-16.1 11.7-31.7 22.4-45 3.1-3.9 6.3-10.2 11.6-8.7 6.8 1.9 2.6 8.8 2.6 13.4-.2 18.3 7.4 24.8 25.7 22.6 10.7-1.3 17.5-9.4 27.4-16.3-1.8 24.4-.2 45.8 23.6 55.2 25.8 10.1 42.7-6.2 58.7-23 27.5 34.6 40.7 35.2 69 2.1 4.1-4.7 6.7-3 10.3-1.2 11.3 5.8 23.1 6 34.3 1 7.6-3.4 11.4-1.5 16.5 4.4 14.6 17.1 33.1 22.7 55.5 17.6 18.4-4.1 33.8-13.6 49.8-23.8.8 2.8 1.3 4.8 1.8 6.7 2.6 9.9 6.3 18.8 18.7 19 13.3.2 17.1-9.7 19.8-19.8 5.1-19 13.2-36.5 25.5-51.9 2.4-3.1 5.2-7.6 9.8-6.1 5.3 1.8 2.5 7.1 2.3 10.8-.5 9-.8 18.3 8.3 23 9.7 5 20.2 3.6 29.3-2.3 5.1-3.3 9.9-7.5 13.9-12.1 9.8-11.2 7.5-20.1-7-23.2-8.8-1.9-10-4.2-8.5-12.7 3.2-17.6-4.9-25-22.9-21.6-19 3.6-30.8 17.2-42 31.6-3.7 4.8-4.8 12.1-13.5 14.7 2.6-10.1 5.4-18.7 7-27.6 1.1-6 7.8-13.9-.2-17.8-7.7-3.8-17.2-2.7-24.9 2.9-3.9 2.8-6.1 6.9-7.3 11.4l-8.8 37.3c-.9 4-.6 7.9-4.7 10.6-14.9 10.2-29.7 20.3-47.6 24.6-8 1.9-16.3 2.9-24.1-1.3-2.2-1.2-5.2-2.8-5.7-4.8-.9-3.8 3.1-4.4 5.8-5.6 15-6.9 29.5-14.8 40.5-27.4 9.3-10.5 11.6-22.5 5.7-35.6-5.6-12.4-15.4-18.9-28.9-19.6-19-1-35.6 4.9-48.4 19.2-11 12.3-16.9 26.9-16.6 43.4.2 6.8-3.7 9.2-8.8 10.5-6.9 1.7-14.6 5.2-20.8.1-4.7-3.8-.2-9.5 1.3-14.2 3.9-12.1 9.6-23.7 7.4-37.1-1.5-9.1-4.4-17.9-14.8-19-11.4-1.2-12.1 9.1-14.1 16.7-4.9 18.7-6 38.5-15.4 56-3.5 6.5-5.7 17.7-14 16.3-9.4-1.6-10.3-13.1-10.7-21.5-.7-17.4-.7-34.8-.3-52.2.3-10.6-4.1-17.2-14.5-17.9-11.4-.7-14.9 7.4-15.1 17.1-.2 11.3-1.5 22.8.5 33.7 2.6 13.6-3.2 22.5-12 30.9-7.6 7.2-16.1 15.1-27 10.2-10.7-4.8-6.6-16.2-5.8-24.8 1.3-13.7 4.8-27.2 6.4-40.9 1.4-11.6-5.2-18.4-16.4-20.2-11.4-1.8-13.6 6-14.7 15-1 8-2.6 15.9-3.8 23.2-15.1-1.8-24-7.2-19.6-24.9 1.8-7.1-4.8-12.9-13.5-13.6-10.3-.9-19.2 2.5-27.6 7.9-13.7 8.9-22.9 21.8-31.5 35.3-1.3 3.5-1.4 7.8-7.4 8.8m-270.1 36.2c-14.2.4-25.5-14.8-25.3-34.2.1-18.3 12.2-32.1 28.1-31.9 14 .2 24.8 14.5 24.9 33.2 0 17.4-12.6 32.5-27.7 32.9zm601.3-58.3c3.4-6.8 8.6-11.3 15.8-13.4 5.1-1.5 10.2-1.1 13.8 3.7 4.1 5.5.6 10.1-2.9 13.4-9.9 9.3-19.8 18.7-33.7 26.7.6-12.5 2.6-21.7 7-30.4zm-831.9 23.4L583 275.6c-.6-8.2-.9-16.5-4.7-23.9-5.3-10.7-12.8-11.9-19.8-2.2-5.9 8.2-10.8 17.4-14.5 26.9l-40.3 106.7c-4.4-2.9-3.1-6.3-3.6-9.1-6.8-41.4-15.1-82.4-28.2-122.4-2.1-6.3-4.6-11.8-12-12-7.8-.2-12.2 4.4-14 11.7l-1.8 7.4c-12.3 51.7-25.2 103.3-46 152.4-7.4 17.3-14.6 35-32.3 45.5-4.9 2.9-12.3 6.9-9.1 14 3.2 6.9 10.7 8.9 18.6 7.6 15.1-2.5 26.4-10.5 34.9-23.1 19.5-28.8 30.1-61.3 40.4-94 3-9.6 3.7-20.2 10.3-29.5l22 101.8c1.5 6.7.8 15.2 10.6 16.4 9 1.1 13.8-5.2 18.6-11.5 11.1-14.7 14.6-32.5 20.5-49.3 8.1-22.7 15.3-45.8 22.9-68.7 5.7 46.5 8.9 92.3 12.7 138.1.9 10.8 4 21.2 18.5 18.7 13.1-2.3 15.6-11.1 13.1-23-2.6-12.9-5.4-26-6.5-39.2zm631.9-70.7c9.6-.1 15.6-3.9 16-14.1.5-11.3-8.2-19.7-20.4-19.8-9.8-.1-16.8 6.3-17 15.5-.3 11.1 8.5 18.5 21.4 18.4z" fill="currentColor"/><g fill="currentColor"><path d="M737.9 421.6c.6-3.3.9-6.8.9-10.2 0-31.5-25.6-57.1-57.1-57.1s-57.1 25.6-57.1 57.1c0 3.5.3 6.9.9 10.2 0 0 18.3-10.4 31.3-11.7 12.8-1.3 23.1 5.6 32.7 11.9 7.8 5.2 15.1 10 23 10 17.5 0 25.4-10.2 25.4-10.2z" fill-rule="evenodd"/><path d="M712.4 446.8c-9.2 0-16.9-5.1-25.1-10.4-8.7-5.7-17.7-11.6-29.1-11.6-16.1 0-28.5 10.8-28.6 10.9-1.4 1.2-3.4 1.1-4.6-.3s-1.1-3.4.3-4.6c.6-.5 14.3-12.5 32.9-12.5 13.3 0 23.6 6.7 32.6 12.6 7.4 4.8 14.3 9.3 21.5 9.3 9.2 0 21.3-9.4 21.4-9.5 1.4-1.1 3.5-.9 4.6.5s.9 3.5-.5 4.6c-.5.5-13.8 11-25.4 11zm-82.5 24.3a3.33 3.33 0 0 1-3.3-3.3v-22.3a3.33 3.33 0 0 1 3.3-3.3 3.33 3.33 0 0 1 3.3 3.3v22.3c-.1 1.9-1.5 3.3-3.3 3.3zm14.6 0a3.33 3.33 0 0 1-3.3-3.3v-31.1a3.33 3.33 0 0 1 3.3-3.3 3.33 3.33 0 0 1 3.3 3.3v31.1c0 1.9-1.5 3.3-3.3 3.3zm14.6 32.3a3.33 3.33 0 0 1-3.3-3.3v-63.3a3.33 3.33 0 0 1 3.3-3.3 3.33 3.33 0 0 1 3.3 3.3v63.3c0 1.8-1.4 3.3-3.3 3.3zm14.7-35.2a3.33 3.33 0 0 1-3.3-3.3v-25.2a3.33 3.33 0 0 1 3.3-3.3 3.33 3.33 0 0 1 3.3 3.3v25.2a3.33 3.33 0 0 1-3.3 3.3zm14.6-11.7a3.33 3.33 0 0 1-3.3-3.3v-4.7a3.33 3.33 0 0 1 3.3-3.3 3.33 3.33 0 0 1 3.3 3.3v4.7a3.33 3.33 0 0 1-3.3 3.3zm14.7 32.2a3.33 3.33 0 0 1-3.3-3.3v-31.1a3.33 3.33 0 0 1 3.3-3.3 3.33 3.33 0 0 1 3.3 3.3v31.1a3.33 3.33 0 0 1-3.3 3.3zm14.6-2.9a3.33 3.33 0 0 1-3.3-3.3v-28.2a3.33 3.33 0 0 1 3.3-3.3 3.33 3.33 0 0 1 3.3 3.3v28.2a3.33 3.33 0 0 1-3.3 3.3zm14.7-17.6a3.33 3.33 0 0 1-3.3-3.3v-13.5a3.33 3.33 0 0 1 3.3-3.3 3.33 3.33 0 0 1 3.3 3.3v13.5c-.1 1.8-1.5 3.3-3.3 3.3z"/></g></svg>
