<svg xmlns="http://www.w3.org/2000/svg" xmlns:xlink="http://www.w3.org/1999/xlink" width="348" height="105" fill="none"><g clip-path="url(#A)" fill="currentColor"><path d="M114.679 81.192h7.245V53.999l11.159 27.193h5.843l11.101-27.193v27.193h7.245V40.169h-8.881l-12.386 30.299-12.386-30.299h-8.94v41.023z"/><use xlink:href="#B"/><path d="M209.988 81.661c8.939 0 15.366-6.446 15.366-15.237s-6.427-15.237-15.366-15.237c-8.997 0-15.424 6.447-15.424 15.237s6.427 15.237 15.424 15.237zm0-6.212c-4.908 0-8.179-3.692-8.179-9.025s3.271-9.025 8.179-9.025c4.85 0 8.121 3.692 8.121 9.025s-3.271 9.025-8.121 9.025zm19.047 5.743h7.187V65.076c0-4.337 2.804-7.501 6.835-7.501 3.681 0 6.135 2.813 6.135 6.857v16.761h7.186V62.907c0-6.915-4.323-11.721-10.984-11.721-4.206 0-7.536 1.817-9.172 5.04v-4.571h-7.187v29.537zm33.31 0h7.771V65.603h8.647c8.53 0 13.613-5.274 13.613-12.717s-5.083-12.717-13.613-12.717h-16.418v41.023zm7.771-22.094V46.674h8.296c4.557 0 6.427 2.93 6.427 6.212s-1.87 6.212-6.427 6.212h-8.296zm36.057-7.912c-7.654 0-12.62 4.571-12.971 10.432h6.427c.117-2.637 2.396-5.04 6.193-5.04s6.018 2.051 6.018 4.923c0 1.172-.701 1.993-2.162 1.993h-5.433c-6.602 0-11.043 3.575-11.043 9.318 0 5.099 3.973 8.849 9.816 8.849 4.207 0 7.595-1.934 8.822-4.864v4.395h7.07V62.204c0-6.681-5.259-11.018-12.737-11.018zm-1.461 25.141c-2.687 0-4.557-1.524-4.557-3.809 0-2.579 2.045-4.278 5.083-4.278h6.602v.469c0 4.454-2.629 7.619-7.128 7.619zM348 51.655h-7.362l-6.777 20.277-6.836-20.277h-7.303l10.75 29.537-4.148 11.955h6.836l4.557-13.362L348 51.655zM85.204 62.267C85.204 85.868 66.13 105 42.602 105S0 85.868 0 62.267s19.074-42.732 42.602-42.732 42.602 19.132 42.602 42.733zm25.561-47.005c0 8.429-6.812 15.262-15.215 15.262S80.335 23.69 80.335 15.262 87.147 0 95.55 0s15.215 6.833 15.215 15.262z"/></g><defs><clipPath id="A"><path fill="currentColor" d="M0 0h348v105H0z"/></clipPath><path id="B" d="M177.094 81.661c8.939 0 15.366-6.446 15.366-15.237s-6.427-15.237-15.366-15.237c-8.997 0-15.424 6.447-15.424 15.237s6.427 15.237 15.424 15.237zm0-6.212c-4.908 0-8.179-3.692-8.179-9.025s3.271-9.025 8.179-9.025c4.85 0 8.121 3.692 8.121 9.025s-3.271 9.025-8.121 9.025z"/></defs></svg>
