<svg xmlns="http://www.w3.org/2000/svg" width="2000" height="743" fill="currentColor"><path d="M708.642 277.31H690.39v200.622h18.252V277.31zm233.107 0h58.229v16.722h-19.806v183.9h-18.329v-183.9h-20.094V277.31zm-268.042 0v200.622h-19.116l-27.33-121.837v121.837h-17.935V277.31h16.495l29.952 132.907V277.31h17.934zm-396.882 0v200.622h-17.934V305.966l-22.132 171.966h-14.935l-21.776-171.966v171.966H182V277.31h30.535l17.488 120.95 16.487-120.95h30.315zm222.293 200.682c35.295-48.015 28.511-114.954-15.7-154.91s-111.493-39.957-155.704 0-50.996 106.895-15.701 154.91h24.148c-37.897-38.268-37.697-99.982.448-138.003s99.859-38.021 138.004 0 38.346 99.735.448 138.003h24.057zm566.932-.06h-17.84l-4.72-45.189h-26.71l-4.31 45.189h-18.189l20.529-200.607h27.83l23.41 200.607zm-24.25-63.305l-12.12-110.623-11.2 110.623h23.34-.02zm-193.752 37.824c.836 4.57-1.137 9.198-5.013 11.759s-8.906 2.561-12.782 0-5.848-7.189-5.012-11.759V300.912c-.836-4.57 1.136-9.197 5.012-11.759a11.59 11.59 0 0 1 12.782 0c3.875 2.561 5.849 7.189 5.013 11.759l-.046 7.244v37.824h18.351v-29.149-8.433c-.128-25.004-9.91-36.93-30.307-36.93-18.185 0-30.005 12.881-30.005 32.687v7.365V437.1v8.13c0 25.709 9.971 38.241 30.437 38.241s29.906-12.305 29.906-38.771v-72.989h-33.756v17.571h15.344v56.516l.076 6.653zm75.183-4.804v-52.16l-41.802-31.247v-58.297c0-22.913 10.312-34.626 30.497-34.626 20.511 0 29.838 11.623 29.952 37.384l.053 7.994v29.58h-18.7v-39.673l-.038-5.682c.869-4.546-1.073-9.17-4.928-11.732s-8.869-2.562-12.724 0-5.797 7.186-4.927 11.732v54.599l41.309 31.209v60.32c0 23.58-10.502 36.211-30.118 36.211-19.875 0-30.21-11.904-30.308-34.907v-7.933-39.264h19.124v51.303c-.869 4.546 1.073 9.17 4.928 11.732s8.869 2.562 12.724 0 5.797-7.186 4.927-11.732l.031-4.811zm-324.993 30.285h-18.29a60.78 60.78 0 0 1-3.713-21.564l-.152-10.259-.053-5.213v-39.165c.397-3.07-.567-6.161-2.64-8.461a10.61 10.61 0 0 0-8.142-3.503h-13.055v88.165h-17.904V277.325h23.367c26.247 0 36.37 9.6 36.37 35.263v37.681c0 16.881-2.819 23.958-16.033 28.83.189.053.371.136.553.189 12.479 3.637 15.275 8.335 15.419 24.201l.061 7.289v36.612a86.78 86.78 0 0 0 4.212 30.542zm-46.045-184.824v79.452h6.41c4.741.831 9.592-.663 13.043-4.018a14.99 14.99 0 0 0 4.384-12.924v-40.916c0-16.472-3.788-21.624-16.002-21.624h-7.835v.03zm582.567 184.824h-18.31a60.74 60.74 0 0 1-3.7-21.564l-.15-10.259-.07-5.205v-39.173a10.6 10.6 0 0 0-10.77-11.964h-13.04v88.165h-17.92V277.325h23.38c26.25 0 36.37 9.6 36.37 35.263v37.681c0 16.881-2.83 23.958-16.01 28.83.17.053.35.136.55.189 12.47 3.637 15.28 8.335 15.42 24.201l.05 7.289v36.612a86.45 86.45 0 0 0 4.2 30.542zm-46.04-184.824v79.452h6.43c4.73.815 9.57-.687 13.01-4.04a15 15 0 0 0 4.37-12.902v-40.916c0-16.472-3.79-21.624-16-21.624h-7.81v.03zm-299.3-15.798v200.622h-19.109l-27.33-121.837v121.837h-17.935V277.31h16.495l29.944 132.907V277.31h17.935z"/><path fill-rule="evenodd" d="M1191.37 482.66V281.065h10.87V482.66h-10.87zm120.2 0v-87.553c0-5.762-.18-11.432-.55-17.009s-1.44-10.549-3.21-14.917-4.55-7.9-8.36-10.596c-3.82-2.695-9.07-4.043-15.76-4.043-7.25 0-13.24 1.534-17.98 4.601s-8.41 7.017-11.02 11.85c-2.6 4.834-4.41 10.271-5.43 16.312-1.03 6.041-1.54 12.036-1.54 17.985v83.37h-10.31V374.753c0-6.878-.1-12.873-.28-17.985a347.18 347.18 0 0 0-.84-14.639h10.32l.55 23.98c3.16-9.109 8.14-15.847 14.92-20.216 6.79-4.368 14.27-6.552 22.45-6.552 7.43 0 13.57 1.208 18.4 3.625s8.69 5.762 11.57 10.038 4.88 9.248 6 14.917c1.11 5.67 1.67 11.85 1.67 18.542v96.197h-10.6zm115.47 0l-.56-21.749c-3.16 7.808-7.43 13.71-12.82 17.706s-12.55 5.995-21.47 5.995c-10.6 0-18.87-2.416-24.82-7.25s-10.41-10.967-13.38-18.402c-2.98-7.436-4.79-15.661-5.44-24.677s-.98-17.613-.98-25.792c0-7.807.52-15.8 1.54-23.979s3.07-15.615 6.13-22.307c3.07-6.692 7.48-12.176 13.25-16.451 5.76-4.275 13.47-6.413 23.14-6.413 10.41 0 18.17 2.463 23.28 7.389s8.69 11.107 10.74 18.542v-84.207h10.31v174.27c0 5.576.1 10.131.28 13.662l.84 13.663h-10.04zm-1.11-68.592c0-7.808-.24-15.661-.7-23.562-.47-7.9-1.81-14.963-4.04-21.191s-5.63-11.292-10.18-15.196c-4.56-3.904-10.83-5.855-18.82-5.855-8 0-14.27 1.998-18.82 5.994-4.56 3.997-7.95 8.969-10.18 14.918s-3.58 12.454-4.04 19.518c-.47 7.064-.7 13.756-.7 20.076 0 7.993.23 15.94.7 23.84.46 7.9 1.81 15.01 4.04 21.331s5.62 11.478 10.18 15.475c4.55 3.996 10.82 5.995 18.82 5.995 8.36 0 14.87-1.906 19.52-5.716 4.64-3.811 7.99-8.691 10.03-14.639 2.05-5.949 3.26-12.547 3.63-19.797s.56-14.313.56-21.191zm46.59-.558v10.317c0 6.506.33 12.919.98 19.239s2.09 11.99 4.32 17.009a28.98 28.98 0 0 0 10.18 12.268c4.55 3.161 10.73 4.741 18.54 4.741 10.41 0 17.94-2.556 22.58-7.668 4.65-5.112 7.53-12.129 8.65-21.052.18-.929.28-1.859.28-2.788v-2.789h10.59c0 1.487-.09 2.742-.28 3.765-.18 1.022-.37 2.277-.55 3.764-.75 5.205-2 9.991-3.77 14.36-1.76 4.368-4.27 8.132-7.53 11.292-3.25 3.16-7.29 5.623-12.13 7.389-4.83 1.766-10.78 2.649-17.84 2.649-9.85 0-17.71-1.719-23.56-5.158-5.86-3.439-10.36-8.133-13.53-14.081-3.16-5.949-5.25-12.919-6.27-20.913s-1.53-16.543-1.53-25.652.28-18.449.83-28.023c.56-9.573 2.28-18.263 5.16-26.07s7.39-14.221 13.53-19.24c6.13-5.019 14.87-7.528 26.21-7.528 9.66 0 17.33 1.905 23 5.716s9.9 8.644 12.69 14.499c2.78 5.856 4.55 12.176 5.29 18.961.75 6.785 1.12 13.244 1.12 19.378v15.615h-76.96zm66.09-16.172a159.53 159.53 0 0 0-.14-6.413c-.1-2.231-.24-4.183-.42-5.856-.37-4.833-1.07-9.48-2.09-13.941-1.03-4.462-2.7-8.412-5.02-11.851-2.33-3.439-5.39-6.18-9.2-8.225s-8.6-3.067-14.36-3.067c-5.58 0-10.37.929-14.36 2.788-4 1.859-7.35 4.461-10.04 7.807-2.7 3.346-4.79 7.203-6.28 11.572-1.48 4.368-2.5 9.062-3.06 14.081a188.59 188.59 0 0 0-.84 10.038 182.1 182.1 0 0 0-.28 10.316h66.09v-7.249zm98.73 85.322l-33.46-66.919-33.74 66.919h-11.99l39.88-75.284-33.74-65.247h12.27l28.72 57.439 29.55-57.439h11.71l-35.69 65.526 39.04 75.005h-12.55zm32.66-69.15v10.317c0 6.506.32 12.919.97 19.239s2.09 11.99 4.32 17.009c2.24 5.019 5.63 9.108 10.18 12.268 4.56 3.161 10.74 4.741 18.54 4.741 10.41 0 17.94-2.556 22.59-7.668s7.53-12.129 8.64-21.052a13.88 13.88 0 0 0 .28-2.788v-2.789h10.6c0 1.487-.1 2.742-.28 3.765-.19 1.022-.37 2.277-.56 3.764-.74 5.205-2 9.991-3.76 14.36-1.77 4.368-4.28 8.132-7.53 11.292s-7.3 5.623-12.13 7.389-10.78 2.649-17.85 2.649c-9.85 0-17.7-1.719-23.56-5.158-5.85-3.439-10.36-8.133-13.52-14.081s-5.25-12.919-6.27-20.913c-1.03-7.993-1.54-16.543-1.54-25.652s.28-18.449.84-28.023 2.28-18.263 5.16-26.07 7.39-14.221 13.52-19.24 14.87-7.528 26.21-7.528c9.67 0 17.33 1.905 23 5.716s9.9 8.644 12.69 14.499 4.56 12.176 5.3 18.961 1.11 13.244 1.11 19.378v15.615H1670zm66.08-16.172a159.53 159.53 0 0 0-.14-6.413c-.09-2.231-.23-4.183-.42-5.856-.37-4.833-1.07-9.48-2.09-13.941s-2.69-8.412-5.02-11.851c-2.32-3.439-5.39-6.18-9.2-8.225s-8.6-3.067-14.36-3.067c-5.58 0-10.36.929-14.36 2.788s-7.34 4.461-10.04 7.807c-2.69 3.346-4.78 7.203-6.27 11.572s-2.51 9.062-3.07 14.081c-.37 3.346-.65 6.692-.83 10.038a182.1 182.1 0 0 0-.28 10.316h66.08v-7.249zM1839 447.249c0 12.826-3.35 22.492-10.04 28.998s-15.98 9.759-27.88 9.759c-6.32 0-11.71-.836-16.17-2.509-4.47-1.673-8.18-3.997-11.16-6.971-2.97-2.974-5.25-6.506-6.83-10.596s-2.65-8.643-3.21-13.662c-.18-1.488-.27-3.114-.27-4.88v-4.879h10.31c0 1.301.05 2.834.14 4.6.1 1.766.23 3.393.42 4.88.93 7.621 3.35 13.755 7.25 18.403s10.32 6.97 19.24 6.97c8.74 0 15.52-2.463 20.35-7.389 4.84-4.926 7.25-11.85 7.25-20.773 0-7.621-1.67-13.755-5.02-18.402-3.34-4.648-9.01-9.109-17-13.384l-12.55-6.971c-3.53-2.045-6.93-4.136-10.18-6.274s-6.09-4.647-8.5-7.528c-2.42-2.882-4.32-6.181-5.72-9.899-1.39-3.718-2.09-8.086-2.09-13.105 0-10.781 3.25-19.146 9.76-25.095 6.5-5.948 15.15-8.922 25.93-8.922 20.82 0 32.34 10.409 34.58 31.229.18 1.301.27 2.788.27 4.461v3.346h-10.59v-4.182c0-1.859-.09-3.16-.28-3.904-.93-6.32-3.21-11.618-6.83-15.893-3.63-4.276-9.53-6.413-17.71-6.413-8.36 0-14.59 2.416-18.68 7.249s-6.13 10.782-6.13 17.845c0 6.692 1.81 12.176 5.43 16.451 3.63 4.276 8.69 8.272 15.2 11.99l12.27 6.971c3.53 2.045 7.02 4.182 10.45 6.413 3.44 2.231 6.51 4.787 9.21 7.668 2.69 2.881 4.83 6.274 6.41 10.177s2.37 8.644 2.37 14.221z"/></svg>
