<svg xmlns="http://www.w3.org/2000/svg" width="601" height="186" fill="currentColor"><path d="M379.3 57.2l-24.6 24.6-24.6-24.6c-1.8-1.8-4.7-1.8-6.6 0-1.8 1.8-1.8 4.7 0 6.6L350 90.3v35.2c0 2.6 2.1 4.6 4.6 4.6 2.6 0 4.6-2.1 4.6-4.6V90.3l26.5-26.5c1.8-1.8 1.8-4.7 0-6.6-1.6-1.8-4.6-1.8-6.4 0zm-74.2 0l-24.6 24.6L256 57.2c-1.8-1.8-4.7-1.8-6.6 0-.9.9-1.4 2.1-1.4 3.3v64.9c0 2.6 2.1 4.6 4.6 4.6 2.6 0 4.6-2.1 4.6-4.6V71.7l19.9 19.9c.9.9 2.1 1.4 3.3 1.4s2.4-.5 3.3-1.4l19.9-19.9v53.7c0 2.6 2.1 4.6 4.6 4.6 2.6 0 4.6-2.1 4.6-4.6V60.5c0-1.2-.5-2.4-1.4-3.3-1.6-1.8-4.5-1.8-6.3 0zm294.2 0c-1.8-1.8-4.7-1.8-6.6 0l-24.6 24.6-24.6-24.6c-1.8-1.8-4.7-1.8-6.6 0-1.8 1.8-1.8 4.7 0 6.6l26.5 26.5v35.2c0 2.6 2.1 4.6 4.6 4.6 2.6 0 4.6-2.1 4.6-4.6V90.3l26.5-26.5c2-1.9 2-4.8.2-6.6zm-77.5 31.1h-46.4c-2.6 0-4.6 2.1-4.6 4.6 0 2.6 2.1 4.6 4.6 4.6h46.4c2.6 0 4.6-2.1 4.6-4.6s-2.1-4.6-4.6-4.6zm0 32.5h-46.4c-2.6 0-4.6 2.1-4.6 4.6 0 2.6 2.1 4.6 4.6 4.6h46.4c2.6 0 4.6-2.1 4.6-4.6s-2.1-4.6-4.6-4.6zm-46.4-55.7h46.4c2.6 0 4.6-2.1 4.6-4.6 0-2.6-2.1-4.6-4.6-4.6h-46.4c-2.6 0-4.6 2.1-4.6 4.6-.1 2.5 2 4.6 4.6 4.6zm-65-9.3c-2.6 0-4.6 2.1-4.6 4.6v64.9c0 2.6 2.1 4.6 4.6 4.6 2.6 0 4.6-2.1 4.6-4.6V60.4c.1-2.5-2-4.6-4.6-4.6zm49.7 66.3l-29.2-29.2 29.2-29.2c1.8-1.8 1.8-4.7 0-6.6-1.8-1.8-4.7-1.8-6.6 0l-35.8 35.8 35.7 35.7c.8.8 2 1.4 3.3 1.4 2.6 0 4.6-2.1 4.6-4.6.2-1.3-.4-2.4-1.2-3.3z"/><path d="M424.354 86.367l-6.576 6.576 6.576 6.576 6.576-6.576-6.576-6.576zM155.3.2c-8.5 0-16.3 3.5-21.9 9.1L49.7 93l43.7 43.7L177.1 53c5.6-5.6 9.1-13.3 9.1-21.9A30.86 30.86 0 0 0 155.3.2z"/><path d="M155.3 185.7c-8.5 0-16.3-3.5-21.9-9.1L49.7 92.9l43.7-43.7 83.7 83.7c5.6 5.6 9.1 13.3 9.1 21.9a30.86 30.86 0 0 1-30.9 30.9z"/><path d="M93.442 49.169l-43.769 43.77 43.769 43.769 43.769-43.769L93.442 49.17zM62.5 31.1A30.86 30.86 0 0 1 31.6 62 30.86 30.86 0 0 1 .7 31.1 30.86 30.86 0 0 1 31.6.2c17 0 30.9 13.8 30.9 30.9zm123.7 0a30.9 30.9 0 1 1-61.8 0 30.9 30.9 0 1 1 61.8 0zM62.5 154.8a30.86 30.86 0 0 1-30.9 30.9 30.9 30.9 0 1 1 0-61.8c17 0 30.9 13.8 30.9 30.9z"/></svg>
