<svg xmlns="http://www.w3.org/2000/svg" viewBox="0 0 2000 742.9"><path d="M1000.7 286.7v169.9c0 1.4-1.1 2.6-2.5 2.6h-.1-17.8c-8.2-.1-15.8-4.2-20.4-11l-80.3-124 2.6 61.8v70.9c0 1.4-1.1 2.6-2.5 2.6h-.1-23.3c-1.4 0-2.6-1.1-2.6-2.5v-.1-170.3c0-1.3 1-2.6 2.6-2.6h17.5c8.2.1 15.8 4.2 20.4 11l80.2 123.6-2.6-61.8v-70.2c0-1.3 1-2.6 2.6-2.6h23.3c2 .1 3 1 3 2.7h0zm238.8 172.1h-24.6c-1.6 0-2.9-1.6-2.3-3.2l65.4-169.3c.6-1.3 1.9-2.3 3.2-2.3h31.1c1.6 0 2.9 1 3.2 2.3l65.7 169.3c.7 1.6-.6 3.2-2.3 3.2h-24.6c-1 0-1.9-.7-2.3-1.6L1299.4 318c-.6-1.9-3.9-1.9-4.5 0l-52.8 139.2c-.6 1-1.6 1.6-2.6 1.6zm313.3-3.9l-49.2-62.8c27.8-5.2 44-24 44-52.8 0-33-21.4-55.3-59.6-55.3h-68.6c-2 0-3.5 1.6-3.6 3.6 0 13 10.3 23.3 23.3 23.3h46.3c23 0 34 11.7 34 28.8s-10.7 28.8-34 28.8H1420c-2 0-3.5 1.6-3.6 3.6v84.2c0 1.3 1 2.6 2.6 2.6h23.3c1.4 0 2.6-1.1 2.6-2.5v-.1-62.5h26.9l42.7 55.7c4.5 6.1 11.7 9.4 19.4 9.4h17.8c1.4-.1 2.4-2.3 1.1-4zm-387.1-170.8h-108.4c-1.9 0-3.2 1.3-3.2 3.2 0 13 10.7 23.6 23.6 23.6h88c1.4 0 2.6-1.1 2.6-2.5v-.1-22c-.3-1.3-1.3-2.2-2.6-2.2zm0 147.9h-80.9c-1.4 0-2.6-1.1-2.6-2.5v-.1-43.7c0-1.3 1-2.6 2.6-2.6h74.8c1.4 0 2.6-1.1 2.6-2.5v-.1-22c0-1.4-1.1-2.6-2.5-2.6h-.1-102c-2 0-3.5 1.6-3.6 3.6V455c0 2 1.6 3.6 3.6 3.6h108.1c1.4 0 2.6-1.1 2.6-2.5v-.1-22c-.4-1.2-1.4-2-2.6-2zM680.2 240.7L619.4 331c-4.2 6.1 3.9 13.6 9.7 8.4l59.9-52.1c1.6-1.3 3.9-.3 3.9 2V452c0 2.3-2.9 3.2-4.2 1.6L507.4 236.8c-5.8-7.1-14.5-11.1-23.6-11h-6.5c-16.8 0-30.7 13.9-30.7 31.1V486c0 17.2 13.9 31.1 31.1 31.1 10.8 0 20.9-5.7 26.5-14.9l60.8-90.3c4.2-6.1-3.9-13.6-9.7-8.4l-59.9 51.8c-1.6 1.3-3.9.3-3.9-2V290.9c0-2.3 2.9-3.2 4.2-1.6L677 506.1c5.8 7.1 14.6 11 23.6 11h6.5c17.2 0 31.1-13.9 31.1-31.1V256.9c-.3-17.2-14.2-31-31.4-31.1-10.7 0-20.7 5.5-26.6 14.9z" fill="currentColor"/></svg>
