<svg xmlns="http://www.w3.org/2000/svg" viewBox="0 0 2000 742.9" fill="currentColor"><path d="M308.1 225.9V517h75V358.4h57.5zm218.1 0v158.6h-57.5L601.2 517V225.9zm302.6 77.3v87.9L711 303.2v150.4h32.3v-87.9l117.8 87.9V303.2zm62 150.4V303.2h130.7v27.6h-97v31.6h97V390h-97v36h97v27.6zm365.7 0l-64.7-150.4h37.7l47 117.1 47.2-117.1h36.5l-64.8 150.4zm398.9-108.1c-2.4-6.6-7.2-12.1-13.3-15.5-5.9-3.2-14.1-4.7-24.7-4.7-12 0-21.1 1.5-27.4 4.4s-9.5 7.2-9.5 12.8c-.3 4.7 1.9 9.2 5.8 11.8 3.9 2.5 10.9 4.6 21.2 6.1l31 4.9c18.4 2.9 31.9 8.1 40.5 15.5s12.9 17.5 12.9 30.5c0 14.6-6.2 26-18.7 34-12.4 8.1-30.2 12.1-53.2 12.1-16.7 0-30.6-2-41.6-5.9s-19.5-9.9-25.3-17.9-9.3-18.2-10.4-30.6h33.9c1.4 9.8 5.5 17.1 12.4 21.6 6.9 4.6 17.2 6.8 31 6.8 12.3 0 21.7-1.7 27.9-5 6.3-3.3 9.4-8.2 9.4-14.6.2-4.9-2.2-9.5-6.2-12.2-4.1-3-10.7-5.1-19.7-6.3l-25.3-3.6c-20.5-2.8-35.5-7.9-45-15.3s-14.2-17.7-14.2-31.1c-.1-8.6 2.9-16.9 8.4-23.4 5.6-6.6 13.8-11.7 24.5-15.3a125.32 125.32 0 0 1 38.5-5.4c20.5 0 36.4 3.4 47.6 10.2s18.6 17.5 22.1 32.1l-32.6 4z"/><path d="M1530.7 378.4c0 15.9-3.5 29.7-10.4 41.6-7.1 12-17.6 21.6-30.1 27.6-13.1 6.5-28.8 9.8-46.9 9.8-17.4 0-32.6-3.1-45.6-9.4-12.6-5.9-23.1-15.3-30.4-27.2-7.2-11.9-10.9-26-10.9-42.5 0-15.9 3.5-29.8 10.5-41.6 7.1-12 17.6-21.6 30.1-27.6 13.1-6.5 28.8-9.8 46.9-9.8 17.4 0 32.6 3.1 45.6 9.4 12.6 5.9 23.1 15.3 30.4 27.2 7.2 11.9 10.8 26.1 10.8 42.5m-35 0c0-16.3-4.6-28.9-13.7-37.9s-22-13.5-38.6-13.5c-16.4 0-29.2 4.5-38.4 13.6-9.1 9-13.7 21.7-13.7 37.8 0 16.3 4.6 28.9 13.7 37.9s22 13.5 38.6 13.5c16.4 0 29.2-4.5 38.3-13.6 9.2-9 13.8-21.6 13.8-37.8m-337.6 75.2l-32.9-56.3h-44v56.3h-32.5V303.2h74c42 0 63 15.7 63 47 0 10.1-2.4 18.5-7.1 25.3s-11.9 12-21.6 15.8l37.9 62.4-36.8-.1zm-37.9-82.1c11.1 0 19.3-1.7 24.5-5.2 5.3-3.4 7.9-8.9 7.9-16.3s-2.5-12.8-7.5-16-13.2-4.9-24.5-4.8h-39.4v42.4h39z"/></svg>
