<svg xmlns="http://www.w3.org/2000/svg" viewBox="0 0 2000 742.9" fill="currentColor"><path d="M942.3 384.1c.3-56.6 46.7-100.3 101.3-99.9 54.2.4 98.9 45.1 99 100 .1 56-46.1 101.2-102.1 100.1-53.1-1-98-44.2-98.2-100.2zm174.2.3c0-40.4-33.1-73.9-73.2-73.9-41.7 0-74.9 32.8-74.9 74.1 0 40.7 33.3 73.9 73.9 73.9 41 0 74.2-33.1 74.2-74.1zm171.1-90v19.4l6.4-4.2c13.2-8.5 27.4-14.8 43-17.2 15.8-2.5 31.4-2.4 46.2 4.5 21.1 9.7 33.6 26.4 37.6 49.2 1.3 7.5 1.6 15.2 1.7 22.9l.1 110.4v2.4h-29V479 369.3c0-7.4-.6-14.7-2.7-21.8-5.6-18.9-21.2-29.9-41.5-29-21.7 1-40.7 9.1-58 21.9-2.8 2.1-3.8 4.3-3.8 7.8l.1 130.7v3.1h-27.6v-2.6-174.8c0-1.9.5-2.7 2.5-3.2l25-7zM729.4 518c-34.5-.5-64.3-8.1-92.3-22.3-3.6-1.8-4.9-5.4-3.2-8.6 1.6-3.1 5.2-4.2 8.7-2.5 17.7 9 36.3 15.1 55.9 18.4 30.7 5.2 60.5 3 88.4-11.7 38.3-20.1 62-51.5 69.1-94.2 7.1-42-4.9-78.9-33.7-110.1-17.7-19.2-39.7-31.6-65.2-37.4-12.1-2.8-23.6-7-34.6-12.7-3.3-1.7-4.7-4.5-3.9-7.5 1.1-4.1 5.4-5.8 9.6-3.6 9.1 4.8 18.7 8.3 28.7 11 8.2 2.2 16.6 4.1 24.3 7.4 46.7 19.9 76.3 54.7 86.2 104.5 9.6 48.1-3.6 90.5-37.4 126-22.8 23.9-51 37.7-83.9 41.9-6.5.9-13.1 1.2-16.7 1.4zm108.1-142c-.4 52-37.6 96.9-88.6 106.7-12.4 2.4-24.7 2.1-37.1.7-42.5-4.7-81.4-19.8-117.9-41.5-3.6-2.1-4.8-5.3-3.4-8.5 1.6-3.6 5.6-4.5 9.6-2.4 11 5.9 21.9 12.1 33.2 17.4 21.8 10.1 44.4 17.6 68.3 21 10.4 1.5 20.8 3.1 31.3 2.6 23.5-1.2 44-9.8 61.1-25.9 17.5-16.3 27.7-36.6 30.1-60.4 2.7-26.7-4.8-50.5-21.8-71.2-14.4-17.6-33-28.3-55.2-33.3-19-4.3-36.7-12-53-22.7-6.5-4.3-12.7-9.1-18.9-13.9-3.3-2.6-3.7-6.5-1.3-9.3 2.4-2.7 6.1-2.8 9.2-.2 20.9 17.6 44.8 29.1 71.4 35.2 18.3 4.2 34.2 13.3 47.8 26.2 17.7 16.8 28.8 37.2 32.9 61.2 1.3 6.2 1.7 12.3 2.3 18.3zm376.8 105.8h-28.8V321.7l28.8-7.7v167.8zM770.8 372.1c-.2 11.1-3.1 20.9-11.5 28.3-7.5 6.6-16.6 8.8-26.3 8-4.1-.3-8.2-1.3-12.2-2.3-3.9-1-5.7-4.4-4.7-7.9 1.1-3.5 4.4-5.1 8.3-3.9 5.7 1.7 11.4 2.6 17.2 1.4 9-1.8 14.9-8.8 16.4-18.4 2-12.7-6.4-23.4-16.6-27.9-4.8-2.1-10.1-3.2-15.1-4.5-41.6-11.2-77.7-32.1-108.3-62.4-3-2.9-3.1-6.8-.5-9.3s6.3-2.3 9.2.5c31.4 31 68.7 51.3 111.7 61.5 17 4 28.1 14.8 31.8 32.3.4 1.4.4 3.1.6 4.6zm5.5-39.5c-1.3-.6-2.9-.9-3.8-1.8-10.2-9.9-22.8-14.6-36.4-18-35.4-8.9-66-26.5-92.4-51.7-2.2-2.1-3.4-4.4-2.4-7.4.8-2.4 2.5-3.8 5-4.1 2.4-.4 4.2.8 5.9 2.4 20.9 20.2 45.1 35.2 72.7 44.6 8.7 2.9 17.7 4.9 26.5 7.6 11.1 3.4 20.8 9.3 29.2 17.3 2 1.9 2.6 4.3 1.6 6.9-.8 2.4-3.1 3.8-5.9 4.2zm-43 112.8c-7.3 0-14.5-.9-21.6-2.8-3.8-1-5.9-4.1-5.1-7.4.8-3.6 4.1-5.5 8-4.6 7.7 1.9 15.6 2.9 23.5 2.2 21.8-2 38.8-11.7 48.6-31.9 2.1-4.4 3-9.5 3.9-14.3.8-4.2 3.3-6.7 7.2-6.3 3.7.5 5.7 3.6 5.2 7.8-3.2 24.7-17.4 41-39.5 51.2-9.6 4.5-19.7 6.2-30.2 6.1zM693.9 369c-.4-.1-1.5-.3-2.5-.7-34.5-13-65.7-31.4-92.6-56.8-1.3-1.2-2.5-2.6-3.2-4.1-1.1-2.6.1-5.5 2.3-7.1 2.4-1.6 5.4-1.4 7.6.6 5.9 5.1 11.5 10.4 17.5 15.2 21.8 17.4 46.1 30.4 72.1 40.4.7.3 1.4.5 2.1.9 2.7 1.3 4.1 4.2 3.3 7.1-.6 2.8-2.9 4.6-6.6 4.5zm-8.4 64.4c.1 4.4-3.9 7.3-8.5 5.9-5.9-1.8-11.7-3.7-17.4-5.8-28.3-10.3-54.5-24.8-79.1-42.1-3.3-2.3-4-6-1.9-9 2-2.9 5.8-3.4 9.2-1.1 18.7 13.1 38.3 24.9 59.4 33.8 11 4.6 22.4 8.3 33.6 12.4 2.8.9 4.6 3 4.7 5.9zm514.4-174.9c11.3 0 20.2 8.8 20.2 20 .1 11.2-8.9 20.2-20.1 20.2s-20.2-8.9-20.2-20c0-11.3 8.8-20.2 20.1-20.2zM659 393.4c-.5-.1-1.5-.3-2.3-.7-25.7-12-50.3-25.8-73.2-42.5-3.4-2.5-4.1-6.1-1.8-9.2 2.1-2.8 5.8-3.3 9-.9 22.3 16.2 46.2 29.6 71 41.3 3.3 1.6 4.7 4.1 4 7.2-.8 2.9-3.1 4.8-6.7 4.8zm135.5-27.6c-5.8 0-10.5-4.6-10.6-10.4s4.7-10.7 10.6-10.7a10.54 10.54 0 0 1 10.6 10.6c-.1 5.8-4.7 10.4-10.6 10.5zm-104.8 20.1c5.9 0 10.6 4.6 10.5 10.5 0 5.9-4.6 10.5-10.5 10.5s-10.6-4.6-10.6-10.4c-.1-6 4.6-10.6 10.6-10.6z"/></svg>
