<svg xmlns="http://www.w3.org/2000/svg" viewBox="0 0 2000 742.9" fill="currentColor"><path d="M847.78,423.22a51.43,51.43,0,0,0,26.06-6.54,45.65,45.65,0,0,0,17.74-18.21q6.34-11.69,6.34-26.93t-6.34-26.94a45.72,45.72,0,0,0-17.74-18.21,55.21,55.21,0,0,0-52.13,0A45.72,45.72,0,0,0,804,344.6q-6.35,11.68-6.34,26.94T804,398.47a45.65,45.65,0,0,0,17.74,18.21A51.45,51.45,0,0,0,847.78,423.22Zm0-14.46A32.5,32.5,0,0,1,830.23,404a31.58,31.58,0,0,1-11.79-13.27,46.41,46.41,0,0,1,0-38.41,31.58,31.58,0,0,1,11.79-13.27,34.78,34.78,0,0,1,35.09,0,31.51,31.51,0,0,1,11.79,13.27,46.41,46.41,0,0,1,0,38.41A31.51,31.51,0,0,1,865.32,404,32.49,32.49,0,0,1,847.78,408.76Zm85,13.27V283.41H916.56V422Zm55.7,1.19q22.2,0,33.9-16.83.2,7.73,4.36,11.68t13.87,4h8.92V407.18h-5q-6.75,0-6.74-7.33h0V356.29q0-17.62-10.61-27t-30-9.41q-18.24,0-29.63,8.32t-13.18,23.17h16.25A19.23,19.23,0,0,1,979.1,339q6.82-4.65,17.34-4.65,11.89,0,18.53,5.54t6.64,15.45h0v6.93H991.88q-19.82,0-30.23,8.12t-10.4,23.36q0,13.67,10.2,21.59T988.51,423.22Zm1.19-13.86q-10.11,0-16.06-4.56a14.46,14.46,0,0,1-5.94-12.08q0-16.83,22.59-16.83h31.32v4.95q0,12.87-8.52,20.7T989.7,409.36Zm81.67,13.86a11.17,11.17,0,0,0,8.12-3.07,11.73,11.73,0,0,0,0-16,12.29,12.29,0,0,0-16.25,0,11.73,11.73,0,0,0,0,16A11.18,11.18,0,0,0,1071.37,423.22ZM1169.81,303a10.16,10.16,0,1,0-7.53-3A10.2,10.2,0,0,0,1169.81,303Zm-49.75,119V335.89h41.62V422h16.26V321h-57.88V309.36q0-5.94,2.58-8.52c1.71-1.72,4.55-2.57,8.52-2.57h15.66V283.41h-16.65q-13.87,0-20.12,6.44t-6.25,19.9h0V321h-18.23v14.85h18.23V422Zm102,0V371.54q0-17,8.13-26.94t22.4-9.9q13.28,0,20.32,8.22t7,23.86h0V422h16.26V365.79q0-23.76-11.2-34.85t-29.64-11.09q-21.8,0-33.3,14.85h0L1219.89,321h-14.07V422Zm128.38,1.19q22.2,0,33.89-16.83.21,7.73,4.37,11.68t13.87,4h8.92V407.18h-5q-6.75,0-6.74-7.33h0V356.29q0-17.62-10.61-27t-30-9.41q-18.24,0-29.63,8.32t-13.18,23.17h16.25A19.26,19.26,0,0,1,1341,339q6.84-4.65,17.35-4.65,11.89,0,18.53,5.54t6.64,15.45h0v6.93h-29.73q-19.83,0-30.23,8.12t-10.41,23.36q0,13.67,10.21,21.59T1350.45,423.22Zm1.19-13.86q-10.11,0-16.06-4.56a14.46,14.46,0,0,1-5.94-12.08q0-16.83,22.59-16.83h31.32v4.95q0,12.87-8.52,20.7T1351.64,409.36ZM1440.17,422V371.54q0-17,8.13-26.94t22.4-9.9q13.27,0,20.32,8.22t7,23.86h0V422h16.26V365.79q0-23.76-11.2-34.85t-29.64-11.09q-21.79,0-33.3,14.85h0L1438,321h-14.07V422Zm140.47,1.19q18,0,29.73-9.6t14.87-26.44H1609a26.09,26.09,0,0,1-9.72,15.84q-7.53,5.75-18.63,5.74-14.46,0-23.49-10.39t-9-27q0-16.44,9-26.74t23.49-10.29q10.71,0,18.24,5.74a26.84,26.84,0,0,1,9.91,15.45h16.45q-3-16.63-14.57-26.14t-29.43-9.51a51.55,51.55,0,0,0-26,6.44,44.57,44.57,0,0,0-17.54,18.12q-6.24,11.68-6.25,26.93t6.15,27a44.8,44.8,0,0,0,17.24,18.31Q1566,423.22,1580.64,423.22Zm107.76,0q17.25,0,29.14-9.8a42,42,0,0,0,14.87-25.25H1716a26.2,26.2,0,0,1-10.21,15.15q-7.63,5.44-18.54,5.44-14.07,0-22.79-8.91t-9.12-23.76h0V374.7h78.5q.39-4.74.39-6.93-.39-14.65-6.54-25.54a41.7,41.7,0,0,0-16.85-16.64,51.27,51.27,0,0,0-24.58-5.74,48.19,48.19,0,0,0-25,6.44,44,44,0,0,0-17,18.12q-6,11.68-6,27.13,0,15.24,6.25,27A44.43,44.43,0,0,0,1662,416.78Q1673.34,423.22,1688.4,423.22Zm28.94-62h-61a28.65,28.65,0,0,1,9.91-19.61,30.07,30.07,0,0,1,20.22-7.52q12.88,0,21.31,7.13t9.61,20Z"/><path d="M476.82 489.11h39.53V253.79h-39.53v235.32zM352.13 315.72c-47.67 0-86.32 38.81-86.32 86.69s38.65 86.7 86.32 86.7 86.32-38.82 86.32-86.7-38.65-86.69-86.32-86.69m289.34-.01l-99.68 173.4h199.36l-99.68-173.4z" fill-rule="evenodd"/></svg>
