<svg xmlns="http://www.w3.org/2000/svg" width="200" height="41" fill="currentColor"><path d="M57.839 34.604c-.713 0-1.324-.151-1.832-.453s-.899-.731-1.173-1.286c-.268-.556-.401-1.218-.401-1.986 0-.762.134-1.42.401-1.976a3 3 0 0 1 1.173-1.286c.508-.302 1.118-.453 1.832-.453a3.88 3.88 0 0 1 1.379.237c.425.158.785.388 1.08.689l-.329.689c-.316-.295-.645-.508-.988-.638-.336-.137-.71-.206-1.122-.206-.816 0-1.44.257-1.873.772s-.648 1.238-.648 2.171c0 .94.216 1.667.648 2.181s1.056.772 1.873.772a3.08 3.08 0 0 0 1.122-.196 3.19 3.19 0 0 0 .988-.648l.329.689c-.295.295-.655.525-1.08.689a3.88 3.88 0 0 1-1.379.237zm4.705-.092l3.2-7.254h.72l3.2 7.254h-.875l-.803-1.852H64.21l-.792 1.852h-.875zm3.55-6.266L64.52 31.95h3.169l-1.574-3.704h-.021zm6.446 6.266v-7.254h2.871c.782 0 1.379.189 1.79.566.418.377.628.916.628 1.615 0 .693-.209 1.231-.628 1.616-.412.377-1.008.566-1.79.566h-2.027v2.891h-.844zm.844-3.601h1.924c1.125 0 1.687-.49 1.687-1.471 0-.988-.562-1.482-1.687-1.482h-1.924v2.953zm7.468 3.601v-7.254h.844v7.254h-.844zm6.213 0v-6.523h-2.634v-.73h6.122v.73h-2.634v6.523h-.854zm4.727 0l3.2-7.254h.72l3.2 7.254h-.875l-.803-1.852h-3.776l-.792 1.852h-.875zm3.55-6.266l-1.574 3.704h3.169l-1.574-3.704h-.021zm6.446 6.266v-7.254h.844v6.513h3.694v.741h-4.538zm21.023 0l3.2-7.254h.72l3.2 7.254h-.875l-.802-1.852h-3.776l-.793 1.852h-.874zm3.55-6.266l-1.575 3.704h3.169l-1.574-3.704h-.02zm6.446 6.266v-7.254h2.449c1.173 0 2.078.312 2.716.936.638.617.957 1.513.957 2.686s-.319 2.072-.957 2.696-1.543.936-2.716.936h-2.449zm.844-.72h1.543c1.893 0 2.84-.971 2.84-2.912 0-1.934-.947-2.902-2.84-2.902h-1.543v5.814zm10.696.72l-3.169-7.254h.906l2.665 6.184 2.654-6.184h.885l-3.179 7.254h-.762zm6.631 0v-7.254h.844v7.254h-.844zm6.78.092a5.15 5.15 0 0 1-1.544-.216c-.459-.151-.857-.367-1.193-.648l.298-.679c.35.268.717.467 1.101.597s.83.196 1.338.196c.617 0 1.073-.113 1.368-.34a1.1 1.1 0 0 0 .453-.916c0-.302-.11-.542-.33-.72-.212-.178-.572-.319-1.08-.422l-1.07-.216c-.645-.137-1.128-.36-1.451-.669-.315-.316-.473-.734-.473-1.255 0-.432.11-.809.329-1.132.227-.322.539-.573.936-.751s.858-.268 1.379-.268a3.81 3.81 0 0 1 1.358.237 2.83 2.83 0 0 1 1.06.659l-.298.659a2.93 2.93 0 0 0-.978-.607 3.23 3.23 0 0 0-1.152-.195c-.542 0-.974.127-1.296.381a1.18 1.18 0 0 0-.484.988c0 .329.099.59.298.782.206.192.539.333.998.422l1.07.226c.693.144 1.204.364 1.534.659.336.288.504.683.504 1.183 0 .405-.11.761-.329 1.07-.213.309-.522.549-.927.72-.397.172-.871.257-1.419.257zm8.83 0c-.672 0-1.259-.151-1.759-.453-.494-.309-.878-.741-1.153-1.297-.267-.556-.401-1.214-.401-1.976s.134-1.42.401-1.976a2.99 2.99 0 0 1 1.142-1.286c.501-.302 1.091-.453 1.77-.453.686 0 1.276.151 1.77.453a2.96 2.96 0 0 1 1.152 1.286c.275.549.412 1.204.412 1.965s-.137 1.423-.412 1.986c-.274.556-.662.988-1.162 1.297-.494.302-1.081.453-1.76.453zm0-.751c.775 0 1.376-.261 1.801-.782s.638-1.252.638-2.192-.213-1.667-.638-2.181c-.425-.521-1.026-.782-1.801-.782-.761 0-1.355.261-1.78.782-.425.514-.638 1.242-.638 2.181 0 .933.213 1.663.638 2.192.425.521 1.019.782 1.78.782zm6.643.659v-7.254h2.871c.782 0 1.379.182 1.79.545.419.364.628.881.628 1.554 0 .535-.148.974-.443 1.317-.288.343-.699.566-1.234.669.315.11.586.377.813.803l1.275 2.366h-.926l-1.255-2.325c-.158-.288-.34-.484-.545-.587s-.477-.154-.813-.154h-1.317v3.066h-.844zm.844-3.735h1.903c1.139 0 1.708-.473 1.708-1.42 0-.933-.569-1.399-1.708-1.399h-1.903v2.819zm9.529 3.735v-3.437l-2.778-3.817h.987l2.233 3.076 2.223-3.076h.957l-2.779 3.838v3.416h-.843zM58.733 21.865c-1.652 0-3.094-.326-4.325-.978-1.214-.667-2.158-1.601-2.833-2.802-.657-1.201-.986-2.624-.986-4.269s.329-3.069.986-4.269a6.81 6.81 0 0 1 2.807-2.78c1.231-.652 2.681-.978 4.35-.978 1.686 0 3.136.326 4.35.978a6.76 6.76 0 0 1 2.832 2.78c.674 1.186 1.012 2.602 1.012 4.247s-.337 3.076-1.012 4.292c-.674 1.201-1.627 2.135-2.858 2.802-1.214.652-2.655.978-4.325.978zm0-1.623c1.905 0 3.381-.563 4.426-1.69s1.568-2.706 1.568-4.736-.523-3.602-1.568-4.714c-1.045-1.127-2.521-1.69-4.426-1.69-1.871 0-3.33.563-4.375 1.69-1.045 1.112-1.568 2.683-1.568 4.714 0 2.016.523 3.595 1.568 4.736 1.045 1.127 2.504 1.69 4.375 1.69zm13.04 1.423V5.988h1.619L84.14 18.596V5.988h1.922v15.677h-1.568L73.72 9.012v12.653h-1.947zm19.859 0V5.988h11.254v1.534h-9.231v5.426h8.7v1.534h-8.7v5.648h9.231v1.534H91.632zm23.516 0V5.988h7.132c1.838 0 3.254.363 4.249 1.09 1.012.712 1.517 1.712 1.517 3.002 0 .86-.252 1.594-.758 2.201s-1.206 1.053-2.099 1.334c1.028.237 1.829.675 2.402 1.312.59.637.885 1.445.885 2.424 0 1.393-.514 2.461-1.542 3.202s-2.479 1.112-4.35 1.112h-7.436zm2.023-8.672h4.806c2.68 0 4.021-.919 4.021-2.757 0-1.853-1.341-2.78-4.021-2.78h-4.806v5.537zm0 7.205h5.21c2.698 0 4.047-.956 4.047-2.869s-1.349-2.869-4.047-2.869h-5.21v5.737zm16.206 1.467V5.988h2.074v14.076h9.079v1.601h-11.153zm21.442.2c-1.652 0-3.093-.326-4.324-.978a7.12 7.12 0 0 1-2.833-2.802c-.657-1.201-.986-2.624-.986-4.269s.329-3.069.986-4.269a6.81 6.81 0 0 1 2.807-2.78c1.231-.652 2.681-.978 4.35-.978 1.687 0 3.137.326 4.35.978a6.77 6.77 0 0 1 2.833 2.78c.674 1.186 1.012 2.602 1.012 4.247s-.338 3.076-1.012 4.292a7.07 7.07 0 0 1-2.858 2.802c-1.214.652-2.655.978-4.325.978zm0-1.623c1.906 0 3.381-.563 4.426-1.69s1.568-2.706 1.568-4.736-.522-3.602-1.568-4.714c-1.045-1.127-2.52-1.69-4.426-1.69-1.871 0-3.329.563-4.375 1.69-1.045 1.112-1.568 2.683-1.568 4.714 0 2.016.523 3.595 1.568 4.736 1.046 1.127 2.504 1.69 4.375 1.69zm20.754 1.623c-1.754 0-3.254-.326-4.502-.978a6.89 6.89 0 0 1-2.883-2.78c-.657-1.201-.986-2.631-.986-4.292 0-1.646.329-3.069.986-4.269.675-1.201 1.636-2.127 2.883-2.78s2.748-.978 4.502-.978c1.231 0 2.36.17 3.389.511 1.045.341 1.93.838 2.655 1.49l-.809 1.49c-.775-.637-1.585-1.097-2.428-1.379-.826-.296-1.745-.445-2.756-.445-2.007 0-3.541.556-4.603 1.668s-1.594 2.676-1.594 4.692c0 2.031.531 3.602 1.594 4.714s2.596 1.668 4.603 1.668c1.011 0 1.93-.141 2.756-.422.843-.297 1.653-.763 2.428-1.401l.809 1.49c-.725.637-1.61 1.134-2.655 1.49-1.029.341-2.158.511-3.389.511zm10.441-.2V5.988h2.074v7.116h.051l8.649-7.116h2.656l-9.307 7.627 9.863 8.05h-2.731l-9.13-7.383h-.051v7.383h-2.074zM40.086 0H0v40.086h15.648l-.857-.858H1.072V1.072h38.156v18.649l.858.858V0zM24.652 40.086h15.434V28.403l-.858.858v9.968H25.509l-.857.858zm-4.502.857c3.315 0 6.002-2.687 6.002-6.002a5.99 5.99 0 0 0-.394-2.144l9.041-5.466c.719.728 1.718 1.179 2.822 1.179 2.19 0 3.966-1.775 3.966-3.966s-1.776-3.966-3.966-3.966a3.95 3.95 0 0 0-2.358.777l-6.949-5.707a3 3 0 1 0-5.805-1.072 3 3 0 0 0 3.001 3.001c.591 0 1.143-.171 1.608-.467l6.927 5.718a3.95 3.95 0 0 0-.389 1.715 3.97 3.97 0 0 0 .147 1.072l-9.054 5.466a5.99 5.99 0 0 0-4.598-2.144c-3.315 0-6.002 2.687-6.002 6.002s2.687 6.002 6.002 6.002z"/><circle cx="115.005" cy="30.76" r="1.179"/></svg>
