<svg xmlns="http://www.w3.org/2000/svg" viewBox="0 0 2000 742.9" fill="currentColor"><path d="M1266.87 229.35v71.59h-.87v12.4h.89v29.21h-.89v12.39h.89v29.24h-.89v12.39h.89v29.24h-.89v12.39h.89v75.35h278.4v-284.2zM1336 481.73h-17.81v-41.49H1336zm0-55.76h-17.81v-30.82H1336zm56.33 12.61h-54.56v-10.41h54.56zm3.09-45.39h-57.65v-10.41h57.65zm2.81-69.23a53.24 53.24 0 0 1-3.23 11.94 39.6 39.6 0 0 1-5.88 10 34 34 0 0 1-8.82 7.62 44.47 44.47 0 0 1-12.21 4.86 66 66 0 0 1-15.91 1.71h-34.25v-98.98h35.33a64.87 64.87 0 0 1 15.58 1.69 42.08 42.08 0 0 1 11.91 4.86 33.23 33.23 0 0 1 8.64 7.56 38.5 38.5 0 0 1 5.71 9.93 52.51 52.51 0 0 1 3.17 11.88 20.34 20.34 0 0 1 .32 4.42h-14.06a13 13 0 0 1-.16-2.49 46 46 0 0 0-2.49-9.79 29.61 29.61 0 0 0-4.4-7.73 24.11 24.11 0 0 0-6.44-5.63 30.33 30.33 0 0 0-8.72-3.41 49 49 0 0 0-11.13-1.15h-15.42v78.67H1351a47.06 47.06 0 0 0 11-1.15 30 30 0 0 0 8.66-3.41 23.77 23.77 0 0 0 6.49-5.58 28.45 28.45 0 0 0 4.46-7.67 45.83 45.83 0 0 0 2.68-9.71c.21-1.42.19-3.14.32-4.66h14l-.42 6.26zM1499.26 392h-29.56v68.64h1.64V472h27.92v9.71h-72.2V472h26.85v-66.1h5.6v-12.23h-5.6V392h-26.85v-9.26h72.2zm0-32h-70.35v-43.12h16.92v32.83h53.43zm-51.17-45.36v-10.32h46.61v10.38zm51.17-43.18h-53.43v30.79h-16.92v-41.2h70.35zm-906.04 44.16a68.87 68.87 0 0 0-9.12-17.09 54.33 54.33 0 0 0-13.41-13 62.26 62.26 0 0 0-18.45-8.26 105.78 105.78 0 0 0-25.62-2.89 89.83 89.83 0 0 0-23.87 2.92 62.84 62.84 0 0 0-18.48 8.32 54.47 54.47 0 0 0-13.63 13 70 70 0 0 0-9.12 17.14 99.89 99.89 0 0 0-5.15 20.58 162.9 162.9 0 0 0-1.64 23.36 166.72 166.72 0 0 0 1.61 23.31 98.21 98.21 0 0 0 5.1 20.46 71 71 0 0 0 9.09 17 54.4 54.4 0 0 0 13.41 13 62.73 62.73 0 0 0 18.4 8.26 90.13 90.13 0 0 0 23.74 2.9 105.33 105.33 0 0 0 25.75-2.93 64.27 64.27 0 0 0 18.59-8.28 53.83 53.83 0 0 0 13.63-13 70.54 70.54 0 0 0 9.17-17.14 97.55 97.55 0 0 0 5.21-20.6 163.41 163.41 0 0 0 1.63-23.39 161.71 161.71 0 0 0-1.63-23.26 101 101 0 0 0-5.21-20.41zm-17.94 62.52a89.56 89.56 0 0 1-3.49 16.34 59.15 59.15 0 0 1-6.14 13.41 41.15 41.15 0 0 1-9.07 10.22 39.54 39.54 0 0 1-12.34 6.52 65.26 65.26 0 0 1-17.75 2.28 52.56 52.56 0 0 1-16.1-2.28 39.69 39.69 0 0 1-12.39-6.52 40.61 40.61 0 0 1-9.12-10.22 59.35 59.35 0 0 1-6.2-13.41 87.51 87.51 0 0 1-3.46-16.34 158.1 158.1 0 0 1 0-37.15 86.59 86.59 0 0 1 3.46-16.25 59 59 0 0 1 6.2-13.41 40.44 40.44 0 0 1 9.12-10.22 38.81 38.81 0 0 1 12.39-6.5 51.63 51.63 0 0 1 16.1-2.3 64 64 0 0 1 17.73 2.3 38.66 38.66 0 0 1 12.36 6.5 41 41 0 0 1 9.07 10.22 59 59 0 0 1 6.14 13.41 88.44 88.44 0 0 1 3.49 16.26 161.39 161.39 0 0 1 0 37.14zm24.7-100.99h22.67v20.95h-22.67zm143.19.03l-19.59-.48h-46.83v75.91H706v-59h30a31.62 31.62 0 0 1 31.52 31.6c0 17.36-12.26 30.37-31.46 31.44 0 0-5.21.27-7.41.27h-21v16.74h20.33c7.09 0 14.22-.43 14.22-.43 31.25-1.85 48.9-21.46 48.9-48s-18.99-46.5-47.93-48.05zm-66.42 99.25h29.29v66.09h-29.29zm201.2-2.79H850.3v68.85h107.64v-17.38h-79.99v-51.47zm2.93-22.72h64.75v17.41h-64.75zm0-74.22h77.06v17.44h-77.06zm-30.58 19.09h27.65v51.1H850.3zm280.2-19.09v122.79l-82.43-122.79h-24.25v165.79h27.31V318.94l82.56 123.55h24.06V276.7h-27.25z"/></svg>
