<svg xmlns="http://www.w3.org/2000/svg" viewBox="0 0 2000 742.9" fill="currentColor"><path d="M355.11 389.69c-2.36 4.71-4.71 9.42-8.24 12.95a42.14 42.14 0 0 1-11.77 8.23 34.92 34.92 0 0 1-30.6 0 42.24 42.24 0 0 1-11.76-8.23c-3.53-3.53-5.89-8.24-8.24-12.95a69.28 69.28 0 0 1-2.36-16.47c0-5.89 1.18-10.6 2.36-16.48a41.39 41.39 0 0 1 20-20 34.92 34.92 0 0 1 30.6 0 42.38 42.38 0 0 1 11.77 8.26c3.53 3.53 5.88 8.24 8.24 12.95 1.17 4.7 2.35 9.41 2.35 15.3a69.82 69.82 0 0 1-2.35 16.47m16.47-67.08c-7.06-5.88-14.12-10.59-23.53-12.94-8.24-3.53-17.66-4.71-28.25-4.71s-20 1.18-28.24 4.71c-9.42 2.35-16.48 7.06-23.54 12.94-5.88 5.89-10.59 14.12-15.3 22.36s-4.7 17.65-4.7 28.25a71.11 71.11 0 0 0 5.88 28.24c3.53 8.24 8.24 16.47 15.3 22.36 5.88 5.88 14.12 10.59 22.36 14.12s18.83 4.71 28.24 4.71c10.59 0 20-1.18 28.25-4.71s16.47-8.24 22.36-14.12a75.47 75.47 0 0 0 15.29-22.36 70.67 70.67 0 0 0 0-56.49c-3.53-8.24-8.23-16.47-14.12-22.36m96.5 74.11c0 5.89-1.18 10.59-4.71 14.12-2.35 3.53-7.06 5.89-11.76 5.89-2.36 0-4.71 0-7.07-1.18-1.17-1.18-3.53-2.35-4.7-4.71s-2.36-3.53-2.36-5.88v-57.66h-30.59V405c0 4.71 1.17 9.41 2.35 14.12s3.53 8.24 5.88 11.77 5.89 5.88 10.6 8.24a32.57 32.57 0 0 0 15.28 3.52c3.53 0 5.89 0 9.42-1.18 2.35-1.18 5.88-2.35 8.24-3.53a25.79 25.79 0 0 0 5.88-4.71c2.35-2.35 3.53-3.53 4.71-5.88h0v12.94h29.42v-93h-30.6zm87.08-74.14h-30.59v24.72h-14.12v22.35h15.29v38.84c0 4.71 0 9.41 1.18 14.12 1.18 3.53 3.53 7.06 5.89 10.59a40.7 40.7 0 0 0 10.59 7.06c4.7 2.36 9.41 2.36 15.3 2.36 3.53 0 5.88 0 9.41-1.18a17.11 17.11 0 0 0 8.24-2.35v-22.36c-1.18 0-2.36 1.17-4.71 1.17h-4.71c-4.7 0-7.06-1.17-9.41-3.53a22.09 22.09 0 0 1-2.36-9.41v-35.31h22.36v-22.35h-22.36zm36.49-23.53h30.6V440.3h-30.6zm80.02 5.92c-1.18-1.18-3.53-2.35-5.88-3.53s-4.71-1.18-7.07-1.18-4.7 0-7.06 1.18-3.53 2.35-5.88 3.53c-1.18 1.18-2.35 3.53-3.53 5.88a12.79 12.79 0 0 0-1.18 5.89c0 4.71 1.18 8.24 4.71 11.77s7.06 4.7 12.94 4.7c2.36 0 4.71 0 7.07-1.17s3.53-2.36 5.88-3.53c1.18-1.18 2.35-3.53 3.53-5.89s1.18-4.7 1.18-7.06 0-4.71-1.18-7.06l-3.53-3.53m-27.07 42.33h30.6v92.97h-30.6zm76.5 35.3c0-2.35 1.17-4.71 2.35-7.06s2.35-3.53 4.71-5.89c1.17-1.17 3.53-2.35 5.88-3.53s4.71-1.17 8.24-1.17c5.88 0 10.59 1.17 14.12 4.7s4.71 7.07 4.71 12.95zm54.13-24.71a26.19 26.19 0 0 0-15.3-9.42 48.85 48.85 0 0 0-18.83-3.5 33.48 33.48 0 0 0-18.83 2.36c-5.88 2.35-11.77 5.88-15.3 9.41-4.7 4.71-8.23 9.41-10.59 15.3s-3.53 12.94-3.53 21.18 1.18 15.3 3.53 21.18 5.89 11.77 10.59 15.3c4.71 4.71 10.6 7.06 16.48 9.42a55 55 0 0 0 20 3.53c9.42 0 17.66-1.18 24.72-4.71a52.17 52.17 0 0 0 17.65-14.12l-21.18-12.95a51 51 0 0 1-8.24 7.06c-3.53 2.36-7.06 2.36-11.77 2.36-2.35 0-5.88 0-8.24-1.18l-7.06-3.53c-2.35-1.18-3.53-3.53-4.7-5.88s-2.36-4.71-2.36-7.06h67.08v-8.27q0-12.36-3.53-21.18c-3.53-5.89-7.06-11.77-10.59-15.3M858.78 345c-5.88 0-10.59 1.18-15.3 4.71s-8.23 7.06-10.59 11.77h0v-14.15h-28.24v93h30.6V392a17.59 17.59 0 0 1 1.17-7.06q1.77-3.53 3.53-7.06c1.18-2.35 3.53-3.53 7.06-5.88a23.5 23.5 0 0 1 10.6-2.36h3.53a4.32 4.32 0 0 1 3.53 1.18l1.17-25.82h-7.06m151.81-36.51l-34.13 92.97h0l-34.12-92.97h-32.96l50.61 131.8h31.77l50.61-131.8h-31.78zm47.07 74.14c0-2.35 1.18-4.71 2.36-7.06s2.35-3.53 4.7-5.89c2.36-1.17 3.54-2.35 7.07-3.53 2.35-1.17 4.7-1.17 8.23-1.17 5.89 0 10.59 1.17 14.12 4.7s4.71 7.07 4.71 12.95zm54.14-24.71a26.19 26.19 0 0 0-15.3-9.42 48.88 48.88 0 0 0-18.83-3.53 55.1 55.1 0 0 0-20 3.53c-5.88 2.36-11.76 5.89-15.29 9.42-4.71 4.7-8.24 9.41-10.6 15.3s-3.53 12.94-3.53 21.18 1.18 15.3 3.53 21.18 5.89 11.77 10.6 15.3c4.7 4.71 10.59 7.06 16.47 9.41a54.85 54.85 0 0 0 20 3.53c9.41 0 17.65-1.17 24.71-4.7a52.08 52.08 0 0 0 17.65-14.12L1100 412.05a51.07 51.07 0 0 1-8.24 7.06c-3.53 2.35-7.06 2.35-11.77 2.35-2.35 0-5.88 0-8.23-1.17l-7.07-3.53c-2.35-1.18-3.53-3.53-4.7-5.89s-2.36-4.7-2.36-7.06h67.08v-9.41q0-12.36-3.53-21.18c-2.35-5.89-5.88-11.77-9.41-15.3m108.29-1.18c-2.35-3.53-5.88-5.88-10.59-8.24s-9.41-3.5-16.47-3.5c-3.53 0-5.89 0-9.42 1.18-2.35 1.18-5.88 2.35-8.23 3.53a25.65 25.65 0 0 0-5.89 4.71c-2.35 2.35-3.53 3.53-4.71 5.88h0v-12.97h-29.42v93h30.6v-50.6c0-2.35 0-4.71 1.18-7.06s1.17-4.71 3.53-5.88c1.17-2.36 3.53-3.53 4.71-4.71 2.35-1.18 4.7-1.18 7.06-1.18s4.7 0 7.06 1.18a9.16 9.16 0 0 1 4.7 4.71c1.18 2.35 1.18 3.53 2.36 5.88 0 2.35 1.17 4.71 1.17 7.06v50.6h30.6v-57.7c0-4.71-1.18-9.41-2.35-14.12s-3.53-8.24-5.89-11.77m63.55-34.13H1253v24.72h-15.29v22.35H1253v38.84c0 4.71 0 9.41 1.18 14.12 1.18 3.53 2.36 7.06 5.89 10.59a40.7 40.7 0 0 0 10.59 7.06c4.7 2.36 9.41 2.36 15.3 2.36 3.53 0 5.88 0 9.41-1.18a17.11 17.11 0 0 0 8.24-2.35v-22.36c-1.18 0-2.36 1.17-4.71 1.17h-4.71c-4.7 0-7.06-1.17-9.41-3.53a22.09 22.09 0 0 1-2.36-9.41v-35.31h22.36v-22.35h-22.36l1.18-24.72zm96.5 74.14c0 5.89-1.18 10.59-4.71 14.12-2.35 3.53-7.06 5.89-11.76 5.89-2.36 0-4.71 0-7.07-1.18-1.17-1.18-3.53-2.35-4.7-4.71s-2.36-3.53-2.36-5.88v-57.66h-30.59V405c0 4.71 1.17 9.41 1.17 14.12 1.18 4.71 3.53 8.24 5.89 11.77s5.88 5.88 10.59 8.24a32.62 32.62 0 0 0 15.3 3.53c3.53 0 5.88 0 9.41-1.18 2.36-1.18 5.89-2.35 8.24-3.53a25.57 25.57 0 0 0 5.88-4.71c2.36-2.35 3.53-3.53 4.71-5.88h0v12.94h29.42v-93h-30.6l1.18 49.42zM1483.67 345c-5.88 0-10.59 1.18-15.3 4.71s-8.24 7.06-10.59 11.77h0v-14.15h-29.42v93H1459V392a17.59 17.59 0 0 1 1.17-7.06q1.77-3.53 3.53-7.06c1.18-2.35 3.53-3.53 7.06-5.88a23.5 23.5 0 0 1 10.6-2.36h3.53a4.32 4.32 0 0 1 3.53 1.18l1.17-27.07h-2.35a4.31 4.31 0 0 1-3.53 1.18m39.97 37.7c0-2.35 1.18-4.71 2.36-7.06s2.35-3.53 4.7-5.89c2.36-1.17 3.53-2.35 7.06-3.53 2.36-1.17 4.71-1.17 8.24-1.17 5.88 0 10.59 1.17 14.12 4.7s4.71 7.07 4.71 12.95zm54.13-24.71a26.16 26.16 0 0 0-15.29-9.42 48.88 48.88 0 0 0-18.83-3.53 55.1 55.1 0 0 0-20 3.53c-5.88 2.36-11.77 5.89-15.3 9.42-4.7 4.7-8.23 9.41-10.59 15.3s-3.53 12.94-3.53 21.18 1.18 15.3 3.53 21.18 5.89 11.77 10.59 15.3c4.71 4.71 10.59 7.06 16.48 9.41a54.79 54.79 0 0 0 20 3.53c9.42 0 17.66-1.17 24.72-4.7a52.08 52.08 0 0 0 17.64-14.12l-21.18-12.94a51.51 51.51 0 0 1-8.24 7.06c-3.53 2.35-7.06 2.35-11.77 2.35-2.35 0-5.88 0-8.24-1.17l-7.06-3.53c-2.35-1.18-3.53-3.53-4.7-5.89s-2.36-4.7-2.36-7.06h67.08v-9.42q0-12.36-3.53-21.18c-2.35-5.89-5.88-11.77-9.42-15.3m92.97 32.95c-2.35-2.36-5.88-3.53-9.41-5.89l-10.59-3.53c-5.89-1.17-10.59-2.35-13-3.53a6.67 6.67 0 0 1 0-11.77c2.36-1.17 4.71-1.17 8.24-1.17s7.06 1.17 10.59 2.35 5.89 3.53 8.24 5.89l16.47-17.66c-4.7-4.7-10.59-7.06-16.47-9.41a59.64 59.64 0 0 0-20-3.53A42.22 42.22 0 0 0 1632 345c-4.71 1.18-8.24 3.53-13 5.89a35.69 35.69 0 0 0-9.41 9.41q-3.52 5.3-3.53 14.12a35 35 0 0 0 2.35 11.77c1.18 3.53 3.53 5.88 5.89 8.24s5.88 3.53 8.23 4.71c3.53 1.17 5.89 2.35 9.42 3.53 5.88 1.17 10.59 2.35 14.12 4.7 3.53 1.18 4.71 3.53 4.71 5.89 0 3.53-1.18 4.7-3.53 5.88s-4.71 2.35-7.06 2.35c-4.71 0-8.24-1.17-13-3.53l-10.59-7.06-17.6 17.63a44.41 44.41 0 0 0 17.65 10.59 68.6 68.6 0 0 0 22.36 3.53c4.71 0 9.41 0 14.12-1.18s9.42-2.35 12.95-5.88a35.87 35.87 0 0 0 9.41-9.42c2.35-3.53 3.53-9.41 3.53-15.3a35 35 0 0 0-2.35-11.76 35.5 35.5 0 0 0-5.89-8.24m81.22-60.02c0 5.88-2.35 10.59-5.88 15.3-4.71 3.53-9.42 5.88-15.3 5.88-3.53 0-5.88 0-8.24-1.17a24.91 24.91 0 0 1-7.06-4.71c-2.35-2.36-3.53-3.53-4.71-7.06-1.17-2.36-1.17-5.89-1.17-8.24s0-5.88 1.17-8.24a21.67 21.67 0 0 1 11.77-11.77c2.36-1.17 5.89-1.17 8.24-1.17 5.88 0 10.59 2.35 15.3 5.88 3.53 3.53 5.88 9.42 5.88 15.3"/></svg>
