<svg xmlns="http://www.w3.org/2000/svg" viewBox="0 0 2000 742.9"><path d="M877.9 311c16.4-16.4 36-24.8 59-24.8 23.3 0 42.9 8.2 59 24.8 16.1 16.4 24.3 36.5 24.3 60.6 0 24-8.2 43.9-24.3 60.3s-35.8 24.5-59 24.5-42.9-8.2-59-24.5-24.3-36.5-24.3-60.3 8.2-44.2 24.3-60.6zm101.2 15.9c-11.8-12-25.8-18.1-42.2-18.1s-30.4 6.1-42.2 18.1-17.6 27.1-17.6 44.7c0 17.4 5.9 32.5 17.6 44.7 11.8 12.3 25.8 18.4 42.2 18.4s30.4-6.1 42.2-18.2c11.8-12 17.6-27.1 17.6-44.7s-5.9-32.9-17.6-44.9zm128 126.2l-66.4-163.3h25.6l52.9 130.8 52.6-130.8h25.6L1131 453.1h-23.9zm207.5-142.8h-10.2c-14.1 0-26.1 4.8-36 14.6-10 9.7-15.1 22.5-15.1 38.1v90.2h-23.8V289.8h23.8v22c.5-.8 1-1.5 2-2.8.8-1.3 3.1-3.3 6.4-6.1s6.9-5.6 10.7-7.9 8.9-4.3 15.3-6.1c6.6-1.9 13.4-2.8 20.2-2.8h6.9v24.3h-.2zm44 69.7c.8 14.8 6.9 27.6 18.1 38.3s24.5 16.1 39.6 16.1c9.9.1 19.6-2.3 28.4-6.9 8.7-4.6 15.1-9.2 18.7-13.5l5.9-6.6 15.3 15.3c-.8.8-1.5 2-2.8 3.8s-4.1 4.3-8.4 8.2a98.35 98.35 0 0 1-13.8 10.2c-4.9 2.8-11.2 5.6-19.2 8.2-7.8 2.5-15.9 3.8-24 3.8-22.2 0-41.4-8.2-57.5-24.8s-24-36.5-24-60.3 7.9-43.7 23.8-60.3c15.8-16.6 34.5-24.8 56-24.8 22.2 0 40.9 7.7 56 23.3 15.1 15.3 22.5 35 22.5 58.5l-1.8 12.3-132.8-.8h0zm18.9-56.5c-10.7 10-16.9 22-18.7 35.8h110.6c-1.8-14.8-7.7-26.8-17.9-36.5s-22.2-14.6-36.5-14.6-26.8 5.4-37.5 15.3zM769 330.7v-1c-2.8-47.5-40.9-85.6-88.4-88.4h-1a615.7 615.7 0 0 0-81.5 0h-1c-47.8 2.8-85.9 40.6-88.7 88.2a650.9 650.9 0 0 0 0 83.8c2.8 47.5 40.9 85.6 88.4 88.4h1a615.7 615.7 0 0 0 81.5 0h1c47.5-2.8 85.6-40.9 88.4-88.4v-1c2.1-27.4 2.1-54.5.3-81.6h0zm-37.3 133.6c-25.6 25.8-88.2 4.8-139.5-46.5s-72.3-114-46.5-139.5c25.6-25.8 88.2-4.9 139.5 46.5s72.3 114 46.5 139.5h0z" fill="currentColor"/></svg>
