<svg xmlns="http://www.w3.org/2000/svg" viewBox="0 0 2000 742.9" fill="currentColor"><path d="M1208.3 537.9v-35h-73.8V240.1h73.7v-34.9h14.1v34.6h30.7v-34.7h14c0 10 .5 20-.2 30-.5 6.9 2 9.5 8.5 11.6 54.4 17.6 91.4 68.9 90.8 125.4-.6 57.5-37.7 107.5-92.9 124.5-4.9 1.5-6.5 3.7-6.4 8.7.2 10.9-.3 21.8-.5 32.7h-12.6v-36.3l-31.6 1.4V538l-13.8-.1zm59.3-270.7v208.6c46.7-12.3 81.4-63.7 76.8-113.3-4-44.8-42.3-92.4-76.8-95.3zm-59.4 213.9V261.2h-52.5v219.9h52.5zm45-.7v-7.6-203.3c0-1.3.4-2.7-.1-3.7-.7-1.4-2-3.5-3.2-3.6-8.9-.8-17.8-1.1-26.9-1.6v219.9l30.2-.1zm-232.8 22.2c-7.4 0-14.1.3-20.7-.2-1.7-.1-3.7-2.9-4.7-4.9l-32.8-69.3c-2-4.4-4.4-5.6-9.1-5.6H824.4c-4.7 0-7 1.6-8.9 5.8L783.3 498c-1.7 3.7-3.7 4.9-7.5 4.7-5.6-.3-11.2-.1-17.9-.1l4.9-11 114.9-246.1c2.4-5.1 5.4-6.1 10.2-5.7 4.6.4 8.7-.8 11.7 5.5l118.3 251.5c.9 1.6 1.5 3.4 2.5 5.8zm-70.9-101l-60.6-129.7-60.5 129.7h121.1zM591.9 240.2l96.5.1c3.5 0 7.1.7 10.6 1.4 39.5 8 68.2 45.8 64.3 84.4-4.4 43.4-37.6 74.5-79.9 74.7h-63.8-7.4v50.9 50.6h-20.3V240.2zm20.7 140H682c31.5 0 57.4-24.1 60.1-55.6 2.5-29.3-19.1-57.2-48.7-62.8-4.1-.8-8.3-1-12.5-1.1-22.6-.1-45.3 0-68.2 0l-.1 119.5zm436.5-140h19.8v261.9h-19.8V240.2zm359 237.7c0 14-10.6 24.6-24.7 24.5-13.9-.1-24.7-10.8-24.8-24.7 0-13.9 10.8-24.8 24.6-24.9 14.2-.1 24.9 10.7 24.9 25.1z"/></svg>
