<svg xmlns="http://www.w3.org/2000/svg" width="180" height="43" fill="currentColor"><path d="M8.913 28.991v4.612h4.622V32.45h6.355v10.13C9.243 42.004.578 33.274 0 22.649h10.151v6.259l-1.238.082zm19.643 3.459v1.153h4.622v-4.612h-1.156v-6.259h10.151c-.578 10.624-9.326 19.272-19.972 19.849V32.45h6.355zM63.465 7.989c-3.384 0-6.355 1.235-8.418 3.542V8.483H50.92v32.532h4.127V29.238c2.146 2.224 5.117 3.542 8.418 3.542 6.933 0 12.297-5.436 12.297-12.354 0-7.001-5.364-12.436-12.297-12.436zm-.082 4.036c4.622 0 8.336 3.624 8.336 8.318s-3.631 8.318-8.336 8.318c-4.622 0-8.336-3.624-8.336-8.318s3.631-8.318 8.336-8.318zm35.984-.577c-2.146-2.224-5.117-3.459-8.418-3.459-6.933 0-12.297 5.436-12.297 12.354s5.447 12.354 12.297 12.354c3.301 0 6.272-1.235 8.418-3.459v2.965h4.209V8.401h-4.209v3.047zm-8.253 17.213c-4.622 0-8.336-3.624-8.336-8.318s3.631-8.318 8.336-8.318c4.621 0 8.253 3.624 8.253 8.318s-3.632 8.318-8.253 8.318zm29.711-20.508h-.99c-2.641 0-4.787.824-6.355 2.388V8.482h-4.127v23.802h4.127V19.189c0-6.424 4.869-6.918 6.355-6.918h.99V8.153zm12.628 10.296c-3.219-.824-5.117-1.4-5.117-3.295 0-2.141 2.145-3.13 4.292-3.13 2.228 0 4.043.988 4.704 2.718l.412 1.071 3.549-2.059-.33-.824c-1.403-3.13-4.456-4.942-8.335-4.942-4.87 0-8.419 3.047-8.419 7.165 0 4.942 4.457 6.095 8.088 7.083 3.219.824 5.2 1.483 5.2 3.377 0 2.306-2.393 3.13-4.705 3.13-2.806 0-4.869-1.153-5.529-3.212l-.412-1.153-3.632 2.141.248.741c1.32 3.459 4.704 5.518 9.243 5.518 5.2 0 8.83-2.965 8.83-7.165 0-5.106-4.538-6.259-8.087-7.165zM150.7 8.483h-4.127v23.802h4.127V8.483zm25.174 0v3.047c-2.146-2.224-5.118-3.542-8.419-3.542-6.932 0-12.297 5.436-12.297 12.354s5.447 12.354 12.297 12.354c3.384 0 6.355-1.235 8.419-3.542v11.778H180V8.401h-4.126v.082zm-8.336 20.178c-4.622 0-8.336-3.624-8.336-8.318s3.631-8.318 8.336-8.318 8.336 3.624 8.336 8.318-3.632 8.318-8.336 8.318zM151.528 0h-5.777v5.765h5.777V0zM19.89 10.789h8.748v-1.4h4.622v5.106h-4.622v-1.4H19.89v9.554l9.904.082v6.259h-1.155v1.153H13.535V28.99h-1.073V14h1.155V9.389H8.996v4.612h1.155v6.259H0C.578 9.636 9.326.988 19.89.411v10.377z"/></svg>
