<svg xmlns="http://www.w3.org/2000/svg" viewBox="0 0 2000 742.9" fill="currentColor"><path d="M611 426.55v-79.4h19.1V325h-181v22.18h17.48c4.73 13.58 16.9 30.31 46.55 40.61h20.31v62.18h22.16v-62.21h6.83v-20.93l-6.78-.34v-19.34h33.25v79.4h-19.7v23.39h61.56v-23.39zm-77.57-61.23l-17.85-.95a46.85 46.85 0 0 1-23.79-17.22h41.64zm17.28 155.19a149.06 149.06 0 1 1 149.06-149.06 149.06 149.06 0 0 1-149.06 149.06zm0-280.76a131.72 131.72 0 1 0 131.72 131.72h0a131.86 131.86 0 0 0-131.72-131.72zm172.5 215.39v-21.75H740V328.82h-16.79v-21.74h77.92q29.5 0 45 10.48 15.5 10.48 15.54 33 0 23.28-15.15 34.42-15.15 11.14-43.62 11.13h-17.31v-21.73h13.21q12.6 0 19.4-6 6.8-6 6.73-17.33 0-10.87-6.07-16.57-6.07-5.7-17.73-5.7h-25.66v104.61h18.11v21.75zm142.86 0v-21.75h16.81V328.82h-16.81v-21.74h69.35v21.74h-17.07v104.57h17.08v21.75zm152.71 2.59a67.5 67.5 0 0 1-21-3.36 58.12 58.12 0 0 1-18.25-9.58 33 33 0 0 1-11-14.75h4.92v25.1h-24.86v-50.21h22.28a47.67 47.67 0 0 0 8.66 16.44A40.33 40.33 0 0 0 994 432.49a46.55 46.55 0 0 0 19.8 4q10.09 0 16.05-4.73a16.46 16.46 0 0 0 5.95-13.6 20.41 20.41 0 0 0-2.71-11.38 18.31 18.31 0 0 0-8.93-6.61 88.49 88.49 0 0 0-16.32-4.27l-13.19-2.58q-22.78-4.74-34.94-15.67-12.16-10.93-12.17-30.42a41.5 41.5 0 0 1 6.08-22.77 40.69 40.69 0 0 1 17-14.93 57.26 57.26 0 0 1 25.38-5.3 61.7 61.7 0 0 1 29.08 6.44 45.38 45.38 0 0 1 18.77 17.86h-5.69v-21.45h23.29v42.71H1040a45.08 45.08 0 0 0-6.21-11.27 32.37 32.37 0 0 0-11.52-9.31 41.18 41.18 0 0 0-18.77-3.75q-10.1 0-15.65 4.52a15 15 0 0 0-5.58 12.3 15.52 15.52 0 0 0 7 13.6q7 4.72 21.74 7.63l8 1.57a96.77 96.77 0 0 1 27.94 8.55 38.21 38.21 0 0 1 16.44 15q5.29 9.31 5.31 23.64a45.34 45.34 0 0 1-6.08 23.64 42.56 42.56 0 0 1-17.17 16.09 57 57 0 0 1-26.67 5.73zm106.91-2.59l-41.94-126.32h-15v-21.74h62.69v21.74h-15.76l24.08 79.46 33.3-97.61h22.53l33.09 97.58 24.59-79.47h-17v-21.7h60.07v21.74H1281l-40.38 126.32h-24.08l-33.38-94.74-33.1 94.74zm150.38 0v-21.75h16.56l38.57-104.57h-15.27v-21.74h91.42v21.74h-15.28l39.41 104.57h15.76v21.75h-69.94v-21.75h17.61L1384.29 401h-48.67l-10.88 32.36h16.31v21.75zm65.76-74.8h36L1361 329.08h-1.3zm118.03 74.8v-21.75h16.82V328.82h-16.82v-21.74h77.91q29.51 0 45 10.48 15.49 10.48 15.54 33 0 23.28-15.14 34.42-15.14 11.14-43.55 11.13h-17.34v-21.73h13.19q12.62 0 19.42-6 6.8-6 6.73-17.33 0-10.87-6.08-16.57c-4.07-3.8-10-5.7-17.73-5.7h-25.7v104.61h18.13v21.75z"/></svg>
