<svg xmlns="http://www.w3.org/2000/svg" viewBox="0 0 2000 742.9" fill="currentColor"><path d="M338.64 309.4A47.53 47.53 0 1 0 291 261.88a47.58 47.58 0 0 0 47.64 47.52zm167.27 67.16c20.62 0 30.2 16.66 30.2 37.48s-9.58 37.73-30.2 37.73c-21.36 0-30.69-17.89-30.69-37.73s9.33-37.48 30.69-37.48zm-63.83-25.47V526h34.37v-60.5h6.39c6.62 8.81 16.69 14.69 34.12 14.69 33.14 0 53.52-27.68 53.52-66.14 0-38-20.13-66.14-53.52-66.14-17.68 0-28.48 6.13-35.35 14.7h-6.39v-11.52zm157.51-52.18V477H634V298.91zM747.89 477h31.67v-81.82c0-33.8-23.08-47.28-57.2-47.28-30.44 0-53 15-53.76 39.2h34.12c1-8.58 7.61-13.48 21.36-13.48 15 0 22.34 6.62 22.34 19.6v3.19h-33.63c-37.32 0-51.31 22.29-51.31 41.88 0 22.3 16.2 41.89 44.68 41.89 16.69 0 27.74-5.14 35.35-14h6.38zm-29.7-24c-14 0-22.34-5.88-22.34-17.39s8.84-16.9 23.56-16.9h27v7.84c.01 15.66-11.53 26.45-28.22 26.45zm198.59-67.37c-2.7-22.54-21.85-37.73-53.52-37.73-37.32 0-53.76 17.89-53.76 39.44s14 31.11 33.87 34.79l24.55 3.92c12.52 2.2 18.17 5.39 18.17 14 0 9.06-8.1 13.72-21.85 13.72-14.48 0-23.32-4.9-25-16.42h-34.16c2.7 26.21 21.11 42.87 59.41 42.87 37.07 0 56-19.84 56-40.91 0-25.23-16.45-36.74-40.26-40.41l-22.83-3.43c-8.6-1.72-13.51-3.43-13.51-10.29 0-7.6 7.86-10.78 18.42-10.78 11 0 18.65 2.69 20.37 11.27zM1092 347.9c-15.47 0-27 4.9-34.37 14.7h-6.39c-6.63-9.8-17.18-14.7-32.16-14.7-14.73 0-25.28 4.9-31.42 14.7h-6.38v-11.51h-33.1V477h34.36v-67.61c0-16.9 6.88-31.11 23.33-31.11 13.74 0 19.14 9.55 19.14 26V477h34.37v-70.31c0-16.41 7.37-28.41 23.08-28.41 13.75 0 19.15 9.31 19.15 26V477H1136v-79.37c0-30.37-13.77-49.73-44-49.73zM1248.23 477h31.67v-81.82c0-33.8-23.08-47.28-57.2-47.28-30.44 0-53 15-53.77 39.2h34.13c1-8.58 7.61-13.48 21.36-13.48 15 0 22.34 6.62 22.34 19.6v3.19h-33.64c-37.31 0-51.3 22.29-51.3 41.88 0 22.3 16.2 41.89 44.67 41.89 16.7 0 27.75-5.14 35.36-14h6.38zm-29.71-24c-14 0-22.33-5.88-22.33-17.39s8.83-16.9 23.56-16.9h27v7.84c.01 15.66-11.53 26.45-28.23 26.45zm167.05 27.18c34.37 0 54.74-27.92 54.74-64.42 0-36.26-20.37-64.43-54.74-64.43-20.38 0-32.9 8.33-39.77 16.91h-4.91v-13.72h-15V526h15.46v-62.72h4.91c6.9 8.82 18.93 16.9 39.31 16.9zm-2-115.13c26.75 0 41.24 20.58 41.24 50.71s-14.49 50.71-41.24 50.71c-30.2 0-42.23-24.75-42.23-50.71.04-25.76 12.07-50.71 42.27-50.71zM1553.37 477h15v-85c0-25.48-18.9-40.67-48.61-40.67-26.75 0-45.41 12.5-47.37 34.79h15.46c1-13 11.54-21.07 31.91-21.07 23.82 0 33.15 12.25 33.15 27.93v7.59h-42.72c-33.88 0-45.91 20.82-45.91 40.17 0 20.58 15.47 39.44 44.44 39.44 17.92 0 32.16-7.1 39.77-16.9h4.91zm-42.47-10.53c-18.66 0-31.18-9.56-31.18-27 0-15.68 12-26 34.61-26h38.55V428c0 22.54-19.15 38.47-41.98 38.47zM1635.59 526L1709 354.52h-16.21L1656.2 441h-5.89l-40.5-86.47h-16.7l52 111-25.24 60.47z"/></svg>
