<svg xmlns="http://www.w3.org/2000/svg" width="180" height="48" fill="currentColor"><path fill-rule="evenodd" d="M0 11.847L20.517 0l20.498 11.847v23.694L20.517 47.387 0 35.541V11.847zm22.379-6.555l-.025-.174c-.067-.339-.233-.651-.478-.896s-.557-.411-.896-.478-.691-.032-1.011.102-.592.359-.783.647c-.161.243-.258.522-.284.811L6.02 12.742a1.74 1.74 0 0 0-.626-.26c-.337-.067-.686-.033-1.003.099s-.588.354-.779.639-.293.621-.293.964c0 .46.183.902.508 1.228.135.135.291.246.46.329v14.991c-.273.134-.506.339-.676.592-.191.285-.293.621-.293.964-.001.228.043.455.13.666a1.73 1.73 0 0 0 .376.565c.161.161.353.289.565.376s.438.131.666.13c.343 0 .679-.102.964-.293l.106-.077 2.119 1.23-.004.113c-.001.228.043.455.13.666a1.73 1.73 0 0 0 .376.565c.161.161.353.289.565.376s.438.131.666.13c.343 0 .679-.102.964-.293s.508-.462.639-.779.166-.666.099-1.003-.232-.646-.475-.889c-.127-.127-.272-.233-.43-.315V18.616a1.72 1.72 0 0 0 .167-.099c.286-.191.508-.462.639-.779.105-.253.148-.527.127-.798l7.962-4.602c.283.188.617.291.962.291s.679-.102.965-.293l.015-.01 7.964 4.603-.006.145a1.73 1.73 0 0 0 .129.664c.086.21.213.402.374.563.133.134.287.245.456.329v9.169c-.268.134-.497.336-.665.587-.191.286-.293.622-.293.965l.002.09-7.953 4.596c-.194-.134-.415-.228-.648-.274-.337-.067-.686-.033-1.003.099a1.73 1.73 0 0 0-.303.162l-4.618-2.677-1.153-.669v1.333 4.124c-.277.135-.513.34-.685.597-.191.285-.293.621-.293.965 0 .46.183.902.509 1.228s.767.508 1.227.508c.339 0 .67-.099.953-.285l3.293 1.918c.02.437.204.851.517 1.159.325.319.762.498 1.217.498a1.74 1.74 0 0 0 .968-.295c.286-.192.509-.465.639-.784a1.74 1.74 0 0 0 .126-.548l12.942-7.472c.252.136.535.209.826.209.343 0 .679-.102.965-.293s.508-.462.639-.779.166-.666.099-1.003-.232-.646-.475-.889c-.104-.104-.22-.193-.345-.267V15.679l.082-.051c.285-.191.508-.462.639-.779s.166-.666.099-1.003-.232-.646-.475-.889-.552-.408-.889-.475-.686-.033-1.003.099a1.73 1.73 0 0 0-.246.126L22.379 5.292zm-3.48 30.065l-3.47-2.011v2.8c.165.083.317.192.45.324.243.243.408.552.475.889.031.154.04.31.029.465l3.139 1.829c.128-.106.271-.194.425-.26.317-.136.667-.174 1.005-.111.3.056.579.191.81.389l12.654-7.306a1.73 1.73 0 0 1-.02-.266c0-.343.102-.679.293-.965s.462-.508.779-.639l.011-.004v-14.7c-.212-.087-.406-.215-.571-.38-.325-.325-.509-.765-.511-1.225a1.73 1.73 0 0 1 .009-.175L21.82 6.743c-.067.061-.139.117-.215.168-.288.191-.627.292-.973.29-.431-.002-.844-.164-1.162-.451L6.788 14.073c.017.264-.026.53-.129.776-.131.317-.354.588-.639.779-.063.042-.128.08-.196.113v14.992a1.74 1.74 0 0 1 .459.329c.243.243.408.552.475.889.021.104.032.209.033.314l2.222 1.29a1.73 1.73 0 0 1 .224-.127v-14.78c-.182-.085-.348-.201-.491-.344-.161-.162-.289-.353-.376-.565s-.131-.437-.13-.666c0-.343.102-.679.293-.965s.462-.508.779-.639.666-.166 1.003-.099c.218.043.424.128.608.247l7.976-4.61-.004-.116c0-.343.102-.679.293-.964s.462-.508.779-.639.666-.166 1.003-.099.646.232.889.475.408.552.475.889c.029.143.039.289.031.433l8.003 4.625a1.74 1.74 0 0 1 .275-.144c.318-.131.667-.165 1.004-.097s.646.234.889.478.407.554.473.891.03.687-.103 1.004-.357.587-.644.777a1.74 1.74 0 0 1-.199.113v9.154c.174.085.334.198.472.337.242.244.407.554.473.891s.03.687-.103 1.004-.357.588-.644.777-.623.29-.967.288c-.35-.002-.689-.11-.973-.305l-7.957 4.599c.013.255-.031.511-.13.75-.131.317-.354.588-.639.779s-.621.293-.965.293c-.46-.003-.9-.186-1.225-.511s-.509-.765-.511-1.225l.003-.109zm-.003-19.093l.005.123-3.23 1.867c-.173-.106-.365-.181-.566-.221-.337-.067-.686-.033-1.003.099s-.588.354-.779.64-.293.621-.293.964c-.001.228.043.455.13.666s.215.403.376.564a1.73 1.73 0 0 0 .358.274v3.967c-.228.132-.423.316-.571.536-.191.285-.293.621-.293.965 0 .46.183.902.508 1.227s.767.509 1.227.509c.343 0 .679-.102.965-.293l.004-.003 3.167 1.831-.005.136c.003.46.186.9.511 1.225s.765.509 1.225.511c.343 0 .679-.102.965-.293s.508-.462.639-.779c.102-.247.146-.513.128-.777l3.285-1.896c.119.088.248.16.386.215.214.085.443.128.673.124.342-.006.675-.112.957-.306s.5-.467.627-.785.157-.666.087-1.001-.238-.642-.482-.881c-.14-.138-.302-.25-.477-.333v-3.819a1.73 1.73 0 0 0 .253-.14c.285-.191.508-.462.64-.779s.166-.666.099-1.003-.232-.646-.475-.889-.552-.408-.889-.475-.686-.033-1.003.099a1.73 1.73 0 0 0-.318.172l-3.361-1.94c.009-.146-.002-.294-.03-.439-.067-.337-.232-.646-.475-.889s-.552-.408-.889-.475-.686-.033-1.003.099-.588.354-.779.639-.293.621-.293.964zm2.7 12.407l3.348-1.932v-.03c0-.342.101-.677.291-.961.164-.246.387-.446.649-.581v-3.9c-.149-.08-.285-.181-.405-.301-.161-.162-.289-.353-.376-.564s-.131-.438-.13-.666l.002-.091-3.368-1.944-.01.007c-.285.191-.621.293-.965.293s-.671-.104-.952-.289l-3.188 1.843c.03.287-.012.578-.123.846-.131.317-.354.588-.639.779a1.73 1.73 0 0 1-.301.161v3.764c.21.087.402.214.564.377.243.243.408.552.475.889a1.74 1.74 0 0 1 .03.446l3.188 1.843c.089-.057.182-.107.281-.148.317-.132.666-.166 1.003-.099a1.74 1.74 0 0 1 .626.259z"/><path d="M62.437 15.539c2.51 0 4.333.491 5.471 1.473 1.153.966 1.73 2.463 1.73 4.489 0 2.011-.592 3.484-1.777 4.419-1.169.935-2.962 1.403-5.378 1.403h-2.175v4.559h-3.648V15.539h5.775zm.327 8.628c1.216 0 2.042-.241 2.479-.725.436-.499.655-1.216.655-2.151 0-.951-.288-1.621-.865-2.011-.561-.405-1.442-.608-2.642-.608h-2.081v5.495h2.455zm9.721 7.716V15.539h3.647v13.094H83.1v3.25H72.485zm17.272-4.209c.608.748 1.426 1.122 2.455 1.122s1.839-.374 2.432-1.122c.608-.764.912-1.8.912-3.11v-9.025h3.647v9.142c0 2.369-.655 4.193-1.964 5.471-1.309 1.263-2.985 1.894-5.027 1.894s-3.725-.639-5.05-1.917c-1.309-1.278-1.964-3.094-1.964-5.448v-9.142h3.647v9.025c0 1.309.304 2.346.912 3.11zm20.154-8.978v13.187h-3.648V18.695h-4.629v-3.156h12.907v3.156h-4.63zm11.63 8.978c.607.748 1.426 1.122 2.454 1.122s1.84-.374 2.433-1.122c.607-.764.911-1.8.911-3.11v-9.025h3.648v9.142c0 2.369-.655 4.193-1.965 5.471-1.309 1.263-2.984 1.894-5.027 1.894s-3.725-.639-5.05-1.917c-1.309-1.278-1.963-3.094-1.963-5.448v-9.142h3.647v9.025c0 1.309.304 2.346.912 3.11zm18.494-9.306c-.608 0-1.092.148-1.45.444-.343.281-.514.662-.514 1.146 0 .468.21.842.631 1.122.437.28 1.426.616 2.969 1.005 1.559.374 2.767.943 3.624 1.707s1.287 1.878 1.287 3.343a4.43 4.43 0 0 1-1.661 3.577c-1.091.904-2.533 1.356-4.325 1.356-2.588 0-4.918-.959-6.991-2.876l2.175-2.666c1.76 1.543 3.39 2.315 4.886 2.315.67 0 1.192-.14 1.566-.421.39-.296.585-.686.585-1.169 0-.499-.203-.888-.608-1.169-.405-.296-1.208-.592-2.408-.889-1.902-.452-3.297-1.037-4.186-1.754-.872-.733-1.309-1.87-1.309-3.414 0-1.559.553-2.759 1.661-3.601 1.122-.842 2.516-1.263 4.185-1.263 1.09 0 2.181.187 3.272.561s2.043.904 2.853 1.59l-1.847 2.666c-1.419-1.076-2.884-1.613-4.395-1.613zm15.567 7.576l4.162-10.405h3.951l-6.569 16.343h-3.087l-6.57-16.343h3.951l4.162 10.405zm17.57 2.712c1.793 0 3.259-.709 4.396-2.128l2.338 2.408c-1.855 2.089-4.044 3.133-6.57 3.133-2.51 0-4.582-.795-6.219-2.385-1.622-1.59-2.432-3.593-2.432-6.009 0-2.432.826-4.458 2.479-6.079 1.668-1.621 3.702-2.432 6.102-2.432 2.681 0 4.925 1.021 6.734 3.063l-2.268 2.572c-1.154-1.434-2.588-2.151-4.303-2.151-1.371 0-2.548.452-3.53 1.356-.966.889-1.45 2.097-1.45 3.624 0 1.512.461 2.728 1.38 3.647a4.55 4.55 0 0 0 3.343 1.38z"/></svg>
