<svg xmlns="http://www.w3.org/2000/svg" viewBox="0 0 2000 742.9" fill="currentColor"><path d="M721.6 261.2c-17.2 0-33.8 2.2-40.5 4-9.8 2.8-12.3 7.1-14.1 16l-39 180c-.6 3.7-1.2 6.8-1.2 9.8 0 8.9 5.8 14.7 15.4 14.7 10.5 0 14.8-6.8 16.9-17.2l11.1-51.3c7.7.9 17.8 1.8 32.2 1.8 63.6 0 103.2-34.4 103.2-86.3-.1-45.4-31.8-71.5-84-71.5zm-20.8 128.4c-9.8 0-17.5-.3-24.6-1.2l20.6-95.5c6.4-.9 16-2.2 25.8-2.2 33.8 0 51 16 51 42.4-.1 33.7-24.6 56.5-72.8 56.5h0zm1021.3 36.8c-5.2 0-8.6 3.1-15 10.1-11.4 11.7-18.4 18.1-27.3 18.1-8 0-12.3-6.4-12.3-16.9 0-5.8 1.2-12.9 2.8-20.6l11.4-53.4h34.1c10.7 0 17.2-6.2 17.2-17.2 0-6.2-4-10.7-13.2-10.7h-32l5.5-24.9c.6-3.7 1.2-7.1 1.2-10.1 0-8.6-5.8-14.8-15.4-14.8-10.1 0-14.7 6.8-16.9 17.2l-7.1 32.6h-14.4c-11.1 0-17.5 6.2-17.5 17.2 0 6.2 4.3 10.7 13.5 10.7h12.6l-11.4 52.8c-1.2 5.8-2.8 15.4-2.8 25.2 0 24.9 12.9 43 40.5 43 16 0 30.1-8 40.8-17.5 10.5-9.2 18.1-20.6 18.1-27.9.2-7.1-5.3-12.9-12.4-12.9zm-706.3-147.1c0-8.9-6.2-14.8-15.7-14.8-10.1 0-14.7 6.8-16.9 17.2l-38.4 178.4c-.9 3.7-1.5 6.8-1.5 9.8 0 8.9 6.2 14.7 15.4 14.7 10.5 0 15-6.8 17.2-17.2l38.4-178.4c.6-3.5 1.5-6.6 1.5-9.7zm548.2 53.4c-49.1 0-82.6 48.8-82.6 95.2v2.6c-7.7 11.7-17.6 23.8-24.3 23.8-4.9 0-6.8-4.6-6.8-11.7 0-8.6 2.5-23 5.2-35.6l25.5-117.9c.6-3.7 1.2-6.8 1.2-9.8 0-8.9-5.8-14.8-15.4-14.8-10.5 0-14.7 6.8-16.9 17.2l-13.8 63.9c-7.4-7.7-18.1-12.9-34.4-12.9-32.6 0-65.5 25.1-78.2 63.6-14.1 36.4-26.7 58-36.6 58-3.7 0-5.8-3.1-5.8-8.3 0-15.4 8.6-52.8 12.3-70.9 1.2-6.8 1.8-9.5 1.8-13.5 0-13.5-22.4-29.5-51.6-29.5-33.7 0-64.3 21.4-79.6 53.1-22.8 40.2-43.6 69.1-54 69.1-4.6 0-6.2-5.8-7.4-11.4l-7.6-42.3 47-38.4c4.3-3.7 9.8-8.9 9.8-15.7 0-8.3-5.5-13.8-13.8-13.8-6.2 0-11.4 3.7-16.6 8l-70.6 58.3 23.6-109.9c.6-3.7 1.5-6.8 1.5-9.8 0-8.9-6.2-14.8-15.7-14.8-10.1 0-14.7 6.8-16.9 17.2l-38.4 178.4c-.9 3.7-1.5 6.8-1.5 9.8 0 8.9 6.2 14.7 15.4 14.7 10.5 0 15-6.8 17.2-17.2l4.9-23 28.9-23.3 7.1 35.6c2.8 14.1 10.1 27.9 29.2 27.9 18.9 0 33.9-17.3 48.8-40.7 4.5 24.5 22 40.7 46.1 40.7 24.3 0 40.8-14.4 51.6-33.8v.6c0 20 10.1 33.2 27.9 33.2 16.1 0 29.5-9.7 41.4-30.4 6.8 18 21.9 30.4 43 30.4 24.9 0 42.7-15 54-35.9v1.8c0 22.1 11.1 34.1 29.2 34.1 16 0 29.6-9.3 41.2-24.4 8.8 15.1 24.6 24.4 46 24.4 49.1 0 82.6-48.8 82.6-95.5.1-32.7-19.8-56.4-53.9-56.4zm-306.2 62.4c-8.9 38.4-27.9 60.2-49.5 60.2-14.4 0-22.4-11.1-22.4-27.6 0-32.6 23.6-67.6 55.3-67.6 9.5 0 16.9 2.8 23.3 6.8l-6.7 28.2zm171.1-16.3c-9.8 45.1-32.2 76.5-56.8 76.5-13.5 0-21.5-10.5-21.5-27.6 0-32.8 22.7-66.9 53.1-66.9 11.7 0 20.6 4 27 9.2l-1.8 8.8zm110.2 76.5c-17.8 0-25.2-12.9-25.2-29.2 0-29.8 20.6-63.9 46.4-63.9 17.8 0 25.2 12.9 25.2 29.2 0 30.1-20.6 63.9-46.4 63.9zM881.9 332.7c-49.1 0-82.6 48.8-82.6 95.2 0 33.2 20 56.8 54 56.8 49.1 0 82.6-48.8 82.6-95.5.1-32.8-19.9-56.5-54-56.5zm-24.8 122.6c-17.8 0-25.2-12.9-25.2-29.2 0-29.8 20.6-63.9 46.4-63.9 17.8 0 25.2 12.9 25.2 29.2-.1 30.1-20.6 63.9-46.4 63.9z"/><ellipse cx="413" cy="247.3" rx="56.7" ry="33"/><ellipse cx="413" cy="495.6" rx="56.7" ry="33"/><ellipse transform="matrix(.5 -.866 .866 .5 -115.1721 419.2528)" cx="305.5" cy="309.4" rx="56.7" ry="33"/><ellipse transform="matrix(.5 -.866 .866 .5 -115.1725 667.591)" cx="520.6" cy="433.5" rx="56.7" ry="33"/><ellipse transform="matrix(.866 -.5 .5 .866 -175.838 210.8437)" cx="305.5" cy="433.5" rx="33" ry="56.7"/><ellipse transform="matrix(.866 -.5 .5 .866 -84.9433 301.7495)" cx="520.6" cy="309.4" rx="33" ry="56.7"/></svg>
