<svg xmlns="http://www.w3.org/2000/svg" viewBox="0 0 2000 742.9"><defs><clipPath id="A"><path d="M166.98 268.17h1666.05v206.56H166.98z" fill="none"/></clipPath></defs><g clip-path="url(#A)" fill="currentColor"><path d="M524.34 454c-14 13.89-32.73 20.77-56.21 20.77s-42.22-6.92-56.33-20.77-21.1-31.6-21.1-53.16 7-39.28 21.1-53.05 32.85-20.66 56.33-20.66 42.21 6.89 56.21 20.66 21 31.49 21 53.05-7 39.24-21 53.16zm-56.21-16.82c10.16 0 18.29-3.38 24.27-10.16s8.91-15.46 8.91-26.18-2.93-19.53-8.91-26.3-14.11-10.16-24.27-10.16q-15.58 0-24.38 10.16c-5.87 6.77-8.81 15.57-8.81 26.3s2.94 19.53 8.81 26.3 13.99 10 24.38 10zm97.3 33.26V268.17h44.25v202.27zm211.98 0h-54.07l-44.25-60.39v60.39h-44.24V268.17h44.24v121.11l45.38-58h52l-55.43 65.92zm62.98 3.73c-20.2 0-36.23-6.89-48-20.55s-17.61-31.26-17.61-52.82c0-21.22 6.1-38.72 18.18-52.6s28.1-20.77 48-20.77a54.87 54.87 0 0 1 26.3 6.32 42.25 42.25 0 0 1 17.38 17.38v-20h43.91v139.31h-43.91V450.8c-3.84 6.89-9.82 12.53-17.72 16.93a55.54 55.54 0 0 1-26.53 6.44zm12.76-36.69c10.61 0 18.74-3.5 24.61-10.38s8.69-15.69 8.69-26.3c0-10.39-2.94-19.08-8.69-26s-14-10.39-24.61-10.39c-10 0-18.06 3.39-24.16 10.16s-9.14 15.46-9.14 26.19 3 19.64 9.14 26.41 14.11 10.31 24.16 10.31zm160.62 37.25c-20 0-36-4.29-48-13s-17.92-19.73-17.92-33.16h43.91c0 4.85 2.14 8.8 6.32 11.85s9.71 4.63 16.48 4.63c4.85 0 8.69-1.13 11.74-3.5a11.54 11.54 0 0 0 4.52-9.49q0-9.48-10.16-11.85l-34.09-8.69c-11.4-2.93-20-7.79-26-14.79s-8.92-15.46-8.92-25.39c0-13.1 5.42-23.71 16.14-31.95s25.28-12.3 43.34-12.3c20 0 35.45 3.84 46.06 11.51s16.14 18.4 16.14 31.83h-43.68a13.57 13.57 0 0 0-5.08-11.28c-3.39-2.71-8-4.07-14-4.07-4.85 0-8.69 1-11.51 3.16a9.7 9.7 0 0 0-4.29 8.36c0 6.2 4 10.27 11.85 12.41l33 9c11 2.94 19.64 7.68 25.85 14.34a34.27 34.27 0 0 1 9.37 24.38c0 14.45-5.42 26.07-16.37 34.76s-25.85 13.24-44.7 13.24zM1158.48 436a98.83 98.83 0 0 0 15.35-.9v35.22a172.15 172.15 0 0 1-29.46 2.26 87.71 87.71 0 0 1-13.32-.91 52.09 52.09 0 0 1-13-3.95 31.86 31.86 0 0 1-11.85-8.24c-3-3.5-5.76-8.46-7.91-15a69.78 69.78 0 0 1-3.27-23.14V269h44.25v62.19h31.49v35h-31.49v46.27c0 9.49 1.69 15.69 4.85 19s8.04 4.67 14.36 4.54zm95.72 38.17c-20.21 0-36.24-6.89-48-20.55s-17.6-31.26-17.6-52.82q0-31.83 18.17-52.6c12.19-13.89 28.1-20.77 48-20.77a53.53 53.53 0 0 1 26.3 6.32 41.36 41.36 0 0 1 17.27 17.38v-20h43.91v139.31h-43.91V450.8c-3.84 6.89-9.82 12.53-17.72 16.93a55.11 55.11 0 0 1-26.42 6.44zm12.8-36.69c10.61 0 18.74-3.5 24.61-10.38s8.69-15.69 8.69-26.3c0-10.39-2.94-19.08-8.69-26s-14-10.39-24.61-10.39c-10 0-18.06 3.39-24.15 10.16s-9.15 15.46-9.15 26.19 3 19.64 9.15 26.41 14.06 10.31 24.15 10.31zm95.33 32.96V331.15h44.25v29.13c2.26-10 7.11-17.73 14.33-23.26a38.85 38.85 0 0 1 24.16-8.24 49.3 49.3 0 0 1 11.51 1.13v41a130.06 130.06 0 0 0-13.32-.91q-36.73 0-36.68 46.51v53.73zM1540.45 436a98.83 98.83 0 0 0 15.35-.9v35.22a172.15 172.15 0 0 1-29.46 2.26 87.71 87.71 0 0 1-13.32-.91 52.35 52.35 0 0 1-13-3.95 31.86 31.86 0 0 1-11.85-8.24c-3-3.5-5.76-8.46-7.9-15a69.79 69.79 0 0 1-3.28-23.14V269h44.25v62.19h31.49v35h-31.49v46.27c0 9.49 1.58 15.69 4.85 19s8.04 4.67 14.36 4.54zm178-42.43a184.81 184.81 0 0 1-1.12 19.31H1614.5c.33 9 3.49 16 9.25 21.1s13.55 7.57 23.37 7.45c13.43 0 22.12-4.29 26-13h43.34c-2.14 13.66-9.59 24.83-22.35 33.41s-28.44 12.87-47 12.87c-23.71 0-42.33-6.55-56.1-19.64s-20.55-31.15-20.55-54.29q0-34 20.55-53.84 20.55-19.84 54.63-19.76c21.56 0 39 6.21 52.6 18.51s20.21 28.24 20.21 47.88zm-104-8.12h60.38q-.33-13.89-7.78-21.34-7.45-7.45-21.68-7.45c-9.48 0-16.93 2.6-22.35 7.9s-8.41 12.19-8.52 20.89zm124.1 84.99V331.15h44.24v29.13c2.26-10 7.11-17.73 14.34-23.26a38.83 38.83 0 0 1 24.15-8.24 49.44 49.44 0 0 1 11.52 1.13v41a130.25 130.25 0 0 0-13.32-.91q-36.75 0-36.69 46.51v53.73z"/><path d="M362.83 288.83c-13.63-13.77-31-20.66-51.93-20.66H225v83a46.4 46.4 0 0 1 0 88.43v30.63h46.73v-56H311c20.94 0 38.3-6.89 51.93-20.67s20.52-31.2 20.52-52.35-6.92-38.61-20.62-52.38zm-35.91 77.52c-6.05 6.53-13.78 9.84-23.26 9.84h-32.05v-69.86h32.05c9.41 0 17.14 3.3 23.26 9.84s9.06 14.9 9.06 25.09-2.98 18.55-9.06 25.09z" fill-rule="evenodd"/><path d="M200.84 429.58A33.86 33.86 0 1 0 167 395.72a33.86 33.86 0 0 0 33.84 33.86z"/></g></svg>
