<svg xmlns="http://www.w3.org/2000/svg" xmlns:xlink="http://www.w3.org/1999/xlink" viewBox="0 0 2000 742.9"><defs><path id="A" d="M333.8 185.4h1332.5v372.2H333.8z"/></defs><clipPath id="B"><use xlink:href="#A"/></clipPath><g clip-path="url(#B)" fill="currentColor"><path d="M519.9 185.4c-102.6 0-186.1 83.5-186.1 186.1 0 73.8 43.2 137.7 105.6 167.8v.1h.3c24.3 11.7 51.6 18.2 80.3 18.2 102.5-.1 186-83.6 186-186.1s-83.5-186.1-186.1-186.1zm0 15.2c94.2 0 170.8 76.6 170.8 170.8 0 27.1-6.4 52.6-17.6 75.4-24.6-11.9-49.6-20.8-74.8-26.8V277.6c0-4.9-3.9-8.9-8.8-8.9h-31.3-78.8-31.3c-4.9 0-8.8 4-8.8 8.9v143.2c-24.4 6-48.7 14.7-72.7 26.2-11.3-22.8-17.6-48.4-17.6-75.5 0-94.2 76.7-170.9 170.9-170.9zM376.5 464.2c20.2-10 41.3-17.7 62.8-23V522c-25.5-13.6-47.1-33.7-62.8-57.8zm102.9 73.2V346.7c0-22 18.1-40.4 39.7-40.4s39.2 17.9 39.2 39.9v.5h0V413c-18.4-2.1-36.9-2.8-55.4-1.9l-15.2 22.1c23.7-2 46.7-1.8 69.5.7h.6c.2 0 .3 0 .5.1 3.9.5 18.4 2.3 31.6 5.6l-31.6 10.7v87.4c-12.4 2.8-25.2 4.4-38.4 4.4-14 .2-27.5-1.6-40.5-4.7zm119-14.3v-81.6c21.5 5.4 42.9 13.3 64.3 23.7-16.2 24.4-38.3 44.4-64.3 57.9zm210-278.8h54.2c31.7 0 50.8 18.6 50.8 45.9v.4c0 30.9-23.9 46.6-53.6 46.6h-22.2V377h-29.2V244.3h0zm52.3 66.8c14.6 0 23.1-8.7 23.1-20.1v-.4c0-13.1-9.1-20.1-23.7-20.1h-22.6v40.6h23.2zm76-.1v-.4c0-37.7 29.8-68.6 70.7-68.6s70.3 30.5 70.3 68.2v.4c0 37.7-29.8 68.6-70.7 68.6-40.9-.1-70.3-30.6-70.3-68.2zm110.5 0v-.4c0-22.7-16.7-41.7-40.2-41.7s-39.8 18.6-39.8 41.3v.4c0 22.7 16.7 41.7 40.2 41.7 23.5-.1 39.8-18.6 39.8-41.3zm64-66.7h26.9l62.1 81.6v-81.6h28.8v132.6h-24.8l-64.2-84.3v84.3h-28.8V244.3zm188.2 26.9H1259v-26.9h109.9v26.9h-40.4v105.7h-29.2l.1-105.7h0zm99.4-26.9h100v26h-71v26.9h62.5v26h-62.5v27.9h72v26h-101V244.3zm134.6 0h31.5l34.9 56.1 34.9-56.1h31.5v132.6h-29v-86.6l-37.3 56.6h-.8l-37-56.1v86h-28.6V244.3zM808.3 436.8h6.6l39.2 49.8v-49.8h6.8V499h-5.6l-40.1-51v51h-6.8l-.1-62.2h0zm134.1 0h44.9v6.4h-37.9v21.2h33.9v6.4h-33.9v21.8h38.4v6.4h-45.4v-62.2zm139.2 6.5h-21v-6.5h48.9v6.5h-21V499h-7v-55.7zm100-6.5h7.7l17.8 51.8 17.1-52h5.8l17.1 52 17.8-51.8h7.4l-22.2 62.6h-5.9l-17.1-50.4-17.1 50.4h-5.9l-22.5-62.6zm161.1 31.3v-.2c0-17.1 12.9-32.1 31.8-32.1s31.6 14.8 31.6 32v.2c0 17.1-12.9 32.1-31.8 32.1s-31.6-14.9-31.6-32zm56.1 0v-.2c0-14.1-10.3-25.7-24.5-25.7s-24.3 11.4-24.3 25.5v.2c0 14.1 10.3 25.7 24.5 25.7s24.3-11.4 24.3-25.5zm86.1-31.3h26.7c7.7 0 13.8 2.3 17.7 6.2 3.1 3.1 4.8 7.3 4.8 12.2v.2c0 10.3-7.1 16.4-16.9 18.1l19.1 25.4h-8.6l-18-24.1h-17.8V499h-7v-62.2zm26.1 31.7c9.2 0 16-4.8 16-12.8v-.2c0-7.7-5.9-12.2-15.9-12.2h-19.2v25.2h19.1zm102.1-31.7h7v37.1l35.7-37.1h9.1l-26.7 27.2 27.8 35h-8.8l-23.9-30.1-13.2 13.4V499h-7v-62.2z"/></g></svg>
