<svg xmlns="http://www.w3.org/2000/svg" viewBox="0 0 2000 742.9" fill="currentColor"><path d="M992 294.66q14.6 6.48 22.37 18.59 7.77 12.11 7.78 28.74 0 16.44-7.78 28.64-7.78 12.2-22.37 18.7-14.58 6.48-34.25 6.48H923.6v43.66h-28.1V288.18h62.25q19.65 0 34.25 6.48zm-7.67 69.6q9.51-7.78 9.51-22.27 0-14.49-9.51-22.26-9.51-7.73-27.88-7.73H923.6v60h32.85q18.36 0 27.88-7.74zm83.21 69.16a55.17 55.17 0 0 1-21.94-21.08 63 63 0 0 1 0-61 55.45 55.45 0 0 1 21.94-21 65.48 65.48 0 0 1 31.55-7.56q17.73 0 31.78 7.56a55.49 55.49 0 0 1 21.93 21 63 63 0 0 1 0 61 55.21 55.21 0 0 1-21.93 21.08q-14.05 7.56-31.78 7.56a65.48 65.48 0 0 1-31.55-7.56zm56.19-25.51q9.74-9.93 9.73-26.15-.01-16.22-9.73-26.15-9.72-9.94-24.64-9.94-14.92 0-24.53 9.94-9.61 9.94-9.61 26.15 0 16.21 9.61 26.15 9.62 9.94 24.53 9.95 14.91.01 24.64-9.95zm83.21 25.51a55.17 55.17 0 0 1-21.94-21.08 63 63 0 0 1 0-61 55.45 55.45 0 0 1 21.94-21 65.52 65.52 0 0 1 31.56-7.56q17.71 0 31.77 7.56a55.49 55.49 0 0 1 21.93 21 63 63 0 0 1 0 61 55.21 55.21 0 0 1-21.93 21.08q-14.05 7.58-31.77 7.58a65.52 65.52 0 0 1-31.56-7.58zm56.19-25.51q9.73-9.93 9.73-26.15 0-16.22-9.73-26.15-9.72-9.94-24.63-9.94-14.91 0-24.5 9.94-9.62 9.94-9.61 26.15.01 16.21 9.61 26.15 9.61 9.94 24.54 9.95 14.93.01 24.59-9.95zM1326 279.1h27v160.37h-27zm152.61 138.76v21.61H1379v-17.08l63.33-76.72h-62v-21.61h96.61v17.07l-63.54 76.73z"/><path d="M498.48 252.42l-50.08 63.35-3.78 4.82 18 79.06 17.95 79.06 72.64 35.16L625.82 549l72.64-35.15 72.64-35.16 18-79.06 18-79.06-3.77-4.82-50.09-63.35-46.3-58.54H544.78zm153.4-3.66c-13.88 17.49-25.61 31.8-26.06 31.8s-12.19-14.31-26.07-31.8L574.52 217h102.59zm-71 12.87l28.92 36.91c1 1.57-1.91 5.7-20.88 29.76-17.38 22.05-22.44 27.87-24 27.6-2.39-.41-87.2-35.9-88.42-37-.46-.42 13.32-18.64 30.62-40.49 45.44-57.37 43.25-54.76 44.74-53.19.7.78 13.78 17.12 29.05 36.41zM741 274l32.21 41.88c-.6.6-89.2 19.33-89.59 18.94-.14-.14 5-23.53 11.45-52s12-51.37 12.45-51S723 251.22 741 274zm-70.84 15.76l-8.5 36c-.21.18-5-5.4-10.7-12.45-8.79-10.94-10.15-13.1-9.18-14.65 2.45-3.93 35.7-45.39 36.08-45 .19.21-3.27 16.44-7.74 36.05zM635.88 331c8 10 9 11.68 7.38 12.33-1 .42-10.9 2.61-22 4.88l-21.44 4.55c-.72.24-1 0-.5-.91 2-3.45 26-32.89 26.63-32.68.4.13 4.85 5.46 9.93 11.83zm143.53 8.85c-.3 1-5.54 23.8-11.63 50.72L756.12 442l-.57 2.44-2.33-2.44c-3.38-3.53-65-81.62-65.59-83.06-.32-.85 13.14-4.1 45.11-10.9l46.4-9.8c.4-.06.57.64.27 1.61zm-267 19.26c20.91 8.79 38 16.32 38 16.74s-12.09 16-26.91 34.7c-22.45 28.29-27.07 33.62-27.73 32-.44-1.1-5.37-22.43-11-47.41l-11-48.7c-.43-1.81-.53-3.28-.12-3.28s17.89 7.16 38.8 15.95zm140.16 8c-.29 1-8 34.93-17.18 75.45L618 517.88c-.63 1.39-9.18-2.43-54.59-24.44l-54.13-26.95c-.13-.48 14.79-19.88 33.22-43.13L576 381.1l36.73-7.8 38.56-7.87c1.3-.07 1.71.43 1.32 1.67zm55.76 55.21L742 466c.12 1.44-97.76 49.38-98.76 48.38-.33-.34 5.85-29.11 13.74-64l17.18-71.23c.37.45 15.78 19.85 34.21 43.16z" fill-rule="evenodd"/></svg>
