<svg xmlns="http://www.w3.org/2000/svg" viewBox="0 0 2000 742.9" fill="currentColor"><path d="M-1135.8 1568.9v-35h-73.8v-262.8h73.7v-34.9h14.1v34.6h30.7v-34.7h14c0 10 .5 20-.2 30-.5 6.9 2 9.5 8.5 11.6 54.4 17.6 91.4 68.9 90.8 125.4-.6 57.5-37.7 107.5-92.9 124.5-4.9 1.5-6.5 3.7-6.4 8.7.2 10.9-.3 21.8-.5 32.7h-12.6v-36.3l-31.6 1.4v34.9l-13.8-.1zm59.3-270.7v208.6c46.7-12.3 81.4-63.7 76.8-113.3-4-44.8-42.3-92.4-76.8-95.3zm-59.4 214v-219.9h-52.5v219.9h52.5zm44.9-.7v-7.6-203.3c0-1.3.4-2.7-.1-3.7-.7-1.4-2-3.5-3.2-3.6-8.9-.8-17.8-1.1-26.9-1.6v219.9l30.2-.1zm-232.7 22.1c-7.4 0-14.1.3-20.7-.2-1.7-.1-3.7-2.9-4.7-4.9l-32.8-69.3c-2-4.4-4.4-5.6-9.1-5.6h-128.7c-4.7 0-7 1.6-8.9 5.8l-32.2 69.6c-1.7 3.7-3.7 4.9-7.5 4.7-5.6-.3-11.2-.1-17.9-.1l4.9-11 114.9-246.1c2.4-5.1 5.4-6.1 10.2-5.7 4.6.4 8.7-.8 11.7 5.5l118.3 251.5c.9 1.7 1.5 3.4 2.5 5.8zm-70.9-101l-60.6-129.7-60.5 129.7h121.1zm-357.6-161.4l96.5.1c3.5 0 7.1.7 10.6 1.4 39.5 8 68.2 45.8 64.3 84.4-4.4 43.4-37.6 74.5-79.9 74.7h-63.8-7.4v50.9 50.6h-20.3v-262.1zm20.6 140h69.4c31.5 0 57.4-24.1 60.1-55.6 2.5-29.3-19.1-57.2-48.7-62.8-4.1-.8-8.3-1-12.5-1.1-22.6-.1-45.3 0-68.2 0l-.1 119.5zm436.5-139.9h19.8v261.9h-19.8v-261.9zM-936 1509c0 14-10.6 24.6-24.7 24.5-13.9-.1-24.7-10.8-24.8-24.7 0-13.9 10.8-24.8 24.6-24.9 14.2-.1 24.8 10.6 24.9 25.1zM654.4 414.6l64.8 56.8 62.5 55.4c2.5 2.3 3.5 6.2 5.1 9.4-3.3 1.3-6.7 3.8-10.1 3.8-20.7.4-41.3.4-62 0-4-.1-8.9-1.8-11.9-4.5L569.2 416.8c-6-5.3-6.5-9.5-1.6-15.8 8-10.1 15.5-20.5 22.7-31.2 3.3-4.9 7.2-6.2 12.8-6.2l75.5.2c26.8-.5 49.5-20.4 53.3-45.8 4.1-27.8-10.6-53.4-36.2-61.8-6.4-2.1-13.5-3-20.3-3.1-31.5-.3-62.9 0-94.4-.3-3.6 0-8.9-.8-10.2-3.1-1.3-2.2.7-7.2 2.4-10.3 5.7-10.2 12.2-19.9 17.9-30 2.9-5.1 6.5-6.9 12.3-6.9 28.5.2 57 .9 85.4 0 61.6-2 106.3 50 104.8 107.8-1.3 49.9-32.6 91.2-78.4 101.1-15.3 3.3-31.5 2.3-47.4 3.1-3.4.3-7 .1-13.4.1zm520 121.5c-20.5 1.1-20.4 1.1-23.6-17.1-2.8-15.8-6-31.5-10.3-47.2l-12 64H1108l-25.7-107.7h-1.1l-.8 11.8-13.8 1.1c0 22.1-.6 43.8.5 65.4.2 3.8 7.2 7.3 11 11 .7-.6 1.5-1.2 2.2-1.9v19.6c-20.6 5.9-36.5-5.4-36.9-27-.4-22.1-.1-44.2-.1-66.7l-10.7-1.6v-16.7l10.2-1.1v-33.3h23.2v33.8h39.1l13.6 67.9h1.5l9.5-52.8c3-16.4 3.1-16.4 20.9-14.3l11.6 66.1c.5.1 1.1.1 1.6.2l8.5-42.6.9-5.3c4.3-20.9 4.3-20.9 27.9-18.4l-26.7 112.8zm-313.3-.1V376.6c6.2 0 12.5-.6 18.5.3 2.2.3 4.5 4 5.5 6.7l28.1 77.4c.9 2.4 1.8 4.8 4.4 6.8v-90.6h22.5v159.3c-4.6 0-9.3-.4-14 .1-5.5.6-7.7-1.8-9.5-6.8l-29.1-79.9c-.7-1.9-1.6-3.8-3.8-5.5V536h-22.6zm.9-331.3c15.1 0 29.8-.8 44.3.2 13.9 1 23.7 8.8 28.8 22.2 9.2 24.3 3.4 49.3-15.7 64.5l24.2 72.1h-24.2c-6-18.9-12.6-37.7-17.7-56.9-2.5-9.7-6.9-12.9-17.1-9.8v66.8h-22.7l.1-159.1zm22.9 70.3c16.3 1.9 24.3 0 28.1-6.5 4.4-7.4 3.9-31.5-1.4-37.2-7.6-8.2-17.4-5-26.7-5.2V275zm154 88.9h-22.7l-7.1-33.9c-9.1 0-17.8-.4-26.4.3-2.1.2-5.2 3.4-5.8 5.8-2.4 9.2-3.9 18.5-5.7 27.8h-22.8l35.5-159h19.5l35.5 159zm-44.6-110.8c-.5.1-1.1.2-1.6.2l-10.5 54.5h22.7l-10.6-54.7zm193.8 19.3v21.7h-38.7v47.1h44.3v22.5h-67.5V204.8h67.2v20.8h-44v46.8h38.7zm247.5 264.1c-7.6 0-14.2.5-20.6-.3-2.4-.3-5.3-3.3-6.4-5.8-6.1-13.6-11.7-27.4-17.6-41.5-16.3 12.5-10.7 30.3-12 46.9h-22.4V377.1h22.2v92.3c.6.2 1.3.5 1.9.7l12.8-22.7 6.1-11c8.9-16 9.6-16.3 30.1-12.8l-22.7 38.5c-3.1 5-3.1 8.9-.5 14l25.2 51.5c1.3 2.4 2.3 5.1 3.9 8.9zm-349.9-310.6h-39.9v-21h66.1c-1 7.9-.6 16.1-3.2 23.3l-38 104.2c-1.1 3-2.1 6.1-3.4 10.1h43.3v21.3h-68.4c1.1-8.9.6-18.3 3.4-26.6 11.6-33.5 24.2-66.7 36.4-100 1.2-3.4 2.2-6.8 3.7-11.3zm191 253.4c0 9.3.4 18.6-.1 27.8-1 18.2-14.5 30.4-33.2 30.7-17.9.3-32.4-10.9-33.4-28.2-1.2-20.2-1.2-40.6.1-60.9 1.1-17.3 15.3-27.7 33.9-27.3 18.1.3 31.3 11.8 32.6 29.2.6 9.6 0 19.2.1 28.7-.1 0-.1 0 0 0zm-22.8.1v-23.2c-.2-7.3-3.5-12-11.5-11.7-7.4.3-10.5 5.1-10.5 11.9v46.5c.1 6.8 3.4 11.7 10.7 11.8 7.8.2 11.2-4.7 11.3-12 .2-7.8 0-15.5 0-23.3zm64.3 56.8h-22.4V423.1h21.7l1 8.9 29.7-12.9v25.6c-3.2 0-6-.2-8.9 0-12.9 1-20.8 9.8-21 24.3l-.1 67.2zm-291.5-85c-1.4-17.5-14.6-29.4-32.2-29.8-19.6-.4-33.4 10.1-34.6 28.6-1.3 19-1.3 38.2-.2 57.2 1.1 18.9 13.2 29.4 32.2 30.5 19.7 1.2 36.3-15 34.1-33.7-1-.2-2.2-.5-3.3-.5-8.3.5-17.9-3.5-22.6 8.2-.8 1.9-7.5 3.2-10.4 2.1-3.2-1.3-6.6-5.3-7.4-8.7-1.2-5.3-.3-11-.3-17.1h45.1v-10c-.1-8.9.3-17.9-.4-26.8zm-22.5 18.3h-22.1c.6-8.3-3.4-17.4 5-23.2 2.7-1.9 8.8-2 11.6-.3 8.6 5.6 4.6 15 5.5 23.5z"/></svg>
