<svg xmlns="http://www.w3.org/2000/svg" viewBox="0 0 1440 534" fill="currentColor"><path d="M392 191a217.94 217.94 0 0 0-85.49 46.64C276.11 266 296.76 291.32 297 292s-11.18-20.45 15.56-45.62a247.46 247.46 0 0 1 84.87-44.09c6.39-1.79 12.82-3.36 19.14-4.5h.43l7.78-13h-2A172.71 172.71 0 0 0 392 191zm34.49-36.32a124.12 124.12 0 0 0-10.34-7.78h-.4a238.25 238.25 0 0 0-33.18 7.16C348.18 163.53 301.66 183.44 277 223a45.14 45.14 0 0 0-2.33 39.49v-5.32c0-.62-1.69-58.6 118.09-92.5 9.94-2.95 21.52-5.66 33.25-8.32h2.12zm7.3 7.53a249.18 249.18 0 0 0-37.85 7.79 247.13 247.13 0 0 0-86.5 42.82c-17.13 13.37-28 29.33-29.83 44-.94 7.14 7.76 22.37 7.76 22.37l-1.79-5.34s-7.76-24.86 30.64-53.34a208.81 208.81 0 0 1 70-34.51c13.67-3.88 26.74-6.44 41.28-9.1h.5v-.55l6.39-12.57.85-1.64zm-167.5 74.63c1.39-23.31 19-44.31 52.19-63.27a226.22 226.22 0 0 1 58.25-25.1 216.19 216.19 0 0 1 33.06-6.61l-12.23-9a201.14 201.14 0 0 0-27.34 5.92C267.46 167.9 255 218 255.9 238.09c2 35.06 43.57 60 43.57 60s-35.36-26.9-33.18-61.25zm1.25 105.95a218.1 218.1 0 0 0 85.61-46.65c30.47-28.36 9.79-53.71 9.57-54.4s11 20.4-15.68 45.63a248 248 0 0 1-84.87 44.36c-6.39 1.79-12.83 3.33-19.21 4.49h-.38l-7.77 13h1.93a170.39 170.39 0 0 0 30.8-6.43zm-34.45 36.53a105.81 105.81 0 0 0 10.34 7.78h.7a236.78 236.78 0 0 0 33.2-7.16c34.19-9.64 80.29-29.53 105.24-69.09a45 45 0 0 0 2.27-39.49v5.44c0 .63 1.69 58.6-118.17 92.5-10.44 2.93-21.75 5.67-33.43 8.15l-1.54.55zm-7.23-7.53a252.45 252.45 0 0 0 37.82-7.79A247.51 247.51 0 0 0 350 321.34c17.4-13.3 28.16-29.3 29.83-44a57.54 57.54 0 0 0-7.77-22.34l1.72 5.37s7.85 24.92-30.57 53.38a207.15 207.15 0 0 1-69.93 34.44c-13.67 3.88-26.82 6.44-41.28 9.1h-.3v.55c-1.09 2.23-6.39 12.42-6.39 12.57l-1.39 1.57zm167.43-74.63c-1.47 23.31-19 44.31-52.19 63.27a230.26 230.26 0 0 1-58.23 25.35 218.24 218.24 0 0 1-33 6.61l12.1 8.7a196.09 196.09 0 0 0 27.34-5.92C392 366.1 404.79 316 403.72 296.14c-2-35-43.69-60-43.69-60s35.37 26.67 33.26 61.02zM1216.07 210v109.6a10 10 0 0 1-.84 4.35 11.66 11.66 0 0 1-2.34 3.4 10.91 10.91 0 0 1-3.5 2.26 11.25 11.25 0 0 1-4.28.87 12.89 12.89 0 0 1-4.12-.72 10.75 10.75 0 0 1-3.65-2.48l-79.53-82.16v83.8H1096V219.05a10 10 0 0 1 1.86-6 11.85 11.85 0 0 1 4.82-4.05 11 11 0 0 1 12 2.48l79.75 82.24V210zm-141.45 97.32v21.6h-78.76a33.94 33.94 0 0 1-10.19-1.64 28.18 28.18 0 0 1-9.94-5.12 29.65 29.65 0 0 1-7.77-9.4 30.39 30.39 0 0 1-3-14.16v-77.76a11 11 0 0 1 .8-4.28 10.37 10.37 0 0 1 2.31-3.5 13.74 13.74 0 0 1 3.5-2.34 11.38 11.38 0 0 1 4.35-.77h98.34v21.52h-87.17v67.1a8.79 8.79 0 0 0 2.24 6.47 9.16 9.16 0 0 0 6.67 2.26zm-9.82-48.83v22.17h-68.94v-21.82zM922.48 279v-19.34a31.84 31.84 0 0 0-2-11.51 26.17 26.17 0 0 0-5.81-8.92 26.73 26.73 0 0 0-9.1-5.69 31.36 31.36 0 0 0-11.57-2.09h-48.24v75.82H894a31.12 31.12 0 0 0 11.58-2 25.16 25.16 0 0 0 14.91-14.61 31.79 31.79 0 0 0 1.99-11.66zm21.84-19.38V279a50.9 50.9 0 0 1-3.8 20.06A47.91 47.91 0 0 1 930 314.65 48.45 48.45 0 0 1 914.4 325a52.75 52.75 0 0 1-20.06 3.73H835a11.24 11.24 0 0 1-7.85-3.11 12 12 0 0 1-2.34-3.5 10.62 10.62 0 0 1-.77-4.28v-97.1a11.38 11.38 0 0 1 .77-4.28 11.9 11.9 0 0 1 2.34-3.48 13.59 13.59 0 0 1 3.48-2.33 10.9 10.9 0 0 1 4.37-.77h59a52.75 52.75 0 0 1 20 3.73 46.92 46.92 0 0 1 15.53 10.33 46.15 46.15 0 0 1 10.56 15.54 50.2 50.2 0 0 1 4.23 20.18zM798.59 210v118.87h-21.84V210zm-146.05 0v48.49h76.64V210H751v118.87h-21.82v-48.26h-76.64v48.63h-21.85V210zm-40 83.88a35.53 35.53 0 0 1-1.72 11.48 33.47 33.47 0 0 1-4.22 9 28.16 28.16 0 0 1-6.37 6.61 34.51 34.51 0 0 1-7.77 4.52 39.12 39.12 0 0 1-15.69 3.41H493v-21.6h84.28a12.66 12.66 0 0 0 9.79-3.35 13.74 13.74 0 0 0 3.43-9.79 15.78 15.78 0 0 0-1.24-5.75 10.74 10.74 0 0 0-6.76-7.15 14.93 14.93 0 0 0-5.45-1h-49.94a37.93 37.93 0 0 1-11.33-1.87 35 35 0 0 1-11.43-6 34 34 0 0 1-8.78-10.89 36.25 36.25 0 0 1-3.42-16.4 35.57 35.57 0 0 1 3.42-16.4 34 34 0 0 1 8.78-10.86 33.42 33.42 0 0 1 11.43-6.07 38.22 38.22 0 0 1 11.33-1.77h74.41v21.52h-74.41a12.44 12.44 0 0 0-9.62 3.73 14 14 0 0 0-3.5 9.94 13.54 13.54 0 0 0 3.5 9.82 12.7 12.7 0 0 0 9.62 3.48h50.45a38.49 38.49 0 0 1 7.78 1 34.74 34.74 0 0 1 7.78 2.73 37.28 37.28 0 0 1 7.78 4.57 30.21 30.21 0 0 1 6.21 6.61 33.76 33.76 0 0 1 4.35 9 37.26 37.26 0 0 1 1.12 11.43z"/></svg>
