<svg xmlns="http://www.w3.org/2000/svg" width="180" height="71" fill="currentColor"><circle cx="1.289" cy="66.157" r="1.289"/><circle cx="178.711" cy="66.157" r="1.289"/><path d="M18.092 62.099a.54.54 0 0 1-.142.163.3.3 0 0 1-.177.05c-.08 0-.175-.04-.284-.12a4.23 4.23 0 0 0-.411-.262 3 3 0 0 0-.588-.269 2.5 2.5 0 0 0-.829-.12 2.4 2.4 0 0 0-.815.128 1.74 1.74 0 0 0-.588.333c-.156.142-.274.309-.354.503a1.56 1.56 0 0 0-.12.617c0 .284.069.52.206.709s.326.343.553.475.491.248.78.347l.893.298.893.354c.288.132.553.291.78.489a2.18 2.18 0 0 1 .553.73c.142.288.213.643.213 1.063 0 .444-.076.862-.227 1.255s-.373.725-.666 1.014-.645.515-1.07.68-.9.248-1.439.248c-.662 0-1.262-.118-1.8-.354a4.27 4.27 0 0 1-1.382-.971l.397-.652c.038-.052.083-.094.135-.127s.118-.057.184-.057.13.026.206.078a2.8 2.8 0 0 1 .269.184l.34.248a2.88 2.88 0 0 0 .432.248 3.19 3.19 0 0 0 .56.191 3.18 3.18 0 0 0 .702.071c.326 0 .617-.045.872-.135s.47-.215.645-.376.317-.362.411-.588a1.96 1.96 0 0 0 .142-.758c0-.307-.071-.558-.213-.751a1.79 1.79 0 0 0-.546-.496 3.72 3.72 0 0 0-.78-.333l-.893-.283-.893-.34c-.293-.128-.553-.293-.78-.496a2.33 2.33 0 0 1-.553-.758c-.137-.307-.206-.685-.206-1.134a2.73 2.73 0 0 1 .815-1.935c.269-.26.598-.468.985-.624s.841-.234 1.347-.234c.567 0 1.082.09 1.545.269a3.65 3.65 0 0 1 1.233.78l-.333.652zm6.776 2.864h.517a1.21 1.21 0 0 0 .432-.064.8.8 0 0 0 .298-.234l3.381-3.828c.095-.123.194-.208.298-.255a.93.93 0 0 1 .383-.071h1.163l-3.87 4.374c-.095.113-.187.208-.277.284a1.23 1.23 0 0 1-.276.177 1.09 1.09 0 0 1 .347.191c.104.08.206.187.305.319l4.04 4.813h-1.191a1.75 1.75 0 0 1-.234-.014.49.49 0 0 1-.163-.057.66.66 0 0 1-.128-.092c-.038-.033-.066-.08-.099-.128l-3.502-4.033c-.095-.118-.196-.201-.305-.248s-.274-.078-.496-.078h-.624v4.65H23.5V60.511h1.368v4.452zm14.738 1.658v4.047h-1.375v-4.047l-3.721-6.11h1.205c.123 0 .22.031.291.092s.132.132.184.227l2.325 3.948.234.468a3.86 3.86 0 0 1 .184.432l.177-.432.22-.468 2.318-3.948c.043-.08.102-.154.177-.22s.173-.099.291-.099h1.212l-3.721 6.11zm16.169-6.11v10.158h-.688c-.109 0-.201-.019-.276-.057s-.142-.102-.213-.191l-5.876-7.655.021.347.007.319v7.237h-1.205V60.511h.709a.77.77 0 0 1 .156.014.29.29 0 0 1 .113.035c.033.014.066.038.099.071s.069.066.106.113l5.876 7.648-.028-.354-.007-.333V60.51h1.205zm11.769 9.038l-.007 1.12h-6.259V60.511h6.259v1.12h-4.884v3.374h3.955v1.077h-3.955v3.466h4.891zm11.691-7.882h-3.289v9.002h-1.368v-9.002h-3.296v-1.155h7.953v1.155zm16.957 0h-3.289v9.002h-1.368v-9.002h-3.296v-1.155h7.953v1.155zm7.227 3.764c.397 0 .747-.047 1.049-.142a2.19 2.19 0 0 0 .766-.411 1.72 1.72 0 0 0 .468-.638 2.07 2.07 0 0 0 .156-.815c0-.605-.199-1.061-.596-1.368s-.992-.461-1.786-.461h-1.503v3.835h1.446zm4.693 5.238h-1.22c-.25 0-.434-.097-.552-.291l-2.637-3.629c-.081-.113-.168-.194-.263-.241-.089-.052-.231-.078-.425-.078h-1.042v4.239h-1.368V60.511h2.871c.643 0 1.198.066 1.666.199s.853.314 1.155.56.534.543.68.893.22.733.22 1.163a2.91 2.91 0 0 1-.17 1.007c-.113.312-.279.593-.496.843s-.475.456-.787.631-.657.307-1.049.397c.175.099.326.243.454.432l2.963 4.033zm9.682-3.771l-1.595-4.133-.149-.425-.149-.524c-.099.383-.201.702-.305.957l-1.595 4.125h3.793zm2.863 3.771h-1.063a.46.46 0 0 1-.298-.092.56.56 0 0 1-.17-.234l-.95-2.453h-4.557l-.95 2.453c-.029.085-.083.161-.163.227s-.18.099-.298.099h-1.063l4.061-10.158h1.39l4.061 10.158zm13.046-5.075c0 .761-.12 1.453-.361 2.077s-.581 1.158-1.021 1.602a4.59 4.59 0 0 1-1.588 1.035c-.619.246-1.294.361-2.041.361H124.9V60.511h3.792c.747 0 1.427.123 2.041.369s1.149.586 1.588 1.035.78.978 1.021 1.602.361 1.316.361 2.077zm-1.41 0c0-.624-.085-1.181-.255-1.673s-.411-.907-.723-1.248a3.08 3.08 0 0 0-1.135-.78c-.444-.18-.94-.269-1.488-.269h-2.417v7.932h2.417c.548 0 1.044-.09 1.488-.269a3.12 3.12 0 0 0 1.135-.773c.312-.34.553-.756.723-1.248s.255-1.049.255-1.673zm7.673 5.075h-1.375V60.511h1.375v10.158zM153.7 60.511v10.158h-.688a.61.61 0 0 1-.276-.057.72.72 0 0 1-.213-.191l-5.876-7.655.021.347.007.319v7.237h-1.205V60.511h.709a.77.77 0 0 1 .156.014.29.29 0 0 1 .113.035c.033.014.067.038.1.071a.87.87 0 0 1 .106.113l5.876 7.648-.028-.354-.007-.333V60.51h1.205zm13.753 5.274v3.899a5.75 5.75 0 0 1-1.637.829c-.576.18-1.21.269-1.9.269-.817 0-1.554-.125-2.211-.376s-1.219-.61-1.687-1.063a4.71 4.71 0 0 1-1.071-1.645c-.25-.638-.375-1.34-.375-2.105 0-.775.12-1.481.361-2.119.246-.638.593-1.184 1.042-1.637a4.59 4.59 0 0 1 1.638-1.063c.642-.251 1.361-.376 2.155-.376.401 0 .775.031 1.119.092s.664.142.957.255a4.25 4.25 0 0 1 .816.404 4.8 4.8 0 0 1 .701.532l-.39.624c-.061.095-.141.156-.241.184-.094.024-.2 0-.319-.071l-.389-.241a3.14 3.14 0 0 0-.539-.269c-.213-.085-.456-.165-.744-.227s-.622-.092-1.014-.092c-.572 0-1.089.095-1.552.284a3.28 3.28 0 0 0-1.184.801c-.326.35-.577.766-.751 1.262s-.263 1.044-.263 1.659c0 .638.09 1.21.27 1.715a3.6 3.6 0 0 0 .779 1.283 3.38 3.38 0 0 0 1.234.801c.482.184 1.023.276 1.623.276.473 0 .891-.052 1.255-.156a5.42 5.42 0 0 0 1.077-.447v-2.233h-1.581a.31.31 0 0 1-.219-.078.26.26 0 0 1-.078-.191v-.78h3.118zM60.143 23.413c0 2.373 1.923 4.296 4.296 4.296a4.3 4.3 0 0 0 3.984-2.685h75.384v-3.437H68.329c-.686-1.46-2.17-2.47-3.89-2.47-2.373 0-4.296 1.923-4.296 4.296zM97.518 8.592c2.373 0 4.296-1.923 4.296-4.296S99.891 0 97.518 0c-1.72 0-3.203 1.011-3.89 2.47H72.924L63.58 13.103H32.112v3.437h80.584c.663 1.517 2.177 2.578 3.939 2.578 2.372 0 4.296-1.923 4.296-4.296s-1.924-4.296-4.296-4.296c-1.762 0-3.276 1.06-3.939 2.578H68.735l5.907-6.981h18.986c.686 1.46 2.17 2.47 3.89 2.47zM86.134 38.449c-2.373 0-4.296 1.923-4.296 4.296s1.923 4.296 4.296 4.296c1.72 0 3.204-1.011 3.89-2.47h20.705l9.344-10.632h31.467v-3.437H52.268c-.663-1.517-2.177-2.578-3.938-2.578-2.373 0-4.296 1.923-4.296 4.296s1.923 4.296 4.296 4.296c1.762 0 3.276-1.06 3.938-2.578h62.648l-5.906 6.981H90.023c-.686-1.46-2.17-2.47-3.89-2.47z"/></svg>
