<svg xmlns="http://www.w3.org/2000/svg" viewBox="0 0 2000 742.9" fill="currentColor"><path d="M715.5 354.7H615.1v-33.4h126.5v-33.4H614.9c-8.9 0-17.2 3.5-23.5 9.7-6.3 6.3-9.7 14.6-9.7 23.5V355c0 8.9 3.5 17.2 9.7 23.5 6.3 6.3 14.6 9.7 23.5 9.7h100.4v33.4H584.1v33.2h131.6c8.9 0 17.2-3.5 23.5-9.7 6.3-6.3 9.7-14.6 9.7-23.5v-33.8c0-8.9-3.5-17.2-9.7-23.5-6.5-6.2-14.8-9.6-23.7-9.6zm194.6-66.9H809.3c-4.4 0-8.7.9-12.7 2.6s-7.7 4.2-10.8 7.1c-3.1 3.1-5.6 6.8-7.1 10.8-1.7 4-2.4 8.4-2.4 12.7v100.8c0 4.4.9 8.7 2.4 12.7 1.7 4 4.2 7.7 7.1 10.8 3.1 3.1 6.8 5.6 10.8 7.1 4 1.7 8.4 2.6 12.7 2.6h100.8c8.9 0 17.2-3.5 23.5-9.7s9.7-14.6 9.7-23.5V321.1c0-8.9-3.5-17.2-9.7-23.5-6.3-6.3-14.7-9.8-23.5-9.8h0zm-.2 133.7H809.6V321.2h100.2v100.3zM1263 287.8h-98.3c-8.9 0-17.2 3.5-23.5 9.7-6.3 6.3-9.7 14.6-9.7 23.5v133.8h33.4V400h98v54.8h33.4V321.1c0-4.4-.9-8.7-2.4-12.7-1.7-4-4.2-7.7-7.1-10.8-3.1-3.1-6.8-5.6-10.8-7.1-4.3-1.8-8.6-2.7-13-2.7zm-.2 78.9H1165v-45.4h97.8v45.4zm391.4-78.9h-98.3c-4.4 0-8.7.9-12.7 2.4-4 1.7-7.7 4.2-10.8 7.1-3.1 3.1-5.6 6.8-7.1 10.8-1.7 4-2.6 8.4-2.6 12.7v134h33.4V400h98v54.8h33.4V321.1c0-8.9-3.5-17.2-9.7-23.5-6.3-6.3-14.7-9.8-23.6-9.8zm-.1 78.9h-97.8v-45.4h97.8v45.4zm-194.4 54.8h-13.4l-47.9-119.7c-1.6-4.2-4.5-7.7-8.2-10.1s-8-3.8-12.4-3.8H1348a22.42 22.42 0 0 0-15.7 6.4c-4.2 4.2-6.4 9.7-6.4 15.7v145h33.4V321.2h13.4l47.9 119.7c1.6 4.2 4.5 7.7 8.2 10.1s8 3.8 12.4 3.8h29.8a22.42 22.42 0 0 0 15.7-6.4c4.2-4.2 6.4-9.7 6.4-15.7v-145h-33.4v133.8zm-453.4-133.7h-33.4v133.8c0 8.9 3.5 17.2 9.7 23.5 6.3 6.3 14.6 9.7 23.5 9.7h100.4v-33.4h-100.2V287.8z"/><path d="M344.5 415.2c.5-.7 1.4-1.2 2.1-1.6.9-.3 1.7-.5 2.6-.5H495c.7 0 1.2.2 1.7.5s.9.9 1.2 1.4c.2.5.3 1.2.2 1.7-.2.5-.3 1.2-.9 1.6l-31 34.5c-.5.7-1.4 1.2-2.1 1.6-.9.3-1.7.5-2.6.5H315.7c-.7 0-1.2-.2-1.7-.5s-.9-.9-1.2-1.4c-.2-.5-.3-1.2-.2-1.7s.3-1.2.9-1.6l31-34.5zm152.9-28.3c.3.5.7 1 .9 1.6.2.5 0 1.2-.2 1.7s-.7 1-1.2 1.4c-.5.3-1 .5-1.7.5l-146 .2c-.9 0-1.7-.2-2.6-.5s-1.6-.9-2.1-1.6l-31-34.3c-.3-.5-.7-1-.9-1.6-.2-.5 0-1.2.2-1.7s.7-1 1.2-1.4c.5-.3 1-.5 1.7-.5l145.8-.2c.9 0 1.7.2 2.6.5s1.6.9 2.1 1.6l31.2 34.3zm-152.9-97c.5-.7 1.4-1.2 2.1-1.6.9-.3 1.7-.5 2.6-.5l145.8.2c.7 0 1.2.2 1.7.5s.9.9 1.2 1.4c.2.5.3 1.2.2 1.7-.2.5-.3 1.2-.9 1.6l-31 34.3c-.5.7-1.4 1.2-2.1 1.6-.9.3-1.7.5-2.6.5H315.7c-.7 0-1.2-.2-1.7-.5s-.9-.9-1.2-1.4c-.2-.5-.3-1.2-.2-1.7s.3-1.2.9-1.6l31-34.5z" fill-rule="evenodd"/></svg>
