<svg xmlns="http://www.w3.org/2000/svg" viewBox="0 0 2000 742.9" fill="currentColor"><path d="M693.8 345.6c41.5 0 75.3-33.1 75.3-73.9s-33.7-73.9-75.3-73.9-75.3 33.1-75.3 73.9 33.8 73.9 75.3 73.9z"/><ellipse cx="490.3" cy="471.2" rx="75.3" ry="73.9"/><path d="M693.8 397.3c-67.5 0-128.2-53.3-128.2-125.5 0-40.8-33.7-73.9-75.3-73.9s-75.3 33-75.3 73.8 34.4 73.9 75.3 73.9c75.9 0 128.2 60.7 128.2 125.5 0 41.2 33.7 73.9 75.3 73.9 41.5 0 75.3-33.1 75.3-73.9s-33.2-73.8-75.3-73.8zm264.2-53l-17.5-6.1c-10.8-3.7-29-9.4-29-28.7 0-15.9 12.5-26.3 32.1-26.3 21.3 0 35.4 13.2 37.8 35.4l.3 1.3h12.5v-35.8l-1-.3c-15.9-9.1-33.1-13.8-49.9-13.8-26 0-54 11.8-54 45.6 0 32.4 26 41.5 43.5 47.2l16.2 5.4c12.1 4 30.7 10.1 30.7 30.7 0 16.9-12.8 27.3-34.4 27.3-24.6 0-38.8-14.8-40.5-42.9v-1.7H892v40.5l.7.3c14.2 11.5 33.1 17.5 53 17.5 34.8 0 57-18.9 57-48.3.2-29.8-21.1-39.2-44.7-47.3zm128.2-25.7c-15.9 0-28.3 7.1-35.1 18.9v-16.9h-39.8v12.8h11.8c5.1 0 6.1 1.3 6.1 8.1v122.2c0 7.1-1.7 8.4-6.1 8.4h-11.8V484h66.1v-11.8h-19.2c-5.1 0-6.4-2-6.4-8.4v-40.5c6.4 8.4 16.9 12.8 30 12.8 30.4 0 49.9-24.3 49.9-61.4-.3-34.5-17.8-56.1-45.5-56.1zm-6.1 16.2c16.5 0 26.3 15.5 26.3 42.2 0 13.2-2.7 43.9-27.7 43.9-16.9 0-27.3-13.8-27.3-37.1v-7.4c.1-25.7 10.9-41.6 28.7-41.6zm119.5-16.2c-32.1 0-51 22.9-51 61.8 0 37.1 17.9 58.4 48.6 58.4 25.3 0 41.2-13.8 44.5-38.8l.3-2h-12.5l-.3 1.3c-4 22.6-20.9 25.3-28 25.3-18.9 0-28.3-14.8-28.7-44.2h71.2v-1.7c.3-2.7.3-6.1.3-9.1.1-32.7-15.7-51-44.4-51zm-1 12.9c17.2 0 21.3 18.2 21.6 34.1h-46.9c2-22 11.1-34.1 25.3-34.1zm101.2 11.8V321H1260v12.8h11.8c5.1 0 6.4 1.7 6.4 8.4v74.2c0 6.4-1.3 8.4-6.4 8.4H1260v11.8h65.5v-11.8h-18.6c-5.1 0-6.4-1.7-6.4-8.4v-37.8c0-24.6 11.1-37.1 33.4-37.1h6.7v-21.9h-8.1c-14.1-.3-25.9 8.5-32.7 23.7zm104-24.7c-14.5 0-28 3.4-40.5 10.1l-1 .3v32.4h12.8l.3-1.3c2-17.5 12.5-28.3 27-28.3 12.8 0 19.6 7.8 19.6 22.6v10.5l-29.4 3.4c-23.6 2.7-37.8 16.2-37.8 36.4 0 19.9 13.8 34.1 33.4 34.1 15.5 0 28.3-8.4 36.8-23.6l7.8 21.3h11.8v-83.7c.3-22.4-13.8-34.2-40.8-34.2zm-8.5 103.6c-9.8 0-16.2-7.4-16.2-19.2 0-13.2 7.4-20.6 22.3-22.3l21.3-2.4v2.7c-.4 23-12.2 41.2-27.4 41.2zm182.6 2.1c-5.7 0-9.8-4.4-12.8-8.4l-30.7-40.2 30-39.1c1.7-2 4.4-4 10.8-4h6.4v-11.8H1534v11.8h10.5c1 0 3 .3 3 2 0 .7-.3 1.7-1 2.7l-21.3 27.7-20.9-27.7a3.59 3.59 0 0 1-1-2.4c0-1 1.3-2 3.7-2h8.8V321h-55v11.5h6.7c5.4 0 7.4 2 10.1 5.4l32.1 41.5-27.7 36.4c-3 4-7.4 8.8-15.2 8.8h-5.1v11.8h48.9v-11.8h-9.8c-2 0-4.7-.3-4.7-2.7 0-.7.3-2.4 1.7-4l20.6-27 20.9 27.7c1 1 1.3 2.4 1.3 3.4 0 2-2.4 2.4-4.4 2.4h-7.8v11.8h56.4v-11.8c.2-.1-6.9-.1-6.9-.1z"/></svg>
