<svg xmlns="http://www.w3.org/2000/svg" width="116" height="59" fill="currentColor"><path d="M4.254 34.993s5.104 1.545 8.011 0C3.615 31.35.213 24.948.213 19.649c0-8.389 6.947-14.682 18.29-9.162 0 0 1.205-6.513 3.474-10.487l1.985.552-2.41 12.474-2.198 1.545C8.861 10.377 3.616 12.474 3.616 19.649c0 8.389 11.839 9.825 11.839 15.565 0 3.532-4.821 5.851-11.768 2.76l.567-2.98zM2.339 45.369l2.198-1.656c10.067 3.091 15.738-2.097 15.738-8.169 0-4.747-3.686-10.156-11.413-12.363l.638-2.98c9.216 1.987 14.887 7.948 14.887 15.013 0 10.818-8.507 15.234-18.999 12.253 0 0-.851 4.526-3.403 10.597L0 57.512l2.339-12.143z"/><path d="M40.207 42.077c0 1.511-.458 2.742-1.391 3.693-.916.951-2.078 1.426-3.484 1.426-.753 0-1.587-.149-2.47-.446s-1.62-.692-2.192-1.184l-.033-.713a24.4 24.4 0 0 1 .327-4.025h1.407l.965 3.566c.818.492 1.767.739 2.814.739.736-.442 1.08-1.155 1.08-2.14 0-.9-.409-1.656-1.276-2.267L33.01 38.79c-1.554-1.155-2.323-2.607-2.323-4.356 0-1.477.474-2.683 1.407-3.617.949-.934 2.159-1.401 3.631-1.401 1.309 0 2.601.306 3.893.917 0 1.8-.114 3.354-.344 4.661h-1.57l-.556-2.853c-.769-.509-1.685-.747-2.732-.713-.605.492-.916 1.18-.916 2.063 0 .509.18.972.523 1.388s1.063.938 2.127 1.567 1.848 1.167 2.355 1.617.916 1.002 1.227 1.656.474 1.439.474 2.356zm5.333 2.139c.36 0 .916-.11 1.652-.331l.213 1.248-3.026 1.961c-.556.034-1.096-.212-1.603-.739s-.769-1.121-.785-1.783v-7.361l-1.374.025-.082-1.325c.507-.459 1.031-.866 1.587-1.223l.982-3.311h1.341l.327 3.311h2.699l.033 1.095-.965 1.477h-1.701v5.782c0 .442.049.747.163.917.098.17.278.255.54.255z" fill-rule="evenodd"/><path d="M58.185 45.465l-2.405 1.63c-.311-.017-.638-.2-.965-.548a3.71 3.71 0 0 1-.818-1.286l-2.126 1.758-.622.051a2.53 2.53 0 0 1-2.028-.942c-.54-.628-.818-1.384-.818-2.267 0-1.223.523-2.191 1.538-2.904l3.746-.127v-2.267c0-1.358-.311-2.225-.916-2.598-.605.051-1.096.161-1.472.331l-.36 2.751-1.652.077c-.278-.934-.425-1.961-.425-3.082l.016-.51c.72-.407 1.587-.768 2.601-1.083.998-.314 1.767-.471 2.29-.471.491 0 .965.17 1.423.51a3.98 3.98 0 0 1 1.129 1.325c.147.323.213.968.229 1.936v6.113c0 .407.164.611.491.611l.965-.153.18 1.146zm-6.51-.662c.523-.017 1.194-.229 2.012-.637v-1.834l-.491-.025c-1.292 0-1.947.459-1.947 1.375 0 .459.147.832.425 1.121zm12.677-10.546l.703-.076c1.063 0 1.93.565 2.617 1.694.671 1.129 1.014 2.543 1.014 4.241 0 2.055-.507 3.744-1.538 5.069-1.014 1.325-2.339 1.987-3.959 1.987-1.194 0-2.486-.348-3.877-1.044v-15.87l-1.44-.204-.147-1.223c1.096-.543 2.257-.841 3.501-.891v.025l.949 1.121v7.132l2.176-1.961zm.016 10.724c.409-.425.753-1.019.998-1.783a8.3 8.3 0 0 0 .36-2.394c0-1.07-.196-1.982-.589-2.738-.376-.756-.883-1.133-1.521-1.133-.409 0-.883.195-1.439.586V44.6c.458.289.998.433 1.587.433l.605-.051z"/><path fill-rule="evenodd" d="M73.185 44.675c.605.255 1.096.509 1.423.764l-.082 1.248h-5.627l-.049-.866c.393-.289.883-.569 1.489-.841V30.258l-1.472-.204-.147-1.223c1.129-.56 2.29-.858 3.501-.891l.965 1.121v15.614z"/><path d="M82.607 40.625l-5.006-.076c.049 1.257.344 2.233.9 2.929s1.243 1.044 2.094 1.044c.72 0 1.554-.306 2.519-.917l.409 1.35-3.075 2.063-.638.051c-1.44 0-2.617-.59-3.55-1.77s-1.391-2.679-1.391-4.496c0-1.902.474-3.502 1.407-4.801.949-1.299 2.094-1.949 3.435-1.949 1.178 0 2.143.471 2.895 1.414s1.129 2.169 1.129 3.681l-1.129 1.477zm-3.582-4.636c-.671.509-1.112 1.443-1.309 2.802l3.403-.229c-.098-.73-.344-1.342-.72-1.834-.393-.492-.851-.739-1.374-.739zm9.193 4.662v4.305l2.356.433-.016 1.299h-6.789l-.131-.815c.409-.323.949-.662 1.587-1.019V31.455l-1.44-.229.016-1.299 6.331-.204c1.521 0 2.748.522 3.681 1.567.949 1.044 1.407 2.365 1.407 3.961 0 1.511-.442 2.776-1.325 3.795-.9 1.019-2.045 1.545-3.435 1.579l-2.241.025zm0-8.559v6.292c.523.136 1.031.204 1.505.204.802 0 1.407-.327 1.816-.981s.605-1.456.605-2.407c0-.73-.115-1.426-.311-2.089-.213-.662-.507-1.129-.883-1.401l-2.732.382zm16.816 13.373l-2.388 1.63c-.311-.017-.638-.2-.982-.548s-.605-.777-.801-1.286l-2.143 1.758-.605.051c-.834 0-1.505-.314-2.045-.942s-.802-1.384-.802-2.267c0-1.223.507-2.191 1.521-2.904l3.762-.127v-2.267c0-1.358-.311-2.225-.932-2.598-.605.051-1.096.161-1.472.331l-.344 2.751-1.652.077c-.294-.934-.442-1.961-.442-3.082l.016-.51c.736-.407 1.587-.768 2.601-1.083.998-.314 1.767-.471 2.29-.471.491 0 .966.17 1.424.51.474.34.85.781 1.128 1.325.147.323.229.968.246 1.936v6.113c0 .407.163.611.49.611l.949-.153.18 1.146zm-6.51-.662c.523-.017 1.194-.229 2.028-.637v-1.834l-.491-.025c-1.308 0-1.946.459-1.946 1.375 0 .459.131.832.409 1.121z"/><path fill-rule="evenodd" d="M115.405 35.709a5.74 5.74 0 0 1-1.096.662l-2.045 8.431c-.523 1.63-1.194 3.057-2.028 4.279-.818 1.223-1.881 2.309-3.174 3.26l-1.521-3.337c1.734-.628 3.059-1.443 3.992-2.445-.54-.17-1.031-.45-1.473-.841l-2.535-9.068-1.325-.739v-1.325h5.218l.065 1.121-1.03.662 1.112 4.865.246 2.216h.359c.557-2.327.966-4.67 1.244-7.03l-1.015-.509.017-1.325h4.924l.065 1.121z"/></svg>
