<svg xmlns="http://www.w3.org/2000/svg" viewBox="0 0 2000 742.9" fill="currentColor"><path d="M406.3 318.9l21.1 10.3 79.6 38.6 52.5 25.4c2.2 1 3.1 2.2 3.1 4.7v53.2c0 2.5-.8 3.7-3 4.8L456.2 506c-1.8.9-3.2.9-5 0l-101.8-49.3c-3.5-1.7-4.8-3.5-4.8-7.5.3-16.9.1-33.7.1-50.6 0-1 .1-2.1.2-3.6l8.3 3.9 96.1 46.7c2.7 1.3 4.9 1.4 7.7 0l41.6-20.2c.5-.2 1-.6 1.9-1.1-1.1-.6-1.8-1.1-2.6-1.5l-150.6-73c-2.1-1-2.9-2.1-2.9-4.5v-54c0-2 .6-3 2.5-3.9l104.4-50.6c1.4-.7 2.5-.7 3.9 0L558 286.6c3.1 1.5 4.3 3.1 4.3 6.6l-.1 51.1v3.6l-3.1-1.3L456 296.7c-1.1-.5-2.9-.7-3.9-.2l-44.2 21.4c-.6.2-.9.5-1.6 1zm866.1 134.4h-19.7v-22.1l-1.4 1.6c-10.8 15.5-26.1 22.2-44.6 22.1-15.6 0-29.6-4.7-41.4-15.1-11-9.8-17-22.3-18.8-36.7-2.1-16.9.9-32.9 10.9-47 12.6-17.6 30.2-25.6 51.8-25 17.2.5 31.3 7.4 41.5 21.5l.6.6h.6v-50.6h20.6l-.1 150.7zm-58.5-16.8c6.4 0 15.9-2.9 24-9.8 12-10.3 15.8-23.6 14.3-38.9-2.5-25.9-26.3-43.2-51.7-37.3-19.4 4.5-31.7 19.3-33.2 40.2-1.8 25.9 16.5 45.7 46.6 45.8zm421.4-82.8v-51h20.4v150.6H1636v-21.8c-.7.6-1 .8-1.2 1.1-10.9 15.8-26.4 22.4-45.1 22.3-16.1-.1-30.5-5.1-42.4-16.3-9.4-8.8-14.9-19.8-17-32.5-2.9-17.8-.3-34.6 10.2-49.6 12.5-17.9 30.2-26 51.8-25.4 17.6.4 31.8 7.5 42.1 22 .1.2.3.3.9.6zm-42.2 82.8c24.6.1 42.8-17.9 42.9-42.4.1-25.6-17.7-44.6-42-44.7-25-.1-43.3 18.6-43.3 44.4-.2 24.7 17.7 42.6 42.4 42.7zm-634.7-82.7v-21.1h20.8v120.6h-19.8v-21.5l-6.1 7.4c-9.8 10.5-22.2 15.3-36.4 15.7-17.5.5-33.2-4.3-45.9-16.8-13.3-13.1-18-29.4-17.3-47.6.5-12.6 4-24.4 11.5-34.7 12.6-17.3 29.9-25.1 51.1-24.7 12.8.3 24.3 4.4 33.7 13.2 2.8 2.7 5.3 6 8.4 9.5zM920 436.6c12.9-.3 25.6-6.6 33.7-20.8 5.8-10.2 6.6-21.2 4.4-32.6-4.4-22.5-25.1-37-47.6-33.2-19.7 3.3-32.7 17-35.5 37.8-3.7 26.8 14.9 48.5 45 48.8zm482.8-82.7v-21.1h20.6v120.6h-19.7v-21.3c-3 3.5-5.4 6.7-8.3 9.4-9.6 9.1-21.4 13.2-34.5 13.6-16.2.5-30.9-3.8-43.3-14.6-11.4-10-17.5-22.8-19.2-37.7-2.1-18.4 1.6-35.5 13.6-50.1 12.5-15.3 29.1-21.9 48.6-21.3 17.1.5 31.1 7.4 40.9 21.8.3-.1.5.1 1.3.7zm.9 39.8c-.3-2.9-.5-5.7-.9-8.6-4.5-29.3-36.1-44.9-62-30.4-13.8 7.7-20.5 20-21.6 35.4-2.1 29.7 20.4 50.1 49.2 45.9 21.5-3.2 35.2-20.2 35.3-42.3zm-657.6-75l-11.5 14.5-6.9-4.8c-10-6.4-20.7-10.9-32.9-10.4-5.3.2-10.4 1.6-15.1 4.2-12.4 6.8-15.8 25.4-1.5 33.9 6.4 3.8 13.5 6.6 20.5 9.6 9.8 4.2 19.8 7.8 29.4 12.2 8 3.6 14.8 8.9 18.9 17 7 14.1 5.7 37-12.9 49.8-10.6 7.3-22.6 10.3-35.3 10.3-20.3 0-38-6.9-53-20.7-.8-.8-1.8-1.4-2.9-2.3l12.5-14.5c2.1 2 3.8 4 5.9 5.7 15.7 13.3 33.5 18.2 53.5 12 12.7-4 18.6-15.2 15.1-27.2-1.5-5.2-4.7-9.2-9.3-11.5-7.3-3.7-15-6.8-22.5-10-7.9-3.4-16-6.3-23.8-9.9-3.8-1.7-7.4-4.1-10.7-6.7-19.8-15.5-19.1-43.6 1.3-58.8 10.4-7.7 22.2-10.6 34.9-10 16.7.7 31.6 6.5 44.9 16.4.3.2.7.6 1.4 1.2zm265.6 15.4h20.4v21.6c2.6-3 4.6-5.6 7-7.9 12.1-11.8 26.8-16.2 43.3-15.2 8.5.5 16.4 2.8 23.3 8 10.1 7.6 14.5 18.3 16.2 30.3.6 4.5.8 9.2.8 13.7v66.1 3.9h-20.9v-3.4l-.1-64.9c0-4.9-.7-10-2-14.7-3.6-13.6-13-20.6-27.1-20.8-22.5-.3-37.9 13.3-39.9 35.8-.6 6.6-.6 13.2-.6 19.8v44.8 3.4h-20.5l.1-120.5zM840 429.9l5.6 18.1c-4.7 1.7-9.2 3.7-14 5.1-7.4 2.1-15.2 2.5-22.8 1.5-14-1.8-22.7-10.5-25-24.9-.7-4.2-1-8.6-1-12.9v-62.9-3.7H767v-17.6h15.8v-9.1c0-4.5-.1-9 .1-13.5 0-.8.8-2.1 1.4-2.2 6.3-.8 12.5-1.4 19.3-2.1v26.8h41.1v17.4h-41.1v3.7l.1 59.8c0 4.5.5 9 1.5 13.3 1.4 6.1 5.7 8.9 11.9 9.3 7.1.3 13.6-1.7 19.9-4.6.9-.5 1.8-.9 3-1.5zm616-95.7h20.7v21.2c4.2-4.4 7.9-9 12.2-12.7 9.1-7.8 19.9-10.7 31.8-10.1.8 0 2.1 1.1 2.2 1.8.2 6.8.1 13.6.1 20.3h-7.9c-19.7-.2-34.3 12.1-37.4 31.5-.6 3.9-.9 7.8-.9 11.7V451v3.7h-20.7l-.1-120.5z"/></svg>
