<svg xmlns="http://www.w3.org/2000/svg" viewBox="0 0 1440 534" fill="currentColor"><path d="M478.8 142.1l39.9 51H275.8l-39.9-51h242.9m0-12H235.9a12.04 12.04 0 0 0-12 12c0 2.7.9 5.3 2.5 7.4l39.9 51.1c2.3 2.9 5.8 4.6 9.5 4.6h242.9a12.04 12.04 0 0 0 12-12c0-2.6-.9-5.2-2.5-7.3l-39.9-51.1c-2.3-2.9-5.8-4.6-9.5-4.7z"/><path d="M352.1 142.1l51 63.2v186.5l-51-65.4V142.1m0-12c-1.3 0-2.6.2-3.9.7-4.9 1.6-8.1 6.2-8.1 11.3v184.3c0 2.7.9 5.3 2.5 7.4l51.1 65.4c2.3 2.9 5.7 4.6 9.4 4.6 1.3 0 2.7-.2 3.9-.6 4.8-1.7 8.1-6.2 8.1-11.4V205.4c0-2.7-.9-5.4-2.6-7.5l-51.1-63.4a12.01 12.01 0 0 0-9.3-4.4zm367.8 71.2v18.3h-36.4V338H661V219.6h-32.3v-18.3h91.2zM841 292.1h-82.8c.3 8 3.8 15.5 9.6 20.9 5.8 5.3 13.4 8.1 21.2 7.9a26.18 26.18 0 0 0 25.7-15.1H839c-3.2 9.8-9.4 18.4-17.8 24.4a52.28 52.28 0 0 1-32 9.6c-9.7.2-19.3-2.2-27.8-7-8.1-4.6-14.8-11.4-19.3-19.6-4.8-9.1-7.2-19.2-7-29.4-.2-10.2 2.1-20.2 6.7-29.3 4.3-8.2 10.9-15.1 19.1-19.6a56.64 56.64 0 0 1 28.2-6.9c9.5-.2 19 2.1 27.3 6.7 7.9 4.3 14.4 10.9 18.7 18.8 4.6 8.6 6.9 18.2 6.7 27.9 0 3.5-.3 7.1-.8 10.7zm-22.6-18c.1-7.5-3.1-14.7-8.8-19.7-6-5.1-13.6-7.7-21.4-7.5-7.3-.2-14.5 2.3-20 7.2-5.7 5.2-9.2 12.3-9.9 20h60.1zm123-41.1c6.8 3.5 12.3 9 15.8 15.7 4 7.8 6 16.5 5.7 25.2V338h-22.2v-60.6c.5-8.1-2.1-16.1-7.3-22.3-5.2-5.3-12.4-8.2-19.8-7.8-7.5-.4-14.7 2.4-20 7.8-5.3 6.2-7.9 14.2-7.4 22.3V338h-22.4V229.6h22.4V242c3.8-4.6 8.6-8.1 14.1-10.4 5.7-2.5 11.9-3.8 18.2-3.7 7.9-.2 15.8 1.5 22.9 5.1zm148.6 59.1h-82.8c.3 7.9 3.7 15.4 9.5 20.9 5.9 5.3 13.5 8.1 21.4 7.9 10.9.8 21.1-5.2 25.7-15h24.2c-3.2 9.8-9.4 18.4-17.8 24.4-9.4 6.6-20.6 9.9-32.1 9.5-9.7.2-19.3-2.2-27.9-7-8.2-4.6-14.8-11.4-19.3-19.6-4.8-9.1-7.2-19.2-7-29.4-.1-10.2 2.3-20.2 7-29.3 4.3-8.2 10.9-15.1 19.1-19.6 8.6-4.7 18.3-7.1 28.1-7 9.5-.2 19 2.1 27.3 6.7 7.9 4.4 14.4 10.9 18.7 18.8 4.6 8.6 6.9 18.2 6.7 27.9.1 3.5-.2 7.2-.8 10.8zm-22.6-18c.1-7.5-3.2-14.7-8.9-19.7-6-5.1-13.6-7.7-21.4-7.5-7.3-.1-14.4 2.5-19.9 7.4-5.6 5.2-9.1 12.4-9.8 20l60-.2zm64.7 58.7c-8.2-4.6-14.9-11.4-19.5-19.6-4.9-9-7.3-19.2-7.1-29.4-.2-10.2 2.3-20.4 7.3-29.3 4.6-8.3 11.5-15.1 19.8-19.7 17.6-9.1 38.6-9.1 56.3 0a50.03 50.03 0 0 1 19.8 19.7 57.96 57.96 0 0 1 7.3 29.3 56.65 56.65 0 0 1-7.5 29.3c-4.8 8.4-11.9 15.2-20.5 19.7-8.7 4.7-18.5 7.1-28.4 7-9.6.1-19.1-2.3-27.5-7zm43.9-16.6c5.2-2.9 9.4-7.2 12.3-12.4 3.3-6.2 4.9-13.1 4.7-20.1.2-6.9-1.3-13.8-4.5-19.9-2.7-5.2-6.9-9.4-12-12.3a32.71 32.71 0 0 0-16.2-4.3c-5.6 0-11.2 1.5-16 4.3-5 2.9-9.1 7.2-11.7 12.3-3 6.2-4.5 13-4.3 19.9-.6 9.8 2.6 19.5 9 27 5.8 6.3 14 9.8 22.5 9.6 5.7 0 11.3-1.4 16.2-4.1z"/></svg>
