<svg xmlns="http://www.w3.org/2000/svg" viewBox="0 0 2000 742.9" fill="currentColor"><path d="M1009.43 484.24h40.9V300.92h85.19V268.1H953.86v32.82h55.57v183.32zm85.19-164.58h40.9v164.58h-40.9zm215.49 0h-43.68l-30.72 51.49-34.03-51.49h-46.09l54.36 81.98-.16.26-53.61 82.34h43.69l30.42-51.8.41.62 33.92 51.18h46.09l-54.67-82.59 54.07-81.99zm16.1-47.04h40.89v211.62h-40.89zm-477 98.83a123.64 123.64 0 0 0 31-111.2l-1.94-9.07-9.07-1.94A123.63 123.63 0 0 0 760 278.45h0l-2 1.86a123.54 123.54 0 0 0-111.25-31.07l-9.08 1.94-1.94 9.07a123.64 123.64 0 0 0 31 111.2h0a123.64 123.64 0 0 0-31 111.2l1.93 9.07 9.08 1.94A123.63 123.63 0 0 0 756 464.45h0l2-1.86a123.54 123.54 0 0 0 111.25 31.07l9.08-1.94 1.93-9.07a123.66 123.66 0 0 0-31-111.2zm5.19 85.35a88.2 88.2 0 0 1-.62 10.42 90.08 90.08 0 0 1-10.41.62 95.34 95.34 0 0 1-67.29-27.54 123 123 0 0 0 15.67-35.72L764 397.45a93.23 93.23 0 0 1-91.43 70.38 90.34 90.34 0 0 1-10.42-.61 90.38 90.38 0 0 1-.62-10.42 95.47 95.47 0 0 1 30.62-70.31l15.05-15-15.05-15a95.44 95.44 0 0 1-30.62-70.31 90.21 90.21 0 0 1 .62-10.41 90.38 90.38 0 0 1 10.42-.62 95.25 95.25 0 0 1 67.28 27.54 123.15 123.15 0 0 0-15.66 35.71l27.74 7.14a93.22 93.22 0 0 1 91.43-70.39 90.38 90.38 0 0 1 10.42.62 90 90 0 0 1 .61 10.41 95.43 95.43 0 0 1-30.61 70.31l-15 15 15 15a95.46 95.46 0 0 1 30.62 70.31z"/></svg>
