<svg xmlns="http://www.w3.org/2000/svg" viewBox="0 0 1440 534" fill="currentColor"><path d="M620.3 151.1c11.1 9.4 14.6 22.9 18.6 35.8 30.3 98.8-44.6 197.5-148.3 196.1-86.2-1.2-155.8-76.4-149.5-162 1.5-20.8 6.5-40.8 16.9-59.2 2.3-4.1 6.5-7.2 9.8-10.8h7.5c16.6 10.4 3.1 22 .3 33.2 2 .5 3.2.9 4.4 1l77.1 6.4c3.6.3 7.8-1.1 11-2.9 14-8 29-10.8 42.9-2.6 10.6 6.3 20.6 5.7 31.5 4.5 8.2-.9 16.5-1.3 24.7-2l44.6-4c-4.1-11.6-16-22.7-.4-33.3 2.9-.2 5.9-.2 8.9-.2zm-.2 75.9c-.9 0-1.4-.1-1.9 0l-82.5 21.8c-1.6.4-3.1 1.5-4.3 2.7-6.8 7-11.1 14.7-10.6 25.1.3 8.1-1.3 16.3-2.1 24.5l-4.7 54.2c58.5-6.9 110.3-64.7 106.1-128.3zM471.4 355.2c.1-1.7.3-3.4.2-5.1-2.4-28.3-4.3-56.6-7.8-84.8-.9-7.5-6.8-14.7-15.6-17.1l-76-20.3c-1.8-.5-3.7-.5-5.5-.8-3.6 62.8 45.7 120.1 104.7 128.1zm7.7 2.4c7.7 0 14.4-.2 21.1.1 5.5.3 7.2-2.1 7.6-7.4 1-15.4 2.7-30.7 4-46.1l2.9-35.3c-7.8 1.2-14.9 3.3-22 3.2-7 0-13.9-2.2-21.4-3.5l7.8 89zM614.7 191l-86.2 7.7c9.8 13.6 11.5 27.2 8.2 42.8l83.9-22.3-5.9-28.2zm-165.2 50.3c-4.2-15.7-1.1-29.3 7.4-42.7l-84.8-7.4-5.7 28.1 83.1 22zm82.6-13.9c0-21.7-17.4-39-39.1-39-21 .1-38.3 17.2-38.5 37.9-.2 21.8 16.9 39.2 38.7 39.3 21.4.2 38.9-17 38.9-38.2zm205.5-76.3l.2 67.2c.1 11.6 5.6 19.4 15.7 23 11.2 4.1 24.8 1.7 30.6-7.3 3.6-5.5 5.4-12.9 5.6-19.5.8-21.1.4-42.3.5-63.5h15c0 21.4-.8 42.8.2 64.2 1.5 32.8-25.9 45.2-49.9 41.2-22.1-3.7-33.2-16.8-33.2-39l.3-66.4 15 .1zm136.8 0l4.8 1.8c16.7 5.3 24.7 18.8 22.3 38.1-1.8 15.3-13.6 26.3-29.9 27.3-8.7.5-17.4.1-27 .1V255h-15.1c-.3-1.4-.8-3-.8-4.7v-95.6c0-1.2.3-2.5.5-3.7l45.2.1zm-29.9 54.1c8.5 0 16.2.5 23.9-.1 11.6-.9 17.8-8.1 18-19.7.1-11.6-5.9-19.4-17.2-20.5-8.1-.8-16.3-.2-24.7-.2v40.5zm141.1-54.1v13.4h-48.8v32h43.8v13.3c-7.4 0-15.1-.1-22.7 0-6.9.2-16.5-1.8-20 1.8-3.6 3.7-1.4 13.1-1.6 20v23.5H921V151l64.6.1zm36.1 0l-.6 55.9v48.1h-15.9v-104h16.5zm-303 161.3c6.5-2.4 10.1.1 13.5 5.2 9.9 14.9 20.3 29.4 32.1 43.7v-49.2h9.8v68.3c-5.8 2.2-9.5.5-12.9-4.7-8.9-13.5-18.4-26.7-27.7-40-1.1-1.5-2.4-2.8-4.9-5.8v51h-9.9v-68.5zm212.3 53l9.8-35.9H951l-14.9 49.2c-.5 1.4-4.4 2.6-6.7 2.4-1.8-.2-4.4-2.2-4.9-4-2.8-8.5-5-17.2-7.5-25.8-.7-2.3-1.5-4.6-2.8-8.7l-9.5 33.4c-1 3.6-2.2 5.5-6.4 5.5-4 0-5.7-1.4-6.7-5.1L878 330c7.7-2.6 10.8.1 12.3 7.3 1.9 9.6 5 18.9 9.1 28.2l9.7-35.5c7.9-2.8 11.5.2 13 7.9 1.9 9.3 4.8 18.5 7.3 27.7.5-.1 1.1-.2 1.6-.2zm-97.8-7.3h-35.7c-.5 7.2 2 12.8 8 14.2 4.8 1.1 11.6.9 15.2-1.8 4.3-3.2 7.4-4.1 11.8-1.9-2.8 10.5-13.8 15.7-27.5 12.7-13.1-2.8-20.6-16.9-17.5-32.7 2.9-14.4 14.2-22.1 28.6-19.6 12.5 2.3 19.3 13.2 17.1 29.1zm-9.2-7.8c-.8-9.3-5.6-14-13.5-13.6-7.6.4-12.3 5.5-12.3 13.6H824z"/><path d="M1097.2 330l-20 21.5 11 14.7 11.1 14.8c-19.2 3.3-19.2-16.3-30.5-22.2-9.1 5.1-2.2 14.9-5.8 22.3h-8.1v-68.9l8.9-.4v38c.7.3 1.3.6 2 .9 4.8-5 9.9-9.9 14.4-15.2 4.3-5.3 9.1-7.8 17-5.5zm-91.5 25.4c0 16.1-9.4 26.5-23.9 26.7-14.9.2-24.6-10.4-24.6-26.7 0-16 9.4-26.6 23.9-26.7 15-.2 24.6 10.2 24.6 26.7zm-9.3.8c-.9-4-1.2-7.6-2.5-10.7-3.7-9.2-14.5-11.7-21.5-5.3-6.9 6.4-6.8 23.7 0 30.3 5.9 5.6 15.8 4.5 20-2.8 2.1-3.6 2.8-7.9 4-11.5zm-147.2-18.8c-5.2-.4-9.9-.8-6.9-7.7 1.8-.3 3.9-.6 6.4-1.1l.9-11.4h9.3l.8 11.4 9.6.8v7c-3.1.3-6 .5-9.8.8 0 10.3-.5 20.4.4 30.4.2 2.5 5.1 4.5 7.8 6.8.5-.4 1-.9 1.5-1.3.3 1.1.6 2.3.8 3.4l.6 3.6c-13.4 4.1-21.1-1.4-21.3-15-.2-8.9-.1-17.8-.1-27.7zm168.6 43.3v-51.1c4.7-.5 9.5-2.5 9.8 4l17.4-6.8.5 10.8c-2.2 0-3.9-.1-5.5 0-8.2.5-12.2 4.5-12.3 12.8v30.3h-9.9zM824 350.3h-25.8m-276.8-123c-.2 15.7-12.9 28-28.4 27.8-15.3-.2-28.1-13.2-27.9-28.5.2-15.6 12.8-27.8 28.5-27.6 15.9.3 28 12.6 27.8 28.3zm-28 21.1c11.5-.1 21.5-10.3 21.3-21.8-.2-11.2-10-20.8-21.4-20.8-11.8 0-21.6 9.7-21.6 21.3.1 11.9 9.8 21.4 21.7 21.3z"/></svg>
