<svg xmlns="http://www.w3.org/2000/svg" width="200" height="33" fill="currentColor"><path d="M50.235 10.494c-.085-.295.084-.508.38-.508h1.942c.169 0 .337.147.38.295l2.196 8.428h.084l3.357-8.701c.043-.126.147-.231.359-.231h.38c.211 0 .316.105.359.231l3.384 8.701h.085l2.154-8.428c.043-.147.211-.295.38-.295h1.942c.295 0 .465.211.38.508l-3.991 14.193c-.043.169-.211.295-.38.295h-.337c-.19 0-.316-.106-.359-.233l-3.78-9.566h-.105l-3.739 9.566c-.064.126-.147.233-.359.233h-.337a.41.41 0 0 1-.38-.295l-3.994-14.193zm21.944-.105c0-.211.19-.401.401-.401h1.964c.211 0 .401.19.401.401v13.982c0 .211-.19.401-.401.401H72.58c-.211 0-.401-.19-.401-.401V10.389zm8.399-.233c0-.211.19-.38.401-.38h.527l8.785 9.334h.021v-8.721a.4.4 0 0 1 .401-.401h1.942c.211 0 .401.19.401.401v14.213c0 .211-.19.38-.401.38h-.508l-8.827-9.694h-.02v9.081a.4.4 0 0 1-.401.401h-1.921c-.211 0-.401-.19-.401-.401V10.156h.002zm20.065 2.366h-3.231a.4.4 0 0 1-.401-.401V10.39a.4.4 0 0 1 .401-.401h9.229a.4.4 0 0 1 .401.401v1.731a.4.4 0 0 1-.401.401h-3.231V24.37c0 .211-.19.401-.402.401h-1.963c-.212 0-.402-.19-.402-.401V12.522zm10.341-2.133a.4.4 0 0 1 .402-.401h8.595a.4.4 0 0 1 .401.401v1.731a.4.4 0 0 1-.401.401h-6.252v3.464h5.217c.211 0 .401.19.401.401v1.752a.4.4 0 0 1-.401.401h-5.217v3.696h6.252a.4.4 0 0 1 .401.401v1.733a.4.4 0 0 1-.401.401h-8.595a.4.4 0 0 1-.402-.401v-13.98zm14.339 0a.4.4 0 0 1 .401-.401h6.04c2.534 0 4.604 2.028 4.604 4.541 0 1.942-1.289 3.526-3.125 4.266l2.894 5.364c.147.275 0 .612-.359.612h-2.217c-.19 0-.295-.105-.338-.19l-2.808-5.596h-2.344v5.385c0 .211-.19.401-.401.401h-1.943a.4.4 0 0 1-.401-.401V10.389h-.003zm6.209 6.335c1.118 0 2.091-.971 2.091-2.154 0-1.119-.971-2.049-2.091-2.049h-3.443v4.203h3.443zm11.132-6.631c.021-.169.147-.316.38-.316h.337c.169 0 .295.084.359.211l4.646 9.969h.064l4.646-9.969c.064-.126.169-.211.359-.211h.337c.233 0 .359.147.38.316l2.493 14.191c.063.295-.106.486-.381.486h-1.92c-.19 0-.359-.169-.402-.316l-1.246-8.004h-.064l-3.696 8.3c-.043.126-.169.233-.359.233h-.378a.38.38 0 0 1-.359-.233l-3.739-8.3h-.064l-1.225 8.004a.41.41 0 0 1-.38.316h-1.901c-.275 0-.444-.19-.401-.486l2.514-14.191zm18.354.296c0-.211.19-.401.401-.401h2.006a.4.4 0 0 1 .401.401v8.638c0 1.795 1.226 3.21 3.063 3.21s3.085-1.415 3.085-3.189v-8.659a.4.4 0 0 1 .4-.401h2.007c.211 0 .401.19.401.401v8.785c0 3.21-2.555 5.808-5.893 5.808-3.315 0-5.871-2.597-5.871-5.808v-8.785zm19.243 2.133h-3.231a.4.4 0 0 1-.401-.401V10.39a.4.4 0 0 1 .401-.401h9.229a.4.4 0 0 1 .401.401v1.731a.4.4 0 0 1-.401.401h-3.232V24.37c0 .211-.189.401-.401.401h-1.964c-.21 0-.401-.19-.401-.401V12.522zm10.341-2.133a.4.4 0 0 1 .402-.401h8.595a.4.4 0 0 1 .401.401v1.731a.4.4 0 0 1-.401.401h-6.251v3.464h5.216c.211 0 .4.19.4.401v1.752a.4.4 0 0 1-.4.401h-5.216v3.696h6.251a.4.4 0 0 1 .401.401v1.733a.4.4 0 0 1-.401.401h-8.595a.4.4 0 0 1-.402-.401v-13.98zM.026 21.275a.63.63 0 0 0-.013.08.96.96 0 0 0-.01.092c0 .008-.003.016-.003.026 0 .018.005.034.005.051a.58.58 0 0 0 .01.092l.018.08.025.079c.01.027.021.052.034.077l.039.072.047.067a.68.68 0 0 0 .054.066c.018.02.039.039.059.057l.064.052c.025.018.051.033.077.049.015.008.028.02.044.028l20.613 10.306.023.008c.012.005.021.011.033.016s.021.007.033.011l.051.016.049.013c.01.002.018.007.028.008l.03.003.056.007.057.003h.051c.02 0 .038-.002.057-.003l.056-.007c.01-.002.02-.002.03-.003s.018-.005.028-.008c.016-.003.033-.008.049-.013l.051-.016c.011-.003.021-.007.033-.011s.021-.011.033-.016.016-.005.023-.008l20.61-10.307c.016-.008.028-.02.044-.028l.077-.049c.025-.018.043-.034.064-.052a.64.64 0 0 0 .059-.057c.02-.021.036-.043.054-.066l.047-.067c.015-.023.026-.048.039-.072a.53.53 0 0 0 .034-.077.73.73 0 0 0 .025-.079l.018-.08.01-.092c.002-.016.005-.033.005-.051 0-.008-.002-.016-.003-.026l-.01-.092-.013-.08-.023-.075c-.01-.03-.02-.061-.034-.088l-.008-.023L32.547.475c-.005-.01-.013-.016-.018-.025a.78.78 0 0 0-.105-.15l-.028-.033a.89.89 0 0 0-.161-.131c-.015-.01-.029-.016-.044-.025-.048-.026-.098-.047-.151-.066-.018-.007-.036-.011-.054-.016a.83.83 0 0 0-.202-.028c-.015-.002-.025.002-.033.002-.054.002-.107.007-.157.018-.016.003-.033.011-.049.015a1.08 1.08 0 0 0-.128.046l-.021.008c-.016.008-.028.02-.044.028l-.077.049c-.025.018-.043.034-.064.052a.65.65 0 0 0-.059.057c-.02.021-.036.043-.054.066l-.047.067c-.015.023-.026.047-.039.072a.58.58 0 0 0-.034.077l-.024.079-.018.08c-.005.031-.007.061-.01.092-.002.016-.005.033-.005.051v18.539l-8.839-8.839a.83.83 0 0 0-.133-.108c-.02-.013-.043-.023-.064-.034l-.084-.044c-.028-.011-.057-.018-.085-.026l-.074-.021c-.056-.011-.111-.016-.169-.016a1.05 1.05 0 0 0-.169.016c-.026.005-.049.015-.075.021l-.085.026c-.03.011-.056.029-.084.044l-.064.034a.83.83 0 0 0-.133.108l-8.839 8.839V.86c0-.018-.005-.034-.005-.051a.57.57 0 0 0-.01-.092l-.018-.08a.72.72 0 0 0-.025-.079l-.034-.077-.039-.072-.047-.067a.7.7 0 0 0-.054-.066c-.018-.02-.039-.039-.059-.057l-.064-.052c-.025-.018-.051-.033-.077-.049-.015-.008-.028-.02-.044-.028l-.021-.008c-.041-.02-.084-.033-.126-.046-.018-.005-.034-.013-.052-.016a.81.81 0 0 0-.156-.018C11.186.003 11.176 0 11.168 0a.94.94 0 0 0-.208.029l-.054.016a.82.82 0 0 0-.151.066l-.044.025c-.059.038-.113.08-.161.131-.01.01-.018.023-.028.033a.83.83 0 0 0-.105.151c-.005.01-.013.016-.018.025L.092 21.088l-.008.023c-.013.028-.023.059-.034.088l-.023.075zm10.785 1.056l6.312 6.312-12.624-6.312h6.312zm21.324 0h6.312l-12.624 6.312 6.312-6.312zm.503-1.718V4.497l8.058 16.116h-8.058zm-10.306 9.091V13.238l8.233 8.233-8.233 8.233zm-1.716 0l-8.233-8.233 8.233-8.233v16.466zM2.25 20.613l8.058-16.116v16.116H2.25z"/></svg>
