<svg xmlns="http://www.w3.org/2000/svg" width="160" height="41" fill="currentColor"><path d="M34.024 9.229h2.856v3.838c.979-1.388 2.04-2.45 3.1-3.103 1.469-.898 3.019-1.307 4.569-1.307 1.061 0 2.121.245 3.1.653s1.795.98 2.366 1.715c.653.735 1.142 1.715 1.632 3.021.979-1.715 2.121-3.103 3.59-4.001s2.937-1.388 4.651-1.388c1.55 0 2.937.408 4.079 1.143 1.142.817 2.04 1.878 2.611 3.267s.897 3.512.897 6.288v12.168h-3.019V19.356c0-2.368-.163-4.001-.49-4.9s-.897-1.633-1.713-2.205-1.795-.817-2.937-.817c-1.387 0-2.693.408-3.835 1.225s-1.958 1.878-2.529 3.267-.816 3.675-.816 6.859v8.738H49.28V20.091c0-2.695-.163-4.491-.489-5.471s-.898-1.715-1.795-2.287c-.816-.572-1.795-.898-2.937-.898-1.305 0-2.529.408-3.753 1.225-1.142.817-2.04 1.878-2.529 3.267-.571 1.388-.816 3.43-.816 6.206v9.473h-2.856V9.229h-.081zm48.465 2.203a8.85 8.85 0 0 0-4.406 1.143c-1.387.817-2.448 1.878-3.264 3.348-.816 1.388-1.224 2.94-1.224 4.491s.408 3.103 1.224 4.491a8.58 8.58 0 0 0 3.264 3.348c1.387.816 2.856 1.225 4.406 1.225s3.101-.408 4.488-1.225 2.529-1.878 3.264-3.185a9.5 9.5 0 0 0 1.142-4.573c0-2.613-.816-4.736-2.529-6.451s-3.835-2.613-6.364-2.613zm11.504-2.205v22.375h-2.856v-3.838c-1.224 1.47-2.529 2.531-4.079 3.266-1.469.735-3.1 1.143-4.895 1.143-3.182 0-5.874-1.143-8.078-3.43s-3.345-5.063-3.345-8.329c0-3.185 1.142-5.961 3.345-8.248 2.285-2.287 4.977-3.43 8.159-3.43 1.795 0 3.508.408 4.977 1.143s2.774 1.96 3.916 3.511V9.309h2.856v-.082zm2.856.002h2.937v3.267c.898-1.307 1.795-2.287 2.774-2.858.979-.653 1.958-.98 3.019-.98.816 0 1.632.245 2.529.735l-1.468 2.45c-.571-.245-1.142-.408-1.55-.408-.98 0-1.877.408-2.775 1.143-.897.817-1.55 2.042-2.039 3.675-.327 1.307-.572 3.838-.572 7.758v7.595h-2.937V9.229h.082zm21.214 2.205c-1.632 0-3.101.408-4.569 1.143-1.387.817-2.53 1.878-3.264 3.266a8.64 8.64 0 0 0-1.224 4.491c0 2.45.816 4.491 2.448 6.043 1.632 1.633 3.753 2.368 6.364 2.368s4.732-.817 6.364-2.368 2.448-3.675 2.448-6.288c0-1.715-.408-3.185-1.142-4.491a8.1 8.1 0 0 0-3.101-3.103c-1.305-.653-2.774-1.062-4.324-1.062zm8.485-2.205h2.855v17.802c0 3.103-.243 5.39-.815 6.86-.734 2.041-2.04 3.675-3.916 4.736-1.877 1.143-4.08 1.633-6.691 1.633-1.876 0-3.671-.245-5.14-.817-1.55-.572-2.774-1.307-3.753-2.205s-1.877-2.286-2.611-4.001h3.1c.816 1.47 1.958 2.613 3.264 3.267 1.305.735 3.019 1.062 4.977 1.062s3.59-.327 4.977-1.062 2.285-1.633 2.856-2.776.897-2.858.897-5.39v-1.143a10.2 10.2 0 0 1-3.998 3.185c-1.55.735-3.182 1.062-4.977 1.062-2.04 0-3.998-.49-5.793-1.552a10.54 10.54 0 0 1-4.161-4.083c-.979-1.715-1.469-3.593-1.469-5.716 0-2.042.49-4.001 1.551-5.798s2.447-3.185 4.242-4.246a11.14 11.14 0 0 1 5.712-1.552c1.632 0 3.263.327 4.65 1.062 1.469.653 2.856 1.797 4.162 3.43V9.229h.081zM134.87 0c.653 0 1.225.245 1.713.735s.736 1.062.736 1.715-.245 1.225-.736 1.633-1.06.735-1.713.735-1.224-.245-1.631-.735-.735-.98-.735-1.633.245-1.225.735-1.715S134.218 0 134.87 0zm-1.469 31.603h2.937V9.228h-2.937v22.375zm7.18-22.374h2.857v4.001c1.141-1.552 2.447-2.695 3.834-3.43a9.72 9.72 0 0 1 4.569-1.143c1.633 0 3.182.408 4.406 1.307a6.94 6.94 0 0 1 2.856 3.43c.653 1.47.897 3.675.897 6.696v11.514h-2.855V20.907c0-2.613-.082-4.328-.327-5.145-.326-1.47-.979-2.613-1.877-3.348-.979-.735-2.203-1.143-3.671-1.143-1.713 0-3.264.572-4.651 1.715s-2.284 2.613-2.692 4.246c-.245 1.143-.409 3.103-.409 6.043v8.166h-2.855V9.229h-.082zM9.056 2.369H5.548l8.975 14.699-9.628 15.597h3.508l9.872-15.761-9.22-14.536zM3.998 7.184H0l6.69 9.963L.082 27.845H3.59l6.772-10.779-6.364-9.881zm23.335-4.815h-3.59l-5.956 9.473 1.877 2.94 7.67-12.413zm.653 30.295l-8.241-13.393-1.958 2.858 6.609 10.534h3.59z"/></svg>
