<svg xmlns="http://www.w3.org/2000/svg" viewBox="0 0 2000 742.9" fill="currentColor"><path d="M675.55,238.19h-111v55.52h111Zm155.47,0H720v55.52H831Zm-111,211H775.5V393.66H831v111H720Zm-44.42,0H620V393.66H564.5v111h111Z" fill-rule="evenodd"/><path d="M1057.28 459.74h-29.36l-34.07-51.63-33 51.63h-29.12l48.27-70.5-45.86-66.58h29.56l31.72 48.23 31.71-48.23h28.31l-46.39 66.58zm23.85-188.19h76.27c49 0 79.16 37.22 79.16 91.48 0 42.2-18.35 96.71-80.21 96.71h-75.22zM1106.55 438h49.28c33 0 54.52-25.95 54.52-73.39s-21.76-71.29-56.35-71.29h-47.45zm158.84-73.66c1-32.77 22.8-45.61 56.61-45.61 11 0 50.85 3.15 50.85 38.27v78.89c0 5.77 2.89 8.13 7.61 8.13a44.27 44.27 0 0 0 7.6-1v16.77c-3.94 1.05-7.34 2.63-12.58 2.63-20.45 0-23.59-10.49-24.38-21-8.91 9.69-22.8 22.28-49.54 22.28-25.16 0-43-16-43-39.58 0-11.54 3.41-38.27 41.68-43l38-4.72c5.5-.52 12-2.62 12-16.25 0-14.41-10.48-22.28-32.24-22.28-26.21 0-29.88 16-31.45 26.48zm84.4 25.42c-3.67 2.88-9.44 5-38 8.65-11.27 1.57-29.35 5-29.35 22.28 0 14.94 7.6 23.85 24.9 23.85 21.49 0 42.46-13.89 42.46-32.24zm62.65-92v-26.21h23.06v26.21zm23.06 162h-23.06v-137.1h23.06z"/></svg>
