<svg xmlns="http://www.w3.org/2000/svg" viewBox="0 0 2000 742.9" fill="currentColor"><path d="M447.76 205.2A166.25 166.25 0 1 0 614 371.45 166.26 166.26 0 0 0 447.76 205.2zm99 63.54l-36.21 29.63a96.59 96.59 0 0 1 30.35 70.41c0 53.14-42.81 96.37-95.44 96.37a94.14 94.14 0 0 1-47.79-13l-40.21 32.91a10.5 10.5 0 0 1-13.3-16.25l36.21-29.64A96.55 96.55 0 0 1 350 368.78c0-53.14 42.82-96.37 95.44-96.37a94.2 94.2 0 0 1 47.8 13l40.2-32.9a10.5 10.5 0 0 1 13.3 16.25zm-52.67 43.08l-80.29 65.72a10.51 10.51 0 0 1-17.16-8.12v-57.5a75.82 75.82 0 0 0 .12 113.82L477.05 360a10.5 10.5 0 0 1 17.15 8.13v57.49a75.83 75.83 0 0 0-.11-113.82zm-48.67 132.33a73.25 73.25 0 0 0 27.78-5.46v-48.38l-57.88 47.38a73.22 73.22 0 0 0 30.1 6.46zm0-150.74a73.07 73.07 0 0 0-27.78 5.47v48.37l57.89-47.38a73.3 73.3 0 0 0-30.11-6.46zm375.38 43.52v-19.81h-86.38V345h46.3l-48.61 67.49v19.82h91v-27.88h-51.14l48.83-67.5zm889.11-5.41q-16.47-17.62-39.74-17.62-24.2 0-37.32 16.81v-13.59h-29.72v161.26h29.72v-59.67q13.13 16.82 37.32 16.82 23.26 0 39.74-17.62 16.48-17.62 16.47-43.2 0-25.56-16.47-43.19zm-22.35 66.58q-9.11 9.09-22.92 9.1-13.81.01-22.81-9-9-9.21-9-23.5 0-14.29 9-23.38 9-9.1 22.81-9.1 13.81 0 22.92 9.1 9.11 9.1 9.1 23.38-.01 14.28-9.1 23.4zm-438.04-30.18a153.2 153.2 0 0 0-17.51-5.53 81.37 81.37 0 0 1-14.86-5.07q-6.11-2.88-6.1-7.49a7.89 7.89 0 0 1 3.8-6.91 16.86 16.86 0 0 1 9.56-2.53q12.9 0 18.43 11.75l25.34-13.82a46.34 46.34 0 0 0-18.2-18.09 52.2 52.2 0 0 0-25.57-6.33q-18.66 0-31.22 9.79-12.56 9.79-12.55 26.84 0 11.28 6.1 18.77a36 36 0 0 0 14.86 10.94 153 153 0 0 0 17.51 5.76 87.39 87.39 0 0 1 14.86 5.18q6.1 2.88 6.1 7.49 0 9.91-15.89 9.91-17.51 0-22.58-15l-25.8 14.52q12.9 27.4 48.38 27.41 19.82 0 33.06-9.56 13.24-9.56 13.24-27.3 0-11.75-6.1-19.58a34 34 0 0 0-14.86-11.15zm-145.36-54.02q-25.58 0-43.2 17.62-17.62 17.62-17.62 43.19 0 25.57 17.62 43.2 17.62 17.63 43.2 17.62 25.56 0 43.31-17.51 17.73-17.73 17.73-43.31 0-25.58-17.73-43.19-17.74-17.62-43.31-17.62zm22.34 83.62q-9 9-22.34 9-13.34 0-22.35-9-8.74-9-8.75-22.81-.01-13.81 8.87-22.8 8.86-9 22.23-9a30.34 30.34 0 0 1 22.34 9q9 9 9 22.8 0 13.8-9 22.81zM892.68 313.9q-26.73 0-43.77 17.39-17.04 17.39-17 43.42 0 26.27 17.28 43.54 17.28 17.27 45.81 17.28 33.18 0 50.22-24.65l-24-13.82q-8.76 11.52-25.81 11.52-26.49 0-32.48-21.66h86.85a69.36 69.36 0 0 0 1.22-12.21q0-25.8-16.47-43.31-16.47-17.51-41.85-17.5zm-30.18 50q2.54-11.07 10.37-17.17 7.83-6.1 19.81-6.1a30 30 0 0 1 18.08 5.76q7.95 5.76 10.49 17.51zm533.76 24.17l-20.96-70.95h-28.11l-20.96 70.72-19.58-70.72h-31.56l36.63 115.19h28.33l21.2-69.81 21.19 69.81h28.34l36.62-115.19h-31.56l-19.58 70.95zm-394.85-51.14v-19.81H971.7v115.19h29.71v-55.06q0-16.59 10.71-23.73a35.05 35.05 0 0 1 24.31-5.53v-33.17a41.75 41.75 0 0 0-21.31 5.53 31.05 31.05 0 0 0-13.71 16.58zm545.05-6.22q-13.37-16.81-37.55-16.81-23 0-39.51 17.62-16.51 17.62-16.47 43.19 0 25.57 16.47 43.2 16.47 17.63 39.51 17.62 24.19 0 37.55-16.82v13.6h29.72V317.12h-29.72zm-9.1 67.39q-9.09 9.09-22.92 9.1-13.83.01-22.81-9-9-9.21-9-23.5 0-14.29 9-23.38 9-9.1 22.81-9.1 13.81 0 22.92 9.1 9.11 9.1 9.1 23.38-.01 14.28-9.1 23.4z"/></svg>
